<?xml version="1.0" encoding="utf-8"?>
<!-- Generator: Adobe Illustrator 23.0.1, SVG Export Plug-In . SVG Version: 6.00 Build 0)  -->
<svg version="1.1" xmlns="http://www.w3.org/2000/svg" xmlns:xlink="http://www.w3.org/1999/xlink" x="0px" y="0px"
	 viewBox="0 0 300 300" style="enable-background:new 0 0 300 300;" xml:space="preserve">
<style type="text/css">
	.st0{fill:#FFFFFF;}
	.st1{fill:#212121;}
</style>
<g id="Background">
</g>
<g id="Layer_1">
	<g>
		<path class="st0" d="M72.02,87.36c1.4-16.91,6.31-32.37,19.54-44.99c13.27-12.66,30.82-17.76,49.96-20.56
			c0.15-2.89,0.29-5.64,0.46-8.97c5.7-3.04,11.71-6.25,17.87-9.53c5.94,3.14,11.69,6.18,17.73,9.38c0,2.96,0,5.86,0,9.22
			c25.61,4.35,46.04,14.95,58.24,35.68c-13.62-18.18-33.06-28.29-58.5-32.21c0,12.12,0,23.81,0,35.5c-0.64,0-1.28,0-1.93,0
			c0-5.61,0-11.21,0-16.82c0-6.84-0.67-13.75,0.18-20.51c0.93-7.31-1.99-11.8-9.58-14.43c-1.91-0.66-3.62-1.75-6.24-3.05
			c0,44.72,0,88.62,0,133.36c-25.58-8.02-50.37-15.8-75.26-23.6c-0.58,7.61,3.88,14.39,11.03,17.26
			c19.84,7.97,39.7,15.9,59.47,23.99c3.18,1.3,5.78,1.37,9,0.05c17.83-7.34,35.76-14.48,53.65-21.68
			c9.89-3.98,9.89-3.98,15.96-11.34c-0.46,6.31-4.13,9.88-10.89,12.42c-19.23,7.23-38.14,15.13-57.17,22.78
			c-1.91,0.77-3.77,1.65-5.99,2.63c0,5.15,0,10.22,0,16.22c-34.13-15.85-67.44-31.32-100.81-46.81c0-14.37,0-28.46,0-43.34
			c28.12,10.73,55.78,21.29,83.45,31.85c0.26-0.38,0.52-0.77,0.78-1.15c-2.51-1.47-4.87-3.2-7.56-4.35
			c-19.13-8.19-38.33-16.26-57.5-24.37C76.15,89.23,74.43,88.44,72.02,87.36z M85.49,89.36c1.58-7.2,2.23-14.27,4.8-20.75
			c2.64-6.64,6.25-13.34,11.14-18.86c4.78-5.4,11.22-9.99,17.8-13.77c6.53-3.75,14.16-6.04,21.68-9.13
			C108,28.07,78.1,57.59,80.13,86.83C81.76,87.6,83.58,88.46,85.49,89.36z M63.71,93.13c0,10.93,0,20.89,0,30.86
			c0.25,0.01,0.51,0.01,0.76,0.02c1.42-8.32,2.84-16.63,4.28-25.06c3.73,0.54,6.76,0.99,9.8,1.43c0.12-0.3,0.23-0.59,0.35-0.89
			C74.06,97.46,69.22,95.44,63.71,93.13z"/>
		<path class="st0" d="M149.5,185.17c3.46,1.81,6.59,3.44,10.09,5.26c0,24.47,0,48.96,0,74.77c13.06-8.63,25.09-16.58,37.12-24.53
			c0.31,0.33,0.62,0.67,0.93,1c-12.38,9.15-24.76,18.29-37.37,27.61c-1.82-1.29-3.34-2.32-4.8-3.41
			c-24.94-18.61-47.51-39.31-68.99-60.89c-3.15-3.16-4.06-8.45-4.83-12.92c-2.67-15.47-4.82-31.01-7.21-46.79
			c8.91,2.09,10.76,4.15,11.53,11.08c1.39,12.52,2.06,25.18,4.93,37.44c1.28,5.5,7.14,10.18,10.91,15.23
			c0.65-0.25,1.29-0.49,1.94-0.74c-0.96-16.16-1.92-32.32-2.95-49.56c3.45,1.74,5.95,3,8.43,4.25c1.12,15.48,3.09,30.67,3,45.85
			c-0.06,9.91,5.43,15.82,14.34,22.17c-0.65-20.13-1.27-39.35-1.92-59.51c3.92,2.12,7.15,3.86,11.41,6.16
			c0,17.48,0.7,35.23-0.28,52.91c-0.53,9.57,5.26,13.61,13.73,17.4C149.5,227.05,149.5,206.43,149.5,185.17z"/>
		<path class="st0" d="M62.56,203.92c4.7-3.35,9.21-6.57,13.99-9.98c5.52,19.02,22.19,30.86,35.74,44.41
			c14.02,14.02,29.6,26.84,44.31,40.33c1.61,1.48,2.56,3.89,2.87,5.97c0.47,3.18,0.12,6.46,0.12,11.29
			c28.74-19.22,52.46-40.99,74.97-63.88c-21.64,24.84-46.04,47.33-73.84,66.76C142.36,290.64,75.61,226.15,62.56,203.92z"/>
		<path class="st0" d="M176.09,120.34c0-1.8,0-2.95,0-4.38c17.08-5.48,34.13-10.96,51.18-16.43c0.12,0.26,0.24,0.51,0.36,0.77
			C210.63,106.91,193.63,113.52,176.09,120.34z"/>
		<path class="st0" d="M207.79,188.97c-0.62,9.13-0.2,18.45-2.27,27.32c-1.14,4.91-6.45,9.08-9.88,13.58c-0.7-0.37-1.4-0.74-2.1-1.1
			c0.81-1.44,1.19-3.4,2.51-4.24c6.97-4.49,7.76-11.02,8.46-17.74c0.62-6,1.56-11.98,2.36-17.96
			C207.17,188.87,207.48,188.92,207.79,188.97z"/>
		<path class="st0" d="M182.8,204.97c0,10.95,0.09,21.9-0.13,32.84c-0.02,1.21-1.62,2.63-2.87,3.56c-2.77,2.06-5.78,3.87-8.69,5.78
			c-0.44-0.42-0.88-0.84-1.33-1.26c1.72-1.43,3.25-3.11,5.21-4.23c3.56-2.04,5.06-4.51,5.22-8.4c0.38-9.44,1.49-18.86,2.3-28.3
			C182.61,204.98,182.7,204.98,182.8,204.97z"/>
		<path class="st0" d="M216.39,207.07c0.56-1.41,0.63-3.33,1.75-4.16c9.06-6.77,8.71-16.52,10.88-25.47
			c0.51-2.1,0.91-4.22,1.46-6.84C232.71,185.65,228,198.41,216.39,207.07z"/>
		<path class="st1" d="M85.49,89.36c-1.91-0.9-3.73-1.75-5.36-2.52C78.1,57.59,108,28.07,140.91,26.85
			c-7.52,3.08-15.14,5.38-21.68,9.13c-6.59,3.78-13.03,8.37-17.8,13.77c-4.88,5.52-8.5,12.21-11.14,18.86
			C87.72,75.09,87.07,82.16,85.49,89.36z"/>
		<path class="st1" d="M63.71,93.13c5.51,2.31,10.35,4.33,15.19,6.36c-0.12,0.3-0.23,0.59-0.35,0.89c-3.03-0.44-6.07-0.88-9.8-1.43
			c-1.44,8.42-2.86,16.74-4.28,25.06c-0.25-0.01-0.51-0.01-0.76-0.02C63.71,114.02,63.71,104.05,63.71,93.13z"/>
	</g>
</g>
</svg>
