<?xml version="1.0" encoding="utf-8"?>
<!-- Generator: Adobe Illustrator 23.0.1, SVG Export Plug-In . SVG Version: 6.00 Build 0)  -->
<svg version="1.1" xmlns="http://www.w3.org/2000/svg" xmlns:xlink="http://www.w3.org/1999/xlink" x="0px" y="0px"
	 viewBox="0 0 300 300" style="enable-background:new 0 0 300 300;" xml:space="preserve">
<style type="text/css">
	.st0{fill:#424242;}
	.st1{fill:#121212;}
	.st2{fill:#5B5F61;}
	.st3{fill:#2F2F2F;}
	.st4{fill:#3E4142;}
	.st5{fill:#272727;}
	.st6{fill:#1C1C1C;}
	.st7{fill:#171717;}
	.st8{fill:#9E9E9E;}
</style>
<g id="background">
	<rect x="5" y="4" class="st0" width="291" height="291"/>
</g>
<g id="Layer_1">
	<path class="st1" d="M269.8,37.18c-0.77,0.68-1.54,1.35-2.32,2.03c-0.53,0.54-1,1.15-1.59,1.6c-2.03,1.5-1.2,6.61-1.56,6.73
		c-0.79,0.26-22.05,22.85-25.29,24.24c-1.08,0.46-30.41,28.84-31.13,29.18c-2.52,2.08-6.97,7.25-7.15,7.31
		c-0.7,0.25-35.65,36.35-36.8,37.43c-2.34,2.2-11.49,11.46-13.86,13.8c-1.26,1.24-11.14,9.97-11.71,10.53
		c-3.03,2.94-6.2,5.77-8.99,8.92c-1.1,1.24-15.74,15.74-15.92,15.8c-0.8,0.25-10.37,10.22-12.96,12.33c-2.99,2.43-5.08,5.84-8.5,7.8
		c-1.47,0.94-10.14,9.5-10.35,10.22c-0.59,0.61-4.89,6.74-4.77,7.1c-1.55-0.22-2.74-0.02-2.34,2.02c-0.17,0.07-0.35,0.13-0.52,0.2
		c-3.49,1.91-6.01,4.99-8.77,7.71c-1.06,1.04-3.42,1.31-3.02,3.63c-0.17,0.07-0.34,0.13-0.52,0.2c-3.1,2.15-5.58,5-8.3,7.58
		c-0.63,0.59-1.96,1.08-1.54,2.46c-0.95,0.74-1.91,1.47-2.86,2.21c-2.32,0.7-3.62,2.41-4.46,4.56c-0.65,0.8-1.54,1.2-2.5,1.48
		c-1.21,0.83-2.6,1.46-3.23,2.93c-0.69,0.94-2.39,0.21-2.71,1.2c-1.02,3.2-4.51,4.03-6.05,6.66c-0.15-0.28-0.24-0.79-0.67-0.54
		c-0.23,0.13-0.27,0.6-0.39,0.91l0,0.01c-1.64,0.25-1.03,1.12-0.55,1.96c-0.54,0.19-1.08,0.39-1.61,0.58
		c-0.94-0.24-0.94-1.13-1.24-1.82c0.05-0.48,0.11-0.95,0.16-1.43c2.6,0.03,3.51-1.72,4.06-3.85l0,0c1.19-0.34,2.38-0.68,1.61-2.36
		c-0.32-1.11,0.46-1.38,1.25-1.64c1.14,0.35,1.88-0.32,2.33-2.08c0.36-0.11,0.71-0.21,1.07-0.32c1.99-1.03,3.55-2.49,4.48-4.55
		c0.06-0.81,0.49-1.35,1.25-1.63c3.51-1.37,5.57-4.48,8.01-7.03c6.6-6.89,13.87-13.07,20.39-20.04c1.5-1.6,3.29-3.18,4.92-4.52
		c5.86-4.79,9.05-12.21,16-15.8c0.31-0.16,0.5-0.55,0.77-0.82c5.52-5.46,11.04-10.93,16.57-16.37c6.48-6.37,12.96-12.74,19.47-19.08
		c0.5-0.48,0.53-0.95,0.4-1.53c0.19,0,0.39,0.01,0.58,0.01c0.44,1.23,0.95,1.81,2.16,0.57c3.94-4.05,7.82-8.17,11.99-11.97
		c1.44-1.32,0.43-1.68-0.15-2.46c0.72-1.36,2.13-2.01,3.14-3.07c0.43,0.55-0.35,1.47,0.62,1.94c1.16-1.96,3.65-3.06,3.4-5.81
		c1.5-0.69,1.7-2.6,3.13-3.36c1.3,0.59,1.24-0.41,1.37-1.18c0.11-0.1,0.24-0.16,0.38-0.2c0.79-0.09,1.14-0.51,0.97-1.31
		c0.27-0.18,0.53-0.35,0.8-0.53c0.81-0.07,1.15-0.49,0.99-1.3c2.6-1.66,4.21-4.33,6.41-6.33c7.55-6.85,14.46-14.33,21.84-21.35
		c9.5-9.05,18.63-18.48,27.99-27.67c8.09-7.94,16.32-15.74,24.44-23.65c5.88-5.74,11.71-11.53,17.54-17.32
		c5.48-5.45,11.29-10.58,16.28-16.53c0.86-0.24,1.8-1.07,2.43,0.34C273.14,33.79,270.99,35.04,269.8,37.18z"/>
	<path class="st2" d="M30.46,259.68c-0.39-0.51-0.78-1.01-1.17-1.52c1.05-0.58,5.24-5.08,6.61-6.38c0.05-0.01,0.1-0.03,0.14-0.04
		c0.84-0.3,15.17-15.09,16.74-17.03c1.11-0.85,5.74-5.35,6.89-6.79c1.5-1.53,3-3.06,4.5-4.6c0.65-0.49,1.26-1.55,2.07-1.16
		c2.13,1.04,2.46-0.67,3.21-1.83c1.48-0.76,6.1-5.83,7.54-6.93c1.7-1.49,10-11.65,11.31-12.93c1.46-0.94,6.27-6.2,7.62-7.49
		c1.19-1.22,2.39-2.44,3.58-3.66c0.14-0.22,2.79-2.93,4.06-3.97c1.26-1.52,14.38-14.37,15.68-15.66
		c1.29-1.11,15.94-15.54,16.27-15.7c0.59,1.01,1.93,1.36,2.29,2.57c0.19,1.24-0.29,2.15-1.24,2.97c-1.64,1.4-3.23,2.87-4.75,4.39
		c-4.01,4.01-7.82,8.24-12.02,12.05c-2.6,2.36-5.17,4.78-7.28,7.52c-4.21,5.45-9.55,9.75-14.26,14.67
		c-3.29,3.43-7.21,6.24-10.86,9.32c-0.99,0.84-1.87,1.76-3.4,1.78c-1.48,0.02-2.24,0.83-1.55,2.48c0.48,1.14,0.92,2.45-0.31,3.39
		c-3.66,2.81-6.16,6.89-10.18,9.31c-0.55,0.33-1.04,0.87-0.85,1.66c-0.1,0.3-0.19,0.61-0.29,0.91c-0.78,0.16-1.34,0.65-1.89,1.18
		c-7.44,7.17-14.94,14.27-22.15,21.68c-1.85,1.9-3.5,4.22-5.81,5.49c-2.95,1.62-5.38,3.75-7.84,5.94c-0.18,0.03-0.36,0.07-0.53,0.11
		C32.13,260.57,31.6,259.75,30.46,259.68z"/>
	<path class="st3" d="M56.58,255.21c-4.64,4.3-9.07,8.83-13.69,13.17c-0.9,0.84-2.07,2.87-3.49,0.38c0.68-0.48,1.55-0.81,2.02-1.45
		c1.54-2.1,4.31-3.11,5.12-5.83c0.53-0.19,1.06-0.39,1.59-0.58c1.34-1.43,3.8-1.85,3.93-4.36c2.41-2.24,4.9-4.4,7.21-6.74
		c1.06-1.07,2.85-1.81,2.44-3.86c0.17-0.06,0.35-0.13,0.52-0.2c1.93-1.52,4.06-2.85,5.75-4.6c2.1-2.16,5.46-3.23,6.04-6.74
		c0.18-0.07,0.35-0.13,0.52-0.2c1.11-0.37,2.2-0.89,3.42-0.57C78.43,235.07,60.52,251.56,56.58,255.21z"/>
	<path class="st4" d="M30.46,259.68c1.13,0.08,1.66,0.89,2.14,1.76c-1.2,4.25-4.23,7.12-7.47,9.84c-0.09-0.01-0.18-0.03-0.27-0.04
		c0.09,0.01,0.18,0.03,0.27,0.04c0.13,0.36,0.25,0.72,0.38,1.08c-0.18,0.07-0.35,0.15-0.52,0.23c-1.1-0.69-1.99,0.17-2.96,0.42
		c-2.17-1.56-1.35-2.86,0.24-4.31c2.36-2.15,4.59-4.46,6.89-6.68C29.85,261.36,30.63,260.79,30.46,259.68z"/>
	<path class="st5" d="M46.54,261.47c-0.81,2.72-3.58,3.73-5.12,5.83c-0.46,0.64-1.33,0.98-2.02,1.45c-3.16,3.1-6.33,6.18-9.46,9.32
		c-1.14,1.14-2.13,1.68-3.1-0.12c0.54-0.19,1.08-0.39,1.61-0.58c1.09-0.4,0.82-1.18,0.55-1.96c0,0,0-0.01,0-0.01
		c0.35-0.12,0.71-0.25,1.06-0.37c1.54-2.64,5.03-3.47,6.05-6.66c0.32-0.99,2.02-0.26,2.71-1.2c2.12,0.17,2.73-1.31,3.23-2.93
		c0.96-0.28,1.85-0.68,2.5-1.48C45.21,262.31,45.87,261.89,46.54,261.47z"/>
	<path class="st3" d="M22.04,273.01c0.97-0.25,1.86-1.11,2.96-0.42c0.22,0.71-0.02,1.6,0.76,2.11c-0.05,0.47-0.11,0.95-0.16,1.43
		C23.71,275.88,22.84,274.48,22.04,273.01z"/>
	<path class="st2" d="M128.91,173.09c-0.19,0-0.39-0.01-0.58-0.01c-0.32-0.21-0.65-0.42-0.97-0.63c0.25-0.99,1.12-1.47,1.73-2.17
		c3.54-4.01,7.92-7.2,11.27-11.4c0.87-0.36,1.65-0.82,1.75-1.89c4.62-3.48,8.42-7.85,12.55-11.85c9.32-9.01,18.41-18.26,27.64-27.37
		c13.35-13.17,26.75-26.29,40.13-39.43c2.04-1.91,4.21-3.7,6.1-5.75c3.03-3.29,6.83-5.87,9.21-9.77l0.19-0.04l0.18-0.08
		c1.06-0.78,2.41-1.27,2.73-2.78l0,0.02c1.5-0.51,2.23-1.86,3.19-2.96c0.35-0.3,0.7-0.59,1.05-0.89
		c5.26-5.1,10.52-10.19,15.78-15.29c2.85-2.84,5.72-5.67,8.54-8.53c0.71-0.72,1.64-0.89,2.48-1.28c0.1,0.2,0.21,0.39,0.31,0.59
		c-4.98,5.94-10.8,11.08-16.28,16.53c-5.83,5.79-11.66,11.58-17.54,17.32c-8.11,7.92-16.34,15.71-24.44,23.65
		c-9.36,9.19-18.49,18.62-27.99,27.67c-7.37,7.02-14.29,14.51-21.84,21.35c-2.21,2-3.82,4.67-6.41,6.33
		c-0.71,0.15-0.98,0.62-0.99,1.3c-0.27,0.18-0.53,0.35-0.8,0.53c-0.72,0.15-0.99,0.62-0.97,1.31c-0.14,0.03-0.27,0.1-0.38,0.2
		c-0.58,0.25-1.24,0.4-1.37,1.18c-1.43,0.76-1.63,2.67-3.13,3.36c-1.89,0.72-3.14,2.1-4.02,3.86c-1.01,1.06-2.42,1.72-3.14,3.07
		c-1.03,0.21-1.52,1.1-2.17,1.76C136.78,165.01,132.85,169.06,128.91,173.09z"/>
	<path class="st2" d="M234.86,51.06c-0.26-1.67,1.4-2.4,2.13-2.29c3.46,0.51,8.71-6.02,9.74-7.12c1.32-1.28,7.74-5.47,9.68-3.74
		c0.82,0.73,1.93,1.13,2.9,1.68c-0.5,0.25-1.13,0.39-1.49,0.78c-3.45,3.64-7.21,6.93-11.12,10.08c-1.17,0.95-3.2,1.59-3.06,3.76
		C240.79,52.98,238.3,50.7,234.86,51.06z"/>
	<path class="st4" d="M243.66,54.22c-0.14-2.17,1.88-2.81,3.06-3.76c3.91-3.15,7.66-6.44,11.12-10.08c0.36-0.38,0.99-0.53,1.49-0.78
		c0.74,0.11,1.14,0.66,1.54,1.2c-5.26,5.1-10.52,10.19-15.78,15.29C244.6,55.47,244.13,54.84,243.66,54.22z"/>
	<path class="st3" d="M272.19,31.57c-0.1-0.2-0.21-0.39-0.31-0.59c-0.72-1.16,0.92-0.83,0.96-1.52c2.82-0.31,4.3-2.36,5.76-4.44
		c1.76,0.76,1.62,1.74,0.36,2.89c-1.46,1.32-2.89,2.67-4.33,4C274,30.5,273.05,31.33,272.19,31.57z"/>
	<path class="st2" d="M278.6,25.02c-1.46,2.08-2.94,4.13-5.76,4.44c0.93-2.05,2.88-3.17,4.34-4.73
		C277.7,24.17,278.21,24.52,278.6,25.02z"/>
	<path class="st5" d="M127.36,172.45c0.32,0.21,0.65,0.42,0.97,0.63c0.13,0.58,0.09,1.05-0.4,1.53
		c-6.51,6.34-12.99,12.7-19.47,19.08c-5.53,5.45-11.05,10.91-16.57,16.37c-0.27,0.26-0.46,0.66-0.77,0.82
		c-6.95,3.59-10.14,11.02-16,15.8c-1.63,1.33-3.42,2.91-4.92,4.52c-6.52,6.97-13.8,13.15-20.39,20.04
		c-2.44,2.55-4.49,5.66-8.01,7.03c-0.13-0.36-0.25-0.72-0.38-1.08c0.08-0.52,0.45-0.75,0.89-0.9c1.13,0.5,1.01-0.21,0.89-0.92
		c0.09-0.04,0.19-0.07,0.25-0.13c8.15-7.85,16.39-15.6,24.33-23.65c1.3-1.32,3.73-2.2,3.59-4.75c0.8-0.28,1.6-0.54,2.24-1.19
		c3.22-3.21,6.47-6.39,9.71-9.59c0.56-0.55,1.01-1.21,1-1.99c-0.03-2.08,0.82-3.21,3.02-3.21c0.52,0,1.16-0.25,1.54-0.6
		c2.4-2.2,4.84-4.38,7.09-6.73c3.4-3.53,6.69-7.19,10.46-10.32C114.04,186.91,120.15,179.13,127.36,172.45z"/>
	<path class="st5" d="M128.91,173.09c3.94-4.04,7.87-8.08,11.83-12.1c0.65-0.66,1.14-1.55,2.17-1.76c0.58,0.78,1.59,1.14,0.15,2.46
		c-4.17,3.8-8.05,7.92-11.99,11.97C129.86,174.91,129.35,174.32,128.91,173.09z"/>
	<path class="st3" d="M25.14,271.28c3.24-2.71,6.26-5.58,7.47-9.84c0.18-0.04,0.35-0.08,0.53-0.11c1.59,2.87,2.81,0.05,4.18-0.28
		c0.42,1.45-2.07,1.81-1.26,3.4c-0.36,0.11-0.71,0.21-1.07,0.32c-1.3-0.49-1.54-0.28-2.33,2.08c-0.79,0.26-1.57,0.53-1.25,1.64
		c-0.59,0.75-2.65,0.5-1.61,2.36c0,0,0,0,0,0c-1.55,0.16-2.53,1.96-4.29,1.51C25.39,272,25.27,271.64,25.14,271.28L25.14,271.28z"/>
	<path class="st6" d="M74.02,234.4c-0.58,3.51-3.95,4.58-6.04,6.74c-1.7,1.75-3.82,3.08-5.75,4.6c-0.39-2.32,1.97-2.59,3.02-3.63
		C68.02,239.39,70.53,236.31,74.02,234.4z"/>
	<path class="st6" d="M61.71,245.93c0.41,2.05-1.39,2.79-2.44,3.86c-2.31,2.34-4.79,4.5-7.21,6.74c-0.06-0.19-0.13-0.37-0.19-0.56
		c-0.42-1.38,0.92-1.87,1.54-2.46C56.13,250.93,58.61,248.08,61.71,245.93z"/>
	<path class="st5" d="M146.05,156.16c0.88-1.77,2.13-3.14,4.02-3.86c0.25,2.75-2.24,3.85-3.4,5.8
		C145.71,157.63,146.48,156.71,146.05,156.16z"/>
	<path class="st7" d="M25.52,272.36c1.77,0.45,2.74-1.35,4.29-1.51c-0.55,2.13-1.46,3.88-4.06,3.85c-0.78-0.51-0.54-1.4-0.76-2.11
		C25.17,272.51,25.34,272.43,25.52,272.36z"/>
	<path class="st5" d="M36.07,264.45c-0.81-1.59,1.69-1.95,1.26-3.4c0.53-0.2,1.05-0.4,1.58-0.6c0.55-0.19,1.1-0.37,1.64-0.56
		C39.61,261.96,38.05,263.42,36.07,264.45z"/>
	<path class="st5" d="M51.87,255.97c0.06,0.19,0.13,0.37,0.19,0.56c-0.13,2.51-2.59,2.93-3.93,4.36c-0.44-1.14,0.97-1.68,0.88-2.71
		C49.96,257.44,50.91,256.7,51.87,255.97z"/>
	<path class="st6" d="M49.01,258.18c0.09,1.03-1.32,1.57-0.88,2.71c-0.53,0.19-1.06,0.39-1.59,0.58c-0.66,0.42-1.33,0.85-1.99,1.27
		C45.38,260.58,46.69,258.88,49.01,258.18z"/>
	<path class="st6" d="M76.89,232.18c0.36-0.12,0.94,1,1.08,1.44c-1.23-0.32-2.31,0.2-3.42,0.57
		C74.15,232.16,75.34,231.96,76.89,232.18z"/>
	<path class="st7" d="M32.67,266.85c0.79-2.36,1.03-2.58,2.33-2.08C34.55,266.54,33.81,267.2,32.67,266.85z"/>
	<path class="st3" d="M40.55,259.9c-0.55,0.19-1.1,0.37-1.64,0.56c-0.44-2.07,1.47-2.33,2.51-3.27c0.13,0.36,0.25,0.72,0.38,1.08
		C41.04,258.55,40.61,259.08,40.55,259.9z"/>
	<path class="st6" d="M42.05,264.22c-0.49,1.62-1.11,3.1-3.23,2.93C39.45,265.68,40.84,265.05,42.05,264.22z"/>
	<path class="st7" d="M29.81,270.85c-1.03-1.86,1.03-1.61,1.61-2.36C32.19,270.17,31,270.51,29.81,270.85z"/>
	<path class="st7" d="M29,275.4c0.27,0.78,0.54,1.56-0.55,1.96C27.97,276.52,27.36,275.64,29,275.4z"/>
	<path class="st5" d="M153.2,148.94c0.13-0.78,0.8-0.92,1.37-1.18C154.43,148.53,154.5,149.53,153.2,148.94z"/>
	<path class="st5" d="M156.71,145.72c0.01-0.68,0.28-1.15,0.99-1.3C157.87,145.23,157.52,145.65,156.71,145.72z"/>
	<path class="st5" d="M154.95,147.56c-0.02-0.69,0.25-1.16,0.97-1.31C156.08,147.05,155.74,147.47,154.95,147.56z"/>
	<path class="st7" d="M30.06,275.02c-0.35,0.12-0.71,0.25-1.06,0.37c0.12-0.32,0.16-0.78,0.39-0.91
		C29.82,274.23,29.91,274.74,30.06,275.02z"/>
	<path class="st4" d="M127.36,172.45c-7.21,6.68-13.32,14.46-20.91,20.76c-3.77,3.13-7.06,6.78-10.46,10.32
		c-2.26,2.35-4.69,4.52-7.09,6.73c-0.38,0.35-1.02,0.6-1.54,0.6c-2.2,0-3.05,1.13-3.02,3.21c0.01,0.78-0.44,1.44-1,1.99
		c-3.24,3.19-6.49,6.38-9.71,9.59c-0.64,0.64-1.44,0.9-2.24,1.19c0,0,0.01,0.01,0.01,0.01c-0.09-0.24-0.19-0.48-0.28-0.72
		c-0.19-0.79,0.31-1.33,0.85-1.66c4.02-2.42,6.52-6.5,10.18-9.31c1.22-0.94,0.78-2.25,0.31-3.39c-0.69-1.65,0.07-2.46,1.55-2.48
		c1.53-0.02,2.41-0.94,3.4-1.78c3.65-3.08,7.57-5.9,10.86-9.32c4.72-4.92,10.06-9.22,14.26-14.67c2.11-2.73,4.68-5.15,7.28-7.52
		c4.19-3.81,8.01-8.04,12.02-12.05c1.52-1.53,3.12-2.99,4.75-4.39c0.96-0.82,1.43-1.73,1.24-2.97c1.73-0.2,1.22,2.05,2.53,2.32
		c-3.35,4.2-7.73,7.38-11.27,11.4C128.48,170.98,127.61,171.47,127.36,172.45z"/>
	<path class="st4" d="M41.42,257.18c-1.04,0.93-2.96,1.19-2.51,3.27c-0.53,0.2-1.05,0.4-1.58,0.6c-1.38,0.33-2.59,3.15-4.18,0.28
		c2.45-2.19,4.89-4.33,7.84-5.94c2.32-1.27,3.96-3.59,5.81-5.49c7.21-7.41,14.71-14.51,22.15-21.68c0.56-0.54,1.11-1.02,1.89-1.18
		c0.19-0.06,0.38-0.13,0.57-0.19c0,0-0.01-0.01-0.01-0.01c0.14,2.55-2.29,3.43-3.59,4.75c-7.94,8.05-16.19,15.8-24.33,23.65
		c-0.07,0.06-0.17,0.09-0.25,0.13c-0.46,0.15-0.83,0.39-0.89,0.92C41.87,256.44,41.49,256.66,41.42,257.18z"/>
	<path class="st6" d="M135.54,154c-0.05-0.2-0.1-0.4-0.15-0.6c1.93,0.1,2.96,1.79,4.52,2.54c0.58,0.68,1.33,1,2.21,1.06
		c-0.11,1.07-0.88,1.53-1.75,1.89c-1.3-0.27-0.8-2.51-2.53-2.32C137.46,155.36,136.13,155.01,135.54,154z"/>
	<path class="st5" d="M71.4,226.84c-0.19,0.06-0.38,0.13-0.57,0.19c0.1-0.3,0.19-0.6,0.29-0.91
		C71.21,226.36,71.31,226.6,71.4,226.84z"/>
	<path class="st3" d="M25.14,271.28c-0.09-0.01-0.18-0.03-0.27-0.04C24.96,271.25,25.05,271.26,25.14,271.28
		C25.14,271.28,25.14,271.28,25.14,271.28z"/>
	<path class="st2" d="M139.91,155.94c-1.56-0.75-2.59-2.44-4.52-2.54c-0.11-1.78,1.46-2.38,2.39-3.43c1.25-0.95,6.52-6.39,7.7-7.51
		c1.71-1.35,16.36-12.81,17.52-13.95c1.57-1.44,6.65-6.74,7.71-7.85c1.64-1.61,3.28-3.23,4.92-4.84c1.3-1.16,10.03-9.38,11.19-11.17
		c1.89-1.14,19.04-17.75,19.92-19.44c1.46-0.97,6.47-6.02,7.65-7.48c1.38-1.21,10.64-15.29,13.24-17.96
		c1.03-0.99,2.05-1.97,3.08-2.96c1.33-0.86,2.46-1.91,3.03-3.44c2.94-1.35,5.58-1.17,7.73,1.51c-0.5,1.56-1.59,2.7-2.56,3.98
		c-2.17,2.83-5.56,4.19-7.87,6.75c-3.81,4.23-7.84,8.2-11.23,12.89c-2.78,3.84-6.7,7.09-10.29,10.42
		c-4.41,4.09-8.84,8.16-13.14,12.37c-4.09,4.01-7.94,8.25-12.02,12.28c-2.76,2.72-6.32,4.45-8.65,7.64
		c-1.97,2.7-4.71,4.56-7.54,6.27c-0.38,0.23-0.74,0.6-0.94,0.99c-2.33,4.79-6.67,7.93-10.17,11.65
		C151.75,145.76,145.25,150.24,139.91,155.94z"/>
	<path class="st1" d="M233.72,53.36c-0.01-0.61-0.03-1.22-0.04-1.84c0.4-0.15,0.79-0.31,1.19-0.46c3.44-0.36,5.93,1.92,8.79,3.16
		c0.47,0.62,0.95,1.25,1.42,1.87c-0.35,0.3-0.7,0.59-1.05,0.89c-0.37-0.83-0.93-1.47-1.79-1.81c-0.26-0.1-0.52-0.2-0.78-0.3
		C239.3,52.19,236.66,52.01,233.72,53.36z"/>
	<path class="st4" d="M241.45,54.87c0.26,0.1,0.52,0.2,0.78,0.3c0.48,1.87-1.94,2.89-1.4,4.78c0,0,0-0.02,0-0.02
		c-1.3,0.54-3.17,0.53-2.73,2.78l-0.18,0.08c0,0-0.19,0.04-0.19,0.04c-0.81,0.26-1.57,0.57-2.28,1.11
		c-4.37,3.36-7.8,7.67-11.72,11.48c-0.73,0.71-1.82,1.54-1.3,2.94c-13.38,13.14-26.78,26.26-40.13,39.43
		c-9.23,9.1-18.32,18.36-27.64,27.37c-4.13,4-7.93,8.37-12.55,11.85c-0.88-0.06-1.63-0.38-2.21-1.06
		c5.34-5.7,11.84-10.18,17.14-15.83c3.5-3.72,7.83-6.86,10.17-11.65c0.19-0.39,0.56-0.76,0.94-0.99c2.83-1.71,5.58-3.57,7.54-6.27
		c2.33-3.2,5.89-4.93,8.65-7.64c4.08-4.03,7.93-8.27,12.02-12.28c4.3-4.21,8.72-8.29,13.14-12.37c3.59-3.33,7.51-6.58,10.29-10.42
		c3.39-4.69,7.42-8.67,11.23-12.89c2.31-2.56,5.69-3.91,7.87-6.75C239.86,57.57,240.95,56.43,241.45,54.87z"/>
	<path class="st3" d="M222.43,78.35c-0.52-1.39,0.57-2.23,1.3-2.94c3.92-3.81,7.35-8.12,11.72-11.48c0.71-0.54,1.47-0.84,2.28-1.11
		c-2.37,3.91-6.17,6.48-9.2,9.77C226.65,74.65,224.48,76.44,222.43,78.35z"/>
	<path class="st3" d="M240.84,59.95c-0.54-1.89,1.87-2.91,1.4-4.78c0.86,0.34,1.42,0.99,1.79,1.81
		C243.07,58.09,242.34,59.43,240.84,59.95z"/>
	<path class="st3" d="M238.11,62.71c-0.45-2.26,1.42-2.24,2.73-2.78C240.53,61.44,239.18,61.93,238.11,62.71z"/>
	<path class="st3" d="M42.31,256.28c0.07-0.53,0.44-0.77,0.89-0.92C43.32,256.07,43.44,256.78,42.31,256.28z"/>
	<g id="Base_1_">
		<path class="st8" d="M0,0v300h300V0H0z M292.5,292.5H7.5V7.5h285V292.5z"/>
	</g>
</g>
</svg>
