<?xml version="1.0" encoding="utf-8"?>
<!-- Generator: Adobe Illustrator 23.0.1, SVG Export Plug-In . SVG Version: 6.00 Build 0)  -->
<svg version="1.1" xmlns="http://www.w3.org/2000/svg" xmlns:xlink="http://www.w3.org/1999/xlink" x="0px" y="0px"
	 viewBox="0 0 300 300" style="enable-background:new 0 0 300 300;" xml:space="preserve">
<style type="text/css">
	.st0{fill:#424242;}
	.st1{fill:#0C0C0C;}
	.st2{fill:#5D5F5F;}
	.st3{fill:#666769;}
	.st4{fill:#212121;}
	.st5{fill:#6A6B6D;}
	.st6{fill:#111111;}
	.st7{fill:#2B2B2B;}
	.st8{fill:#1D1D1D;}
	.st9{fill:#060606;}
	.st10{fill:#242424;}
	.st11{fill:#181818;}
	.st12{fill:#141414;}
	.st13{fill:#9E9E9E;}
</style>
<g id="background">
	<rect x="4" y="4" class="st0" width="291" height="291"/>
</g>
<g id="Layer_1">
	<path class="st1" d="M33.92,275.3c-5.36-3.66-2.15-3.68-6.96-7.87c-0.88-0.76-0.74-1.95-0.8-3.01
		c15.8-17.46,31.61-34.92,47.4-52.38c10.11-11.18,20.22-22.37,30.32-33.55c1-1.25,2-2.51,3-3.77c7.11-5.87,12.82-13.09,18.85-19.96
		c4.81-5.48,10.74-10.01,14.41-16.48c1.3-1.35,2.6-2.69,3.9-4.04c12.1-12.21,23.57-24.99,34.68-38.09c1.42-0.74,2.48-1.81,3.03-3.34
		c1.54-0.77,2.83-1.71,2.73-3.69c6.07-4.08,10.06-10.21,15.06-15.34c0.5-0.51,1.07-1.52,0.88-2.02c-1.09-2.82,1.26-3.66,2.68-5.05
		c4.31-3.42,7.22-8.28,11.74-11.48c-0.51,2.4,1.84,3.84,2,6.01c-0.19,2.37-1.2,3.89-3.76,4.39c-4.03,0.79-4.61,3-1.92,6.59
		c0.37,1.63,0.61,3.37,2.78,3.59c0.78,0.08,1.81-0.09,1.92-0.83c0.24-1.53-1.92-1.69-2.11-3.09c4.09-3.65,7.07-8.54,12.24-11
		c0.02,1.08-0.2,2.23,0.92,2.97c0.02,2.62-5.32,6.73-7.25,8.38c-3.21,2.74-11.06,7.23-15.27,10.86c-0.8,0.69-22.41,23.47-22.8,24.23
		c-0.61,0.92-6.49,5.15-6.48,8.3c0,0.62-1.24,1.86-1.86,1.86c-0.12-0.07-0.24-0.15-0.36-0.22c0.13,0.07,0.25,0.13,0.38,0.2
		c-0.7,3.02-16.03,17.57-17.56,19.42c-2.94,0.78-18.2,19.14-18.51,19.44c-0.76,0.38-0.92,1.07-0.95,1.83
		c-0.89,1.56-10.47,11.43-11.1,12.04c-0.3,0.31-0.61,0.62-0.91,0.93c-0.94,1.54-9.68,10.84-10.26,12.03
		c-0.28,0.29-0.56,0.59-0.84,0.88c-0.61,1.25-11.84,14.84-14.55,16.65c-0.49,0.33-6.95,6.03-9.37,8.14
		C86.86,210.87,36.23,273.5,33.92,275.3z M208.17,78.76c-0.04-0.13-0.05-0.28-0.13-0.38c-0.03-0.04-0.21,0.05-0.33,0.08
		c0.04,0.13,0.05,0.28,0.13,0.38C207.87,78.88,208.06,78.79,208.17,78.76z"/>
	<path class="st2" d="M103.88,178.49c-10.11,11.19-20.21,22.37-30.32,33.55c-15.8,17.46-31.6,34.92-47.4,52.38
		c-2.5,1.93-5.67,0.1-8.27,1.49c-3.1-0.34-3.91-2.63-4.42-5.18c1.47-1.35,2.96-2.09,4.88-0.68c1.46,1.08,3.07,0.92,4.04-0.6
		c3.64-5.72,10-9.09,13.08-15.27c0.93-0.78,1.93-1.5,2.78-2.36c7.4-7.43,13.66-15.89,21.2-23.22c4.62-4.49,9.69-8.79,12.09-15.13
		c3.7-1.85,7.11-3.99,8.32-8.33c0.31-0.31,0.61-0.62,0.92-0.93c4.57-3.35,7.34-8.72,12.68-11.25c0.41-0.19,0.18-1.72,0.25-2.63
		c0.31-0.31,0.62-0.62,0.92-0.93c1.5-0.79,2.7-1.82,2.8-3.68c0.92,0,1.84,0,2.76,0C100.35,178.09,102.72,177.48,103.88,178.49z"/>
	<path class="st3" d="M35.47,244.18c-3.08,6.18-9.44,9.55-13.08,15.27c-0.97,1.52-2.58,1.68-4.04,0.6
		c-1.91-1.41-3.41-0.66-4.88,0.68c-0.1-0.59-0.2-1.18-0.3-1.78c2.84-4.49,15.72-18.09,19.04-20.54
		C35.33,239.19,35.78,241.47,35.47,244.18z"/>
	<path class="st4" d="M17.89,265.91c2.59-1.4,5.77,0.43,8.27-1.49c0.07,1.06-0.08,2.24,0.8,3.01c4.81,4.19,1.61,4.21,6.96,7.87
		c-2.96,2.96-3.2,4.82-6.17,2.47C25.84,276.24,19.41,267.93,17.89,265.91z"/>
	<path class="st5" d="M191.13,27.37c-0.3-5.98,6.5-12.3,12.7-11.2c10.7,1.9,21.33,4.06,31.8,7.23c4.5,1.36,9.31,2.87,14.43,2.86
		c5.15-0.01,10.19,1.88,13.02,7.01c-3.26-0.34-5.34,1.25-6.67,4.07c-1.88-0.17-4.03-1.16-4.69,1.89c-0.34,1.56-1.81,1.46-2.99,1.47
		c-6.38,0.02-12.75-0.12-19.09,0.84c0.01-0.89,0.03-1.78,0.04-2.68c2.14-1.67,3.05-3.75,2.17-6.44c-0.24-3.34-2.33-5.54-5.26-6.11
		c-4.56-0.89-9.31-1.54-13.64,1.22c-4.29,0.76-7.59,3.4-11.02,5.8c-1.34-0.02-2.77,0.35-3.72-1.1
		C196.53,29.63,193.66,28.73,191.13,27.37z"/>
	<path class="st6" d="M285.48,66.9c-4.23-4.45-6.18-11.5-9.5-16.36c-1.77-2.59,0.23-2.34,1.78-2.45
		C279.5,49.6,287.52,69.05,285.48,66.9z"/>
	<path class="st7" d="M277.77,48.08c-1.55,0.12-3.55-0.14-1.78,2.45c3.32,4.86,4.93,10.67,9.16,15.12c2.04,2.15-0.88,3.16-2.77,3.78
		c-3.75-0.79-7.28-2.05-10.19-4.68c0.36-0.38,0.72-0.77,1.08-1.15c2.03,0.32,4.44,2.65,5.82,1.21c1.82-1.89-1.05-4.04-1.53-6.18
		c-0.09-0.42-0.46-0.78-0.7-1.17c-1.27-2.59-2.44-5.22-3.84-7.74c-0.79-1.43-2.13-3.62-3.54-3.07c-2.9,1.13-2.45-0.81-2.84-2.23
		c0.04-0.68,0.07-1.36,0.11-2.04c2.73,0.56,4.8,3.87,8.13,1.97c0,0,0.33,0.04,0.33,0.04c0.24,0.29,0.48,0.59,0.73,0.88
		C276.53,46.22,277.15,47.15,277.77,48.08z"/>
	<path class="st3" d="M274.87,44.37c-3.33,1.9-5.4-1.41-8.13-1.97c-2.35-1.74-5.01-2.61-7.89-2.91c-0.81-0.72-1.63-1.44-2.44-2.16
		c1.33-2.82,3.41-4.41,6.67-4.07C267.73,36.2,272.39,39.13,274.87,44.37z"/>
	<path class="st8" d="M191.13,27.37c2.54,1.37,5.4,2.26,7.09,4.85c0.95,1.45,2.38,1.08,3.72,1.1c-0.34,1.92,0.56,3.63,0.94,5.43
		c-2.74,0.49-2.06,3.14-3,4.76c-4.99-1.08-4.19-6.64-7.16-9.29c-0.63-1.54-1.26-3.08-1.89-4.62
		C190.93,28.85,191.03,28.11,191.13,27.37z"/>
	<path class="st9" d="M275.92,45.29c-0.24-0.29-0.48-0.59-0.73-0.88C275.44,44.7,275.68,45,275.92,45.29z"/>
	<path class="st3" d="M199.88,43.51c0.94-1.63,0.26-4.27,3-4.76c0.3,0.07,0.6,0.13,0.9,0.2c-0.06,2.3,0.85,3.2,3.07,2.05
		c3.36-1.73,7.33-1.69,10.63-3.83c1.12-0.73,3.44-1.94,4.26,1.15c0.34,1.3,1.91,2,2.91,0.83c1.74-2.04,3.37-0.31,5.04-0.3
		c-0.01,0.89-0.03,1.78-0.04,2.68c0,0,0.02,0.09,0.02,0.09c-2.5,2.33-2.93,5.29-1.06,7.38c-0.07,0.3-0.16,0.59-0.28,0.87
		c-0.16-0.09-0.33-0.09-0.48,0.01c-4.73,0.83-7.53,6.31-12.99,5.36c-4.52,3.2-7.43,8.06-11.74,11.48c-2.6,0.01-4.43-5.44-7.63-1.07
		c-0.52,0.71-0.93,1.77-2.04,1.3c-1.04-0.44-0.68-1.55-0.73-2.41c-0.07-1.21-0.05-2.43-0.07-3.64
		C192.95,60.32,201.28,46.05,199.88,43.51z"/>
	<path class="st5" d="M35.47,244.18c0.3-2.71-0.14-4.99-3.26-5.77c1.4-1.77,36.93-40.43,38.84-42.92c2.08-2.22,4.17-4.43,6.26-6.65
		c1.78-1.9,32.84-35.83,34.93-38.04c1.55-1.84,3.11-3.68,4.66-5.51c3.49-1.6,10.37-11.17,12.08-12.9
		c2.43-2.18,16.85-17.4,18.43-19.53c1.87-2.13,3.73-4.27,5.6-6.4c2.23-1.75,3.4-4.62,6.15-5.81c3.88-0.55,6.33-3.6,9.49-5.4
		c0.04,1.2,0.65,1.82,1.86,1.86c-1.44,1.49,0.07,4.63-2.05,5.19c-2.91,0.78-3.53,2.75-4.66,4.98c-1.25,2.44-5.8,3.05-4.04,7.28
		c0.04,0.1-0.41,0.4-0.62,0.63c-4.82,5.26-11.02,8.45-17.3,11.52c-1,0.69-2.57,1.19-0.93,2.77c-0.31,0.62-0.62,1.23-0.93,1.85
		c-2.51,2.15-5.49,3.9-6.47,7.39c-0.62,0-1.23-0.01-1.85-0.01c-0.19-1.56-1.2-2.18-2.51-1.6c-2.03,0.89-0.88,2.88-1.19,4.38
		c-0.93,0.92-1.86,1.85-2.79,2.77c-0.76,0.1-1.72-0.06-2.23,0.35c-4.93,3.94-9.04,8.73-13.16,13.47c-0.69,0.79-0.43,2.08,0.64,2.85
		c0,0.31,0,0.61-0.01,0.92c-2.64,1.06-5.67,1.73-5.55,5.55c-0.07,2.63-2.87,3.43-3.71,5.54c-0.31,0.93-0.62,1.86-0.93,2.78
		c-0.92,0-1.84,0-2.76,0c-2.79-0.19-4.69,0.3-2.8,3.68c-0.31,0.31-0.62,0.62-0.92,0.93c-4.06,0.89-6.32,4.05-9.2,6.64
		c-2.41,2.17-3.92,4.07-3.73,7.24c-0.31,0.31-0.61,0.62-0.92,0.93c-4.05,1.5-7.13,3.97-8.32,8.33c-2.4,6.34-7.47,10.64-12.09,15.13
		c-7.54,7.33-13.8,15.79-21.2,23.22C37.4,242.68,36.4,243.4,35.47,244.18z"/>
	<path class="st2" d="M225.99,60.88c-5.16,2.46-8.14,7.35-12.23,11c-0.86,0.11-1.72,0.22-2.59,0.34c-2.69-3.59-2.11-5.79,1.92-6.59
		c2.56-0.5,3.57-2.02,3.76-4.39c3.66-2.83,7.32-5.66,10.99-8.5c8.92-4.35,18.48-2.36,27.79-2.83c1.01,5.44,0.23,6.56-4.99,6.4
		c-3.96-0.13-7.81,0.45-11.68,1.08C234.44,57.85,230.06,58.81,225.99,60.88z"/>
	<path class="st2" d="M131.65,138.72c0.62,0,1.23,0.01,1.85,0.01c2.24,0.25,4.18-4.05,6.65-0.44c-3.67,6.47-9.6,11-14.41,16.48
		c-6.03,6.87-11.74,14.09-18.85,19.96c-2.35,0.81-3.48-2.36-5.76-1.77c0.84-2.11,3.64-2.91,3.71-5.54c3.26-0.44,4.72-2.68,5.55-5.55
		c0.01-0.31,0.01-0.61,0.01-0.92c6.89-3.81,11.1-9.99,14.76-16.67c0.93-0.92,1.86-1.85,2.79-2.77
		C129.18,140.57,130.41,139.64,131.65,138.72z"/>
	<path class="st2" d="M139.97,131.33c0.31-0.62,0.62-1.23,0.93-1.85c1.08-0.67,0.9-1.76,0.93-2.77c6.28-3.06,12.48-6.26,17.3-11.52
		c0.21-0.22,0.66-0.52,0.62-0.63c-1.76-4.23,2.8-4.84,4.04-7.28c1.14-2.23,1.76-4.2,4.66-4.98c2.11-0.56,0.61-3.7,2.05-5.19
		c0.86-0.81,1.86-1.51,2.55-2.45c0.8-1.08,1.42-2.84,2.76-2.62c2.28,0.37,0.18,2.18,0.61,3.26c0.44,1.1,1.45,0.78,2.3,0.86
		c-11.11,13.1-22.58,25.88-34.68,38.09C142.68,133.27,141.32,132.3,139.97,131.33z"/>
	<path class="st5" d="M190.12,66.69c-0.4-2.47,0.56-4.36,2.52-5.81c0.02,1.21,0,2.43,0.07,3.64c0.05,0.86-0.31,1.97,0.73,2.41
		c1.12,0.47,1.52-0.59,2.04-1.3c3.2-4.37,5.04,1.08,7.63,1.07c-1.42,1.39-3.77,2.23-2.68,5.05c0.19,0.5-0.38,1.51-0.88,2.02
		c-5,5.13-8.99,11.26-15.06,15.34c-0.32-1.35,0.36-2.97-1.05-4.04c0.16-1.81,1.45-2.85,2.47-4.21
		C189.03,76.75,190.9,72.07,190.12,66.69z"/>
	<path class="st3" d="M190.12,66.69c0.78,5.38-1.08,10.05-4.21,14.19c-1.02,1.35-2.31,2.4-2.47,4.21c-0.3,0-0.59,0.01-0.89,0.01
		c-0.78,0-1.48,0.17-1.88,0.94c-1.43,2.55-0.05,4.65,1.09,6.78c-0.55,1.53-1.62,2.59-3.04,3.34c-0.85-0.08-1.86,0.24-2.3-0.86
		c-0.43-1.08,1.67-2.89-0.61-3.26c-1.34-0.22-1.97,1.55-2.76,2.62c-0.69,0.93-1.69,1.64-2.55,2.45c-1.2-0.04-1.82-0.66-1.86-1.86
		c1.43-4.99,6.86-6.38,9.43-10.52c1.37-2.22,2.74-3.81,1.53-6.38C180.9,76.59,189.49,66.98,190.12,66.69z"/>
	<path class="st10" d="M226.91,63.85c-1.12-0.74-0.9-1.89-0.92-2.97c4.08-2.07,8.46-3.02,12.97-3.49c1.17,1.65,3.77,1.5,4.58,3.61
		C240.91,61.03,228.45,63.83,226.91,63.85z"/>
	<path class="st11" d="M227.83,52.74c-3.66,2.83-7.33,5.66-10.99,8.5c-0.16-2.17-2.51-3.61-2-6.01c5.46,0.94,8.26-4.54,12.99-5.37
		C227.84,50.83,227.84,51.78,227.83,52.74z"/>
	<path class="st3" d="M139.97,131.33c1.36,0.97,2.71,1.94,4.07,2.91c-1.3,1.35-2.6,2.69-3.89,4.04c-2.46-3.61-4.41,0.69-6.65,0.44
		C134.48,135.23,137.45,133.49,139.97,131.33z"/>
	<path class="st2" d="M182.55,85.1c0.3,0,0.59,0,0.89-0.01c1.41,1.07,0.72,2.68,1.05,4.04c0.1,1.98-1.19,2.92-2.73,3.69
		c-1.13-2.14-2.52-4.23-1.09-6.78C181.44,86.01,182.13,85.83,182.55,85.1z"/>
	<path class="st3" d="M101.13,172.95c2.28-0.58,3.41,2.58,5.76,1.77c-1,1.25-2,2.51-3,3.76c-1.16-1.01-3.53-0.4-3.68-2.75
		C100.51,174.81,100.82,173.88,101.13,172.95z"/>
	<path class="st8" d="M211.17,72.21c0.86-0.11,1.72-0.22,2.59-0.34c0.2,1.4,2.35,1.57,2.11,3.09c-0.12,0.74-1.14,0.91-1.92,0.83
		C211.78,75.58,211.54,73.84,211.17,72.21z"/>
	<path class="st8" d="M208.17,78.76c-0.11,0.03-0.3,0.12-0.33,0.08c-0.08-0.1-0.09-0.25-0.13-0.38c0.11-0.03,0.3-0.12,0.33-0.08
		C208.12,78.48,208.13,78.63,208.17,78.76z"/>
	<path class="st11" d="M125.16,170.17c-0.3,0.31-0.61,0.62-0.91,0.93C124.55,170.79,124.86,170.48,125.16,170.17z"/>
	<path class="st6" d="M113.99,183.13c-0.28,0.29-0.56,0.59-0.84,0.88C113.43,183.71,113.71,183.42,113.99,183.13z"/>
	<path class="st7" d="M173.28,117.45c-0.13-0.07-0.25-0.13-0.38-0.2c0.12,0.07,0.24,0.15,0.36,0.22
		C173.26,117.47,173.28,117.45,173.28,117.45z"/>
	<path class="st3" d="M80.78,194.22c-0.18-3.17,1.32-5.06,3.73-7.24c2.88-2.6,5.14-5.75,9.2-6.64c-0.07,0.91,0.16,2.43-0.25,2.63
		C88.13,185.5,85.35,190.87,80.78,194.22z"/>
	<path class="st3" d="M71.54,203.47c1.2-4.35,4.28-6.82,8.32-8.33C78.65,199.48,75.24,201.63,71.54,203.47z"/>
	<path class="st3" d="M94.64,179.41c-1.9-3.38,0-3.87,2.8-3.68C97.34,177.59,96.14,178.61,94.64,179.41z"/>
	<path class="st8" d="M227.83,52.74c0-0.96,0-1.92,0-2.87c0.16-0.1,0.32-0.1,0.49-0.01c0.45-0.28,0.9-0.55,1.35-0.83
		c1.61-0.98,3.54-1.75,1.33-4.11c-0.76-0.81-0.91-2.18-1.34-3.3c0,0-0.02-0.08-0.02-0.09c6.33-0.96,12.71-0.82,19.09-0.84
		c1.18,0,2.65,0.1,2.99-1.47c0.66-3.05,2.81-2.06,4.69-1.89c0.81,0.72,1.63,1.44,2.44,2.16c-1.19,0.27-2.31,0.62-2.34,2.15
		c-0.14,1.34,0.3,2.53,0.91,3.68c-0.64,0.33-0.58,0.64,0.02,0.93c0.01,0.6,0.02,1.2,0.04,1.8c-0.62,0.62-1.24,1.24-1.85,1.86
		C246.31,50.38,236.75,48.39,227.83,52.74z"/>
	<path class="st2" d="M229.68,38.85c-1.67-0.01-3.3-1.74-5.04,0.3c-1,1.18-2.57,0.47-2.91-0.83c-0.82-3.09-3.14-1.88-4.26-1.15
		c-3.29,2.13-7.26,2.09-10.63,3.83c-2.23,1.15-3.13,0.25-3.07-2.05c2.91-2.94,6.95-4.08,10.23-6.44c5.94-1.68,11.89-2.43,17.85-0.09
		C232.74,35.1,231.82,37.18,229.68,38.85z"/>
	<path class="st12" d="M231.86,32.41c-5.96-2.34-11.91-1.59-17.85,0.09c-0.35-1.66-0.69-3.32-1.04-4.98
		c4.33-2.76,9.08-2.11,13.64-1.22C229.53,26.87,231.62,29.07,231.86,32.41z"/>
	<path class="st1" d="M212.96,27.52c0.35,1.66,0.69,3.32,1.04,4.98c-3.27,2.36-7.32,3.5-10.23,6.44c-0.3-0.06-0.6-0.13-0.9-0.2
		c-0.38-1.8-1.28-3.51-0.94-5.43C205.37,30.92,208.67,28.28,212.96,27.52z"/>
	<path class="st4" d="M255.62,49.91c0.62-0.62,1.24-1.24,1.85-1.86c2.85,0.76,2.97,3.58,4.05,5.59c1.48,2.76,2.45,6.01,5.89,1.7
		c0.71-0.89,1.89-0.83,2.96-0.78c-3.96,5.19-3.95,5.18,2.19,8.46c0.26,0.14,0.47,0.39,0.7,0.58c-0.36,0.38-0.72,0.77-1.09,1.15
		c-2.74,0.54-4.82-1.55-7.35-1.86c-3.41-2.43-18.81-4.25-20.33-1.9c-0.32,0-0.65,0-0.97,0c-0.81-2.11-3.41-1.96-4.58-3.61
		c3.87-0.63,7.72-1.21,11.68-1.08C255.86,56.47,256.63,55.35,255.62,49.91z"/>
	<path class="st1" d="M270.37,54.57c-1.07-0.04-2.25-0.11-2.96,0.78c-3.44,4.31-4.4,1.05-5.89-1.7c-1.08-2.01-1.2-4.83-4.05-5.59
		c-0.01-0.6-0.02-1.2-0.03-1.8c-0.01-0.31-0.01-0.62-0.02-0.93c-0.61-1.15-1.05-2.34-0.91-3.68c3.69-0.2,6.59,2.45,10.12,2.8
		c0.39,1.41-0.06,3.36,2.84,2.23c1.41-0.55,2.74,1.64,3.54,3.07c1.4,2.51,2.57,5.15,3.84,7.74c-2.43-0.13-3.17-3.01-5.46-3.36
		c-0.25-0.25-0.51-0.51-0.76-0.76C270.54,53.76,270.46,54.16,270.37,54.57L270.37,54.57z"/>
	<path class="st2" d="M271.39,54.12c2.3,0.34,3.03,3.23,5.46,3.36c0.24,0.39,0.6,0.75,0.7,1.17c0.48,2.14,3.35,4.28,1.53,6.18
		c-1.38,1.44-3.79-0.89-5.82-1.21c-0.23-0.2-0.44-0.44-0.7-0.58c-6.14-3.27-6.14-3.27-2.19-8.46c0,0,0,0,0,0
		C270.71,54.42,271.05,54.27,271.39,54.12z"/>
	<path class="st4" d="M266.63,44.44c-3.53-0.35-6.44-3-10.12-2.8c0.03-1.53,1.15-1.87,2.34-2.15c2.88,0.29,5.55,1.17,7.89,2.91
		C266.7,43.08,266.67,43.76,266.63,44.44z"/>
	<path class="st2" d="M229.66,41.61c0.43,1.12,0.59,2.49,1.34,3.3c2.22,2.37,0.28,3.13-1.33,4.11c-0.36-0.01-0.72-0.02-1.08-0.04
		C226.74,46.9,227.16,43.94,229.66,41.61z"/>
	<path class="st11" d="M228.6,48.99c0.36,0.01,0.72,0.02,1.08,0.04c-0.45,0.28-0.9,0.55-1.35,0.83
		C228.44,49.57,228.53,49.28,228.6,48.99z"/>
	<path class="st2" d="M179.6,78.35c1.21,2.57-0.16,4.16-1.53,6.38c-2.57,4.15-8.01,5.54-9.43,10.52c-3.16,1.81-5.61,4.86-9.49,5.4
		C159.27,100.12,178.5,79.07,179.6,78.35z"/>
	<path class="st3" d="M125.16,144.27c-3.66,6.67-7.87,12.85-14.76,16.67c-1.07-0.76-1.33-2.06-0.64-2.85
		c4.13-4.74,8.23-9.52,13.16-13.47C123.43,144.21,124.4,144.37,125.16,144.27z"/>
	<path class="st3" d="M110.39,161.86c-0.83,2.87-2.29,5.11-5.55,5.55C104.71,163.59,107.75,162.92,110.39,161.86z"/>
	<path class="st3" d="M131.65,138.72c-1.23,0.93-2.47,1.85-3.7,2.78c0.31-1.5-0.84-3.49,1.19-4.38
		C130.45,136.54,131.46,137.16,131.65,138.72z"/>
	<path class="st3" d="M141.83,126.71c-0.03,1.02,0.15,2.11-0.93,2.77C139.26,127.9,140.83,127.4,141.83,126.71z"/>
	<path class="st5" d="M182.55,85.1c-0.42,0.73-1.11,0.91-1.88,0.94C181.07,85.27,181.77,85.1,182.55,85.1z"/>
	<path class="st4" d="M257.42,45.32c0.01,0.31,0.01,0.62,0.02,0.93C256.84,45.96,256.78,45.65,257.42,45.32z"/>
	<path class="st4" d="M271.39,54.12c-0.34,0.15-0.68,0.3-1.02,0.45c0.09-0.4,0.17-0.81,0.26-1.21
		C270.88,53.61,271.14,53.86,271.39,54.12z"/>
	<path class="st1" d="M167.1,214.87"/>
	<path class="st5" d="M110.38,153.22"/>
	<g id="Base_1_">
		<path class="st13" d="M0,0v300h300V0H0z M292.5,292.5H7.5V7.5h285V292.5z"/>
	</g>
</g>
</svg>
