<?xml version="1.0" encoding="utf-8"?>
<!-- Generator: Adobe Illustrator 23.0.1, SVG Export Plug-In . SVG Version: 6.00 Build 0)  -->
<svg version="1.1" xmlns="http://www.w3.org/2000/svg" xmlns:xlink="http://www.w3.org/1999/xlink" x="0px" y="0px"
	 viewBox="0 0 300 300" style="enable-background:new 0 0 300 300;" xml:space="preserve">
<style type="text/css">
	.st0{fill:#424242;}
	.st1{fill:#5E5544;}
	.st2{fill:#494234;}
	.st3{fill:#534B3C;}
	.st4{fill:#373127;}
	.st5{fill:#6F6453;}
	.st6{fill:#1F1F1F;}
	.st7{fill:#0B0B0B;}
	.st8{fill:#131313;}
	.st9{fill:#10100F;}
	.st10{fill:#857B69;}
	.st11{fill:#060606;}
	.st12{fill:#181818;}
	.st13{fill:#282828;}
	.st14{fill:#2E2E2E;}
	.st15{fill:#161616;}
	.st16{fill:#9E9E9E;}
</style>
<g id="background">
	<rect x="4" y="4" class="st0" width="291" height="291"/>
</g>
<g id="Layer_1">
	<path class="st1" d="M167.72,46.94c4.97,0.31,9.6,1.23,12.09,6.32c0.4,0.82,7.4,2.18,7.4,2.18c0.35,0.98,0.7,1.96,1.05,2.94
		c-0.07,0.15-0.15,0.3-0.22,0.45c0.08-0.14,0.16-0.29,0.24-0.43c1.21-0.72,1.05-1.9,1.01-3.04c1.47,0,3.09-0.74,4.26,0.83
		c-1.37,0.22-3.29,0.71-2.72,2.16c0.47,1.19,0.56,3.96,3.45,3.27c-0.24-1.84-0.48-3.63-0.72-5.41c0.6-0.02,1.2-0.03,1.79-0.05
		c1.74,1.78,3.58,3.51,3.23,6.36c-1.26,0.68-2.33,1.01-2.4,3.14c-0.06,1.9-0.13,5.21-3.76,5.12c-0.01-0.32,0-0.64,0.02-0.96
		c-1.68-2.85-5.37-1.51-7.44-3.56c-0.1-1.59-0.9-2.72-2.52-2.58c-2.08,0.17-1.46,1.99-1.45,3.22c0.02,1.65-0.5,3.45,0.83,4.9
		c-0.3,5.31,1.73,9.67,5.4,13.37c-0.67,0.4-1.04,1.13-0.47,1.61c3.45,2.93,7.1,5.19,11.78,2.54c0,0.69,0,1.38,0,2.07
		c-4.13,2.06-8.25,4.12-12.38,6.18c-1.73-0.11-3.33,0.07-4.16,1.92c-2.61,0.22-5.09-0.4-7.26-1.75
		c-7.95-4.95-14.9-11.14-21.61-17.63c0.06-0.91,0.25-1.75,1.17-2.19c0.93-0.04,1.87-0.08,2.8-0.12c1.24,2.36,3.38,3.71,5.81,3.08
		c2.21-0.57,2.52-3.33,3.58-5.16c0.27-0.47,0.1-2.34-0.55-1.83c-3.01,2.38-5.81-2.37-8.61,0.01c-0.12-1.41-0.23-2.81-0.35-4.22
		c0.26-1.34,0.24-2.6-0.9-3.58c1.53-3.04-1.5-3.04-2.8-4.2c0.23-0.71,0.45-1.43,0.68-2.14c1.07-0.28,2.31,1.28,3.27-0.29
		c0.21-1.47,0.52-2.94,0.62-4.42c0.24-3.67-2.4-5.45-5.67-3.88c-2.51-0.78-3.57-2.46-3.11-5.06c1.36-0.1,6.74,0.49,8.08,0.89
		c6.56,0.04,7.13,4.68,7.35,9.58c0.03,0.68-0.03,1.37,0.08,2.03c0.41,2.41,1.84,1.19,3.03,0.82c0.34,0.58,0.68,0.59,1.02,0
		c0.08-0.14,0.15-0.27,0.23-0.41c-0.07,0.14-0.15,0.28-0.22,0.42c-0.35,0-0.69,0-1.04,0C166.23,55.25,163.47,51.07,167.72,46.94z"/>
	<path class="st2" d="M114.08,41.92c1.45-1.35,3.27-1.15,5.03-1.2c-0.85,1.81,0.34,4.9,0.51,5.02c6,4.15,2.63,10.91,4.21,16.19
		c0.99,3.31,1.58,5.47,4.68,6.7c3.09-0.16,6.3,0.75,9.23-0.98c0,0.34,0.01,0.69,0.01,1.03c0.34,0.69,0.68,1.39,1.01,2.08
		c-1.1,0.06-2.29-0.18-3.11,0.88c-3.78,0.39-7.55,0.78-11.33,1.17c-8.53,0.77-15.04,6.41-22.64,9.41c-0.95-1.25-2.7-2.24-0.82-4.16
		c0.86-0.88,1.23-2.68-0.33-2.83c-3-0.28-2.55-3.13-4.03-4.46c-0.3-2.11,2.2-2.77,2.65-4.56c-11.03-2.65-11.03-2.65-13.98-1.53
		c-0.05-1.12-0.1-2.23-0.15-3.35c0.71-1.23,1.82-1.88,3.18-2.13c5.78,1.15,11.62,2.07,17.03,4.57c1.05,0.48,10.85-11.33,8.06-13.43
		C108.68,46.83,108.84,44.96,114.08,41.92z"/>
	<path class="st1" d="M137.76,68.68c0-0.34-0.01-0.69-0.01-1.03c0.79-5.1,1.05-10.25-1.45-14.93c-1.41-2.64-1.16-6.4-4.73-7.74l0,0
		c0.4-7.17,5.99-4.55,9.84-5.22c2.51,0.3,1.12,3.25,2.8,4.11c-2.48,4.18,0.76,6.64,2.84,9.46c-1-0.02-2.01-0.03-3.01-0.05
		c-3.72,1.83-2.69,4.75-1.72,7.61C144.08,66.14,142.86,68.26,137.76,68.68z"/>
	<path class="st1" d="M128.51,68.62c-3.11-1.23-3.7-3.39-4.68-6.7c-1.57-5.28,1.8-12.04-4.21-16.19c-0.18-0.12-1.36-3.21-0.51-5.02
		c0.73-0.61,8.65-1.38,10.35-0.81c-2.9,3.43-2.58,4.22,2.1,5.07c0,0,0,0,0,0c-2.58,1.9-3.11,4.62-3.45,7.64
		C127.5,58,128.46,63.29,128.51,68.62z"/>
	<path class="st3" d="M207.82,67.67c-0.54,4.57,1.22,8.92,1.25,13.43c0.25,2.67,0.51,5.34,0.76,8.02c-3.98-0.36-7.4,2.02-11.25,2.27
		c0-0.69,0-1.38,0-2.07c2.29-2.67,5.66-4.85,4.09-9.22c2.44-4.23,2.81-8.78,2.07-13.51c0-0.66,0-1.32,0.01-1.98
		c-0.12-1.44,0.5-3.07-1.05-4.15c0.32-0.63,0.65-1.26,0.97-1.89c1.62,0.81,1.93,2.39,2.28,3.93
		C207.23,64.22,207.53,65.95,207.82,67.67z"/>
	<path class="st2" d="M147.03,53.32c-2.07-2.81-5.31-5.28-2.84-9.46c1.64,0.74,3.28,1.49,4.92,2.23c-0.46,2.6,0.6,4.28,3.11,5.06
		c-0.01,0.34-0.03,0.69-0.04,1.03c-0.82,0.43-1.02,1.16-1,2.01C149.74,54.17,148.17,54.75,147.03,53.32z"/>
	<path class="st4" d="M80.04,68.65c0-0.33-0.01-0.66-0.04-1c0-0.34,0-0.68,0-1.03c0.4-1.32,3.75-4.85,5.03-5.3
		c0.05,1.12,0.1,2.23,0.15,3.35c-0.15,3.05-1.63,5.96-0.95,9.1c-0.72,0.71-1.45,1.43-2.17,2.14l0.01-0.01
		c-0.34-0.01-0.68-0.01-1.01-0.01c-0.34-0.34-0.68-0.69-1.02-1.03c0.02-1.01,0.03-2.01,0.05-3.02c1.31-0.14,2.26-0.88,2.23-2.16
		C82.27,68.17,80.85,68.91,80.04,68.65z"/>
	<path class="st5" d="M157.19,46.98c2.54-1.71,9.81-0.68,10.52-0.05c-4.25,4.13-1.49,8.31-0.08,12.48l0.01-0.01
		c-1.19,0.38-2.62,1.6-3.03-0.82c-0.11-0.66-0.05-1.35-0.08-2.03C164.32,51.66,163.76,47.02,157.19,46.98z"/>
	<path class="st5" d="M195.35,56.15c0.78-1.39,7.28,1.32,9.31,2.41c-0.32,0.63-0.65,1.26-0.97,1.89c-1.01,1.72-3.97,1.48-4.1,4.09
		c-0.82-0.44-0.96-1.21-1.02-2.03C198.93,59.66,197.09,57.93,195.35,56.15z"/>
	<path class="st5" d="M131.55,44.97c-4.68-0.85-5.01-1.63-2.1-5.07c2.35-0.73,10.93-2.35,11.94-0.16
		C137.55,40.42,131.96,37.81,131.55,44.97z"/>
	<path class="st6" d="M150.12,261.85c-4.47,0-4.81-0.32-9.29-0.33c-4.89-0.06-12.75-23.86-9.96-24.42
		c3.44,1.84,13.75,14.09,17.19,12.03c1.04-0.35,2.09-0.7,3.13-1.04c2.29,0.08,2.02-3.46,4.77-3.13c4.93,0.58,9.75-1.63,14.74-0.98
		l0.17,0.02c4.56,3.82,10.01,2.81,11.18-2.07c0.76-4.13-2.06-8.27,0.05-12.4c0.77-3.39-0.73-6.99,1-10.28
		c0.97-0.03,1.94-0.06,2.91-0.09c0.39,5.68,0.96,11.36,1.07,17.05c0.05,2.63,0.85,3.34,3.22,2.66c0.36,0.67,0.71,1.34,1.07,2.01
		c-1.52,0.27-3.68-0.68-4,1.93c-0.27,2.23,1.79,2.09,3.03,2.75c1.02,0.54,2.4,0.4,3.06,1.61c0.16,1.68-2.08,3.33-0.06,5.03
		c0.01,0.17-7.13,3.18-15.79,5.52C167.89,260.35,152.29,262.61,150.12,261.85z"/>
	<path class="st2" d="M198.51,240.93c0.06,1.37,0.11,2.75,0.17,4.12c-0.12,3.59-2.05,5.85-5.27,7.16c-2.02-1.7,0.22-3.35,0.06-5.03
		c3.45-0.9,2.93-3.77,3.11-6.29C197.22,240.9,197.86,240.91,198.51,240.93z"/>
	<path class="st7" d="M124.34,72.81c3.78-0.39,7.55-0.78,11.33-1.17c1.58,1.2,3.08,2.82,5.23,0.99c3.91,2.79,7.71,5.77,12.28,7.46
		c6.71,6.49,13.65,12.69,21.61,17.63c2.17,1.35,4.65,1.97,7.26,1.75c-0.78,3.49,3.9,4.97,3.11,8.46c-1.03-0.37-2.07-0.74-3.1-1.11
		c-0.64,0-1.28-0.01-1.91-0.01c-2.57-1.6-4.96-3.72-8.35-3.1c-0.15-1.14-0.7-1.84-1.92-2.02c-4.4-0.67-8.77-1.5-13.18-2.06
		c-4.36-0.56-8.78,0.65-12.97,0.46c-4.33-0.19-5.87,1.28-7.01,4.65c-1.03,0.03-2.06,0.06-3.1,0.09c-1.69-1.93-3.42,0.64-5.12-0.05
		c-1.51-0.03-3-0.04-3.11,2.06l0,0c-4.31,0.31-6.12,3.96-7.89,6.87c-0.78,1.29-3.02,4.76,0.67,6.52c0.01,0.34,0.01,0.68,0,1.03
		c-2.06,3.1-4.12,0.8-6.18,0c0-2.06-0.01-4.12-0.01-6.18c0.27-0.63,0.83-1.29,0.77-1.88c-1.1-9.93,6.53-15.89,11.18-22.89
		c1.88-2.83,3.4-7.14,7.65-8.43c2.14-0.65,3.46-2.33,2.89-4.76c-0.58-2.47-2.72-2.04-4.57-2.3
		C127.93,74.56,125.18,76.19,124.34,72.81z"/>
	<path class="st8" d="M192.36,109.9c-0.68,0.7-2.7,2.12-3.03,2.14c1.79-5.44-3.09-9.44-3.12-14.48c4.13-2.06,8.25-4.12,12.38-6.18
		c3.85-0.24,7.27-2.63,11.25-2.27c0.16,2.19,0.3,4.38-0.93,6.37c-1.75,2.37-3.82,4.43-6.17,6.19
		C198.85,103.06,192.71,109.55,192.36,109.9z"/>
	<path class="st9" d="M187.26,85.16c-3.67-3.7-5.7-8.07-5.39-13.37c1.17-0.38,1.94-1.15,2.32-2.31c0.83,0.22,1.66,0.45,2.49,0.67
		c-0.39,1.45-1.14,3.14,0.32,4.2c1.91,1.39,2.58-1.82,4.34-1.53c1.14,2.28,0.34,5.08,1.97,7.22
		C193.15,86.45,192.93,86.64,187.26,85.16z"/>
	<path class="st3" d="M153.18,80.1c-4.57-1.7-8.37-4.67-12.28-7.46c-0.11-1.3-0.94-1.78-2.12-1.88c-0.34-0.69-0.68-1.39-1.01-2.08
		c5.1-0.42,6.32-2.54,4.54-7.79c-0.97-2.86-2-5.79,1.72-7.61c1.35,2.93,0.08,6.41,1.94,9.23c-0.48,4.47,0.65,8.34,4.16,11.35
		c-0.18,3.01,3.8,1.69,4.23,4.06C153.42,78.35,153.24,79.19,153.18,80.1z"/>
	<path class="st3" d="M193.3,80.04c-1.63-2.14-0.83-4.95-1.97-7.22c0,0,0.04,0.03,0.04,0.03c0.46-0.15,1.26,0.18,1.19-0.7
		c-0.01-0.14-0.78-0.22-1.21-0.33c-0.01-0.32-0.04-0.64-0.09-0.96c0.39-0.03,0.77-0.06,1.16-0.09c3.63,0.09,3.69-3.22,3.75-5.12
		c0.07-2.14,1.14-2.46,2.4-3.14c0.05,0.82,0.2,1.6,1.02,2.03c2.21,2.17,0.59,3.49-1.06,4.81c4.18,2.88,1.16,7.18,2.12,10.7l0,0
		c-2.09,0.75-4.19-0.02-6.28,0.04C194.02,80.07,193.66,80.05,193.3,80.04z"/>
	<path class="st10" d="M193.3,80.04c0.36,0.02,0.71,0.03,1.07,0.05c-0.31,3.43,2.21,1.77,3.69,2.13c2.03,0.5,2.86-0.1,2.59-2.17
		c0,0,0,0,0,0c0.67,0.02,1.35,0.03,2.02,0.05c1.57,4.37-1.8,6.56-4.09,9.22c-4.68,2.65-8.33,0.39-11.78-2.54
		c-0.57-0.48-0.2-1.22,0.47-1.61C192.93,86.64,193.15,86.45,193.3,80.04z"/>
	<path class="st11" d="M150.12,73.85c-3.51-3-4.65-6.88-4.16-11.35c0.49-0.09,0.99-0.18,1.48-0.27c1.8,2.2,4.53,2.42,6.96,3.29
		c0.05,0.61,0.28,0.95,0.94,0.6l0.4,0.01l0.39-0.06c1.14,0.98,1.17,2.24,0.9,3.58C154.62,70.88,153.3,73.89,150.12,73.85z"/>
	<path class="st9" d="M186.2,97.56c0.03,5.04,4.91,9.05,3.12,14.48c0.35,1.7-1.03,5.79-2.07,6.13c-0.07-0.72-0.13-1.44-0.2-2.16
		c0-0.61-0.01-1.22-0.01-1.83c0.72-2.49-0.49-4.39-1.88-6.23c0.79-3.49-3.9-4.97-3.11-8.46C182.88,97.64,184.48,97.46,186.2,97.56z"
		/>
	<path class="st10" d="M157.38,73.88c2.8-2.38,5.6,2.37,8.61-0.01c0.64-0.51,0.82,1.36,0.55,1.83c-1.06,1.84-1.37,4.59-3.58,5.16
		c-2.43,0.63-4.57-0.71-5.81-3.08C157.23,76.48,157.3,75.18,157.38,73.88z"/>
	<path class="st6" d="M147.44,62.23c-0.49,0.09-0.99,0.18-1.48,0.27c-1.86-2.82-0.58-6.3-1.94-9.23c1,0.02,2.01,0.03,3.01,0.05
		c1.14,1.43,2.71,0.85,4.15,0.88c1.01,0.38,2.01,0.76,3.02,1.13c-0.05,0.95-0.11,1.91-0.16,2.86c-1.98-0.85-3.95-1.79-6.19-1.52
		c-0.17,0.02-0.49,0.97-0.33,1.22c1.46,2.28,3.95,1.27,5.98,1.79c0.16,0.04,0.33,0.04,0.5,0.05c-0.23,0.71-0.45,1.43-0.68,2.14
		C151.37,62.22,149.25,59.58,147.44,62.23z"/>
	<path class="st12" d="M157.38,73.88c-0.08,1.3-0.15,2.61-0.23,3.91c-0.93,0.04-1.87,0.08-2.8,0.12c-0.43-2.37-4.41-1.05-4.23-4.06
		c3.18,0.04,4.5-2.96,6.91-4.19C157.15,71.06,157.26,72.47,157.38,73.88z"/>
	<path class="st10" d="M147.44,62.23c1.81-2.66,3.93-0.01,5.88-0.35c1.31,1.15,4.34,1.16,2.81,4.2c0,0-0.39,0.05-0.39,0.05
		s-0.4-0.01-0.4-0.01c-0.31-0.2-0.63-0.4-0.94-0.61C151.97,64.66,149.24,64.43,147.44,62.23z"/>
	<path class="st5" d="M154.04,58.2c0.05-0.95,0.11-1.91,0.16-2.86c1.42-2.4,0.56-3.32-2.02-3.14c0.01-0.34,0.03-0.69,0.04-1.03
		c3.27-1.58,5.91,0.2,5.67,3.88c-0.1,1.48-0.41,2.94-0.62,4.42C156.2,59.03,155.12,58.62,154.04,58.2z"/>
	<path class="st13" d="M184.19,69.47c-0.38,1.17-1.16,1.94-2.32,2.31c-1.33-1.45-0.81-3.25-0.83-4.9c-0.01-1.22-0.64-3.04,1.45-3.22
		c1.62-0.14,2.42,1,2.52,2.58C181.86,66.6,184.12,68.31,184.19,69.47z"/>
	<path class="st10" d="M184.19,69.47c-0.07-1.16-2.33-2.87,0.81-3.22c2.07,2.05,5.75,0.71,7.43,3.56c-0.73,0.23-1.46,0.46-2.18,0.69
		c-1.19-0.12-2.38-0.24-3.57-0.36C185.86,69.92,185.02,69.69,184.19,69.47z"/>
	<path class="st10" d="M154.04,58.2c1.08,0.42,2.16,0.83,3.23,1.25c-0.96,1.56-2.19,0.01-3.27,0.29c-0.17-0.02-0.34-0.01-0.5-0.05
		c-2.03-0.51-4.52,0.49-5.98-1.79c-0.16-0.25,0.16-1.2,0.33-1.22C150.09,56.41,152.06,57.35,154.04,58.2z"/>
	<path class="st5" d="M193.55,56.2c0.24,1.79,0.47,3.57,0.72,5.41c-2.89,0.69-2.98-2.07-3.45-3.27c-0.57-1.45,1.35-1.94,2.72-2.16
		C193.54,56.18,193.55,56.2,193.55,56.2z"/>
	<path class="st5" d="M187.21,55.43c0.69-0.03,1.38-0.05,2.08-0.08c0.04,1.14,0.2,2.31-1.01,3.04l-0.02-0.02
		C187.91,57.39,187.56,56.41,187.21,55.43z"/>
	<path class="st5" d="M190.26,70.5c0.73-0.23,1.45-0.46,2.18-0.69c-0.02,0.32-0.03,0.64-0.02,0.96c-0.39,0.03-0.77,0.06-1.16,0.09
		C190.93,70.74,190.59,70.62,190.26,70.5z"/>
	<path class="st5" d="M167.64,59.42c0.35,0,0.69,0,1.04,0l-0.01-0.01C168.33,59.99,167.99,59.99,167.64,59.42
		C167.65,59.41,167.64,59.42,167.64,59.42z"/>
	<path class="st5" d="M188.28,58.39c-0.08,0.14-0.16,0.29-0.24,0.43c0.07-0.15,0.15-0.3,0.22-0.45
		C188.26,58.37,188.28,58.39,188.28,58.39z"/>
	<path class="st5" d="M168.68,59.42c0.07-0.14,0.15-0.28,0.22-0.42C168.83,59.13,168.75,59.27,168.68,59.42
		C168.67,59.41,168.68,59.42,168.68,59.42z"/>
	<path class="st9" d="M124.34,72.81c0.84,3.37,3.59,1.75,5.54,2.02c1.85,0.26,3.99-0.18,4.57,2.3c0.57,2.43-0.76,4.11-2.89,4.76
		c-4.25,1.29-5.77,5.61-7.65,8.43c-4.65,7.01-12.28,12.96-11.18,22.89c0.07,0.59-0.5,1.25-0.76,1.88c-1.13-0.15-1.91-0.65-2.02-1.9
		c-0.39-4.75-3.56-7.3-7.6-8.54c-3.67-1.13-5.87-3.09-6.7-6.83c-0.74-3.35-2.5-5.22-6.24-3.58c-0.87,0.38-1.65-0.09-2.21-0.84
		c1.64-2.44,4.12-3.93,6.35-5.73c2.57-2.08,6.3-2.37,8.16-5.46C109.3,79.22,115.81,73.59,124.34,72.81z"/>
	<path class="st4" d="M101.7,82.22c-1.86,3.09-5.59,3.37-8.16,5.46c-2.23,1.81-4.7,3.29-6.35,5.73c-1.95-0.07-5.15,2.99-5.13-2.04
		c-0.32-3.78-0.64-7.56-0.96-11.35c1.42-1.11,0.86-2.7,0.97-4.12c0,0-0.01,0.01-0.01,0.01c1.54,0.04,2.99-0.03,3.05-2.12
		c4.68,2.3,7.42-2.71,11.4-3.03c1.48,1.32,1.03,4.17,4.03,4.46c1.56,0.15,1.19,1.95,0.33,2.83C99,79.97,100.74,80.97,101.7,82.22z"
		/>
	<path class="st5" d="M128.51,68.62c-0.05-5.33-1.01-10.63-0.41-16.01c0.34-3.02,0.87-5.73,3.45-7.64c3.57,1.33,3.32,5.09,4.73,7.74
		c2.5,4.68,2.25,9.82,1.45,14.93C134.81,69.38,131.61,68.46,128.51,68.62z"/>
	<path class="st11" d="M96.51,70.77c-3.98,0.32-6.72,5.32-11.4,3.03c-0.29,0.01-0.59,0-0.88-0.02c-0.68-3.14,0.8-6.05,0.95-9.1
		c2.95-1.12,2.95-1.12,13.98,1.53C98.71,68,96.21,68.66,96.51,70.77z"/>
	<path class="st6" d="M138.77,70.76c1.18,0.09,2.02,0.58,2.12,1.88c-2.15,1.83-3.65,0.2-5.23-0.99
		C136.48,70.58,137.67,70.82,138.77,70.76z"/>
	<path class="st6" d="M82.07,75.91c-0.12,1.42,0.45,3.01-0.97,4.12c-1.94-1.36-0.57-2.75-0.04-4.13
		C81.39,75.89,81.73,75.9,82.07,75.91z"/>
	<path class="st1" d="M202.67,80.09c-0.67-0.02-1.35-0.03-2.02-0.05c-0.95-3.52,2.06-7.82-2.12-10.7c1.65-1.32,3.27-2.64,1.06-4.81
		c0.12-2.61,3.08-2.37,4.1-4.09c1.55,1.08,0.93,2.71,1.05,4.15c-1.02,0.66-1.03,1.32-0.01,1.98
		C205.48,71.31,205.11,75.86,202.67,80.09z"/>
	<path class="st5" d="M204.74,66.58c-1.03-0.66-1.01-1.32,0.01-1.98C204.74,65.26,204.74,65.92,204.74,66.58z"/>
	<path class="st6" d="M80.04,68.65c0.81,0.26,2.24-0.48,2.27,1.03c0.03,1.28-0.92,2.02-2.23,2.16
		C80.06,70.78,80.05,69.72,80.04,68.65z"/>
	<path class="st1" d="M152.18,52.19c2.58-0.18,3.44,0.75,2.02,3.14c-1.01-0.38-2.02-0.76-3.02-1.13
		C151.16,53.35,151.36,52.62,152.18,52.19z"/>
	<path class="st6" d="M84.23,73.77c0.29,0.02,0.59,0.03,0.88,0.02c-0.06,2.09-1.51,2.16-3.05,2.12
		C82.78,75.2,83.5,74.49,84.23,73.77z"/>
	<path class="st4" d="M182.1,229.54c-2.11,4.12,0.71,8.27-0.05,12.4c-1.43-1.16-2.89-2.3-4.28-3.5c-0.62-0.53-1.02-1.53-2.03-1.09
		c-1.02,0.44-0.8,1.4-0.49,2.17c1.98,4.88-1.38,4.49-4.38,4.49c0,0-0.17-0.02-0.17-0.02c-0.38-2.65-2.46-2.92-4.48-3.04
		c-3.34-0.21-6.68-0.11-9.91,0.98c-0.02-0.67-0.03-1.34-0.05-2c1.84-1.43,3.79-2.51,6.24-2.13c1,0.05,2.11-0.17,2.97,0.2
		c4.55,1.99,5.69-0.08,5.26-4.21c0.01-4.51,0.01-9.01,0.02-13.52c3.26,0.18,8.05-0.97,7.88,3.89
		C178.5,227.6,179.52,228.64,182.1,229.54z"/>
	<path class="st4" d="M148.06,249.13c-3.44,2.07-6.88,1.85-10.32,0c-2.01-2.57-4.33-4.94-5.15-8.25c0.54-4.98,1.41-10.01-2.05-14.43
		c0.8-0.47,0.97-1.23,0.98-2.08l0.04-0.15c2.06,0.04,4.12,0.09,6.19,0.13c0.42,0.85,1.2,1.03,2.04,1.12
		c0.01,3.26-0.14,6.78,2.76,8.9c2.31,1.7,2.53,2.89,1.19,5.44C141.62,243.83,144.09,248.6,148.06,249.13z"/>
	<path class="st2" d="M190.3,238.87c-2.37,0.68-3.17-0.03-3.22-2.66c-0.11-5.69-0.69-11.37-1.07-17.05c0.06-1.42,0.64-2.94-0.7-4.13
		c-0.39-1.02-0.78-2.05-1.17-3.07c0.43-0.35,0.87-0.7,1.3-1.05c3.29,0.06,6.58,0.12,9.86,0.18c0.04,0.65,0.07,1.3,0.11,1.95
		c-0.88,1.48-3.81,2.3-2.58,4.34c1.79,2.97,2,6.69,2,9.32C194.84,230.7,195.01,236.06,190.3,238.87z"/>
	<path class="st13" d="M148.06,249.13c-3.96-0.53-6.44-5.3-4.32-9.31c1.35-2.55,1.13-3.74-1.19-5.44c-2.9-2.13-2.75-5.64-2.76-8.9
		c3.07-2.25,6.17-1.45,9.28-0.08c1.8,3.26,0.84,6.81,1.07,10.23c0.02,2.48-0.43,5.03,1.02,7.32c0.01,1.71,0.02,3.42,0.03,5.14
		C150.15,248.44,149.1,248.78,148.06,249.13z"/>
	<path class="st4" d="M190.3,238.87c4.71-2.81,4.53-8.16,4.53-12.17c0-2.63-0.21-6.35-2-9.32c-1.22-2.04,1.7-2.86,2.58-4.34
		c2.78,1.18,3.38,3.47,3.15,6.19c-0.98,3.09-0.14,6.16,0.13,9.24c-0.06,4.15-0.12,8.31-0.19,12.46c-0.64-0.01-1.29-0.03-1.93-0.04
		c-1.74,0-3.47-0.01-5.21-0.01C191.01,240.2,190.66,239.54,190.3,238.87z"/>
	<path class="st9" d="M185.31,215.03c1.33,1.19,0.75,2.7,0.7,4.13c-0.97,0.03-1.94,0.06-2.91,0.09c-3.63-1.94-7.55-0.73-11.33-1.07
		c-0.95-1.13-1.94,0.31-2.91-0.04c-0.36-1.01-0.73-2.01-1.09-3.02c1.85-0.14,1.96-1.47,1.97-2.87c0.69-0.13,1.38-0.26,2.07-0.39
		c0.67,0.06,1.34,0.11,2.01,0.17c0.16,1.9,1.78,3.1,3.04,2.64C179.86,213.58,182.5,215.69,185.31,215.03z"/>
	<path class="st8" d="M151.19,248.09c-0.01-1.71-0.02-3.42-0.03-5.14c0.34,0,0.68,0,1.02-0.01c0.34,0,0.69,0,1.03,0
		c1.14-0.03,2.35,0.16,3.09-1.04c3.23-1.09,6.57-1.19,9.91-0.98c2.02,0.13,4.11,0.39,4.48,3.04c-4.99-0.65-9.8,1.56-14.74,0.98
		C153.21,244.63,153.49,248.17,151.19,248.09z"/>
	<path class="st13" d="M171.77,218.18c3.78,0.34,7.7-0.86,11.33,1.07c-1.73,3.29-0.23,6.9-1,10.28c-2.58-0.89-3.6-1.93-3.48-5.39
		c0.17-4.86-4.62-3.72-7.88-3.89C171.09,219.56,171.43,218.87,171.77,218.18z"/>
	<path class="st2" d="M170.87,244c2.99,0,6.36,0.38,4.38-4.49c-0.31-0.77-0.53-1.73,0.49-2.17c1.01-0.44,1.42,0.56,2.03,1.09
		c1.39,1.21,2.85,2.34,4.28,3.5C180.88,246.82,175.43,247.82,170.87,244z"/>
	<path class="st8" d="M191.37,240.87c1.74,0,3.47,0.01,5.21,0.01c-0.18,2.52,0.34,5.39-3.11,6.29c-0.67-1.21-2.05-1.07-3.06-1.61
		c-1.24-0.66-3.3-0.53-3.03-2.75C187.69,240.2,189.85,241.14,191.37,240.87z"/>
	<path class="st8" d="M195.31,211.09c-3.29-0.06-6.58-0.12-9.87-0.18c-6.67-3.48-13.64-3.69-20.79-1.88
		c-1.8,0.16-3.61,0.51-5.39,0.43c-5.2-0.25-9.98,3.34-15.31,1.62c-0.39-2.17-1.32-2.84-3.11-1.12c-4.12,0.88-8.72,0.94-10.37,6.05
		c-1.01,0.39-2.03,0.78-3.04,1.17c-1.31,0.22-2.58,0.46-1.02,2.08c0,0.34,0,0.68,0,1.02c0,0.34,0,0.68,0,1.02
		c-4.11,0.52-3.38-7.78-3-8.36c2.25-3.48,6.68-1.53,9.19-4.02c0.68-0.02,1.35-0.04,2.03-0.05c1.16,0.02,2.41,0.27,3.11-1.06
		c3.17-0.74,6.77-0.06,9.36-2.79c2.03-0.11,4.07-0.22,6.1-0.34c0.71-0.01,1.41-0.02,2.12-0.03c1.72-0.35,3.43-0.71,5.15-1.06
		c10.32-0.08,20.65-0.53,30.96,0.31c0.3,0.01,0.6,0.02,0.9,0.03c0.28,0.08,4.25,0.2,4.54,0.19
		C197.84,206.57,197.49,211.33,195.31,211.09z"/>
	<path class="st14" d="M190.33,131.59c3.04,2.04,0.29,6.17-0.34,9.28c-0.74,3.63,0.46,6,0.25,6.25c-2.85-0.42-2.63-3.4-2.81-4.79
		c-0.57-4.34-6.26-5.92-5.32-10.76c4.06,0.43,5.95,3.19,6.83,6.97C192.6,136.49,189.94,133.8,190.33,131.59L190.33,131.59z"/>
	<path class="st6" d="M136.7,104.75c1.14-3.37,2.69-4.84,7.01-4.65c4.19,0.19,8.62-1.02,12.97-0.46c4.41,0.57,8.79,1.39,13.18,2.06
		c1.22,0.19,1.77,0.88,1.92,2.02c-0.71,0.36-1.41,0.73-2.12,1.09c-2.65-0.61-5.28-1.46-7.96-1.77c-3.28-0.38-6.84-1.49-9.52,1.72
		c-1.02-3.81-3.59,0.08-5.15-1.04c-0.68-3.29-2.47-1.25-3.67-0.62C141.24,104.21,139.41,106.16,136.7,104.75z"/>
	<path class="st6" d="M118.16,121.27c0.01-0.34,0.01-0.68,0-1.03c-0.2-1.96,0.59-3.4,1.75-5.03c1.93-2.7,4.61-4.96,5.48-8.37
		c0,0,0,0,0,0c1.5,0.02,2.97-0.01,3.11-2.06c1.7,0.69,3.43-1.88,5.12,0.05c-1.4,1.8-2.47,3.71-2.03,6.13
		c-1.54,3.5-5.82,4.63-7.17,8.29l-0.03,0.02c-1.38-0.04-2.04,0.66-2.09,2.01c-0.64,0.01-1.28,0.01-1.92,0.02
		C119.63,121.3,118.89,121.28,118.16,121.27z"/>
	<path class="st13" d="M131.57,110.97c-0.45-2.41,0.63-4.32,2.03-6.13c1.03-0.03,2.06-0.06,3.1-0.09c2.71,1.41,4.54-0.54,6.66-1.64
		c1.2-0.62,3-2.67,3.67,0.62c-0.81,0.46-1.02,1.23-1.03,2.09c-0.33,0.01-0.66,0.02-0.99,0.03
		C140.53,107.56,136.05,109.26,131.57,110.97z"/>
	<path class="st9" d="M125.38,106.85c-0.87,3.4-3.55,5.66-5.48,8.37c-1.16,1.62-1.95,3.07-1.75,5.03c-3.69-1.76-1.45-5.24-0.67-6.52
		C119.26,110.81,121.07,107.16,125.38,106.85z"/>
	<path class="st13" d="M169.67,104.81c0.71-0.36,1.41-0.72,2.12-1.09c3.4-0.62,5.78,1.49,8.35,3.1c-0.05,0.36-0.1,0.71-0.14,1.07
		c-2.53,2.51-4.93-1.58-6.95-0.39C168.84,109.99,169.95,106.73,169.67,104.81z"/>
	<path class="st9" d="M118.16,121.27c0.74,0.01,1.47,0.03,2.21,0.04c-1.43,1.71-2.86,3.42-4.29,5.14c-0.67,1.39-2.1,2.39-2.11,4.12
		c-0.31-0.01-0.62-0.01-0.94-0.01c-0.75-1.26-1.32-7.55-1.06-9.28C114.04,122.07,116.1,124.37,118.16,121.27z"/>
	<path class="st13" d="M185.16,107.94c1.39,1.85,2.61,3.75,1.88,6.23c-3.89-0.24-4.67-3.51-6.06-6.2c0.36-0.38,0.72-0.76,1.08-1.15
		C183.09,107.2,184.13,107.57,185.16,107.94z"/>
	<path class="st9" d="M128.48,104.8c-0.13,2.05-1.6,2.08-3.11,2.06C125.48,104.76,126.97,104.76,128.48,104.8z"/>
	<path class="st9" d="M182.06,106.83c-0.36,0.38-0.72,0.76-1.08,1.14c-0.33-0.03-0.66-0.06-0.98-0.09c0.05-0.36,0.1-0.71,0.14-1.07
		C180.78,106.83,181.42,106.83,182.06,106.83z"/>
	<path class="st13" d="M190.26,70.5c0.34,0.12,0.67,0.23,1.01,0.35c0.05,0.32,0.08,0.64,0.09,0.96c0.01,0.34,0.01,0.69,0.02,1.03
		c0,0-0.04-0.03-0.04-0.03c-1.75-0.28-2.43,2.93-4.34,1.53c-1.46-1.06-0.7-2.75-0.32-4.2C187.88,70.26,189.07,70.38,190.26,70.5z"/>
	<path class="st1" d="M200.65,80.04c0.27,2.08-0.55,2.68-2.59,2.17c-1.48-0.37-4,1.29-3.69-2.13
		C196.46,80.02,198.56,80.8,200.65,80.04z"/>
	<path class="st6" d="M191.37,72.84c-0.01-0.34-0.01-0.69-0.02-1.03c0.42,0.11,1.19,0.19,1.21,0.33
		C192.63,73.03,191.84,72.69,191.37,72.84z"/>
	<path class="st1" d="M154.4,65.52c0.31,0.2,0.63,0.4,0.94,0.61C154.68,66.47,154.45,66.13,154.4,65.52z"/>
	<path class="st2" d="M180,107.89c0.33,0.03,0.66,0.06,0.98,0.09c1.39,2.68,2.18,5.96,6.06,6.2c0,0.61,0.01,1.22,0.01,1.83
		c-1.8,0.28-1.93,1.55-1.78,3c-0.42,0.06-0.85,0.11-1.27,0.17c-0.63-0.25-1.27-0.51-1.9-0.76c-0.01-0.76-0.02-1.53-0.04-2.29
		c-0.35-0.32-0.71-0.65-1.06-0.97c-0.35-0.01-0.7-0.02-1.05-0.02c0-2.09-1.32-3.48-3.12-3.3c-4.21,0.43-8.88-0.47-11.98-1.82
		c-6.3-2.74-9.21,0.38-12.76,3.85c-1.66,0.11-3.41-0.05-4.98,0.39c-2.32,0.66-2.01,1.84-0.11,2.88c0,0.34-0.01,0.67-0.02,1.01
		c-1.57,1.66-0.28,1.9,1.05,2.12c0.83,2.29-3.49,2.78-1.86,5.34c-6.26,1.69-12.53,3.38-18.79,5.07c0.87-2.33,3.42-4.87,0.44-7.04
		c-2.59-1.89-5.38-0.4-7.63,1.36c-1.28,1-2.53,1.61-4.13,1.47c1.43-1.71,2.86-3.42,4.29-5.14c0.64-0.01,1.28-0.01,1.92-0.02
		c1.29-0.05,2.01-0.7,2.09-2.01c0,0,0.03-0.02,0.03-0.02c1.34-0.02,2.69-0.04,4.03-0.06c4.96,2.49,8.97-2.26,13.78-1.42
		c-1.41-1.29-3.1-1.79-3.44-3.66c0.17-0.75,0.34-1.49,0.51-2.24c6.15,2.01,5.28-2.63,5.72-6.03c0.33,0,0.66-0.01,0.99-0.03
		c2.43,1.8,4.5,1.51,6.19-1.05c2.69-3.21,6.24-2.1,9.52-1.72c2.69,0.31,5.31,1.16,7.96,1.77c0.28,1.92-0.83,5.18,3.38,2.69
		C175.06,106.31,177.47,110.41,180,107.89z"/>
	<path class="st13" d="M185.28,119.01c-0.16-1.44-0.03-2.72,1.78-3c0.06,0.72,0.13,1.44,0.2,2.16c-0.02,0.7-0.03,1.41-0.05,2.11
		C186.56,119.86,185.92,119.43,185.28,119.01z"/>
	<path class="st2" d="M143.95,211.07c5.33,1.72,10.11-1.87,15.31-1.62c1.79,0.09,3.59-0.27,5.39-0.43c1.78,2.48,5.96-1.09,7.17,2.83
		c-0.69,0.13-1.38,0.26-2.07,0.38c-0.89-0.2-1.61,0.02-2.12,0.81c-2.38,3.74-7.55,5.96-7.6,10.72c-0.05,4.66,1.59,9.34,2.49,14.01
		c-2.45-0.38-4.41,0.7-6.24,2.13c-1.01-0.02-2.03-0.03-3.05-0.05c-0.34,0-0.69,0-1.03,0c-0.68-1.41-1.36-2.81-2.04-4.22
		c-0.24-3.42,0.73-6.97-1.07-10.23c0.17-1.49-0.22-2.85-1-4.11c0-0.69-0.01-1.38-0.01-2.06c-0.79-3.66-2.65-4.95-6.39-3.37
		c-1.43,0.6-3.28,0.2-4.93,0.25c-0.51-0.87-1.37-0.97-2.25-1.04c1.41-0.65,2.83-1.3,4.24-1.96
		C141.13,214.13,142.15,211.62,143.95,211.07z"/>
	<path class="st3" d="M162.5,237.78c-0.9-4.67-2.54-9.35-2.49-14.01c0.06-4.76,5.22-6.98,7.61-10.72c0.05,0.69,0.1,1.38,0.15,2.07
		c0.36,1.01,0.73,2.01,1.09,3.02c-0.54,5.35,0.58,10.5,1.86,15.64c0.44,4.13-0.71,6.19-5.26,4.21
		C164.61,237.61,163.49,237.83,162.5,237.78z"/>
	<path class="st6" d="M170.72,233.77c-1.28-5.13-2.4-10.29-1.86-15.64c0.97,0.35,1.96-1.09,2.91,0.04
		c-0.34,0.69-0.69,1.38-1.03,2.08C170.74,224.76,170.73,229.27,170.72,233.77z"/>
	<path class="st6" d="M153.21,239.86c1.02,0.02,2.03,0.03,3.04,0.05c0.02,0.67,0.03,1.34,0.05,2c-0.75,1.2-1.95,1.01-3.09,1.04
		C153.21,241.92,153.21,240.89,153.21,239.86z"/>
	<path class="st12" d="M126.4,221.29c0-0.34,0-0.68,0-1.02c0.84-0.03,1.6-0.22,2.05-1.02c1.05,0.38,2.1,0.77,3.15,1.15
		c-0.01,1.28-0.03,2.56-0.04,3.83c0,0-0.04,0.15-0.04,0.15c-1.3,0.23-2.56,0.49-0.98,2.08c3.45,4.42,2.58,9.45,2.05,14.43
		c-1.41-0.04-2.45-0.96-2.52-2.13C129.76,232.72,125.99,227.45,126.4,221.29z"/>
	<path class="st7" d="M131.56,224.23c0.01-1.28,0.03-2.56,0.04-3.84c0.31-0.08,0.63-0.13,0.95-0.16c5.33,2.23,10.25-1.86,15.5-1
		c0,0.69,0.01,1.38,0.01,2.06c-3.65,0.3-7.33,0.49-10.31,3.06C135.69,224.32,133.62,224.27,131.56,224.23z"/>
	<path class="st12" d="M137.75,224.36c2.98-2.57,6.66-2.76,10.31-3.06c0.78,1.26,1.17,2.62,1,4.11c-3.1-1.38-6.2-2.18-9.28,0.07
		C138.95,225.39,138.17,225.21,137.75,224.36z"/>
	<path class="st6" d="M130.54,226.45c-1.58-1.59-0.32-1.84,0.98-2.08C131.52,225.22,131.35,225.98,130.54,226.45z"/>
	<path class="st1" d="M171.82,211.86c-1.21-3.92-5.39-0.35-7.17-2.83c7.15-1.81,14.12-1.6,20.8,1.88c-0.43,0.35-0.87,0.7-1.3,1.05
		c-1.01-0.01-2.02-0.01-3.04-0.02c0.17-0.75,0.82-1.71-0.56-1.92c-1.3-0.21-2.36,0.21-2.69,1.67c-1.34,0.11-2.69,0.23-4.03,0.34
		C173.16,211.97,172.49,211.91,171.82,211.86z"/>
	<path class="st15" d="M181.1,211.94c1.01,0.01,2.02,0.01,3.04,0.02c0.39,1.02,0.78,2.05,1.17,3.07c-2.82,0.66-5.45-1.45-8.44-0.36
		c-1.27,0.46-2.89-0.74-3.04-2.64c1.34-0.11,2.69-0.23,4.03-0.34C178.94,211.77,180.02,211.86,181.1,211.94z"/>
	<path class="st6" d="M150.14,235.64c0.68,1.41,1.36,2.81,2.04,4.22c0,1.03,0,2.06,0,3.1c-0.34,0-0.68,0-1.02,0.01
		C149.71,240.67,150.16,238.12,150.14,235.64z"/>
	<path class="st15" d="M167.77,215.12c-0.05-0.69-0.1-1.38-0.15-2.07c0.51-0.79,1.24-1.01,2.12-0.81
		C169.73,213.65,169.62,214.98,167.77,215.12z"/>
	<path class="st4" d="M152.18,242.95c0-1.03,0-2.06,0-3.1c0.34,0,0.69,0,1.03,0c0,1.03,0,2.06,0,3.09
		C152.87,242.95,152.52,242.95,152.18,242.95z"/>
	<path class="st1" d="M196.51,203.77c-1.11,0.09,1.46,0.25,0.35,0.34c-0.3,0.01-4.26-0.11-4.54-0.19c-0.28-0.87-0.58-0.87-0.91-0.02
		c-10.31-0.84-20.64-0.39-30.96-0.31c-1.14-3.76-3.47-0.42-5.16-0.87c-2.43-4.53-4.83-1.12-7.24,0.02c-0.34,0-0.68-0.01-1.03-0.02
		c0.35-2.67,3.54-4.1,3.09-7.12c2.51-2.13,5.5-0.65,8.24-1.09c-0.34,2.9,0.98,4.93,3.56,5.96c1.01,0.4,2.32,0.05,3.49,0.05
		c-1.44-4.06,3.6-3.41,4.3-5.92c0.35-0.04,0.69-0.07,1.04-0.11c3.64,4.51,6.46,1.76,9.28-1.05c1.33-0.2,2.59-0.44,1.07-2.1
		c1.35-1.29,2.42-1.22,2.96,0.69c0.28,0.99,0.39,2.5,1.6,2.2c4.08-1,7.11,2.54,10.96,2.27c0,0,0.13-0.1,0.14-0.1
		C196.66,198.86,196.59,201.31,196.51,203.77L196.51,203.77z"/>
	<path class="st2" d="M147.08,205.01c-2.58,2.73-6.18,2.05-9.36,2.79c-1.67-1.51-2.66-1.03-3.11,1.06
		c-0.68,0.02-1.35,0.04-2.03,0.05c-2.43-0.69-4.78-3.89-3.96-4.53c2.39-1.87-0.92-2.48-0.21-3.58c0.44-0.87,1.2-1.14,2.11-1.15
		c1.38,0,2.76-0.01,4.13-0.01c4.33,0.75,7.41,5.26,12.37,4.12C147.04,204.18,147.06,204.59,147.08,205.01z"/>
	<path class="st4" d="M128.41,200.8c-0.7,1.1,2.6,1.71,0.22,3.58c-0.82,0.64,1.53,3.83,3.96,4.53c-2.5,2.5-6.93,0.54-9.19,4.02
		c-0.38,0.58-2.44-10.12-1.14-10.21c2.95,2.13,3.03,0.02,3.11-2.1C126.38,200.68,127.4,200.74,128.41,200.8z"/>
	<path class="st6" d="M138.72,213.12c-1.41,0.65-2.83,1.3-4.24,1.96c-1.34,0.31-2.68,0.61-4.02,0.92c1.65-5.11,6.25-5.17,10.37-6.05
		C140.13,211.01,139.43,212.07,138.72,213.12z"/>
	<path class="st4" d="M130.46,216c1.34-0.31,2.68-0.61,4.02-0.92c0.87,0.07,1.74,0.17,2.24,1.04c-1.46,1.3-3.81,1.71-4.17,4.12
		c-0.32,0.02-0.64,0.08-0.95,0.16c-1.05-0.38-2.1-0.76-3.15-1.15c-0.33-0.02-0.66-0.04-1-0.05c-0.01-0.68-0.02-1.35-0.03-2.03
		C128.44,216.78,129.45,216.39,130.46,216z"/>
	<path class="st3" d="M147.08,205.01c-0.02-0.41-0.04-0.83-0.06-1.24c0,0,0,0,0,0c0.34-0.34,0.68-0.69,1.03-1.03
		c2.41-1.15,4.81-4.55,7.24-0.02l-0.02,0.02c-1.26,0.03-1.98,0.65-2.08,1.94C151.15,204.78,149.12,204.9,147.08,205.01z"/>
	<path class="st12" d="M138.72,213.12c0.71-1.06,1.41-2.12,2.12-3.18c1.79-1.71,2.72-1.04,3.11,1.12
		C142.15,211.62,141.13,214.13,138.72,213.12z"/>
	<path class="st3" d="M155.29,202.72c1.69,0.45,4.02-2.89,5.16,0.87c-1.72,0.35-3.43,0.71-5.15,1.06c-0.01-0.64-0.02-1.27-0.03-1.91
		L155.29,202.72z"/>
	<path class="st4" d="M134.62,208.86c0.45-2.09,1.44-2.57,3.11-1.06C137.02,209.13,135.78,208.87,134.62,208.86z"/>
	<path class="st2" d="M155.27,202.74c0.01,0.64,0.02,1.28,0.03,1.91c-0.71,0.01-1.41,0.02-2.12,0.03
		C153.29,203.38,154.01,202.77,155.27,202.74z"/>
	<path class="st6" d="M127.43,217.17c0.01,0.68,0.02,1.35,0.03,2.03c-0.35,0.02-0.7,0.03-1.05,0.05
		C124.85,217.62,126.11,217.38,127.43,217.17z"/>
	<path class="st9" d="M126.41,219.25c0.35-0.02,0.7-0.03,1.05-0.05c0.33,0.01,0.66,0.03,1,0.05c-0.45,0.81-1.21,0.99-2.05,1.02
		C126.4,219.93,126.4,219.59,126.41,219.25z"/>
	<path class="st2" d="M191.41,203.89c0.32-0.85,0.63-0.85,0.91,0.02C192.02,203.92,191.71,203.91,191.41,203.89z"/>
	<path class="st2" d="M187.62,122.3c2.37,2.27,1.92,5.46,2.71,8.25c-0.33,0-0.66,0-1-0.01c-2.79-1.28-5.57-2.57-8.36-3.86
		c0.9-2.18,0.23-5.58,4.18-5.39C185.97,121.63,186.8,121.97,187.62,122.3z"/>
	<path class="st5" d="M187.62,122.3c-0.82-0.34-1.65-0.68-2.47-1.01c-0.38-0.71-0.76-1.41-1.14-2.12c0.42-0.05,0.85-0.11,1.27-0.17
		c0.64,0.43,1.28,0.85,1.92,1.28C187.34,120.96,187.48,121.63,187.62,122.3z"/>
	<path class="st14" d="M189.33,130.54c0.33,0.01,0.66,0.02,1,0.01c0,0.34,0,0.69,0,1.03c0,0,0,0,0,0
		C190,131.24,189.66,130.89,189.33,130.54z"/>
	<path class="st8" d="M189.33,130.54c0.33,0.35,0.67,0.7,1,1.05c-0.39,2.21,2.27,4.9-1.39,6.96c-0.87-3.78-2.76-6.54-6.83-6.97
		c-0.35-0.03-0.7-0.07-1.05-0.1c-0.21-2.04-1.67-1.97-3.15-1.86c-0.68-0.02-1.35-0.04-2.03-0.06c-0.45-0.87-1.22-1.03-2.1-0.96
		c-6.18-0.12-12.35-0.78-18.53-0.13c-0.68,0.02-1.37,0.03-2.05,0.05c-1.01,0.05-2.01,0.09-3.02,0.14c-1.16-0.14-2.33-0.31-3.17,0.81
		c-0.99,0.06-1.99,0.11-2.98,0.17c-5.19,1.69-10.38,3.37-15.57,5.06c-3.79,1.54-7.78,2.91-7.19,8.26c-0.36,1.37-0.71,2.74-1.07,4.11
		c-1.58,2.74-1.55,5.49-0.03,8.24c0.73,2.55-2.5,4.59-0.94,7.25c-0.02,0.68-0.03,1.36-0.05,2.04c-0.8,0.45-0.97,1.21-1,2.03
		c-0.01,0.35-0.02,0.71-0.03,1.06l0,0.01c-1.49-1.8-1.39-4.11-2.04-6.19c0.47-6.89-0.65-13.62-2.09-20.31
		c-0.03-0.16-2.02-7.18-0.98-10.63c0.31,0,0.63,0.01,0.94,0.01c0.78,0.27,2.06,0.35,2.26,0.85c2.22,5.49,5.19,2.5,8.08,0.84
		c1-0.57,2.05-1.06,3.08-1.59c6.26-1.69,12.53-3.38,18.79-5.07c3.04-0.15,6.08-0.3,9.13-0.45c5.82-0.99,11.64-0.33,17.45,0.09
		c2.73,0.48,5.47,0.96,8.2,1.44C183.76,127.97,186.54,129.26,189.33,130.54z"/>
	<path class="st3" d="M190.24,147.12c0.27,3.13,0.54,6.27,0.82,9.4c-0.93-0.4-1.87-0.8-2.8-1.2c0.09-3.25-1.89-5.07-4.54-6.28
		c-3.07-1.4-4.67-3.63-5.94-6.86c-1.19-3.03-1.79-7.96-7.89-6.26c-0.97,0.27-6.15,0.49-7.41-3.28c5.16-2.04,10.34-0.35,15.51-0.06
		c1.17,0.03,2.39,0.21,3.06-1.11c0.35,0.03,0.7,0.07,1.05,0.1c-0.93,4.84,4.75,6.42,5.32,10.76
		C187.61,143.73,187.39,146.71,190.24,147.12z"/>
	<path class="st9" d="M119.23,183.28c0.33-1.77,0.66-3.53,0.99-5.3c0.34-1.36,0.68-2.71,1.02-4.07c3.8-2.51,8.31-3.34,12.38-5.22
		c3.42-1.44,7.68-0.52,10.47-3.74c0.57,0,1.14,0,1.71,0c6.02,0.69,11.86-0.66,17.75-1.48c2.04-0.02,4.08-0.04,6.12-0.06
		c2.74,0.3,5.38,1.53,8.22,0.9c6.06,1.21,11.94,2.94,17.59,5.47c-0.02,1.54-0.85,2.54-2.13,3.25c-4.97-3.25-10.03-6.21-16.34-5.47
		c-3.03-1.73-6.27-0.73-9.44-0.73c-2.35,0.02-4.7,0.05-7.05,0.07c-3.64-0.4-7.21-0.39-10.47,1.62c-0.4,0.28-0.79,0.56-1.19,0.84
		c-2.68,0.47-5.56-0.28-8.05,1.35c-4.69,1.17-9.93,0.89-13.41,5.18C122.77,176.24,122.29,181.19,119.23,183.28z"/>
	<path class="st4" d="M119.23,183.28c3.06-2.09,3.54-7.05,8.18-7.4c-0.14,1.49,0.3,3.6-0.52,4.36c-5.95,5.57,0.65,12.19-1.73,17.97
		c-0.04,0.09,0.17,0.27,0.27,0.41c-0.01,0.35-0.02,0.7-0.03,1.05c-1,0-2.01,0.01-3.01,0.01c-1.7-2.14-2.1-10.05-2.11-11.43
		C120.22,186.98,118.91,184.24,119.23,183.28z"/>
	<path class="st15" d="M121.24,173.92c-0.34,1.36-0.68,2.71-1.02,4.07c-1.18-0.02-3.83-7.41-2.07-10.31c0,0,0-0.01,0-0.01
		c0.34-0.34,0.69-0.69,1.03-1.03c0.35,0,0.69,0,1.04,0c0.35,1.04,0.71,2.07,1.06,3.11C120.18,171.13,121.27,172.53,121.24,173.92z"
		/>
	<path class="st4" d="M152.18,104.77c-1.69,2.56-3.76,2.85-6.19,1.05c0.02-0.86,0.22-1.63,1.03-2.09
		C148.59,104.85,151.16,100.96,152.18,104.77z"/>
	<path class="st4" d="M128.43,119.2c-1.34,0.02-2.69,0.04-4.03,0.06c1.36-3.66,5.63-4.79,7.17-8.29c4.48-1.71,8.96-3.41,13.43-5.12
		c-0.44,3.4,0.44,8.05-5.72,6.03c-0.17,0.75-0.34,1.49-0.51,2.24C136.07,117.31,131.62,116.98,128.43,119.2z"/>
	<path class="st4" d="M124.38,119.28c-0.08,1.31-0.8,1.96-2.09,2.01C122.33,119.94,123,119.24,124.38,119.28z"/>
	<path class="st13" d="M127.4,130.67c-1.03,0.53-2.08,1.02-3.08,1.59c-2.89,1.65-5.86,4.65-8.08-0.84c-0.2-0.51-1.48-0.58-2.26-0.85
		c0-1.73,1.43-2.73,2.11-4.12c1.6,0.14,2.85-0.47,4.13-1.47c2.26-1.76,5.04-3.25,7.63-1.36C130.82,125.8,128.27,128.34,127.4,130.67
		z"/>
	<path class="st1" d="M172.77,125.24c-5.82-0.42-11.63-1.08-17.45-0.09c-0.01-0.25-0.02-0.5-0.03-0.75
		c-0.35-0.36-0.7-0.73-1.05-1.09c1.26-2.39,1.27-4.77-0.01-7.16c4.03-1.4,8.56,0.56,12.69-1.57c-5.06-1.86-9.93-1.7-14.82-0.72
		c3.56-3.47,6.46-6.59,12.76-3.85c3.1,1.35,7.78,2.24,11.98,1.82c1.8-0.18,3.12,1.21,3.12,3.3c-2.04-0.17-4.08-0.28-6.1-0.53
		c-0.72-0.09-1.42-0.24-1.73,0.5c-0.4,0.95,0.04,1.66,1.04,1.92c0.98,0.25,2.08,0.17,2.72,1.18
		C173.29,119.85,173.19,122.61,172.77,125.24z"/>
	<path class="st3" d="M172.77,125.24c0.42-2.63,0.52-5.39,3.12-7.06c2.01,1.73,4.18-0.57,6.23,0.23c0.63,0.25,1.27,0.51,1.9,0.76
		c0.38,0.71,0.76,1.41,1.13,2.12c-3.95-0.18-3.27,3.21-4.18,5.39C178.24,126.2,175.5,125.72,172.77,125.24z"/>
	<path class="st3" d="M154.23,116.15c1.28,2.38,1.26,4.77,0.01,7.16c0.35,0.36,0.7,0.73,1.05,1.09c0.01,0.25,0.02,0.5,0.03,0.75
		c-3.04,0.15-6.08,0.3-9.13,0.45c-1.63-2.56,2.7-3.05,1.86-5.34c-0.01-0.87-0.23-1.65-1.05-2.12c0.01-0.34,0.01-0.67,0.02-1.01
		c0,0-0.03-0.04-0.03-0.04c2.17,0.29,4.96,4.9,6.24-0.91C153.56,116.16,153.9,116.15,154.23,116.15z"/>
	<path class="st10" d="M154.23,116.15c-0.34,0-0.67,0.01-1.01,0.04c-2.09,0.23-4.37-0.86-6.24,0.91c0,0,0.03,0.04,0.03,0.04
		c-1.9-1.04-2.21-2.22,0.11-2.88c1.57-0.45,3.31-0.28,4.98-0.39c4.89-0.98,9.76-1.14,14.82,0.72
		C162.79,116.71,158.26,114.75,154.23,116.15z"/>
	<path class="st1" d="M128.43,119.2c3.19-2.22,7.63-1.89,10.35-5.08c0.34,1.87,2.03,2.37,3.44,3.66
		C137.4,116.94,133.39,121.69,128.43,119.2z"/>
	<path class="st5" d="M182.12,118.41c-2.05-0.8-4.21,1.51-6.23-0.23c-0.64-1.01-1.74-0.93-2.72-1.18c-0.99-0.25-1.44-0.96-1.04-1.92
		c0.31-0.74,1.01-0.59,1.73-0.5c2.03,0.25,4.07,0.36,6.1,0.53c0.35,0.01,0.7,0.02,1.05,0.02c0.35,0.32,0.71,0.65,1.06,0.97
		C182.09,116.89,182.1,117.65,182.12,118.41z"/>
	<path class="st1" d="M147,118.14c0.83,0.47,1.04,1.24,1.05,2.12C146.72,120.05,145.43,119.8,147,118.14z"/>
	<path class="st1" d="M182.08,116.12c-0.35-0.32-0.71-0.65-1.06-0.97C181.37,115.47,181.73,115.8,182.08,116.12z"/>
	<path class="st15" d="M132.55,220.24c0.37-2.41,2.71-2.82,4.17-4.12c1.66-0.05,3.51,0.35,4.93-0.25c3.74-1.58,5.6-0.29,6.39,3.37
		C142.8,218.37,137.88,222.47,132.55,220.24z"/>
	<path class="st2" d="M181.1,211.94c-1.08-0.08-2.16-0.16-3.24-0.25c0.33-1.47,1.38-1.88,2.69-1.67
		C181.92,210.23,181.28,211.19,181.1,211.94z"/>
	<path class="st5" d="M160.52,166.9c2.35-0.02,4.7-0.05,7.05-0.07c0.01,4.03,3.12,2.6,5.22,2.95c1.87,3.25,5.14,7.15-2.79,5.63
		c-0.76-0.15-2.01,0.6-1.55,2.05c0.39,1.25,0.93,3.7,1.92,3.05c3.51-2.33,4.02,1.55,5.95,2.3c2.21,0.86,4.29,1.48,1.83,4.41
		c-1.74,2.08,0.63,2.49,1.5,1.97c2.5-1.46,5.13-0.22,7.6-0.9c0.56,1.38,1.59,2.06,3.08,2.07c0.04,4.34,3.6,3.47,6.12,4.14
		c0.05,0.67,0.11,1.34,0.16,2c-3.85,0.27-6.87-3.27-10.96-2.27c-1.21,0.3-1.32-1.22-1.6-2.2c-0.54-1.91-1.61-1.99-2.96-0.69
		c-12.95-1.45-25.68-0.01-38.28,3.03c0.37-1.34,0.74-2.67,1.12-4.01c3.37-4.75,3.96-11.17,8.99-14.92c0.66-0.49,0.77-1.06,0.18-1.65
		c-2.06-2.06,0.39-2.82,1.14-4.07c0.69,0,1.37,0,2.06,0c0.35,0,0.69,0.01,1.04,0.01C159.2,169.69,160.24,168.72,160.52,166.9z"/>
	<path class="st3" d="M190.32,190.37c-1.48-0.01-2.51-0.69-3.08-2.07c0.72-0.59,2.89,1.42,2.3-0.64c-1.02-3.57,0.07-7.27-1.25-10.72
		c3.15-0.24,3,4.34,6.1,4.17c0,0,0.22-0.04,0.22-0.04c0.61,3.79,1.23,7.58,1.84,11.37C193.92,193.19,192.43,190.86,190.32,190.37z
		 M192.13,184.35c-0.04-0.15-0.05-0.32-0.14-0.42c-0.04-0.04-0.24,0.06-0.37,0.09c0.04,0.15,0.06,0.32,0.15,0.42
		C191.79,184.48,192,184.38,192.13,184.35z"/>
	<path class="st1" d="M190.32,190.37c2.11,0.49,3.6,2.82,6.13,2.07c0,0.69,0,1.38-0.01,2.07
		C193.92,193.84,190.36,194.71,190.32,190.37z"/>
	<path class="st1" d="M196.52,203.76c0.14,0.08,0.28,0.16,0.42,0.23C196.8,203.92,196.66,203.84,196.52,203.76
		C196.51,203.77,196.52,203.76,196.52,203.76z"/>
	<path class="st3" d="M143.92,190.37c-0.37,1.34-0.74,2.67-1.12,4.01c-0.11,0.13-0.25,0.24-0.32,0.39c-0.06,0.14-0.1,0.44-0.04,0.47
		c2.5,1.28,5.13-0.25,7.67,0.36c0.44,3.01-2.74,4.45-3.09,7.12c0,0.35,0,0.7,0,1.05c0,0,0,0,0,0c-4.96,1.14-8.04-3.37-12.37-4.12
		c-0.33-2.16,3.18-5.08,0.36-6.09c-2.96-1.06-3.01,3.25-4.44,5.11c-0.17,0.22-0.05,0.65-0.06,0.99c-0.9,0.02-1.67,0.28-2.11,1.15
		c-1.01-0.06-2.03-0.12-3.04-0.18c0.01-0.31,0.02-0.63,0.02-0.94c0.01-0.35,0.02-0.7,0.03-1.05c2.49-1.52,6.52-2.25,3.28-6.66
		c-0.25-0.34,0.09-1.56,0.51-1.86c4.64-3.25,3.11-9.72,7.24-13.48c1.61-1.47,4.59-2.77,4.36-5.92c2.49-1.63,5.37-0.88,8.05-1.34
		c-1.14,4.07-0.27,9.91-7.8,8.14c-1.54-0.36-2.56,2.08-2.01,3.39c1.2,2.91-0.03,4.41-2.28,5.74c-2.33,1.38-1.38,2.34,0.23,3.72
		C139.44,192.42,141.64,189.69,143.92,190.37z M139.8,194.8c-0.4-0.33-0.75-0.83-1.03-0.79c-0.32,0.04-0.77,0.54-0.82,0.88
		c-0.09,0.66,0.24,1.32,1.05,1.11C139.32,195.92,139.49,195.3,139.8,194.8z"/>
	<path class="st10" d="M150.12,195.6c-2.54-0.61-5.17,0.92-7.67-0.36c-0.06-0.03-0.02-0.33,0.04-0.47c0.06-0.15,0.21-0.26,0.32-0.39
		c12.6-3.04,25.32-4.49,38.28-3.03c1.53,1.66,0.27,1.89-1.07,2.1c-2.82-2.56-5.55,0.44-8.34,0.13c-0.31,0.31-0.62,0.61-0.93,0.92
		l0,0.01c-0.35,0.04-0.69,0.07-1.04,0.11c-3.76-2.75-7.56-0.89-11.35-0.09C155.62,194.96,152.63,193.47,150.12,195.6z"/>
	<path class="st5" d="M158.35,194.51c3.79-0.8,7.59-2.66,11.35,0.09c-0.7,2.51-5.74,1.87-4.3,5.92c-1.17,0.01-2.48,0.36-3.49-0.05
		C159.33,199.44,158.01,197.41,158.35,194.51z"/>
	<path class="st5" d="M171.68,193.56c2.78,0.31,5.52-2.69,8.34-0.13c-2.81,2.81-5.63,5.56-9.28,1.05c0,0,0-0.01,0-0.01
		C171.05,194.18,171.37,193.87,171.68,193.56z"/>
	<path class="st2" d="M147.02,203.77c0-0.35,0-0.7,0-1.05c0.34,0.01,0.68,0.01,1.03,0.02C147.71,203.08,147.36,203.42,147.02,203.77
		z"/>
	<path class="st1" d="M130.51,199.65c0.01-0.33-0.11-0.77,0.06-0.99c1.43-1.86,1.48-6.17,4.44-5.11c2.81,1.01-0.7,3.93-0.36,6.09
		C133.27,199.64,131.89,199.65,130.51,199.65z"/>
	<path class="st2" d="M125.39,199.68c-0.01,0.31-0.01,0.63-0.02,0.94c-0.08,2.12-0.16,4.23-3.11,2.1c0.04-1.01,0.08-2.02,0.12-3.02
		C123.38,199.69,124.39,199.69,125.39,199.68z"/>
	<path class="st2" d="M178,132.58c-5.17-0.29-10.35-1.98-15.51,0.06c-2.06,0.33-4.13,0.67-6.19,1c-3.23-0.38-6.97-2.03-7.64,3.48
		c-0.15,1.26-1.61,1.62-2.89,1.66c-1.23,0.04-2.42,0.13-2.85,1.6c-1.42,4.88-5.15,8.14-8.28,11.81c0,0,0,0,0,0
		c-2.45,0.35-2.75,2.28-3.09,4.18c-0.68,0.36-1.35,0.72-2.03,1.08c-2.73-1.64-1.77,0.86-2.12,1.89c-1.35,0.4-2.69,0.79-4.04,1.19
		c-0.95-2.61,0.37-5.45,1.99-6.24c3.79-1.85,4.18-5.48,3.85-8.09c-0.81-6.35,3.57-8.33,7.53-10.77c1.53-0.95,3.5-1.41,5.33-1.62
		c3.2-0.36,3.14-1.94,1.97-4.19c0.99-0.06,1.99-0.11,2.98-0.17c1.56,1.71,2.57,1.25,3.17-0.81c1.01-0.05,2.01-0.09,3.02-0.14
		c0.27,0.52,0.47,1.42,0.84,1.5c1.1,0.22,1.08-0.8,1.22-1.54c6.18-0.65,12.35,0.01,18.53,0.13c0.29,1.21,0.55,2.5,2.1,0.96
		c0.68,0.02,1.35,0.04,2.03,0.06C177.94,130.61,177.97,131.6,178,132.58z"/>
	<path class="st4" d="M144.03,129.63c1.17,2.25,1.23,3.83-1.97,4.19c-1.82,0.21-3.79,0.67-5.33,1.62
		c-3.96,2.45-8.34,4.42-7.53,10.77c0.33,2.6-0.06,6.24-3.85,8.09c-1.62,0.79-2.94,3.63-1.99,6.24c-0.77,0.44-1.01,1.15-1.03,1.97
		c-1.03,0.01-2.07,0.02-3.1,0.03c-1.56-2.66,1.67-4.7,0.94-7.25c1.18-2.74,1.48-5.49,0.03-8.24c0.36-1.37,0.71-2.74,1.07-4.11
		c3.8-1.53,6.33-4.17,7.2-8.26C133.65,133,138.84,131.31,144.03,129.63z"/>
	<path class="st6" d="M128.46,134.69c-0.86,4.09-3.39,6.73-7.2,8.26C120.68,137.59,124.67,136.23,128.46,134.69z"/>
	<path class="st6" d="M120.2,147.06c1.45,2.75,1.15,5.5-0.03,8.24C118.65,152.54,118.62,149.8,120.2,147.06z"/>
	<path class="st14" d="M178,132.58c-0.03-0.99-0.06-1.98-0.09-2.97c1.48-0.11,2.94-0.18,3.15,1.86
		C180.39,132.8,179.17,132.62,178,132.58z"/>
	<path class="st2" d="M119.23,162.55c1.03-0.01,2.07-0.02,3.1-0.03c0,0,0.5-0.01,0.5-0.01l0.5,0.05c-0.35,0.69-0.7,1.39-1.05,2.08
		c-0.67,0.01-1.34,0.02-2,0.02c-0.36-0.02-0.73-0.04-1.09-0.07C119.19,163.9,119.21,163.22,119.23,162.55z"/>
	<path class="st4" d="M150.18,128.65c-0.6,2.06-1.61,2.52-3.17,0.81C147.85,128.34,149.02,128.51,150.18,128.65z"/>
	<path class="st4" d="M155.25,128.47c-0.14,0.74-0.11,1.76-1.22,1.54c-0.36-0.07-0.56-0.97-0.84-1.5
		C153.88,128.5,154.57,128.48,155.25,128.47z"/>
	<path class="st4" d="M119.18,164.58c0.36,0.02,0.73,0.04,1.09,0.07c-0.02,0.66-0.04,1.33-0.06,1.99c-0.35,0-0.69,0-1.04,0
		c-0.33,0-0.66-0.01-1-0.03C118.21,165.79,118.38,165.03,119.18,164.58z"/>
	<path class="st14" d="M175.88,129.56c-1.55,1.53-1.81,0.25-2.1-0.96C174.66,128.53,175.44,128.69,175.88,129.56z"/>
	<path class="st6" d="M118.18,166.62c0.33,0.01,0.66,0.02,1,0.03c-0.34,0.34-0.69,0.69-1.03,1.03
		C118.16,167.32,118.17,166.97,118.18,166.62z"/>
	<path class="st10" d="M188.26,155.32c0.93,0.4,1.87,0.8,2.8,1.2c0.05,0.58,0.1,1.17,0.15,1.75c-1.66-0.35-3.32-0.7-4.99-1.05
		c-12.99-3.97-26.05-5.04-39.24-0.97c-2.07,0.29-4.34-0.68-6.17,1.03c-2.4,0.38-4.8,0.76-7.2,1.14c0-0.33,0-0.65,0.02-0.98
		c3.42-1.07,6.84-2.15,10.26-3.22c2.3,0.17,4.24-1.08,6.37-1.54c4.31-0.92,8.9-4.53,12.74-2.47c3.92,2.1,7.14,1.53,10.81,1.06
		c1.38,0.02,2.76,0.04,4.13,0.06c0.96,0.75,0.56,3.69,3.09,1.94C183.66,153.23,185.92,154.42,188.26,155.32z"/>
	<path class="st2" d="M186.22,157.22c1.66,0.35,3.32,0.7,4.99,1.05c2.36,1.87,3.14,4.45,3.29,7.31c-0.06,0.86,0.95,3.51,0.97,4.19
		c-5.64-2.53-11.53-4.27-17.59-5.47C180.29,161.5,184.72,161.08,186.22,157.22z"/>
	<path class="st1" d="M143.89,154.22c-3.42,1.07-6.84,2.15-10.26,3.22c0,0-0.02-0.16-0.02-0.16c0.34-1.69,0.69-3.38,1.03-5.07
		c0,0,0,0,0,0c6.66-0.29,10.79-4.91,14.71-9.3c1.74-1.95-0.17-6.98,5.57-5.5c1.69,0.44,1.15-2.35,1.37-3.76
		c2.06-0.33,4.13-0.67,6.19-1c1.26,3.77,6.44,3.55,7.41,3.28c6.1-1.7,6.69,3.23,7.89,6.26c1.27,3.23,2.87,5.46,5.94,6.86
		c2.65,1.21,4.63,3.02,4.54,6.28c-2.34-0.91-4.6-2.09-7.21-2.07c-0.18-1.45-0.41-3.03-1.92-3.56c-1.06-0.37-1,0.89-1.18,1.62
		c-1.38-0.02-2.76-0.04-4.13-0.06c-0.14-0.96,0.8-2.72-0.02-2.75c-3.61-0.14-6.19-4.77-9.72-2.94c-3.53,1.82-6.55,1.88-9.91,0.33
		c-1.39-0.64-2.45-0.7-3.46,0.81c-1.03,1.53-2.24,3.18-4.29,3.37C143.56,150.34,144.01,152.4,143.89,154.22z"/>
	<path class="st8" d="M116.07,160.55c-0.35-0.37-0.69-0.74-1.04-1.11C115.38,159.8,115.72,160.17,116.07,160.55z"/>
	<path class="st1" d="M186.22,157.22c-1.51,3.86-5.93,4.28-8.34,7.08c-2.84,0.64-5.48-0.59-8.22-0.9c-0.06-2.06-1.47-3.14-3.18-3.25
		c-2.01-0.13-2.73,1.51-2.94,3.32c-5.89,0.82-11.73,2.17-17.75,1.48c-0.49-3.02,3.86-5.38,1.19-8.7
		C160.17,152.18,173.24,153.25,186.22,157.22z"/>
	<path class="st2" d="M140.82,170.7c0.23,3.16-2.75,4.46-4.36,5.92c-4.13,3.76-2.6,10.23-7.24,13.48c-0.42,0.3-0.76,1.52-0.51,1.86
		c3.25,4.41-0.79,5.15-3.28,6.66c-0.09-0.14-0.3-0.33-0.26-0.41c2.37-5.78-4.22-12.39,1.73-17.97c0.82-0.77,0.38-2.88,0.52-4.36
		C130.89,171.59,136.13,171.87,140.82,170.7z"/>
	<path class="st1" d="M143.92,190.37c-2.28-0.68-4.48,2.05-6.92-0.02c-1.61-1.37-2.56-2.33-0.23-3.72c2.25-1.33,3.49-2.83,2.28-5.74
		c-0.54-1.31,0.48-3.75,2.01-3.39c7.54,1.78,6.66-4.06,7.8-8.14c0.39-0.28,0.79-0.56,1.19-0.84c0.85,2.29,3.25-0.79,4.18,1.21
		c-0.75,1.25-3.21,2.01-1.14,4.07c0.59,0.59,0.48,1.16-0.18,1.65C147.88,179.2,147.29,185.62,143.92,190.37z"/>
	<path class="st2" d="M133.62,158.41c2.4-0.38,4.8-0.76,7.2-1.14c1.18,2.52-0.1,6.09,3.27,7.67c-2.78,3.22-7.05,2.3-10.47,3.74
		c-2.48-1.91-5.69-3.32-5.15-7.35C129.97,159.99,132.39,160.26,133.62,158.41z"/>
	<path class="st2" d="M194.39,181.11c-3.1,0.18-2.96-4.41-6.1-4.17c-0.42-3.76-3.73-3.84-6.25-5.08c-2.36-1.16-6.23,1.1-7.19-3.15
		c0.91-0.03,1.72-0.25,2.16-1.15c6.3-0.74,11.37,2.22,16.34,5.47c0.2,1.36-0.38,2.93,1.1,3.93
		C194.43,178.34,194.41,179.73,194.39,181.11z"/>
	<path class="st4" d="M128.47,161.34c-0.54,4.03,2.67,5.44,5.15,7.35c-4.07,1.88-8.58,2.71-12.38,5.22
		c0.03-1.39-1.05-2.78,0.03-4.16c2.2-1.34,2.17-3.12,1-5.13c0.35-0.69,0.7-1.39,1.05-2.08
		C125.04,162.14,126.75,161.74,128.47,161.34z"/>
	<path class="st3" d="M144.08,164.95c-3.37-1.58-2.09-5.15-3.27-7.67c1.83-1.71,4.11-0.75,6.17-1.03c2.67,3.32-1.68,5.68-1.19,8.7
		C145.22,164.95,144.65,164.95,144.08,164.95z"/>
	<path class="st3" d="M154.24,169.73c-0.93-2-3.34,1.08-4.18-1.21c3.26-2.02,6.83-2.02,10.47-1.63c-0.28,1.82-1.32,2.79-3.19,2.84
		c-0.34-0.59-0.68-0.6-1.04-0.01C155.61,169.73,154.92,169.73,154.24,169.73z"/>
	<path class="st3" d="M177.01,167.56c-0.44,0.9-1.25,1.12-2.16,1.15c-0.86,0.02-1.62,0.23-2.06,1.07c-2.1-0.35-5.2,1.08-5.22-2.95
		C170.73,166.83,173.98,165.83,177.01,167.56z"/>
	<path class="st5" d="M163.54,163.47c0.21-1.8,0.94-3.45,2.94-3.32c1.71,0.11,3.12,1.19,3.18,3.25
		C167.63,163.43,165.59,163.45,163.54,163.47z"/>
	<path class="st6" d="M122.27,164.63c1.17,2,1.2,3.78-1,5.13c-0.35-1.04-0.71-2.07-1.06-3.11c0.02-0.66,0.04-1.33,0.06-1.99
		C120.94,164.64,121.61,164.63,122.27,164.63z"/>
	<path class="st2" d="M155.29,124.4c-0.35-0.36-0.7-0.73-1.05-1.09C154.59,123.67,154.94,124.04,155.29,124.4z"/>
	<path class="st1" d="M146.99,117.1c1.87-1.77,4.15-0.68,6.24-0.91C151.95,122,149.15,117.38,146.99,117.1z"/>
	<path class="st1" d="M172.79,169.78c0.44-0.84,1.2-1.05,2.06-1.07c0.96,4.25,4.83,1.99,7.19,3.15c2.51,1.24,5.82,1.32,6.25,5.08
		c1.32,3.45,0.23,7.15,1.25,10.72c0.59,2.06-1.58,0.05-2.3,0.64c-2.47,0.68-5.1-0.56-7.6,0.9c-0.88,0.51-3.25,0.1-1.5-1.97
		c2.46-2.93,0.38-3.55-1.83-4.41c-1.93-0.75-2.44-4.63-5.95-2.3c-0.98,0.65-1.52-1.8-1.92-3.05c-0.45-1.44,0.79-2.19,1.55-2.05
		C177.93,176.93,174.65,173.03,172.79,169.78z M174.37,177.63c-0.02,0.24-0.04,0.49-0.07,0.73c0.09-0.11,0.25-0.22,0.26-0.34
		C174.57,177.89,174.44,177.76,174.37,177.63z"/>
	<path class="st1" d="M156.3,169.73c0.35-0.59,0.7-0.58,1.04,0.01C156.99,169.74,156.64,169.73,156.3,169.73z"/>
	<path class="st1" d="M192.13,184.35c-0.13,0.03-0.33,0.13-0.37,0.09c-0.09-0.11-0.1-0.28-0.15-0.42c0.13-0.03,0.33-0.13,0.37-0.09
		C192.07,184.03,192.08,184.2,192.13,184.35z"/>
	<path class="st1" d="M139.8,194.8c-0.32,0.5-0.49,1.12-0.8,1.2c-0.81,0.21-1.14-0.45-1.05-1.11c0.05-0.35,0.5-0.85,0.82-0.88
		C139.06,193.97,139.41,194.47,139.8,194.8z"/>
	<path class="st1" d="M171.68,193.56c-0.31,0.31-0.62,0.61-0.93,0.92C171.05,194.18,171.37,193.87,171.68,193.56z"/>
	<path class="st3" d="M156.3,133.65c-0.21,1.41,0.33,4.19-1.37,3.76c-5.74-1.48-3.83,3.55-5.57,5.5c-3.92,4.39-8.06,9-14.71,9.3
		c3.13-3.68,6.86-6.94,8.28-11.81c0.43-1.47,1.62-1.57,2.85-1.6c1.27-0.04,2.73-0.4,2.89-1.66
		C149.33,131.61,153.07,133.27,156.3,133.65z"/>
	<path class="st5" d="M128.47,161.34c-1.72,0.4-3.43,0.8-5.15,1.21c0,0-0.5-0.05-0.5-0.05s-0.5,0.01-0.5,0.01
		c0.02-0.83,0.26-1.54,1.03-1.98c1.35-0.39,2.69-0.79,4.04-1.18c1.01-0.29,1.68-0.97,2.12-1.89c0.68-0.36,1.35-0.72,2.03-1.08
		c0.47,0.8,1.22,0.95,2.05,0.9c0,0,0.02,0.16,0.02,0.16c-0.01,0.33-0.02,0.65-0.01,0.98C132.39,160.26,129.97,159.99,128.47,161.34z
		"/>
	<path class="st3" d="M133.61,157.28c-0.84,0.05-1.59-0.1-2.05-0.9c0.34-1.9,0.64-3.83,3.09-4.18
		C134.3,153.9,133.95,155.59,133.61,157.28z"/>
	<path class="st3" d="M129.52,157.46c-0.44,0.93-1.11,1.6-2.12,1.89C127.75,158.32,126.8,155.82,129.52,157.46z"/>
	<path class="st5" d="M143.89,154.22c0.12-1.81-0.34-3.88,2.52-4.14c2.05-0.19,3.27-1.84,4.29-3.37c1.01-1.51,2.07-1.45,3.46-0.81
		c3.35,1.55,6.38,1.49,9.91-0.33c3.54-1.83,6.11,2.81,9.72,2.94c0.82,0.03-0.12,1.79,0.02,2.75c-3.67,0.48-6.89,1.04-10.81-1.06
		c-3.85-2.06-8.44,1.55-12.74,2.47C148.14,153.13,146.19,154.39,143.89,154.22z"/>
	<path class="st5" d="M177.95,151.32c0.17-0.73,0.12-1.99,1.18-1.62c1.5,0.52,1.74,2.11,1.92,3.56
		C178.51,155.01,178.92,152.07,177.95,151.32z"/>
	<path class="st5" d="M174.37,177.63c0.07,0.13,0.2,0.27,0.19,0.39c-0.01,0.12-0.17,0.23-0.26,0.34
		C174.32,178.11,174.35,177.87,174.37,177.63z"/>
	<g id="Base_1_">
		<path class="st16" d="M0,0v300h300V0H0z M292.5,292.5H7.5V7.5h285V292.5z"/>
	</g>
</g>
</svg>
