<?xml version="1.0" encoding="utf-8"?>
<!-- Generator: Adobe Illustrator 23.0.1, SVG Export Plug-In . SVG Version: 6.00 Build 0)  -->
<svg version="1.1" xmlns="http://www.w3.org/2000/svg" xmlns:xlink="http://www.w3.org/1999/xlink" x="0px" y="0px"
	 viewBox="0 0 300 300" style="enable-background:new 0 0 300 300;" xml:space="preserve">
<style type="text/css">
	.st0{fill:#424242;}
	.st1{fill:#34302C;}
	.st2{fill:#807A74;}
	.st3{fill:#38322E;}
	.st4{fill:#57534C;}
	.st5{fill:#B3AEA7;}
	.st6{fill:#2A2929;}
	.st7{fill:#3D3833;}
	.st8{fill:#121212;}
	.st9{fill:#232323;}
	.st10{fill:#1A1A1A;}
	.st11{fill:#44403B;}
	.st12{fill:#151515;}
	.st13{fill:#0B0B0B;}
	.st14{fill:#080808;}
	.st15{fill:#0F0F0F;}
	.st16{fill:#9E9E9E;}
</style>
<g id="background">
	<rect x="4" y="4" class="st0" width="291" height="291"/>
</g>
<g id="Layer_1">
	<path class="st1" d="M218.49,254.73c-2.87,1.46-5.98,0.81-9,1.02c-4.47,0.04-8.94,0.08-13.42,0.13c-0.38-0.42-0.4-2.03-0.03-2.41
		c3.64-0.46,7.23-1.39,10.96-1.08c1.19,0.1,3.35,0.3,3.12-1.29c-0.67-4.6,2.62-3.11,4.55-3.14c8.73-0.13,17.46-0.06,26.19-0.06
		c1.13-0.14,2.04-0.59,2.44-1.75c1.06-0.16,2.13-0.31,3.19-0.47c0.78,3.89-3.3,2.71-4.62,4.41c-1.09,0.03-2.18,0.06-3.27,0.09
		C231.55,250.14,224.15,248.58,218.49,254.73z"/>
	<path class="st2" d="M246.5,245.68c-1.06,0.16-2.13,0.31-3.19,0.46c-0.44-0.55-0.89-1.09-1.33-1.63c1.78-1.98,1.52-3.22-1.32-3.15
		c-1.39,0.03-2.77,0.53-4.16,0.82c-0.46-1.19,1.24-3.06-0.28-3.55c-6.38-2.03-4.56-7.48-5.33-11.87c6.32,0.75,9.53,5.57,13.04,9.99
		C245.12,239.62,246.93,242.33,246.5,245.68z"/>
	<path class="st3" d="M224.12,132.4c-0.01,5.64-0.02,11.27-0.03,16.91c-0.03,3.34-0.05,6.67-0.08,10.01
		c-1.68-1.47-0.85-3.47-1.08-5.24c-0.15-1.12-0.89-2.9-1.72-1.85c-2.21,2.78-8.13,3.19-6.11,8.75c0.46,1.26,0.05,1.65-0.85,2.11
		c-1.25,0.64-2.26,0.4-2.41-1.08c-0.41-3.97-2.93-1.31-4.54-1.53c-0.01-0.75-0.03-1.49-0.04-2.24c0-0.37,0-0.75,0-1.12
		c0-0.75-0.01-1.5-0.01-2.25c0.01-2.98,0.02-5.96,0.03-8.95c-0.02-1.65,0.42-3.5-0.94-4.78c-4-3.77-5.79-9.02-9.05-13.27
		c-1.25-5.13-1.03-10.37-1.24-15.58c0.01-1.29,0.04-2.58,0.03-3.86c-0.03-2.22,0.08-4.95-2.27-5.73c-2.25-0.75-4.92,0.27-6.41,2.2
		c-3.57,4.59-6.46,9.61-8.17,15.23l0.04-0.02c-0.42,0.39-0.83,0.77-1.25,1.16c-1.56,1.46-2.22,3.27-2.17,5.38
		c0.01,0.44,0.02,0.88,0.03,1.33c0,0,0.01-0.02,0.01-0.02c-0.38-0.01-0.75-0.01-1.13-0.02c-2.79,1.92-2.98,4.93-3.29,7.88
		c-1.62,3.29-3.75,5.85-7.88,5.62l-0.01-0.01c-0.43-0.42-0.85-0.83-1.28-1.25c0.04-0.31,0.07-0.61,0.09-0.92
		c0.78-0.48,0.83-0.86-0.14-1.12c-0.3-0.37-0.61-0.74-0.91-1.12c0.04-0.45,0.08-0.89,0.12-1.34c0.56-0.27,1.54-0.47,1.59-0.81
		c0.17-1.18-0.87-1.18-1.71-1.28l0.01,0.01c-1.12-4.05-4.49-1.52-6.73-2.31c0-0.76-0.01-1.51-0.01-2.27
		c1.1-1.46,2.64-1.28,3.95-0.67c2.37,1.1,3.37,0.04,3.95-2.06c0.84-1.29,1.22-2.77-0.89-2.69c-5.71,0.22-11.53-1.15-17.13,1.01
		c-1.18-0.73-1.05-1.92-1.09-3.05c0.71-2.01-0.85-1.42-1.66-1.32c-1.86,0.22-2.75,1.43-2.8,3.28l0.03-0.03
		c-0.96-0.02-1.81,0.2-2.28,1.15c0,0,0.04-0.03,0.04-0.03c-0.75,0.01-1.5,0.03-2.25,0.04c-9.77-2.19-14.72-10.67-19.17-17.78
		c-2.77-4.43-6.14-5.06-9.4-6.56c-3.02-1.39-3.83,3.39-6.3,4.6c-0.25,0.12,1.49,1.23,2.39,1.78c0,3.91-0.16,7.84,0.03,11.74
		c0.38,7.85-0.82,15.31-6.06,21.41c-3.85,4.49-4.47,9.51-4.08,15.02c0.18,2.6,0.03,5.22,0.04,7.83c-0.8,0.4-0.75,0.8,0.02,1.17
		c0.02,0.36,0.02,0.72-0.01,1.07c-1.81,2.73-1.28,6.36-3.41,8.97c-2.52,2.64-4.37,6.44-9.25,4.62c-1.35-0.5-1.96,1.45-3.04,2.08
		c-0.01-2.01,0.08-4.03-0.07-6.03c-0.25-3.31-0.1-15.44,0.03-18.6c0.01-2.28-1.06-15.7-1.06-20.22c1.37,0.01,2.09-0.74,2.35-2.03
		c1.36-0.84,2.71-1.67,4.07-2.51c0.44-0.35,0.88-0.7,1.32-1.05l-0.04-0.09c8.03,0.24,1.56-10.7,8.64-11.22
		c0.56-0.04,0.56-0.35,0.17-0.78c-2.98-3.23,0.52-7.24-1.3-10.7c-1.78-3.38,0.44-5.5,3.04-6.9c2.25-1.21,4.84-1.8,7.72-1.8
		c-0.57-1.4-2.8-0.89-2.61-3.38c5.8,2.72,5.75-5.08,10.19-5.44c6.06,2.08,12.1,4.23,18.2,6.21c5.72,1.86,7.25,2.64,8.68,4.98
		c0.01,1.87,0.02,3.75,0.03,5.62c-0.77,0.41-0.69,0.79,0.03,1.15c0.03,0.3,0.04,0.59,0.02,0.89c-0.22,4.95,3.11,6.22,6.83,5.41
		c3.88-0.84,7.68-0.43,11.5-0.74c2.12-0.17,4.46,0.8,6.27-1.11l-0.01,0.01c1.46-0.17,3.27-0.34,3.57-1.88
		c0.25-1.25-1.4-1.36-2.48-1.51c-0.03-5.59,0.06-13.82,0.03-19.41c-0.01-0.68,2.13,0.59,3.27,0.58c0.16,3.04,1.69,4.21,4.71,3.67
		c1.79-0.32,3.63-0.37,5.45-0.53l0.02,0.02c2.42,0.73,10.46-3.52,11.52-6.54c0.77-2.19,3.22-4.48,0.65-7.06
		c0.29-1.83,1.59-3.45,1.16-5.44c-0.3-8.22-3.2-15.82-5.55-23.56c-0.2-0.93-1.19-1.8-0.21-2.82c1.59-0.43,3.15-0.35,4.68,0.23
		c0.84,2.45,0.31,6.24,3.53,6.65c2.84,0.37,3.65-2.85,4.44-5.24c2.33,2.31,2.66,5.99,5.5,7.95c1.38,1.53-0.9,2.69-0.17,4.94
		c1.58,4.84,5.2,8.26,7.01,12.8c0.58,1.46,0.21,4.4,3.12,4.56c0.02,1.51,0.05,3.03,0.07,4.54c-1.9,0.36-3.83,0.71-2.17,3.36
		c0,0.75,0,1.5,0.01,2.24c-0.08,0.15-0.17,0.3-0.25,0.45c0.08-0.15,0.17-0.3,0.25-0.44c2.43,2.05-0.02,5.36,2.24,8.19
		c0-3.17,0-5.68,0-8.2c2.47,4.69,0.5,9.73,1.12,14.56c-0.13,5.38,1.78,10.47,2.25,15.76c1.49,8.49,3.06,10.32,9.5,11.1
		C223.69,131.68,223.9,132.04,224.12,132.4z M201.65,92.13c0.15,0.08,0.3,0.16,0.45,0.25C201.95,92.3,201.8,92.22,201.65,92.13
		c2.48-1.85,3.12-4.79,3.04-7.37c-0.1-3-1.8-5.79-5.42-6c-3.31-0.19-6.72-0.51-8.11,3.89c-1.08,3.43-0.92,5.82,2.51,7.99
		C196.32,92.33,198.94,91.98,201.65,92.13z M133.4,116.67c-0.51,0.23-0.94,0.44-1.38,0.64c0.56,0.38,1.09,0.86,1.71,1.06
		c0.2,0.07,0.64-0.61,0.98-0.95C134.29,117.18,133.87,116.94,133.4,116.67z M112.83,98.23c-0.13,0.3-0.26,0.6-0.39,0.9
		c0.3,0.13,0.67,0.43,0.89,0.34c0.21-0.08,0.28-0.55,0.41-0.85C113.43,98.49,113.13,98.35,112.83,98.23z M130.24,100.42
		c-0.15-0.05-0.3-0.11-0.45-0.16c-0.05,0.13-0.16,0.34-0.13,0.38c0.11,0.1,0.28,0.12,0.43,0.17
		C130.14,100.68,130.19,100.55,130.24,100.42z"/>
	<path class="st4" d="M223.48,131.32c-6.44-0.78-8.01-2.62-9.5-11.1C218.07,123.13,220.81,127.2,223.48,131.32z"/>
	<path class="st5" d="M187.03,48.08c-1.54-0.58-3.1-0.66-4.68-0.23c-0.44-0.27-0.88-0.53-1.33-0.8c-2.46-4.82,1.14-4.28,3.94-4.46
		c3.97,0.44,8.45-0.71,11.24,3.52c-0.8,0.42-1.61,0.83-2.41,1.25C191.53,47.52,189.2,46.99,187.03,48.08z"/>
	<path class="st6" d="M81.77,253.51c-4.49,0.01-8.98,0.03-13.47,0.04c-0.37-0.03-0.74-0.05-1.11-0.06c0-0.75,0.01-1.51,0.01-2.26
		c0,0-0.02,0.02-0.02,0.02c0.93-0.04,1.79-0.23,2.27-1.16l-0.05,0.03c8.64,0.84,17.25,1.13,25.76-1.05
		c0.38,0.36,0.76,0.71,1.13,1.07c-0.03,2.2-1.29,2.97-3.33,3.37c-2.93,0.58,0.29,1.43,0.03,2.18l-0.06,0.09
		C89.12,255.42,85.89,252.3,81.77,253.51z"/>
	<path class="st7" d="M60.63,250.16c1.41-0.69,3.1-4.24,3.68-4.68l0.49-0.08c0.87,2.08,2.57,2.64,4.64,2.48
		c-0.01,0.74-0.03,1.49-0.04,2.23c0,0,0.05-0.03,0.05-0.03c-0.93,0.05-1.75,0.3-2.27,1.16c0,0,0.02-0.02,0.02-0.02
		c-2.21-0.05-4.42-0.1-6.63-0.15C60.56,250.77,60.58,250.47,60.63,250.16z"/>
	<path class="st8" d="M60.56,251.08c2.21,0.05,4.42,0.1,6.63,0.15c0,0.75-0.01,1.51-0.01,2.26
		C64.98,252.67,61.48,255.44,60.56,251.08z"/>
	<path class="st1" d="M122,250.09c0.02,0.38-1.38,1.18-2.1,1.2c-6.16-1.95-11.25-5.9-16.8-9.01c0.37-0.72,0.74-1.45,1.11-2.17
		c0.73-0.02,1.46-0.05,2.19-0.07C112.34,242.24,117.03,246.37,122,250.09z"/>
	<path class="st6" d="M113.14,257.99c-4.49,0-8.97,0-13.46,0c-2.41-0.25-5.24,0.79-6.76-2.2c0,0,0.06-0.09,0.06-0.09
		c7.15-0.08,14.39,0.65,21.26-2.21c1.12,0.37,2.24,0.75,3.36,1.12C118.01,258.24,115.5,258.02,113.14,257.99z"/>
	<path class="st9" d="M117.61,254.61c-1.12-0.37-2.24-0.75-3.36-1.12c-4.11-2.99-8.22-5.97-12.33-8.96
		c0.04-0.94,0.25-1.78,1.19-2.25c5.54,3.11,10.63,7.06,16.8,9.01C119.14,252.4,118.37,253.5,117.61,254.61z"/>
	<path class="st8" d="M227.43,185.09c5.43,4.4,8.17,24.65,7.71,23.52c-0.86-4.94-3.77-7.22-8.78-6.78c-0.38-2.36-1.02-4.72-1.08-7.1
		c-0.08-3.14-2.03-1.71-3.45-1.71c-4.42-1.04-8.93,0.88-13.64-0.46c4.14-2.82,8.62-1.56,12.86-1.83c2.35-0.15,2.36-0.1,3.03-2.25
		C224.9,187.06,227.62,187.51,227.43,185.09z"/>
	<path class="st1" d="M225.23,222.15c0.2,1.82-0.6,3.78,0.79,5.42c-0.26,0.43-0.52,0.86-0.78,1.3c-0.4-0.01-0.8-0.02-1.19-0.03
		c-0.75,0.01-1.5,0.02-2.25,0.03c-4.47-0.02-8.94-0.03-13.41-0.05c-1.48,0.35-2.97,0.7-4.45,1.05c-0.2-0.78-0.25-1.85-1.38-1.6
		c-0.41,0.09-0.64,1.02-0.95,1.57c-2.19,0-4.38,0-6.57,0.01c-0.02-0.73-0.04-1.45-0.06-2.18c-0.01-1.48-0.02-2.96-0.03-4.43
		c0.01-0.74,0.01-1.48,0.02-2.22c2.67-0.44,4.75-3.23,7.75-2.18c4.98,1.74,9.71,0.5,14.62-0.48
		C220.41,217.73,224.52,216.94,225.23,222.15z"/>
	<path class="st9" d="M225.23,222.15c-0.71-5.21-4.82-4.42-7.92-3.8c-4.91,0.98-9.64,2.22-14.62,0.48c-3-1.05-5.08,1.74-7.75,2.18
		c-0.02-7.85-0.02-7.85,7.74-7.85c1.86,0,3.75,0.2,5.58-0.04c5.86-0.76,11.72,1.56,17.57,0c2.19,6.05,6.24,7.35,10.55,3.39
		C237.68,215.94,227.96,221.86,225.23,222.15z"/>
	<path class="st4" d="M225.24,228.87c0.26-0.43,0.52-0.86,0.78-1.3c1.42-1.47,3.17-0.96,4.86-0.81c0.77,4.39-1.05,9.84,5.33,11.87
		c1.52,0.48-0.17,2.36,0.28,3.55c-0.79,0.04-1.58,0.08-2.37,0.12c-0.18-1.29-0.8-2.11-2.21-2.11c-3.78-1.12-5.56-3.68-5.71-7.6
		C226.17,231.34,225.58,230.11,225.24,228.87z"/>
	<path class="st5" d="M97.65,50.61c0.32-0.72,0.63-1.45,0.95-2.17c1.98-1,2.82-3.76,5.56-3.57c3.65,0.1,7.3,0.2,10.96,0.31
		c-0.02,0.45-0.04,0.9-0.06,1.36c-0.73,0.91-1.46,1.83-2.19,2.74C107.79,49.67,102.64,49.26,97.65,50.61z"/>
	<path class="st4" d="M201.54,57.36c-0.35,0.03-0.7,0.05-1.04,0.08c-2.84-1.96-3.17-5.64-5.5-7.95c0,0-0.04,0.02-0.04,0.02
		c-0.38-0.37-0.77-0.73-1.15-1.1c-0.02-0.35-0.02-0.71-0.02-1.06c0.8-0.42,1.61-0.83,2.41-1.25
		C196.52,46.11,201.56,53.06,201.54,57.36z"/>
	<path class="st8" d="M231.92,240.19c1.41,0,2.03,0.82,2.21,2.11c0.06,2.1,1.86,2.53,3.24,3.36c1.16,0.75,2.33,1.49,3.49,2.24
		c-8.73,0-17.46-0.08-26.19,0.06c-1.93,0.03-5.23-1.46-4.55,3.14c0.23,1.59-1.93,1.39-3.12,1.29c-3.73-0.31-7.32,0.62-10.96,1.08
		c-0.01-1.08-0.02-2.16-0.03-3.24c5.63-1.37,9.39-4.82,11.4-10.22c0.88,0,1.64-0.25,2.09-1.09c1.86-0.01,3.54,0.65,5.31,1.13
		c4.06,1.12,8.17,3.88,12.61,1.07C228.97,241.02,230.65,241.59,231.92,240.19z"/>
	<path class="st10" d="M194.96,227.67c0.02,0.73,0.04,1.45,0.06,2.18c-9.66,1.12-19.37,1.5-29.11,1.56
		c4.68,1.92,9.81-0.68,14.39,1.75c0.02,0.43,0.04,0.86,0.06,1.28c-5.88,2.33-12,0.58-17.98,1.07c-0.91-2.67-2.88-1.03-4.43-1.08
		c0.2-2.7-1.26-3.43-3.7-3.38c-5.11,0.09-10.23,0.02-15.34,0.02c2.77-3.84,8.31-0.65,11.13-4.38c0.79-0.02,1.57-0.03,2.36-0.05
		c0.81,0.35,1.59,0.77,2.42,1.03c7.77,2.46,15.55-0.22,23.33,0.06c1.17,1.6,2.88,0.95,4.4,1.05
		C186.55,226.81,190.83,228.08,194.96,227.67z"/>
	<path class="st10" d="M197.2,244.52c-1.83-3.2-7.02-4.89-4.54-10.05c1.89,0.02,3.78,0.03,5.67,0.05c2.07,2.67,5.15,1.77,7.84,2.2
		C203.73,239.95,201.04,242.89,197.2,244.52z"/>
	<path class="st1" d="M197.2,244.52c3.84-1.62,6.53-4.57,8.98-7.79c1.37,0.73,0.94,2.13,1.23,3.27c-2.01,5.4-5.77,8.85-11.4,10.22
		C195.89,248.21,196.01,246.25,197.2,244.52z"/>
	<path class="st7" d="M198.34,234.52c-1.89-0.02-3.78-0.03-5.67-0.05c-4.1-0.01-8.2-0.02-12.3-0.03c-0.02-0.43-0.04-0.86-0.06-1.28
		c7.64-1.41,15.25-1.18,24.07-0.45C201.7,234.95,199.93,234.24,198.34,234.52z"/>
	<path class="st6" d="M157.95,234.43c1.55,0.06,3.52-1.58,4.43,1.08c-7.04,0.05-14.08,0.1-21.13,0.15c-0.4-0.01-0.81-0.02-1.21-0.04
		c-2.48-1.24-5.56-0.45-7.86-2.31c2.23-0.03,4.46-0.05,6.7-0.08C145.24,233.64,151.59,234.03,157.95,234.43z"/>
	<path class="st4" d="M240.86,247.89c-1.17-0.75-2.33-1.49-3.49-2.24c1.53-0.38,3.07-0.76,4.6-1.15c0.44,0.54,0.89,1.08,1.33,1.63
		C242.9,247.31,242,247.76,240.86,247.89z"/>
	<path class="st7" d="M241.97,244.51c-1.53,0.38-3.07,0.76-4.6,1.15c-1.38-0.83-3.18-1.26-3.24-3.36c0.79-0.04,1.58-0.08,2.37-0.12
		c1.39-0.29,2.77-0.78,4.16-0.82C243.49,241.29,243.75,242.53,241.97,244.51z"/>
	<path class="st1" d="M108.63,89.89c-4.44,0.36-4.39,8.16-10.19,5.44c-0.19,2.49,2.03,1.98,2.61,3.38c-2.88-0.01-5.47,0.58-7.72,1.8
		c-2.6,1.4-4.82,3.53-3.04,6.9c1.82,3.46-1.68,7.47,1.3,10.7c0.39,0.42,0.4,0.73-0.17,0.78c-7.08,0.52-0.61,11.46-8.64,11.23
		c0.03-1.49,0.07-2.98,0.1-4.48c1.52-3.57,2.54-33.83,2.4-36.82c3.03,0.25,4.3-2.06,4.87-4.2c0.46-1.73-1.68-1.25-2.82-1.46
		c0-0.73,0-1.46,0-2.19c0.37-0.43,0.74-0.86,1.11-1.28c-0.01-0.33,0-0.65,0.02-0.98c1.44-0.06,2.2-0.8,2.27-2.25
		c0.89-0.51,1.09-1.35,1.1-2.28l-0.01,0.03c1.49-1.13,2.1-2.7,2.26-4.51l-0.02,0.02c1.8-1.93,3.65-3.83,3.39-6.78
		c-0.35-2.64-0.81-5.33,3.44-4.47c0.82,0.16,1.31-0.15,0.84-1.25c-1.3-3.06,1.6-3.66,3.12-3.83c3.02-0.32,5.47-1.9,8.21-2.76
		c-0.92,2.62-1.83,5.21-2.28,8.01c-0.89,5.6-2.18,11.13-3.31,16.69c-4.26-1.87-3.44,0.79-2.7,3.13
		C105.98,82.29,107.33,86.08,108.63,89.89z"/>
	<path class="st11" d="M89.5,69.7c0.79-2.6,5.05-15.93,8.15-19.1c4.99-1.35,10.14-0.94,15.22-1.34c0.06,0.45,0.13,0.91,0.19,1.36
		c-2.74,0.86-5.19,2.44-8.21,2.76c-1.52,0.16-4.42,0.76-3.12,3.83c0.47,1.1-0.02,1.41-0.84,1.25c-4.26-0.85-3.79,1.83-3.44,4.47
		c-1.32,2.17-4.64,3.33-3.39,6.78c0,0,0.02-0.02,0.02-0.02c-2.01,0.87-2.35,2.58-2.26,4.51c0,0,0.01-0.03,0.01-0.03
		c-1.07,0.44-1.82,1.2-2.24,2.27c-0.38,0.75-0.75,1.5-1.13,2.25c-0.02,0.33-0.03,0.65-0.02,0.98c-0.37,0.43-0.74,0.86-1.11,1.28
		c0,0.73,0,1.46,0,2.19c-0.4,0.39-0.8,0.78-1.2,1.17C86.1,83.43,89.17,70.11,89.5,69.7z"/>
	<path class="st6" d="M86.13,84.32c0.4-0.39,0.8-0.78,1.2-1.17c1.14,0.2,3.28-0.27,2.82,1.46c-0.57,2.14-1.85,4.45-4.87,4.2
		C85.2,87.24,84.69,85.6,86.13,84.32z"/>
	<path class="st1" d="M224.1,166.03c3.03,5.45,2.06,11.17,1.09,16.88c-0.53,5.98-5.25,2.21-7.85,3.37
		c-0.23-0.73,2.77-2.67-0.13-1.98c-3.53,0.83-6.91,2.06-10.62,2.2c-1.68,0.06-1.47,1.83-1.54,3.1c-0.38,0.01-0.76,0.01-1.14,0.02
		c-2.81-3.14-6.82-0.47-9.95-2.06c-2.98-3.44-5.37-3.4-6.84,0.28c-0.5,1.25-1,2.3-2.21,2.92c-0.77,0-1.53-0.01-2.3-0.01
		c0.01-2.24,0.01-4.48,0.02-6.72c2.16-0.56,3.75-3.2,6.76-0.7c1.21,1.01,4.82-0.28,4.36-3.85l0.05,0.05
		c1.32-0.87,0.91-1.67-0.11-2.44c-0.06-0.24-0.05-0.48,0.03-0.72c1.4-1.24,2.15-2.81,2.32-4.66c0.76-0.02,1.52-0.05,2.29-0.07
		c3.81,3.97,6.68-0.61,10.01-1.09c2.12-0.94,3.89-1.54,5.78,0.95c0.97,1.28,3.7,2.84,5.15,0.82c1.28-1.78-1.2-2.38-2.46-3.39
		c-2.08-1.66-2.93-6.13-6.84-2.37c-0.5-0.53-1.01-1.06-1.51-1.58c-0.12-1.23,0.07-2.57-1.16-3.43c-0.01-0.35-0.01-0.71,0-1.06
		c1.6,0.22,4.13-2.44,4.54,1.53c0.15,1.48,1.16,1.72,2.41,1.08c0.9-0.46,1.3-0.84,0.85-2.11c-2.02-5.56,3.91-5.97,6.11-8.75
		c0.83-1.05,1.57,0.73,1.72,1.85c0.23,1.77-0.6,3.77,1.08,5.24C224.04,161.56,224.07,163.79,224.1,166.03z"/>
	<path class="st12" d="M196.03,112.3c0.21,5.21,0,10.45,1.24,15.58c-1.65,1.28-1.49,2.95-0.66,4.47
		c2.79,5.11,5.01,10.69,10.65,13.57c-0.01,2.98-0.02,5.96-0.02,8.95c-5.8-1.56-10.72,0.95-15.67,3.37c-0.05-0.33-0.1-0.66-0.14-0.99
		c0.5-4.75-2.62-4.4-5.73-4.07c-0.33-0.1-0.62-0.27-0.88-0.5c0.06-11.97,0.21-23.94-1.13-35.87
		C187.48,114.41,189.98,108.51,196.03,112.3z"/>
	<path class="st7" d="M154.57,129.03c0,0.76,0.01,1.51,0.01,2.27c-0.87,0.22-2.25,0.18-2.5,0.7c-0.84,1.7,1.01,1.32,1.76,1.85
		c2.57,1.81,4.97-0.75,7.47-0.24c0,0-0.01-0.01-0.01-0.01c0.04,0.7,0.08,1.4,0.11,2.09c-0.04,0.45-0.08,0.89-0.11,1.34
		c-2.64,0.05-5.1,0.6-7.74,2.42c3.29,1.43,6.03,0.7,8.72,0.74c0.43,0.42,0.85,0.83,1.28,1.25c-0.08,0.15-0.16,0.3-0.24,0.45
		c0.08-0.15,0.17-0.3,0.25-0.45c4.13,0.23,6.26-2.33,7.88-5.62c0.72,1.14,1.45,2.28,2.18,3.41c0.01,1.01,0.02,2.02,0.04,3.03
		c0.16,0.84,0.69,1.29,1.53,1.39c0.32,0.14,0.57,0.37,0.73,0.68c0.04,0.75,0.31,1.33,1.1,1.55c0,0,0.04,0.03,0.04,0.03
		c0,1.12,0,2.24-0.01,3.35c-0.76,1.12-1.52,2.24-2.28,3.35c1.48,0.75,2.96,1.5,4.44,2.24c0.95-0.01,1.8-0.24,2.3-1.16
		c0.38,0.38,0.76,0.76,1.14,1.14c-0.39,1.12-0.77,2.24-1.16,3.35c0.38,0.39,0.76,0.78,1.14,1.17c0,0,0-0.02,0-0.02
		c-2.24,2.55-4.51-0.83-6.75,0.03c-0.06-0.33-0.1-0.67-0.11-1.01c-0.85-5.23-3.2-8.33-9.22-7.36c-6.71,1.08-13.52,0.62-20.29,0.49
		c-2.58-0.05-5.41,0.16-6.21-3.32c1.91-0.45,5.25,1.26,5.28-2.07c0.03-3.48-3.17-0.36-4.62-1.36c-0.58-0.4-1.22-0.72-1.84-1.07
		c1.44-2.84,0.57-7.42,5.96-7.33c1.05,0.02,2.21-2.14,1.2-3.7c-0.98-1.51-2.4-1.33-3.92-0.49c-1.94,1.06-3.07,3.28-5.43,3.69
		c-0.04-2.69,0.65-5.5-1.16-7.93c0.39-1.09,0.79-2.19,1.18-3.28c0,0-0.04,0.03-0.04,0.03c0.95-0.01,1.8-0.22,2.28-1.15
		c0,0-0.03,0.03-0.03,0.03c1.86,0.2,2.83-1.64,4.46-1.96c0.04,1.13-0.09,2.33,1.09,3.05c0.02,0.74,0.04,1.49,0.06,2.23
		C147.05,131.31,151.23,128.22,154.57,129.03z"/>
	<path class="st7" d="M88.48,173.92c2.13-2.61,1.6-6.24,3.41-8.97c2.18,2.19-0.33,5.68,2.17,7.78c4.84-0.58,9.32-1.61,11.21-7.02
		c0.41-1.16,1.79-1.81,3.16-1.98c5.17-0.72,6.18-5.18,8.02-8.9c0,0-0.01,0.02-0.01,0.02c0.95,0.03,1.78-0.2,2.29-1.08
		c1.32-0.27,2.84-0.21,3.48-2.25c-1.3,0-2.4,0-3.5,0c0.13-2.1,1.3-3.17,3.35-3.39c1.18,1.63,2.93,1.01,4.49,1.14
		c0.76,0.75,1.51,1.51,2.27,2.26c-1.74,1.58-6.74,2.49-1.15,5.58c-4.22,4.73-8.33,9.57-13.35,13.5c-3.78-0.31-5.13,4.52-9.59,3.54
		c1.47,1.08,2.18,1.61,2.9,2.13c-0.02,0.76-0.03,1.51-0.05,2.27c-0.37-0.01-0.75-0.03-1.12-0.04c-1.7-1.8-2.04-0.47-2.32,1
		c-1.1,0-2.21-0.01-3.31-0.01C98.35,174.05,92.8,175.33,88.48,173.92z"/>
	<path class="st1" d="M135.5,127.91c1.81,2.44,1.12,5.24,1.16,7.93c0.01,0.37,0.01,0.74,0,1.11c-1.55-0.13-3.3,0.5-4.49-1.11
		c0.37-0.37,0.75-0.75,1.12-1.12c0.08-0.15,0.16-0.3,0.25-0.45c-0.08,0.15-0.16,0.3-0.25,0.45c-0.37,0.37-0.75,0.75-1.12,1.12
		c-3.13,1.1-1.17,3.49-0.39,4.21c4.16,3.87,0.99,3.6-1.86,3.66c-0.76-1.2-1.52-2.39-2.28-3.59c0.01-0.66,0.01-1.32,0.02-1.98
		c0.15-0.11,0.43-0.25,0.41-0.32c-0.07-0.29-0.22-0.56-0.35-0.84c-0.37,0-0.75-0.01-1.12-0.01c0.08-1.87,0.03-3.72-1-5.38
		c-4.77-7.7-9.57-15.38-14.29-23.11c-0.91-1.49-2.15-1.9-3.73-1.82l0.01-0.01c-0.27-1.44-0.61-2.72-2.31-1.07
		c-1.11,0.38-2.21,0.77-3.32,1.15c-0.9-0.54-2.65-1.65-2.39-1.78c2.47-1.21,3.28-5.99,6.3-4.6c3.26,1.5,6.63,2.13,9.4,6.56
		c4.45,7.1,9.39,15.59,19.17,17.78C134.47,125.85,134.21,127.14,135.5,127.91z"/>
	<path class="st13" d="M161.28,108.93c-3.36,2.57-6.69-0.99-10.05-0.04c0-0.36,0.08-0.75-0.02-1.09c-0.58-2.17,1.54-6.09-2-6.18
		c-3.55-0.09-2.12,3.83-2.46,6.15c-0.05,0.36-0.01,0.73-0.01,1.09c-1.49,0-2.98,0.01-4.46,0.01c-0.83-2.09-0.85-4.29-0.45-6.4
		c0.98-5.26-1.73-6.43-6.17-5.87c0.1-1.85,0.19-3.69,0.28-5.54c0.61-0.02,1.23-0.03,1.85-0.05c2.64,3.14,5.97,0.8,8.96,1.12
		c3.46,3.56,4.36,0.24,5.62-2.1c0.74-0.04,8.21-0.47,8.95-0.51C162.43,93.49,161.25,103.34,161.28,108.93z"/>
	<path class="st14" d="M101.96,106.71c1.11-0.38,2.21-0.77,3.32-1.15c0.51,0.91,1.35,1.12,2.31,1.07c0,0-0.01,0.01-0.01,0.01
		c0.28,1.04,1.29,2.1,0.57,3.14c-4.14,6.01-2.42,12.84-2.91,19.38c-0.45,5.95-1.69,11.91-6.26,16.08c-3.09,2.82-4.29,5.75-3.73,9.67
		c0,1.1,0,2.2,0.01,3.3c0,0.77,0,1.53,0,2.3c0,0.73-0.01,1.46-0.01,2.19c0,0.76,0,1.53,0.01,2.29c-0.15,2.62,0.44,5.35-1.2,7.74
		c-2.5-2.1,0.02-5.6-2.17-7.78c0.03-0.36,0.04-0.71,0.01-1.07c-0.01-0.39-0.01-0.78-0.02-1.17c0-2.61,0.15-5.23-0.04-7.83
		c-0.39-5.51,0.23-10.53,4.08-15.02c5.24-6.1,6.44-13.56,6.06-21.41C101.8,114.54,101.96,110.62,101.96,106.71z"/>
	<path class="st9" d="M173.64,142.27c-0.01-1.01-0.02-2.02-0.04-3.03c3.21-2.82,0.14-7.06,2.27-10.12
		c-0.01-0.39-0.02-0.77-0.03-1.16c0,0-0.01,0.02-0.01,0.02c0.96-0.46,0.56-0.9-0.03-1.33c-0.05-2.1,0.61-3.92,2.17-5.38
		c0.42-0.39,0.83-0.77,1.25-1.16c0,0-0.04,0.02-0.04,0.02c2.43,0.15,2.55-2.82,4.5-3.32c1.34,11.92,1.19,23.9,1.13,35.87
		c-3.03-1.76-3.99-5.89-7.78-6.77c0,0-0.04-0.03-0.04-0.03c-0.37-0.52-0.73-1.03-1.1-1.55c-0.17-0.31-0.41-0.54-0.74-0.68
		C174.66,143.19,174.15,142.73,173.64,142.27z"/>
	<path class="st1" d="M88.48,173.92c4.32,1.41,9.86,0.13,12.35,5.59c-2.57,2.45,1.41,7.39-3.41,8.99c-5.3,0.72-10.39-1.5-15.67-1.12
		c-1.47-1.5-2.26-3.68-4.44-4.48c-0.37-0.76-0.75-1.51-1.12-2.27c1.08-0.64,1.68-2.59,3.04-2.08
		C84.11,180.36,85.96,176.56,88.48,173.92z"/>
	<path class="st11" d="M135.94,91.05c-0.1,1.85-0.19,3.69-0.29,5.54c-0.05,1.5-0.1,2.99-0.14,4.49c-1.43-2.35-2.96-3.13-8.68-4.98
		c-6.1-1.98-12.14-4.13-18.2-6.21c-1.29-3.81-2.65-7.6-3.86-11.43c-0.74-2.34-1.57-5,2.7-3.13c0.27,3.11,0.97,5.93,4.53,6.86
		C114.14,89.28,134.38,89.16,135.94,91.05z"/>
	<path class="st9" d="M191.57,158.24c4.95-2.41,9.87-4.92,15.67-3.37c0,0.75,0.01,1.5,0.01,2.25c-0.15,0.11-0.43,0.26-0.42,0.31
		c0.1,0.28,0.27,0.54,0.41,0.81c0.01,0.75,0.03,1.49,0.04,2.24c-0.01,0.35-0.01,0.71,0,1.06c-2.05,2.3-1.43,4.12,1.02,5.6
		c0.02,0.39,0.04,0.79,0.07,1.18c-4.74,2.35-8.48,0.96-11.68-2.97c-1.15-1.41-2.63-2.55-3.96-3.81
		C192.35,160.44,191.96,159.34,191.57,158.24z"/>
	<path class="st1" d="M201.65,92.13c-2.72-0.16-5.33,0.2-7.99-1.49c-3.42-2.18-3.59-4.56-2.51-7.99c1.39-4.4,4.8-4.08,8.11-3.89
		c3.62,0.21,5.33,3,5.42,6C204.77,87.34,204.13,90.28,201.65,92.13L201.65,92.13z"/>
	<path class="st15" d="M183.7,116.81c-1.94,0.51-2.07,3.47-4.5,3.32c1.72-5.62,4.61-10.64,8.17-15.23c1.5-1.93,4.16-2.95,6.41-2.2
		c2.35,0.78,2.24,3.51,2.27,5.73c0.02,1.29-0.02,2.58-0.03,3.86C189.98,108.51,187.48,114.41,183.7,116.81z"/>
	<path class="st11" d="M151.23,108.89c3.35-0.95,6.69,2.6,10.05,0.04c1.08,0.15,2.73,0.26,2.48,1.51c-0.3,1.54-2.12,1.7-3.57,1.88
		c-0.14-0.08-0.29-0.17-0.43-0.25c0.15,0.08,0.29,0.16,0.44,0.24c-1.81,1.91-4.16,0.94-6.27,1.11c-3.82,0.31-7.62-0.1-11.5,0.74
		c-3.72,0.81-7.05-0.47-6.83-5.41c2.23,0.04,4.45,0.09,6.68,0.13c1.49,0,2.98-0.01,4.46-0.01
		C148.24,108.87,149.74,108.88,151.23,108.89z"/>
	<path class="st11" d="M183.72,84.29c1.82-1.02,2.03-3.17,3.23-4.62c2.56,2.58,0.12,4.87-0.65,7.06c-1.07,3.02-9.11,7.27-11.52,6.54
		c0.08-0.16,0.16-0.32,0.24-0.48c-0.09,0.15-0.17,0.31-0.26,0.46c-1.82,0.17-3.66,0.21-5.45,0.53c-3.02,0.54-4.56-0.63-4.71-3.67
		C168.3,89.31,182.75,86.73,183.72,84.29z"/>
	<path class="st11" d="M200.5,57.44c0.35-0.02,0.7-0.05,1.04-0.08c2.66,1,10.15,18.28,8.92,22.38c-2.91-0.16-2.54-3.1-3.12-4.56
		c-1.81-4.55-5.43-7.96-7.01-12.8C199.6,60.13,201.89,58.97,200.5,57.44z"/>
	<path class="st8" d="M142.28,108.87c-2.23-0.04-4.45-0.09-6.68-0.13c0.02-0.3,0.01-0.6-0.02-0.89c-0.01-0.38-0.02-0.76-0.03-1.15
		c-0.01-1.87-0.02-3.75-0.03-5.62c0.05-1.5,0.09-2.99,0.14-4.49c4.44-0.56,7.15,0.61,6.17,5.87
		C141.43,104.58,141.45,106.78,142.28,108.87z"/>
	<path class="st12" d="M144.5,126.85c-0.02-0.74-0.04-1.49-0.06-2.23c5.59-2.16,11.41-0.79,17.12-1.01c2.11-0.08,1.73,1.4,0.89,2.69
		C156.48,126.49,150.49,126.67,144.5,126.85z"/>
	<path class="st13" d="M207.27,145.93c-5.64-2.88-7.86-8.47-10.65-13.57c-0.83-1.52-0.99-3.19,0.66-4.47
		c3.26,4.25,5.04,9.5,9.05,13.27C207.68,142.43,207.25,144.27,207.27,145.93z"/>
	<path class="st7" d="M193.79,47.36c0,0.35,0,0.71,0.02,1.06c0.38,0.37,0.77,0.73,1.15,1.1c0,0,0.04-0.02,0.04-0.02
		c-0.79,2.39-1.59,5.61-4.44,5.24c-3.22-0.42-2.69-4.2-3.53-6.65C189.2,46.99,191.53,47.52,193.79,47.36z"/>
	<path class="st2" d="M144.5,126.85c5.99-0.18,11.97-0.36,17.96-0.55c-0.58,2.1-1.58,3.15-3.95,2.06c-1.31-0.61-2.85-0.79-3.95,0.67
		C151.23,128.22,147.05,131.31,144.5,126.85z"/>
	<path class="st12" d="M175.88,129.11c-2.13,3.07,0.94,7.3-2.27,10.12c-0.73-1.14-1.45-2.28-2.18-3.41c0.31-2.96,0.5-5.96,3.29-7.88
		C175.11,128.33,175.5,128.72,175.88,129.11z"/>
	<path class="st10" d="M161.31,133.6c-2.5-0.51-4.9,2.05-7.47,0.24c-0.75-0.53-2.6-0.14-1.76-1.85c0.26-0.52,1.64-0.48,2.5-0.7
		C156.81,132.09,160.19,129.55,161.31,133.6z"/>
	<path class="st4" d="M82.88,125.63c-0.03,1.49-0.07,2.99-0.1,4.48c0,0,0.04,0.09,0.04,0.09c-0.44,0.35-0.88,0.7-1.32,1.05
		c-1.36,0.84-2.71,1.67-4.07,2.51c-0.19-0.19-0.37-0.38-0.56-0.57C78.17,130.74,82.16,125.7,82.88,125.63z"/>
	<path class="st10" d="M162.27,140.19c-2.68-0.04-5.42,0.69-8.72-0.74c2.65-1.81,5.1-2.36,7.74-2.42c0.3,0.37,0.61,0.74,0.92,1.12
		c0.05,0.37,0.09,0.75,0.14,1.12C162.34,139.57,162.31,139.88,162.27,140.19z"/>
	<path class="st6" d="M210.58,87.63c0.01,0.75,0.02,1.51,0.03,2.26c0,2.51,0,5.03,0,8.2c-2.26-2.84,0.19-6.14-2.24-8.19v0
		c0-0.75,0-1.5-0.01-2.24C209.11,87.64,209.84,87.64,210.58,87.63z"/>
	<path class="st12" d="M143.36,121.57c-1.63,0.32-2.6,2.16-4.46,1.96c0.04-1.85,0.93-3.06,2.8-3.28
		C142.51,120.15,144.07,119.56,143.36,121.57z"/>
	<path class="st1" d="M210.58,87.63c-0.74,0.01-1.47,0.01-2.21,0.02c-1.66-2.66,0.27-3,2.17-3.36c0.03,0.74,0.06,1.49,0.09,2.23
		C210.61,86.89,210.59,87.26,210.58,87.63z"/>
	<path class="st1" d="M133.4,116.67c0.46,0.27,0.88,0.51,1.3,0.75c-0.33,0.34-0.78,1.02-0.98,0.95c-0.62-0.2-1.15-0.69-1.71-1.06
		C132.46,117.11,132.9,116.91,133.4,116.67z"/>
	<path class="st10" d="M161.41,135.69c-0.04-0.7-0.08-1.4-0.11-2.09c0.83,0.11,1.88,0.11,1.71,1.28
		C162.96,135.22,161.97,135.43,161.41,135.69z"/>
	<path class="st4" d="M75.09,135.78c-0.05-0.73,1.14-2.47,1.78-2.6c0.19,0.19,0.37,0.38,0.56,0.57
		C77.18,135.04,76.46,135.79,75.09,135.78z"/>
	<path class="st12" d="M135.5,127.91c-1.3-0.77-1.03-2.06-1.07-3.24c0.75-0.01,1.5-0.03,2.26-0.04
		C136.29,125.72,135.9,126.81,135.5,127.91z"/>
	<path class="st1" d="M112.83,98.23c0.3,0.13,0.6,0.26,0.9,0.39c-0.13,0.3-0.19,0.77-0.41,0.85c-0.22,0.08-0.58-0.21-0.89-0.34
		C112.57,98.83,112.7,98.53,112.83,98.23z"/>
	<path class="st12" d="M138.93,123.5c-0.48,0.93-1.33,1.14-2.28,1.15C137.12,123.7,137.97,123.48,138.93,123.5z"/>
	<path class="st1" d="M130.24,100.42c-0.05,0.13-0.09,0.26-0.14,0.39c-0.15-0.05-0.32-0.08-0.43-0.17
		c-0.04-0.03,0.08-0.25,0.13-0.38C129.94,100.31,130.09,100.36,130.24,100.42z"/>
	<path class="st15" d="M179.24,120.11c-0.42,0.39-0.83,0.77-1.25,1.16C178.41,120.88,178.82,120.5,179.24,120.11z"/>
	<path class="st11" d="M135.54,106.7c0.01,0.38,0.02,0.76,0.03,1.15C134.86,107.49,134.77,107.11,135.54,106.7z"/>
	<path class="st7" d="M162.36,139.26c-0.05-0.37-0.09-0.75-0.14-1.12C163.18,138.4,163.13,138.79,162.36,139.26z"/>
	<path class="st6" d="M208.37,89.89c-0.08,0.15-0.17,0.3-0.25,0.44C208.21,90.19,208.29,90.04,208.37,89.89L208.37,89.89z"/>
	<path class="st7" d="M91.89,162.7c0.01,0.39,0.01,0.78,0.02,1.17C91.14,163.5,91.09,163.11,91.89,162.7z"/>
	<path class="st1" d="M81.5,131.24c0.44-0.35,0.88-0.7,1.32-1.05C82.38,130.54,81.94,130.89,81.5,131.24z"/>
	<path class="st12" d="M207.25,158.24c-0.15-0.27-0.32-0.53-0.41-0.81c-0.02-0.05,0.27-0.2,0.42-0.31
		C207.25,157.49,207.25,157.87,207.25,158.24z"/>
	<path class="st1" d="M201.65,92.13c0.15,0.08,0.3,0.17,0.44,0.25C201.95,92.3,201.8,92.22,201.65,92.13
		C201.65,92.13,201.65,92.13,201.65,92.13z"/>
	<path class="st15" d="M175.82,126.65c0.59,0.43,0.99,0.87,0.03,1.33C175.84,127.53,175.83,127.09,175.82,126.65z"/>
	<path class="st15" d="M175.88,129.11c-0.39-0.39-0.77-0.78-1.16-1.18c0.38,0.01,0.75,0.01,1.13,0.02
		C175.86,128.34,175.87,128.73,175.88,129.11z"/>
	<path class="st10" d="M151.21,64.1c0,1.51,0,3.02,0,4.53c-2.36,3.85-0.5,8.1-1.14,12.12c-0.73,0.01-4.46-0.21-5.19-0.19
		c0.9-3.24,0.75-15.66,0.74-18.68c1.12,0,2.24,0,3.37,0.01c0,0,0.02,0.02,0.02,0.02C149.05,63.31,149.77,64.07,151.21,64.1z"/>
	<path class="st8" d="M69.39,250.12c0.01-0.74,0.03-1.49,0.04-2.23c0.94-0.55,1.1-1.42,0.98-2.4c0,0-0.01,0.01-0.01,0.01
		c2.82-0.14,6.04,1.29,8.03-2.07c1.11-0.01,2.22-0.03,3.32-0.04c1.86,1.07,3.85,1.48,5.92,0.85c2.84-0.87,5.55-2.25,8.64-1.97
		c0.41,2.4-0.74,4.54-1.15,6.8C86.64,251.25,78.03,250.96,69.39,250.12z"/>
	<path class="st14" d="M95.16,249.07c0.41-2.26,1.56-4.4,1.15-6.8c0-3.73,0.01-7.47,0.01-11.2c3.73,0.57,7.45,1.77,11.19,0.05
		c0.74,1.1,0.71,2.2,0.01,3.3l0,0c-2.22,1.24-3.03,3.3-3.3,5.68c-0.37,0.72-0.74,1.45-1.11,2.17c-0.93,0.46-1.15,1.31-1.19,2.25
		c-1.67,2.07-1.95,5.55-5.63,5.61C95.91,249.78,95.53,249.42,95.16,249.07z"/>
	<path class="st15" d="M96.29,250.14c3.68-0.06,3.95-3.54,5.63-5.61c4.11,2.99,8.22,5.97,12.33,8.96
		c-6.87,2.86-14.1,2.13-21.26,2.21c0.26-0.75-2.96-1.61-0.03-2.18C95,253.11,96.26,252.34,96.29,250.14z"/>
	<path class="st8" d="M67.17,251.25c0.52-0.86,1.34-1.11,2.27-1.16C68.96,251.02,68.11,251.21,67.17,251.25z"/>
	<path class="st2" d="M64.3,245.48c-0.64-3.32,13.06-15.04,13.98-15.46c-0.03,4.05-0.05,8.09-0.08,12.14l0-0.09
		c-2.66,0.99-7.14-2.16-7.8,3.42c0,0,0.01-0.01,0.01-0.01c-1.87-0.03-3.75-0.06-5.63-0.09L64.3,245.48z"/>
	<path class="st1" d="M64.79,245.4c1.88,0.03,3.75,0.06,5.63,0.09c0.12,0.98-0.04,1.85-0.98,2.4
		C67.36,248.04,65.66,247.48,64.79,245.4z"/>
	<path class="st7" d="M122,250.09c-4.96-3.71-9.66-7.84-15.6-10.05c0.74-0.77,1.48-1.54,2.22-2.3c0.77,0.01,1.54,0.02,2.31,0.04
		c0,0,0.01,0,0.01,0c2.25,3.41,5.91,5.23,8.93,7.76C121.44,246.86,122.37,248.05,122,250.09z"/>
	<path class="st12" d="M108.62,237.73c-0.74,0.77-1.48,1.54-2.22,2.3c-0.73,0.02-1.46,0.04-2.19,0.07c0.27-2.38,1.09-4.44,3.3-5.68
		C107.88,235.53,108.25,236.63,108.62,237.73z"/>
	<path class="st10" d="M217.34,186.28c2.6-1.16,7.32,2.61,7.85-3.37c1.44,0.02,2.17,0.76,2.24,2.18c0.19,2.42-2.53,1.97-3.36,3.39
		C221.55,188.61,219.13,188.41,217.34,186.28z"/>
	<path class="st6" d="M221.83,193.03c1.42,0,3.37-1.42,3.45,1.71c0.06,2.37,0.7,4.73,1.08,7.1c-1.92,0.75-3.84,1.5-5.75,2.25
		c-4.97-0.65-9.71,1.31-14.63,1.22c-2.38-1.5-4.78-1.31-7.34-0.34c-1.33,0.5-3.72,0.59-3.33-1.31c0.65-3.19-2.07-5.5-1.44-8.48
		c3.44,0.38,6.12,4.16,10.07,2.22l0-0.02c0.05,0.9-0.24,2.53,0.56,2.47c2.08-0.16,1.44-2.15,1.63-3.52
		c1.55,0.15,3.29-0.49,4.48,1.12c-0.08,0.15-0.16,0.3-0.25,0.45c0.08-0.15,0.17-0.3,0.25-0.45c2.32-0.36,4.63-0.9,6.96-1.04
		C219.92,196.28,222.1,196.29,221.83,193.03z"/>
	<path class="st9" d="M221.83,193.03c0.27,3.26-1.91,3.25-4.25,3.39c-2.33,0.14-4.64,0.68-6.96,1.04l0,0
		c-1.19-1.6-2.93-0.97-4.48-1.12c-0.35-2.25,0.86-4.75-1.09-6.75c0.08-1.27-0.14-3.04,1.54-3.1c3.71-0.14,7.1-1.37,10.62-2.2
		c2.9-0.69-0.09,1.26,0.13,1.98c1.79,2.13,4.21,2.33,6.73,2.2c-0.67,2.15-0.68,2.1-3.03,2.25c-4.24,0.27-8.72-0.99-12.86,1.83
		C212.9,193.91,217.4,191.99,221.83,193.03z"/>
	<path class="st4" d="M220.6,204.09c1.92-0.75,3.83-1.5,5.75-2.25c5.01-0.44,7.93,1.84,8.78,6.78c-1.06,0.21-2.12,0.42-3.19,0.63
		c-0.37-0.01-0.73-0.02-1.1-0.04c-2.68-0.21-5.89-7.3-7.94,0.61c-4.42,1.79-9.07,0.77-13.6,1.08c-1.61,0.11-2.91-0.38-3.2-2.25
		c2.22-0.01,4.45-0.02,6.67-0.01C216.28,208.65,219.42,208.06,220.6,204.09z"/>
	<path class="st11" d="M231.95,209.24c1.06-0.21,2.13-0.42,3.19-0.63c0.46,1.13,0.92,2.25,1.38,3.38c-0.05,1.5-0.09,3.01-0.14,4.51
		c-4.31,3.96-8.36,2.66-10.55-3.39c0,0,0.43,0.04,0.43,0.04C229.08,213.18,233.53,215.6,231.95,209.24z"/>
	<path class="st9" d="M184.9,190.75c1.21-0.62,1.71-1.67,2.21-2.92c1.47-3.67,3.86-3.72,6.84-0.28c-0.06,0.69-0.13,1.38-0.19,2.08
		c-2.72,0.17-5.58-1.16-5.2,4.31c0.25,3.56,0.06,8.08-1.54,11.64c-2.53,5.63,0.75,8.25,4.52,10.96c-0.27,2.94,0.48,5.37,3.39,6.71
		c0.01,1.48,0.02,2.96,0.03,4.43c-4.13,0.41-8.42-0.86-12.41,1.12c0.01-0.74,0.02-1.47,0.03-2.21c-0.83-6.74,0.88-13.75-2.19-20.25
		c-0.04-0.35-0.04-0.69-0.01-1.04c0-0.35-0.01-0.7-0.01-1.05C185.93,201.1,184.53,195.63,184.9,190.75z"/>
	<path class="st12" d="M194.93,223.23c-2.9-1.34-3.66-3.76-3.39-6.71c-2.15-5.27,0.47-10.78-0.83-16.24c-0.53-2.24-0.44-6,3.15-7.35
		l0.17-0.08c-0.05,0.77-0.11,1.55-0.16,2.32c-0.64,2.97,2.09,5.28,1.44,8.48c-0.39,1.9,2,1.81,3.33,1.31
		c2.56-0.97,4.96-1.16,7.34,0.34c0.05,1.11,0.09,2.23,0.14,3.34c0.28,1.86,1.59,2.36,3.2,2.25c4.54-0.31,9.18,0.71,13.6-1.08
		c0.97,0.01,1.94,0.02,2.9,0.02c0.15,1.1,0.3,2.21,0.45,3.31c0,0-0.43-0.04-0.43-0.04c-5.85,1.57-11.7-0.76-17.57,0
		c-1.83,0.24-3.72,0.04-5.58,0.04c-7.76,0.01-7.76,0.01-7.74,7.85C194.94,221.75,194.94,222.49,194.93,223.23z"/>
	<path class="st10" d="M227.43,241.12c-4.44,2.81-8.55,0.05-12.61-1.07c-1.77-0.49-3.45-1.14-5.31-1.13
		c-0.32-3.37-1.65-6.63-1.12-10.09c4.47,0.02,8.94,0.03,13.41,0.05c-1.51,4.94-0.83,9,4.51,11.16
		C226.69,240.39,227.06,240.75,227.43,241.12z"/>
	<path class="st13" d="M208.39,228.82c-0.53,3.46,0.8,6.72,1.12,10.09c-0.45,0.83-1.21,1.09-2.09,1.09
		c-0.29-1.14,0.14-2.54-1.23-3.27c-2.7-0.44-5.77,0.46-7.84-2.2c1.59-0.28,3.36,0.42,6.04-1.81c-8.82-0.73-16.42-0.96-24.07,0.45
		c-4.58-2.43-9.72,0.16-14.39-1.75c9.74-0.06,19.45-0.44,29.11-1.56c2.19,0,4.38,0,6.57-0.01c0.78,0.01,1.56,0.02,2.34,0.03
		C205.42,229.52,206.9,229.17,208.39,228.82z"/>
	<path class="st7" d="M227.43,241.12c-0.37-0.36-0.74-0.72-1.11-1.08c-1.16-3.65-2.96-7.17-2.26-11.2c0.4,0.01,0.79,0.02,1.19,0.03
		c0.34,1.24,0.92,2.47,0.97,3.72c0.14,3.92,1.92,6.48,5.71,7.6C230.65,241.59,228.97,241.02,227.43,241.12z"/>
	<path class="st9" d="M224.05,228.84c-0.69,4.02,1.1,7.55,2.26,11.2c-5.35-2.17-6.02-6.22-4.51-11.16
		C222.55,228.86,223.3,228.85,224.05,228.84z"/>
	<path class="st9" d="M203.93,229.87c-0.78-0.01-1.56-0.02-2.34-0.03c0.31-0.55,0.54-1.47,0.95-1.57
		C203.69,228.02,203.74,229.09,203.93,229.87z"/>
	<path class="st10" d="M108.62,237.73c-0.37-1.1-0.73-2.21-1.1-3.31c0,0,0,0,0,0c3.51,0.98,7.15,3.1,10.1-1.1l0.01,0
		c0.74,0,1.48,0,2.22,0c1.49-0.01,2.98-0.02,4.46-0.03c1.51,0,3.02-0.01,4.53-0.01c1.11,0.01,2.23,0.03,3.34,0.04
		c2.3,1.86,5.38,1.07,7.86,2.31c-0.01,0.35-27.65,0.48-29.12,2.14C110.16,237.76,109.39,237.75,108.62,237.73z"/>
	<path class="st9" d="M78.46,205.38c-0.01-0.41-0.02-0.82-0.04-1.23c2.11-2.36,0.68-5.21,1.09-7.8c5.52-1.21,11.05,0.73,16.58-0.07
		c0.1,0.37,0.2,0.75,0.3,1.12c-0.05,1.29-0.25,2.63,1.05,3.52c1.32,2.51,3.09,3.53,5.56,1.47c1.32-1.1,2.73-1.69,4.44-1.61
		c0.03,1.13,0.07,2.26,0.1,3.4c-0.55,1.39,0.93,4.92-2.04,3.68c-3.29-1.38-6.11,0.03-9.11-0.28c-4.36-2.5-9.05-0.67-13.57-1.05
		c-0.73-0.01-1.46-0.03-2.19-0.04C80.18,205.57,79.39,205.33,78.46,205.38z"/>
	<path class="st9" d="M81.76,187.38c5.28-0.38,10.37,1.84,15.67,1.12c-0.01,0.7-0.03,1.41-0.04,2.11c-1.23,0.88-1.08,2.31-1.41,3.56
		c-5.87-0.4-11.74-2.5-17.63-0.08c-2.67-1.42-2.57-3.73-1.78-6.09C77.81,184.32,80.27,189.72,81.76,187.38z"/>
	<path class="st8" d="M78.35,194.1c5.89-2.43,11.75-0.32,17.63,0.08c0.04,0.7,0.07,1.4,0.1,2.1c-5.52,0.8-11.06-1.14-16.57,0.07
		C79.14,196.34,78.37,194.85,78.35,194.1z"/>
	<path class="st9" d="M78.29,230.03c-0.92,0.42-0.79-10.6,1.69-16.59c1.65,0.06,3.29,0.11,4.94,0.17c0.24,1.96,0.93,2.92,3.29,2.52
		c5.58-0.96,10.66,1.66,15.97,2.64c-2.34,1.68-4.74,2.57-7.68,1.36c-5.15-2.1-10.11-0.27-15.01,1.18c-1.86,0.55-4.32,1.35-2.01,4.16
		c0.02,1.12,0.05,2.24,0.07,3.35C79.13,229.22,78.71,229.62,78.29,230.03z"/>
	<path class="st2" d="M84.91,213.6c-1.65-0.05-3.29-0.11-4.94-0.16c-4.46-0.32-1.76-2.81-1.38-4.59c2.34,4.14,6.27,3.16,9.92,3.1
		c2.17,0.35,4.53-0.65,6.5,0.99C91.65,213.16,88.28,213.38,84.91,213.6z"/>
	<path class="st4" d="M88.51,211.95c-3.65,0.07-7.58,1.04-9.92-3.1c-0.03-0.42-0.06-0.84-0.09-1.26c0.71-0.37,1.42-0.74,2.13-1.11
		c0.73,0.01,1.46,0.03,2.19,0.04C83.01,210.13,88.1,208.58,88.51,211.95z"/>
	<path class="st11" d="M80.63,206.48c-0.71,0.37-1.42,0.74-2.13,1.11c-0.02-0.74-0.03-1.47-0.05-2.21
		C79.39,205.33,80.18,205.57,80.63,206.48z"/>
	<path class="st3" d="M194.96,49.52c-0.38-0.37-0.77-0.73-1.15-1.1C194.19,48.78,194.58,49.15,194.96,49.52z"/>
	<path class="st11" d="M152.4,226.64c-0.79,0.02-1.57,0.03-2.36,0.05c-2.24-0.06-4.47-0.11-6.71-0.17c-0.36-0.35-0.71-0.7-1.07-1.05
		c-0.03-1.58-1.02-2.17-2.41-2.36c4.8-0.97,9.53-1.82,14.55-1.34c2.97,0.28,6.95,2.57,9.15-1.91c3.71-0.58,7.64,1.04,11.2-1.08
		c1.28-0.8,1.08-2.13,1.2-3.35c1.77,1.82,0.92,4.11,0.98,6.19c0.05,1.75,0.6,2.32,2.25,1.76c0.14,1.6-1.39,2-2.13,2.97
		C168.84,226.45,160.62,226.55,152.4,226.64z M171.81,225.04c0.46-0.31,0.91-0.46,1.02-0.73c0.32-0.77-0.28-0.98-0.86-0.97
		c-0.33,0.01-0.65,0.27-0.97,0.42C171.26,224.18,171.53,224.6,171.81,225.04z"/>
	<path class="st8" d="M143.33,226.52c2.24,0.06,4.47,0.11,6.71,0.17c-2.82,3.73-8.36,0.54-11.13,4.38c0,0-0.01,0.01-0.01,0.01
		c-1.23-0.04-2.53,0.16-3.36-1.09c-0.37-0.78-0.75-0.75-1.15-0.02c-1.52,1.66-5.06-0.07-5.55,3.31c-1.51,0-3.02,0.01-4.53,0.01
		c-0.37-0.37-0.73-0.73-1.1-1.1c0-0.73,0-1.47,0-2.2c1.1-0.05,2.2-0.11,3.36-0.16c-0.35-1.37-1.62-0.68-2.19-1.31
		c1.1-0.64,2.2-1.27,3.3-1.91c1.11-0.03,2.23-0.05,3.34-0.08c1.51,0,3.03-0.01,4.54-0.01C138.16,226.53,140.75,226.52,143.33,226.52
		z"/>
	<path class="st8" d="M157.95,234.43c-6.36-0.4-12.71-0.8-19.07-1.19c0.01-0.72,0.01-1.44,0.02-2.16c0,0,0.01-0.01,0.01-0.01
		c5.11,0,10.23,0.07,15.34-0.02C156.69,231.01,158.15,231.73,157.95,234.43z"/>
	<path class="st14" d="M152.4,226.64c8.22-0.1,16.43-0.19,24.65-0.29c0.79,0.06,1.59,0.12,2.38,0.18c-0.43,0.4-0.85,0.8-1.28,1.2
		c-7.78-0.28-15.56,2.4-23.33-0.06C153.99,227.41,153.21,226.99,152.4,226.64z"/>
	<path class="st1" d="M178.15,227.73c0.43-0.4,0.85-0.8,1.28-1.2c1.05,0.02,2.1,0.03,3.15,0.05c-0.01,0.74-0.02,1.47-0.02,2.21
		C181.03,228.68,179.32,229.34,178.15,227.73z"/>
	<path class="st13" d="M138.9,231.08c-0.01,0.72-0.01,1.44-0.02,2.16c-2.23,0.03-4.46,0.05-6.7,0.08c-1.11-0.01-2.23-0.03-3.34-0.04
		c0.49-3.38,4.03-1.66,5.55-3.31c0.38,0.01,0.76,0.01,1.15,0.02C136.37,231.25,137.67,231.05,138.9,231.08z"/>
	<path class="st9" d="M94.05,69.72c-1.25-3.45,2.07-4.61,3.39-6.78C97.7,65.89,95.85,67.79,94.05,69.72z"/>
	<path class="st9" d="M91.81,74.2c-0.1-1.93,0.24-3.64,2.26-4.51C93.91,71.5,93.3,73.07,91.81,74.2z"/>
	<path class="st9" d="M89.59,76.45c0.42-1.08,1.16-1.84,2.24-2.27c-0.01,0.93-0.21,1.77-1.1,2.28
		C90.35,76.45,89.97,76.45,89.59,76.45z"/>
	<path class="st6" d="M89.59,76.45c0.38,0,0.76,0,1.14,0.01c-0.06,1.45-0.83,2.19-2.27,2.25C88.84,77.95,89.21,77.2,89.59,76.45z"/>
	<path class="st6" d="M87.33,80.97c0.37-0.43,0.74-0.85,1.11-1.28C88.07,80.11,87.7,80.54,87.33,80.97z"/>
	<path class="st4" d="M193.72,176.37c-0.08,0.24-0.09,0.48-0.03,0.72c0.04,0.81,0.07,1.63,0.11,2.44c0,0-0.05-0.05-0.05-0.05
		c-3.64-0.31-7.28-0.62-11.12-0.94c0,1.86,0,3.68,0,5.49c-0.01,2.24-0.01,4.48-0.02,6.72c-2.76,2.91,0.44,7.15-2.24,10.08
		c0-0.37,0-0.75,0-1.12c-0.8-3.74,1.65-8.95-4.62-10.23c0.04-1.99,0.01-3.97,0.75-5.91c0.58-1.54,1.02-3.3-1.44-3.82
		c-0.07-1.55-0.15-3.09-0.22-4.64c0.24-3.27-0.7-7.21,4.38-7.73c0.89,1.21,2.21,0.78,3.39,0.9c0.69,1.55,1.92,2.6,3.29,3.52
		c1.13,0.76,2.26,1.51,3.39,2.27c0.73,1.39,1.76,2.31,3.44,2.26l0.5,0l0.5-0.05L193.72,176.37z"/>
	<path class="st11" d="M191.57,158.24c0.39,1.1,0.78,2.2,1.16,3.3c-1.6,1.18-0.6,2.2,0.2,3.23c1.79,2.29,3.59,4.58,5.38,6.87
		c-0.76,0.02-1.52,0.05-2.29,0.07c-2.57,0.25-4.53-1.32-6.72-2.23c-0.37-0.04-0.73-0.06-1.1-0.05c1.27-5.1,0.23-8.92-5.6-10.08
		c0,0,0,0.02,0,0.02c-0.38-0.39-0.76-0.78-1.14-1.17c0.39-1.12,0.77-2.24,1.16-3.35c1.13,0.4,2.26,0.79,3.39,1.19
		c1.8,0.4,3.61,0.81,5.41,1.21C191.47,157.58,191.52,157.91,191.57,158.24z"/>
	<path class="st4" d="M193.76,189.63c0.06-0.69,0.13-1.39,0.19-2.08c3.13,1.59,7.14-1.07,9.95,2.06c-0.66,2.59,2.64,5.17,0.04,7.77
		c0,0,0,0.02,0,0.02c-0.17-2.07-1.99-3.36-3.31-2.85c-2.87,1.1-4.36-1.42-6.6-1.69c0,0-0.17,0.08-0.17,0.08
		C193.82,191.84,193.79,190.73,193.76,189.63z"/>
	<path class="st4" d="M198.32,171.64c-1.79-2.29-3.59-4.58-5.38-6.87c-0.8-1.03-1.8-2.05-0.2-3.23c1.33,1.26,2.81,2.4,3.96,3.81
		c3.2,3.92,6.94,5.32,11.68,2.97c-0.02,0.74-0.03,1.49-0.05,2.23C205.01,171.04,202.13,175.61,198.32,171.64z"/>
	<path class="st3" d="M208.33,170.55c0.02-0.74,0.03-1.49,0.05-2.23c-0.02-0.39-0.04-0.79-0.07-1.18c0.05-0.72,0.09-1.44,0.14-2.16
		c0.5,0.53,1.01,1.06,1.51,1.58c3.91-3.77,4.76,0.7,6.84,2.37c1.26,1.01,3.74,1.61,2.46,3.39c-1.46,2.03-4.18,0.47-5.15-0.82
		C212.22,169.01,210.45,169.61,208.33,170.55z"/>
	<path class="st7" d="M182.62,184.02c0-1.81,0-3.62,0-5.49c3.84,0.33,7.48,0.63,11.12,0.94c0.46,3.57-3.15,4.86-4.36,3.85
		C186.37,180.82,184.78,183.46,182.62,184.02z"/>
	<path class="st7" d="M180.36,200.82c2.68-2.93-0.52-7.17,2.24-10.08c0.77,0,1.53,0.01,2.3,0.01c-0.37,4.88,1.02,10.35-4.53,13.49
		c-0.01-1.14-0.02-2.28-0.03-3.41L180.36,200.82z"/>
	<path class="st6" d="M189.32,169.48c2.18,0.91,4.15,2.48,6.72,2.23c-0.17,1.85-0.92,3.42-2.32,4.66c0,0,0.01-0.11,0.01-0.11
		c-0.38-0.92-0.7-0.72-1,0.05c-1.68,0.06-2.72-0.86-3.44-2.26C189.3,172.53,189.31,171,189.32,169.48z"/>
	<path class="st7" d="M203.94,197.39c2.6-2.6-0.7-5.18-0.04-7.77c0.38-0.01,0.76-0.01,1.14-0.02c1.95,1.99,0.74,4.5,1.09,6.75
		c-0.19,1.37,0.45,3.35-1.63,3.52C203.7,199.92,203.99,198.28,203.94,197.39z"/>
	<path class="st12" d="M208.44,164.97c-0.05,0.72-0.09,1.44-0.14,2.16c-2.45-1.48-3.07-3.3-1.02-5.6
		C208.52,162.4,208.33,163.74,208.44,164.97z"/>
	<path class="st9" d="M193.79,179.53c-0.04-0.81-0.07-1.62-0.11-2.44C194.7,177.86,195.11,178.66,193.79,179.53z"/>
	<path class="st4" d="M186.02,156.03c-1.13-0.4-2.26-0.79-3.39-1.19c-0.38-0.38-0.76-0.76-1.14-1.14c-1.13-1.84-1.61-4.33-4.46-4.44
		c0-1.12,0-2.24,0.01-3.35c3.8,0.87,4.76,5.01,7.78,6.77c0.25,0.23,0.55,0.4,0.88,0.5C185.81,154.12,185.92,155.08,186.02,156.03z"
		/>
	<path class="st9" d="M186.02,156.03c-0.11-0.95-0.21-1.91-0.32-2.86c3.11-0.33,6.23-0.68,5.73,4.07
		C189.63,156.84,187.83,156.44,186.02,156.03z"/>
	<path class="st15" d="M114.33,170.61c5.03-3.93,9.13-8.77,13.35-13.5c1.55-1.88,3.53-2.31,5.92-2.27
		c7.81,0.13,15.75,0.93,23.39-0.22c7.07-1.07,13.04-0.15,18.77,3.75c0.01,0.34,0.04,0.68,0.11,1.01c0.79,2.06,3.43,2.97,3.44,5.52
		c-3.71,0.82-6.33-3.48-10.15-2.17c-12.63,0-25.26,0-37.89,0c-2.4,0-4.97-0.34-6.11,2.64c1.09,1.15,2.48,0.55,3.71,0.74
		c-1.47,1.95-3.86,0.8-5.72,1.69c-2.48,1.19-0.29,1.86,0.05,2.75c-0.39,0.07-0.78,0.13-1.17,0.2c-5.94,1-8.35,6.39-12.29,9.88
		c-0.34,0.02-0.68,0.08-1.02,0.17c-0.38-0.75-0.76-1.49-1.14-2.24c0.02-0.76,0.03-1.51,0.05-2.27
		C111.32,176.12,113.3,173.93,114.33,170.61z"/>
	<path class="st6" d="M175.76,158.37c-5.73-3.9-11.7-4.82-18.77-3.75c-7.64,1.15-15.58,0.35-23.39,0.22
		c-2.39-0.04-4.37,0.39-5.92,2.27c-5.58-3.09-0.59-4,1.15-5.58c0.74,0,1.48,0,2.22,0c2.76-0.15,5.83,0.32,6.79-3.41
		c0.74,0.02,1.47,0.04,2.21,0.06c0.8,3.47,3.62,3.27,6.21,3.32c6.77,0.13,13.58,0.59,20.29-0.49
		C172.55,150.05,174.91,153.14,175.76,158.37z"/>
	<path class="st6" d="M179.3,164.9c-0.01-2.55-2.65-3.45-3.44-5.52c2.25-0.86,4.51,2.52,6.75-0.03c5.83,1.16,6.87,4.98,5.6,10.08
		c-0.77,0.79-1.54,1.57-2.32,2.36c-1.37-0.92-2.6-1.97-3.29-3.52c-0.14-2.06-1.25-3.18-3.31-3.35L179.3,164.9z"/>
	<path class="st6" d="M136.67,136.95c0-0.37,0-0.74,0-1.11c2.36-0.41,3.5-2.62,5.43-3.69c1.51-0.83,2.94-1.02,3.92,0.49
		c1.01,1.56-0.15,3.71-1.2,3.7c-5.39-0.09-4.52,4.49-5.95,7.33c-0.33,0.03-0.65,0.05-0.98,0.06
		C137.74,141.43,138.03,139.04,136.67,136.95z"/>
	<path class="st10" d="M137.88,143.74c0.33-0.01,0.66-0.03,0.98-0.06c0.61,0.35,1.25,0.67,1.83,1.07c1.45,1,4.65-2.12,4.62,1.36
		c-0.03,3.34-3.37,1.62-5.28,2.07c-0.74-0.02-1.47-0.04-2.21-0.06C137.85,146.66,137.86,145.2,137.88,143.74z"/>
	<path class="st11" d="M177.04,149.27c2.85,0.11,3.33,2.6,4.46,4.44c-0.5,0.92-1.34,1.15-2.3,1.16c-0.34-3-2.72-1.97-4.44-2.25
		C175.52,151.5,176.28,150.38,177.04,149.27z"/>
	<path class="st6" d="M174.76,152.62c1.72,0.27,4.1-0.75,4.44,2.25C177.72,154.12,176.24,153.37,174.76,152.62z"/>
	<path class="st3" d="M163.56,141.44c-0.08,0.15-0.17,0.3-0.25,0.45C163.39,141.73,163.47,141.58,163.56,141.44
		C163.55,141.43,163.56,141.44,163.56,141.44z"/>
	<path class="st4" d="M173.64,142.27c0.51,0.46,1.02,0.92,1.53,1.39C174.33,143.56,173.81,143.11,173.64,142.27z"/>
	<path class="st4" d="M175.91,144.33c0.37,0.52,0.73,1.03,1.1,1.55C176.22,145.66,175.95,145.08,175.91,144.33z"/>
	<path class="st6" d="M181.48,158.2c0.38,0.39,0.76,0.78,1.14,1.17C182.24,158.98,181.86,158.59,181.48,158.2z"/>
	<path class="st10" d="M95.26,158.21c0-1.1,0-2.2-0.01-3.3c2.77,0.04,6.84-4.08,7.56,2.67c0.14,1.27,2.64-0.02,3.9-0.63
		c4.98-2.42,7.98-7,11.36-11.05c2.66-3.19,5.09-6.53,8.53-8.96c0.37,0,0.75,0.01,1.12,0.01c-0.02,0.39-0.04,0.78-0.07,1.17
		c-0.01,0.66-0.01,1.32-0.02,1.99c-2.83,2-3.27,5.65-5.57,8.02c-2.04,0.22-3.21,1.29-3.35,3.39c-0.03,0.35-0.03,0.69,0,1.04
		c-1.44,0.09-2.36,0.69-2.28,2.29c0,0,0.01-0.02,0.01-0.02c-4.38,1.43-5.94,5.39-8.02,8.9c-1.37,0.17-2.76,0.82-3.16,1.98
		c-1.9,5.41-6.38,6.45-11.21,7.02c1.64-2.39,1.05-5.12,1.2-7.74c0.56-0.3,1.51-0.51,1.61-0.91c0.27-1.16-0.82-1.19-1.61-1.38
		c0-0.73,0.01-1.46,0.01-2.19c0.56-0.3,1.51-0.51,1.61-0.91C97.14,158.44,96.05,158.4,95.26,158.21z"/>
	<path class="st3" d="M97.39,190.62c0.01-0.7,0.03-1.41,0.04-2.11c4.82-1.6,0.83-6.54,3.41-8.99c1.1,0,2.21,0.01,3.31,0.01
		c0.76,0,1.53,0.01,2.29,0.01c1.13,3.68,1.21,7.46,0.92,11.26c-0.32-0.03-0.65-0.03-0.98-0.03
		C103.42,188.43,100.37,191.56,97.39,190.62z"/>
	<path class="st11" d="M122.07,148.13c2.3-2.36,2.75-6.02,5.57-8.02c0.76,1.19,1.52,2.39,2.28,3.59c0,0.36,0,0.71-0.01,1.07
		c-1.76,1.02-3.24,2.25-3.36,4.5C125,149.14,123.25,149.76,122.07,148.13z"/>
	<path class="st14" d="M107.36,190.79c0.29-3.8,0.2-7.57-0.92-11.26c0.02-0.34,0.03-0.68,0.03-1.01c0.37,0.01,0.75,0.02,1.12,0.04
		c0.38,0.75,0.76,1.49,1.14,2.24c0.03,1.4,0.06,2.81,0.08,4.21c-0.03,2.27-0.07,4.54-0.1,6.81c-0.02,1.88-0.03,3.76-0.05,5.64
		c-0.37,2.24,0.87,4.76-1.13,6.73c-0.03-1.13-0.07-2.26-0.1-3.4c-0.05-1.13-0.1-2.27-0.15-3.4
		C107.32,195.18,107.34,192.98,107.36,190.79z"/>
	<path class="st4" d="M108.44,163.73c2.08-3.5,3.64-7.47,8.02-8.9C114.61,158.54,113.61,163.01,108.44,163.73z"/>
	<path class="st3" d="M126.56,149.26c0.12-2.25,1.6-3.48,3.36-4.5c2.7,1.87,1.74,4.35,1.13,6.77c-0.74,0-1.48,0-2.22,0
		C128.07,150.77,127.32,150.02,126.56,149.26z"/>
	<path class="st1" d="M114.33,170.61c-1.02,3.32-3,5.51-6.69,5.67c-0.71-0.52-1.43-1.05-2.89-2.13
		C109.2,175.13,110.55,170.3,114.33,170.61z"/>
	<path class="st11" d="M118.72,152.56c-0.03-0.35-0.03-0.69,0-1.04c1.1,0,2.2,0,3.5,0c-0.64,2.04-2.16,1.98-3.48,2.25
		C118.73,153.36,118.73,152.96,118.72,152.56z"/>
	<path class="st1" d="M106.46,178.52c0,0.34-0.01,0.68-0.03,1.01c-0.76,0-1.53-0.01-2.29-0.01
		C104.42,178.05,104.76,176.71,106.46,178.52z"/>
	<path class="st4" d="M118.72,152.56c0,0.4,0.01,0.8,0.01,1.21c-0.52,0.88-1.34,1.11-2.29,1.08
		C116.37,153.25,117.29,152.65,118.72,152.56z"/>
	<path class="st8" d="M126.6,136.95c-3.44,2.42-5.87,5.77-8.53,8.96c-3.38,4.05-6.38,8.63-11.36,11.05c-1.26,0.61-3.76,1.9-3.9,0.63
		c-0.73-6.75-4.8-2.63-7.56-2.67c-0.57-3.92,0.64-6.85,3.73-9.67c4.57-4.17,5.81-10.13,6.26-16.08c0.49-6.54-1.23-13.36,2.91-19.38
		c0.72-1.04-0.29-2.1-0.57-3.14c1.58-0.09,2.82,0.33,3.73,1.82c4.72,7.73,9.52,15.41,14.29,23.11
		C126.64,133.23,126.69,135.08,126.6,136.95z"/>
	<path class="st7" d="M131.05,151.53c0.61-2.42,1.57-4.9-1.13-6.77c0.01-0.36,0.01-0.71,0.01-1.07c2.85-0.06,6.02,0.22,1.86-3.66
		c-0.77-0.72-2.74-3.11,0.39-4.21c0,0,0,0,0,0c1.19,1.61,2.93,0.98,4.49,1.11c1.36,2.09,1.07,4.48,1.21,6.79
		c-0.01,1.46-0.03,2.92-0.04,4.38C136.88,151.85,133.81,151.38,131.05,151.53z"/>
	<path class="st8" d="M107.59,106.63c-0.96,0.05-1.8-0.16-2.31-1.07C106.98,103.91,107.32,105.19,107.59,106.63z"/>
	<path class="st7" d="M133.3,134.71c-0.37,0.37-0.75,0.75-1.12,1.12c0,0,0,0,0,0C132.55,135.46,132.93,135.09,133.3,134.71
		L133.3,134.71z"/>
	<path class="st11" d="M127.66,138.12c0.02-0.39,0.04-0.78,0.07-1.17c0.12,0.28,0.28,0.55,0.35,0.84
		C128.09,137.88,127.81,138.01,127.66,138.12z"/>
	<path class="st7" d="M133.3,134.71c0.08-0.15,0.16-0.3,0.25-0.45C133.47,134.41,133.38,134.56,133.3,134.71L133.3,134.71z"/>
	<path class="st15" d="M151.23,108.89c-1.5-0.01-3-0.02-4.49-0.03c0-0.36-0.04-0.74,0.01-1.09c0.34-2.32-1.08-6.24,2.46-6.15
		c3.55,0.09,1.43,4.01,2,6.18C151.31,108.14,151.23,108.52,151.23,108.89z"/>
	<path class="st12" d="M137.78,91.01c0.01-0.76,0.01-1.52,0.02-2.28c2.41,1.89,5.17,1.19,7.86,1.09c0.45,0.12,0.9,0.24,1.35,0.36
		c-0.09,0.65-0.18,1.3-0.27,1.94C143.75,91.81,140.43,94.15,137.78,91.01z"/>
	<path class="st8" d="M146.75,92.13c0.09-0.65,0.18-1.3,0.27-1.94c1.36-0.2,2.72-0.4,4.08-0.59c0.42,0.14,0.85,0.29,1.27,0.43
		C151.11,92.37,150.21,95.68,146.75,92.13z"/>
	<path class="st4" d="M152.36,90.03c-0.42-0.14-0.85-0.29-1.27-0.43c0.22-1,0.75-1.72,1.78-2c0.97-0.02,1.94-0.04,2.91-0.07
		c0.85,0.22,0.17,2.07-1.2,2.39C153.85,89.95,153.1,89.99,152.36,90.03z"/>
	<path class="st8" d="M95.25,162.7c0.79,0.19,1.88,0.22,1.61,1.38c-0.09,0.41-1.05,0.61-1.61,0.91
		C95.25,164.23,95.25,163.46,95.25,162.7z"/>
	<path class="st8" d="M95.26,158.21c0.79,0.19,1.87,0.23,1.6,1.39c-0.09,0.41-1.05,0.61-1.61,0.91
		C95.26,159.75,95.26,158.98,95.26,158.21z"/>
	<path class="st4" d="M145.66,89.82c-2.68,0.1-5.45,0.8-7.86-1.09c1.07-1.75,5.58-7.84,7.07-8.18c1.9-2.21,4.46,0.21,5.19,0.19
		c0.76,0.05,1.53,0.1,2.29,0.15c0.23,1.2-0.07,2.64,1.43,3.28c-0.29,0.79-0.57,1.59-0.85,2.38
		C150.39,87.37,145.87,83.79,145.66,89.82z"/>
	<path class="st9" d="M152.36,80.9c-0.76-0.05-1.53-0.1-2.29-0.15c0.64-4.02-1.22-8.27,1.14-12.12
		C151.27,72.75,150.83,76.92,152.36,80.9z"/>
	<path class="st9" d="M152.94,86.56c0.28-0.79,0.57-1.59,0.85-2.38c1.92,0.37,3.08,1.2,1.99,3.35c-0.97,0.02-1.94,0.04-2.91,0.07
		C152.72,87.24,152.74,86.89,152.94,86.56z"/>
	<path class="st9" d="M151.21,64.1c-1.44-0.03-2.16-0.79-2.2-2.21c0.92,0.02,1.74,0.23,2.23,1.11
		C151.22,63.37,151.22,63.74,151.21,64.1z"/>
	<path class="st3" d="M160.2,112.3c-0.15-0.08-0.29-0.16-0.44-0.24C159.9,112.14,160.04,112.22,160.2,112.3
		C160.19,112.31,160.2,112.3,160.2,112.3z"/>
	<path class="st3" d="M174.75,93.24c0.09-0.15,0.17-0.31,0.26-0.46c-0.08,0.16-0.16,0.32-0.24,0.48
		C174.77,93.26,174.75,93.24,174.75,93.24z"/>
	<path class="st10" d="M96.32,231.07c0,3.73-0.01,7.47-0.01,11.2c-3.09-0.28-5.8,1.11-8.64,1.97c-2.07,0.63-4.06,0.22-5.92-0.85
		c1.44-3.97,4.77-7.59,2.26-12.29c0.37-0.03,0.75-0.06,1.12-0.09c0.73,0,1.47-0.01,2.2-0.02C90.33,231.02,93.33,231.05,96.32,231.07
		z"/>
	<path class="st9" d="M84.02,231.1c2.51,4.7-0.82,8.32-2.26,12.29c-1.11,0.01-2.22,0.03-3.32,0.04c-0.08-0.45-0.15-0.9-0.23-1.35
		c0,0,0,0.09,0.01,0.09c3.47-1.77,3.23-5.05,2.78-8C80.55,231.28,81.94,231.06,84.02,231.1z"/>
	<path class="st1" d="M78.2,242.08c0.08,0.45,0.15,0.9,0.23,1.35c-1.99,3.36-5.21,1.93-8.02,2.07
		C71.06,239.92,75.54,243.07,78.2,242.08z"/>
	<path class="st12" d="M123.22,229.99c0,0.73,0,1.47,0,2.2c-1.23,0.04-2.55-0.17-3.37,1.12c-0.74,0-1.48,0-2.22,0
		c-1.48-3.6-3.58-2.37-5.79,0c1.93,0,3.85,0,5.78,0c-2.95,4.19-6.58,2.08-10.1,1.1c0.7-1.1,0.73-2.2-0.01-3.3
		c0.9-0.53,1.09-1.37,1.02-2.32c0.04-1.11,0.08-2.22,0.11-3.32c1.16-0.69,1.65-2.4,3.37-2.24c0.89,5.18,5.71,1.15,7.87,3.35
		C120.65,228.06,121.05,229.89,123.22,229.99z"/>
	<path class="st1" d="M108.53,228.8c0.08,0.95-0.11,1.79-1.01,2.32c-3.74,1.72-7.46,0.52-11.19-0.05c-2.99-0.02-5.99-0.05-8.98-0.07
		c0.37-2.3,2.13-2.12,3.8-2.17C96.94,228.67,102.73,227.2,108.53,228.8z"/>
	<path class="st1" d="M84.02,231.1c-2.08-0.04-3.47,0.18-3.03,3.06c0.45,2.95,0.69,6.23-2.78,8c0.03-4.05,0.05-8.09,0.08-12.14
		c0.42-0.4,0.84-0.8,1.26-1.21c1.97,0.47,4.79-1.25,5.59,2.2C84.76,231.05,84.39,231.07,84.02,231.1z"/>
	<path class="st11" d="M206.11,208.66c-0.05-1.11-0.09-2.23-0.14-3.34c4.92,0.09,9.67-1.88,14.63-1.22
		c-1.18,3.97-4.32,4.56-7.82,4.55C210.56,208.64,208.34,208.65,206.11,208.66z"/>
	<path class="st7" d="M194.02,192.87c2.24,0.27,3.73,2.79,6.6,1.69c1.32-0.51,3.15,0.78,3.31,2.85c-3.95,1.94-6.64-1.84-10.07-2.22
		C193.92,194.41,193.97,193.64,194.02,192.87z"/>
	<path class="st9" d="M210.62,197.46c-0.08,0.15-0.17,0.3-0.25,0.45C210.45,197.76,210.53,197.61,210.62,197.46
		C210.61,197.46,210.62,197.46,210.62,197.46z"/>
	<path class="st2" d="M225.82,209.84c-0.97-0.01-1.94-0.02-2.9-0.02c2.05-7.91,5.26-0.82,7.94-0.61
		C229.17,209.42,227.5,209.63,225.82,209.84z"/>
	<path class="st5" d="M225.82,209.84c1.68-0.21,3.36-0.42,5.03-0.64c0.37,0.01,0.73,0.02,1.1,0.04c1.58,6.35-2.88,3.94-5.69,3.91
		C226.12,212.05,225.97,210.95,225.82,209.84z"/>
	<path class="st3" d="M180.36,199.7c0,0.37,0,0.75,0,1.12c0,0-0.02,0.01-0.02,0.01c-1.98,1.51-4.17,3.01,0.04,4.47
		c-0.03,0.35-0.03,0.69,0.01,1.04c-0.01,0.41-0.03,0.81-0.04,1.22c-0.14,0.11-0.42,0.26-0.4,0.31c0.1,0.28,0.27,0.54,0.41,0.8
		c0,0.38-0.01,0.75-0.01,1.13c-1.48-0.38-2.97-0.75-4.45-1.13c0-1.79,0-3.59,0-5.38c-0.39,0.02-0.78,0.03-1.17,0.05
		c0,3.65,0,7.3,0,10.95c-0.92,0.02-1.74,0.24-2.23,1.11c-0.73,0-1.47,0-2.2,0c-0.93,0.02-1.77,0.23-2.26,1.14
		c-0.75,1.1-1.5,1.1-2.25-0.01c0.38-0.75,0.76-1.49,1.14-2.24c0.08-0.16,0.16-0.31,0.23-0.47c-0.09,0.15-0.18,0.29-0.26,0.44
		c-2.6-0.01-5.2-0.01-7.81-0.02c-0.16-0.07-0.33-0.15-0.49-0.22c0.15,0.09,0.29,0.19,0.44,0.28c0.38,0.74,0.76,1.48,1.14,2.22
		c-1.49,0-2.97,0-4.46,0c-0.5-0.88-1.33-1.1-2.25-1.12c-0.15-0.8-0.3-1.6-0.45-2.4c-0.14,0.09-0.38,0.15-0.42,0.27
		c-0.32,0.95,0.09,1.62,0.87,2.13c0,0.37,0,0.75,0.01,1.12l-0.01,0c-1.24,0.02-2.55-0.18-3.36,1.12c-1.68,0.22-3.89-0.76-4.47,1.97
		c-5.56,2.05-11.21-0.91-16.78,0.31c-1.17-0.68-1.63-2.42-3.38-2.24c0.11-1.77-0.28-3.41,1.85-4.77c1.58-1,5.98-2.63,2.79-5.11
		c-2.64-2.05-0.31-5.76-3.61-6.77c-2.3-0.7-4.99-2.21-4.82,2.18c0.06,1.55-0.56,1.96-1.82,2.1c-0.01-1.87-0.02-3.73-0.02-5.6
		c2.96-1.98,6.43-3.53,6.74-7.8c0.49-0.79,0.99-1.58,1.48-2.37c3.69,0.57,7.75,2.19,8.6-1.16c-2.24,3.81,4.92,4.12,6.38,7.83
		c2.21,5.6,8,3.21,12.47,3.46c1.69,0.07,3.39,0.17,3.51-2.24c0,0,0,0,0,0.01c2.94,0.28,3.86-3.5,6.74-3.34
		c0.15-0.1,0.43-0.25,0.42-0.3c-0.09-0.28-0.25-0.55-0.39-0.81c-0.02-0.78-0.03-1.57-0.05-2.35c0.76-0.03,1.52-0.05,2.29-0.08
		c1,4.31,4.47,1.69,6.75,2.41l-0.01-0.01C176.18,195.57,174.8,200.5,180.36,199.7z"/>
	<path class="st10" d="M193.76,189.63c0.03,1.11,0.06,2.21,0.1,3.32c-3.58,1.35-3.68,5.11-3.15,7.35c1.3,5.46-1.32,10.96,0.83,16.24
		c-3.76-2.71-7.05-5.32-4.52-10.96c1.6-3.56,1.79-8.08,1.54-11.64C188.18,188.47,191.04,189.8,193.76,189.63z"/>
	<path class="st7" d="M180.35,209.79c0-0.38,0.01-0.75,0.01-1.13c0-0.37,0-0.74-0.01-1.11c0.01-0.41,0.03-0.81,0.04-1.22
		c3.06,6.5,1.36,13.51,2.19,20.25c-1.05-0.02-2.1-0.03-3.15-0.05c-0.79-0.06-1.58-0.12-2.38-0.18c0.74-0.97,2.27-1.37,2.13-2.98
		C181.64,219.03,179.78,214.3,180.35,209.79z"/>
	<path class="st1" d="M180.38,205.3c-4.2-1.45-2.02-2.96-0.04-4.47c0.01,1.14,0.02,2.28,0.03,3.41
		C180.38,204.59,180.38,204.95,180.38,205.3z"/>
	<path class="st13" d="M119.85,233.32c0.81-1.3,2.13-1.08,3.37-1.12c0.37,0.37,0.73,0.73,1.1,1.1
		C122.82,233.3,121.34,233.31,119.85,233.32z"/>
	<path class="st15" d="M112.01,223.23c-1.72-0.15-2.21,1.55-3.37,2.24c-0.06-0.72-0.13-1.43-0.19-2.15
		c0.03-0.77,0.05-1.54,0.08-2.31c0.09-1.24,0.29-2.52-1-3.35c0.1-2.92-0.03-5.46-4.19-3.69c-2.41,1.03-4.68-0.48-7.01-0.83
		c0.02-1.86,0.05-3.71,0.07-5.57c3,0.31,5.81-1.11,9.11,0.28c2.97,1.24,1.49-2.29,2.04-3.68c2-1.97,0.75-4.48,1.13-6.73
		c1.95,0.23,1.94,1.66,2.28,3.19c1.56,7.12,0.93,14.32,1.08,21.49C112.03,222.5,112.02,222.87,112.01,223.23z"/>
	<path class="st11" d="M96.39,207.57c-0.02,1.86-0.05,3.71-0.07,5.57c-0.43-0.07-0.87-0.14-1.3-0.21c-1.97-1.64-4.34-0.64-6.5-0.98
		c-0.41-3.37-5.51-1.82-5.69-5.43C87.35,206.91,92.04,205.08,96.39,207.57z"/>
	<path class="st4" d="M97.39,190.62c2.98,0.94,6.03-2.19,8.99,0.14c0.45,3.53-2.61,4.53-4.65,4.56c-2.32,0.03-3.65,1.22-5.35,2.08
		c-0.1-0.37-0.2-0.75-0.3-1.12c-0.04-0.7-0.07-1.4-0.11-2.1C96.31,192.93,96.16,191.5,97.39,190.62z"/>
	<path class="st11" d="M96.39,197.4c1.7-0.85,3.03-2.05,5.35-2.08c2.03-0.03,5.09-1.03,4.65-4.56c0.33-0.01,0.65,0,0.98,0.03
		c-0.02,2.2-0.04,4.39-0.06,6.59c-3.28,1.18-6.57,2.36-9.86,3.54C96.13,200.03,96.34,198.69,96.39,197.4z"/>
	<path class="st1" d="M97.44,200.92c3.29-1.18,6.57-2.36,9.86-3.54c0.05,1.13,0.1,2.27,0.14,3.4c-1.71-0.09-3.12,0.51-4.44,1.61
		C100.53,204.45,98.76,203.42,97.44,200.92z"/>
	<path class="st7" d="M108.45,223.33c0.06,0.72,0.13,1.43,0.19,2.15c-0.04,1.11-0.07,2.22-0.11,3.32c-5.8-1.6-11.59-0.13-17.39,0.03
		c-1.67,0.05-3.44-0.13-3.8,2.17c-0.73,0-1.47,0.01-2.2,0.02c-0.8-3.45-3.62-1.73-5.59-2.2c-0.02-1.12-0.05-2.24-0.07-3.35
		c2.48-0.6,4.99-1.83,7.43-1.69C94.11,224.18,101.28,224.17,108.45,223.33z"/>
	<path class="st6" d="M108.45,223.33c-7.17,0.84-14.33,0.86-21.55,0.45c-2.44-0.14-4.95,1.09-7.43,1.69
		c-2.32-2.81,0.14-3.61,2.01-4.16c4.9-1.45,9.86-3.28,15.01-1.18c2.95,1.2,5.34,0.32,7.68-1.36c0.74,0.01,1.48,0.01,2.22,0.02
		c0.06,1.36,0.76,2.13,2.13,2.24C108.5,221.79,108.47,222.56,108.45,223.33z"/>
	<path class="st10" d="M106.39,218.78c-0.74-0.01-1.48-0.01-2.22-0.02c-5.32-0.98-10.4-3.61-15.97-2.64
		c-2.35,0.41-3.05-0.56-3.29-2.52c3.37-0.23,6.74-0.45,10.11-0.67c0.43,0.07,0.87,0.14,1.3,0.21c2.33,0.35,4.6,1.86,7.01,0.83
		c4.16-1.77,4.29,0.77,4.19,3.69C107.15,218.04,106.77,218.41,106.39,218.78z"/>
	<path class="st1" d="M170.3,215.39c0.73,0,1.47,0,2.2,0c0.74-0.01,1.48-0.01,2.22-0.02c0.01,1.14,0.02,2.27,0.03,3.41
		c-3.56,2.12-7.49,0.5-11.2,1.08c-5.98-0.09-11.95-0.18-17.93-0.27c0.58-2.73,2.79-1.74,4.47-1.97c1.23-0.03,2.55,0.18,3.36-1.12
		c0,0,0.01,0,0.01,0c0.75,0,1.5,0,2.25,0c1.49,0,2.97,0,4.46,0c1.87,0,3.74,0,5.62,0.01c0.74,1.1,1.49,1.11,2.25,0.01
		C168.96,216.49,169.8,216.27,170.3,215.39z"/>
	<path class="st2" d="M145.63,219.6c5.98,0.09,11.95,0.18,17.93,0.27c-2.2,4.48-6.18,2.19-9.15,1.91
		c-5.03-0.48-9.76,0.37-14.55,1.34c-0.68,0-1.37,0-2.05,0c-2.32-1.56-4.91-0.51-7.37-0.73c-1.79-0.16-2.95-0.44-1.58-2.49
		C134.43,218.68,140.08,221.65,145.63,219.6z"/>
	<path class="st1" d="M180.35,209.79c-0.57,4.51,1.29,9.24-1.16,13.59c-1.65,0.56-2.2,0-2.25-1.76c-0.06-2.08,0.8-4.36-0.98-6.19
		c-0.02-2.26-0.04-4.52-0.05-6.77C177.39,209.04,178.87,209.41,180.35,209.79z"/>
	<path class="st10" d="M175.9,208.66c0.02,2.26,0.03,4.52,0.05,6.77c-0.12,1.22,0.08,2.55-1.2,3.35c-0.01-1.14-0.02-2.27-0.03-3.41
		c0.03-0.37,0.04-0.73,0-1.1c0-3.65,0-7.3,0-10.95c0.39-0.02,0.78-0.03,1.17-0.05C175.9,205.07,175.9,206.87,175.9,208.66z"/>
	<path class="st1" d="M137.81,223.12c0.68,0,1.37,0,2.05,0c1.39,0.19,2.38,0.78,2.41,2.36c-2.22,0.02-4.44,0.05-6.66,0.07
		c-0.34-0.09-0.8-0.07-1-0.29c-0.55-0.6-0.02-0.83,0.47-0.87C136.16,224.31,137.2,224.19,137.81,223.12z"/>
	<path class="st4" d="M135.6,225.55c2.22-0.02,4.44-0.05,6.66-0.07c0.36,0.35,0.71,0.7,1.07,1.05c-2.59,0-5.18,0-7.76,0.01
		C135.55,226.2,135.56,225.87,135.6,225.55z"/>
	<path class="st1" d="M171.81,225.04c-0.28-0.44-0.55-0.86-0.81-1.28c0.32-0.15,0.64-0.42,0.97-0.42c0.59-0.01,1.18,0.2,0.86,0.97
		C172.71,224.58,172.27,224.72,171.81,225.04z"/>
	<path class="st1" d="M119.88,205.3c1.25-0.14,1.88-0.56,1.82-2.1c-0.17-4.39,2.52-2.88,4.82-2.18c3.3,1.01,0.96,4.72,3.61,6.77
		c3.19,2.48-1.21,4.11-2.79,5.11c-2.14,1.36-1.75,3-1.85,4.77c-1.3,4.84,2.08,6.37,5.54,7.85c-1.23,0-2.52-0.19-3.32,1.1
		c-1.1,0.64-2.2,1.27-3.3,1.91c0.57,0.63,1.84-0.06,2.19,1.31c-1.16,0.06-2.26,0.11-3.36,0.16c-2.17-0.1-2.58-1.93-3.34-3.41
		C119.88,219.49,119.88,212.39,119.88,205.3z"/>
	<path class="st11" d="M131.02,225.52c-3.46-1.48-6.84-3.02-5.54-7.85c1.74-0.18,2.21,1.56,3.38,2.24c-1.36,2.04-0.2,2.33,1.58,2.49
		c2.46,0.22,5.05-0.83,7.37,0.73c-0.61,1.07-1.65,1.19-2.73,1.27c-0.49,0.03-1.02,0.27-0.47,0.87c0.2,0.22,0.66,0.2,1,0.29
		c-0.04,0.33-0.05,0.66-0.03,0.98c-1.51,0-3.02,0-4.54,0.01C131.05,226.2,131.05,225.86,131.02,225.52z"/>
	<path class="st4" d="M131.02,225.52c0.03,0.34,0.03,0.68,0.02,1.02c-1.11,0.03-2.23,0.05-3.34,0.08
		C128.5,225.33,129.79,225.52,131.02,225.52z"/>
	<path class="st10" d="M135.54,229.99c-0.38-0.01-0.76-0.01-1.15-0.02C134.79,229.23,135.17,229.21,135.54,229.99z"/>
	<path class="st9" d="M155.54,199.66c-4.47-0.26-10.26,2.13-12.47-3.46c-1.47-3.71-8.63-4.02-6.38-7.83
		c-0.85,3.35-4.91,1.73-8.61,1.16c0.97-2.97-2.77-4-2.7-6.59c1.47-0.09,2.83,0.21,2.56-2.34c-0.38-3.64,2.07-5.58,5.47-5.46
		c12.3,0.4,24.49-2.04,36.79-1.13c1.26,1.56,3.04,0.92,4.64,1.1c0.07,1.55,0.15,3.09,0.22,4.64c-2.16,1.5-4.72,2.65-4.61,5.77
		c-1.9-0.01-0.92-3.37-3.33-2.09c-0.93,1.58,0.56,3.76-1.23,5.14c-1.52-0.6-0.89-3.54-3.06-3.14c-2.22,0.4-1.27,2.56-1.6,3.99
		c-2.12,2.29-0.1,5.71-2.17,8.02c0,0,0,0,0,0C157.43,197.48,156.26,198.21,155.54,199.66z M153.78,189.19
		c0.95-3.56,1.15-5.57-0.13-8.73C152.11,183.83,151.95,185.82,153.78,189.19z M155.6,193.27c-0.21-0.25-0.45-0.79-0.83-0.93
		c-0.57-0.2-1.06,0.23-0.91,0.84c0.11,0.44,0.47,0.98,0.86,1.14C155.36,194.59,155.57,194.05,155.6,193.27z"/>
	<path class="st14" d="M174.83,175.1c-1.59-0.17-3.37,0.46-4.63-1.1c0-0.8,0-1.6-0.01-2.4c0-0.93-0.23-1.73-1.15-2.18
		c0.06-0.33,0.06-0.66,0-0.99c0.03-0.77,0.05-1.53,0.08-2.3c0.01-1.14,0.02-2.28,0.03-3.41c3.82-1.31,6.44,2.99,10.15,2.17
		c0,0,0,0.02,0,0.02c-0.03,0.82-0.06,1.64-0.08,2.46C174.13,167.9,175.07,171.84,174.83,175.1z"/>
	<path class="st2" d="M165.88,188.57c1.79-1.38,0.3-3.56,1.23-5.14c2.41-1.29,1.43,2.08,3.33,2.09c-0.1-3.12,2.45-4.27,4.61-5.77
		c2.45,0.53,2.02,2.29,1.44,3.82c-0.73,1.94-0.71,3.91-0.75,5.91c-2.56,0.41-5.25-0.16-7.7,1.07c-0.76,0.03-1.52,0.05-2.29,0.08
		c-0.21-0.08-0.42-0.09-0.63-0.02C165.38,189.93,165.63,189.25,165.88,188.57z"/>
	<path class="st7" d="M168.04,190.54c2.45-1.23,5.14-0.66,7.7-1.07c6.26,1.28,3.81,6.48,4.62,10.23c-5.56,0.8-4.18-4.13-5.57-6.76
		c0.08-0.14,0.16-0.27,0.24-0.41c-0.08,0.14-0.15,0.28-0.23,0.42C172.52,192.23,169.05,194.85,168.04,190.54z"/>
	<path class="st9" d="M185.9,171.79c0.77-0.79,1.54-1.57,2.32-2.36c0.37-0.01,0.74,0.01,1.1,0.05c-0.01,1.52-0.02,3.05-0.03,4.57
		C188.16,173.3,187.03,172.54,185.9,171.79z"/>
	<path class="st15" d="M179.21,167.37c0.03-0.82,0.06-1.64,0.08-2.46c2.06,0.18,3.16,1.29,3.31,3.35
		C181.43,168.15,180.1,168.58,179.21,167.37z"/>
	<path class="st1" d="M192.73,176.31c0.29-0.77,0.62-0.97,1-0.05c0,0-0.5,0.05-0.5,0.05L192.73,176.31z"/>
	<path class="st8" d="M169.15,162.72c-0.01,1.14-0.02,2.28-0.03,3.41c-3.33,0.9-7.46-2.25-10.12,2.01
		c-3.69,0.02-7.39,0.04-11.08,0.06c-0.18-1.82-1.27-1.6-2.73-1.6c-5.44-0.01-10.87-0.31-16.31-0.5c-1.24-0.19-2.63,0.42-3.71-0.74
		c1.14-2.98,3.71-2.64,6.11-2.64C143.89,162.72,156.52,162.72,169.15,162.72z"/>
	<path class="st11" d="M126.6,191.9c-0.31,4.27-3.78,5.82-6.74,7.8c-0.15-4.24-2.76-7.98-2.39-12.37c0.16-1.96-1.58-2.17-3.14-2.19
		c-1.84-0.03-3.68-0.09-5.52-0.13c-0.03-1.4-0.06-2.81-0.08-4.21c0.33-0.09,0.67-0.15,1.02-0.17c2.01,2.07,2.87-0.3,4.01-1.14
		c1.62-1.19,3.65-1.72,5.22-1.11c1.8,0.7,0.71,2.94,0.83,4.49c0.17,2.18,0.04,4.39,0.04,6.68c2.01-0.31,0.99-3.2,3.61-3.2
		C122.27,189.51,124.23,190.84,126.6,191.9z"/>
	<path class="st4" d="M126.6,191.9c-2.37-1.05-4.33-2.38-3.14-5.54c-2.62-0.01-1.6,2.89-3.61,3.2c0-2.29,0.13-4.5-0.04-6.68
		c-0.12-1.55,0.96-3.79-0.83-4.49c-1.57-0.61-3.59-0.08-5.22,1.11c-1.14,0.84-2,3.2-4.01,1.14c3.93-3.5,6.34-8.89,12.29-9.88
		c1.15,2.83-2.05,6.83,2.34,8.8c0,1.23-0.33,2.56,0.99,3.4c-0.07,2.59,3.68,3.62,2.71,6.59C127.59,190.32,127.09,191.11,126.6,191.9
		z"/>
	<path class="st9" d="M128.87,166.1c5.44,0.19,10.87,0.49,16.31,0.5c1.46,0,2.55-0.21,2.73,1.6c-4.48,0.78-9.22-1.26-13.54,1.26
		c-2.61-0.49-4.67,0.7-6.61,2.21c-1.52-0.38-3.04-0.76-4.55-1.13c-0.34-0.89-2.53-1.56-0.05-2.75
		C125.01,166.9,127.4,168.06,128.87,166.1z"/>
	<path class="st11" d="M123.2,170.54c1.52,0.38,3.04,0.76,4.55,1.13c-1.74,2.36,0.43,6.39-3.37,7.86c-4.4-1.97-1.19-5.96-2.34-8.8
		C122.42,170.67,122.81,170.61,123.2,170.54z"/>
	<path class="st9" d="M108.81,185c1.84,0.05,3.68,0.1,5.52,0.13c1.56,0.03,3.3,0.24,3.14,2.19c-0.36,4.39,2.25,8.13,2.39,12.37
		c0.01,1.87,0.02,3.73,0.02,5.6c0,7.1,0,14.19,0,21.29c-2.16-2.21-6.98,1.83-7.87-3.35c0.01-0.37,0.01-0.73,0.01-1.1
		c0.37,0,0.73-0.01,1.1-0.01c0.16,0.08,0.31,0.16,0.47,0.24c-0.15-0.09-0.3-0.17-0.45-0.26c1.99-5.53,4.15-11.32,2.68-17.07
		c-1.22-4.77-1.11-10.8-7.1-13.22C108.75,189.54,108.78,187.27,108.81,185z"/>
	<path class="st12" d="M108.71,191.81c6,2.41,5.89,8.45,7.1,13.22c1.47,5.76-0.68,11.54-2.68,17.07l-0.02,0.02
		c-0.37,0-0.73,0.01-1.1,0.01c-0.15-7.17,0.47-14.38-1.08-21.49c-0.33-1.53-0.33-2.96-2.28-3.19
		C108.68,195.57,108.7,193.69,108.71,191.81z"/>
	<path class="st2" d="M152.94,86.56c-0.2,0.33-0.22,0.68-0.07,1.04c-1.03,0.28-1.56,0.99-1.78,2c-1.36,0.2-2.72,0.4-4.08,0.59
		c-0.45-0.12-0.9-0.24-1.35-0.36C145.87,83.79,150.39,87.37,152.94,86.56z"/>
	<path class="st13" d="M117.62,233.33c-1.93,0-3.85,0-5.78,0C114.04,230.95,116.14,229.72,117.62,233.33
		C117.62,233.32,117.62,233.33,117.62,233.33z"/>
	<path class="st11" d="M165.13,190.61c0.21-0.07,0.42-0.07,0.63,0.02c0.02,0.78,0.03,1.57,0.05,2.35c-0.01,0.37-0.02,0.74-0.03,1.12
		c-2.87-0.15-3.8,3.62-6.74,3.34c2.07-2.31,0.05-5.72,2.17-8.01C162.3,190.57,162.88,193.34,165.13,190.61z"/>
	<path class="st7" d="M165.79,216.52c-1.87,0-3.74,0-5.62-0.01c-0.38-0.74-0.76-1.48-1.14-2.22l0.06-0.06
		c2.6,0.01,5.2,0.01,7.81,0.02l0.03,0.03C166.55,215.03,166.17,215.77,165.79,216.52z"/>
	<path class="st11" d="M155.54,199.66c0.72-1.45,1.9-2.18,3.51-2.24C158.93,199.83,157.23,199.74,155.54,199.66z"/>
	<path class="st7" d="M153.47,215.39c-0.78-0.51-1.19-1.18-0.87-2.13c0.04-0.12,0.28-0.18,0.42-0.27
		C153.17,213.79,153.32,214.59,153.47,215.39L153.47,215.39z"/>
	<path class="st7" d="M153.47,216.51c-0.82,1.29-2.13,1.08-3.36,1.12C150.92,216.34,152.23,216.54,153.47,216.51z"/>
	<path class="st7" d="M170.3,215.39c-0.5,0.88-1.33,1.1-2.26,1.14C168.52,215.62,169.36,215.41,170.3,215.39z"/>
	<path class="st7" d="M174.73,214.28c0.03,0.37,0.03,0.73,0,1.1c-0.74,0.01-1.48,0.01-2.22,0.02
		C172.99,214.51,173.81,214.3,174.73,214.28z"/>
	<path class="st7" d="M155.72,216.51c-0.75,0-1.5,0-2.25,0c0-0.37,0-0.75-0.01-1.12l0,0C154.39,215.41,155.22,215.63,155.72,216.51z
		"/>
	<path class="st7" d="M166.9,214.25c0.09-0.15,0.18-0.29,0.26-0.44c-0.08,0.16-0.16,0.31-0.23,0.47
		C166.93,214.28,166.9,214.25,166.9,214.25z"/>
	<path class="st1" d="M180.35,207.55c0.01,0.37,0.01,0.74,0.01,1.11c-0.14-0.26-0.31-0.52-0.41-0.8
		C179.93,207.81,180.21,207.66,180.35,207.55z"/>
	<path class="st7" d="M159.04,214.29c-0.15-0.09-0.29-0.19-0.44-0.28c0.16,0.07,0.33,0.15,0.49,0.22
		C159.1,214.24,159.04,214.29,159.04,214.29z"/>
	<path class="st7" d="M165.78,194.09c0.01-0.37,0.02-0.74,0.03-1.12c0.14,0.27,0.3,0.53,0.39,0.81
		C166.21,193.84,165.93,193.99,165.78,194.09z"/>
	<path class="st9" d="M106.39,218.78c0.38-0.37,0.75-0.74,1.13-1.11c1.29,0.83,1.09,2.11,1,3.35
		C107.15,220.91,106.45,220.15,106.39,218.78z"/>
	<path class="st8" d="M124.38,179.54c3.81-1.47,1.64-5.5,3.37-7.86c1.95-1.5,4-2.69,6.61-2.21c0,0,0.03,0.02,0.03,0.02
		c1.72,3.54,3.65,3.17,5.7,0.29c0.7,0.02,1.39,0.04,2.09,0.06c-0.03,2.53,1.48,3.37,3.63,2.84c8.07-1.99,16.26-0.49,24.37-1.08
		c0,0.8,0,1.6,0.01,2.4c-12.3-0.91-24.5,1.53-36.79,1.13c-3.4-0.11-5.85,1.82-5.47,5.46c0.27,2.55-1.09,2.25-2.56,2.34
		C124.04,182.1,124.37,180.77,124.38,179.54z"/>
	<path class="st1" d="M165.13,190.61c-2.25,2.73-2.83-0.04-3.91-1.19c0.33-1.43-0.62-3.59,1.6-3.99c2.16-0.39,1.54,2.54,3.06,3.14
		C165.63,189.25,165.38,189.93,165.13,190.61z"/>
	<path class="st3" d="M153.78,189.19c-1.83-3.37-1.67-5.36-0.13-8.73C154.93,183.61,154.73,185.63,153.78,189.19z"/>
	<path class="st3" d="M155.6,193.27c-0.03,0.78-0.24,1.33-0.88,1.06c-0.39-0.16-0.75-0.7-0.86-1.14c-0.15-0.62,0.35-1.04,0.91-0.84
		C155.15,192.48,155.39,193.02,155.6,193.27z"/>
	<path class="st9" d="M170.19,171.61c-8.11,0.58-16.31-0.92-24.37,1.08c-2.14,0.53-3.66-0.31-3.63-2.84
		c8.95-0.14,17.9-0.27,26.85-0.41C169.96,169.88,170.19,170.68,170.19,171.61z"/>
	<path class="st4" d="M169.04,169.43c-8.95,0.14-17.9,0.27-26.85,0.41c-0.7-0.02-1.39-0.04-2.09-0.06c-1.9-0.1-3.8-0.19-5.7-0.29
		c0,0-0.03-0.02-0.03-0.02c4.32-2.52,9.06-0.48,13.54-1.26c3.69-0.02,7.39-0.04,11.08-0.06c3.35,0.1,6.7,0.19,10.05,0.29
		C169.1,168.77,169.1,169.1,169.04,169.43z"/>
	<path class="st6" d="M169.04,168.44c-3.35-0.1-6.7-0.19-10.05-0.29c2.66-4.26,6.79-1.12,10.12-2.01
		C169.09,166.91,169.07,167.67,169.04,168.44z"/>
	<path class="st4" d="M174.8,192.95c0.08-0.14,0.15-0.28,0.23-0.42c-0.08,0.14-0.16,0.27-0.24,0.41
		C174.79,192.94,174.8,192.95,174.8,192.95z"/>
	<path class="st12" d="M113.14,222.1c0.15,0.09,0.3,0.17,0.45,0.26c-0.16-0.08-0.31-0.16-0.47-0.24
		C113.12,222.12,113.14,222.1,113.14,222.1z"/>
	<path class="st9" d="M134.4,169.49c1.9,0.1,3.8,0.19,5.7,0.29C138.04,172.66,136.12,173.03,134.4,169.49z"/>
	<path class="st4" d="M149.36,80.55"/>
	<g id="Base_1_">
		<path class="st16" d="M0,0v300h300V0H0z M292.5,292.5H7.5V7.5h285V292.5z"/>
	</g>
</g>
</svg>
