<?xml version="1.0" encoding="utf-8"?>
<!-- Generator: Adobe Illustrator 23.0.1, SVG Export Plug-In . SVG Version: 6.00 Build 0)  -->
<svg version="1.1" xmlns="http://www.w3.org/2000/svg" xmlns:xlink="http://www.w3.org/1999/xlink" x="0px" y="0px"
	 viewBox="0 0 300 300" style="enable-background:new 0 0 300 300;" xml:space="preserve">
<style type="text/css">
	.st0{fill:#424242;}
	.st1{fill:#0E1010;}
	.st2{fill:#76797A;}
	.st3{fill:#070807;}
	.st4{fill:#212120;}
	.st5{fill:#393B3B;}
	.st6{fill:#262626;}
	.st7{fill:#2E2E2E;}
	.st8{fill:#242424;}
	.st9{fill:#1E1E1E;}
	.st10{fill:#696D6F;}
	.st11{fill:#575A5B;}
	.st12{fill:#9E9E9E;}
</style>
<g id="background">
	<rect x="4" y="5" class="st0" width="291" height="291"/>
</g>
<g id="Layer_1">
	<path class="st1" d="M109.15,219.33c-2.66-2.75-14.28-16.07-18.36-19.54c-0.1-1.97-8.6-19.22-11.4-25.57
		c-3.91-8.85-6.14-13.16-6.86-15.33c-1.92-5.76-2.58-10.25-3.65-17.56c-0.92-6.23-1.42-11.82-1.69-16.58
		c0.41-1.09,1.18-3.13,3.11-4.84c1.41-1.24,3.1-2.2,4.84-3.1c1.33-0.09,2.5-0.46,3.18-1.74c1.53,0.26,3.06,0.51,4.58,0.77
		c1.35,4.9,3.55,9.39,6.52,13.51c0.89,3.85,2.94,6.95,6.03,9.39c3.95,6.21,10.1,8.01,16.93,8.48c0.16,2.18,0.94,3.86,3.36,4.25
		c0.55,0.98,1.1,1.96,1.64,2.93c3.05,9.41,8.52,17.67,12.58,26.6c0.52,1.04,1.04,2.08,1.56,3.11c3.3,12.97,3.61,26.54,7.93,39.31
		C140.21,227.14,113.98,224.33,109.15,219.33z M107.95,206.24c8.08,7.15,17.88,4.69,20.1-5.37c0.93-4.21,0.77-8.73-0.26-13.09
		c-1.05-4.44-3.01-6.1-7.61-3.55c-5.86,3.24-11.76,6.56-18.51,7.73c-2.06,0.36-4.57,0.67-5.23,2.71c-0.89,2.75,1.93,3.81,3.65,5.24
		C102.96,201.71,103.93,205.87,107.95,206.24z M82.72,165.25c0.68,4.09,1.12,8.23,2.11,12.24c0.73,2.96,2.85,5.63,6.16,4.61
		c8.66-2.66,17.27-5.47,24.81-10.9c3.39-2.44,2.93-4.77,0.83-7.04c-5.07-5.49-9.65-11.56-17.06-14.44
		c-6.55-2.54-12.99-0.89-14.67,4.8C83.9,157.94,82.38,161.44,82.72,165.25z"/>
	<path class="st2" d="M89.32,107.44c3.77-1.93,7.55-3.86,11.32-5.79c5.12-2.74,10.25-5.48,15.37-8.21c3.63-2.09,7.27-4.17,10.9-6.26
		c4.7-2.48,9.4-4.97,14.1-7.45c3.74-2.07,7.48-4.14,11.21-6.21c4.39-1.59,8.72-3.31,12.34-6.38c1.01-0.28,2.01-0.56,3.02-0.83
		c2.21-0.25,3.97-2.3,6.41-1.64c-0.01,0.68-0.01,1.36-0.02,2.04c-2.1,0.84-2.37,3.06-3.52,4.62c-6.78,2.98-14.03,4.99-20.12,9.44
		c-3.21,2.35-8.28,2.3-9.47,7.27c-3.11,0.34-6.22,0.69-9.34,1.03c-16.38,8.6-33.14,16.52-48.62,26.76
		c-1.53-0.26-3.06-0.51-4.58-0.77C80.41,110.26,86.34,110.97,89.32,107.44z"/>
	<path class="st3" d="M139.45,223.42c-4.33-12.76-4.64-26.34-7.93-39.31c1.57-0.51,3.14-1.03,4.7-1.54
		c3.74,0.33,6.18-1.52,7.83-4.69c1.71-0.08,3.52,0.12,4.67-1.6c2.87-0.5,5.72-1.03,6.31-4.64c0.54-1.02,1.07-2.03,1.61-3.05
		c0.5-0.01,1-0.04,1.5-0.09c9.74-1.53,17.5-6.37,23.51-14.12l0,0.01c6.3-1.78,11.73-5.16,17.36-8.45
		c7.9-4.62,15.09-11.09,24.86-11.92c1.1,8.83,7.76,37.58,1.6,42.22c-4.77,0.92-33.43,18.57-37.77,21.93
		c-4.81,1.74-21.29,11.22-24.97,15.7C162.22,214.39,143.22,223.75,139.45,223.42z M168.75,201.12c6.22-1.27,10.38-2.03,9.68-7.86
		c-0.38-3.13-2.25-4.88-5.19-4.2C165.61,190.82,172.17,196.77,168.75,201.12z M192.47,182.52c1.23,1.07-2.17,4.31,1.58,4.43
		c3.37,0.11,5.57-2.51,6.14-5.68c0.54-3-2.24-5.34-4.29-5.44C191.73,175.61,192.91,179.54,192.47,182.52z M145.95,206.91
		c3.48,1.39,3.39,7.05,8.25,4.41c1.45-0.79,2.68-2.94,1.48-4.71C153.36,203.18,150.39,204.47,145.95,206.91z M216.28,164.11
		c-1.77-0.02-2.96,0.54-2.49,2.21c0.71,2.5,1.58,5.16,4.9,5.11c2.13-0.03,3.51-1.51,3.29-3.52
		C221.61,164.45,218.04,165.35,216.28,164.11z"/>
	<path class="st4" d="M158.14,168.51c-0.5,0.05-1,0.08-1.5,0.09c0.46-6.06-3.45-3.67-6.32-3.26c-1.96-1.89-5.73-2.24-3.87-6.9
		c2-5-3.8-4.49-6.03-6.22c-2.77-2.15-3.91,0.47-4.4,3.02c-0.38,2.03-2.36,2.61-3.62,3.83c-3.48,3.37-2.8,6.39,1.65,7.22
		c5.99,1.12,5.57,3.78,3.31,7.98c-0.81,1.5-0.77,3.45-1.12,5.2c0,0.51-0.01,1.02-0.03,1.53c-2.08,0-4.16,0-6.24,0
		c-4.06-8.93-9.53-17.19-12.58-26.6c5.52-2.65,12.69-3.19,14.08-11.08c1.64-1.91,3.79-2.8,6.23-3.09
		c8.91,0.28,17.81,0.65,26.72,0.74c1.73,0.02,3.67-1.29,5.14,0.21c2.04,2.09-0.04,3.72-1.05,5.43c-0.67,1.13-1.22,2.32,0.04,3.45
		c13.37-2.81,13.39-2.83,13.79-13.8c0.02-0.48,0.11-1.22,0.41-1.38c8.26-4.38,6.07-15.49,13.93-20.85c4.25-2.9,6.03-3.84,10.36-1.05
		c5.79,3.74,7.04,10.81,12.2,14.81c-0.29,2.21-2.9,3.94-3.53,2.8c-3.62-6.62-10.48-1.5-14.84-4.64c-1.63-1.17-3.34-1.59-5.01-0.24
		c-1.98,1.61-1.81,3.68-0.62,5.62c1.88,3.06,0.42,5.22-0.66,8.32c-2.43,6.99-9.62,9.05-12.92,14.76c0,0,0-0.01,0-0.01
		c-6.06-0.97-8.88,5.36-14.11,6.25c-2.15-2.28-4.89-2.11-7.14-0.79c-2.59,1.51-2.35,3.26,0.88,3.93
		C160.23,165.35,159.18,166.93,158.14,168.51z"/>
	<path class="st2" d="M112.38,147.21c-6.83-0.46-12.98-2.27-16.93-8.48c2.54-1.68,5.11-3.32,7.62-5.06
		c12.36-8.57,25.78-15.21,39.24-21.8c4.87,0.67,10.49-1.19,13.67,4.85c1.17,2.21,4.2,1.5,6.46,1.82
		C146.38,129.19,129.16,137.82,112.38,147.21z"/>
	<path class="st3" d="M82.72,165.25c-0.34-3.82,1.18-7.31,2.18-10.73c1.68-5.69,8.12-7.34,14.67-4.8
		c7.41,2.87,11.98,8.95,17.06,14.44c2.1,2.27,2.57,4.59-0.83,7.04c-7.54,5.43-16.15,8.24-24.81,10.9c-3.31,1.02-5.44-1.65-6.16-4.61
		C83.84,173.49,83.4,169.34,82.72,165.25z"/>
	<path class="st4" d="M82.91,115.84c15.48-10.24,32.24-18.16,48.62-26.76c-0.01,1.96-0.02,3.91-0.03,5.87
		c-2.78,0.08-6.12-0.75-6.21,3.76c-0.08,4.24,2.96,5,6.2,5.54c-0.21,0.73-0.18,1.82-0.66,2.15c-13.13,8.85-25.55,19-41.4,22.96
		C86.46,125.23,84.26,120.74,82.91,115.84z"/>
	<path class="st5" d="M89.42,129.34c15.85-3.95,28.27-14.1,41.4-22.96c0.48-0.33,0.45-1.42,0.66-2.15c0,0,0,0,0,0
		c5.42,0.46,9.71-1.41,12.6-6.15c1.49,0.01,2.97,0.02,4.46,0.02c0.3,1.89,1.34,2.97,3.32,3c1.04,0.02,2.09,0.03,3.13,0.05
		c2.44,1.5,5.13,1.68,7.89,1.53c3.41,1.63,2.99,4.72,2.92,7.68c-2.98,1.03-5.29,0.57-8.5-0.83c-4.7-2.06-10.72-2.84-15.01,2.34
		c-13.46,6.58-26.88,13.23-39.24,21.8c-2.51,1.74-5.08,3.38-7.62,5.06C92.37,136.3,90.32,133.19,89.42,129.34z"/>
	<path class="st5" d="M112.38,147.21c16.78-9.4,34-18.03,50.06-28.66c0.64-0.43,1.3-0.86,1.95-1.3c0.53-0.14,1.06-0.29,1.6-0.43
		c2.47,0.15,4.26-1.24,6.35-2.34c10.04-5.26,18.26-14.88,31.19-13.38c-11.05,6.83-22.04,13.76-33.17,20.45
		c-10.75,6.46-22.6,11-32.66,18.67c-2.45,0.29-4.59,1.18-6.23,3.09c-5.82,1.59-10.93,4.57-15.72,8.15
		C113.32,151.08,112.54,149.39,112.38,147.21z"/>
	<path class="st6" d="M100.08,199.91c-1.72-1.43-4.53-2.5-3.65-5.24c0.66-2.03,3.17-2.35,5.23-2.71c6.75-1.17,12.65-4.5,18.51-7.73
		c4.61-2.55,6.56-0.89,7.61,3.55c1.03,4.35,1.19,8.88,0.26,13.09c-2.22,10.06-12.02,12.52-20.1,5.37c1.38-3.33,6.8-6.81,3.53-9.64
		C108.97,194.43,103.29,196.42,100.08,199.91z"/>
	<path class="st7" d="M100.08,199.91c3.21-3.49,8.89-5.48,11.4-3.32c3.27,2.83-2.15,6.32-3.53,9.64
		C103.93,205.87,102.96,201.71,100.08,199.91z"/>
	<path class="st8" d="M115.74,151.47c4.79-3.58,9.9-6.55,15.72-8.15c-1.39,7.89-8.56,8.43-14.08,11.08
		C116.84,153.42,116.29,152.44,115.74,151.47z"/>
	<path class="st9" d="M129.96,181c2.08,0,4.16,0,6.24,0c0.01,0.52,0.01,1.05,0.02,1.57c-1.57,0.51-3.14,1.03-4.7,1.54
		C131,183.08,130.48,182.04,129.96,181z"/>
	<path class="st10" d="M165.98,116.83c-0.53,0.14-1.06,0.29-1.59,0.42c0.48-2.3,0.96-4.59,1.44-6.88c0.06-2.95,0.48-6.04-2.92-7.68
		c-0.31-3.86-3.64-4.77-6.25-6.39c-4.99-3.28-9.78-6.95-15.79-8.26c1.2-4.98,6.26-4.92,9.47-7.27c6.09-4.45,13.33-6.46,20.12-9.44
		c0.1,4.93,0.37,9.81,3.44,14.01c1.89,4.36,3.96,8.55,9.32,9.52c0.05,3.19,0.32,6.48-4.45,6.34c-1.58-0.05-4.1,0.64-3.84,1.84
		C176.6,110.84,167.9,111.6,165.98,116.83z"/>
	<path class="st9" d="M140.86,88.04c6.01,1.32,10.8,4.99,15.79,8.27c-0.55,1.62-1.09,3.24-1.64,4.86c-1.04-0.02-2.09-0.03-3.13-0.05
		c-0.14-2.07-1.24-3.08-3.32-3c-1.49-0.01-2.97-0.02-4.46-0.03c-4.28-4.01-7.19,2.1-11.02,1.48c-0.53-1.54-1.05-3.08-1.58-4.63
		c0.01-1.96,0.02-3.91,0.03-5.87C134.64,88.73,137.75,88.39,140.86,88.04z"/>
	<path class="st5" d="M173.89,85.34c-3.06-4.2-3.34-9.08-3.44-14.01c1.14-1.56,1.42-3.78,3.51-4.62
		c4.13,6.77,8.26,13.54,12.39,20.31C182.2,86.46,178.05,85.9,173.89,85.34z"/>
	<path class="st9" d="M181.64,154.4c3.3-5.72,10.49-7.77,12.92-14.76c1.08-3.1,2.54-5.25,0.66-8.32c-1.19-1.94-1.36-4.01,0.62-5.62
		c1.67-1.35,3.38-0.94,5.01,0.24c4.36,3.14,11.23-1.98,14.84,4.64c0.62,1.14,3.24-0.59,3.52-2.8c0.54-0.01,1.08-0.02,1.62-0.03
		c2.75,1.19,3.57,6.27,3.03,6.28c-9.77,0.83-16.96,7.3-24.86,11.92C193.37,149.23,187.94,152.61,181.64,154.4z"/>
	<path class="st9" d="M136.24,179.47c0.35-1.75,0.32-3.7,1.12-5.2c2.26-4.2,2.67-6.86-3.31-7.98c-4.45-0.83-5.13-3.86-1.65-7.22
		c1.26-1.22,3.24-1.8,3.62-3.83c0.48-2.55,1.62-5.17,4.4-3.02c2.23,1.73,8.03,1.23,6.03,6.22c-1.86,4.65,1.91,5.01,3.87,6.9
		c0.53,2.08,1.05,4.16,1.58,6.24c-2.01,0.93-3.12,2.46-3.17,4.71c-1.15,1.72-2.96,1.52-4.67,1.6
		C141.45,178.41,138.84,178.94,136.24,179.47z"/>
	<path class="st9" d="M158.14,168.51c1.05-1.58,2.09-3.16,3.14-4.73c2.47-0.27,4.66-1.13,6.26-3.13c5.23-0.89,8.05-7.22,14.11-6.25
		C175.63,162.14,167.88,166.98,158.14,168.51z"/>
	<path class="st8" d="M151.89,171.58c-0.53-2.08-1.05-4.16-1.58-6.24c2.88-0.4,6.78-2.8,6.32,3.26c-0.53,1.02-1.07,2.03-1.61,3.05
		C153.98,171.62,152.93,171.6,151.89,171.58z"/>
	<path class="st1" d="M136.24,179.47c2.6-0.53,5.21-1.06,7.81-1.59c-1.65,3.16-4.08,5.02-7.83,4.69c-0.01-0.52-0.01-1.05-0.02-1.57
		C136.22,180.49,136.23,179.98,136.24,179.47z"/>
	<path class="st1" d="M151.89,171.58c1.05,0.02,2.09,0.05,3.14,0.07c-0.58,3.61-3.43,4.14-6.31,4.64
		C148.76,174.04,149.88,172.51,151.89,171.58z"/>
	<path class="st11" d="M173.89,85.34c4.16,0.56,8.31,1.12,12.47,1.68c1.45,1.09,2.89,2.18,4.34,3.28c0.12,0.51,0.12,1.02,0.03,1.53
		c-2.75,0.42-6.57-1.76-7.53,3.06l0.02-0.02C177.85,93.89,175.78,89.7,173.89,85.34z"/>
	<path class="st8" d="M220.84,127.74c-0.54,0.01-1.08,0.02-1.62,0.03c-5.16-3.99-6.4-11.07-12.2-14.81
		c-4.33-2.79-6.11-1.84-10.36,1.05c-7.86,5.36-5.67,16.47-13.93,20.85c-0.3,0.16-0.39,0.9-0.41,1.38c-0.4,10.97-0.42,11-13.79,13.8
		c-1.25-1.13-0.71-2.31-0.04-3.45c1.01-1.71,3.1-3.34,1.05-5.43c-1.46-1.5-3.41-0.19-5.14-0.21c-8.91-0.09-17.81-0.47-26.72-0.74
		c10.06-7.67,21.91-12.21,32.66-18.67c11.14-6.69,22.12-13.63,33.17-20.45c0.55,0.1,1.1,0.2,1.65,0.3
		C211.22,109.7,217.22,118.01,220.84,127.74z"/>
	<path class="st11" d="M205.18,101.41c-0.55-0.1-1.1-0.2-1.65-0.3c-12.93-1.5-21.15,8.13-31.19,13.38
		c-2.09,1.09-3.88,2.49-6.35,2.34c1.92-5.23,10.62-5.99,8.93-13.79c-0.26-1.19,2.26-1.88,3.84-1.84c4.76,0.14,4.5-3.15,4.45-6.34
		c0,0-0.02,0.02-0.02,0.02c2.76-0.04,5.52-0.07,8.28-0.11c3.19,0.42,6.4,0.74,9.57,1.3C203.91,96.58,206.66,97.41,205.18,101.41z"/>
	<path class="st10" d="M191.46,94.78c-2.76,0.04-5.52,0.07-8.28,0.11c0.97-4.82,4.78-2.64,7.53-3.06
		C190.97,92.81,191.21,93.79,191.46,94.78z"/>
	<path class="st8" d="M167.54,160.64c-1.61,2.01-3.79,2.86-6.26,3.13c-3.23-0.67-3.47-2.41-0.88-3.93
		C162.65,158.54,165.38,158.37,167.54,160.64z"/>
	<path class="st11" d="M165.82,110.37c-0.48,2.29-0.96,4.58-1.44,6.88c-0.65,0.44-1.31,0.87-1.95,1.3
		c-2.25-0.32-5.28,0.39-6.45-1.82c-3.18-6.05-8.8-4.18-13.67-4.85c4.29-5.18,10.31-4.4,15.01-2.34
		C160.53,110.94,162.84,111.4,165.82,110.37z"/>
	<path class="st3" d="M131.5,94.94c0.53,1.54,1.05,3.08,1.58,4.63c-0.53,1.56-1.06,3.11-1.58,4.67c0,0,0,0,0,0
		c-3.24-0.53-6.28-1.29-6.2-5.54C125.38,94.19,128.72,95.02,131.5,94.94z"/>
	<path class="st4" d="M131.49,104.24c0.53-1.56,1.06-3.11,1.58-4.67c3.82,0.62,6.74-5.5,11.02-1.48
		C141.2,102.82,136.91,104.69,131.49,104.24z"/>
	<path class="st4" d="M155.01,101.16c0.55-1.62,1.09-3.24,1.64-4.86c2.61,1.62,5.94,2.53,6.25,6.39
		C160.14,102.84,157.45,102.66,155.01,101.16z"/>
	<path class="st4" d="M148.55,98.11c2.08-0.08,3.19,0.93,3.32,3C149.89,101.09,148.86,100.01,148.55,98.11z"/>
	<g id="Base_1_">
		<path class="st12" d="M0,0v300h300V0H0z M292.5,292.5H7.5V7.5h285V292.5z"/>
	</g>
</g>
</svg>
