<?xml version="1.0" encoding="utf-8"?>
<!-- Generator: Adobe Illustrator 23.0.1, SVG Export Plug-In . SVG Version: 6.00 Build 0)  -->
<svg version="1.1" xmlns="http://www.w3.org/2000/svg" xmlns:xlink="http://www.w3.org/1999/xlink" x="0px" y="0px"
	 viewBox="0 0 300 300" style="enable-background:new 0 0 300 300;" xml:space="preserve">
<style type="text/css">
	.st0{fill:#424242;}
	.st1{fill:#0E0E0E;}
	.st2{fill:#060606;}
	.st3{fill:#080808;}
	.st4{fill:#0B0B0B;}
	.st5{fill:#1E1E1E;}
	.st6{fill:#585858;}
	.st7{fill:#606061;}
	.st8{fill:#474646;}
	.st9{fill:#181818;}
	.st10{fill:#2F2F2F;}
	.st11{fill:#111111;}
	.st12{fill:#282828;}
	.st13{fill:#222222;}
	.st14{fill:#9E9E9E;}
</style>
<g id="background">
	<rect x="4" y="5" class="st0" width="291" height="291"/>
</g>
<g id="Layer_1">
	<path class="st1" d="M211.95,57.43c2.61,1.89,5.31,2.97,8.32,0.83c1.48-1.31,2.97-2.62,4.45-3.92c0.73,1.74,1.47,3.47,2.2,5.21
		c-2.27,2.29-4.53,4.58-6.8,6.88c-0.62,0.06-1.25,0.12-1.87,0.18c-1.36-1.7-3.37-2.32-5.25-3.13c-1.88-0.81-3.89-3.02-5.54,0.33
		c-0.96,0.4-1.91,0.8-2.87,1.2C203.42,63.87,206.73,53.88,211.95,57.43z"/>
	<path class="st2" d="M269.33,37.13c-1.86,1.94-3.72,0.79-5.75,0.2c-3.16-0.91-5.72-3.41-9.2-3.4c-1.72-0.95-2.28-0.63-5.35,3.15
		c-2.17-0.13-2.13-1.71-2.13-3.26c0.89-0.81,1.68-1.76,2.68-2.4c2.81-1.81,1.77-3.02-0.52-4.14
		C248.78,22.58,269.33,32.95,269.33,37.13z"/>
	<path class="st3" d="M238.53,41.41c1.29,1.7,0.76,3.77,2.65,4.4c-0.02,0.57-0.04,1.15-0.05,1.72c-1.99,1.06-3.9,2.21-5.03,4.28
		c-2.95,0.82-5.46-0.33-8.04-1.59c-1.74-0.85-3.63-2.59-5.72-0.52c-0.64,0.44,2.12-1.32,1.47-0.88c-0.68-0.13,0.11-2.95,2.84-4.27
		C230.24,42.83,237.65,42.43,238.53,41.41z"/>
	<path class="st4" d="M79.01,246.96c-1.19,0.85-11.14,9.62-12.44,11.63c-1.41,2.2-8.44,9.73-12.65,12.07
		c-4.27-1.12-1.38-4.83-0.76-5.08c3.91-1.59,4.74-6.22,8.36-7.9c4.93,0.03,5.88-4.5,8.36-7.29c4.15-2.26,6.8-6.02,9.59-9.63
		c1.93,0.17,2.71-1.7,4.18-2.36c1.44-1.22,2.21-3.3,2.21-3.3s0.28,1.02,0.81,0.28c0.16-1.87,3.28-2.62,1.91-5.07
		c3.97-1.12,6.48-3.77,7.94-7.53c5.37-0.96,9.57-5.76,8.42-9.62c4.86,0.34,5.66-4.67,8.77-6.64c3.85-2.17,8.15-3.94,8.3-9.38
		c4.83-0.24,6.65-3.96,8.64-7.48c4.72-0.26,5.35-5.77,9.2-7.15c-0.26-0.46-0.51-0.91-0.76-1.37c3.75-1.29,6.28-3.8,7.58-7.54
		c2.82,1.04,10.98-7.54,13.15-8.2c0.59,4.35-16.73,17.69-18.49,19.91c-0.72,0.71-16,16-16,16c-0.37,0.36-0.74,0.72-1.1,1.08
		c-1.77,2.12-9.56,7.8-11.07,9.54C112.14,213.11,80.6,245.82,79.01,246.96z"/>
	<path class="st5" d="M61.52,257.69c-3.62,1.67-4.45,6.3-8.36,7.9c-0.61,0.25-3.51,3.95,0.76,5.08c-0.92,1.5-1.56,2.24-3.6,0.84
		c-5.41-3.71-11.13-6.98-16.72-10.42c-8.67-4.14-15.09-20.34-14.63-20.37c2.11-0.41,3.88,0.04,5.07,1.98
		c0.11,2.8,0.17,5.65,4.16,5.53c-0.06,0.96-1.12,1.81-0.03,2.89c5.81,5.77,13.52,5.29,20.76,6.31c0.46,0.06,1.11-0.78,1.57-1.28
		C56.02,250.14,57.34,250.32,61.52,257.69z"/>
	<path class="st6" d="M220.12,66.43c2.27-2.29,4.53-4.58,6.8-6.88c1.46,0.08,2.73-0.45,3.92-1.21c1.1,3.2,3.99,6.08,6.54,5.34
		c3.12-0.9,8.09-0.68,8.66-6.29c0.26-2.57,3.19-2.19,5.31-2.09c-0.22,2.37-1.06,4.77,2.18,6.13c2.33,0.98,6.14,1.09,6.51,3.46
		c0.28,1.77-2.6,4.03-4.07,6.08c-0.22,0.06-0.4,0.18-0.54,0.36c-0.67-0.16-1.34-0.32-2.01-0.48c-3.78-6.34-5.06-6.38-10.73-0.31
		c-1.92,0.23-4.18-2.7-5.77,0.62c-3.27,0.21-4.07,2.69-4.8,5.23c-1.97,0-2.52-0.92-1.81-2.72c0.28-0.71,1.6-1.51,0.42-2.18
		c-3.24-1.84-5.73-6.17-10.49-3.47l0,0C220.21,67.49,220.17,66.96,220.12,66.43z"/>
	<path class="st7" d="M220.25,68.02c4.76-2.71,7.24,1.63,10.49,3.47c1.18,0.67-0.14,1.47-0.42,2.18c-0.71,1.8-0.16,2.72,1.81,2.72
		c2.31,0.05,3.72,0.65,1.91,3.18c-1.77,1.67-3.54,3.34-5.31,5c-2.12,0.77-4.55-4.2-6.48,0.34c-3.04,1.18-5.93,2.97-9.42,2.15
		c-1.22-3.58-2.44-7.16-3.65-10.74c0.47-0.39,0.93-0.79,1.4-1.18c0.92,0.23,1.73,0.08,2.36-0.69c3.11-1.7,1.74-6.45,5.32-7.83
		c0.62-0.06,1.25-0.12,1.87-0.18C220.17,66.96,220.21,67.49,220.25,68.02c-0.38,0.38-1.35,0.59-0.38,1.36
		C219.99,68.92,220.12,68.47,220.25,68.02z"/>
	<path class="st8" d="M230.84,58.34c-1.2,0.76-2.47,1.29-3.92,1.21c-0.73-1.74-1.46-3.47-2.2-5.21c-0.8-1.55-1.59-3.1-2.39-4.64
		c2.1-2.07,3.98-0.33,5.72,0.52c2.59,1.26,5.09,2.41,8.04,1.59c0.03,0.41,0.06,0.82,0.09,1.24
		C232.07,52.44,233.59,57.54,230.84,58.34z"/>
	<path class="st6" d="M218.25,66.61c-3.59,1.38-2.21,6.13-5.32,7.83c-0.27-0.39-0.55-0.78-0.82-1.17c-0.43-1.43-0.86-2.85-1.29-4.28
		c0.01-0.35-0.05-0.69-0.16-1.03c-0.47-0.82-1.24-1.01-2.11-0.99l-0.05-0.05c-0.34-1.04-0.69-2.08-1.03-3.12
		c1.65-3.35,3.66-1.14,5.54-0.33C214.89,64.28,216.89,64.91,218.25,66.61z"/>
	<path class="st6" d="M211.95,57.43c2.38-1.46,4.77-2.93,7.15-4.39c1.85,1.41,0.89,3.46,1.17,5.22
		C217.26,60.4,214.56,59.32,211.95,57.43z"/>
	<path class="st7" d="M220.27,58.26c-0.28-1.76,0.68-3.81-1.17-5.22c0.43-0.67,0.86-1.35,1.29-2.02c0.65-0.44,1.29-0.88,1.93-1.33
		c0.8,1.55,1.59,3.09,2.39,4.64C223.24,55.65,221.76,56.96,220.27,58.26z"/>
	<path class="st7" d="M207.47,63.81c0.34,1.04,0.69,2.08,1.03,3.12c-2.28-0.37-4.08,2.46-6.53,0.97c0.87-0.97,1.74-1.93,2.62-2.89
		C205.55,64.6,206.51,64.21,207.47,63.81z"/>
	<path class="st8" d="M66.85,194.03c0.65-0.05,1.3-0.11,1.95-0.16c3.57,2.09,7.14,4.17,10.72,6.26c-1.11,1.93-3.77,0.71-4.99,2.48
		c-0.67,0.98-1.89,2.77-0.02,2.69c7.26-0.31,7.39,5.47,9.21,9.9c-1.17,2.57-5.24,2.6-5.34,6.11c0.29,5.67,2.52,7.72,9.77,8.98
		l0.42,0.04c1.38,2.44-1.75,3.2-1.9,5.06c-1.01,1.01-2.01,2.01-3.02,3.02c-1.47,0.65-2.25,2.52-4.18,2.36
		c-2.03-2.18-2.52-5.9-6.33-6.3c-1.99-3.3-3.9-6.88-7.92-1.27c-0.95-1.84-0.37-4.33-2.94-4.15c-0.3-0.31-0.61-0.62-0.91-0.93
		c0.05-0.37,0.1-0.73,0.16-1.1c1.05-0.78,2.02-1.03,3.4-0.46c4.73,1.95,8.55-0.84,9.61-6.13c0.48-2.39-0.43-3.34-2.04-4.08
		c-2.34-1.09-2.2,1.6-3.2,2.5c-0.78,0.7,0.48,3.38-1.97,2.62c-4.25-1.32-5.52,1.64-7.06,4.39c-1.05-0.04-2.1-0.08-3.15-0.12
		c0.49-4.71-1.89-3.34-4.25-2.01c-1.64-1.14-1.04-4.49-4.14-4.21c-2.43-0.49-1.88-3.34-3.53-4.45c1.82-1.81,3.65-3.62,5.47-5.43
		c6.69,5.8,13.19,6.8,19.36-0.78c0.08-0.1,0.33-0.07,0.5-0.1c0.97-0.2,1.17-0.56,0.24-1.16c-1.76-1.01-1.7-3.25-2.79-4.61
		c-4.72,1.96-7.42,10.58-14.18,3.71c1.71-2.59,5.14-3.44,6.52-6.38C62.96,198.71,65.71,197.21,66.85,194.03z M74.49,231.77
		c-0.24-0.02-0.47-0.05-0.71-0.07c0.11,0.09,0.21,0.24,0.33,0.25C74.23,231.97,74.36,231.84,74.49,231.77z"/>
	<path class="st7" d="M230.84,58.34c2.74-0.8,1.22-5.9,5.35-5.3c2.62-0.97,5.66-1.56,4.93-5.52c0.02-0.57,0.04-1.15,0.06-1.72
		c2.85-1.14,2.84-4.4,4.68-6.29c1.05-0.17,2.1-0.34,3.14-0.51c2.3-1.16,4.01-2.93,5.38-5.07c3.48-0.01,6.03,2.5,9.2,3.4
		c2.03,0.58,3.88,1.74,5.75-0.2c1.46-0.57,2.82-0.08,4.17,0.43c1.1,0.8,2.8,0.34,3.63,1.7c-2.28,1.49-4.55,2.98-6.82,4.46
		c-2.32-0.76-5.1-3.04-5.8,1.71c-1.96,0.24-3.7,0.94-5.1,2.46c0.57,1.91,3.79,1.52,3.48,4.08c-2.16,1.4-3.83,3.29-5.31,5.37
		c-2.08-0.68-4.15-1.36-6.23-2.03c-2.12-0.1-5.05-0.48-5.31,2.09c-0.57,5.6-5.54,5.38-8.66,6.29
		C234.84,64.42,231.94,61.54,230.84,58.34z"/>
	<path class="st4" d="M249,39.01c-1.05,0.17-2.1,0.34-3.14,0.51c-2.85-1.33-5.7-2.66-8.56-3.99c0.34-2.07,1.84-2.68,3.64-2.9
		c2.18-0.55,3.94,0.95,5.96,1.2c0,1.55-0.04,3.13,2.13,3.26C249.03,37.72,249.02,38.37,249,39.01z"/>
	<path class="st6" d="M246.91,33.82c-2.02-0.25-3.79-1.75-5.96-1.2c-0.01-0.61-0.02-1.22-0.03-1.82c2.32-2.09,5.1-3.12,8.15-3.51
		c2.28,1.11,3.33,2.32,0.52,4.14C248.59,32.06,247.79,33.01,246.91,33.82z"/>
	<path class="st9" d="M249,39.01c0.01-0.64,0.02-1.28,0.04-1.92c3.07-3.77,3.63-4.1,5.35-3.15C253.02,36.07,251.3,37.85,249,39.01z"
		/>
	<path class="st4" d="M53.8,206.7c6.76,6.87,9.45-1.75,14.18-3.71c1.09,1.35,1.02,3.6,2.79,4.61c-0.08,0.39-0.16,0.77-0.24,1.15
		c-0.17,0.03-0.42,0-0.5,0.1c-6.16,7.58-12.66,6.58-19.36,0.78C50.31,208.28,52.4,206.33,53.8,206.7z"/>
	<path class="st6" d="M39.05,220.56c2.32-1.21,3.4-3.63,5.2-5.36c0.31-0.05,0.63-0.09,0.94-0.13c1.64,1.11,1.1,3.96,3.53,4.45
		c-3.31,3.23-5.38,9.24-11.88,5.26C36.53,222.82,38.45,222.03,39.05,220.56z"/>
	<path class="st6" d="M227.12,44.64c1.99-2.1,3.98-4.2,5.97-6.3c1.4-0.94,2.81-1.88,4.21-2.82c2.85,1.33,5.7,2.66,8.56,3.99
		c-1.83,1.89-1.83,5.15-4.68,6.29c-1.89-0.63-1.36-2.7-2.65-4.4C235.45,44.97,232.23,48.85,227.12,44.64z"/>
	<path class="st6" d="M241.13,47.53c0.72,3.95-2.31,4.55-4.93,5.52c-0.03-0.41-0.06-0.82-0.09-1.24
		C237.23,49.74,239.14,48.58,241.13,47.53z"/>
	<path class="st8" d="M61.52,257.69c-4.19-7.37-5.51-7.55-11.03-1.54c-0.47,0.51-1.11,1.35-1.57,1.28
		c-7.24-1.03-14.94-0.54-20.76-6.31c-1.09-1.08-0.03-1.93,0.03-2.89c2.21-2.14,4.41-4.27,6.62-6.41c3.11,0.16,4.66-1.33,5.16-4.58
		c-2.38,0.38-3.23,2.81-5.4,2.51c-1.05-1.14-2.11-2.28-3.16-3.42c-0.49-2.41-2.84-2.9-4.39-4.21c0.77-0.64,1.54-1.29,2.3-1.93
		c0.69-0.07,1.38-0.14,2.07-0.22c1.94,1.79,3.8,1.93,5.53-0.29c0.36,0.1,0.72,0.21,1.08,0.32c-0.3,3.17,3.35,1.52,4.12,3.37
		c0.7,3.5,3.55,5.66,5.32,8.49c0.44,0.92,1.25,1.11,2.16,1.06l-0.03-0.02c3.87,3.05,7.8-0.51,11.7,0.1
		c2.31,3.11,6.63,3.88,8.59,7.39C67.4,253.19,66.45,257.72,61.52,257.69z M33.33,250.83c3.66,2.33,8.17,0.61,11.33-4.35
		C39.74,245.16,36.76,248.5,33.33,250.83z"/>
	<path class="st1" d="M38.02,230c-0.36-0.1-0.72-0.21-1.08-0.31c-0.41-0.9-0.81-1.8-1.22-2.7c0.03-0.91,0.25-1.72,1.12-2.2
		c6.5,3.98,8.57-2.03,11.88-5.26c3.09-0.28,2.49,3.07,4.14,4.21c-1.28,4.89-5.78,5.79-9.49,7.68C41.58,230.94,39.8,230.47,38.02,230
		z"/>
	<path class="st10" d="M35.72,226.98c0.41,0.9,0.81,1.81,1.22,2.7c-1.73,2.21-3.59,2.08-5.53,0.28
		C31.98,227.72,32.29,225.1,35.72,226.98z"/>
	<path class="st6" d="M25.12,233.35c0.64-0.41,1.28-0.82,1.92-1.22c1.55,1.31,3.89,1.8,4.39,4.21c-2.5,2.08-4.42,4.82-7.38,6.37
		c-1.19-1.94-2.96-2.39-5.07-1.98C18.69,236.32,23.7,236.33,25.12,233.35z"/>
	<path class="st1" d="M258.65,71.22c-0.89-0.08-1.79-0.16-2.68-0.24c1.47-2.04,4.36-4.31,4.08-6.08c-0.37-2.37-4.18-2.49-6.51-3.46
		c-3.25-1.36-2.4-3.76-2.18-6.13c2.08,0.68,4.15,1.36,6.23,2.04c2.01,2.19,2.67,7.5,7.47,3.23c-0.17,1.36,2.6,2.82-0.28,4.16
		c-0.89,0.41-2.49,2.14-0.89,2.76C265.73,68.21,261.11,70.87,258.65,71.22z"/>
	<path class="st4" d="M263.88,67.5c-1.6-0.62-0.01-2.35,0.89-2.76c2.88-1.34,0.12-2.8,0.28-4.16c0.61-1.11,2.24-1.53,2.13-3.14
		c2.91-1.53,5.8-3.09,8.12-5.75c-3.34-2.9-8.48-2.18-10.79-6.25c0.7-4.75,3.48-2.47,5.8-1.71c2.57,3.15,4.39,8.78,9.7,2.96
		c3.3,3.76-5.61,8.89-8.54,11C268.86,59.58,265.73,68.21,263.88,67.5z"/>
	<path class="st9" d="M69.88,250.4c-1.96-3.51-6.28-4.29-8.59-7.39c0.02-0.98-0.21-1.82-1.19-2.28c0.22-1.4,0.78-2.56,2.26-3.02
		c2.52,2.91,5.13,3.22,7.22-0.26c0.92-1.54,2.6-1.74,3.56-2.97c3.81,0.39,4.31,4.11,6.33,6.3C76.68,244.39,74.03,248.14,69.88,250.4
		z"/>
	<path class="st8" d="M104.94,213.19c1.15,3.86-3.06,8.65-8.42,9.61c-0.28-3.26-2.87-4.27-5.3-5.44c0.16-2.96-2.57-3.15-4.21-4.39
		c2.93-1.92,3.08-7.52,8.36-6.33c1.98,4,5.22,6.13,9.65,6.49L104.94,213.19z"/>
	<path class="st8" d="M139.07,181.18c0.26,0.46,0.51,0.91,0.77,1.37c-3.85,1.38-4.48,6.89-9.2,7.15c-1.78-2.1-3.56-4.2-5.34-6.31
		c0-0.77,0.01-1.54,0.01-2.32c0.08-0.14,0.16-0.29,0.25-0.43c-0.08,0.15-0.16,0.29-0.24,0.44c-2.32-0.01-4-0.44-2.45-3.34
		c0.9-1.68,1.65-3.44,2.47-5.16l-0.01,0c0.9-0.01,1.69-0.22,2.13-1.11c0.01-0.33,0-0.66-0.01-1c1.38-0.01,2.07,0.7,2.13,2.06
		c-0.54,7.01,5.58,6.63,9.56,8.62L139.07,181.18z"/>
	<path class="st8" d="M122.01,197.17c-0.15,5.44-4.45,7.21-8.3,9.38c-0.39-2.83-3.28-3.89-4.39-6.21c0.2-2.54-4.3-2.31-3.17-5.39
		c2.89-1.38,3.21-5.27,6.31-6.45c-0.21,6.69,5.46,6.82,9.63,8.64L122.01,197.17z"/>
	<path class="st8" d="M154.05,170.12c-0.35,0.36-0.7,0.73-1.05,1.09c-2.17,0.66-3.52,3.47-6.34,2.43c-1.08-2.44-2.57-4.47-5.27-5.28
		c0.32-2.45-2.2-2.81-3.17-4.32c2.85-0.63,3.5-4.8,7.02-4.34c1.75,3.24,5.35,3.71,8.16,5.34c1.37,0.79,3.14,1,2.44,3.24
		C155.24,168.88,154.65,169.5,154.05,170.12z"/>
	<path class="st5" d="M125.31,183.39c1.78,2.1,3.56,4.2,5.34,6.31c-1.99,3.52-3.8,7.24-8.64,7.48c0,0,0.07-0.03,0.07-0.03
		c0.14-3.33-3.92-4.14-4.3-7.16C120.29,187.79,122.8,185.59,125.31,183.39z"/>
	<path class="st5" d="M91.21,217.36c2.43,1.17,5.02,2.18,5.3,5.44c-1.46,3.76-3.97,6.41-7.94,7.53c-0.01,0-0.43-0.04-0.43-0.04
		c-1.11-2.16-2.22-4.32-3.32-6.48C85.64,220.37,87.92,218.37,91.21,217.36z"/>
	<path class="st5" d="M109.32,200.34c1.1,2.32,4,3.38,4.39,6.21c-3.11,1.97-3.91,6.98-8.77,6.64c0,0,0.07-0.05,0.07-0.05
		c0.25-2.73-2.95-3.6-3.24-6.04C104.39,204.96,106.24,201.96,109.32,200.34z"/>
	<path class="st5" d="M141.39,168.35c2.7,0.82,4.19,2.84,5.27,5.28c-1.3,3.75-3.83,6.26-7.58,7.55c0,0,0.07-0.03,0.07-0.03
		c0.07-3.1-3.22-3.99-4.2-6.4C137.09,172.62,139.24,170.48,141.39,168.35z"/>
	<path class="st3" d="M24.04,242.7c2.96-1.54,4.88-4.29,7.38-6.37c1.05,1.14,2.11,2.28,3.16,3.42c0.08,0.69,0.16,1.38,0.24,2.07
		c-2.21,2.14-4.41,4.27-6.62,6.41C24.21,248.35,24.15,245.5,24.04,242.7z"/>
	<path class="st8" d="M234.03,79.56c1.81-2.53,0.4-3.13-1.91-3.18c0.73-2.54,1.54-5.02,4.81-5.23c0.06,3.95,3.6,4.01,5.99,5.38
		c1.63,0.94,4.35,0.24,4.72,3.1c-2.1,0.99-4.25,1.92-5.1,4.37c-0.32,0.31-0.64,0.63-0.95,0.94c-1.04-0.03-2.08-0.06-3.12-0.08
		C238.04,82.22,235.96,80.95,234.03,79.56z"/>
	<path class="st5" d="M242.7,70.54c5.67-6.07,6.95-6.03,10.73,0.32C248.32,78.01,246.87,77.97,242.7,70.54z"/>
	<path class="st4" d="M242.7,70.54c4.17,7.43,5.63,7.47,10.73,0.32c0.67,0.16,1.34,0.32,2.01,0.48c-0.39,3.46-4.11,4.5-5.33,7.35
		c-0.82,0.32-1.65,0.63-2.47,0.95c-0.36-2.86-3.08-2.17-4.71-3.1c-2.39-1.37-5.93-1.42-5.99-5.38
		C238.52,67.84,240.78,70.76,242.7,70.54z"/>
	<path class="st11" d="M250.1,78.68c1.23-2.85,4.95-3.89,5.33-7.35c0.14-0.18,0.32-0.3,0.54-0.35c0.89,0.08,1.79,0.16,2.68,0.24
		c-1.07,2.13-2.49,3.91-3.56,6.04C253.31,77.62,251.88,78.33,250.1,78.68z"/>
	<path class="st1" d="M238.46,84.86c1.04,0.03,2.08,0.06,3.12,0.09c-0.37,1.11-11.08,11.86-12.36,11.82
		c3.09-2.66,3.67-4.77-1.09-6.14c-1.97-0.57-3.79-1.65-5.68-2.49c-0.07-1.08-0.14-2.15-0.21-3.23c1.92-4.54,4.35,0.42,6.48-0.35
		C232.61,90.76,234.06,90.81,238.46,84.86z"/>
	<path class="st4" d="M210.82,68.99c0.43,1.43,0.86,2.85,1.28,4.28c-0.93,0.28-1.38,0.95-1.54,1.86c-0.47,0.39-0.93,0.79-1.4,1.18
		c-1.81,0.35-2.73,1.47-2.83,3.3c-1.05,0.07-2.1,0.15-3.16,0.22c-3.06-2.41-6.17-4.7-10.42-4.17c-0.58-2.46,0.44-3.53,2.91-3.37
		c0.79,1.11,1.52,1.04,2.21-0.1c4.44,1.02,8.64,1.16,11.64-3.15C209.96,69.03,210.39,69.01,210.82,68.99z"/>
	<path class="st5" d="M238.46,84.86c-4.4,5.95-5.85,5.9-9.74-0.3c1.77-1.67,3.54-3.33,5.31-5
		C235.96,80.95,238.04,82.22,238.46,84.86z"/>
	<path class="st12" d="M222.24,84.91c0.07,1.08,0.14,2.15,0.21,3.23c-1.68,0.31-3.21,0.9-4.35,2.24c-3.84-1.78-9.01,0.2-11.93-4.21
		c0.05-0.4,0.11-0.8,0.16-1.2c0.69,0.11,1.39,0.22,2.08,0.34c1.02,1.7,2.6,1.99,4.4,1.74C216.31,87.88,219.21,86.09,222.24,84.91z"
		/>
	<path class="st6" d="M212.82,87.05c-1.79,0.25-3.38-0.04-4.4-1.74c1.67-2.77-2.83-3.28-2.08-5.7c0.1-1.82,1.01-2.95,2.83-3.3
		C210.39,79.89,211.6,83.47,212.82,87.05z"/>
	<path class="st5" d="M210.57,75.13c0.16-0.91,0.61-1.58,1.54-1.86c0.28,0.39,0.55,0.78,0.82,1.17
		C212.3,75.21,211.49,75.36,210.57,75.13z"/>
	<path class="st6" d="M220.25,68.02c-0.13,0.45-0.25,0.9-0.38,1.36C218.9,68.61,219.87,68.4,220.25,68.02
		C220.25,68.02,220.25,68.02,220.25,68.02z"/>
	<path class="st6" d="M209.52,69.05c-3,4.31-7.2,4.16-11.64,3.15c0.67-1.35,1.63-2.43,2.99-3.14c0.4-0.37,0.81-0.75,1.21-1.12
		c0,0-0.11-0.04-0.11-0.04c2.44,1.5,4.25-1.34,6.53-0.97c0,0,0.05,0.05,0.05,0.05c0.41,0.39,0.82,0.78,1.23,1.16
		C209.64,68.42,209.55,68.73,209.52,69.05z"/>
	<path class="st7" d="M202.08,67.93c-0.4,0.37-0.81,0.75-1.21,1.12C201.27,68.68,201.68,68.31,202.08,67.93z"/>
	<path class="st1" d="M182.17,85.11c5.79,4.32,9.6,0.25,13.55-3.21c1.99,3.16,2.06,5.93-1.31,8.35c-1.21,0.87-2,2.31-2.99,3.48
		c-1.05,0-2.11,0.01-3.16,0.01c-3.7-1.63-6.61-7.58-11.6-2.12C173.2,90.52,179.94,81.61,182.17,85.11z"/>
	<path class="st7" d="M209.79,68.14c-0.41-0.39-0.82-0.78-1.23-1.16c0.87-0.03,1.63,0.17,2.11,0.99
		C210.37,68.05,210.08,68.1,209.79,68.14z"/>
	<path class="st5" d="M209.79,68.14c0.3-0.03,0.59-0.09,0.88-0.18c0.11,0.33,0.16,0.68,0.16,1.03c-0.43,0.02-0.86,0.04-1.3,0.06
		C209.55,68.73,209.64,68.42,209.79,68.14z"/>
	<path class="st8" d="M75.25,186.48c2.11-2.16,4.22-4.31,6.33-6.47c1.25-1.08,2.27-2.63,4.3-2.15c3.75,1.49,6.69,4.53,10.69,5.52
		c-3,2.35-6.66,3.93-8.74,7.36c-2.47,0.56-1.03-6.84-5.19-2.62c-3.41,3.45-6.99,5.42-11.74,2.73
		C72.35,189.39,73.8,187.93,75.25,186.48z"/>
	<path class="st1" d="M70.9,190.84c4.75,2.69,8.34,0.73,11.74-2.73c4.16-4.22,2.72,3.18,5.19,2.62c-1.52,4.24-6.16,5.72-8.32,9.39
		c-3.57-2.09-7.14-4.17-10.72-6.26C68.58,192.22,70.19,191.85,70.9,190.84z"/>
	<path class="st6" d="M79.52,200.13c2.16-3.67,6.8-5.15,8.32-9.39c2.09-3.43,5.74-5.01,8.74-7.36c1.24-0.81,2.47-1.62,3.71-2.43
		c1.76,0.37,3.96-0.56,4.91,2.05c0.52,1.43,1.59,0.81,2.56,0.18c1.01-0.66,1.98-2.84,3.3-1.04c1.01,1.37-0.48,2.56-1.79,3.23
		c-1.4,0.72-1.86,1.96-2.32,3.35c-0.43,1.29-1.59,2.3-2.85,1.37c-4.83-3.6-7.82-1.99-10.4,2.89c-0.71,1.34-3.27,1.92-2.14,4.08
		c1.12,2.15,3.37,2.34,5.55,2.06c3.43-0.44,6.02-2.77,9.03-4.15c-1.13,3.08,3.37,2.85,3.17,5.39c-3.08,1.62-4.93,4.62-7.54,6.76
		c-1.37-0.63-2.77-1.19-4.1-1.89c-1.69-0.89-2.07,0.12-2.32,1.44c-5.28-1.19-5.43,4.4-8.36,6.33c-1.16,0.64-1.59,2.37-3.29,2.22
		c-1.82-4.43-1.94-10.22-9.21-9.9c-1.87,0.08-0.65-1.71,0.02-2.69C75.74,200.84,78.41,202.06,79.52,200.13z"/>
	<path class="st6" d="M62.36,237.7c-1.48,0.47-2.03,1.62-2.26,3.02c-3.6,0.26-6.7,2.91-10.51,2.18c0,0,0.03,0.02,0.03,0.02
		c-0.42-0.97-1.31-0.97-2.16-1.06c-1.78-2.83-4.62-4.99-5.32-8.49c0.41-0.65,0.82-1.31,1.23-1.96c3.71-1.89,8.21-2.79,9.49-7.68
		c2.36-1.33,4.74-2.7,4.25,2.01c-0.02,0.41-0.04,0.82-0.06,1.23c-0.35,0.06-0.75,0.03-1.03,0.2c-0.43,0.26-0.34,0.62,0.18,0.72
		c0.76,0.15,1.41-0.05,1.77-0.82c1.14,0.35,2.27,0.7,3.41,1.06c0.3,0.31,0.61,0.62,0.91,0.93C63.96,231.92,62.55,234.82,62.36,237.7
		z M57.15,236.32c1.4,0.1,1.94-0.67,2-1.92c0.07-1.44,0.18-3.22-1.46-3.63c-2.19-0.55-1.74,1.77-2.23,2.86
		C54.82,235.08,55.82,235.91,57.15,236.32z"/>
	<path class="st6" d="M60.26,225.86c1.54-2.75,2.82-5.71,7.06-4.39c2.45,0.76,1.19-1.92,1.97-2.62c1-0.9,0.85-3.59,3.2-2.5
		c1.61,0.75,2.52,1.7,2.04,4.08c-1.07,5.29-4.88,8.08-9.61,6.13c-1.38-0.57-2.35-0.31-3.4,0.46
		C61.1,226.63,60.68,226.24,60.26,225.86z"/>
	<path class="st7" d="M62.36,237.7c0.19-2.89,1.6-5.78-0.08-8.65c2.57-0.18,1.99,2.31,2.94,4.15c4.01-5.61,5.93-2.03,7.92,1.27
		c-0.97,1.23-2.64,1.43-3.56,2.97C67.49,240.93,64.88,240.62,62.36,237.7z"/>
	<path class="st7" d="M83.72,215.2c1.7,0.15,2.12-1.58,3.29-2.22c1.64,1.23,4.37,1.42,4.21,4.39c-3.29,1-5.57,3-6.39,6.45
		c-2.57,0.25-4.07-2.24-6.44-2.5C78.48,217.81,82.55,217.77,83.72,215.2z"/>
	<path class="st11" d="M78.38,221.31c2.37,0.26,3.87,2.76,6.44,2.5c1.11,2.16,2.21,4.32,3.32,6.48
		C80.9,229.03,78.67,226.98,78.38,221.31z"/>
	<path class="st7" d="M60.26,225.86c0.42,0.39,0.84,0.77,1.26,1.16c-0.05,0.37-0.1,0.73-0.15,1.1c-1.14-0.35-2.27-0.7-3.41-1.06
		c-0.3-0.04-0.61-0.07-0.92-0.1c0.02-0.41,0.04-0.82,0.06-1.23C58.16,225.77,59.21,225.81,60.26,225.86z"/>
	<path class="st7" d="M74.49,231.77c-0.13,0.07-0.26,0.19-0.38,0.18c-0.12-0.01-0.22-0.16-0.33-0.25
		C74.01,231.73,74.25,231.75,74.49,231.77z"/>
	<path class="st6" d="M70.53,208.76c0.08-0.38,0.16-0.77,0.24-1.15C71.69,208.19,71.5,208.56,70.53,208.76z"/>
	<path class="st8" d="M264.51,45.44c2.32,4.07,7.45,3.35,10.79,6.25c-2.31,2.66-5.21,4.21-8.12,5.75c-0.93-2.22-2.04-4.29-4.3-5.46
		c0.31-2.56-2.91-2.16-3.48-4.08C260.81,46.38,262.54,45.68,264.51,45.44z"/>
	<path class="st13" d="M262.89,51.97c2.25,1.18,3.37,3.25,4.3,5.46c0.11,1.61-1.52,2.03-2.13,3.14c-4.8,4.27-5.47-1.04-7.47-3.23
		C259.06,55.27,260.73,53.38,262.89,51.97z"/>
	<path class="st10" d="M280.01,46.7c-5.32,5.82-7.13,0.18-9.7-2.96c2.27-1.49,4.55-2.98,6.82-4.46
		C280.02,41,278.14,44.57,280.01,46.7z"/>
	<path class="st6" d="M33.33,250.83c3.43-2.33,6.41-5.68,11.33-4.35C41.5,251.44,36.99,253.16,33.33,250.83z"/>
	<path class="st13" d="M49.59,242.91c3.81,0.73,6.91-1.92,10.51-2.18c0.97,0.46,1.2,1.3,1.19,2.28
		C57.39,242.4,53.47,245.96,49.59,242.91z"/>
	<path class="st6" d="M34.82,241.82c-0.08-0.69-0.16-1.38-0.24-2.07c2.17,0.31,3.02-2.12,5.4-2.51
		C39.48,240.49,37.93,241.98,34.82,241.82z"/>
	<path class="st10" d="M43.37,231.41c-0.41,0.65-0.82,1.31-1.23,1.96c-0.77-1.86-4.42-0.2-4.12-3.37
		C39.8,230.47,41.58,230.94,43.37,231.41z"/>
	<path class="st13" d="M47.46,241.86c0.85,0.09,1.75,0.09,2.16,1.06C48.71,242.97,47.9,242.78,47.46,241.86z"/>
	<path class="st1" d="M238.03,87.22c0.85-2.45,6.09-6.59,8.19-7.58c0.82-0.32,1.64-0.63,2.47-0.95c1.78-0.36,4.63-1.07,6.41-1.42
		C255.82,79.03,239.13,87.22,238.03,87.22z"/>
	<path class="st4" d="M95.36,206.65c0.24-1.33,0.63-2.33,2.32-1.44c1.33,0.7,2.73,1.27,4.1,1.89c0.29,2.44,3.49,3.31,3.24,6.04
		C100.59,212.78,97.34,210.65,95.36,206.65z"/>
	<path class="st6" d="M145.24,159.69c-3.52-0.47-4.17,3.71-7.02,4.34c-2.35,0.15-3.25,2.76-5.43,3.18
		c-0.24-2.03-1.33-2.39-2.62-0.98c-1.11,1.22-1.82,2.81-2.7,4.23c0.01,0.33,0.02,0.66,0.01,1c-0.89,0.03-1.69,0.23-2.13,1.11
		c0,0,0.01,0,0.01,0c-2.79-0.11-2.47-3.33-4.35-4.34c-0.29-2.61-2.44-2.73-4.31-3.23c1-1.38,1.92-2.85,3.8-3.19
		c1.19-0.17,1.59-0.98,1.66-2.05c3.93,1.09,4.07-4.41,7.45-4.28c-2.73,3.52,2.47,5.33,1.35,8.52c4.11-1.27,6.01-4.41,8.33-7.07
		c0.74-0.85,1.29-1.95,0.43-2.84c-0.49-0.51-1.65-0.72-2.41-0.57c-2.59,0.53-5.13,1.28-7.69,1.95c-0.01-1-0.01-2.01-0.02-3.01
		c2.65-2.73,6.34-4.59,7.37-8.69c3.66-0.73,3.16-5.6,6.56-6.6c3.76-0.03,4.85-4.66,8.49-4.89c0.56,0.51,0.85,0.28,0.99-0.36
		l0.08,0.09c1.84,0.23,3.8-0.54,5.55,0.56c-1.31,4.26-1.31,4.29-4.69,3.85c-0.39-0.05-0.65-0.31-0.73,0.22
		c-0.42,2.95-4.91,4.21-3.3,7.98c-0.72,0.05-1.44,0.1-2.16,0.15c0,0,0.02,0.01,0.02,0.01c-0.56-0.97-0.97-2.19-2.48-1.66
		c-0.06,0.02,0.26,1.08,0.4,1.66c-0.93,3.81-0.27,4.46,4.56,4.25c3.58-0.16,7.23-0.63,9.21,3.44c-4.67-0.38-5.71,3.44-7.45,6.44
		C149.81,159.72,146.79,153.1,145.24,159.69z M141.73,153.05c-0.05,0.15-0.1,0.29-0.16,0.44c0.13,0.05,0.34,0.16,0.37,0.12
		c0.1-0.11,0.12-0.28,0.17-0.43C141.99,153.14,141.86,153.1,141.73,153.05z"/>
	<path class="st7" d="M121,168.23c1.88,1.02,1.56,4.24,4.35,4.34c-0.82,1.72-1.58,3.48-2.47,5.16c-1.54,2.9,0.13,3.33,2.45,3.34
		c0,0-0.01-0.01-0.01-0.01c0,0.77-0.01,1.54-0.01,2.32c-2.51,2.2-5.01,4.4-7.52,6.6c-1.85-0.22-3.32-1.83-5.33-1.48
		c-3.09,1.18-3.42,5.07-6.31,6.45c-3.02,1.38-5.61,3.71-9.03,4.15c-2.18,0.28-4.43,0.09-5.55-2.06c-1.12-2.15,1.44-2.73,2.14-4.08
		c2.58-4.89,5.56-6.49,10.4-2.89c1.26,0.94,2.42-0.08,2.85-1.37c0.46-1.38,0.91-2.63,2.32-3.35c1.31-0.67,2.8-1.85,1.79-3.23
		c-1.33-1.8-2.29,0.38-3.3,1.04c-0.97,0.63-2.04,1.24-2.56-0.18c-0.95-2.61-3.15-1.68-4.91-2.05c1.35-1.7,2.69-3.4,4.03-5.11
		c2.53-1.03,2.13-4.71,4.96-5.47c0.76,0.02,1.52,0.03,2.27,0.05c-0.02,0.7-0.04,1.4-0.06,2.1c-0.08,0.15-0.16,0.29-0.25,0.44
		c0.08-0.15,0.16-0.3,0.24-0.44C115.12,172.13,117.89,169.8,121,168.23z M101.67,192.46c-0.11-1.19-0.86-1.79-1.41-1.51
		c-1.78,0.92-3.83,1.78-4.24,4.04c-0.14,0.76,1.05,1.14,1.53,0.69C98.87,194.44,101.04,194.18,101.67,192.46z"/>
	<path class="st7" d="M132.79,167.21c2.18-0.43,3.08-3.04,5.43-3.18c0.96,1.51,3.48,1.88,3.17,4.32c-2.15,2.13-4.29,4.27-6.44,6.4
		c-2.04-0.13-3.12-2.57-5.36-2.23c-0.06-1.36-0.75-2.06-2.13-2.06c0.89-1.43,1.59-3.01,2.7-4.23
		C131.46,164.82,132.55,165.18,132.79,167.21l-0.43,0.24l0.19,0.19L132.79,167.21z"/>
	<path class="st4" d="M129.59,172.52c2.24-0.35,3.32,2.09,5.36,2.23c0.98,2.41,4.27,3.3,4.2,6.4
		C135.16,179.16,129.05,179.53,129.59,172.52z"/>
	<path class="st7" d="M125.34,172.57c0.44-0.88,1.24-1.08,2.13-1.11C127.03,172.35,126.24,172.57,125.34,172.57z"/>
	<path class="st7" d="M125.33,181.08c0.08-0.15,0.16-0.29,0.24-0.44C125.48,180.79,125.4,180.93,125.33,181.08
		C125.32,181.07,125.33,181.08,125.33,181.08z"/>
	<path class="st4" d="M112.45,188.5c2.01-0.35,3.48,1.26,5.33,1.48c0.37,3.02,4.44,3.83,4.3,7.16
		C117.92,195.33,112.25,195.19,112.45,188.5z"/>
	<path class="st4" d="M145.24,159.69c1.54-6.59,4.57,0.03,6.76-0.76c3.12,5.97,4.45,6.25,8.95,2c0.88-0.83,1.87-1.54,2.82-2.31
		c0.69-0.04,1.38-0.07,2.07-0.11c-0.56,4.05-4.38,5.71-6.37,8.71c0,0,0,0,0,0c-0.36,0.38-0.72,0.75-1.08,1.13
		c-0.85-0.03-1.69-0.06-2.54-0.08c0.7-2.24-1.07-2.44-2.44-3.24C150.6,163.4,146.99,162.93,145.24,159.69z"/>
	<path class="st6" d="M229.22,96.77c-0.25,0.11-0.41,0.29-0.49,0.56c-1.34,0.69-2.54,1.73-4.2,1.53c-1.26-2.28-2-5.08-5.35-5.22
		c-0.36-1.08-0.72-2.17-1.09-3.25c1.14-1.34,2.67-1.93,4.35-2.24c1.89,0.84,3.71,1.92,5.68,2.49C232.9,92,232.31,94.11,229.22,96.77
		z"/>
	<path class="st7" d="M218.1,90.38c0.36,1.08,0.72,2.17,1.09,3.25c-1.78,1.77-3.56,3.54-5.34,5.31c-2.34,0.43-3.95-3.36-6.6-1.14
		c-7.39,3.99-7.39,3.99-3.94,9.81c-1.3,2.35-3.34,4-5.33,5.69c-2.01,0.26-5.43-4.93-5.85,1.51c-2.57-0.01-4.62,1.41-5.21,3.57
		c-0.6,2.18,2.55,2.4,3.46,4.01c-3.09,1.09-4.86,3.93-7.47,5.65c-1.95,0.76-3.49-3.88-5.64-0.42c-2.56,1.92-7.49,2.27-4.98,7.54
		c-2.55-0.56-5.11-1.12-9.12-1.99c3.23,3.11,3.68,7.04,7.94,6.31c-0.35,1.73-1.87,2.02-3.18,2.55c-2.35,1.08-5.92-3.08-7.41,1.72
		c-3.45,1.43-6.93,2.64-10.64,0.87c-1.6-3.78,2.89-5.03,3.3-7.98c0.08-0.53,0.34-0.27,0.73-0.22c3.38,0.44,3.39,0.41,4.69-3.85
		c-1.75-1.1-3.71-0.33-5.55-0.56c-0.26-1.42-0.53-2.83-0.8-4.25c3.75,0.14,4.83-3.42,7.18-5.22c4.34-1.42,7.85-3.67,8.57-8.67
		c2.76-1.21,4.22-3.89,6.44-5.71c2.08,0.4,3.18-1.87,5.1-1.89c2.41-0.32,4.65-0.77,3.46-4.12c0.01-0.71,0.03-1.43,0.04-2.14
		c2.1-1.79,4.64-3.21,5.2-6.28c1.05,0,2.11-0.01,3.16-0.01c1.55,2.95,2.65,0.36,3.79-0.37c4.89-3.17,3.76-9.93,7.98-13.52
		c1.05-0.07,2.1-0.15,3.16-0.22c-0.75,2.43,3.75,2.94,2.08,5.7c-0.7-0.11-1.39-0.22-2.08-0.33c-0.44-0.57-1.16-1.01-1.51-0.22
		c-0.49,1.1,0.58,1.23,1.35,1.42C209.09,90.58,214.26,88.61,218.1,90.38z"/>
	<path class="st8" d="M203.19,79.83c-4.22,3.59-3.09,10.35-7.98,13.52c-1.14,0.74-2.23,3.33-3.79,0.37
		c0.98-1.18,1.78-2.62,2.99-3.48c3.37-2.42,3.3-5.19,1.31-8.35c-0.11-2.18,0.53-4.77-2.82-5.2c-0.08-0.37-0.16-0.74-0.24-1.11
		c0,0,0.1,0.06,0.1,0.07C197.01,75.13,200.12,77.42,203.19,79.83z"/>
	<path class="st6" d="M206.18,86.18c-0.77-0.19-1.84-0.32-1.35-1.42c0.35-0.79,1.06-0.35,1.51,0.22
		C206.29,85.38,206.23,85.78,206.18,86.18z"/>
	<path class="st7" d="M190.39,78.74c0.84-0.68,1.67-1.36,2.51-2.04c3.34,0.43,2.7,3.02,2.82,5.2c-3.95,3.46-7.75,7.53-13.55,3.21
		C184.91,82.98,187.65,80.86,190.39,78.74z"/>
	<path class="st8" d="M176.76,92.66c-0.06-0.34-0.1-0.69-0.1-1.04c4.99-5.46,7.9,0.49,11.6,2.12c-0.56,3.07-3.1,4.49-5.21,6.28
		c-1.88-0.79-0.42-4.2-3.3-4.21C179.85,93.72,179.27,92.27,176.76,92.66z"/>
	<path class="st1" d="M85.88,177.85c-0.19-1.72,1.63-2.15,2.19-3.39c6.51,2.6,9.01,1.75,11.86-4.02c4.04-0.3,2.44,3.99,4.39,5.39
		c-1.34,1.7-2.68,3.41-4.03,5.11c-1.24,0.81-2.48,1.62-3.71,2.43C92.57,182.38,89.63,179.34,85.88,177.85z"/>
	<path class="st7" d="M57.15,236.32c-1.33-0.41-2.33-1.24-1.69-2.69c0.49-1.09,0.03-3.41,2.23-2.86c1.63,0.41,1.52,2.19,1.46,3.63
		C59.09,235.65,58.55,236.42,57.15,236.32z"/>
	<path class="st8" d="M57.04,226.97c0.31,0.02,0.61,0.05,0.92,0.1c-0.36,0.77-1.01,0.96-1.77,0.82c-0.52-0.1-0.61-0.46-0.18-0.72
		C56.29,227,56.7,227.03,57.04,226.97z"/>
	<path class="st1" d="M179.75,95.81c2.88,0.01,1.43,3.42,3.3,4.21c-0.01,0.71-0.03,1.43-0.04,2.14c-1.76,0.86-3.12,2.06-3.46,4.12
		c-1.93,0.02-3.02,2.29-5.1,1.89c-2.04-3.08-5.96-2.95-8.58-5.05c-1.27-2.4-0.03-3.51,2.12-4.17c0.38,0,0.75,0,1.13-0.01
		C174.49,102.73,174.63,102.69,179.75,95.81z"/>
	<path class="st6" d="M154.01,111.74c2.17-1.78,4.34-3.56,6.52-5.35c1.42-0.77,2.83-1.53,4.25-2.3c0.35,2.12,0.69,4.24,1.04,6.35
		c-3.81,2.05-6.37,8.5-12.19,3.46C153.75,113.19,153.88,112.47,154.01,111.74z"/>
	<path class="st8" d="M165.81,110.45c-0.35-2.12-0.69-4.23-1.04-6.35c0.36-0.33,0.73-0.65,1.09-0.98c2.62,2.1,6.54,1.98,8.58,5.05
		c-2.22,1.81-3.68,4.49-6.44,5.71C167.27,112.74,166.54,111.6,165.81,110.45z"/>
	<path class="st1" d="M207.25,97.8c2.65-2.22,4.26,1.58,6.6,1.14c3.62,6.64,4.92,6.81,9.89,1.24c0.34-0.38,0.54-0.88,0.8-1.33
		c1.66,0.2,2.86-0.85,4.2-1.53c0.59,2.44-7.38,11.85-11.71,12.28l-0.15-0.15c0.75-2.83-0.87-3.87-3.21-4.85
		C210.63,103.32,206.77,102.52,207.25,97.8z"/>
	<path class="st4" d="M177.27,127.63c2.15-3.46,3.69,1.18,5.64,0.42c6.34,6.92,8.06,6.9,11.76-0.11c3.84-0.88,5.09-4.82,8.76-6.42
		c-4.11-2.74-8.65-3.15-11.3-6.7c0.41-6.44,3.83-1.25,5.85-1.52c6.66,7.13,6.66,7.13,11.68,0.36c2.74,0.32,3.7-3.05,6.29-3.04
		l0.05,0.05c0,0.36,0,0.71,0,1.07c-1.81,2.13-8.37,11.15-10.67,12.85c-1.07,0.69-2.14,1.38-3.21,2.07c-0.35,0.36-0.7,0.71-1.05,1.07
		c-0.36,0.35-2.75,1.29-3.19,2.15c0,0-14.66,12.52-16.04,15.98c-0.98,2.74-9.65,6.54-10.14,6.51c0.14-0.72,0.27-1.44,0.41-2.17
		c0.41-0.38,0.81-0.75,1.22-1.13c2.26-1.76,4.88-3.23,5.34-6.48c0.86-0.03,1.96,0.27,2.55-0.15c2.26-1.6,5.23-3.35,5.46-5.96
		c0.19-2.22-3.3-2.58-5.24-3.54C179.08,131.81,177.17,130.58,177.27,127.63z"/>
	<path class="st4" d="M217.03,109.6c-0.35,0.36-0.7,0.72-1.04,1.07c0,0-0.05-0.05-0.05-0.05c0.31-0.39,0.63-0.78,0.94-1.17
		L217.03,109.6z"/>
	<path class="st8" d="M166.99,157.62c-0.38,0.3-0.77,0.59-1.15,0.89c-0.69,0.04-1.38,0.07-2.07,0.11c-1.44-2.04-2.88-4.09-4.32-6.13
		c-1.98-4.07-5.62-3.6-9.21-3.44c-4.84,0.21-5.49-0.44-4.56-4.25c0.69,0,1.38,0,2.07,0c0,0-0.02-0.01-0.02-0.01
		c4.01,4.02,8.44,2.3,12.84,0.95c4.17,0.66,6.95,4.89,11.53,4.49c-0.14,0.72-0.27,1.44-0.4,2.16c-0.52,0.64-1.05,1.27-1.57,1.91
		C169.08,155.41,168.03,156.51,166.99,157.62z"/>
	<path class="st1" d="M102.96,160.83c0.91-0.05,1.71-0.31,2.15-1.2c3.9,1.68,7.29,1.58,9.73-2.54c0.38-0.65,1.38-0.94,2.1-1.39
		c3.28-0.56,2.39,2.9,3.9,4.05c-0.12,0.69-0.24,1.38-0.36,2.07c-1.87,0.34-2.8,1.81-3.8,3.19c0,0,0.07,0,0.07,0
		c-0.82,0.49-1.42,1.1-1.1,2.17c0,0,0-0.03,0-0.03c-1.08,0.18-2.16,0.35-3.24,0.53c-3.14-1.59-6.29-3.19-9.43-4.78
		C102.98,162.2,102.97,161.51,102.96,160.83z"/>
	<path class="st1" d="M136.94,143.77c-1.03,4.11-4.72,5.96-7.37,8.69c-0.71-0.03-1.42-0.05-2.12-0.08
		c-2.26-2.72-6.12-2.92-8.53-5.42c0.73-1.11,1.46-2.22,2.19-3.34c6,4.15,9.62,0.52,12.98-3.96
		C135.43,140.77,134.95,143.13,136.94,143.77z"/>
	<path class="st1" d="M152.26,127.77c0.26,1.42,0.53,2.83,0.79,4.25c0,0-0.08-0.09-0.08-0.09c-0.34,0.09-0.67,0.21-0.99,0.36
		c-3.64,0.23-4.74,4.87-8.49,4.89c-2.55-1.64-5.1-3.28-7.64-4.93c0.2-2.01,1.13-3.31,3.29-3.43c2.19,2.25,4.24,2.41,6.55-0.02
		c1.51-1.59,3.45-2.77,5.2-4.14C150.98,125.86,150.89,127.13,152.26,127.77z"/>
	<path class="st5" d="M159.44,152.49c1.44,2.04,2.88,4.09,4.32,6.13c-0.94,0.77-1.94,1.48-2.82,2.31c-4.5,4.25-5.84,3.97-8.95-2
		C153.74,155.93,154.77,152.11,159.44,152.49z"/>
	<path class="st8" d="M135.86,132.25c2.55,1.64,5.1,3.28,7.64,4.93c-3.4,0.99-2.89,5.87-6.56,6.6c-1.99-0.65-1.51-3-2.85-4.1
		c-0.86-1.5-2.98-1.8-3.47-3.65c0.02-0.62,0.03-1.23,0.05-1.85c1.31-0.06,2.04-0.75,2.27-2.02
		C133.91,132.19,134.88,132.22,135.86,132.25z"/>
	<path class="st7" d="M129.59,155.48c2.56-0.67,5.1-1.42,7.69-1.95c0.76-0.16,1.92,0.06,2.41,0.57c0.87,0.89,0.32,1.99-0.43,2.84
		c-2.32,2.66-4.22,5.8-8.33,7.07C132.06,160.81,126.87,158.99,129.59,155.48C129.59,155.48,129.59,155.48,129.59,155.48z"/>
	<path class="st8" d="M121,168.23c-3.11,1.57-5.87,3.9-9.51,4.28l0,0c0.02-0.7,0.04-1.4,0.06-2.1c1.28-1.2,4.11-0.47,4.11-3.27
		c0,0,0,0.03,0,0.03c0.98-0.41,1.12-1.25,1.1-2.17c0,0-0.07,0-0.07,0C118.55,165.5,120.7,165.62,121,168.23z"/>
	<path class="st7" d="M127.45,152.39c0.71,0.02,1.42,0.05,2.12,0.07c0.01,1.01,0.01,2.01,0.02,3.02c0,0,0,0,0,0
		c-3.38-0.13-3.52,5.38-7.45,4.28c0,0-0.09-0.1-0.09-0.1C122.53,156.26,126.1,155.15,127.45,152.39z"/>
	<path class="st5" d="M160.57,145.73c-4.4,1.35-8.83,3.08-12.84-0.95c0.72-0.05,1.44-0.1,2.16-0.15c3.72,1.77,7.19,0.56,10.64-0.87
		C160.54,144.41,160.55,145.07,160.57,145.73z"/>
	<path class="st5" d="M147.75,144.79c-0.69,0-1.38,0-2.07,0c-0.14-0.58-0.46-1.64-0.4-1.66
		C146.78,142.6,147.19,143.82,147.75,144.79z"/>
	<path class="st7" d="M120.48,161.81c0.12-0.69,0.24-1.38,0.36-2.07c0.4-0.02,0.81-0.05,1.21-0.08c0,0,0.09,0.1,0.09,0.1
		C122.07,160.83,121.66,161.64,120.48,161.81z"/>
	<path class="st7" d="M141.73,153.05c0.13,0.05,0.26,0.09,0.39,0.14c-0.05,0.15-0.08,0.32-0.17,0.43c-0.03,0.04-0.24-0.08-0.37-0.12
		C141.63,153.35,141.68,153.2,141.73,153.05z"/>
	<path class="st8" d="M151.99,132.28c0.32-0.15,0.65-0.27,0.99-0.36C152.84,132.56,152.55,132.79,151.99,132.28z"/>
	<path class="st8" d="M102.99,162.88c3.14,1.59,6.29,3.19,9.44,4.78c-1.07,0.87-3.2,0.53-3.15,2.7c-2.83,0.75-2.43,4.44-4.96,5.47
		c-1.94-1.41-0.34-5.69-4.39-5.39c-1.71-0.27-4.01,0.7-4.47-2.15c0.35-0.36,0.69-0.72,1.04-1.08
		C98.92,166.16,99.93,162.97,102.99,162.88z"/>
	<path class="st6" d="M101.67,192.46c-0.62,1.72-2.8,1.98-4.12,3.22c-0.48,0.45-1.67,0.07-1.53-0.69c0.42-2.26,2.46-3.12,4.24-4.04
		C100.8,190.67,101.55,191.27,101.67,192.46z"/>
	<path class="st6" d="M109.28,170.37c-0.04-2.18,2.08-1.83,3.15-2.7c1.08-0.17,2.16-0.35,3.23-0.52c-0.01,2.81-2.83,2.07-4.11,3.27
		C110.79,170.4,110.03,170.38,109.28,170.37z"/>
	<path class="st6" d="M111.48,172.51c-0.08,0.15-0.16,0.3-0.24,0.44C111.32,172.81,111.41,172.67,111.48,172.51
		C111.49,172.52,111.48,172.51,111.48,172.51z"/>
	<polygon class="st6" points="132.79,167.21 132.56,167.64 132.36,167.45 	"/>
	<path class="st6" d="M110.34,153.24c2.56,0.47,2.92-2.06,4.31-3.17c1.92,1.4,2.33,3.42,2.28,5.62c-0.71,0.45-1.71,0.74-2.1,1.39
		c-2.44,4.12-5.83,4.22-9.73,2.54C106.04,156.83,107.95,154.84,110.34,153.24z"/>
	<path class="st6" d="M140.28,125.61c0.95-2.63,4.64-2.47,5.42-5.28c0.33-0.32,0.65-0.64,0.98-0.95c1.35-0.65,2.69-1.31,4.04-1.97
		c0.05,0.28,0.1,0.56,0.16,0.84c0.01,2.14,0.02,4.27,0.03,6.41c-1.75,1.37-3.69,2.55-5.2,4.14c-2.31,2.43-4.36,2.27-6.55,0.02
		C139.52,127.75,139.9,126.68,140.28,125.61z"/>
	<path class="st12" d="M130.66,134.17c0-0.73,0.01-1.46,0.01-2.19c0.75,0.06,1.5,0.11,2.26,0.17
		C132.7,133.42,131.97,134.12,130.66,134.17z"/>
	<path class="st1" d="M150.87,118.25c-0.06-0.28-0.11-0.56-0.16-0.84c0.77-1.06-1.5-3.01,1.03-3.56c0.62,0.98,1.25,0.62,1.89,0.02
		c0,0,0,0.04,0,0.04c5.82,5.04,8.38-1.4,12.19-3.46c0.73,1.14,1.46,2.28,2.2,3.43c-0.72,5-4.23,7.24-8.57,8.67
		C156.65,120.98,154.24,118.66,150.87,118.25z"/>
	<path class="st6" d="M153.63,113.87c-0.64,0.6-1.27,0.95-1.89-0.02C152.37,113.86,153,113.87,153.63,113.87z"/>
	<path class="st13" d="M224.54,98.86c-0.26,0.44-0.46,0.95-0.8,1.33c-4.96,5.57-6.26,5.4-9.89-1.24c1.78-1.77,3.56-3.54,5.34-5.31
		C222.53,93.78,223.28,96.58,224.54,98.86z"/>
	<path class="st8" d="M216.88,109.46c-0.31,0.39-0.63,0.78-0.94,1.17c-2.59-0.01-3.55,3.36-6.29,3.04c-1.46-2.7-2.04-6.32-6.34-6.05
		c-3.45-5.82-3.45-5.82,3.94-9.81c-0.48,4.72,3.38,5.52,6.42,6.8C216,105.59,217.63,106.63,216.88,109.46z"/>
	<path class="st8" d="M177.27,127.63c-0.11,2.94,1.81,4.17,4.15,5.33c1.94,0.96,5.43,1.32,5.24,3.54c-0.22,2.61-3.2,4.36-5.46,5.96
		c-0.59,0.42-1.68,0.12-2.55,0.15c-1.67-1.7-1.85-4.89-5.05-5.06c-0.11-0.97-0.33-1.88-1.31-2.36l0.01-0.02
		C169.78,129.9,174.71,129.55,177.27,127.63z"/>
	<path class="st8" d="M192.13,114.82c2.65,3.55,7.19,3.96,11.3,6.7c-3.67,1.6-4.92,5.54-8.76,6.42c-1.43-1.85-2.85-3.69-4.28-5.53
		c-0.92-1.61-4.06-1.83-3.46-4.01C187.51,116.24,189.56,114.81,192.13,114.82z"/>
	<path class="st5" d="M203.31,107.62c4.3-0.27,4.88,3.35,6.34,6.05c-5.01,6.77-5.01,6.77-11.67-0.36
		C199.97,111.61,202.02,109.97,203.31,107.62z"/>
	<path class="st13" d="M190.39,122.41c1.43,1.84,2.85,3.69,4.28,5.53c-3.7,7.01-5.41,7.03-11.76,0.11
		C185.53,126.34,187.3,123.5,190.39,122.41z"/>
	<path class="st5" d="M173.6,137.56c3.2,0.17,3.38,3.36,5.05,5.06c-0.46,3.25-3.07,4.72-5.34,6.47c-1.21-2.8-4.67-3.88-5.38-7.06
		c1.31-0.53,2.83-0.82,3.18-2.55c0.38-0.37,0.76-0.74,1.14-1.11C172.71,138.11,173.16,137.83,173.6,137.56z"/>
	<path class="st11" d="M167.94,142.04c0.71,3.18,4.17,4.26,5.38,7.06c-0.41,0.38-0.81,0.75-1.22,1.13
		c-4.58,0.39-7.36-3.84-11.53-4.49c-0.01-0.66-0.03-1.32-0.04-1.97C162.02,138.95,165.59,143.12,167.94,142.04z"/>
	<path class="st8" d="M150.87,118.25c3.37,0.41,5.78,2.73,8.57,4.3c-2.35,1.8-3.42,5.35-7.18,5.22c-1.37-0.63-1.28-1.9-1.36-3.11
		C150.89,122.52,150.88,120.39,150.87,118.25z"/>
	<path class="st6" d="M172.26,138.38c-0.38,0.37-0.76,0.74-1.14,1.11c-4.26,0.73-4.72-3.19-7.94-6.31c4.01,0.88,6.56,1.43,9.12,1.99
		c0,0-0.01,0.02-0.01,0.02C172.28,136.26,172.27,137.32,172.26,138.38z"/>
	<path class="st8" d="M179.55,106.28c0.34-2.05,1.7-3.25,3.46-4.12C184.2,105.51,181.95,105.96,179.55,106.28z"/>
	<path class="st6" d="M179.75,95.81c-5.12,6.88-5.26,6.92-10.63,3.14c3.03-1.51,4.16-5.32,7.64-6.29
		C179.27,92.27,179.85,93.72,179.75,95.81z"/>
	<path class="st7" d="M95.46,168.29c0.46,2.85,2.76,1.89,4.47,2.15c-2.86,5.78-5.35,6.62-11.86,4.02c0.36-0.62,0.72-1.24,1.09-1.86
		C91.63,171.71,92.31,168.19,95.46,168.29z"/>
	<path class="st9" d="M202.1,126.67c-0.35,0.36-0.7,0.71-1.05,1.07C201.4,127.38,201.75,127.03,202.1,126.67z"/>
	<path class="st8" d="M117.9,146.88c0.34,0.06,0.67,0.09,1.01,0.09c2.4,2.5,6.26,2.7,8.53,5.42c-1.34,2.76-4.92,3.87-5.4,7.27
		c-0.4,0.02-0.81,0.05-1.21,0.07c-1.51-1.15-0.62-4.61-3.9-4.05c0.05-2.2-0.36-4.21-2.28-5.62
		C115.37,148.64,116.46,147.58,117.9,146.88z"/>
	<path class="st6" d="M116.75,165c0.02,0.92-0.11,1.76-1.1,2.17C115.33,166.1,115.93,165.49,116.75,165z"/>
	<path class="st7" d="M124.27,139.48c2.12-1.15,4.23-2.3,6.35-3.45c0.49,1.85,2.61,2.15,3.47,3.65c-3.36,4.48-6.99,8.11-12.98,3.96
		C122.16,142.25,123.22,140.86,124.27,139.48z"/>
	<path class="st9" d="M110.4,152.29c0.08-0.14,0.15-0.28,0.23-0.42c-0.08,0.13-0.16,0.27-0.25,0.4
		C110.38,152.27,110.4,152.29,110.4,152.29z"/>
	<path class="st7" d="M172.26,138.38c0.01-1.06,0.02-2.12,0.03-3.18c0.98,0.48,1.2,1.39,1.31,2.36
		C173.16,137.83,172.71,138.11,172.26,138.38z"/>
	<g id="Base_1_">
		<path class="st14" d="M0,0v300h300V0H0z M292.5,292.5H7.5V7.5h285V292.5z"/>
	</g>
</g>
</svg>
