<?xml version="1.0" encoding="utf-8"?>
<!-- Generator: Adobe Illustrator 23.0.1, SVG Export Plug-In . SVG Version: 6.00 Build 0)  -->
<svg version="1.1" xmlns="http://www.w3.org/2000/svg" xmlns:xlink="http://www.w3.org/1999/xlink" x="0px" y="0px"
	 viewBox="0 0 300 300" style="enable-background:new 0 0 300 300;" xml:space="preserve">
<style type="text/css">
	.st0{fill:#424242;}
	.st1{fill:#262A2B;}
	.st2{fill:#1B1B1B;}
	.st3{fill:#111111;}
	.st4{fill:#32302E;}
	.st5{fill:#242423;}
	.st6{fill:#20201F;}
	.st7{fill:#6A6A68;}
	.st8{fill:#595755;}
	.st9{fill:#494645;}
	.st10{fill:#0C0C0C;}
	.st11{fill:#090909;}
	.st12{fill:#141414;}
	.st13{fill:#060606;}
	.st14{fill:#161616;}
	.st15{fill:#0E0E0E;}
	.st16{fill:#9E9E9E;}
</style>
<g id="background">
	<rect x="4" y="4" class="st0" width="291" height="291"/>
</g>
<g id="Layer_1">
	<path class="st1" d="M19.02,136.32c-0.03-2.73-0.07-5.47,0.47-8.17c0.24-1.67,0-3.42,0.82-4.99c0.47,0.74,0.94,1.48,1.42,2.23
		c-0.22,1.36-0.44,2.72-0.66,4.09c0.4,4.47-0.01,9.2,1.37,13.34c2.5,7.47,6.77,10.33,13.51,8.14c3.79-1.23,5.71-4.6,7.65-7.81
		c0.91-1.59,1.83-3.18,2.74-4.77c1.31-0.59,1.86-1.8,2.63-2.92c3.12-4.57,3.19-9.66,2.82-14.85c0.01-1.36,0.02-2.72,0.03-4.08
		c2.08-5.68-0.13-12.02-5.27-17.09c-2.34-2.3-5.85-2.55-7.79-5.24c0.34-0.31,0.69-0.63,1.03-0.94l0,0.03
		c7.32-0.42,11.35,3.72,13.83,9.99c0.23,0.59,0.46,1.17,0.68,1.76c0.31,1.54,0.62,3.09,0.93,4.63c-0.56,4.03-0.56,8.04,0.08,12.5
		c1.22-1.26,0.82-2.21,0.94-3.07c0.21-1.5-0.08-3.82,2-3.63c1.82,0.17,1.27,2.35,1.05,3.74c-0.3,1.86-0.31,3.43,1.94,3.99
		c-0.51,1.61-1.29,3.15-1.29,4.9c-0.67,0.12-1.34,0.24-2.01,0.36c0,0-0.03-0.3-0.03-0.3c-0.15-1.22,0.05-2.9-1.42-3.14
		c-1.38-0.23-1.04,1.42-1.37,2.3c-1.09,1.68-1.65,3.56-2.08,5.5c-1.82,3.42-3.64,6.84-5.46,10.27c-3.43,4.38-6.75,8.87-12.19,11.02
		c-3.12,1.79-6.02,0.84-8.87-0.71c-0.51-0.42-1.01-0.84-1.52-1.25c-0.62-0.62-1.25-1.25-1.87-1.88
		C20.97,145.83,19.89,141.1,19.02,136.32z"/>
	<path class="st2" d="M26.5,153.38c2.22,0.89,4.49,1.44,6.92,0.4c0.3,0.67,2.49-0.67,3.35-0.16c0.02,1.02-0.24,3.46,0.91,3.64
		C39.33,160.12,27.39,155.22,26.5,153.38z"/>
	<path class="st3" d="M268.43,203.3c-0.04-0.24-0.07-0.48-0.11-0.72c0.67-0.63,1.35-1.27,2.02-1.9c0,0-0.11-0.09-0.11-0.09
		c-0.41-0.03-0.81-0.05-1.22-0.08c-0.74-0.5-1.42-1.13-2.22-1.46c-5.31-2.16-5.56-3.53-1.21-7.5c0.57-0.52,1.31-0.86,1.97-1.29
		c2.42,1.36,5.02,2.04,7.79,2.08c0.42,0.22,0.83,0.45,1.25,0.67C273.81,198.26,269.77,204.2,268.43,203.3z"/>
	<path class="st1" d="M263.56,205.31c-1.65,0.64-3.29,1.29-4.94,1.93c-2.91-0.89-6.04-1.06-8.75-2.63c1.46-1.74,3.77-2.06,5.51-3.32
		c1.29-0.12,2.57-0.23,3.86-0.35c2.94,1.02,5.96,1.59,9.08,1.63c0.04,0.24,0.07,0.48,0.11,0.72
		C266.81,203.97,265.19,204.64,263.56,205.31z"/>
	<path class="st1" d="M40.41,159.08c-1.82-0.91-3.62,0.18-3.65-1.6c1.45,0.49,2.67-0.3,3.96-0.71c0.95-0.45,1.9-0.9,2.86-1.36
		l0-0.02c1.73-0.54,3.02-1.52,3.4-3.4l0.02-0.01c0.24-0.43,0.48-0.86,0.71-1.29c0.67-0.52,1.33-1.05,2-1.57
		c0.61,4.64,4.7,4.18,7.63,4.74c10.57,2.05,21,4.62,31.41,7.37c4.84,1.28,9.78,2.82,14.96,2.39c0.23,0.01,0.46,0.02,0.69,0.03
		c3.62,3.43,7.3,4.13,10.93,2.1c1.35-0.01,2.71-0.01,4.06-0.02c6,6.97,14.98,5.65,22.64,7.9c2.13,0.62,4.72,0.28,6.87,1.34
		c6.52,3.21,13.65,4.75,20.46,7.12c4.96,1.73,10.69,1.48,15.84,3.34c11.6,3.73,23.42,6.62,35.37,8.91
		c6.35,1.22,12.52,3.48,19.09,3.44c2,1.33,3.79,0.89,5.45-0.65c0.23-0.01,0.47-0.02,0.7-0.03c0.17,2.75,2.02,3.4,4.33,3.48
		c-1.44,1.38-3.25,1.82-5.14,2.17c-0.88,0.16-2.01,0.01-0.56,1.87l-0.69-0.01c-2.89-0.02-5.47-1.34-8.21-1.98
		c-0.88-0.5-14.78-4.75-19.9-5.78c-6.79-1.36-60.51-13.59-64.81-14.07c-2.97-0.47-15.98-2.42-19.23-4.04
		c-3.39-0.34-23.68-5.06-27.27-5.61c-0.95-0.15-32.35-6.58-34.82-7.4C66.05,165.61,44.28,158.9,40.41,159.08z"/>
	<path class="st3" d="M250.13,200.59c1.72-0.25,3.13-1.19,4.56-2.09c0.23,0.93,0.46,1.87,0.69,2.8c-1.75,1.26-4.06,1.58-5.51,3.32
		c-0.21,0.08-3.01,1-3.62,0.92c-2.54-0.34-5.07-2.75-2.73-2.73C243.7,202.87,248.69,201.97,250.13,200.59z"/>
	<path class="st4" d="M246.25,205.54c1.1-0.42,2.51-0.5,3.62-0.92c2.71,1.57,5.84,1.74,8.75,2.63c-0.4,0.25-0.81,0.5-1.21,0.75
		C253.79,207.29,249.87,206.25,246.25,205.54z"/>
	<path class="st5" d="M43.6,143.14c-1.94,3.21-3.86,6.57-7.65,7.81c-6.74,2.19-11.01-0.67-13.51-8.14
		c-1.39-4.13-0.98-8.87-1.37-13.34c1.15,0.58,1.74,2.49,3.35,1.85c1.55-0.61,1.64-2.33,1.89-3.77c0.19-1.11,0.15-2.26,0.31-3.38
		c0.46-3.2,1.37-6.2,3.99-8.37c0.04,1.82-1.58,3.65,0.01,5.47c-0.05,2.91,0.68,5.23,4.14,5.51c-0.02,0.62-0.05,1.25-0.07,1.87
		c-0.89,0.07-1.77,0.14-2.66,0.21c-1.84-1.6-2.89-0.03-3.94,1.08c-1.12,1.17-1.13,2.54,0.11,3.6c1.46,1.26,2.4,4.07,5.19,2.1
		l-0.11-0.17c1.21-0.04,2.52,0.19,3.6-0.2c2.02-0.73,3.66-1.92,1.96-4.44c1.44-0.32,2.43-1.14,2.79-2.61
		c0.69-1.66,1.37-3.33,2.06-4.99c0-0.18-0.01-0.36-0.02-0.53c0-0.48,0-0.97,0-1.45c1.76-3,1.87-9.13-0.19-10.9
		c-2.98-2.57-6.14-1.32-9.16,0.26c-0.3,0.16-0.62,0.28-0.93,0.42c-0.09-2.36,0.95-4.36,1.97-6.38c0.52-1.02,0.86-2.2,0.06-3.2
		c-0.85-1.06-1.83-0.19-2.78,0.02c-1.2,0.26-2.43,0.37-3.65,0.54c1.24-2.39,3.29-4.08,5.14-5.95c1.31-0.71,4.42-1.97,4.66-1.88
		c1.94,2.69,5.46,2.94,7.79,5.24c5.14,5.07,7.34,11.4,5.27,17.09c-2.47-2.57-3.1-2.52-4.14,0.87c-2,6.51-3.94,13.01-7.47,18.93
		c-2.23,3.74-4.62,4.88-8.78,3.59c-1.94-0.6-3.91-1.29-5.36-2.83c-1.5-1.6-2.26-1.08-2.68,0.79c-0.66,2.96,2.11,8.72,5.08,10.57
		c2.91,1.81,7.11,1.27,10.09-1.32C40.17,145.7,41.47,143.9,43.6,143.14z"/>
	<path class="st6" d="M30.6,115.8c-2.62,2.18-3.52,5.18-3.99,8.37c-0.16,1.12-0.12,2.27-0.31,3.38c-0.25,1.44-0.33,3.15-1.89,3.77
		c-1.61,0.64-2.2-1.27-3.35-1.85c0.22-1.36,0.44-2.72,0.66-4.09c0.52-1.14,0.51-2.28,0-3.42c0-0.45,0-0.91,0-1.36
		c1.78-3.79,3.53-7.59,5.35-11.36c0.91-1.87,1.51-3.79,1.45-5.88c0-0.44-0.01-0.88-0.01-1.33c0.15-0.01,0.29-0.02,0.44-0.03
		c1.22-0.17,2.45-0.28,3.65-0.54c0.95-0.21,1.93-1.08,2.78-0.02c0.8,1,0.46,2.19-0.06,3.2c-1.02,2.02-2.06,4.02-1.97,6.38
		c0,0.23,0,0.45,0,0.68c-0.94,0.43-1.63,1.11-2.04,2.06C31.07,114.45,30.83,115.13,30.6,115.8z"/>
	<path class="st5" d="M28.52,103.37c0.06,2.09-0.54,4.01-1.45,5.88c-1.82,3.77-3.57,7.57-5.35,11.36c-0.23,0-0.47-0.01-0.7-0.01
		c-0.02-0.46-0.03-0.93-0.05-1.39c0.72-2.01,0.72-4.26,1.97-6.1c0.96-2.28,1.92-4.57,2.88-6.85
		C26.72,105.29,27.62,104.33,28.52,103.37z"/>
	<path class="st7" d="M55.22,109.66c-0.31-1.54-0.62-3.09-0.92-4.63c-0.23-0.59-0.46-1.17-0.68-1.76
		c-2.48-6.28-6.51-10.42-13.83-9.99c1.27-1.8,3.51-1.33,5.18-2.21c0.68,0.08,1.35,0.16,2.03,0.24c0.74,1.89,2.5,2.82,3.89,4.1
		c0.72,0.65,1.56,1.83,2.53,1.12c1.22-0.88,0.08-2-0.35-2.96c-0.13-0.3-0.35-0.57-0.54-0.85c0.44-0.07,27.47,7.62,29.29,8.19
		c0.06,2.33-3.63,1.69-3.34,4.21c-1.66-0.36-3.31-0.74-4.79-1.62c-0.24,0.01-0.48,0.02-0.72,0.03c-1.33,0.34-2.7,0.61-3.87-0.32
		c-1.93-1.54-4.38-1.64-6.52-2.56c-1.67-0.72-2.26-0.05-2.39,1.51c-0.08,0.89-0.18,1.78-0.27,2.67c0.06,1.61,0.12,3.21,0.19,4.82
		c-1.23,0.12-2.42,0.06-3.5-0.64c0.2-0.04,0.4-0.07,0.6-0.11c-0.07-0.12-0.13-0.23-0.2-0.35c-0.15,0.13-0.31,0.25-0.46,0.38
		C56.1,109.17,55.66,109.41,55.22,109.66z"/>
	<path class="st8" d="M52.52,92.71c0.18,0.28,0.4,0.55,0.54,0.85c0.43,0.97,1.57,2.08,0.35,2.96c-0.97,0.7-1.82-0.47-2.53-1.12
		c-1.39-1.27-3.14-2.21-3.89-4.1C49.07,90.84,50.66,92.32,52.52,92.71z"/>
	<path class="st8" d="M81.81,100.91c2.52,0.64,5.04,1.28,7.56,1.91c3.63,1.09,7.26,2.19,10.89,3.28c3.64,1.04,7.27,2.08,10.91,3.12
		c3.81,1.35,41.78,12.32,45.02,12.99c3.64,1.15,25,7.07,26.15,7.39c0.22,0.19,0.45,0.38,0.67,0.57c0.22,0.01,0.44,0.05,0.66,0.12
		c1.48,1.42,3.69,2.18,4.16,4.52c-6.01-1.11-11.9-2.66-17.63-4.78c-1.18-0.44-2.32-0.77-3.63-0.61c-3.96,0.5-7.55-0.54-11.09-2.41
		c-8.7-4.59-17.92-6.94-27.85-5.58c-0.65-0.12-1.3-0.24-1.96-0.35c-1.61-2.3-4-3.65-6.6-3.71c-5.9-0.15-10.65-3.55-15.98-5.25
		c-3.88-1.24-7.75-2.37-11.71-3.36c-4.32-1.09-9.2-0.39-12.91-3.64C78.18,102.6,81.87,103.24,81.81,100.91z"/>
	<path class="st1" d="M280.87,168.33c-0.14,1.23-0.29,2.46-0.43,3.69c-1.87-0.37-3.74-0.77-5.63-1.09c-0.92-0.16-2.1-0.75-2.37,0.9
		c-0.16,1.32-0.7,2.13-2.17,1.46c-1.49-0.68-3.07-1.27-3.92-2.85c5.1-0.89,5.1-0.89,3.39-5.42c0.06-0.94,0.12-1.89,0.17-2.83
		c2.69-0.06,5.2,1.58,7.96,0.8c0.27-0.01,0.53-0.03,0.8-0.04C279.4,164.75,280.14,166.54,280.87,168.33z"/>
	<path class="st9" d="M278.67,162.95c-0.27,0.01-0.53,0.03-0.8,0.04c-1.39-0.49-2.75-1.15-4.18-1.44c-1.27-0.26-2.87-1.55-3.78,0.64
		c-0.06,0.94-0.12,1.89-0.17,2.83c-4.44,2.14-4.77-1.78-6.14-4.16c1.47-0.73,3.02-1.33,4.06-2.69c2.31,0.22,4.62,0.45,6.92,0.67
		c1.11,0.46,2.23,0.91,3.34,1.37C278.17,161.13,278.42,162.04,278.67,162.95z"/>
	<path class="st10" d="M280.62,176.67c0.83,1.62-0.68,10.68-1.36,10.92c-3.17-0.72-6.34-1.45-9.51-2.17
		c-0.02-0.89-0.04-1.79-0.06-2.68c0.01-0.45,0.01-0.89,0.02-1.34c0.02-0.44,0.04-0.88,0.06-1.31c0.2-0.5,0.4-0.99,0.59-1.49
		c0.7-2.94,2.62-3.64,5.34-2.98C277.33,176,278.98,176.32,280.62,176.67z"/>
	<path class="st5" d="M21.72,121.97c0.52,1.14,0.52,2.28,0,3.42c-0.47-0.74-0.94-1.48-1.42-2.23c0.01-0.17,0.03-0.34,0.05-0.51
		C20.81,122.43,21.26,122.2,21.72,121.97z"/>
	<path class="st1" d="M21.72,121.97c-0.45,0.23-0.91,0.46-1.36,0.69c0.22-0.69,0.44-1.38,0.66-2.07c0.23,0,0.47,0.01,0.7,0.01
		C21.72,121.06,21.72,121.51,21.72,121.97z"/>
	<path class="st7" d="M260.67,149.62c1.71,0.03,10.69,3.12,12.46,6.01c0.65,1.05,1.52,1.89,1.46,3.22
		c-2.31-0.22-4.62-0.45-6.92-0.67C264.88,155.69,261.69,153.54,260.67,149.62z"/>
	<path class="st11" d="M277.87,189.02c0.01,1.11-0.86,3.77-1.29,3.99c-0.42-0.22-0.83-0.45-1.25-0.67
		c-2.31-1.76-5.04-1.95-7.79-2.08c-0.66,0.42-1.4,0.76-1.97,1.29c-4.35,3.97-4.1,5.34,1.21,7.5c0.81,0.33,1.49,0.97,2.23,1.46
		c-1.43-0.23-2.86-0.44-4.29-0.69c-1.98-0.35-4-0.93-5.48,1.13c-1.29,0.12-2.57,0.23-3.86,0.35c-0.23-0.93-0.46-1.87-0.69-2.8
		c0.06-0.22,0.12-0.45,0.18-0.67c1.59-0.7,2.58-1.97,3.33-3.47c3.15-2.76,3.12-3.01-0.62-4.69c-0.83-0.37-2.03-0.77-2.04-1.59
		c-0.13-5.44-2.98-2.34-5.08-1.73c-0.86,0.25-1.75,0.35-2.63,0.52c-10.73-2.53-21.44-5.15-32.2-7.54c-4.54-1.01-9-2.46-13.69-2.76
		c-0.15,0.01-0.3,0.03-0.44,0.05c-0.26-0.24-0.51-0.48-0.77-0.72c0.54-1.69-0.25-2.84-1.53-3.8c-2.4-1.79-5.12-2.58-8.04-2.12
		c-3.88,0.62-7.51-0.23-10.97-1.72c-2.64-1.14-5.33-2.35-8.13-2.37c-5.06-0.04-9.5-2.02-14-3.8c-3.45-1.37-6.95-1.89-10.63-1.99
		c-3.88-0.12-7.63-1.08-11.2-2.73c-4.06-1.88-8.33-2.93-12.83-3.11c-2.14-0.08-4.44-0.19-6.37-1c-9.73-4.09-20.41-4.18-30.36-7.69
		c-9.15-3.23-19.03-4.3-28.25-7.62c-0.92-0.33-1.77-0.38-2.52,0.37c-1.05,0.64-1.68,1.59-2.04,2.75c-0.23,0.45-0.46,0.9-0.69,1.35
		c-0.68,0.92-1.35,1.84-2.03,2.76c-0.24,0.44-0.48,0.89-0.72,1.33c-1.93-0.35-2.57-1.75-2.81-3.47c1.82-3.42,3.64-6.84,5.46-10.26
		c2.94,1.64,4.42,0.48,4.89-2.57c0-0.33,0.01-0.66,0.01-0.99c0-0.26-0.01-0.52-0.01-0.79c0.67-0.12,1.34-0.24,2.01-0.36
		c0.46-0.23,0.93-0.47,1.39-0.7c10.14,2.51,20.36,4.74,30.4,7.59c20.97,5.94,42.38,10.21,63.23,16.57
		c8.32,2.54,16.89,3.88,25.29,6.03c9.01,2.3,17.8,5.46,27,7.02c1.37,0.23,2.69,0.71,3.72-0.69c1.13,0.34,2.27,0.69,3.4,1.03
		c2.21,2.96,5.09,3.69,8.53,2.52c0.57,0.07,1.15,0.15,1.72,0.22c1.22,2.26,2.97,2.18,4.95,1.12c2.22,0.56,4.29,1.69,6.63,1.81
		c1.08,1.83,2.56,1.85,4.24,0.92c2.24,0.57,4.48,1.13,6.72,1.7c0.53,0.7,1.2,0.95,2.05,0.67c1.14,0.12,2.29,0.24,3.43,0.37
		c1.53,1.6,3.97,2.25,4.75,4.6c0.25,0.74-0.9,1.9,0.57,2.26c1.28,0.31,2.08-0.54,2.8-1.46c1.5-1.89,3.14-1.97,4.87-0.31
		c-1.25,3.33,0.23,5.16,3.35,6.1C271.43,187.92,275.09,187.37,277.87,189.02z M200.25,166.45c16.82,4.09,33.45,8.96,50.53,11.87
		C234.12,173.51,217.52,168.52,200.25,166.45z"/>
	<path class="st6" d="M43.6,143.14c-2.12,0.76-3.43,2.55-5.05,3.96c-2.98,2.59-7.18,3.13-10.09,1.32
		c-2.97-1.84-5.75-7.61-5.08-10.57c0.42-1.87,1.18-2.39,2.68-0.79c1.45,1.54,3.42,2.23,5.36,2.83c4.16,1.29,6.55,0.15,8.78-3.59
		c3.53-5.91,5.47-12.42,7.47-18.93c1.04-3.39,1.68-3.44,4.14-0.87c-0.01,1.36-0.02,2.72-0.03,4.08c-1.83,5.92-2.92,12.07-5.45,17.78
		C45.42,139.96,44.51,141.55,43.6,143.14z"/>
	<path class="st2" d="M61.34,127.38c-0.46,0.23-0.93,0.47-1.39,0.7c-0.01-1.75,0.78-3.29,1.29-4.9c0.03-0.41,0.07-0.81,0.1-1.22
		c1.13-0.95,0.83-2.19,0.68-3.4c3.45-0.76,6.69-0.3,9.91,1.24c2.63,1.27,5.42,2.14,8.37,2.7c5.44,1.02,10.84,2.29,16.3,3.27
		c4.42,0.8,8.69,2.43,13.15,3.34c3.9,0.79,8.28,0.75,11.04,4.48c-2.26,1.49-4.37,0-6.42-0.52c-3.76-0.95-7.51-1.2-11.34-0.86l0,0
		c-1.01-2.66-3.43-3.35-5.78-3.59c-9.11-0.93-17.75-4.53-27.01-4.75c-0.51,1.11,0.39,1.91,0.66,2.84
		C67.57,125.02,64.27,123.51,61.34,127.38z"/>
	<path class="st12" d="M47.59,143.05c0.24,1.72,0.88,3.12,2.81,3.47c0.01,0.24,0.02,0.48,0.03,0.71c-0.24,0.63-0.48,1.26-0.71,1.9
		c-0.67,0.52-1.33,1.05-2,1.57c-0.24,0.43-0.48,0.86-0.71,1.29c0,0-0.02,0.01-0.02,0.01c-1.71,0.56-2.85,1.69-3.4,3.4
		c0,0,0,0.02,0,0.02c-1.16,0.02-2.08,0.54-2.86,1.36c-1.29,0.41-2.51,1.2-3.96,0.71c-1.1-0.88-0.98-2.25-1.36-3.42
		C40.84,151.92,44.16,147.43,47.59,143.05z"/>
	<path class="st9" d="M61.34,121.96c-0.03,0.41-0.07,0.81-0.1,1.22c-2.25-0.55-2.24-2.12-1.94-3.99c0.22-1.38,0.77-3.56-1.05-3.74
		c-2.08-0.2-1.79,2.13-2,3.63c-0.12,0.86,0.29,1.82-0.94,3.07c-0.64-4.47-0.64-8.47-0.08-12.5c0.44-0.24,0.88-0.48,1.31-0.73
		l0.05,0.07c1.08,0.7,2.27,0.75,3.5,0.64c0.42,0.24,0.84,0.48,1.27,0.72c-0.48,1.31-0.35,2.66-0.25,4.01
		c-0.11,1.17-0.23,2.34-0.34,3.52C60.65,119.29,60.68,120.67,61.34,121.96z"/>
	<path class="st5" d="M46.34,138.37c2.53-5.71,3.61-11.86,5.45-17.78c0.37,5.2,0.3,10.28-2.82,14.85
		C48.19,136.57,47.64,137.78,46.34,138.37z"/>
	<path class="st3" d="M57.94,130.22c-0.48,3.05-1.95,4.21-4.89,2.57c0.43-1.93,0.99-3.82,2.08-5.5c0.93,0.28,1.86,0.56,2.78,0.84
		c0,0,0.03,0.3,0.03,0.3c0,0.27,0.01,0.53,0.01,0.79C57.95,129.56,57.94,129.89,57.94,130.22z"/>
	<path class="st2" d="M57.91,128.14c-0.93-0.28-1.86-0.56-2.78-0.84c0.33-0.88-0.02-2.53,1.37-2.3
		C57.96,125.24,57.76,126.92,57.91,128.14z"/>
	<path class="st9" d="M53.62,103.27c0.23,0.59,0.46,1.17,0.68,1.76C54.07,104.44,53.84,103.85,53.62,103.27z"/>
	<path class="st6" d="M259.25,200.95c1.48-2.06,3.5-1.48,5.48-1.13c1.42,0.25,2.86,0.46,4.29,0.69c0.41,0.02,0.81,0.05,1.22,0.08
		c0,0,0.11,0.09,0.11,0.09c-0.67,0.63-1.35,1.27-2.02,1.9C265.21,202.54,262.19,201.97,259.25,200.95z"/>
	<path class="st6" d="M267.54,190.25c2.75,0.13,5.47,0.31,7.79,2.08C272.56,192.29,269.96,191.61,267.54,190.25z"/>
	<path class="st11" d="M270.23,200.58c0,0,0.11,0.09,0.11,0.09C270.34,200.67,270.23,200.58,270.23,200.58z"/>
	<path class="st6" d="M185.19,185.44c-5.15-1.86-10.89-1.61-15.84-3.34c-6.8-2.37-13.93-3.91-20.46-7.12
		c-2.15-1.06-4.75-0.71-6.87-1.34c-7.66-2.25-16.64-0.92-22.64-7.9c0.77-0.08,1.78-0.52,2.28-0.19c4.7,3.1,10.06,3.48,15.4,4.01
		c0.55,0.05,1.12,0.26,1.59,0.55c2.99,1.88,6.18,1.82,9.46,1.04c0,0,0,0,0,0c0.87,1.57,1.93,2.21,3.41,0.66
		c0.68,0.01,1.36,0.03,2.04,0.04c0.33,0.91,0.93,1.49,1.87,1.81c6.1,2.09,12.2,4.18,18.64,5c1.13,0.01,2.27,0.01,3.4,0.02
		c1.64,1.75,3.68,2.42,6.05,2.58c2.01,0.14,4.05,0.45,5.99,1c4.87,1.39,9.77,2.48,14.85,2.74c1.38,0.07,2.46-0.14,3.14-1.42
		c0.24,0.19,0.48,0.37,0.72,0.56c0.25,3.11,3.83,3.62,4.79,6.17c-4.3-0.9-8.57-1.97-12.89-2.67
		C195.16,186.84,190.37,184.79,185.19,185.44z"/>
	<path class="st5" d="M49.71,149.13c0.24-0.63,0.48-1.26,0.71-1.9c1.13,1.74,2.89,2.42,4.8,2.94c5.24,1.42,10.73,1.8,15.84,3.73
		c6.16,2.32,12.46,4.02,18.95,5.15c4.76,0.83,9.65,1.51,13.69,4.58c-5.18,0.44-10.12-1.11-14.96-2.39
		c-10.41-2.75-20.83-5.33-31.41-7.37C54.41,153.31,50.32,153.77,49.71,149.13z"/>
	<path class="st2" d="M103.7,163.64c-4.04-3.07-8.93-3.76-13.69-4.58c-6.5-1.13-12.8-2.83-18.95-5.15
		c-5.11-1.93-10.6-2.31-15.84-3.73c-1.91-0.52-3.66-1.2-4.8-2.94c-0.01-0.24-0.02-0.47-0.03-0.71c0.24-0.44,0.48-0.89,0.71-1.33
		c2.15,0.75,3.67,2.94,5.99,3.08c6.56,0.38,12.23,3.96,18.57,4.97c4.37,0.7,8.43,2.6,12.79,3.14c5.53,0.69,10.78,2.52,16.18,3.7
		c1.16,0.25,1.95,1.11,2.49,2.16c-0.91,0.47-1.82,0.94-2.73,1.42C104.17,163.66,103.94,163.65,103.7,163.64z"/>
	<path class="st10" d="M185.19,185.44c5.18-0.66,9.97,1.4,14.94,2.21c4.33,0.7,8.6,1.77,12.89,2.67c7.92,1.72,15.83,3.5,23.77,5.12
		c2.61,0.53,4.65-0.48,5.58-3.18c0.91,0.04,1.82,0.08,2.72,0.12c-0.45,0.87-0.91,1.75-1.36,2.62c-1.57,0.62-2.83,1.68-4.08,2.78
		c-6.57,0.04-12.74-2.22-19.09-3.44C208.61,192.06,196.79,189.17,185.19,185.44z"/>
	<path class="st2" d="M148.11,171.15c-3.28,0.78-6.46,0.85-9.46-1.04c-0.46-0.29-1.04-0.5-1.59-0.55c-5.34-0.53-10.7-0.91-15.4-4.01
		c-0.5-0.33-1.51,0.11-2.28,0.19c-1.35,0.01-2.71,0.01-4.06,0.02c-2.51-0.7-4.95-1.56-6.85-3.48c5.09,0.09,10.33,0.17,15.06,1.8
		c4.63,1.6,9.32,2.58,14.03,3.69C141.16,168.63,144.96,168.88,148.11,171.15z"/>
	<path class="st2" d="M243.73,195.01c0.45-0.87,0.91-1.75,1.36-2.62c0.25-0.25,0.5-0.5,0.75-0.75c2.28,0.21,4.81-1.4,6.81,0.74
		c1.56,1.67,3.45,2.05,5.56,1.99c-0.76,1.5-1.75,2.77-3.34,3.47c-1.77-0.09-3.56-0.18-5.12-1.09c-1.46-0.86-2.71-0.63-3.94,0.37
		c-0.23,0.01-0.47,0.02-0.7,0.02C244.65,196.42,244.19,195.71,243.73,195.01z"/>
	<path class="st5" d="M108.47,162.29c1.9,1.92,4.34,2.77,6.85,3.48c-3.63,2.04-7.31,1.33-10.93-2.09c0.91-0.47,1.82-0.94,2.73-1.42
		C107.58,162.27,108.03,162.28,108.47,162.29z"/>
	<path class="st5" d="M245.8,197.11c1.23-0.99,2.48-1.23,3.94-0.37c1.56,0.91,3.35,1,5.12,1.09c-0.06,0.22-0.12,0.45-0.18,0.67
		c-1.43,0.9-2.84,1.84-4.56,2.09C247.82,200.51,245.97,199.86,245.8,197.11z"/>
	<path class="st5" d="M243.73,195.01c0.46,0.71,0.92,1.42,1.38,2.13c-1.66,1.54-3.45,1.98-5.45,0.65
		C240.89,196.69,242.16,195.63,243.73,195.01z"/>
	<path class="st4" d="M43.57,155.41c0.55-1.71,1.69-2.85,3.4-3.4C46.59,153.89,45.3,154.87,43.57,155.41z"/>
	<path class="st4" d="M40.72,156.78c0.78-0.82,1.7-1.33,2.86-1.36C42.62,155.87,41.67,156.33,40.72,156.78z"/>
	<path class="st4" d="M46.99,152c0.24-0.43,0.48-0.86,0.71-1.29C47.47,151.14,47.23,151.57,46.99,152z"/>
	<path class="st13" d="M43.66,123.25c-0.69,1.66-1.37,3.33-2.06,4.99c-2.93-1.87-4.45-5.68-8.47-6.13c-0.45-0.05-0.8-1.02-1.2-1.56
		c0.14-2.02,0.73-3.88,2.08-5.44c2.92,1.78,5.24,5.16,9.43,3.51c0.06,0.88,0.13,1.76,0.19,2.65c0,0.48,0,0.97,0,1.45
		C43.64,122.89,43.64,123.07,43.66,123.25z"/>
	<path class="st1" d="M43.63,121.26c-0.06-0.88-0.13-1.76-0.19-2.65c-0.22-2.75-1.1-5.32-3.81-6.34c-2.56-0.96-4.19,0.98-5.62,2.83
		c-1.35,1.56-1.94,3.42-2.08,5.44c-0.44,0.24-0.88,0.48-1.33,0.73c-1.58-1.82,0.03-3.65-0.01-5.47c0.24-0.68,0.47-1.35,0.71-2.03
		c0.94-0.43,1.63-1.11,2.04-2.06c0-0.23,0-0.45,0-0.68c0.31-0.14,0.63-0.26,0.93-0.42c3.02-1.58,6.18-2.84,9.16-0.26
		C45.5,112.13,45.4,118.26,43.63,121.26z"/>
	<path class="st3" d="M30.6,121.28c0.44-0.24,0.88-0.48,1.33-0.73c0.4,0.54,0.75,1.51,1.2,1.56c4.02,0.45,5.54,4.25,8.47,6.13
		c-0.36,1.48-1.35,2.29-2.79,2.61c-0.21-0.02-0.43-0.04-0.64-0.05c-0.28-0.63-0.57-1.25-0.85-1.88c-0.18-1.53-1.26-1.99-2.58-2.14
		C31.28,126.51,30.55,124.19,30.6,121.28z"/>
	<path class="st8" d="M37.32,128.93c0.28,0.63,0.57,1.25,0.85,1.88c-1.6,1.6-5.46,0.82-4.93,4.68c0,0,0.11,0.17,0.11,0.17
		c-3.2-1.71-2.99-4.1-1.35-6.78c0.89-0.07,1.77-0.14,2.66-0.21C35.55,128.75,36.43,128.84,37.32,128.93z"/>
	<path class="st4" d="M32,128.87c-1.64,2.68-1.85,5.07,1.35,6.78c-2.8,1.97-3.73-0.84-5.19-2.1c-1.23-1.06-1.22-2.43-0.11-3.6
		C29.12,128.84,30.16,127.27,32,128.87z"/>
	<path class="st9" d="M33.24,135.49c-0.54-3.86,3.33-3.07,4.93-4.68c0.21,0.01,0.43,0.03,0.64,0.05c1.7,2.51,0.05,3.71-1.96,4.44
		C35.76,135.68,34.45,135.44,33.24,135.49z"/>
	<path class="st4" d="M37.32,128.93c-0.88-0.09-1.77-0.18-2.65-0.27c0.02-0.62,0.05-1.25,0.07-1.87
		C36.06,126.94,37.14,127.4,37.32,128.93z"/>
	<path class="st1" d="M43.66,123.25c-0.02-0.18-0.02-0.36-0.02-0.53C43.65,122.89,43.66,123.07,43.66,123.25z"/>
	<path class="st5" d="M33.34,111.72c-0.42,0.95-1.1,1.63-2.04,2.06C31.72,112.83,32.4,112.14,33.34,111.72z"/>
	<path class="st4" d="M61.35,110.36c-0.42-0.24-0.84-0.48-1.27-0.72c-0.06-1.61-0.12-3.21-0.19-4.82c3.12-0.43,5.92,1.05,8.69,1.89
		c6.99,2.13,14.49,2.43,21.13,5.83c0.62,0.32,1.58,0.18,2.32,0.01c4.02-0.93,7.58,0.27,11.03,2.16c3.09,1.69,6.32,2.92,9.81,3.68
		c2.54,0.55,5.28,1.13,7.13,3.37c-0.45,0.04-0.91,0.08-1.36,0.12c-1.55-0.35-1.68,0.36-1.16,1.55c-1.76-0.43-2.67-2.84-4.93-2.12
		c-1.58-1.74-3.04-2.87-3.55,0.72c0.05,0.19,0.07,0.38,0.07,0.57c0.03,0.47,0.05,0.94,0.08,1.42c-1.24,0.25-2.46,0.46-3.41-0.7
		c0.13-2.26-1.46-2.78-3.19-3.04c-1.42-0.21-2.87-0.26-4.3-0.37c-0.24-0.22-0.48-0.45-0.71-0.67c-6.13-2.57-12.51-3.4-19.1-2.76
		c-0.46-0.23-0.93-0.46-1.39-0.69c-1.42-1.38-3.06-1.24-4.76-0.67c-0.24-0.45-0.48-0.9-0.71-1.34
		C68.45,111.79,65.14,110.36,61.35,110.36z"/>
	<path class="st9" d="M120.01,121.76c-1.84-2.23-4.59-2.81-7.13-3.37c-3.49-0.76-6.72-1.99-9.81-3.68
		c-3.46-1.89-7.02-3.09-11.03-2.16c-0.74,0.17-1.7,0.31-2.32-0.01c-6.64-3.4-14.14-3.7-21.13-5.83c-2.77-0.85-5.57-2.33-8.69-1.89
		c0.09-0.89,0.19-1.78,0.26-2.67c0.14-1.56,0.72-2.23,2.39-1.51c2.14,0.92,4.6,1.02,6.52,2.56c1.17,0.94,2.54,0.66,3.87,0.32
		l-0.01-0.02c0.21,0.29,0.44,0.3,0.69,0.04l0.05-0.05c1.48,0.89,3.13,1.26,4.79,1.62c3.71,3.25,8.59,2.55,12.91,3.64
		c3.95,0.99,7.82,2.12,11.71,3.36c5.33,1.7,10.08,5.1,15.98,5.25c2.61,0.07,5,1.41,6.6,3.72c-1.58-0.04-3.05,0.3-4.34,1.25
		C120.89,122.14,120.45,121.95,120.01,121.76z"/>
	<path class="st9" d="M56.54,108.93c0.15-0.13,0.31-0.25,0.46-0.38c0.07,0.12,0.13,0.23,0.2,0.35c-0.2,0.04-0.4,0.07-0.6,0.11
		C56.59,109.01,56.54,108.93,56.54,108.93z"/>
	<path class="st9" d="M72.95,103.52c0.24-0.01,0.48-0.02,0.72-0.03c0,0-0.05,0.05-0.05,0.05c-0.23-0.01-0.46-0.03-0.69-0.04
		L72.95,103.52z"/>
	<path class="st9" d="M127.62,121.43c9.93-1.36,19.15,0.99,27.85,5.58c3.54,1.87,7.13,2.91,11.09,2.41
		c1.31-0.17,2.45,0.17,3.63,0.61c5.73,2.12,11.62,3.67,17.63,4.78c0.43,0.04,0.86,0.08,1.29,0.12c0.32,0.49,0.75,0.73,1.35,0.56
		c2.49,0.62,4.92,1.62,7.58,1.33c0.22,0.53,0.44,1.06,0.66,1.58c0.92,0.93,2.12,1.15,3.32,1.46c3.03,0.79,6.13,1.4,8.93,2.88
		c1.47,2.08,3.03,3.81,5.69,1.57c4.67,1.16,9.46,1.92,13.79,4.19c5.7,3.83,11.98,5.87,18.83,6.12c0.65,0.92,1.22,2.04,2.58,1.9
		c1.4-0.15,1.71,0.78,2.05,1.77c-0.48,2.18-1.43,3-3.83,2.03c-4.58-1.84-9.29-3.36-13.95-5.02c-3.07-2.06-6.4-3.14-10.13-2.59
		c-3.22-0.2-6-2.12-9.12-2.47c-6.85-0.75-12.95-3.96-19.5-5.68c-0.94-0.25-1.7-1.11-2.61-1.52c-4.42-1.94-8.46-4.82-13.31-5.75
		c-6.17-1.18-12.12-3.24-18.45-3.89c-2.24-0.23-4.55,0.86-6.59-0.24c-3.96-2.13-8.35-1.72-12.54-2.47c0.04-1-0.28-1.78-1.3-2.13
		c-3.08-3.87-4.35-4.27-6.62-2.09c-1.17-0.12-2.33-0.24-3.5-0.37C131.33,124.04,128.38,123.87,127.62,121.43z"/>
	<path class="st7" d="M198.04,136.82c-2.65,0.29-5.08-0.71-7.58-1.33c-0.45-0.19-0.9-0.37-1.35-0.56c-0.43-0.04-0.86-0.08-1.29-0.12
		c-0.47-2.35-2.68-3.1-4.16-4.52c1.87,0.34,3.74,0.67,5.61,1.01c4.05,0.92,7.93,2.57,12.11,2.98c1.55,0.55,3.11,1.11,4.66,1.66
		c8.53,3.5,17.55,5.37,26.35,7.95c3.77,1.1,7.33,3.02,11.36,3.2c0.46-0.05,0.92-0.1,1.38-0.15c2.52,0.39,3.54,2.08,3.82,4.41
		c0,0,0.08,0.01,0.08,0.01c-5.1-1.51-10.2-3.02-15.3-4.51c-8.26-2.42-16.52-4.84-24.79-7.26
		C205.68,137.21,201.86,137.02,198.04,136.82z"/>
	<path class="st4" d="M127.62,121.43c0.76,2.44,3.71,2.6,4.82,4.68c-0.32,0.81-0.07,2.87-1.72,0.86c-0.55-0.67-0.93-1.91-1.94-0.98
		c-1.74,1.61-2.27,0.52-3.19-0.86c-0.47-0.7-1.72-0.87-2.62-1.28c-0.55-0.51-1.1-1.02-1.65-1.53c1.29-0.96,2.76-1.3,4.34-1.25
		C126.32,121.2,126.97,121.32,127.62,121.43z"/>
	<path class="st7" d="M182.34,129.6c0.22,0.19,0.45,0.38,0.67,0.57C182.78,129.97,182.56,129.79,182.34,129.6z"/>
	<path class="st6" d="M280.62,176.67c-1.64-0.35-3.29-0.66-4.92-1.06c-2.72-0.65-4.64,0.05-5.34,2.98c-1-1.37-2.38-1.97-4.05-1.99
		c-0.4-2.38-2.03-3.27-4.21-3.51c0.31-1.76-0.72-4.18,1.27-5.11c1.62-0.76,2.17,1.35,2.98,2.46c0.85,1.57,2.43,2.17,3.92,2.85
		c1.46,0.67,2.01-0.14,2.17-1.46c2.72,0.43,5.44,0.86,8.16,1.29C281.05,174.3,281.11,175.48,280.62,176.67z"/>
	<path class="st9" d="M280.59,173.12c-2.72-0.43-5.44-0.86-8.16-1.29c0.27-1.65,1.45-1.06,2.37-0.9c1.88,0.32,3.75,0.72,5.63,1.09
		C280.49,172.39,280.54,172.75,280.59,173.12z"/>
	<path class="st4" d="M266.35,170.45c-0.8-1.1-1.35-3.22-2.98-2.46c-1.99,0.94-0.95,3.35-1.27,5.11c-0.2,0.04-0.41,0.08-0.61,0.11
		c-0.2-2.09-0.4-4.18-0.59-6.28c1.39-2.08-0.78-4.86,1.33-6.79c0.46,0.24,0.91,0.49,1.37,0.73c1.37,2.38,1.7,6.3,6.14,4.16
		C271.44,169.56,271.44,169.56,266.35,170.45z"/>
	<path class="st2" d="M269.91,162.19c0.91-2.19,2.52-0.9,3.78-0.64c1.43,0.29,2.79,0.94,4.18,1.44
		C275.11,163.77,272.59,162.13,269.91,162.19z"/>
	<path class="st8" d="M263.6,160.87c-0.46-0.24-0.91-0.49-1.37-0.73c-0.24-1.49-0.48-2.98-0.72-4.47c-1.84-2.03-3.67-4.06-5.51-6.09
		c1.56-0.29,3.12-0.58,4.67,0.03c1.03,3.92,4.22,6.07,6.99,8.56C266.61,159.54,265.06,160.14,263.6,160.87z"/>
	<path class="st14" d="M260.9,166.93c0.2,2.09,0.4,4.18,0.59,6.28c0,0,0.03-0.04,0.03-0.04c-0.54,1.16-1.05,2.32,0.05,3.45
		c1.58-0.01,3.16-0.01,4.75-0.02c1.66,0.02,3.05,0.62,4.05,1.99c-0.2,0.5-0.4,0.99-0.6,1.49c-1.38-0.24-2.75-0.49-4.13-0.73
		c-1.74-1.65-3.38-1.58-4.87,0.31c-0.73,0.92-1.52,1.77-2.8,1.46c-1.47-0.36-0.32-1.52-0.57-2.26c-0.79-2.35-3.23-3.01-4.75-4.6
		c-0.06-0.55-0.13-1.11-0.19-1.66c1.56-0.65,2.15-1.92,2.22-3.51c0.02-0.44,0.04-0.88,0.06-1.31c0.44-0.01,0.88-0.03,1.31-0.04
		c0.47,0.9,0.94,1.81,1.41,2.71c-0.28,0.93-0.22,1.89,0.85,2.1c1.19,0.23,0.95-0.85,1.03-1.55c0.05-3.28-0.13-6.53-1.45-9.6
		c-0.3-1.44-0.93-2.72-1.8-3.89c-0.22-2.07-2.94-2.98-2.71-5.47c3.04,0.6,3.24,3.81,5.32,5.07c0.04,0.41,0.08,0.81,0.12,1.22
		c0.03,0.13,0.06,0.26,0.1,0.39C260.04,161.34,260.52,164.12,260.9,166.93z"/>
	<path class="st12" d="M265.64,179.35c1.37,0.24,2.75,0.49,4.13,0.73c-0.02,0.44-0.04,0.88-0.06,1.32
		c-0.01,0.45-0.01,0.89-0.02,1.34c0.02,0.89,0.04,1.79,0.06,2.68c-0.25,0.01-0.51,0.02-0.76,0.03
		C265.88,184.51,264.39,182.68,265.64,179.35z"/>
	<path class="st5" d="M268.99,185.45c0.25-0.01,0.51-0.02,0.76-0.03c3.17,0.72,6.34,1.45,9.51,2.17c-0.46,0.48-0.92,0.95-1.39,1.43
		C275.09,187.37,271.43,187.92,268.99,185.45z"/>
	<path class="st14" d="M269.69,182.73c0.01-0.45,0.01-0.89,0.02-1.34C269.7,181.84,269.7,182.29,269.69,182.73z"/>
	<path class="st7" d="M258.71,157.1c-2.08-1.27-2.28-4.47-5.32-5.07c-0.23,2.49,2.49,3.4,2.71,5.47c-0.72,0.25-1.43,0.5-2.15,0.74
		l-0.05,0.05c-0.33-0.99-0.65-1.92-2.05-1.77c-1.36,0.14-1.92-0.98-2.58-1.89c-0.15-0.97,0.15-1.82,0.66-2.62
		c0.87-0.19,2.06,0.57,2.56-0.57c0.28-0.64-0.59-1-1.08-1.38c-0.28-0.26-0.56-0.52-0.85-0.78c0-0.15-0.04-0.29-0.12-0.41
		c0,0-0.06,0.16-0.06,0.16c0.33-0.28,0.66-0.57,0.99-0.85c1.56-0.45,4.41,1.31,4.62,1.41c1.84,2.03,3.67,4.06,5.51,6.08
		C260.34,155.69,259.43,156.21,258.71,157.1z"/>
	<path class="st3" d="M258.21,194.36c-2.11,0.06-4-0.32-5.56-1.99c-1.99-2.14-4.53-0.54-6.81-0.74c-1.36-0.54-2.68-1.27-4.1-1.59
		c-15.01-3.36-30.03-6.65-45.05-9.96c-0.94-0.25-1.88-0.49-2.81-0.74c-0.45-0.23-0.91-0.45-1.36-0.68
		c-0.23-0.01-0.45-0.01-0.68-0.02c-0.75-0.9-1.67-1.09-2.74-0.65c-0.68-0.23-1.37-0.45-2.05-0.68c-4.52-1.09-9.15-1.49-13.69-2.6
		c-8.58-2.1-16.8-5.5-25.64-6.68c-4.94-0.66-9.99-1.44-14.63-3.15c-7.2-2.65-14.77-3.58-22.06-5.78
		c-9.43-2.85-19.34-3.47-28.81-6.62c-7.31-2.43-14.59-5.53-22.52-6.12c-2.55-0.19-5-1.55-6.56-3.91c0.23-0.45,0.46-0.9,0.69-1.35
		c1.75,2.28,4.34,2.57,6.92,3.14c3.96,0.88,7.89,2.7,11.75,2.96c3.78,0.26,7.01,1.05,10.29,2.66c2.13,1.04,4.36,1.92,6.74,2.34
		c16.2,2.89,32.31,6.42,48.11,10.82c9.46,2.64,19.31,3.08,28.61,6.92c7.73,3.18,16.36,4.58,24.88,5.32c2.96,0.25,5.87,1.17,8.88,0.7
		c0.48,0.23,0.97,0.46,1.45,0.69c0.15-0.02,0.29-0.04,0.44-0.05c1.01,0.49,1.98,1.14,3.04,1.46c12.73,3.79,25.76,6.33,38.66,9.4
		c1.43,0.34,2.93,0.64,4.18-0.56c0.88-0.17,1.78-0.28,2.63-0.52c2.1-0.61,4.96-3.71,5.08,1.73c0.02,0.83,1.21,1.22,2.04,1.59
		C261.33,191.35,261.36,191.61,258.21,194.36z"/>
	<path class="st3" d="M61.34,127.38c2.93-3.87,6.23-2.36,9.55-0.66c6.57,0,12.5,3.63,19.14,3.3c4.48-0.22,8.55,2.12,12.99,2.2
		c0,0,0,0,0,0c0.57,2.13,1.86,3.35,4.17,3.15c5.69-0.49,11.16,1.32,16.15,3.23c9.8,3.75,20.37,4.26,30.05,8.21
		c2.41,0.98,5.06,1.2,7.69,1.12c6.09,2.49,12.38,4.32,18.88,5.22c6.33,0.88,12.73,1.34,17.55,6.33c2.91,0.93,5.6,2.55,8.76,2.66
		c1.57,0.59,3.14,1.18,4.71,1.77c-1.03,1.39-2.35,0.92-3.72,0.69c-9.2-1.56-17.99-4.72-27-7.02c-8.4-2.14-16.97-3.49-25.29-6.03
		c-20.85-6.37-42.26-10.63-63.23-16.57C81.7,132.12,71.48,129.89,61.34,127.38z"/>
	<path class="st10" d="M200.04,175.94c-3.02,0.47-5.92-0.45-8.88-0.7c-0.67-0.59-1.27-1.56-2.03-1.72
		c-5.44-1.17-10.45-3.82-16.04-4.46c-3.58-0.41-7.46,0-10.56-2.18c-4.48-3.16-9.31-4.47-14.73-3.98c-2.64,0.24-5.21-0.21-7.68-1.21
		c-9.43-3.82-19.61-4.75-29.32-7.51c-8.28-2.36-17.09-2.85-25.15-5.98c-7.22-2.8-14.99-3.28-22.21-6.05
		c-2.7-1.03-5.88-0.82-7.55-3.81c0.75-0.75,1.6-0.7,2.52-0.37c9.22,3.33,19.11,4.4,28.25,7.62c9.95,3.51,20.63,3.6,30.36,7.69
		c1.93,0.81,4.23,0.91,6.37,1c4.51,0.18,8.78,1.23,12.83,3.11c3.57,1.65,7.32,2.62,11.2,2.73c3.68,0.11,7.18,0.63,10.63,1.99
		c4.5,1.78,8.94,3.76,14,3.8c2.8,0.02,5.49,1.24,8.13,2.37c3.46,1.49,7.09,2.33,10.97,1.72c2.92-0.46,5.64,0.33,8.04,2.12
		c1.29,0.96,2.08,2.11,1.53,3.8C200.49,175.92,200.26,175.93,200.04,175.94z"/>
	<path class="st15" d="M55.87,138.34c1.67,3,4.86,2.78,7.55,3.81c7.21,2.77,14.98,3.25,22.21,6.05c8.06,3.13,16.87,3.62,25.15,5.98
		c9.72,2.77,19.89,3.69,29.32,7.51c2.47,1,5.04,1.45,7.68,1.21c5.42-0.49,10.25,0.82,14.73,3.98c3.11,2.19,6.98,1.77,10.56,2.18
		c5.59,0.64,10.6,3.3,16.04,4.46c0.76,0.16,1.36,1.13,2.03,1.72c-8.52-0.74-17.16-2.14-24.88-5.32c-9.3-3.83-19.16-4.28-28.61-6.92
		c-15.8-4.4-31.91-7.93-48.11-10.82c-2.38-0.42-4.61-1.3-6.74-2.34c-3.28-1.6-6.51-2.4-10.29-2.66c-3.86-0.26-7.79-2.08-11.75-2.96
		c-2.58-0.57-5.17-0.86-6.92-3.14C54.19,139.93,54.82,138.98,55.87,138.34z"/>
	<path class="st12" d="M53.14,142.44c1.56,2.36,4,3.72,6.56,3.91c7.93,0.59,15.21,3.69,22.52,6.12c9.47,3.16,19.39,3.78,28.81,6.62
		c7.28,2.2,14.86,3.13,22.06,5.78c4.64,1.71,9.69,2.49,14.63,3.15c8.84,1.18,17.06,4.59,25.64,6.68c4.55,1.11,9.17,1.52,13.69,2.6
		c-0.68,0.45-1.37,0.9-2.05,1.35c-1.37-0.23-2.73-0.45-4.1-0.68c-0.68,0-1.37,0-2.05-0.01c-3.19-0.91-6.38-1.82-9.57-2.73
		c-5.47-0.06-10.41-2.57-15.72-3.39c-0.68-0.01-1.36-0.03-2.04-0.04c-1.14-0.22-2.27-0.44-3.41-0.66c0,0,0,0,0,0
		c-3.15-2.27-6.95-2.52-10.54-3.37c-4.71-1.11-9.4-2.1-14.03-3.69c-4.73-1.63-9.97-1.72-15.06-1.8c-0.45-0.01-0.9-0.02-1.34-0.03
		c-0.54-1.05-1.33-1.91-2.49-2.16c-5.4-1.19-10.65-3.01-16.18-3.7c-4.36-0.55-8.41-2.45-12.79-3.14
		c-6.34-1.01-12.01-4.59-18.57-4.97c-2.32-0.14-3.84-2.33-5.99-3.08C51.79,144.28,52.47,143.36,53.14,142.44z"/>
	<path class="st2" d="M200.25,166.45c17.27,2.08,33.88,7.06,50.53,11.87C233.7,175.4,217.07,170.54,200.25,166.45z"/>
	<path class="st6" d="M247.82,186.88c-1.25,1.21-2.75,0.9-4.18,0.56c-12.9-3.08-25.94-5.61-38.66-9.4
		c-1.06-0.32-2.03-0.96-3.04-1.46c4.69,0.29,9.15,1.75,13.69,2.76C226.38,181.73,237.09,184.35,247.82,186.88z"/>
	<path class="st9" d="M210.98,163.91c-1.57-0.59-3.14-1.18-4.71-1.77c-0.08-0.28-0.17-0.55-0.25-0.83
		c11.55,2.52,23.01,5.42,34.36,8.73c-0.23,0.33-0.46,0.66-0.69,0.99c-1.16-0.14-2.32-0.28-3.49-0.42c-2.34-0.12-4.41-1.25-6.63-1.81
		c-1.6-0.58-3.22-1.1-4.95-1.12c-0.57-0.07-1.15-0.15-1.72-0.22c-2.68-1.4-5.61-1.94-8.53-2.53
		C213.24,164.59,212.11,164.25,210.98,163.91z"/>
	<path class="st8" d="M239.69,171.03c0.23-0.33,0.46-0.66,0.69-0.99c2.47,0.65,4.94,1.31,7.41,1.96c0,0.32,0.01,0.65,0.01,0.97
		c-0.21,0.09-0.43,0.17-0.64,0.26c-2.24-0.57-4.48-1.13-6.72-1.7C240.19,171.36,239.94,171.19,239.69,171.03z"/>
	<path class="st3" d="M214.38,164.94c2.92,0.58,5.85,1.13,8.53,2.53C219.47,168.62,216.59,167.9,214.38,164.94z"/>
	<path class="st3" d="M224.63,167.68c1.73,0.01,3.34,0.54,4.95,1.12C227.6,169.86,225.85,169.94,224.63,167.68z"/>
	<path class="st9" d="M247.8,172.97c0-0.32-0.01-0.65-0.01-0.97c1.38,0.18,2.77,0.37,4.15,0.55c0.16,0.05,0.33,0.07,0.5,0.06
		c0.06,0.55,0.13,1.11,0.19,1.66c-1.14-0.12-2.29-0.24-3.43-0.37C248.74,173.59,248.27,173.28,247.8,172.97z"/>
	<path class="st14" d="M239.69,171.03c0.25,0.17,0.5,0.33,0.75,0.5c-1.68,0.93-3.16,0.92-4.24-0.92
		C237.37,170.75,238.53,170.89,239.69,171.03z"/>
	<path class="st14" d="M247.8,172.97c0.47,0.31,0.94,0.62,1.41,0.93c-0.85,0.27-1.52,0.03-2.05-0.67
		C247.38,173.14,247.59,173.05,247.8,172.97z"/>
	<path class="st6" d="M200.04,175.94c0.23-0.01,0.45-0.02,0.68-0.03c0.26,0.24,0.51,0.48,0.77,0.72
		C201,176.4,200.52,176.17,200.04,175.94z"/>
	<path class="st2" d="M57.94,130.22c0-0.33,0.01-0.66,0.01-0.99C57.95,129.56,57.94,129.89,57.94,130.22z"/>
	<path class="st5" d="M97.55,119.24c0.24,0.22,0.48,0.45,0.71,0.67c1.26,3.85,4.81,2.69,7.49,3.41c0.95,1.16,2.18,0.95,3.41,0.7
		c0.47,0.7,0.94,1.4,1.41,2.1c0.9,0.68,1.91,1.09,3.03,1.21c2.41,0.41,2.78-2.04,4.23-2.99c0.25,0.38,0.72,0.78,0.7,1.14
		c-0.28,3.96,2.49,3.79,5.1,3.83c0.79,0.01,1.59-0.04,2.38-0.07c1.8,3.29,2.3-0.71,3.01-0.7c2.01,0.55,1.12,4.04,3.82,2.83
		c1.7-0.75,3.3-0.53,4.98-0.32c0.26,1.59,0.76,2.9,2.79,2.52c0.66,0.16,1.32,0.33,1.97,0.49c1.14,2.53,3.56,2.53,5.77,2.92
		c6.7,1.18,13.45,2.19,19.56,5.47c-1.22,1.32-2.64,0.68-4.09,0.53c-5.96-0.6-11.34-3.29-17.1-4.62c-0.68,0-1.36,0-2.04,0
		c-4.5-3.38-10.06-2.11-15.04-3.42c-1.39-0.45-2.85-0.75-4.15-1.39c-1.43-0.7-2.7-1.17-4.04,0.06c-0.23-0.01-0.46-0.02-0.69-0.03
		c-2.76-3.73-7.14-3.69-11.04-4.48c-4.45-0.9-8.73-2.54-13.15-3.34c-5.46-0.99-10.86-2.26-16.3-3.27c-2.95-0.55-5.73-1.43-8.37-2.7
		c-3.22-1.55-6.46-2-9.91-1.24c-0.42-0.23-0.84-0.45-1.26-0.67c0.11-1.17,0.23-2.34,0.35-3.51c1.95-1.41,3.92-1.9,6.21-0.6
		c1.32,0.76,2.84,0.33,4.27,0c0.24,0.45,0.48,0.9,0.71,1.34c1.55,0.5,2.9,2.35,4.76,0.67c0.46,0.23,0.93,0.46,1.39,0.69
		c0.15,1.18-0.26,2.46,1.89,2.48c4.13,0.04,8.25,0.58,12.38,0.76C94.32,119.8,96.09,120.83,97.55,119.24z"/>
	<path class="st14" d="M120.79,133.6c0.23,0.01,0.46,0.02,0.69,0.03c2.79,2.23,6.03,3.22,9.55,3.37c0.23,0,0.45,0.01,0.68,0.01
		c0.78,1.28,1.99,1.83,3.41,2.04c0.23,0,0.46,0.01,0.69,0.01c2.05,1.52,4.1,0.55,6.15,0c0.91,0.23,1.83,0.46,2.74,0.69
		c1.24,0.93,2.24,2.32,4.08,2.05c0.46,0,0.91,0.01,1.37,0.01c1.78,2.49,4.46,3.41,7.27,4c1.5,0.31,2.9,0.61,3.67,2.11
		c-2.63,0.08-5.29-0.13-7.69-1.12c-9.68-3.95-20.25-4.46-30.05-8.21c-4.99-1.91-10.46-3.72-16.15-3.23
		c-2.31,0.2-3.59-1.02-4.17-3.15c3.83-0.34,7.58-0.09,11.34,0.86C116.42,133.6,118.53,135.08,120.79,133.6z"/>
	<path class="st14" d="M103.02,132.22c-4.44-0.08-8.52-2.42-12.99-2.2c-6.64,0.33-12.57-3.3-19.14-3.3
		c-0.28-0.93-1.18-1.73-0.66-2.84c9.26,0.22,17.89,3.82,27.01,4.75C99.59,128.86,102.01,129.55,103.02,132.22z"/>
	<path class="st1" d="M60.76,117.89c0.42,0.22,0.84,0.45,1.26,0.67c0.14,1.21,0.45,2.45-0.68,3.4
		C60.68,120.67,60.65,119.29,60.76,117.89z"/>
	<path class="st1" d="M71.58,113.78c-1.43,0.32-2.95,0.75-4.27,0c-2.28-1.31-4.25-0.81-6.21,0.6c-0.1-1.35-0.23-2.7,0.25-4.01
		C65.14,110.36,68.45,111.79,71.58,113.78z"/>
	<path class="st2" d="M242.37,192.26c-0.92,2.7-2.97,3.71-5.58,3.18c-7.94-1.62-15.85-3.4-23.77-5.12
		c-0.97-2.55-4.55-3.06-4.79-6.17c10.97,1.63,21.63,4.7,32.44,7.04C241.28,191.32,241.8,191.89,242.37,192.26z"/>
	<path class="st2" d="M185,178.67c0.68-0.45,1.37-0.9,2.05-1.35c0.68,0.23,1.37,0.45,2.05,0.68c0.91,0.22,1.83,0.43,2.74,0.65
		c0.23,0,0.45,0.01,0.68,0.02c0.33,0.47,0.77,0.72,1.36,0.68c0.94,0.25,1.88,0.49,2.81,0.74c3.12,2.67,7.15,2.51,10.81,3.5
		c-0.68,1.28-1.76,1.49-3.14,1.42c-5.08-0.25-9.98-1.35-14.85-2.74c-1.94-0.55-3.97-0.87-5.99-1c-2.37-0.16-4.41-0.83-6.05-2.58
		c0.46-0.23,0.92-0.47,1.38-0.7c0.68,0,1.37,0,2.05,0.01C182.09,179.26,183.36,180.09,185,178.67z"/>
	<path class="st1" d="M207.5,183.59c-3.66-0.99-7.69-0.83-10.81-3.5c15.02,3.31,30.04,6.6,45.05,9.96c1.41,0.32,2.73,1.05,4.1,1.59
		c-0.25,0.25-0.5,0.5-0.75,0.75c-0.91-0.04-1.82-0.08-2.72-0.12c-0.56-0.37-1.08-0.93-1.7-1.07c-10.82-2.34-21.47-5.42-32.44-7.04
		C207.99,183.96,207.74,183.77,207.5,183.59z"/>
	<path class="st2" d="M153.56,171.86c5.31,0.82,10.25,3.34,15.72,3.39c1.03,1.93,3.52,1.82,4.79,3.41c-6.44-0.82-12.54-2.9-18.64-5
		C154.49,173.35,153.89,172.77,153.56,171.86z"/>
	<path class="st14" d="M174.07,178.67c-1.27-1.59-3.75-1.48-4.79-3.41c3.19,0.91,6.38,1.82,9.57,2.73c-0.46,0.23-0.92,0.47-1.38,0.7
		C176.34,178.68,175.2,178.67,174.07,178.67z"/>
	<path class="st2" d="M148.11,171.15c1.14,0.22,2.27,0.44,3.41,0.66C150.04,173.36,148.99,172.73,148.11,171.15z"/>
	<path class="st15" d="M34.01,115.11c1.43-1.85,3.06-3.79,5.62-2.83c2.71,1.02,3.6,3.58,3.81,6.34
		C39.25,120.27,36.93,116.89,34.01,115.11z"/>
	<path class="st1" d="M97.55,119.24c-1.46,1.59-3.22,0.55-4.83,0.48c-4.13-0.18-8.25-0.72-12.38-0.76c-2.16-0.02-1.74-1.3-1.89-2.48
		C85.04,115.84,91.42,116.68,97.55,119.24z"/>
	<path class="st1" d="M105.75,123.32c-2.69-0.72-6.23,0.44-7.49-3.41c1.44,0.12,2.88,0.16,4.3,0.37
		C104.29,120.55,105.89,121.06,105.75,123.32z"/>
	<path class="st7" d="M117.83,124.34c-1.44,0.95-1.82,3.41-4.23,2.99c2.32-2.94,2.18-3.78-1-6.07l-0.03,0.06
		c2.26-0.73,3.17,1.68,4.93,2.12c0,0,0.21-0.08,0.21-0.08C117.75,123.68,117.79,124.01,117.83,124.34z"/>
	<path class="st7" d="M110.57,126.12c-0.47-0.7-0.94-1.4-1.41-2.1c-0.03-0.47-0.05-0.94-0.08-1.42c0.02-0.2,0-0.39-0.07-0.57
		c0.51-3.58,1.97-2.46,3.55-0.72c0,0,0.03-0.06,0.03-0.06C109.27,121.78,111.02,124.41,110.57,126.12z"/>
	<path class="st1" d="M77.06,115.8c-1.86,1.68-3.21-0.17-4.76-0.67C73.99,114.56,75.63,114.41,77.06,115.8z"/>
	<path class="st7" d="M121.32,122.34c0.55,0.51,1.1,1.02,1.65,1.53c-0.23,0.24-0.46,0.48-0.68,0.72c-1.16-0.44-2.32-0.89-3.47-1.33
		c-0.06-0.46-0.11-0.91-0.17-1.37c0.45-0.04,0.91-0.08,1.36-0.12C120.45,121.95,120.89,122.14,121.32,122.34z"/>
	<path class="st9" d="M118.65,121.88c0.06,0.46,0.11,0.91,0.17,1.37c-0.37,0.04-0.74,0.07-1.11,0.11c0,0-0.21,0.08-0.21,0.08
		C116.98,122.24,117.11,121.53,118.65,121.88z"/>
	<path class="st5" d="M109.02,122.03c0.07,0.18,0.1,0.37,0.07,0.57C109.09,122.41,109.07,122.22,109.02,122.03z"/>
	<path class="st7" d="M72.94,103.5c0.23,0.01,0.46,0.03,0.69,0.04C73.38,103.81,73.15,103.79,72.94,103.5z"/>
	<path class="st4" d="M167.93,142.46c-6.11-3.29-12.86-4.29-19.56-5.47c-2.21-0.39-4.64-0.39-5.77-2.92
		c0.02-1.27,0.44-2.39,1.27-3.36c4.19,0.75,8.59,0.34,12.54,2.47c2.04,1.1,4.35,0.01,6.59,0.24c6.33,0.64,12.29,2.71,18.45,3.89
		c4.85,0.93,8.88,3.8,13.31,5.75c0.92,0.4,1.68,1.27,2.61,1.52c6.55,1.72,12.64,4.93,19.5,5.68c3.12,0.34,5.91,2.27,9.12,2.47
		c3.35,0.97,6.52,2.67,10.13,2.59c4.66,1.65,9.37,3.17,13.95,5.02c2.4,0.97,3.35,0.15,3.83-2.03c0,0,0.05-0.05,0.05-0.05
		c0.43,2.15,2.17,2.67,3.95,3.15c1.32,3.07,1.5,6.32,1.45,9.6c-0.63-0.18-1.26-0.36-1.89-0.54c-0.47-0.9-0.94-1.81-1.41-2.71
		c-0.46-0.57-0.89-0.58-1.31,0.04c-0.02,0.44-0.04,0.88-0.06,1.31c-1.42-1.07-1.07-2.65-1.18-4.09c-0.51-2.39-2.56-2.68-4.41-3.17
		c-16.05-4.26-32.01-8.85-48.34-11.96c-0.46-0.21-0.93-0.42-1.39-0.62c-1.12,0-2.24,0-3.37,0c-3.63-2.84-7.22-5.81-12.37-4.09
		c-1.13-0.23-2.26-0.46-3.39-0.68c-3.31-2.47-7.13-2.23-10.94-2.03C168.84,142.45,168.38,142.45,167.93,142.46z"/>
	<path class="st6" d="M208.95,139.57c8.26,2.42,16.53,4.84,24.79,7.26c5.1,1.5,10.2,3.01,15.3,4.51c-1.43,1.48-3.11,0.99-4.77,0.59
		c-4.62-1.1-9.09-2.8-13.83-3.44c-4.33-2.27-9.13-3.03-13.8-4.19c-1.8-0.85-3.7-1.37-5.69-1.57c-2.81-1.49-5.9-2.09-8.93-2.88
		c-1.21-0.31-2.41-0.54-3.32-1.46C202.21,138.02,205.49,139.57,208.95,139.57z"/>
	<path class="st7" d="M137.83,131.05c-1.68-0.21-3.28-0.44-4.98,0.32c-2.7,1.2-1.81-2.28-3.82-2.83c-0.71-0.01-1.21,3.99-3.01,0.7
		c-0.53-2.12-3.42-2.36-3.72-4.66c0.23-0.24,0.46-0.48,0.68-0.72c0.9,0.41,2.15,0.58,2.62,1.28c0.92,1.38,1.45,2.47,3.19,0.86
		c1-0.93,1.38,0.3,1.94,0.98c1.65,2.01,1.4-0.05,1.72-0.86c1.17,0.12,2.33,0.24,3.5,0.37C139.89,128.35,139.99,128.61,137.83,131.05
		z"/>
	<path class="st8" d="M230.44,148.5c4.74,0.63,9.21,2.33,13.83,3.44c1.66,0.4,3.34,0.89,4.77-0.59c0,0-0.08,0-0.08,0
		c0.28,0.02,0.56,0.04,0.84,0.06c0.05,0.2,0.1,0.4,0.14,0.6c-0.52,0.8-0.81,1.66-0.66,2.62
		C242.42,154.37,236.14,152.33,230.44,148.5z"/>
	<path class="st4" d="M137.83,131.05c2.16-2.45,2.06-2.7-1.89-4.57c2.27-2.18,3.54-1.78,6.62,2.09c-0.65,1.67-1.29,3.33-1.94,5
		C138.59,133.95,138.08,132.64,137.83,131.05z"/>
	<path class="st8" d="M208.95,139.57c-3.46,0-6.74-1.55-10.25-1.17c-0.22-0.53-0.44-1.05-0.66-1.58
		C201.86,137.02,205.68,137.21,208.95,139.57z"/>
	<path class="st8" d="M236.12,155.3c-3.62,0.07-6.78-1.63-10.13-2.59C229.72,152.17,233.05,153.25,236.12,155.3z"/>
	<path class="st8" d="M210.96,142.75c1.99,0.19,3.88,0.71,5.69,1.57C213.99,146.56,212.43,144.83,210.96,142.75z"/>
	<path class="st7" d="M140.62,133.57c0.65-1.67,1.29-3.33,1.94-5c1.02,0.35,1.34,1.13,1.3,2.13c-0.83,0.97-1.25,2.09-1.27,3.36
		C141.93,133.9,141.27,133.74,140.62,133.57z"/>
	<path class="st8" d="M189.11,134.93c0.45,0.19,0.9,0.37,1.35,0.56C189.87,135.66,189.44,135.42,189.11,134.93z"/>
	<path class="st9" d="M206.05,135.93c1.43-0.37,26.4,6.51,26.4,6.51c0.33,0.22,0.66,0.43,0.99,0.65c2.76,0.69,10.2,2.76,10.33,3.99
		c-4.03-0.19-7.59-2.1-11.36-3.2C223.6,141.3,214.57,139.42,206.05,135.93z"/>
	<path class="st12" d="M266.31,176.61c-1.58,0.01-3.16,0.01-4.75,0.02c-0.02-1.15-0.03-2.3-0.05-3.45c0,0-0.03,0.04-0.03,0.04
		c0.2-0.03,0.41-0.07,0.61-0.11C264.29,173.33,265.92,174.23,266.31,176.61z"/>
	<path class="st9" d="M258.71,157.1c0.72-0.89,1.64-1.4,2.8-1.43c0.24,1.49,0.48,2.98,0.72,4.47c-2.11,1.94,0.06,4.71-1.33,6.79
		c-0.38-2.81-0.86-5.6-1.97-8.23c0,0-0.24-0.16-0.24-0.16l0.14-0.23C258.79,157.91,258.75,157.5,258.71,157.1z"/>
	<path class="st14" d="M249.94,152c-0.04-0.2-0.08-0.4-0.14-0.6c0.54-0.45,1.08-0.9,1.62-1.35c0.49,0.38,1.36,0.74,1.08,1.38
		C251.99,152.58,250.81,151.81,249.94,152z"/>
	<path class="st14" d="M251.37,148.18c-0.33,0.28-0.66,0.56-0.99,0.85C250.43,148.41,250.72,148.09,251.37,148.18z"/>
	<path class="st14" d="M250.45,148.86c0.09,0.12,0.13,0.26,0.12,0.41C250.43,149.16,250.39,149.03,250.45,148.86z"/>
	<path class="st6" d="M167.93,142.46c0.46-0.01,0.91-0.01,1.37-0.02c0.25,0.36,0.48,1,0.77,1.02c2.7,0.24,5.29,0.75,7.77,1.92
		c0.86,0.4,1.71-0.29,2.4-0.91c1.13,0.23,2.26,0.46,3.39,0.68c3.78,2.4,8.17,2.93,12.37,4.09c1.12,0,2.24,0,3.37,0
		c0,0.23,0,0.45,0.01,0.67c0.57,1.19,1.76,1.32,2.84,1.64c13.91,4.17,27.89,8.11,42,11.54c3.07,0.75,6.03,2.09,9.29,1.9
		c0.11,1.44-0.24,3.02,1.18,4.09c-0.07,1.59-0.67,2.86-2.22,3.51c-0.17,0.01-0.34-0.01-0.5-0.05c0.3-3.59-0.95-5.19-4.85-5.16
		c-4.29,0.04-8.03-1.4-11.66-3.31c-1.75-0.92-3.51-1.56-5.47-1.71c-9.48-0.74-18.13-4.72-27.16-7.17
		c-8.15-2.21-15.82-5.84-24.47-6.63c-3.94-0.36-8.43,0.16-12.03-2.52c-2.09-1.56-4.42-2.2-7.03-2.15c-1.85,0.03-3.57-0.67-5.22-1.45
		c-1.25-0.58-2.48-1.18-3.91-0.63c-0.46,0-0.91-0.01-1.37-0.01c-0.68-1.14-1.36-2.28-2.05-3.43c5.75,1.33,11.14,4.02,17.1,4.62
		C165.28,143.13,166.71,143.78,167.93,142.46z"/>
	<path class="st8" d="M257.89,161.39c-1.77-0.47-3.51-0.99-3.95-3.15c0.72-0.25,1.43-0.5,2.15-0.74
		C256.96,158.67,257.59,159.95,257.89,161.39z"/>
	<path class="st6" d="M257.46,170.45c0.63,0.18,1.26,0.36,1.89,0.54c-0.09,0.7,0.15,1.79-1.04,1.55
		C257.24,172.33,257.18,171.38,257.46,170.45z"/>
	<path class="st4" d="M261.52,173.17c0.02,1.15,0.03,2.3,0.05,3.45C260.47,175.49,260.98,174.33,261.52,173.17z"/>
	<path class="st6" d="M254.73,167.77c0.42-0.62,0.86-0.61,1.31-0.04C255.61,167.75,255.17,167.76,254.73,167.77z"/>
	<path class="st7" d="M258.83,158.31l-0.14,0.23c0,0,0.24,0.16,0.24,0.16C258.89,158.57,258.86,158.44,258.83,158.31z"/>
	<path class="st2" d="M167.92,115.83C167.92,115.83,167.92,115.82,167.92,115.83C167.92,115.82,167.92,115.83,167.92,115.83z"/>
	<path class="st14" d="M191.84,178.65c-0.91-0.22-1.83-0.43-2.74-0.65C190.17,177.55,191.09,177.74,191.84,178.65z"/>
	<path class="st14" d="M193.88,179.35c-0.59,0.04-1.03-0.21-1.36-0.68C192.97,178.89,193.43,179.12,193.88,179.35z"/>
	<path class="st2" d="M150.15,141.81c1.43-0.55,2.65,0.05,3.91,0.63c1.66,0.77,3.37,1.48,5.22,1.45c2.61-0.05,4.94,0.59,7.03,2.15
		c3.59,2.68,8.09,2.15,12.03,2.52c8.65,0.8,16.32,4.43,24.47,6.63c9.04,2.45,17.68,6.43,27.16,7.17c1.96,0.15,3.72,0.79,5.47,1.71
		c3.63,1.91,7.37,3.36,11.66,3.31c3.9-0.04,5.14,1.57,4.85,5.16c-1.38-0.18-2.77-0.37-4.15-0.55c-2.47-0.65-4.94-1.31-7.41-1.96
		c-11.35-3.31-22.81-6.21-34.35-8.72c-2.69-1.3-5.42-2.38-8.51-1.83c-4.81-4.99-11.21-5.46-17.55-6.33
		c-6.5-0.9-12.79-2.73-18.88-5.22c-0.77-1.5-2.17-1.8-3.67-2.11C154.61,145.23,151.93,144.3,150.15,141.81z"/>
	<path class="st4" d="M197.51,159.47c3.09-0.54,5.83,0.54,8.51,1.83c0.08,0.27,0.16,0.55,0.25,0.82
		C203.11,162.03,200.42,160.4,197.51,159.47z"/>
	<path class="st14" d="M185,178.67c-1.64,1.42-2.91,0.59-4.1-0.68C182.27,178.21,183.63,178.44,185,178.67z"/>
	<path class="st4" d="M122.3,124.58c0.3,2.3,3.18,2.54,3.72,4.66c-0.79,0.02-1.59,0.08-2.38,0.07c-2.62-0.03-5.38,0.13-5.1-3.83
		c0.03-0.36-0.45-0.76-0.7-1.14c-0.04-0.33-0.08-0.65-0.12-0.98c0.37-0.04,0.74-0.07,1.11-0.11
		C119.98,123.69,121.14,124.14,122.3,124.58z"/>
	<path class="st6" d="M144.7,139.75c-0.91-0.23-1.83-0.46-2.74-0.69c-2.05-1.51-4.1-1.51-6.15,0c-0.23,0-0.46-0.01-0.69-0.01
		c-0.59-1.6-1.9-1.99-3.41-2.04c-0.23,0-0.45-0.01-0.68-0.01c-0.46-0.68-0.91-1.36-1.37-2.05c4.97,1.31,10.53,0.03,15.04,3.42
		C144.7,138.83,144.7,139.29,144.7,139.75z"/>
	<path class="st4" d="M110.57,126.12c0.45-1.72-1.3-4.35,2.03-4.87c3.19,2.29,3.32,3.14,1,6.07
		C112.48,127.21,111.47,126.8,110.57,126.12z"/>
	<path class="st2" d="M129.66,134.95c0.46,0.68,0.91,1.36,1.37,2.05c-3.53-0.16-6.76-1.15-9.55-3.37c1.33-1.23,2.61-0.75,4.04-0.06
		C126.81,134.2,128.27,134.5,129.66,134.95z"/>
	<path class="st2" d="M144.7,139.75c0-0.46,0-0.92,0-1.38c0.68,0,1.36,0,2.04,0c0.68,1.14,1.36,2.28,2.05,3.43
		C146.95,142.07,145.94,140.68,144.7,139.75z"/>
	<path class="st2" d="M135.81,139.06c2.05-1.51,4.1-1.51,6.15,0C139.91,139.61,137.86,140.57,135.81,139.06z"/>
	<path class="st2" d="M131.71,137.01c1.51,0.05,2.82,0.45,3.41,2.04C133.7,138.84,132.49,138.29,131.71,137.01z"/>
	<path class="st15" d="M253.5,165c-3.27,0.19-6.22-1.16-9.29-1.9c-14.12-3.43-28.09-7.37-42-11.54c-1.07-0.32-2.27-0.45-2.84-1.64
		c0.46-0.02,0.92-0.03,1.38-0.05c16.33,3.11,32.3,7.7,48.34,11.96C250.93,162.31,252.99,162.6,253.5,165z"/>
	<path class="st5" d="M195.99,149.24c-4.19-1.15-8.59-1.69-12.37-4.09C188.77,143.43,192.36,146.4,195.99,149.24z"/>
	<path class="st5" d="M180.24,144.47c-0.69,0.61-1.54,1.31-2.4,0.91c-2.48-1.17-5.08-1.68-7.77-1.92c-0.28-0.03-0.51-0.67-0.77-1.02
		C173.1,142.24,176.92,142,180.24,144.47z"/>
	<path class="st5" d="M200.75,149.86c-0.46,0.02-0.92,0.03-1.38,0.05c0-0.23-0.01-0.45-0.01-0.68
		C199.82,149.45,200.28,149.65,200.75,149.86z"/>
	<path class="st3" d="M232.44,142.44c0.33,0.22,0.66,0.43,0.99,0.65C233.1,142.88,232.77,142.66,232.44,142.44z"/>
	<path class="st2" d="M40.41,179.12"/>
	<g id="Base_1_">
		<path class="st16" d="M0,0v300h300V0H0z M292.5,292.5H7.5V7.5h285V292.5z"/>
	</g>
</g>
</svg>
