<?xml version="1.0" encoding="utf-8"?>
<!-- Generator: Adobe Illustrator 23.0.1, SVG Export Plug-In . SVG Version: 6.00 Build 0)  -->
<svg version="1.1" xmlns="http://www.w3.org/2000/svg" xmlns:xlink="http://www.w3.org/1999/xlink" x="0px" y="0px"
	 viewBox="0 0 300 300" style="enable-background:new 0 0 300 300;" xml:space="preserve">
<style type="text/css">
	.st0{fill:#424242;}
	.st1{fill:#0D0D0D;}
	.st2{fill:#2C271F;}
	.st3{fill:#27221A;}
	.st4{fill:#5B4F3D;}
	.st5{fill:#393126;}
	.st6{fill:#1C1914;}
	.st7{fill:#141413;}
	.st8{fill:#544938;}
	.st9{fill:#1C1C1C;}
	.st10{fill:#473E30;}
	.st11{fill:#9E9E9E;}
</style>
<g id="background">
	<rect x="4" y="4" class="st0" width="291" height="291"/>
</g>
<g id="Layer_1">
	<title>Pistol Grip</title>
	<path class="st1" d="M191.62,268.26c0,0.68-0.71,2.76-1.06,3.12c0,0,0.03-0.03,0.03-0.03c-0.35,0.35-0.71,0.71-1.06,1.06
		c0,0-12.9,2.24-14.98,1.63c-8.65-2.52-17.64-2.37-26.42-3.77c0.13-2.9,1.98-4.18,4.53-4.74c3.06-0.68,6.06-0.55,9.07,0.52
		c3.7,1.31,7.97,1.09,11.05,4.08c3.91-4.58,8.44,0.26,12.61-0.8c1.14-0.29,2.41-0.04,3.19-1.22c0.98,0.01,1.95,0.03,2.93,0.04
		L191.62,268.26z"/>
	<path class="st2" d="M260.82,41.62c3.21,10.53,4.06,20.91,3.05,31.91c-0.75,8.25,2.55,27.16,3.13,27.47c0.42,3.17-2.33,7.99-3,8
		c-1.03,0-0.97,0-2,0c-4.56,0.07-10.99,2.14-11.35,1.79c-0.01-0.33-0.01-0.67-0.01-1c-1.08-3.04,1.66-1.49,2.52-2.2
		c1.46-1.22,4.9,0.71,4.73-2.98c1.54-3.3,4.16-6.42,1.61-10.37c-0.51-0.8-0.33-1.72,0.33-2.37c2.57-2.5-0.65-5.59,0.91-8.39
		c0.62-1.11-1.46-2.11-2.43-1.11c-3.95,4.05-9.13,4.15-14.08,4.39c-3.96,0.19-6.95,3.19-10.67,3.18c-8.41-0.01-13.22,6.7-9.97,14.38
		c0.4,0.95,0.95,1.84,1.34,2.79c1.17,2.86,1.29,5.13-1.31,7.81c-2.51,2.6-4.45,6.23-3,10.4c0.57,2.77-4.41,11.97-5.2,14.5
		c-4.31,6.66-18.19,28.18-18.66,28.99c-2.56,0.83-3.52,3.02-4.66,5.18c-3.56,6.74-7.26,13.65-11.53,19.7
		c-6.63,9.41-11.08,19.88-17.15,29.48c-0.75,1.19-1.3,2.51,0.2,3.65c0.55,2.39,1.04,4.81,4.11,5.22c1.52,4.97,3.77,9.46,8.31,12.41
		c0.32,0.73,0.64,1.46,0.96,2.18c-2.31,0.17-4.61-2.26-6.94-0.06c-2.38-1.42-0.14-5.28-3.31-6.29c-0.19-1.63,0.66-3.79-2.07-4.14
		c-0.1-0.85,0.04-1.83-0.35-2.52c-0.87-1.55-0.87-4.31-3.16-4.17c-2.06,0.12-2.47,2.52-3.12,4.32c-1.41,3.94-3.87,7.62-5.28,11.25
		c-2.67,6.87-8.98,9.01-13.18,13.65c-0.7,0.77-1.72,0.75-2.78,0.9c-8.18,1.16-14.66-6.94-23.08-4.13c-0.1,0.03-0.31-0.15-0.42-0.28
		c-3.48-4.04-8.61-3.01-12.57-2.66c-5.5,0.48-6.98-1.06-6.48-5.97c0.82-0.47,1.01-1.25,1.03-2.11c0.34-0.34,0.69-0.67,1.03-1.01
		c0.35-0.35,0.69-0.69,1.04-1.04c0.69,0.01,1.37,0.01,2.06,0.02c0.67,0.67,1.35,1.33,2.02,2c0.02,0.38,0.05,0.75,0.07,1.13
		c0.17,1.02,0.42,1.99,1.81,1.58c2.48-0.73,2.44-2.72,2.32-4.74c2.59,0.09,3.96,2.23,3.8,4.01c-0.38,4.11,2.21,3.01,4.38,3.3
		c2.74,0.37,3.83-1.65,5.33-3.15c1.61,0.05,3.09-0.07,3.08-2.25c-1.1-1.51,2.77-4.05-1.03-5c-0.35-1.39-0.69-2.79-1.04-4.18
		c0-0.33,0-0.67,0-1c1.39,0.36,2.77,0.71,4.16,1.07c-0.07,1.53,0.12,2.99,1.45,4.29c0.87-1.35,1.83-2.65,3.71-2.25
		c0,1.05,0,2.09,0,3.14c-0.01,0.34-0.02,0.68-0.03,1.02c-0.92,0.06-2.38-0.26-2.48,0.8c-0.15,1.76,1.55,1.02,2.51,1.25
		c0.69,1.38,1.38,2.76,2.07,4.14c-3.07,0-6.14,0-9.21,0c3.07,0.17,6.32,8.22,9.2-0.01c0.96-0.33,1.9-0.81,2.89-0.96
		c1.86-0.28,4.32,2.19,5.39-1.55c0.63-2.19-0.31-3.73-2.78-6.37c6.41,2.54,8.12-3.2,12.13-3.53c0.53-0.27,1.43-0.46,1.51-0.83
		c0.24-1.1-0.78-1.1-1.53-1.26c2.9-2.31,5.62-4.65,4.42-9.05c-0.59-2.15,1.24-3.1,2.76-3.66c4.45-1.65,5.46-3.95,2.25-6.99
		c-2.17-2.06-0.64-2.29,0.25-3.94c0.9-1.69,5.21-2.09,2.69-5.4c0.33,0.01,0.65,0.01,0.98,0.02c1.32-0.29,3.37,0.89,3.73-1.26
		c0.21-1.29-1.31-1.71-2.55-1.8c-0.01-0.38-0.03-0.76-0.04-1.14c-0.01-0.31-0.02-0.62-0.01-0.93c0.82-0.47,1.65-0.95,2.93-1.68
		c-1.66-0.51-2.47-0.2-3.1,0.72c-0.6-0.35-1.19-0.69-1.79-1.04c-2.19-2.09-4.92-0.74-7.38-1.14c-0.79-0.44-0.98-1.19-1.03-2.02
		c1.66,0.3,1.94-2.22,2.78-1.91c1.11,0.42,0.96,4.05,3.28,1.69c1.89-1.92-1.79-2.37-1.75-4.04c0.01-0.67-0.08-1.35-0.13-2.03
		c0,0-0.01,0.01-0.01,0.01c0.67,0,1.34-0.01,2.01-0.01c1.52-0.1,2.91,0.32,4.23,1.06c-0.02,0.35-0.04,0.7-0.06,1.06
		c-0.57,0.1-1.54-0.17-1.32,0.83c0.16,0.76,0.82,0.96,1.38,0.16c0.99,0.67,5.79-1.46,2.09,2.81c-0.04,0.05,1.5,2.02,1.99,1.89
		c1.78-0.46,3.81,0.58,5.37-0.81c1.27-1.12,1.08-2.45,0.1-3.62c-1.92-2.28-1.27-3.7,1.51-3.19c4.41,0.8,3.18-2.19,3.41-4.33
		c0-0.33-0.01-0.65-0.03-0.98c0.02-0.36,0.04-0.71,0.06-1.07c1.51,0.06,2.96,0.01,3.1-2.03c0.11-0.88,0.31-1.71,1.3-2
		c1.38-0.4,3.04-1.05,2.59-2.61c-0.65-2.26-2.64,0.15-3.89-0.61c1.33-3.28,4.22-4.7,7.17-6.09c2.35-1.11,2.33-1.16,1.06-3.28
		c0.02-0.68,0.03-1.36,0.04-2.04c0,0-0.02,0.02-0.02,0.02c0.33,0,0.67-0.01,1-0.01c1.36-0.2,2.67-0.42,1.06-2.11
		c-0.38-0.39-0.77-0.77-1.15-1.16c0.04-0.96,0.07-1.92,0.11-2.88c-0.33-0.71-0.67-1.42-1-2.14c4.33-0.28,8.47-0.76,7.66-6.84
		c-0.06-0.42,0.36-0.99,0.69-1.36c3.45-3.74,3.96-10.03,9.99-11.6c0.25-0.07,0.2-1.28,0.3-1.96l-0.01,0.01
		c2.31,0.22,3.35-0.84,3.15-3.14c2.14-2.99-0.07-2.98-2.12-3.1c-0.34-0.35-0.68-0.69-1.03-1.04c-0.33-1.03,1.75-2.86-1.02-3.08
		c-3.13-6.94,3.01,0.03,3.11-2.07c0.1,1.23,0.38,2.46,1.78,2.67c1.16,0.18,1.17-0.9,1.31-1.72c-0.37-1,1.71-2.85-1.05-3.01
		c0.07-0.46,0.13-0.92,0.2-1.38c1.04-0.47,2-0.23,2.93,0.31c1.15-0.24,2.38-0.29,3.43-0.75c3.02-1.33,1.09-3.5,0.58-5.21
		c-0.66-2.21-3.57-3.92-4.52-2.65c-2.12,2.84-5.4,3.43-7.76,5.52c-1.42-0.21-3.28,0.62-3.95-1.44c-0.69-2.13,1.28-2.42,2.4-3.34
		c0.33-0.27,0.34-0.93,0.5-1.42c1.09-0.18,2.08-0.43,1.59-1.92c-1.34-4.09-3.8-5.48-7.78-3.27c-0.71-0.01-1.41-0.02-2.12-0.02
		c-0.56-5.66-5.29-5.98-9.28-7.25c0.33-2.81-1.39-4.2-3.71-4.82c-2.84-0.75-2.8-2.77-2.36-4.85c0.47-2.22,2.17-1.47,3.73-1.33
		c3.59,0.31,5.34-2.37,3.73-5.51c-0.6-1.16-2.26-1.72-1.87-3.81c2.33,0.63,4.4,0.39,6.27,3.15c1.9,2.81,6.79,4.13,9.15,1.98
		c3.69-3.35,5.06-1.21,7.26,2.23c0.57-5.66,4.45-4.98,7.44-5.58c2-0.4,4.75,0.75,3.92-3.27c-0.31-1.49,1.66-1.98,2.9-2.51
		c1.18-0.51,2.04,0.09,2.52,1.11c2.28,4.83,6.4,4.45,10.49,3.55c5.08-1.12,5.98-3.68,3.19-8.12c-0.35-0.56-0.66-1.22-0.73-1.86
		c-0.76-7.11-1.69-7.97-8.41-5.57c-3.98,1.43-7.46-2.39-11.29-0.31c-0.51,0.28-1.23-0.87-0.96-1.47c1.59-3.59-0.24-4.38-3.37-4.81
		c-1.32-0.18-1.82-1.98-1.95-3.39c-0.41-4.61-0.75-9.23-1.11-13.84C227.17,36.45,259.68,37.9,260.82,41.62z M264.97,106.01
		c-1.99,0.3-3.63,0.14-4.7,2.22C262.55,108.94,264.08,108.86,264.97,106.01z M143.29,241.29c-0.36,0.39-0.88,0.72-0.86,1.03
		c0.01,0.31,0.53,0.8,0.87,0.85c0.66,0.09,1.38-0.15,1.16-1.03C144.38,241.82,143.77,241.63,143.29,241.29z"/>
	<path class="st3" d="M213.36,36.21c0.37,4.61,0.7,9.23,1.11,13.84c0.13,1.41,0.63,3.21,1.95,3.39c3.13,0.43,4.97,1.22,3.37,4.81
		c-0.27,0.61,0.45,1.75,0.96,1.47c3.83-2.08,7.31,1.74,11.29,0.31c6.72-2.41,7.65-1.54,8.41,5.57c0.07,0.64,0.38,1.3,0.73,1.86
		c2.79,4.44,1.89,7-3.19,8.12c-4.09,0.9-8.22,1.28-10.49-3.55c-0.48-1.02-1.35-1.62-2.52-1.11c-1.24,0.54-3.21,1.02-2.9,2.51
		c0.83,4.02-1.92,2.86-3.92,3.27c-2.99,0.6-6.87-0.08-7.44,5.58c-2.2-3.43-3.57-5.58-7.26-2.23c-2.37,2.15-7.25,0.83-9.15-1.98
		c-1.86-2.76-3.94-2.52-6.27-3.15c-0.4,2.09,1.27,2.65,1.87,3.81c1.61,3.14-0.15,5.83-3.73,5.51c-1.56-0.14-3.27-0.89-3.73,1.33
		c-0.44,2.08-0.48,4.1,2.36,4.85c2.32,0.61,4.04,2.01,3.71,4.82c-1.51-0.05-3.04,0.27-4.38-0.86c-2.59-2.17-4.65-1.54-5.97,1.45
		c-0.43,0.97-1.24,1.58-1.74,2.36c-2.48,3.87-7.97,6.48-5.53,12.52c-0.35,1.08-0.69,2.16-1.04,3.23c0,0.31,0.01,0.63,0.03,0.94
		c-0.7,0.37-1.39,0.73-2.09,1.1c-1.72-1.03-3.4-2.85-5.16-2.93c-5.88-0.29-6.97-3.58-6.24-8.46c0.34-0.35,0.69-0.69,1.03-1.04
		c2.08,0.34,3.53-0.87,4-2.53c1.27-4.52,4.75-7.48,7.48-10.87c7.89-9.78,12.83-21.45,20.41-31.45c1.15-1.52,7.05-6.01,0.19-9.02
		c0.25-2.93-0.14-5.76-1.22-8.5c-0.67-1.71-1.34-2.55-3.72-2.2c-3.13,0.46-6.31,0.49-9.49,1.1c-2.69,0.52-5.72,1.26-8.33-0.73
		c1.1-0.08,18.88-2.24,27.32-2.55C200.49,36.59,206.98,37.47,213.36,36.21z M237.77,66.01c-0.28-0.12-0.56-0.24-0.84-0.37
		c-0.12,0.28-0.4,0.63-0.32,0.83c0.08,0.2,0.52,0.26,0.8,0.38C237.53,66.57,237.65,66.29,237.77,66.01z"/>
	<path class="st4" d="M145.95,72.51c2.13-3.1,4.26-6.2,6.39-9.3c2.9-5.32,7.56-9.63,9.05-15.76c4.2,0.41,8.4,0.81,12.6,1.22
		c1.01,3.53-1.82,5.62-3.11,8.29c-0.35,0.35-0.69,0.69-1.04,1.04c-1.84-0.15-3.18,0.6-4.47,1.96c-6.4,6.76-12.2,13.99-17.42,21.7
		c-0.93,1.37-1.78,1.32-2.84,0.21c-1.05-1.09-2.17-2.12-3.25-3.18C144,77.13,144.59,74.56,145.95,72.51z"/>
	<path class="st5" d="M174,48.67c-4.2-0.41-8.4-0.81-12.6-1.22c0.06-0.96,0.13-1.93,0.19-2.89c9.53-1.19,18.03,3.01,26.92,5.14
		c-3.19,6.72-4.89,14.14-9.36,20.25c-3.54,4.84-6.82,9.9-11.35,13.95c0,0-0.02-0.02-0.02-0.02c-0.45-4.26,0.63-8.11,2.78-11.81
		c2.7-4.63,4.74-9.54,4.51-15.08c0.35-0.34,0.69-0.69,1.04-1.03c3.23-0.13,4.07-1.44,2.07-4.17C177.99,49.12,176.24,48.57,174,48.67
		z"/>
	<path class="st6" d="M188.51,49.71c-8.89-2.13-17.39-6.34-26.92-5.14c1.05-2.4,2.25-4.66,5.17-5.2c2.61,1.98,5.64,1.24,8.33,0.73
		c3.18-0.61,6.36-0.64,9.49-1.1c2.37-0.35,3.04,0.49,3.72,2.2c1.08,2.74,1.48,5.57,1.22,8.5C189.18,49.7,188.84,49.7,188.51,49.71z"
		/>
	<path class="st4" d="M188.47,258.95c0.5,2.4,3.13,8.21,3.02,9.21c-0.98-0.01-1.95-0.03-2.93-0.04
		c-5.13-4.87-11.67-8.42-14.55-15.41c-0.03-1.34-0.73-2.03-2.06-2.1c-0.48-1.41-2.08-2.3-1.89-4.03c2.33-2.2,4.62,0.23,6.94,0.06
		C179.47,250.04,188.47,258.95,188.47,258.95z"/>
	<path class="st7" d="M170.07,246.57c-0.2,1.73,1.41,2.61,1.89,4.03c-0.04,1.41,0.69,2.07,2.06,2.1
		c2.88,6.99,9.42,10.54,14.55,15.41c-0.78,1.17-2.05,0.93-3.19,1.21c-4.17,1.06-8.7-3.78-12.61,0.8c-3.09-2.99-7.35-2.78-11.05-4.08
		c-3.01-1.06-6-1.19-9.07-0.52c-2.55,0.56-4.4,1.85-4.53,4.74c-1.14,0.01-2.34,0.2-3.13-0.95c0-0.36,0-0.71,0-1.07
		c0.29-0.79,0.36-1.84,0.92-2.33c6.09-5.42,7.81-14.46,15.42-18.6c2.83-1.54,2.15-5.81,5.41-7.04
		C169.93,241.29,167.69,245.15,170.07,246.57z"/>
	<path class="st2" d="M156.39,104.61c-0.73,4.88,0.36,8.18,6.24,8.46c1.76,0.09,3.44,1.91,5.16,2.93c0,0.34-0.01,0.68-0.01,1.02
		c0,1.04,0,2.07,0,3.11c-1.52-0.02-2.54,0.71-3.12,2.09c-0.34-0.02-0.69-0.03-1.03-0.02c-0.15-1.12,0.46-2.38-0.89-3.63
		c-2.42,1.99-2.54,5.83-6.18,7.09c1.73,0.74,2.82,1.21,3.91,1.67c0.03,0.38,0.05,0.75,0.08,1.13c-0.15,0.85-0.2,1.78-1.35,0.63
		c-2.55-2.55-3.93-1.07-4.95,1.51c-2.74,2.26-5.95,4.17-6.13,8.31c0.01,0.31,0.01,0.61,0,0.92c-2.11,0.08-2.1,1.63-2.16,3.13
		c-0.31,0.31-0.62,0.63-0.93,0.94c-0.91,0.68-2.42,0.79-2.57,2.18c-0.09,0.8,0.85,0.86,1.5,0.97c-1.62,2.61-6.18,4.37-2.46,8.61
		c0.19,0.22-1.18,2.41-1.44,2.33c-3.12-0.91-3.84,3.06-6.56,3.07c-1.18,0-0.79,1.63-0.91,2.58c-4.84,2.31-8.59,5.4-8.27,11.44
		c-0.46,2.71-3.59,3.61-4.21,6.22c-3.67,0.6-3.85,3.47-4.1,6.3c0.14,1.97-0.13,3.39-2.32,4.49c-2.85,1.44-4.14,3.77-0.12,6.01
		c-2.13,1.36-7.16,0.22-3.72,4.89c-0.08,1.18,0.21,2.48-1.11,3.23c-0.7-1.31-1.95-1.09-3.11-1.13c-2.22,1.93-5.03,3.52-4.13,7.23
		c-3.18,0.73-4.24,2.32-2.07,5.19c-0.87,0-1.65,0.2-2.14,1c-0.8,0.47-0.98,1.24-1,2.08c-2.09,1.73-2.09,1.73-0.87,2.28
		c-0.05,0.96-0.09,1.92-0.14,2.88c0,0.35,0.01,0.7,0.01,1.05c-1.38,0.01-2.04,0.73-2.08,2.08c-0.58,3.35-2.67,1.39-4.27,1.23
		c-1.61-0.16-2.81,0.66-2.75,2.23c0.08,2.11,1.29,1.1,2.45,0.7c2.23-0.75,1.15,1.22,1.48,2.04c-1.38,0.04-2.04,0.8-2.15,2.13
		c-2.07,0.07-2.01,1.54-1.96,3c-0.3,1.79-2.14,2.06-3.14,3.15c-3.5,0.35-5.75-2.36-7.91-4.13c-2.57-2.1-3.15-2.27-5.28,0.48
		c-2.64,3.42-4.34,7.94-10.04,8.71c-2,0.27-5.56,2.28-6.82,5.36c-1.74-0.28-3.71,0.57-5.18-1.05c0.13-3.92,2.21-6.08,6.06-6.25
		c6.92-0.31,11.54-3.09,14.23-10.01c1.53-3.94,4.15-7.86,6.68-11.27c7.42-10,15.15-19.72,20.96-30.81c0.7-1.34,1.7-2.61,2.82-3.61
		c2.67-2.37,4.8-4.99,5.76-8.54c0.52-1.9,0.61-4.37,2.99-5.07c2.3-0.68,2.82-2.52,3.11-4.32c0.52-3.19,0.73-6.35,4.68-7.41
		c0.65-0.17,1.38-1.26,1.5-2.01c1.21-7.69,7.4-12.63,11.9-17.59c8.9-9.82,13.07-22.35,21.29-32.25
		C152.05,110.71,151.81,105.8,156.39,104.61z M83.33,237.11c0.27-0.14,0.53-0.27,0.79-0.41c-0.24-0.16-0.48-0.43-0.72-0.44
		c-0.25-0.01-0.52,0.23-0.78,0.36C82.85,236.78,83.09,236.95,83.33,237.11z"/>
	<path class="st5" d="M156.39,104.61c-4.59,1.19-4.35,6.1-6.78,9.02c-8.22,9.91-12.39,22.43-21.29,32.25
		c-4.49,4.96-10.68,9.9-11.9,17.59c-0.12,0.75-0.85,1.84-1.5,2.01c-3.94,1.06-4.15,4.21-4.68,7.41c-0.29,1.8-0.82,3.64-3.11,4.32
		c-2.38,0.7-2.47,3.17-2.99,5.07c-0.96,3.55-3.09,6.16-5.76,8.54c-1.13,1-2.12,2.28-2.82,3.61c-5.81,11.08-13.55,20.81-20.96,30.81
		c-2.53,3.41-5.14,7.33-6.68,11.27c-2.69,6.92-7.31,9.69-14.23,10.01c-3.85,0.17-5.93,2.33-6.06,6.25
		c-4.97-0.9-10.34-0.42-14.51-4.13c3.13-2.9,6.31,0.81,9.46-0.06c1.07-0.21,2.2-0.63,1.3-1.89c-0.73-1.03-1.5-3-3.42-1.28
		c-0.85-0.05-1.96,0.01-2.18-0.93c-0.33-1.38,0.94-1,1.64-1.04c1.19-0.07,2.38-0.03,3.58-0.04c0.86-0.01,1.62-0.2,2.08-1.02
		c1.04,0,2.07,0,3.11,0c0.86,1.17,2.03,0.98,3.27,0.85c7.33-0.77,10.48-6.69,11.37-12.19c1.53-9.5,8.67-15.11,13.99-21.23
		c4.68-5.38,7.17-13.44,14.98-16.03c0.36-0.12,0.64-0.82,0.74-1.29c1.51-7.34,5.16-14.26,9.36-19.71c3.78-4.9,5.61-8.8,6-14.86
		c0.35-5.55,5.27-9.93,9.58-13.2c6.97-5.28,13.39-11.24,18.01-18.33c3-4.6,6.04-9.24,9.12-13.84c3.18-4.74,5.04-10.41,10.04-13.84
		c0.37-0.26,0.5-0.89,0.7-1.36c2.02-4.73,7.09-7.33,8.64-12.45c0.36-1.19,2.07-0.98,3.27-1.01c0,0,0.02,0.02,0.02,0.02
		c0.2,2.86-0.62,4.82-2.92,7.09c-3.43,3.37-6.76,7.34-7.44,12.58C157.08,103.92,156.74,104.26,156.39,104.61z"/>
	<path class="st3" d="M52.81,253.81c1.26-3.09,4.82-5.09,6.82-5.36c5.7-0.77,7.4-5.3,10.04-8.71c2.13-2.75,2.7-2.58,5.28-0.48
		c2.16,1.76,4.41,4.48,7.91,4.13c0,0-0.01-0.01-0.01-0.01c0.2,1.32,0.42,2.6,2.07,1.04c0.69,0,1.37,0.01,2.06,0.01
		c0.15,0.07,0.29,0.15,0.44,0.22c-0.14-0.08-0.28-0.16-0.42-0.24c0.34-1.03,0.68-2.07,1.03-3.1c0.69,0.35,1.38,0.69,2.07,1.04
		c0.45,0.83,1.22,1.02,2.07,1.04c-0.03,1.52,0.01,3,2.08,3.12c-0.5,4.91,0.98,6.45,6.48,5.97c3.95-0.35,9.09-1.38,12.57,2.66
		c0.11,0.13,0.32,0.31,0.42,0.28c8.42-2.81,14.91,5.29,23.08,4.13c1.06-0.15,2.08-0.13,2.78-0.9c4.21-4.64,10.51-6.78,13.18-13.65
		c1.41-3.62,3.87-7.31,5.28-11.25c0.65-1.8,1.06-4.2,3.12-4.32c2.29-0.14,2.29,2.62,3.16,4.17c0.39,0.69,0.25,1.67,0.35,2.52
		c-1.35,1.88-3.57,3.62-3.89,5.67c-1.03,6.44-7.05,8.55-10.65,12.51c-3.91,4.3-6.99,10.19-13.42,11.86
		c-0.69,0-15.19-2.05-16.57-2.05c-1.7-7.88-9.83-0.89-12.96-5.6c-0.51-0.76-1.58-0.54-2.4-0.19c-2.95,1.26-5.69,0.14-8.53-0.57
		c-6.94-1.72-13.58-4.74-20.85-5.04c-3.28-0.13-6.34,0.76-9.84-0.76c-4.41-1.92-6.1-0.22-5.5,3.83
		C57.76,254.75,54.98,255.39,52.81,253.81z"/>
	<path class="st6" d="M60.07,255.81c-0.61-4.05,1.09-5.76,5.5-3.83c3.5,1.53,6.57,0.63,9.84,0.76c7.27,0.29,13.91,3.31,20.85,5.04
		c2.84,0.71,5.58,1.83,8.53,0.57c0.82-0.35,1.89-0.58,2.4,0.19c3.13,4.71,11.27-2.28,12.96,5.6c-2.61,2.93-24.9-2.75-33.83-4.13
		C85.55,259.88,61.94,256.94,60.07,255.81z"/>
	<path class="st8" d="M43.5,243.39c-1.19,0.01-2.39-0.04-3.58,0.04c-0.71,0.04-1.98-0.34-1.64,1.04c0.22,0.94,1.33,0.88,2.18,0.93
		c0.71,1.06,1.41,2.12,2.12,3.18c-3.15,0.87-6.32-2.84-9.46,0.06c-1.91,0.33-2.93-1.02-4.08-2.15c0.65-1.04,1.3-2.08,1.95-3.11
		c1.78-0.22,3.88,0.75,5.21-1.16c2.78-4.01,7.39-4.14,11.37-4.6c2.45-0.28,2.75-0.55,3.36-2.76c0.99-3.61,1.74-7.98,7.04-8.03
		c0.81,0.2,1.82,0.22,1.48,1.51c-1.66,6.15-4.26,11.6-10.77,14.04c-1.04,0-2.07,0-3.11,0C43.94,240.8,43.71,242.08,43.5,243.39z"/>
	<path class="st6" d="M136.71,266.17c6.43-1.67,9.51-7.55,13.42-11.86c3.6-3.96,9.63-6.07,10.65-12.51
		c0.33-2.04,2.54-3.79,3.89-5.67c2.74,0.36,1.88,2.51,2.07,4.14c-3.26,1.23-2.58,5.5-5.41,7.04c-7.62,4.14-9.34,13.18-15.42,18.6
		c-0.56,0.5-0.62,1.54-0.92,2.33C141.78,269.4,139.51,266.72,136.71,266.17z"/>
	<path class="st3" d="M220.63,125.32c-1.45-4.16,0.49-7.79,3-10.4c2.6-2.69,2.48-4.95,1.31-7.81c-0.39-0.95-0.93-1.84-1.34-2.79
		c-3.25-7.68,1.56-14.4,9.97-14.38c3.72,0.01,6.71-2.99,10.67-3.18c4.95-0.24,10.14-0.34,14.08-4.39c0.97-1,3.05,0,2.43,1.11
		c-1.56,2.8,1.65,5.89-0.91,8.39c-0.67,0.65-0.85,1.57-0.33,2.37c2.56,3.96-0.07,7.07-1.61,10.37c-6.01,1.19-12.03,2.27-18.33,3.2
		c2.67,0.6,6.08-1.04,6.93,3.03c-3.11,0.01-6.22,0.02-9.32,0.03c-1.37,0.01-2.74,0.01-4.11,0.01c-1.45-0.02-2.46,0.92-2.55,2.11
		C230.02,119.4,224.4,121.6,220.63,125.32z"/>
	<path class="st4" d="M57.97,226.82c-5.3,0.05-6.05,4.42-7.04,8.03c-0.6,2.2-0.91,2.48-3.36,2.76c-3.97,0.46-8.58,0.59-11.37,4.6
		c-1.33,1.92-3.43,0.94-5.21,1.16c1.18-1.11,2.53-2.11,2.35-4.01c2.66-2.18,15.64-22.95,17.48-25.93
		c1.59-3.12,9.19-15.23,12.26-17.64c2.01-2.97,19.51-31.36,22.79-32.37c-0.75,2.95-0.5,6.41-4.16,7.85
		c-0.27,0.11-0.51,0.91-0.38,1.26c0.11,0.32,0.71,0.59,1.13,0.67c2.22,0.44,2.36,0.51,1.42,1.83c-1.35,1.89-2,3.93-2.06,6.21l0,0.01
		c-2.72,2.97-5.09,6.22-7.58,9.39c-5.32,6.78-8.36,14.88-13.19,21.98c-2.07,3.04-4.62,7.46-3.06,12.13
		C57.98,225.44,57.97,226.13,57.97,226.82z"/>
	<path class="st6" d="M120.11,181.29c0.61-2.61,3.75-3.51,4.21-6.22c2.96-4.57,8.78-3.05,12.65-6.09c-2.38-0.99-1.34-4.75-4.38-5.35
		c0.12-0.96-0.27-2.58,0.91-2.58c2.72-0.01,3.44-3.98,6.56-3.07c0.25,0.07,1.63-2.12,1.44-2.33c-3.72-4.24,0.84-5.99,2.46-8.61
		c1.06,0,2.12-0.01,3.17-0.01c0.15,2.51,2.67,5.38-1.08,7.31c-0.13-0.97-0.11-2.05-1.37-2.33c-0.13-0.03-0.52,0.38-0.54,0.61
		c-0.11,1.36,0.87,1.59,1.92,1.71c0,0.99,0,1.97,0,2.96c1.27-2.02,3.04-2.11,4.87-1.93c2.33,0.23,3.63-0.59,3.41-3.11l-0.01,0.02
		c2.76-0.35,1.88-2.52,2.08-4.15c0,0,0,0,0,0c1.01-0.03,2.01-0.06,3.02-0.09c0.77,1.33,0.39,4.35,3.1,3.05
		c2.63-1.26,6.2-2,6.31-6.06c0.69,0,1.38-0.01,2.06-0.01c1.05,0.36,2.1,0.73,3.15,1.09c-0.02,0.33-0.03,0.66-0.04,0.99
		c-1,0.22-2.23-0.53-3.39,1.02c1.38,0,2.38,0,3.38,0c1.4,1.04,1.09-1.09,1.95-1.05c0.14,0.53,0.15,1.5,0.86,1.1
		c0.39-0.22,0.23-1.43,0.32-2.19c3.35,0.79,3.12-0.82,2.01-3.01c1.14-0.08,2.36,0.14,3.22-0.92c-0.03-0.72-0.07-1.45-0.1-2.17
		c0.55-1.34,5.63-1.52,1.07-4.17c0.72-2.76,0.47-5.38-0.72-7.84c-1.7,0.17-1.15,2.82-2.72,2.05c-2.06-1-0.81-2.97-0.7-4.57
		c0.66-0.1,1.42-0.1,1.54-0.97c0.02-0.17-0.4-0.6-0.57-0.57c-0.88,0.12-0.87,0.88-0.97,1.54c-0.7-0.35-1.39-0.7-2.09-1.05
		c0-1.71,0-3.43,0-5.14c-0.08-2.17-1.6-2.12-3.14-2.04c-0.34,0-0.67-0.01-1-0.04c-0.12-0.94,2.13-0.71,1.05-2.12
		c0.01-0.32,0.02-0.64,0.01-0.96c-0.01-1.28-0.62-2.02-1.92-2.15c-0.4-0.36-0.79-0.73-1.19-1.09c-2.45-6.04,3.05-8.65,5.53-12.52
		c0.5-0.78,1.31-1.39,1.74-2.36c1.32-2.99,3.38-3.61,5.97-1.45c1.34,1.13,2.88,0.81,4.38,0.86c3.99,1.27,8.72,1.59,9.28,7.25
		c-3.54,2.55-0.97,5.07,0.22,7.39c1.16,2.27,1.19,4.42-1.38,4.75c-2.97,0.38-4.63,2.68-7.14,3.52c-0.33-0.72-0.66-1.45-0.99-2.17
		c0.01-0.37,0.01-0.73,0.02-1.1c2.19,0.07,2.19-1.33,1.93-2.89c0.58-1.51,3.73-0.91,2.93-3.49c-0.57-1.83-2.32-1.72-3.8-2.01
		c-2.55-0.49-5.09-1.02-7.64-1.53c2.71,2.75,0.7,4.65-1.91,7.8c5.57-3.4,5.41-0.54,5.39,2.17c-1.26,0.97-1.33,1.98-0.11,3.05
		c0.03,0.4,0.06,0.8,0.09,1.2c0.02,0.3,0.03,0.6,0.03,0.9c-0.35,0.03-0.7,0.05-1.04,0.07c-0.64-0.89-1.84-1.55-2.29-0.51
		c-0.44,1.03,1.02,1.34,1.99,1.49c-0.22,0.64-0.44,1.27-0.66,1.91c0.22,1.13,0.94,1.83,1.96,2.26c0,0.34,0,0.69-0.01,1.03
		c-1.03,0.69-1.06,1.38,0.01,2.06c0.7,1.19,1.87,1.02,2.98,1.02c0.46,0.84,1.25,1.01,2.11,1.04c0.4,0.02,0.81,0.04,1.21,0.05
		c0.37,0.83,1.13,1,1.92,1.12c-3.26,1.22-5.16,3.23-3.6,6.87c0.72,1.67-0.57,2.93-0.46,4.42c-0.37-0.01-0.75-0.02-1.12-0.04
		c-0.87-0.76-1.74-1.52-2.61-2.28c-0.16,0.78-0.33,1.57-0.49,2.35c-0.32,0.33-0.64,0.66-0.95,1c-0.99,0.43-1.18,1.25-1.12,2.21
		c0.01,0.31,0.03,0.62,0.05,0.93c-0.28-0.01-0.56-0.02-0.84-0.05c-1.02,0.91-4.06,0.35-2.35,3.24c0.45,0.67,0.81,1.85,1.35,1.94
		c5.78,0.98,5.1,5.27,4.94,9.32c-4.44-1.97-5.8-0.14-5.14,4.17c-1.04,0-2.08,0-3.12,0c-1.62,1.4-2.17,3.42-3.04,5.26
		c-0.32,0.66-0.64,1.32-0.96,1.98c-5.76-2.81-8.1-1.73-9.55,4.43c-0.16,0.69-0.26,1.45-1.13,1.38c-0.95-0.07-1.55-0.78-1.6-1.7
		c-0.19-3.56-1.76-3.94-4.41-2.01c-0.01-1.03-0.01-2.06-0.02-3.09c1.53-0.39,3.53,0.73,5.52-2.32c-4.93,2.32-5.83,0.3-5.54-3.1
		c0.19-2.24-1.02-3.03-3.08-2.9c-0.13-0.08-0.26-0.16-0.39-0.24c0.13,0.08,0.27,0.15,0.4,0.23c-0.35,4.15-0.7,8.29-1.04,12.44
		c0.02,0.87,0.24,1.64,1.07,2.1c-1.4,3.45-5.19,3.9-8.33,1c1-0.19,2.04-0.39,1.82-1.75c-0.05-0.31-0.73-0.84-0.92-0.76
		c-1.17,0.48-0.77,1.61-0.89,2.53c-1.66,0.6-3.16,3.47-5.07,0.35c-0.48-0.79-1.12-0.87-1.56-0.1c-0.3,0.53-0.56,1.57-0.28,1.86
		c0.78,0.82,1.85,1.38,2.8,2.04c-2.17,4.35,1.56,2.62,3.16,3.07c-0.9,1.76-1.78,3.53-4.26,3.13c-0.26-0.55-0.38-1.3-0.81-1.58
		c-0.46-0.31-1.05,0.31-0.74,0.75c0.29,0.43,1.04,0.54,1.58,0.8c0.23,1.29-0.54,3.01,0.95,3.77c1.6,0.82,1.82-0.85,2.48-1.8
		c0.94-1.37,2.51-0.74,3.83-0.91c4.49,0.29,0.26-2.2,0.99-3.11c1.55,0.31,3.79-1.04,4.11,2.29c0.06,0.63,1.6-3.7,4.23-2.3
		c0.05,0.68,0.14,1.35,0.13,2.03c-0.03,1.67,3.64,2.12,1.75,4.04c-2.32,2.36-2.17-1.27-3.28-1.69c-0.84-0.32-1.11,2.21-2.78,1.91
		c-1.84-0.11-3.71,1.94-5.59-0.38c-0.93-1.15-2.09-0.61-2.56,0.93c-1.19,3.91-4.09,7.36-3.2,11.83c0.03,1.38,0.8,2.02,2.13,2.09
		c0.11,1.12,0.44,2.07,1.83,1.77c0.38-0.08,0.88-0.59,0.96-0.97c0.26-1.37-0.68-1.73-1.8-1.84c0-0.35-0.01-0.71-0.01-1.06
		c-0.1-3.26,1.21-5.73,4.12-7.3c0.84,0.07,1.64,0.22,2.07,1.07c-1.29,0.24-2.71,1.05-1.54,2.2c1.78,1.75,4.11,1.06,7.13,0.04
		c-2.06-1-3.31-1.61-4.55-2.22c0.01-0.33,0.02-0.66,0.04-0.99c0.89-0.05,1.69-0.28,2.17-1.12c0.59,0,1.18,0,1.77,0
		c0.81,1.25,2.09,1.06,3.3,1.06c0.36,0,0.71,0,1.07,0.01c0,0.32-0.01,0.65-0.02,0.97c0.15,1.42-0.45,3.02,0.96,4.15
		c2.52,3.31-1.78,3.71-2.69,5.4c-0.88,1.65-2.42,1.89-0.25,3.94c3.21,3.04,2.2,5.34-2.25,6.99c-1.52,0.56-3.35,1.52-2.76,3.66
		c1.2,4.4-1.52,6.73-4.42,9.05c0,0.7,0.01,1.39,0.01,2.09c-4.01,0.33-5.72,6.07-12.13,3.53c2.48,2.64,3.41,4.18,2.78,6.37
		c-1.07,3.73-3.53,1.27-5.39,1.55c-0.99,0.15-1.93,0.63-2.89,0.96l0.01,0.01c-0.69-1.38-1.38-2.76-2.07-4.14
		c-0.01-0.69-0.02-1.37-0.03-2.06c0.01-0.34,0.02-0.68,0.03-1.03c2.06-0.14,2.12-1.6,2.07-3.14c0-0.34,0-0.68,0-1.02
		c2.8-1.12,3.99-4.2,6.73-5.93c0.2,2.97-1.88,4.53-2.66,6.59c4.11,1.86,2.25-4.21,5.24-3.8c0.35,0,0.7,0.01,1.05,0.01
		c1.79,1.38,3.36,1.87,4.11-1c0.01-1.04,0.02-2.08,0.04-3.12c1.04,0.41,2.1,0.85,2-1.01c5.09-3.59,4.69-4.65-3.3-8.6
		c0.71-1.51,2.66-0.03,3.45-1.43c-1.8-1.87-4.14-1.28-6.31-1.4c-0.01-0.72-0.02-1.43-0.03-2.15c1.05,0.02,2.09,0.05,3.14,0.07
		c0.14,0.08,0.28,0.16,0.42,0.24c-0.14-0.08-0.29-0.15-0.43-0.23c-0.11-2.08-1.6-2.09-3.1-2.07c-0.7-0.68-1.39-1.37-2.09-2.05
		c0.01-0.69,0.01-1.39,0.02-2.08c-0.03-1.34-0.71-2.04-2.05-2.08c-1.73-0.62-2.9,3.27-5.03,0.47c-1.93-2.54-2.53-1.3-3.35,1.17
		c-1.61,4.82-4.26,8.88-10.29,8.68c0.01-0.33,0.01-0.66,0.02-0.99c-0.06-5.78-2.93-0.21-4.21-1.05c0.02-0.67,0.03-1.34,0.05-2.01
		c1.64-4.09-3.81-8.16,0.84-12.38c-3.1,0.13-3.92,2.61-5.93,2.98c-3.45-4.68,1.59-3.54,3.71-4.89c-4.02-2.25-2.73-4.57,0.12-6.01
		c2.18-1.1,2.46-2.53,2.32-4.49c0.69-0.04,1.38-0.09,2.07-0.13c0.16,0.92-0.37,2.24,0.96,2.54c1.05,0.23,1.39-0.92,1.58-1.64
		c0.59-2.33-1.33-1.7-2.49-1.96c0-3.02,2.83-1.47,4.14-2.51C121.43,183.07,120,182.8,120.11,181.29z M126.28,196.68
		c0.77-0.11,1.53-0.22,2.3-0.32c-0.52-0.87-1.4-0.51-2.14-0.64c-0.12-0.58-0.01-1.51-0.89-1.32c-0.49,0.1-0.85,0.88-1.26,1.35
		c-1.08,2.16-4.34,2.89-4.36,6.65c2.18-1.43,3.79-2.48,5.41-3.54c0.33,0,0.65,0,0.98-0.01c0.54,0.83,1.32,1.14,2.19,0.72
		c0.26-0.12,0.25-0.79,0.37-1.21c-0.81-0.14-1.63-0.29-2.44-0.43c-0.03-0.4-0.06-0.79-0.08-1.19L126.28,196.68z M118.92,210.2
		c0.66,0.89,1.47,1.28,2.49,0.64c0.19-0.12,0.36-0.64,0.26-0.82c-0.57-1.06-1.65-0.75-2.58-0.84c-0.4-0.57-1.09-1.07-1.46-0.31
		C117.09,209.97,118.15,210.07,118.92,210.2z M171.13,167.86c1.71,1.64,2.61,1.13,2.86-1.08c0.29-1.5,0.73-2.99,0.83-4.51
		c0.09-1.33-1.7-2-1.91-1.33C172.22,163.2,168.22,164.73,171.13,167.86z M152.03,157.84c-0.09-0.79-0.61-1.23-1.32-1.18
		c-0.94,0.07-1.54,0.63-1.3,1.67c0.18,0.79,0.81,0.98,1.53,0.9C151.75,159.14,151.98,158.55,152.03,157.84z M128.74,184.64
		c-0.72-0.38-1.27-0.8-1.9-0.97c-0.57-0.16-1.14,0.21-0.61,0.8c0.4,0.44,1.15,0.59,1.77,0.78
		C128.13,185.29,128.39,184.93,128.74,184.64z M148.78,205.16c-0.15-0.26-0.25-0.65-0.46-0.71c-0.22-0.07-0.53,0.17-0.8,0.28
		c0.2,0.32,0.41,0.64,0.61,0.97C148.34,205.52,148.55,205.34,148.78,205.16z M148.78,161.86c-0.12-0.29-0.15-0.69-0.35-0.81
		c-0.17-0.11-0.54,0.1-0.82,0.17c0.14,0.35,0.27,0.7,0.41,1.05C148.27,162.13,148.53,162,148.78,161.86z M140.1,160.93
		c-0.14-0.05-0.29-0.1-0.43-0.15c-0.04,0.12-0.16,0.33-0.12,0.36c0.11,0.09,0.27,0.12,0.42,0.17
		C140.02,161.18,140.06,161.06,140.1,160.93z"/>
	<path class="st5" d="M141.86,214.32c0.01,0.72,0.02,1.43,0.03,2.15c0,0.34,0,0.67,0,1.01c-2.46-0.13-3.53,0.67-2.07,3.14
		c1.58,2.16,4.63-0.08,6.22,2.07c0.02,0.68,0.04,1.36,0.06,2.03c-0.07,1.5-0.1,2.98,1.95,3.18c0.09,1.85-0.96,1.42-2,1.01
		c-0.83,0.14-1.72,0.23-1.87,1.29c-0.19,1.37,0.8,1.64,1.84,1.83c-0.75,2.87-2.32,2.39-4.11,1c-0.34-0.72-0.69-0.68-1.05-0.01
		c-2.98-0.41-1.13,5.66-5.24,3.8c0.78-2.07,2.86-3.63,2.66-6.59c-2.74,1.72-3.93,4.81-6.73,5.93c-0.01-0.36-0.01-0.71-0.02-1.07
		c1.22-3.32,2.05-6.7,5.18-9.15c2.47-1.94-0.87-5.15,0.49-7.76c0.14-0.27-1.61-0.87-2.05,0.02c-2.1,4.21-5.56,2.06-8.54,1.91
		c-1.15-0.06-2.4-0.99-3.07,0.64c-0.66,1.61,1.39,1.6,1.95,3.04c-5.43-1.73-5.29,4.2-4.6,4.77c3.31,2.73-0.78,3.75-0.73,5.52
		c0,0.33,0,0.67,0,1c-4.11-0.37-10.01,2.17-9.47-5.81c0.02-0.28-0.21-0.74-0.46-0.86c-4.5-2.25-0.8-3.39,0.64-4.84
		c0.56,1.51,1.43,2.27,2.96,1.13c0.32-0.24,0.7-0.94,0.58-1.14c-0.88-1.49-2.35-0.59-3.57-0.75c0.83-3.44,3.88-1.23,5.93-1.92
		c-1.09-1.94-2.62-1.05-3.84-1.29c0.05-1.61-0.16-3.05-2.2-3.24c0.35-0.66,0.7-1.32,1.05-1.98c1.05,0.01,2.09,0.01,3.14,0.02
		c1.28,0.83,4.16-4.74,4.21,1.05c-0.86,0.23-2.18-0.53-2.41,1c-0.06,0.4,0.32,1.14,0.67,1.27c1.07,0.4,1.36-0.55,1.72-1.28
		c6.03,0.21,8.68-3.86,10.29-8.68c0.82-2.47,1.42-3.71,3.35-1.17c2.13,2.8,3.3-1.09,5.03-0.47c0.01,0.67,0.03,1.34,0.04,2
		c0.39,2.44-5.11,3.33-2.3,5.58c2.6,2.08,1.81-3.44,4.29-3.43c0.7,0.68,1.39,1.37,2.09,2.05
		C141.88,212.99,141.87,213.65,141.86,214.32z"/>
	<path class="st5" d="M157.43,187.45c-2.63-1.4-4.17,2.93-4.23,2.3c-0.31-3.33-2.56-1.97-4.11-2.29c-0.33,0.01-0.66,0.01-0.99,0l0,0
		c0.71-5.52-4.07-2.82-6.18-4.12c-0.95-0.66-2.02-1.22-2.8-2.04c-0.27-0.29-0.02-1.33,0.28-1.86c0.44-0.77,1.08-0.69,1.56,0.1
		c1.91,3.12,3.41,0.25,5.07-0.35l-0.01-0.01c3.13,2.9,6.93,2.44,8.32-1c0.31-0.02,0.62-0.06,0.92-0.1c1.56,1.11,0.88-0.44,1.1-0.93
		c0.35-0.69,0.71-1.39,1.06-2.08c2.66-1.93,4.23-1.55,4.41,2.01c0.05,0.92,0.65,1.62,1.6,1.7c0.87,0.07,0.97-0.69,1.13-1.38
		c1.45-6.16,3.8-7.24,9.55-4.43c1.2-0.23,2.44-0.44,0.97-1.98c0.87-1.83,1.41-3.86,3.04-5.26c0.24,1.54,0.54,3.24,2.65,2.6
		c1.21-0.37,1.89-1.45,0.47-2.6c-0.65-4.31,0.7-6.14,5.14-4.17c0,0,0.05,0.06,0.05,0.06c-0.48,1.21-1.77,2.49-0.27,3.69
		c1.16,0.92,2.25-0.16,3.31-0.65c1.27,2.12,1.29,2.18-1.06,3.28c-2.95,1.39-5.84,2.81-7.18,6.09c-3.35-0.56-3.05,2.47-4.1,4.17
		c-1.07,0.66-2.13,1.32-3.2,1.99c-1.57,0.63-3.15,1.26-4.93,1.97c1.67,1.87,3.45,0.92,4.97,1.2l0,0c-0.19,2.46-3.49,3.15-3.74,2.82
		c-3.25-4.24-3-0.34-3.84,1.44c-0.5,1.08-1.75,0.84-2.76,0.92c-1.31-0.74-2.7-1.16-4.23-1.06c-0.25-1.39,1.97-2.76,0.03-4.17
		c-0.26-0.53-0.45-1.44-0.8-1.51c-1.1-0.22-1.09,0.79-1.23,1.54c-1.86,1.37,0.32,2.77-0.02,4.15L157.43,187.45z"/>
	<path class="st6" d="M208.18,132.56c-0.09,0.68-0.04,1.89-0.3,1.96c-6.03,1.57-6.54,7.86-9.99,11.6c-0.34,0.37-0.75,0.94-0.69,1.36
		c0.81,6.09-3.33,6.56-7.66,6.84c0.14-1.5-0.37-2.84-1.04-4.14c0.35-1.05,0.71-2.09,1.06-3.14c6.83-0.64,7.77-6.75,10.42-11.25
		c0.99-0.83,0.9-1.6-0.11-2.33c-0.7-0.56-1.4-1.13-2.1-1.69c0.28-0.49,0.9-1.09,0.78-1.44c-0.22-0.62-0.68-0.08-0.99,0.18
		c-0.55,0.33-1.1,0.65-1.66,0.98c0,0-0.19,0.04-0.19,0.04c-0.52-1.16-2.17-1.53-2.15-3.08c1.46-0.11,2.27-0.8,2.09-2.36
		c0.03-0.62,0.05-1.25,0.08-1.87c-0.04-0.64-0.08-1.29-0.12-1.93c2.64-2.51,4.86-5.69,9.2-5.29c2.35,0.22,3.86-0.33,2.34-3.09
		c2.36-2.1,5.64-2.68,7.76-5.52c0.94-1.27,3.86,0.44,4.52,2.65c0.51,1.72,2.45,3.88-0.58,5.21c-1.05,0.46-2.28,0.52-3.43,0.76
		c-0.45-0.94,1.54-2.52-0.51-2.88c-1.57-0.27-2.38,0.98-2.42,2.57c-0.07,0.46-0.13,0.92-0.19,1.38c-0.34,0.35-0.67,0.69-1.01,1.04
		c-0.35,0.34-0.69,0.67-1.04,1.01c-0.09,2.1-6.24-4.87-3.11,2.07c-0.57,1.33-1.73,2.85,1.02,3.08c0.34,0.35,0.68,0.69,1.03,1.04
		c-2.2,3.03,0,3.03,2.12,3.1c0.2,2.3-0.84,3.36-3.15,3.14c-0.13-0.77-0.09-1.68-1.27-1.59c-0.12,0.01-0.32,0.21-0.33,0.34
		C206.49,132.51,207.41,132.45,208.18,132.56z"/>
	<path class="st6" d="M111.76,214.38c-0.35,0.66-0.7,1.32-1.05,1.98c-0.76,0.44-1.62,1.08-1.3,1.93c0.6,1.58,2.17,1.29,3.5,1.3
		c1.22,0.24,2.75-0.65,3.84,1.29c-2.05,0.69-5.09-1.52-5.93,1.91c0.01,0.25,0.03,0.51,0.04,0.76c-1.43,1.45-5.14,2.59-0.64,4.84
		c0.24,0.12,0.48,0.58,0.46,0.86c-0.54,7.98,5.36,5.44,9.47,5.81c0.35,1.39,0.69,2.79,1.04,4.18c0,0,0,0,0,0
		c-4.56,1.36-5.01,2.68-2.1,6.21c0.02,0.35,0.04,0.69,0.06,1.04c-1.5,1.5-2.6,3.52-5.33,3.15c-2.17-0.29-4.75,0.8-4.38-3.3
		c0.16-1.78-1.21-3.92-3.8-4.01c0-0.3,0.01-0.59,0.03-0.89c-0.03-0.71-0.06-1.41-0.09-2.12c-1.71-3.49-3.41-6.97-5.12-10.46
		c0.01-0.34,0.03-0.68,0.05-1.02c3.06-0.93,4.35-3.04,4.12-6.17c-0.27-0.56-0.47-1.55-0.83-1.61c-1.18-0.2-1.14,0.87-1.27,1.67
		c-0.15,0.52-0.37,1.73-0.96,0.8c-1.36-2.13-3.29-1.92-5.26-1.95c0.02-0.85,0.19-1.61,1-2.08c0.87,0.01,1.66-0.17,2.14-1
		c-2.17-2.87-1.11-4.45,2.07-5.19c3.46-0.16,6.72,1.65,10.23,1.02C111.74,213.68,111.75,214.03,111.76,214.38z M107.55,216.91
		c-0.11-0.75-0.5-1.32-1.28-1.3c-0.97,0.04-1.58,0.59-1.42,1.65c0.12,0.84,0.77,1.05,1.49,1.01
		C107.16,218.23,107.44,217.63,107.55,216.91z"/>
	<path class="st3" d="M182.29,198.86c-0.03,0.85-0.22,1.62-1.04,2.07c-6.51,2.93-7.45,10.19-10.81,15.31
		c-2.21,3.38-4.12,7.28-6.8,10.59c-1.5-1.13-0.96-2.45-0.2-3.65c6.07-9.6,10.52-20.07,17.15-29.48c4.27-6.06,7.97-12.96,11.53-19.7
		c1.14-2.16,2.1-4.36,4.66-5.18c0.5,7.14-4.73,11.58-8.12,16.81C185.94,189.8,183.25,193.89,182.29,198.86z"/>
	<path class="st6" d="M120.14,234.07c-0.05-1.77,4.04-2.79,0.73-5.52c-0.69-0.57-0.83-6.5,4.6-4.77c-0.56-1.44-2.61-1.43-1.95-3.04
		c0.66-1.62,1.92-0.69,3.07-0.64c2.98,0.15,6.44,2.3,8.54-1.91c0.44-0.88,2.19-0.29,2.05-0.02c-1.36,2.61,1.98,5.82-0.49,7.76
		c-3.13,2.46-3.96,5.83-5.18,9.15c-0.68,0-1.36,0-2.04,0c-1.75-2.27-3.45,0.31-5.18,0.04C122.92,234.78,121.53,234.42,120.14,234.07
		z"/>
	<path class="st5" d="M207.15,113.92c1.52,2.76,0.01,3.31-2.34,3.09c-4.33-0.4-6.56,2.78-9.19,5.29c-2.05-0.39-4.1-0.79-6.15-1.18
		c0.02-0.72,0.04-1.44,0.07-2.15c-0.02-0.26-0.04-0.53-0.05-0.79c2.52-0.85,4.17-3.15,7.14-3.52c2.56-0.33,2.54-2.48,1.38-4.75
		c-1.19-2.31-3.75-4.84-0.22-7.39c0.71,0.01,1.41,0.02,2.12,0.02c-1.66,2.51,0.22,3.92,1.96,4.67c1.16,0.51,2.9-0.69,4.23,0.52
		c-0.16,0.48-0.17,1.15-0.5,1.42c-1.12,0.91-3.09,1.21-2.4,3.34C203.87,114.54,205.73,113.71,207.15,113.92z"/>
	<path class="st6" d="M163.64,226.82c2.68-3.3,4.15-7.45,6.36-10.82c3.36-5.12,5.49-13.07,12-16c0.44,2.55-2.35,4.98-3.32,6.94
		c-3.46,7.02-6.99,14-10.36,21.06c-0.56,1.17-0.41,2.69-0.59,4.04C164.68,231.64,164.18,229.21,163.64,226.82z"/>
	<path class="st7" d="M90.12,235.11c-0.33-0.82,0.75-2.79-1.48-2.04c-1.16,0.39-2.37,1.4-2.45-0.7c-0.06-1.58,1.14-2.39,2.75-2.23
		c1.61,0.16,3.69,2.12,4.27-1.23c1.39,0,2.14-0.64,2.08-2.08c0-0.35-0.01-0.7-0.01-1.05c0.68-0.05,1.36-0.09,2.05-0.14
		c0.03,0.42,0.06,0.84,0.09,1.27c-0.04,0.67-0.07,1.34-0.11,2.01c-0.97,0.41-1.66,1.08-2.03,2.07c-1.19,2.53,0.66,2.02,2.01,2.01
		c5.18,0.79,0.66,2,0.22,2.85c1.82,2.32,4.93,1.77,7.06,3.39c-0.35,0.35-0.69,0.69-1.04,1.04c-1.11-0.47-2.1-0.72-2.03,1.06
		c-0.86,0.03-1.64,0.23-2.1,1.06c-0.69-0.01-1.37-0.01-2.06-0.02C94.98,239.91,95.16,234.9,90.12,235.11z"/>
	<path class="st6" d="M163.65,188.51c1-0.08,2.25,0.16,2.76-0.92c0.84-1.78,0.59-5.68,3.84-1.44c0.25,0.33,3.55-0.36,3.74-2.82
		c1.38-0.01,2.75-0.02,4.13-0.03c-0.22,2.14,1,5.14-3.4,4.33c-2.78-0.51-3.44,0.91-1.51,3.19c0.98,1.16,1.17,2.49-0.1,3.62
		c-1.56,1.39-3.59,0.35-5.37,0.81c-0.49,0.13-2.03-1.84-1.99-1.89c3.71-4.26-1.09-2.14-2.09-2.81c-0.01-0.33-0.03-0.66-0.06-1
		C163.61,189.21,163.63,188.86,163.65,188.51z"/>
	<path class="st5" d="M149.12,198.81c-2.91,1.57-4.21,4.04-4.12,7.3c-1.03,0-2.07,0.01-3.1,0.01c-0.89-4.48,2.01-7.92,3.2-11.83
		c0.47-1.55,1.63-2.08,2.56-0.93c1.88,2.31,3.75,0.26,5.59,0.38c0.05,0.82,0.24,1.57,1.03,2.02c0.05,0.68,0.1,1.37,0.14,2.05
		c-0.48,0.85-1.28,1.07-2.17,1.12c-0.17-1.03-0.37-2.07-1.77-1.94C149.42,197.09,149.29,197.99,149.12,198.81z"/>
	<path class="st6" d="M90.12,235.11c5.04-0.21,4.86,4.8,7.24,7.25c-0.35,0.35-0.69,0.69-1.04,1.04c-0.34,0.34-0.69,0.67-1.03,1.01
		c-0.02,0.86-0.21,1.64-1.03,2.11c-2.07-0.12-2.11-1.6-2.08-3.12c-0.21-1.31-0.42-2.6-2.07-1.04c-0.69-0.35-1.38-0.69-2.07-1.04
		c0-0.35,0-0.7,0-1.06c0.01-0.34,0.03-0.69,0.06-1.03c0.52-0.27,1.42-0.48,1.48-0.84c0.2-1.1-0.81-1.07-1.55-1.22l-0.05,0.05
		C88.07,235.91,88.74,235.15,90.12,235.11z"/>
	<path class="st5" d="M188.5,150.18c0.67,1.3,1.18,2.64,1.04,4.14c0.33,0.71,0.67,1.42,1,2.14c-1.31,0.51-1.94,1.49-2.04,2.86
		c0.34,1.1,0.68,2.2,1.02,3.29c0,0,0.02-0.02,0.02-0.02c-1.03-0.33-2.06-0.66-3.09-0.99c0,0-0.05-0.06-0.05-0.06
		c0.15-4.05,0.84-8.34-4.94-9.32c-0.54-0.09-0.9-1.27-1.35-1.94c0.91-0.12,1.79-0.29,2.27-1.22
		C184.42,149.43,186.46,149.81,188.5,150.18z"/>
	<path class="st9" d="M248.56,110.83c-0.32,0.01-0.64,0.01-0.96,0.01c-0.37,0-0.73-0.01-1.1-0.01c0,0,0,0,0,0
		c-0.85-4.06-4.26-2.43-6.93-3.03c6.3-0.93,12.33-2.01,18.33-3.2c0.18,3.69-3.26,1.76-4.73,2.98c-0.86,0.71-3.61-0.84-2.52,2.2
		C249.79,109.81,249.01,110,248.56,110.83z"/>
	<path class="st6" d="M206.1,107.72c-1.33-1.22-3.07-0.01-4.23-0.52c-1.73-0.75-3.62-2.16-1.96-4.67c3.98-2.21,6.45-0.82,7.78,3.27
		C208.18,107.3,207.19,107.55,206.1,107.72z"/>
	<path class="st6" d="M177.15,178.18c1.05-1.7,0.75-4.73,4.1-4.17c1.25,0.76,3.24-1.66,3.89,0.61c0.45,1.56-1.21,2.21-2.59,2.61
		c-0.99,0.28-1.19,1.12-1.3,2c-1.03-0.01-2.07-0.02-3.1-0.04C177.81,178.85,177.48,178.51,177.15,178.18z"/>
	<path class="st6" d="M131.53,247.53c-2.89,8.23-6.13,0.18-9.2,0.01C125.4,247.54,128.47,247.54,131.53,247.53
		C131.54,247.54,131.53,247.53,131.53,247.53z"/>
	<path class="st5" d="M124.3,235.14c1.73,0.26,3.43-2.32,5.18-0.04c-0.01,0.7-0.01,1.39-0.02,2.09l0,0
		c-1.87-0.4-2.84,0.89-3.71,2.25C124.43,238.12,124.23,236.67,124.3,235.14z"/>
	<path class="st1" d="M177.15,178.18c0.33,0.33,0.66,0.67,0.99,1c-0.03,0.34-0.06,0.67-0.11,1c-0.5,0.29-1.36,0.5-1.44,0.88
		c-0.22,1.06,0.78,1.08,1.5,1.26c0.01,0.33,0.02,0.65,0.03,0.98c-1.38,0.01-2.75,0.02-4.13,0.03c0,0,0,0,0,0
		c-0.01-1.06-0.03-2.11-0.04-3.17C175.02,179.5,176.08,178.84,177.15,178.18z"/>
	<path class="st1" d="M105.66,241.45c-0.02,0.3-0.03,0.59-0.03,0.89c0.12,2.02,0.16,4.01-2.32,4.74c-1.4,0.41-1.64-0.56-1.81-1.58
		c2.18-0.07,2.03-1.66,2.07-3.14c0.34-0.26,0.69-0.51,1.03-0.77C104.95,241.54,105.3,241.49,105.66,241.45z"/>
	<path class="st6" d="M186.45,161.6c1.03,0.33,2.06,0.66,3.09,0.99c-0.01,0.68-0.03,1.36-0.04,2.04c-1.06,0.49-2.15,1.57-3.31,0.65
		C184.67,164.08,185.97,162.81,186.45,161.6z"/>
	<path class="st7" d="M154.43,197.8c-0.05-0.68-0.1-1.37-0.14-2.05c2.46,0.4,5.18-0.95,7.37,1.14c-0.36,0.66-0.72,1.32-1.08,1.98
		c-0.36,0-0.71,0-1.07-0.01c-0.46-2.35-1.61-2.56-3.3-1.06C155.61,197.8,155.02,197.8,154.43,197.8z"/>
	<path class="st6" d="M159.46,183.28c1.94,1.4-0.28,2.78-0.03,4.17c-0.67,0-1.34,0.01-2.01,0.01c0.34-1.38-1.85-2.77,0.02-4.15
		C158.11,183.31,158.78,183.29,159.46,183.28z"/>
	<path class="st5" d="M211.31,129.43c-2.12-0.06-4.33-0.07-2.12-3.1C211.24,126.45,213.46,126.44,211.31,129.43z"/>
	<path class="st9" d="M264.97,106.01c-0.89,2.85-2.42,2.93-4.7,2.22C261.34,106.15,262.98,106.3,264.97,106.01z"/>
	<path class="st6" d="M121.18,239.25c3.81,0.95-0.07,3.49,1.03,5c-0.69,0.03-1.37,0.06-2.06,0.09
		C120.49,242.64,120.84,240.95,121.18,239.25L121.18,239.25z"/>
	<path class="st5" d="M163.68,200.95c1.24,0.09,2.76,0.51,2.55,1.8c-0.36,2.15-2.41,0.97-3.73,1.26
		C162.89,202.99,163.28,201.97,163.68,200.95z"/>
	<path class="st7" d="M163.68,200.95c-0.39,1.02-0.79,2.04-1.18,3.06c-0.33-0.01-0.65-0.01-0.98-0.02
		c-1.41-1.13-0.82-2.73-0.96-4.15c1.03-0.01,2.06-0.02,3.08-0.03C163.65,200.19,163.66,200.57,163.68,200.95z"/>
	<path class="st5" d="M210.25,120.15c0.35-0.34,0.69-0.67,1.04-1.01c0.69,0.66,1.37,1.31,2.06,1.97c-0.14,0.81-0.15,1.89-1.31,1.72
		C210.63,122.6,210.35,121.38,210.25,120.15z"/>
	<path class="st7" d="M212.49,116.71c0.04-1.59,0.84-2.84,2.42-2.57c2.06,0.36,0.06,1.94,0.51,2.88
		C214.49,116.48,213.53,116.24,212.49,116.71z"/>
	<path class="st10" d="M163.64,199.81c-1.03,0.01-2.06,0.02-3.08,0.03c0.01-0.32,0.02-0.65,0.02-0.97c0.36-0.66,0.72-1.32,1.08-1.98
		c0.6,0.35,1.2,0.69,1.79,1.04c0.08,0.31,0.14,0.63,0.17,0.96C163.62,199.19,163.62,199.5,163.64,199.81z"/>
	<path class="st5" d="M131.53,237.18c0.05,1.53,0,3-2.07,3.14c0-1.04,0-2.09,0-3.14c0,0,0,0,0,0
		C130.15,237.18,130.84,237.18,131.53,237.18z"/>
	<path class="st1" d="M99.41,242.37c0.46-0.83,1.23-1.03,2.1-1.06c0.33,0.02,0.66,0.04,0.99,0.06c0.01,0.33,0.02,0.65,0.03,0.98
		c-0.37,0.67-0.73,1.34-1.1,2.02C100.76,243.7,100.09,243.04,99.41,242.37z"/>
	<path class="st5" d="M129.44,241.34c0.01,0.69,0.02,1.37,0.03,2.06c-0.96-0.23-2.66,0.51-2.51-1.25
		C127.05,241.08,128.52,241.4,129.44,241.34z"/>
	<path class="st6" d="M143.29,241.29c0.48,0.33,1.09,0.52,1.17,0.84c0.22,0.88-0.5,1.13-1.16,1.03c-0.35-0.05-0.86-0.54-0.87-0.85
		C142.41,242.02,142.94,241.69,143.29,241.29z"/>
	<path class="st10" d="M101.43,244.37c0.37-0.67,0.73-1.34,1.1-2.02c0.35,0,0.69,0,1.04,0c-0.04,1.48,0.11,3.08-2.07,3.14
		C101.48,245.12,101.46,244.75,101.43,244.37z"/>
	<path class="st5" d="M208.16,125.3c-2.75-0.23-1.59-1.75-1.02-3.08C209.92,122.44,207.83,124.27,208.16,125.3z"/>
	<path class="st10" d="M178.03,180.18c0.05-0.33,0.09-0.67,0.11-1c1.03,0.01,2.07,0.02,3.1,0.04c-0.14,2.04-1.59,2.09-3.1,2.03
		C178.11,180.89,178.07,180.54,178.03,180.18z"/>
	<path class="st8" d="M188.5,159.31c0.1-1.37,0.73-2.36,2.04-2.86c-0.04,0.96-0.08,1.92-0.11,2.88
		C189.78,159.33,189.14,159.32,188.5,159.31z"/>
	<path class="st6" d="M188.5,159.31c0.64,0.01,1.29,0.01,1.93,0.02c0.38,0.38,0.77,0.77,1.15,1.16c-0.35,0.7-0.7,1.41-1.06,2.11
		c-0.33,0-0.67,0-1,0.01C189.18,161.51,188.84,160.41,188.5,159.31z"/>
	<path class="st10" d="M120.15,244.34c0.69-0.03,1.37-0.06,2.06-0.09c0.01,2.17-1.47,2.3-3.08,2.24c-0.02-0.35-0.04-0.69-0.06-1.04
		C119.44,245.09,119.79,244.71,120.15,244.34z"/>
	<path class="st7" d="M213.35,121.1c-0.69-0.66-1.37-1.31-2.06-1.97c0.34-0.35,0.67-0.69,1.01-1.04
		C215.06,118.25,212.98,120.11,213.35,121.1z"/>
	<path class="st6" d="M178.03,180.18c0.04,0.35,0.08,0.71,0.11,1.06c-0.02,0.36-0.04,0.71-0.06,1.07c-0.72-0.18-1.72-0.2-1.5-1.26
		C176.67,180.68,177.53,180.47,178.03,180.18z"/>
	<path class="st7" d="M163.62,198.88c-0.03-0.32-0.08-0.64-0.17-0.96c0.63-0.93,1.44-1.23,3.1-0.72
		C165.27,197.94,164.45,198.41,163.62,198.88z"/>
	<path class="st3" d="M149.16,235.12c0-0.7-0.01-1.39-0.01-2.09c0.74,0.16,1.76,0.16,1.53,1.26
		C150.6,234.66,149.69,234.85,149.16,235.12z"/>
	<path class="st5" d="M190.52,162.6c0.35-0.7,0.7-1.4,1.06-2.11C193.19,162.18,191.88,162.4,190.52,162.6z"/>
	<path class="st5" d="M163.59,189.57c0.03,0.33,0.05,0.66,0.06,1c-0.57,0.79-1.22,0.6-1.38-0.16
		C162.06,189.39,163.03,189.67,163.59,189.57z"/>
	<path class="st3" d="M248.56,110.83c0.46-0.83,1.23-1.02,2.09-1.04c0,0.33,0,0.67,0.01,1C249.96,110.8,249.26,110.82,248.56,110.83
		z"/>
	<path class="st7" d="M95.29,244.41c0.34-0.34,0.69-0.67,1.03-1.01C95.97,243.73,95.63,244.07,95.29,244.41z"/>
	<path class="st8" d="M81.82,181.24c0.06-2.28,0.71-4.32,2.06-6.21c0.94-1.32,0.8-1.39-1.42-1.83c-0.42-0.08-1.02-0.35-1.13-0.67
		c-0.12-0.35,0.11-1.15,0.38-1.26c3.66-1.44,3.42-4.9,4.16-7.85c0.04-1.65,5.54-9.19,7.33-12.21c1.39-2.41,8.88-11.93,9.34-15.47
		c1.15-0.65,11.46-16.56,13.51-19.65c2.07-2.79,4.15-5.58,6.22-8.37c2.86-2.76,16.75-22.87,17.62-26.73
		c0.66-0.77,1.31-1.54,1.97-2.3c1.09,1.06,2.2,2.09,3.25,3.18c1.07,1.11,1.92,1.16,2.84-0.21c5.22-7.7,11.02-14.93,17.42-21.7
		c1.28-1.36,2.63-2.11,4.47-1.96c-0.23,3.56-1.15,7.03-4.22,9c-5.65,3.62-9.94,8.37-12.01,14.63c-1.32,3.97-3.52,6.94-6.55,9.49
		c-0.8,0.67-1.55,1.24-1.96,2.28c-1.76,4.44-4.93,7.85-8.31,11.11c-3.92,3.78-8.24,7.25-9.76,12.92
		c-1.97,7.35-8.2,12.13-11.78,18.67c-3.61,6.6-10.01,11.78-12.64,19.44c-0.9,2.61-2.52,5.33-5.95,5.83c-1.19,0.17-2.5,0.5-1.89,2.3
		c0.71,2.09-0.82,2.88-2.28,3.38c-3.15,1.08-4.06,3.77-4.32,6.47C87.78,177.71,85.31,179.8,81.82,181.24z"/>
	<path class="st2" d="M157.43,103.57c0.68-5.24,4.02-9.21,7.44-12.58c2.3-2.27,3.12-4.23,2.92-7.09c4.53-4.04,7.81-9.11,11.35-13.95
		c4.47-6.11,6.18-13.53,9.36-20.25c0.34,0,0.67-0.01,1.01-0.01c6.86,3.01,0.96,7.5-0.19,9.02c-7.58,10-12.53,21.67-20.41,31.45
		c-2.73,3.39-6.21,6.35-7.48,10.87C160.96,102.7,159.51,103.91,157.43,103.57z"/>
	<path class="st7" d="M174,113.97c0.01,0.32,0,0.64-0.01,0.96c-1.32,0.09-2.04,0.76-2.05,2.11c-0.34,0.01-0.68,0.02-1.02,0.02
		c-0.35-0.01-0.7-0.02-1.05-0.03c0.01-0.71,0.01-1.42,0.02-2.13c-0.03-0.31-0.04-0.63-0.03-0.94c0.67-0.03,1.34-0.06,2.01-0.09
		C172.57,113.91,173.28,113.94,174,113.97z"/>
	<path class="st10" d="M171.86,113.88c-0.67,0.03-1.34,0.06-2.01,0.09c0.35-1.08,0.69-2.16,1.04-3.23c0.4,0.36,0.79,0.73,1.18,1.09
		C172,112.51,171.93,113.19,171.86,113.88z"/>
	<path class="st2" d="M237.77,66.01c-0.12,0.28-0.24,0.56-0.36,0.85c-0.28-0.12-0.72-0.18-0.8-0.38c-0.08-0.2,0.2-0.55,0.32-0.83
		C237.2,65.76,237.49,65.88,237.77,66.01z"/>
	<path class="st10" d="M169.89,114.9c-0.01,0.71-0.01,1.42-0.02,2.13c-0.69,0-1.39-0.01-2.08-0.01c0-0.34,0-0.68,0.01-1.02
		C168.49,115.64,169.19,115.27,169.89,114.9z"/>
	<path class="st10" d="M81.82,181.24c3.5-1.44,5.97-3.54,6.38-7.72c0.26-2.7,1.16-5.39,4.32-6.47c1.45-0.5,2.98-1.28,2.28-3.38
		c-0.61-1.79,0.7-2.12,1.89-2.3c3.43-0.5,5.05-3.22,5.95-5.83c2.63-7.67,9.03-12.84,12.64-19.44c3.57-6.54,9.81-11.32,11.78-18.67
		c1.52-5.67,5.84-9.13,9.76-12.92c3.38-3.26,6.55-6.66,8.31-11.11c0.41-1.04,1.16-1.61,1.96-2.28c3.04-2.55,5.24-5.52,6.55-9.49
		c2.07-6.25,6.36-11,12.01-14.63c3.07-1.97,3.99-5.44,4.22-9c0.35-0.35,0.69-0.69,1.04-1.04c1.39,0.01,2.78,0.02,4.16,0.02
		c0.24,5.55-1.81,10.45-4.51,15.08c-2.15,3.7-3.23,7.55-2.78,11.81c-1.2,0.04-2.91-0.18-3.27,1.01c-1.56,5.12-6.62,7.72-8.64,12.45
		c-0.2,0.47-0.33,1.11-0.7,1.36c-5,3.44-6.86,9.1-10.04,13.84c-3.08,4.59-6.12,9.23-9.12,13.84c-4.62,7.09-11.04,13.05-18.01,18.33
		c-4.31,3.26-9.22,7.65-9.58,13.2c-0.39,6.06-2.23,9.96-6,14.86c-4.2,5.45-7.85,12.37-9.36,19.71c-0.1,0.47-0.38,1.18-0.74,1.29
		c-7.82,2.58-10.3,10.65-14.98,16.03c-5.33,6.12-12.46,11.73-13.99,21.23c-0.89,5.51-4.04,11.43-11.37,12.19
		c-1.24,0.13-2.41,0.32-3.27-0.85c6.5-2.44,9.1-7.88,10.77-14.04c0.35-1.28-0.67-1.31-1.48-1.51c0.01-0.69,0.01-1.38,0.02-2.07
		c1.95-0.1,2.69-1.62,2.89-3.09c0.27-1.98,1.1-3.03,3-3.55c1.79-0.49,2.29-2.32,3.37-3.58c3.67-4.26,4.31-9.92,7.31-14.6
		C78.12,194.36,81.4,188.24,81.82,181.24L81.82,181.24z"/>
	<path class="st8" d="M175.06,56.98c-1.39-0.01-2.78-0.02-4.16-0.02c1.3-2.67,4.13-4.76,3.11-8.29c2.24-0.1,3.99,0.45,4.16,3.11
		c-1.37,1.05-1.94,2.5-2.07,4.17C175.75,56.3,175.4,56.64,175.06,56.98z"/>
	<path class="st10" d="M176.09,55.95c0.12-1.67,0.7-3.11,2.07-4.17C180.16,54.51,179.32,55.82,176.09,55.95z"/>
	<path class="st2" d="M174.02,252.7c-1.37-0.03-2.1-0.69-2.06-2.1C173.29,250.67,173.98,251.36,174.02,252.7z"/>
	<path class="st6" d="M164.66,122.23c0.58-1.38,1.6-2.11,3.12-2.09c0,0,0.07,0.03,0.07,0.03c1.14,1.78-0.52,3.52-0.07,5.29
		c0,0.65,0,1.3,0,1.95c-1.29,0.14-2.54,0.34-3.41,1.89c1.25,0.06,2.34,0.12,3.42,0.17l-0.01,0c0,0.69,0,1.38,0,2.07
		c-1.71,1.11-0.42,4.46-2.48,4.59c-5.76,0.35-4.82,4.26-4.8,7.84c-0.33,0.33-0.67,0.67-1,1c-2.01,0.09-3.01,1.17-3.11,3.14
		c0,0,0,0,0,0c-1.87,0.8-2.18,2.37-2.08,4.15c0,0,0.01-0.02,0.01-0.02c-1.53,0.85-3.27,2.74-4.68,0.36
		c-1.19-2.01-0.96-4.27,1.61-5.53c0.58-0.35,1.17-0.71,1.75-1.06c1.61,1.11,1.18-0.33,1.32-1.05c-0.34-0.33-0.68-0.65-1.03-0.98
		c-0.44-1.84,1.19-4.51-2.1-5.2c1.11-2.69,6.73-3.71,3.04-8.18c1.02-2.57,2.41-4.06,4.96-1.51c1.15,1.15,1.2,0.23,1.35-0.63
		c2.15-0.09,2.06-1.66,2.08-3.16l-0.02,0.03C164.61,125.18,164.78,123.8,164.66,122.23z M160.14,138.76
		c-3.97,0.84-5.28,1.89-3.88,4.66C156.48,141.67,158.11,140.82,160.14,138.76z"/>
	<path class="st7" d="M111.73,213.34c-3.51,0.63-6.77-1.18-10.23-1.02c-0.9-3.71,1.92-5.3,4.13-7.23c0.75,1.25-1.63,3.25,0.56,3.86
		c1.52,0.42,1.8-1.68,2.54-2.73c1.32-0.75,1.03-2.06,1.11-3.23c2.01-0.37,2.84-2.86,5.93-2.98c-4.64,4.23,0.8,8.3-0.84,12.38
		c-0.68-0.06-1.36-0.11-2.04-0.17c-0.21-0.4-0.41-0.81-0.62-1.21c-0.13,0.46-0.26,0.92-0.4,1.38
		C111.88,212.71,111.82,213.03,111.73,213.34z"/>
	<path class="st5" d="M132.58,163.63c3.04,0.6,2,4.36,4.38,5.35c-3.87,3.04-9.69,1.52-12.65,6.09
		C123.99,169.04,127.75,165.94,132.58,163.63z"/>
	<path class="st3" d="M151.2,138.78c3.3,0.68,1.67,3.36,2.1,5.2c-1.37,0.01-2.05,0.71-2.1,2.06c-0.63-0.03-1.26-0.05-1.9-0.08
		c-0.96-1.67-3.4-0.27-4.29-2.07c0.31-0.31,0.62-0.63,0.93-0.94c2.43,0.14,3.64-0.56,2.16-3.13c0-0.31,0-0.61,0-0.92
		C149.13,138.86,150.17,138.82,151.2,138.78z"/>
	<path class="st7" d="M96.29,220.59c1.97,0.03,3.91-0.18,5.26,1.95c0.59,0.93,0.81-0.28,0.96-0.8c0.7-0.02,1.4-0.04,2.1-0.06
		c0.23,3.13-1.06,5.23-4.12,6.17c-0.03-0.32-0.06-0.64-0.1-0.96c0.08-2.05-1.06-2.98-2.95-3.23c-0.46-0.81-1.18-0.94-2.02-0.78
		C94.2,222.32,94.2,222.32,96.29,220.59z"/>
	<path class="st10" d="M151.2,138.78c-1.03,0.04-2.06,0.08-3.1,0.12c0.18-4.14,3.39-6.05,6.13-8.31
		C157.93,135.07,152.31,136.09,151.2,138.78z"/>
	<path class="st6" d="M160.46,127.33c-1.09-0.47-2.17-0.93-3.91-1.67c3.64-1.26,3.76-5.1,6.18-7.09c1.34,1.25,0.74,2.51,0.89,3.63
		c-1.15,0.78-1.05,1.97-1.03,3.13c0,0,0.02-0.03,0.02-0.02C161.29,125.33,160.63,126.07,160.46,127.33z"/>
	<path class="st10" d="M118.07,187.46c-0.69,0.04-1.38,0.09-2.07,0.13c0.25-2.83,0.44-5.69,4.1-6.3c-0.11,1.51,1.32,1.78,2.16,2.6
		c-1.31,1.04-4.14-0.51-4.14,2.51C118.11,186.75,118.09,187.1,118.07,187.46z"/>
	<path class="st8" d="M145.02,143.89c0.9,1.8,3.34,0.4,4.29,2.07c-0.49,0.85-1.28,1.08-2.19,1.06c-1.06,0-2.12,0.01-3.17,0.01
		c-0.66-0.11-1.59-0.17-1.5-0.97C142.6,144.68,144.1,144.57,145.02,143.89z"/>
	<path class="st7" d="M88.03,240.27c0,0.35,0,0.7,0,1.06c-0.34,1.03-0.68,2.07-1.03,3.1l-0.01,0.01c-0.69,0-1.37-0.01-2.06-0.01
		c-0.45-0.82-1.23-1-2.07-1.04c0,0,0.01,0.01,0.01,0.01c1-1.1,2.84-1.36,3.14-3.15C86.68,240.25,87.36,240.26,88.03,240.27z"/>
	<path class="st6" d="M108.74,206.22c-0.75,1.05-1.02,3.15-2.54,2.73c-2.2-0.61,0.19-2.61-0.56-3.86
		C106.79,205.13,108.05,204.91,108.74,206.22z"/>
	<path class="st3" d="M167.79,117.03c0.69,0,1.39,0.01,2.08,0.01c0.35,0.01,0.7,0.02,1.05,0.03c-0.13,1.91-1.11,2.99-3.06,3.1
		c0,0-0.07-0.02-0.07-0.03C167.79,119.1,167.79,118.06,167.79,117.03z"/>
	<path class="st10" d="M148.11,139.83c1.49,2.56,0.28,3.27-2.16,3.13C146.01,141.46,145.99,139.91,148.11,139.83z"/>
	<path class="st10" d="M88.03,240.27c-0.67-0.01-1.35-0.02-2.02-0.03c-0.05-1.46-0.12-2.93,1.96-3c0,0,0.05-0.05,0.05-0.05
		c0.02,0.68,0.05,1.37,0.07,2.05C88.06,239.58,88.04,239.92,88.03,240.27z"/>
	<path class="st5" d="M160.46,127.33c0.16-1.27,0.82-2,2.15-2.03c-0.01,1.5,0.07,3.06-2.08,3.16
		C160.52,128.09,160.49,127.71,160.46,127.33z"/>
	<path class="st5" d="M162.6,125.33c-0.02-1.16-0.12-2.36,1.03-3.13c0.34,0,0.69,0.01,1.03,0.02
		C164.78,123.8,164.61,125.18,162.6,125.33z"/>
	<path class="st10" d="M95.43,222.87c0.84-0.16,1.56-0.03,2.02,0.78c-0.04,0.65-0.07,1.31-0.11,1.96c-0.68,0.05-1.36,0.09-2.05,0.14
		C95.33,224.79,95.38,223.83,95.43,222.87z"/>
	<path class="st10" d="M95.3,226.81c0.06,1.45-0.7,2.08-2.08,2.08C93.25,227.54,93.92,226.82,95.3,226.81z"/>
	<path class="st3" d="M83.33,237.11c-0.24-0.17-0.48-0.33-0.71-0.49c0.26-0.13,0.53-0.37,0.78-0.36c0.25,0.01,0.48,0.28,0.72,0.44
		C83.86,236.84,83.6,236.97,83.33,237.11z"/>
	<path class="st7" d="M99.43,217.51c-0.48,0.84-1.26,1.01-2.14,1C97.78,217.71,98.56,217.51,99.43,217.51z"/>
	<path class="st2" d="M42.58,248.57c-0.71-1.06-1.41-2.12-2.12-3.18c1.92-1.71,2.69,0.25,3.42,1.28
		C44.78,247.93,43.65,248.36,42.58,248.57z"/>
	<path class="st10" d="M43.5,243.39c0.21-1.31,0.44-2.59,2.08-1.02C45.12,243.19,44.35,243.38,43.5,243.39z"/>
	<path class="st7" d="M90.1,242.36c1.65-1.56,1.86-0.27,2.07,1.04C91.32,243.38,90.55,243.19,90.1,242.36z"/>
	<path class="st2" d="M82.86,243.38c0.85,0.04,1.62,0.22,2.07,1.04C83.29,245.98,83.07,244.7,82.86,243.38z"/>
	<path class="st7" d="M87.01,244.42c0.14,0.08,0.28,0.16,0.42,0.24c-0.15-0.07-0.29-0.15-0.44-0.22
		C86.99,244.44,87.01,244.42,87.01,244.42z"/>
	<path class="st3" d="M246.49,110.83c0.37,0,0.73,0.01,1.1,0.01"/>
	<path class="st8" d="M81.81,181.25c-0.41,7-3.7,13.12-7.26,18.67c-3,4.68-3.63,10.34-7.31,14.6c-1.08,1.25-1.58,3.08-3.37,3.58
		c-1.9,0.52-2.73,1.58-3,3.55c-0.2,1.47-0.94,2.99-2.89,3.09c-1.56-4.67,0.99-9.08,3.06-12.13c4.83-7.1,7.87-15.2,13.19-21.98
		C76.72,187.47,79.09,184.22,81.81,181.25z"/>
	<path class="st5" d="M160.51,143.97c-0.02-3.58-0.95-7.49,4.8-7.84c2.06-0.12,0.76-3.48,2.48-4.59c0.67,0.01,1.35,0.02,2.02,0.03
		c0.02,0.68,0.04,1.36,0.06,2.04c-0.08,0.14-0.16,0.28-0.24,0.43c0.08-0.14,0.16-0.29,0.24-0.43l0.47-0.02l0.47,0.01
		c1.74,0,3.49,0,5.23-0.01c0.32,0.63,0.67,0.81,1.05,0.05c0.36-0.01,0.72-0.02,1.08-0.03l0.07-0.04c-0.06,2.18,1.51,2.09,2.98,2.14
		c0.71,1.05,1.42,1.09,2.12-0.02c4.56,2.65-0.52,2.83-1.07,4.17c-0.3,0-0.59,0.01-0.89,0.04c-3.44-2.86-5.37-0.28-7.37,2.04
		c-1.06-0.02-2.12-0.03-3.17-0.05c-0.3,0.01-0.6,0.02-0.9,0.03c-1.13-1.39-2.24-1.2-3.35,0.03c-0.58,0-1.16,0-1.74-0.01
		c-0.49-0.7-1.19-1.29-1.99-0.89c-1.51,0.76,0.08,1.95-0.24,2.92C161.89,143.97,161.2,143.97,160.51,143.97z"/>
	<path class="st5" d="M199.99,135.78c-2.66,4.51-3.59,10.61-10.43,11.25c0.67-1.03,2.2-1.48,2.05-3.06c1.66-0.78,2.3-2.41,3.34-3.82
		c-2.87-0.92-3.4,0.65-3.34,2.87c-0.69-0.03-1.39-0.06-2.08-0.09c-0.11-1.49,1.18-2.74,0.46-4.42c-1.56-3.64,0.34-5.66,3.6-6.87
		c0.7-0.04,1.41-0.07,2.11-0.11c0,0,0.19-0.04,0.19-0.04c0.62,1.34,0.85,3.04,2.87,3.06C199.18,134.97,199.58,135.37,199.99,135.78z
		"/>
	<path class="st2" d="M188.51,114.9c-0.01,0.37-0.01,0.73-0.02,1.1c-0.67,0.01-1.33,0.03-2,0.04c-0.36-0.37-0.73-0.73-1.09-1.1
		c0.03-2.71,0.19-5.57-5.39-2.17c2.61-3.15,4.62-5.05,1.91-7.8c2.55,0.51,5.09,1.04,7.64,1.53c1.48,0.29,3.23,0.18,3.8,2.01
		c0.8,2.57-2.35,1.98-2.93,3.49c-0.23-0.05-0.47-0.09-0.71-0.11c-0.97,0.06-2.28-0.42-2.7,0.74c-0.44,1.2,0.87,1.12,1.6,1.39
		C188.6,114.32,188.57,114.61,188.51,114.9z"/>
	<path class="st5" d="M167.85,120.16c1.96-0.11,2.93-1.19,3.06-3.1c0.34,0,0.68,0,1.02-0.02c0.33,0,0.67,0.01,1,0.01
		c0.33,0.03,0.67,0.04,1,0.04c0.19,2,1.67,2.01,3.14,2.04c0,1.71,0,3.43,0,5.14c-1.21,0.76-0.95,2.01-1.04,3.14
		c-0.33-0.02-0.65-0.02-0.98,0.01c-2.14-1.73-4.59-2.29-7.29-1.96C167.33,123.68,168.99,121.94,167.85,120.16z"/>
	<path class="st3" d="M148.05,227.9c-2.05-0.21-2.01-1.68-1.95-3.18c0.52-0.27,1.42-0.46,1.49-0.81c0.2-1.1-0.8-1.08-1.55-1.22
		c-1.59-2.15-4.64,0.09-6.22-2.07c1.39-0.58,2.08-1.63,2.07-3.14c0-0.34,0-0.67,0-1.01c2.17,0.12,4.5-0.48,6.31,1.4
		c-0.79,1.4-2.74-0.07-3.45,1.43C152.74,223.25,153.14,224.31,148.05,227.9z"/>
	<path class="st2" d="M160.51,143.97c0.69,0,1.39,0,2.08,0c0.33-0.01,0.65-0.03,0.98-0.06c1.1,1.37,2.19,1.32,3.28-0.02
		c0.63,0,1.26,0.01,1.89,0.01c0.03,0.37,0.05,0.73,0.08,1.1c-0.11,4.06-3.68,4.8-6.31,6.06c-2.71,1.3-2.33-1.72-3.1-3.05
		c0.03-1.02,0.06-2.03,0.09-3.05C159.84,144.63,160.17,144.3,160.51,143.97z"/>
	<path class="st5" d="M153.29,176.07c0.35-4.15,0.7-8.29,1.04-12.44l-0.02,0.02c2.06-0.13,3.28,0.66,3.08,2.9
		c-0.29,3.39,0.6,5.42,5.54,3.1c-1.99,3.05-3.99,1.93-5.52,2.32C154.38,171.67,156.38,176.44,153.29,176.07z"/>
	<path class="st7" d="M176.05,127.41c0.09-1.13-0.18-2.38,1.04-3.14c0.7,0.35,1.39,0.7,2.09,1.05l0,0c-0.1,1.59-1.36,3.56,0.7,4.57
		c1.58,0.77,1.03-1.87,2.72-2.05c1.19,2.46,1.44,5.08,0.72,7.84c-0.7,1.11-1.4,1.07-2.12,0.02c0-2.09-1.49-2.12-2.98-2.14
		c0,0-0.07,0.04-0.07,0.04c-0.01-0.69-0.01-1.38-0.02-2.07c-0.02-0.89-0.24-1.68-1.15-2.08c-0.23,0.02-0.46,0.04-0.69,0.07
		C176.28,128.81,176.89,128.02,176.05,127.41z"/>
	<path class="st7" d="M189.54,142.93c0.69,0.03,1.39,0.06,2.08,0.09c-0.01,0.32-0.01,0.64,0,0.95c0.15,1.58-1.38,2.03-2.05,3.06
		c-0.35,1.05-0.71,2.09-1.06,3.14c-2.04-0.37-4.08-0.74-6.13-1.11c0.03-0.67,0.05-1.35,0.08-2.02c0.28,0.02,0.56,0.04,0.84,0.05
		c0.89-0.31,2.07,1.03,2.62-0.15c0.31-0.66-0.81-0.81-1.46-0.91c-0.03-0.69-0.06-1.38-0.1-2.07c0.32-0.33,0.64-0.66,0.95-1
		c1.03-0.02,2.06-0.04,3.09-0.06C188.79,142.9,189.16,142.92,189.54,142.93z"/>
	<path class="st5" d="M147.12,147.03c0.91,0.02,1.7-0.22,2.19-1.06c0.63,0.03,1.27,0.05,1.9,0.08c0.02,0.34,0.04,0.69,0.05,1.03
		c-2.56,1.25-2.79,3.52-1.61,5.53c1.41,2.38,3.15,0.49,4.68-0.36c0.22,2.52-1.07,3.34-3.41,3.11c-1.83-0.18-3.61-0.1-4.87,1.93
		c0-0.99,0-1.97,0-2.96l-0.01,0.01C149.79,152.4,147.27,149.54,147.12,147.03z"/>
	<path class="st5" d="M140.83,189.54c2.48,0.4,3.37-1.37,4.26-3.13c1.01,0.35,2.01,0.7,3.02,1.05c0,0,0,0,0,0c0,1.03,0,2.07,0,3.1
		c-1.32,0.16-2.89-0.46-3.83,0.91c-0.65,0.95-0.87,2.61-2.48,1.8c-1.49-0.76-0.72-2.47-0.95-3.77L140.83,189.54z"/>
	<path class="st7" d="M171.13,167.86c-2.92-3.13,1.09-4.66,1.79-6.92c0.21-0.67,1.99,0,1.91,1.33c-0.1,1.51-0.54,3-0.83,4.5
		C173.04,167.14,172.09,167.5,171.13,167.86z"/>
	<path class="st10" d="M148.11,187.46c-1.01-0.35-2.01-0.7-3.02-1.05c-1.61-0.45-5.33,1.28-3.16-3.07
		C144.03,184.65,148.81,181.94,148.11,187.46z"/>
	<path class="st5" d="M152.23,199.91c1.25,0.61,2.49,1.21,4.55,2.22c-3.01,1.02-5.35,1.71-7.13-0.04c-1.17-1.16,0.25-1.97,1.54-2.2
		C151.54,199.89,151.88,199.9,152.23,199.91z"/>
	<path class="st7" d="M191.68,130.52c-0.4-0.02-0.81-0.04-1.21-0.05c0.08-0.91-0.18-1.69-0.96-2.23c-0.35-0.29-0.7-0.57-1.04-0.86
		c-0.01-1.01-0.02-2.03-0.03-3.04c0.02-0.38,0.04-0.75,0.06-1.13c1.34,0.06,3.13-0.35,2.15,2.09c-0.13,1.45,0.58,2.08,1.99,2.02
		c0.05,0.42,0.09,0.83,0.14,1.25C192.41,129.22,192.05,129.87,191.68,130.52z"/>
	<path class="st7" d="M189.54,118.96c-0.02,0.72-0.04,1.44-0.07,2.15c-0.34,0.36-0.68,0.71-1.02,1.07c-1.33,0.06-2.01,0.76-2.03,2.1
		c-0.35,0.34-0.7,0.69-1.05,1.03c-1.02-0.43-1.74-1.13-1.96-2.26c2.07-0.04,2.11-1.45,2-2.97c-0.01-0.3-0.02-0.6-0.03-0.9
		C186.77,119.12,188.15,119.04,189.54,118.96z"/>
	<path class="st2" d="M139.8,210.27c-2.48-0.01-1.69,5.51-4.29,3.43c-2.82-2.25,2.68-3.14,2.3-5.58c0.67,0.02,1.34,0.05,2.01,0.07
		C139.81,208.88,139.81,209.58,139.8,210.27z"/>
	<path class="st2" d="M125.32,198.86c-1.61,1.06-3.23,2.11-5.41,3.54c0.02-3.76,3.28-4.48,4.37-6.65c0.04,0.32,0.04,0.64,0.01,0.96
		C124.32,197.58,124.48,198.38,125.32,198.86z"/>
	<path class="st7" d="M153.29,176.07c3.1,0.36,1.1-4.4,4.13-4.1c0.01,1.03,0.01,2.06,0.02,3.09c-0.35,0.69-0.71,1.39-1.06,2.08
		c-0.37,0.31-0.73,0.62-1.1,0.93c-0.31,0.05-0.62,0.08-0.92,0.1C153.52,177.71,153.3,176.94,153.29,176.07z"/>
	<path class="st2" d="M174.03,146.09c-1.05-0.36-2.1-0.73-3.15-1.09c0.02-0.36,0.03-0.72,0.05-1.08c1.02-0.31,2.03-0.63,3.05-0.94
		c0.13,2.11,1.67,2.03,3.15,2.05c-0.01,0.31-0.02,0.62-0.02,0.94c-0.09,0.76,0.08,1.97-0.32,2.19c-0.71,0.4-0.72-0.57-0.86-1.1
		C175.59,146.16,174.83,146.08,174.03,146.09z"/>
	<path class="st10" d="M189.54,118.96c-1.39,0.08-2.77,0.15-4.16,0.23c-0.03-0.4-0.06-0.8-0.08-1.2c0.4-0.65,0.8-1.3,1.21-1.95
		c0.67-0.01,1.33-0.03,2-0.04c0.33,0.72,0.66,1.44,0.99,2.17C189.5,118.44,189.52,118.7,189.54,118.96z"/>
	<path class="st7" d="M181.25,165.71c1.42,1.15,0.74,2.23-0.47,2.6c-2.11,0.64-2.41-1.06-2.65-2.6
		C179.17,165.72,180.21,165.71,181.25,165.71z"/>
	<path class="st2" d="M118.07,187.46c0.02-0.35,0.03-0.71,0.05-1.06c1.16,0.25,3.08-0.37,2.49,1.96c-0.18,0.73-0.53,1.88-1.58,1.64
		C117.7,189.7,118.23,188.38,118.07,187.46z"/>
	<path class="st10" d="M152.03,157.84c-0.05,0.71-0.29,1.3-1.1,1.39c-0.72,0.08-1.35-0.11-1.53-0.9c-0.23-1.04,0.36-1.6,1.3-1.67
		C151.42,156.61,151.94,157.05,152.03,157.84z"/>
	<path class="st10" d="M185.38,125.32c0.35-0.34,0.7-0.69,1.05-1.03c0.67,0.02,1.35,0.04,2.02,0.05c0.01,1.01,0.02,2.03,0.03,3.04
		c-1.03-0.01-2.05-0.01-3.08-0.02c0.01-0.33,0.01-0.67-0.02-1C185.38,126.01,185.38,125.66,185.38,125.32z"/>
	<path class="st5" d="M145.02,207.18c1.12,0.11,2.06,0.47,1.8,1.84c-0.07,0.38-0.57,0.89-0.96,0.97c-1.39,0.3-1.72-0.66-1.83-1.77
		C144.36,207.87,144.69,207.52,145.02,207.18z"/>
	<path class="st10" d="M159.5,144.96c-0.03,1.02-0.06,2.03-0.09,3.05c-1.01,0.03-2.01,0.06-3.02,0.09
		C156.49,146.13,157.5,145.06,159.5,144.96z"/>
	<path class="st2" d="M154.32,152.25c-0.1-1.78,0.21-3.35,2.08-4.15C156.2,149.73,157.07,151.9,154.32,152.25z"/>
	<path class="st10" d="M182.45,147.04c-0.03,0.67-0.05,1.35-0.08,2.02c-0.48,0.92-1.36,1.1-2.27,1.21
		C178.39,147.39,181.43,147.94,182.45,147.04z"/>
	<path class="st1" d="M185.39,127.35c1.03,0.01,2.05,0.01,3.08,0.02c0.35,0.29,0.69,0.57,1.04,0.86c-0.38,0.4-0.77,0.8-1.15,1.2
		c-1.11,0-2.28,0.17-2.98-1.02C185.39,128.06,185.39,127.71,185.39,127.35z"/>
	<path class="st2" d="M152.23,199.91c-0.34-0.01-0.69-0.02-1.03-0.03c-0.44-0.85-1.24-0.99-2.07-1.07c0.18-0.83,0.31-1.73,1.38-1.83
		c1.39-0.13,1.59,0.91,1.77,1.94C152.25,199.25,152.24,199.58,152.23,199.91z"/>
	<path class="st3" d="M177.09,119.13c-1.47-0.03-2.95-0.04-3.14-2.04C175.48,117.02,177.01,116.96,177.09,119.13z"/>
	<path class="st5" d="M146.04,179.19c0.12-0.92-0.28-2.05,0.89-2.53c0.18-0.08,0.87,0.45,0.92,0.76c0.22,1.36-0.82,1.57-1.82,1.75
		C146.03,179.17,146.04,179.19,146.04,179.19z"/>
	<path class="st8" d="M177.12,145.96c0-0.31,0.01-0.62,0.02-0.94c0.68-0.68,1.35-1.36,2.03-2.04l-0.03-0.03
		C180.24,145.14,180.47,146.74,177.12,145.96z"/>
	<path class="st10" d="M170.94,143.92c-0.02,0.36-0.03,0.72-0.05,1.08c-0.69,0-1.38,0.01-2.06,0.01c-0.03-0.37-0.05-0.73-0.08-1.09
		c0.39-0.66,0.79-1.33,1.18-1.99c0.3-0.01,0.6-0.02,0.9-0.03C170.86,142.56,170.9,143.24,170.94,143.92z"/>
	<path class="st10" d="M156.2,197.8c1.69-1.5,2.84-1.3,3.3,1.06C158.29,198.86,157.02,199.05,156.2,197.8z"/>
	<path class="st10" d="M126.41,197.92c0.81,0.14,1.63,0.29,2.44,0.43c-0.11,0.42-0.11,1.09-0.37,1.21
		c-0.87,0.42-1.65,0.12-2.19-0.72C126.37,198.54,126.4,198.23,126.41,197.92z"/>
	<path class="st10" d="M111.73,213.34c0.1-0.31,0.15-0.63,0.16-0.95c0.34-0.05,0.68-0.1,1.02-0.17c0.68,0.06,1.36,0.11,2.04,0.17
		c-0.02,0.67-0.03,1.34-0.05,2.01c-1.05-0.01-2.09-0.01-3.14-0.02C111.75,214.03,111.74,213.68,111.73,213.34z"/>
	<path class="st7" d="M145.02,207.18c-0.33,0.35-0.66,0.69-0.99,1.04c-1.32-0.07-2.09-0.71-2.13-2.09c1.03,0,2.07-0.01,3.1-0.01
		C145.01,206.47,145.01,206.82,145.02,207.18z"/>
	<path class="st5" d="M119.09,209.19c0.93,0.09,2.01-0.23,2.58,0.84c0.1,0.18-0.07,0.7-0.26,0.82c-1.02,0.64-1.83,0.25-2.48-0.64
		C119.01,209.87,119.07,209.53,119.09,209.19z"/>
	<path class="st2" d="M141.86,214.32c0.01-0.67,0.02-1.33,0.03-2c1.51-0.02,3-0.01,3.1,2.07l0.01-0.01
		C143.96,214.37,142.91,214.34,141.86,214.32z"/>
	<path class="st7" d="M119.09,216.43c-0.36,0.73-0.65,1.68-1.72,1.28c-0.35-0.13-0.73-0.87-0.67-1.27c0.23-1.53,1.55-0.77,2.41-1
		C119.1,215.77,119.1,216.1,119.09,216.43z"/>
	<path class="st3" d="M146.01,232.03c-1.03-0.19-2.03-0.46-1.84-1.83c0.15-1.06,1.04-1.15,1.87-1.29
		C146.03,229.95,146.02,230.99,146.01,232.03z"/>
	<path class="st8" d="M191.68,130.52c0.37-0.65,0.73-1.3,1.1-1.95c0.26-0.05,0.52-0.09,0.78-0.11c-0.02,1.54,1.63,1.91,2.15,3.08
		c-0.7,0.03-1.41,0.07-2.11,0.11C192.81,131.52,192.05,131.35,191.68,130.52z"/>
	<path class="st8" d="M171.13,167.86c0.95-0.36,1.91-0.72,2.86-1.08C173.74,168.99,172.85,169.51,171.13,167.86z"/>
	<path class="st1" d="M186.5,116.04c-0.4,0.65-0.8,1.3-1.21,1.95c-1.22-1.06-1.15-2.08,0.11-3.05
		C185.77,115.31,186.13,115.68,186.5,116.04z"/>
	<path class="st8" d="M124.29,196.71c0.03-0.32,0.02-0.64-0.01-0.96c0.42-0.47,0.77-1.25,1.26-1.35c0.89-0.18,0.77,0.74,0.89,1.32
		c-0.08,0.32-0.14,0.64-0.16,0.96c0,0,0.05,0.05,0.05,0.05C125.65,196.73,124.97,196.72,124.29,196.71z"/>
	<path class="st10" d="M148.11,190.57c0-1.03,0-2.07,0-3.1c0.33,0.01,0.66,0.01,0.99,0C148.37,188.37,152.6,190.85,148.11,190.57z"
		/>
	<path class="st2" d="M146.05,154.32c-1.04-0.12-2.02-0.34-1.92-1.71c0.02-0.23,0.4-0.64,0.54-0.61c1.25,0.28,1.24,1.36,1.37,2.33
		C146.04,154.34,146.05,154.32,146.05,154.32z"/>
	<path class="st2" d="M128.74,184.64c-0.34,0.3-0.6,0.65-0.74,0.61c-0.62-0.19-1.37-0.34-1.77-0.78c-0.53-0.59,0.04-0.96,0.61-0.8
		C127.46,183.84,128.02,184.26,128.74,184.64z"/>
	<path class="st5" d="M182.35,142.02c-0.86,1.06-2.08,0.85-3.22,0.92c0,0,0.03,0.03,0.03,0.03c0.01-1.32,0.67-2.05,1.98-2.19
		C181.55,141.2,181.95,141.61,182.35,142.02z"/>
	<path class="st10" d="M188.41,142.89c-1.03,0.02-2.06,0.04-3.09,0.06c0.16-0.78,0.33-1.57,0.49-2.35
		C186.67,141.37,187.54,142.13,188.41,142.89z"/>
	<path class="st7" d="M184.07,121.15c-0.98-0.15-2.44-0.46-1.99-1.49c0.45-1.04,1.65-0.38,2.29,0.51
		C184.34,120.52,184.24,120.84,184.07,121.15z"/>
	<path class="st3" d="M172.94,117.06c-0.33,0-0.67-0.01-1-0.01c0.01-1.35,0.73-2.03,2.05-2.11
		C175.07,116.34,172.82,116.12,172.94,117.06z"/>
	<path class="st8" d="M184.07,121.15c0.16-0.31,0.26-0.64,0.3-0.98c0.35-0.02,0.7-0.05,1.04-0.07c0.12,1.52,0.08,2.93-2,2.97
		C183.64,122.43,183.85,121.79,184.07,121.15z"/>
	<path class="st10" d="M140.86,189.51c-0.55-0.25-1.29-0.37-1.58-0.8c-0.3-0.45,0.28-1.06,0.74-0.75c0.43,0.29,0.55,1.04,0.81,1.58
		C140.83,189.54,140.86,189.51,140.86,189.51z"/>
	<path class="st8" d="M189.73,111.9c0.24,0.02,0.47,0.06,0.71,0.11c0.26,1.57,0.26,2.96-1.93,2.9c0.05-0.29,0.09-0.58,0.11-0.88
		C188.99,113.32,189.36,112.61,189.73,111.9z"/>
	<path class="st3" d="M171.86,113.88c0.07-0.68,0.14-1.37,0.22-2.05c1.3,0.13,1.91,0.86,1.92,2.15
		C173.28,113.94,172.57,113.91,171.86,113.88z"/>
	<path class="st5" d="M148.78,205.16c-0.22,0.19-0.44,0.36-0.65,0.54c-0.2-0.32-0.41-0.64-0.61-0.97c0.27-0.11,0.58-0.35,0.8-0.28
		C148.52,204.51,148.62,204.9,148.78,205.16z"/>
	<path class="st1" d="M174.03,146.09c0.8,0,1.56,0.08,1.91,0.96c-0.86-0.04-0.55,2.09-1.95,1.05c0.01-0.34,0.02-0.68,0.01-1.02
		C174,146.74,174.02,146.41,174.03,146.09z"/>
	<path class="st5" d="M184.46,146.03c0.65,0.1,1.77,0.25,1.46,0.91c-0.56,1.18-1.73-0.17-2.62,0.15c-0.02-0.31-0.04-0.62-0.05-0.93
		C183.65,146.11,184.05,146.07,184.46,146.03z"/>
	<path class="st7" d="M139.82,208.19c-0.67-0.02-1.34-0.05-2.01-0.07c-0.01-0.67-0.03-1.34-0.04-2.01
		C139.11,206.15,139.79,206.85,139.82,208.19z"/>
	<path class="st10" d="M188.36,129.43c0.38-0.4,0.77-0.8,1.15-1.2c0.78,0.55,1.03,1.32,0.96,2.23
		C189.61,130.45,188.82,130.27,188.36,129.43z"/>
	<path class="st2" d="M174,147.07c0.01,0.34,0.01,0.68-0.01,1.02c-1,0-2,0-3.38,0C171.77,146.55,172.99,147.3,174,147.07z"/>
	<path class="st7" d="M124.29,196.71c0.68,0.01,1.36,0.02,2.04,0.02c0.03,0.4,0.06,0.79,0.08,1.19c-0.01,0.31-0.05,0.62-0.11,0.93
		c-0.33,0.01-0.65,0.01-0.98,0.01C124.48,198.38,124.32,197.58,124.29,196.71z"/>
	<path class="st7" d="M119.09,209.19c-0.02,0.35-0.07,0.69-0.16,1.02c-0.78-0.13-1.83-0.24-1.3-1.33
		C117.99,208.12,118.68,208.62,119.09,209.19z"/>
	<path class="st2" d="M131.53,237.18c-0.69,0-1.38,0-2.07,0c0.01-0.7,0.01-1.39,0.02-2.09c0.68,0,1.36,0,2.04,0
		c0.01,0.35,0.01,0.71,0.02,1.07C131.54,236.5,131.54,236.84,131.53,237.18z"/>
	<path class="st10" d="M148.78,161.86c-0.25,0.13-0.51,0.27-0.76,0.41c-0.14-0.35-0.27-0.7-0.41-1.05c0.28-0.07,0.64-0.27,0.82-0.17
		C148.63,161.17,148.66,161.57,148.78,161.86z"/>
	<path class="st7" d="M179.18,125.32c0.1-0.66,0.09-1.42,0.97-1.54c0.17-0.02,0.6,0.4,0.57,0.57
		C180.6,125.23,179.84,125.22,179.18,125.32L179.18,125.32z"/>
	<path class="st2" d="M126.28,196.68c0.02-0.33,0.07-0.65,0.16-0.96c0.74,0.13,1.63-0.23,2.14,0.64
		C127.81,196.46,127.04,196.57,126.28,196.68z"/>
	<path class="st8" d="M175.1,170.97c1.48,1.54,0.24,1.75-0.97,1.98C174.45,172.29,174.78,171.63,175.1,170.97z"/>
	<path class="st4" d="M182.35,142.02c-0.4-0.41-0.8-0.82-1.21-1.23c0.06-0.3,0.13-0.6,0.22-0.9c0.3-0.02,0.59-0.04,0.89-0.04
		C182.29,140.58,182.32,141.3,182.35,142.02z"/>
	<path class="st2" d="M140.1,160.93c-0.04,0.12-0.09,0.25-0.13,0.37c-0.14-0.05-0.31-0.07-0.42-0.17c-0.04-0.03,0.08-0.23,0.12-0.36
		C139.82,160.83,139.96,160.88,140.1,160.93z"/>
	<path class="st8" d="M184.46,146.03c-0.4,0.04-0.81,0.09-1.22,0.13c-0.06-0.96,0.13-1.78,1.12-2.21
		C184.39,144.64,184.42,145.34,184.46,146.03z"/>
	<path class="st2" d="M185.39,127.35c0,0.35-0.01,0.71-0.01,1.06c-1.06-0.68-1.04-1.37-0.01-2.06
		C185.4,126.68,185.41,127.02,185.39,127.35z"/>
	<path class="st2" d="M145,214.4c0.14,0.08,0.29,0.15,0.43,0.23C145.29,214.55,145.14,214.47,145,214.4
		C145,214.39,145,214.4,145,214.4z"/>
	<path class="st5" d="M154.33,163.64c-0.13-0.08-0.27-0.15-0.4-0.23c0.13,0.08,0.26,0.16,0.39,0.24
		C154.31,163.65,154.33,163.64,154.33,163.64z"/>
	<path class="st3" d="M140.85,233.02c0.36-0.67,0.71-0.72,1.05,0.01C141.55,233.03,141.2,233.03,140.85,233.02z"/>
	<path class="st10" d="M112.91,219.59c-1.33-0.02-2.9,0.28-3.5-1.3c-0.32-0.85,0.55-1.49,1.3-1.93
		C112.75,216.54,112.96,217.98,112.91,219.59z"/>
	<path class="st7" d="M110.85,223.56c-0.01-0.25-0.02-0.51-0.04-0.76c1.22,0.16,2.69-0.74,3.57,0.75c0.12,0.2-0.26,0.9-0.58,1.14
		C112.28,225.83,111.41,225.07,110.85,223.56z"/>
	<path class="st6" d="M141.89,217.47c0.01,1.51-0.68,2.55-2.07,3.14C138.36,218.15,139.43,217.35,141.89,217.47z"/>
	<path class="st6" d="M146.04,222.68c0.75,0.14,1.75,0.12,1.55,1.22c-0.07,0.35-0.97,0.55-1.49,0.81
		C146.08,224.04,146.06,223.36,146.04,222.68z"/>
	<path class="st6" d="M173.95,180.16c0.01,1.06,0.03,2.11,0.04,3.17c-1.53-0.29-3.3,0.67-4.97-1.2
		C170.8,181.42,172.38,180.79,173.95,180.16z"/>
	<path class="st4" d="M159.46,183.28c-0.68,0.01-1.35,0.02-2.03,0.03c0.14-0.75,0.13-1.76,1.23-1.54
		C159.01,181.84,159.2,182.76,159.46,183.28z"/>
	<path class="st10" d="M155.28,178.07c0.37-0.31,0.73-0.62,1.1-0.93C156.16,177.63,156.84,179.18,155.28,178.07z"/>
	<path class="st8" d="M188.45,122.19c0.34-0.36,0.68-0.71,1.02-1.07c2.05,0.39,4.1,0.79,6.15,1.18c0.04,0.64,0.08,1.29,0.12,1.93
		c-1.15,0.09-2.41-0.16-3.17,1.07c-0.64,0-1.28,0-1.92,0c0.98-2.44-0.81-2.03-2.15-2.09C188.5,122.87,188.48,122.53,188.45,122.19z"
		/>
	<path class="st7" d="M198.78,134.56c-2.02-0.02-2.25-1.73-2.87-3.06c0.55-0.33,1.11-0.65,1.66-0.98c0.07,0.42,0.14,0.83,0.21,1.25
		c0.7,0.56,1.4,1.13,2.1,1.69C199.51,133.82,199.14,134.19,198.78,134.56z"/>
	<path class="st2" d="M193.56,128.46c-0.26,0.02-0.52,0.06-0.78,0.11c-0.05-0.42-0.09-0.83-0.14-1.25c0-0.34,0.02-0.68,0.06-1.01
		c0.99-0.07,1.97-0.14,2.96-0.21C195.83,127.66,195.03,128.35,193.56,128.46z"/>
	<path class="st1" d="M195.66,126.1c-0.99,0.07-1.97,0.14-2.96,0.21c-0.03-0.34-0.07-0.67-0.12-1.01c0.76-1.23,2.02-0.98,3.17-1.07
		C195.71,124.85,195.68,125.48,195.66,126.1z"/>
	<path class="st10" d="M198.78,134.56c0.37-0.37,0.73-0.73,1.1-1.1c1.01,0.73,1.1,1.5,0.11,2.33
		C199.58,135.37,199.18,134.97,198.78,134.56z"/>
	<path class="st5" d="M208.18,132.56c-0.77-0.11-1.69-0.05-1.61-1.24c0.01-0.12,0.2-0.33,0.33-0.34c1.18-0.09,1.15,0.81,1.27,1.59
		C208.17,132.57,208.18,132.56,208.18,132.56z"/>
	<path class="st8" d="M197.78,131.77c-0.07-0.42-0.14-0.83-0.21-1.25c0.31-0.27,0.77-0.81,0.99-0.18
		C198.67,130.68,198.06,131.28,197.78,131.77z"/>
	<path class="st2" d="M95.28,230.96c0.37-0.99,1.07-1.66,2.03-2.07c1.04-0.01,2.09-0.01,3.13-0.02c1.71,3.49,3.41,6.97,5.12,10.46
		c-0.33-0.05-0.66-0.08-0.99-0.12c-2.14-1.62-5.24-1.08-7.06-3.39c0.44-0.85,4.96-2.06-0.22-2.85
		C97.29,231.64,96.6,230.98,95.28,230.96z"/>
	<path class="st2" d="M120.15,244.34c-0.36,0.37-0.72,0.75-1.07,1.12c-2.91-3.53-2.46-4.86,2.1-6.21
		C120.84,240.95,120.49,242.64,120.15,244.34z"/>
	<path class="st10" d="M107.55,216.91c-0.11,0.72-0.39,1.32-1.22,1.37c-0.72,0.04-1.37-0.17-1.49-1.01
		c-0.15-1.06,0.45-1.61,1.42-1.65C107.05,215.58,107.44,216.16,107.55,216.91z"/>
	<path class="st10" d="M100.44,228.87c-1.04,0.01-2.08,0.01-3.13,0.02c0.03-0.67,0.07-1.34,0.1-2.01c0.99,0,1.98,0,2.97,0.01
		c0.04,0.32,0.07,0.64,0.1,0.96C100.48,228.19,100.46,228.53,100.44,228.87z"/>
	<path class="st10" d="M104.62,221.68c-0.7,0.02-1.4,0.04-2.1,0.06c0.13-0.8,0.09-1.87,1.27-1.67
		C104.14,220.14,104.34,221.12,104.62,221.68z"/>
	<path class="st10" d="M104.58,239.21c0.33,0.03,0.66,0.07,0.99,0.12c0.03,0.71,0.06,1.41,0.09,2.12c-0.35,0.05-0.7,0.09-1.05,0.14
		c-0.35-0.08-0.7-0.17-1.05-0.25c0-0.36-0.01-0.72-0.01-1.09C103.89,239.9,104.23,239.56,104.58,239.21z"/>
	<path class="st2" d="M100.4,226.89c-0.99,0-1.98,0-2.97-0.01c-0.03-0.42-0.06-0.84-0.09-1.26c0.04-0.65,0.07-1.31,0.11-1.96
		C99.34,223.9,100.47,224.84,100.4,226.89z"/>
	<path class="st10" d="M95.28,230.96c1.32,0.02,2.01,0.67,2.01,2.01C95.94,232.99,94.09,233.49,95.28,230.96z"/>
	<path class="st2" d="M103.54,240.25c0,0.36,0.01,0.72,0.01,1.09c-0.35,0.01-0.7,0.02-1.05,0.03c-0.33-0.02-0.66-0.04-0.99-0.06
		C101.43,239.53,102.43,239.78,103.54,240.25z"/>
	<path class="st7" d="M88.09,239.24c-0.02-0.68-0.05-1.37-0.07-2.05c0.74,0.15,1.76,0.12,1.55,1.22
		C89.51,238.76,88.61,238.96,88.09,239.24z"/>
	<path class="st6" d="M102.5,241.37c0.35-0.01,0.7-0.02,1.05-0.03c0.35,0.08,0.7,0.16,1.05,0.25c-0.34,0.26-0.69,0.52-1.03,0.77
		c-0.35,0-0.69,0-1.04,0C102.52,242.03,102.51,241.7,102.5,241.37z"/>
	<path class="st7" d="M167.78,125.46c2.7-0.33,5.15,0.23,7.29,1.96c-0.33,0.36-0.67,0.71-1,1.07c-0.73,0-1.46,0-2.19-0.01
		c-0.59-0.42-1.19-0.84-1.78-1.26c-0.09,0.76-0.18,1.52-0.26,2.27l0-0.01c-0.68-0.01-1.37-0.01-2.05-0.02c0,0,0.01,0,0.01,0
		c0-0.69-0.01-1.38-0.01-2.07C167.78,126.75,167.78,126.1,167.78,125.46z"/>
	<path class="st3" d="M160.14,138.76c-2.03,2.07-3.67,2.91-3.88,4.66C154.86,140.65,156.18,139.6,160.14,138.76z"/>
	<path class="st7" d="M151.26,147.07c-0.01-0.34-0.03-0.69-0.05-1.03c0.04-1.35,0.73-2.05,2.1-2.06c0.34,0.33,0.68,0.65,1.03,0.98
		c-0.44,0.35-0.88,0.7-1.32,1.05C152.43,146.37,151.84,146.72,151.26,147.07z"/>
	<path class="st2" d="M167.78,127.4c0,0.69,0.01,1.38,0.01,2.07c-1.09-0.06-2.17-0.11-3.42-0.17
		C165.24,127.74,166.49,127.54,167.78,127.4z"/>
	<path class="st2" d="M167.79,129.46c0.68,0.01,1.37,0.01,2.05,0.02c-0.01,0.69-0.02,1.39-0.03,2.08c-0.67-0.01-1.35-0.02-2.02-0.03
		C167.79,130.84,167.79,130.15,167.79,129.46z"/>
	<path class="st10" d="M153.01,146.01c0.44-0.35,0.88-0.7,1.32-1.05C154.19,145.68,154.62,147.13,153.01,146.01z"/>
	<path class="st6" d="M112.91,212.22c-0.34,0.07-0.68,0.12-1.02,0.17c0.13-0.46,0.26-0.92,0.4-1.38
		C112.49,211.41,112.7,211.81,112.91,212.22z"/>
	<path class="st6" d="M181.36,139.89c-0.09,0.3-0.16,0.6-0.22,0.9c-1.31,0.14-1.97,0.87-1.98,2.19c-0.68,0.68-1.35,1.36-2.03,2.04
		c-1.48-0.02-3.03,0.06-3.15-2.05c0-0.35,0-0.69,0-1.04C175.99,139.61,177.93,137.03,181.36,139.89z"/>
	<path class="st10" d="M178.15,131.53c0,0.69,0.01,1.38,0.02,2.07c-0.36,0.01-0.72,0.02-1.08,0.03c-0.35-0.02-0.7-0.03-1.05-0.05
		c-1.74,0-3.49,0-5.23,0.01c0.39-1.02,0.78-2.03,1.17-3.05c0.68-0.02,1.36-0.04,2.04-0.05c0.54,1.79,1.56,2.03,3.01,0.96
		C177.4,131.47,177.77,131.5,178.15,131.53z"/>
	<path class="st10" d="M166.85,143.9c-1.09,1.34-2.18,1.39-3.28,0.02c0.42-0.66,0.84-1.32,1.26-1.98c0.58,0,1.16,0,1.74,0.01
		C166.66,142.59,166.76,143.24,166.85,143.9z"/>
	<path class="st7" d="M166.85,143.9c-0.09-0.65-0.18-1.3-0.28-1.95c1.11-1.22,2.22-1.42,3.35-0.03c-0.39,0.66-0.79,1.33-1.18,1.99
		C168.11,143.9,167.48,143.9,166.85,143.9z"/>
	<path class="st7" d="M164.83,141.93c-0.42,0.66-0.84,1.32-1.26,1.98c-0.33,0.03-0.65,0.04-0.98,0.05c0.33-0.96-1.27-2.16,0.24-2.92
		C163.63,140.65,164.33,141.24,164.83,141.93z"/>
	<path class="st2" d="M178.23,133.56c1.49,0.02,2.97,0.05,2.98,2.14C179.74,135.65,178.17,135.74,178.23,133.56z"/>
	<path class="st7" d="M171.97,130.54c-0.39,1.02-0.78,2.03-1.17,3.05c0,0-0.47-0.01-0.47-0.01l-0.47,0.02l0,0
		c-0.02-0.68-0.04-1.36-0.06-2.04c0.01-0.69,0.02-1.39,0.03-2.08c0,0,0,0.01,0,0.01c0.7,0,1.4,0,2.09,0
		C171.94,129.84,171.96,130.19,171.97,130.54z"/>
	<path class="st7" d="M173.99,141.93c0,0.35,0,0.69,0,1.04c-1.02,0.32-2.03,0.63-3.05,0.95c-0.04-0.68-0.08-1.35-0.12-2.03
		C171.87,141.9,172.93,141.92,173.99,141.93z"/>
	<path class="st2" d="M169.86,133.6c-0.08,0.14-0.16,0.29-0.24,0.43C169.7,133.89,169.78,133.75,169.86,133.6
		C169.86,133.6,169.86,133.6,169.86,133.6z"/>
	<path class="st2" d="M176.03,133.58c0.35,0.02,0.7,0.03,1.05,0.05C176.7,134.4,176.35,134.22,176.03,133.58z"/>
	<path class="st6" d="M191.61,143.98c-0.01-0.32-0.01-0.64,0-0.95c-0.06-2.22,0.47-3.78,3.34-2.87
		C193.92,141.57,193.27,143.2,191.61,143.98z"/>
	<path class="st6" d="M189.73,111.9c-0.37,0.71-0.74,1.42-1.11,2.13c-0.72-0.27-2.03-0.19-1.6-1.39
		C187.45,111.48,188.76,111.95,189.73,111.9z"/>
	<path class="st8" d="M174.07,128.48c0.33-0.36,0.67-0.71,1-1.07c0.33-0.03,0.65-0.03,0.98-0.01c0.84,0.61,0.23,1.4,0.25,2.11
		c-0.77,0.02-1.53,0.04-2.29,0.06C174.02,129.22,174.05,128.85,174.07,128.48z"/>
	<path class="st1" d="M174,129.58c0.76-0.02,1.53-0.04,2.29-0.06c0.23-0.03,0.46-0.05,0.7-0.07c0.01,0.66,0.02,1.33,0.03,1.99
		c-1.45,1.07-2.47,0.83-3.01-0.96C174.04,130.18,174.04,129.88,174,129.58z"/>
	<path class="st2" d="M177.03,131.44c-0.01-0.66-0.02-1.33-0.03-1.99c0.91,0.4,1.13,1.18,1.15,2.07
		C177.77,131.5,177.4,131.47,177.03,131.44z"/>
	<path class="st10" d="M192.57,125.3c0.05,0.33,0.09,0.67,0.12,1.01c-0.04,0.34-0.06,0.67-0.06,1.01c-1.41,0.06-2.12-0.57-1.99-2.02
		C191.29,125.3,191.93,125.3,192.57,125.3z"/>
	<path class="st2" d="M188.45,122.19c0.03,0.34,0.04,0.68,0.05,1.02c-0.02,0.38-0.04,0.75-0.06,1.13c-0.67-0.02-1.35-0.03-2.02-0.05
		C186.45,122.95,187.12,122.25,188.45,122.19z"/>
	<path class="st2" d="M174,129.58c0.04,0.3,0.04,0.6,0.01,0.9c-0.68,0.02-1.36,0.04-2.04,0.05c-0.01-0.35-0.03-0.7-0.04-1.05
		c0-0.34-0.01-0.67-0.05-1.01c0.73,0,1.46,0,2.19,0.01C174.05,128.85,174.02,129.22,174,129.58z"/>
	<path class="st10" d="M171.88,128.48c0.04,0.34,0.05,0.67,0.05,1.01c-0.7,0-1.4,0-2.09,0c0.09-0.76,0.18-1.52,0.26-2.27
		C170.69,127.64,171.29,128.06,171.88,128.48z"/>
	<g id="Base_1_">
		<path class="st11" d="M0,0v300h300V0H0z M292.5,292.5H7.5V7.5h285V292.5z"/>
	</g>
</g>
</svg>
