<?xml version="1.0" encoding="utf-8"?>
<!-- Generator: Adobe Illustrator 23.0.1, SVG Export Plug-In . SVG Version: 6.00 Build 0)  -->
<svg version="1.1" xmlns="http://www.w3.org/2000/svg" xmlns:xlink="http://www.w3.org/1999/xlink" x="0px" y="0px"
	 viewBox="0 0 300 300" style="enable-background:new 0 0 300 300;" xml:space="preserve">
<style type="text/css">
	.st0{fill:#424242;}
	.st1{fill:#171716;}
	.st2{fill:#292929;}
	.st3{fill:#0F0F0F;}
	.st4{fill:#36332F;}
	.st5{fill:#3A3834;}
	.st6{fill:#423F3B;}
	.st7{fill:#B2AB9F;}
	.st8{fill:#55514C;}
	.st9{fill:#7B756D;}
	.st10{fill:#202020;}
	.st11{fill:#232324;}
	.st12{fill:#0A0A0A;}
	.st13{fill:#141414;}
	.st14{fill:#060606;}
	.st15{fill:#0C0B0B;}
	.st16{fill:#9E9E9E;}
</style>
<g id="background">
	<rect x="4" y="4" class="st0" width="291" height="291"/>
</g>
<g id="Layer_1">
	<path class="st1" d="M214.3,132.45c-3.83,1.99-7.54-0.32-11.32-0.33c0-1.04-0.01-2.09-0.01-3.13c0.62-4.09,5.48-0.62,6.65-3.73
		c3.65,0.9,7.36,0.37,11.04,0.45c1.14,0.03,2.98,0.4,2.99-1.24c0.01-1.96-1.98-1.52-3.28-1.58c-2.28-0.1-4.57-0.06-6.86-0.08
		c1.99-5.17,7.03-0.62,10.14-3.35c-2.46-2.17-5.35-0.9-7.93-1.21c-3.68-0.45-4.69,1.38-3.93,4.68c-0.89,0.2-1.79,0.39-2.68,0.59
		c-0.61-1.43-1.1-3.07-3.04-3.06c-3,0.01-5.1-1.85-7.4-3.33c0.54-2.72,5.93-2.23,4.25-6.42c-0.03-0.38-0.06-0.75-0.09-1.13
		c0.06-1.01,0.12-2.01,0.19-3.02c0.66,0.72,1.32,1.43,1.98,2.15c0.04,3.32,0.83,6.21,4.39,7.47c1.62,1.31,3.48,1.83,4.07-0.65
		c0.47-1.93,1.41-0.92,2.32-1.23c3.51-1.18,6.93,1.06,10.45-0.15c1.6-0.55,3.26,0.33,2.59,2.67
		C227.97,119.82,218.43,131.3,214.3,132.45z"/>
	<path class="st2" d="M228.83,116.82c0.67-2.34-0.99-3.22-2.59-2.67c-3.52,1.21-6.94-1.03-10.45,0.15c-0.92,0.31-1.86-0.7-2.32,1.23
		c-0.6,2.48-2.45,1.97-4.07,0.65c-0.37-1.44-0.74-2.87-1.11-4.31c2.01-2.4,5.96,2.03,7.47-2.12c1.18,0.22,2.51,0.17,3.52,0.71
		c4.23,2.24,6.97,0.17,9.43-2.97C229.56,107.7,227.97,119.82,228.83,116.82z"/>
	<path class="st3" d="M190.18,246.37l0.52,0.03l0.52-0.03c3.01,1.07,5.34-1.53,8.24-1.45c3.98,0.1,4.19-2.02,2.42-4.93
		c-0.04-0.7-0.07-1.41-0.11-2.11c0.77-2.97-1.08-4.7-3.02-6.39c-0.71,0-1.43-0.01-2.14-0.01c-3.27-2.67-7.71,0.34-11.39-2.08
		c2.07-1.9,4.26-0.78,6.18-1.21c4.65,0.69,9.16-0.69,13.75-0.92c0.01,2.48,0.01,4.96,0.02,7.44c-0.36,2.83,0.57,4.99,3.62,5.2
		c3.42,0.23,6.96,0.89,10.24-0.87c0.39-0.03,0.77-0.05,1.16-0.08c2.76,0.46,5.51,0.92,8.27,1.37c0.03,2.05,1.53,3.43,2.32,5.14
		c-5.69-0.03-11.39-0.05-17.08-0.08c-0.28-0.54-0.48-1.46-0.86-1.55c-1.11-0.25-1.14,0.78-1.31,1.55c-1.91,0.3-4.08-0.64-5.75,2.29
		c3.71,0.01,7.42,0.02,11.14,0.03c3.15,1.23-4.32,3.78-4.32,3.07c0.86-0.18,1.95-0.16,2.21-1.17c0.25-0.98-0.65-1-1.33-0.99
		c-6.93,0.03-13.87-0.05-20.8,0.21c-1.1,0.04-4.11,0.02-2.46,3c2.1,1.55,4.2,1.56,6.3,0.02
		C197.96,251.85,186.6,249.45,190.18,246.37z"/>
	<path class="st1" d="M67.35,248.57c-0.73,0.02-1.46,0.03-2.18,0.05c-2.14-0.12-2.16-1.69-2.2-3.23c0,0,0.43-0.18,0.43-0.18
		c2.58,0.81,6.08,3.54,5.24-2.61c-0.17-1.25,0.88-1.34,1.76-1.28c3.82,0.27,6.97-2.23,10.65-2.54c2.1,2.57,3.96,0.5,5.52-0.57
		c3.28-2.26,6.59-3.73,10.61-2.44c0.56,2.86-0.56,5.51-1.5,8.2c3.08,0.6,3.83-2.19,5.76-2.85c3.21,0.72,4.77,4.68,8.53,4.3
		c0.24,2.69,3.67,1.02,4.32,3.15c-0.01,0.39-0.03,0.77-0.04,1.16c-7.44,0.51-14.99-1.25-22.36,0.99c-0.37-0.35-0.74-0.7-1.11-1.05
		c1.3-2.12,4.14-0.02,6.73-3.45C86.62,247.36,76.87,244.38,67.35,248.57z"/>
	<path class="st4" d="M200.87,251.88c-1.45,0-2.9-0.01-4.35-0.01c-2.1,0-4.2,0-6.3,0c-1.66-2.98,1.34-2.97,2.45-3.01
		c6.93-0.27,13.86-0.22,20.8-0.26c0.68,0,1.59,0.01,1.34,0.99c-0.26,1.01-1.35,1-2.21,1.17c-0.72,0.04-1.43,0.07-2.15,0.11
		C207.19,250.61,203.96,250.63,200.87,251.88z"/>
	<path class="st4" d="M91.9,250.72c7.37-2.24,14.91-0.48,22.36-0.99C115.03,251.36,92.96,251.38,91.9,250.72z"/>
	<path class="st5" d="M213.69,245.36c5.69,0.01,11.39,0.02,17.08,0.03c1.11,0.39,2.21,0.77,3.32,1.16
		c-5.6,2.26-11.49,0.26-17.18,1.13c-3.71,0-7.42,0-11.14,0c1.66-2.94,3.83-2,5.75-2.31C212.24,245.37,212.96,245.37,213.69,245.36z"
		/>
	<path class="st4" d="M90.79,249.67c-4.16-2.07-8.56-0.78-12.86-0.93c-3.53-0.06-7.06-0.12-10.59-0.18
		c9.52-4.19,19.27-1.21,30.17-2.34C94.93,249.65,92.09,247.55,90.79,249.67z"/>
	<path class="st6" d="M234.09,246.55c-1.11-0.39-2.21-0.77-3.32-1.16c-0.79-1.71-2.3-3.09-2.33-5.14c0,0,0.31-0.33,0.31-0.33
		c2.63,0.48,6.54-1.88,7.04,3.42c0.1,1.05,2.08,0.87,3.29,0.8c-0.07,1.26-0.97,1.84-1.91,2.4
		C236.14,246.55,235.11,246.55,234.09,246.55z"/>
	<path class="st7" d="M187.87,42.39c3.39-2.51,7.26-0.52,10.85-1.16c0.82,1.44,1.64,2.88,2.46,4.32c-1.19,0.65-2.37,1.3-3.56,1.95
		c-1.32-0.09-2.64-0.19-3.96-0.28c-1-2.44-3.66-0.65-5.09-1.99C188.33,44.29,188.1,43.34,187.87,42.39z"/>
	<path class="st8" d="M197.61,47.5c1.19-0.65,2.37-1.3,3.56-1.95c0.3-0.07,0.59-0.07,0.89,0c0.05,1.7,0.71,3.14,1.79,4.42
		c0.05,1.38,0.11,2.77,0.16,4.15c-1.43,0.01-2.87,0.01-4.3,0.02c0.21-2.12,0.38-4.23-2-5.4C197.68,48.32,197.65,47.91,197.61,47.5z"
		/>
	<path class="st4" d="M202.97,128.99c0,1.04,0.01,2.09,0.01,3.13c0.75,2.81,3.13,3.05,5.17,2.54c2.64-0.65,4.65,0.2,6.74,1.41
		c-0.05,0.83-0.1,1.65-0.16,2.47v0c-3.07,1.17-0.68,2.22,0.13,3.17c0.62,0.73,2.59,1.1,1.97,1.97c-2.18,3.06-0.27,6.44-1.34,10.86
		c-3.05-4.77-7.88-5.61-11.42-8.51c-0.02-0.71-0.05-1.41-0.07-2.12c-0.99-2.84-3.1-3.73-5.97-4.41c-6.79-1.59-13.27,1.2-19.94,0.86
		c-1.29-0.07-2.88,0.52-2.91,2.45c-0.69,0.04-1.38,0.07-2.08,0.11c-0.15,0.08-0.3,0.15-0.46,0.23c0.14,0.24,0.28,0.48,0.42,0.73
		c-0.07,1.44-0.14,2.87-0.21,4.31c-1-0.01-2-0.01-3.01-0.02c-0.27-2.75-1.82-1.65-3.2-1.07c-0.83-3.26-1.99-0.5-3.02,0
		c1.01,0,2.01,0,3.02,0c0.78,1.23,2.03,1.03,3.21,1.07c-0.93,1.22-3.11,2.24-0.56,3.99c1.86,1.27,1.11,2.95,0.56,4.56
		c-12.76-2.9-25.69,0.11-38.49-1.12c-0.94-3.23-3.19-4.55-6.43-4.45c2.58-7.4-0.25-11.71-7.72-11.47c-5.21,0.17-10.4,0.7-15.61,0.97
		c-3.08,0.16-5.43,1.25-6.52,4.33c-0.07,1.39-0.14,2.78-0.21,4.17c-2.6,0.59-1.79,2.69-1.94,4.37c0.02,1.21-0.15,2.49,1.13,3.26
		c0.01,0.69,0.01,1.38,0.02,2.08c-2.79,0.2-6.05,1.41-8.27,0.37c-3.43-1.59-0.3-5.28-0.9-7.99c-0.08-0.34-0.03-0.71-0.16-1.03
		c-1.76-4.43-0.11-6.35,4.49-6.37c0.8,0,2.65,1.15,2.45-1.13c-0.12-1.29,2.24-2.25,0.49-3.63c-1.05-0.83-2.39-0.65-3.55-0.29
		c-1.42,0.43-2.57,2.05-4.31,0.83c0.35-1.09,0.69-2.18,1.04-3.27c0.75-0.68,1.5-1.35,2.26-2.03c5.18-1.26,3.24-5.81,4.07-9.02
		c0.53-2.04-0.72-2.88-2.73-2.58c-0.09-3.99-0.18-7.98-0.26-11.97c0.31-1.75,0.63-3.5,0.94-5.25c0.52-3.43,0.65-15.19-0.25-18.44
		c-0.78-2.79-0.59-5.54-0.73-8.32c0.3-5.01,0.61-10.02,0.91-15.03c-0.85-4.03,1.95-11.67,2.26-11.71c1.66,0.91,0.82-0.63,1.08-1.1
		c0,0-0.04,0.03-0.04,0.03c0.75,0.03,1.5,0.06,2.25,0.09c0.33,3.71,3.2,3.5,5.47,2.97c3.65-0.85-0.16-3.49,0.83-5.12
		c1.9,0.41,3,1.91,4.31,3.13c0.47,8.2-0.78,16.47,1.11,24.61c0,8.18,0.01,16.36,0.01,24.53c-0.8,1.68-3.95,3.83,0.88,4.38
		c0.69,4.46,2.47,7.58,7.8,6.33c0.31,0.27,0.63,0.54,0.94,0.81c0.7,5.15,4.27,4.8,8,4.21c6.21-0.98,9.11,0.82,8.34,5.15
		c-1.28,7.22-1.27,7.2,5.32,8.1c0.64,0.09,1.21,0.63,1.81,0.97c-1.48,1.89-0.18,3.08,1.07,4.29c-1.48,0.44-2.96,0.88-4.66,1.39
		c1.37,1.31,3.17,0.07,4.1,1.54c1.34,2.12,1.36,2.11,3.76,1.33c1.12,2.37-0.97,3.16-2.24,4.07c-3.44,2.49-2.27,4.92-0.71,7.96
		c1.98-1.59-0.3-4.18,2.76-4.95c2,4.85,4.45,9.73,10.87,4.67c0.14,0.08,0.29,0.16,0.43,0.24c-0.14-0.08-0.29-0.16-0.43-0.24
		c2.32-3.78,5.08-6.98,11.39-7.31c-5.67-2.29-7.69-8.1-13.62-7.02c-0.21,0.04-0.64-1.1-0.97-1.69c0.88-4.74,4.77-4.86,7.9-4.04
		c4.45,1.16,6.1-1.34,5.76-4.37c-0.62-5.48,1.7-7.89,6.47-9.35c1.45-0.44,2.65-1.05,4.33-1.16c4.36-0.29,8.6-1.46,9.72-6.74
		c0.68-0.36,1.36-0.72,2.05-1.07c1.09,0.68,1.05,1.65,0.85,2.78c-0.82,4.53,0.06,8.92,1.29,13.26c-1.33,3.52,0.1,4.57,3.56,4.33
		C196.72,128.77,199.85,128.97,202.97,128.99z M170.93,134.27c-0.15-0.08-0.29-0.16-0.44-0.24
		C170.64,134.12,170.78,134.2,170.93,134.27c0.74,3.78,3.03,3.18,6.64,1.97C174.8,135.04,173.05,134.12,170.93,134.27z
		 M137.54,141.5c-0.9-1.62-1.99-2.88-4.03-2.91c-1.22-0.01-2.79-0.23-2.94,1.46c-0.15,1.8,1.12,3.18,2.76,3.37
		C134.77,143.59,136.46,143.22,137.54,141.5z M171.17,141.36c-2.28-2.67-4.48-3.29-6.73-3.48c-0.38-0.03-1.37,1.9-0.59,2.77
		C165.66,142.71,167.98,141.62,171.17,141.36z M129.94,144.24c-0.2-0.44-0.37-0.99-0.45-0.97c-0.48,0.08-1.08,0.16-1.37,0.49
		c-0.45,0.5-0.08,1.01,0.51,1.01C129.05,144.77,129.49,144.43,129.94,144.24z M168.01,134.69c-0.14-0.05-0.29-0.14-0.43-0.13
		c-0.05,0-0.09,0.23-0.13,0.36c0.14,0.05,0.29,0.14,0.43,0.13C167.92,135.05,167.96,134.82,168.01,134.69z"/>
	<path class="st2" d="M190.07,124.66c-1.23-4.34-2.11-8.73-1.29-13.26c0.2-1.13,0.24-2.1-0.84-2.78c0-1.17,0.28-2.43-1.01-3.2
		c0.17-0.72,0.34-1.43,0.51-2.15c1.5-4.21-1.91-2.74-3.67-3.18c0-0.36,5.41-3.66,6.06-3.84c2.37,1.69,3.51,4.05,3.74,6.9
		c0.34,1.79,0.68,3.58,1.01,5.38c1.48,5.75,5.45,1.92,8.36,2.18c1.68,4.19-3.71,3.7-4.25,6.43c-0.69,0-1.39-0.01-2.08-0.01
		c-0.2-0.81-0.29-1.95-1.46-1.62c-1.92,0.55-1.73,2.27-1.74,3.81C193.05,121.59,191.55,123.12,190.07,124.66z"/>
	<path class="st3" d="M190.07,124.66c1.49-1.54,2.99-3.08,3.32-5.34c1.55-0.02,2.61-0.77,3.2-2.19c0.7,0,1.39,0.01,2.08,0.01
		c2.3,1.47,4.4,3.34,7.4,3.33c1.94-0.01,2.43,1.63,3.03,3.05c0.16,0.57,0.34,1.15,0.51,1.74c-1.17,3.11-6.03-0.36-6.65,3.73
		c-3.11-0.02-6.24-0.22-9.34,0C190.16,129.23,188.73,128.18,190.07,124.66z"/>
	<path class="st9" d="M209.61,125.26c-0.17-0.58-0.34-1.16-0.51-1.74c0.9-0.19,1.79-0.39,2.68-0.58c0.57-0.04,1.15-0.08,1.72-0.12
		c2.29,0.02,4.58-0.02,6.86,0.08c1.3,0.06,3.29-0.39,3.28,1.58c-0.01,1.63-1.85,1.26-2.99,1.24
		C216.97,125.63,213.26,126.16,209.61,125.26z"/>
	<path class="st8" d="M194.56,108.53c-0.34-1.79-0.68-3.58-1.02-5.38c3.24-0.85,6.36-0.62,9.32,1.03c0.05,0.79,0.1,1.59,0.15,2.38
		c-0.06,1.01-0.12,2.01-0.19,3.02C200.4,106.72,197.39,108.38,194.56,108.53z"/>
	<path class="st9" d="M214.3,132.45c1.23,1.32,2.46,2.64,3.68,3.96c-1.03-0.11-2.06-0.22-3.09-0.34c-2.09-1.21-4.1-2.05-6.74-1.41
		c-2.04,0.5-4.42,0.27-5.17-2.54C206.76,132.13,210.46,134.44,214.3,132.45z"/>
	<path class="st2" d="M213.51,122.82c-0.57,0.04-1.15,0.08-1.72,0.12c-0.76-3.3,0.25-5.13,3.93-4.68c2.58,0.32,5.47-0.96,7.93,1.21
		C220.54,122.2,215.5,117.65,213.51,122.82z"/>
	<path class="st6" d="M194.56,108.53c2.82-0.15,5.84-1.81,8.27,1.05c0.03,0.38,0.06,0.75,0.09,1.13
		C200.02,110.45,196.04,114.28,194.56,108.53z"/>
	<path class="st6" d="M208.29,111.88c0.37,1.44,0.74,2.87,1.11,4.31c-3.56-1.26-4.35-4.14-4.39-7.47c0,0,0.15-0.12,0.15-0.12
		c0.69,0.36,1.38,0.72,2.07,1.08c0.34,0.37,0.68,0.73,1.02,1.1C208.26,111.14,208.27,111.51,208.29,111.88z"/>
	<path class="st6" d="M203.02,106.57c-0.05-0.79-0.1-1.59-0.15-2.38c0.03-0.66,0.06-1.32,0.09-1.99c3.82,1.07,1.46,4.27,2.2,6.4
		c0,0-0.15,0.12-0.15,0.12C204.34,108,203.68,107.29,203.02,106.57z"/>
	<path class="st4" d="M79.05,173.82c0.03-4.64,0.07-9.28,0.1-13.92c3.27,0.97,5.88,2.75,7.45,6.39c0.24-4.19,3.98-3.72,5.49-5.56
		c2.44,1.07-2.47,2.72,0.85,3.46c0.26,3.81-0.76,7.7,1.39,11.36c2.38,4.05,5.79,1.87,8.45,1.25c2.69-0.63,1.63-3.23,0.81-5.17
		c0.68-1.2,1.88-1.1,3-1.2c1.77,1.02,1.06-0.52,1.21-1.18c0.27-0.3,0.54-0.6,0.81-0.89c0.83,0.04,1.66,0.08,2.48,0.11
		c2.29,3.88-1.14,5.52-3.25,7.14c-2.52,1.92-3.19,3.08,0.05,4.6c-0.03,1.78-0.07,3.57-0.1,5.35c-2.93,1.17-5.89,3.41-8.64-0.42
		c-0.23-0.33-1.33-0.26-1.92-0.06c-3.58,1.17-7.14,2.42-10.7,3.65c-4.73,0.02-8.32-0.56-6.82-7.11
		C80.24,179.42,78.94,176.49,79.05,173.82z"/>
	<path class="st4" d="M80.15,204.83c-0.01-1.04-0.03-2.08-0.03-3.11c0-7.62,0-7.62,7.42-7.64c2.1,0.39,4.66-0.97,5.69,2.74
		c0.53,1.92,2.8,0.48,4.07-0.69c3.54-0.07,6.79-3.26,10.55-0.97c-0.01,3.19-0.02,6.37-0.03,9.56c-2.66-0.03-4.96-1.21-7.22-2.38
		c-3.02-1.56-3.34,0.24-3.42,2.5C91.5,204.83,85.82,204.83,80.15,204.83z M86.52,201.59c1.26-0.21,3.09,0.39,2.9-1.91
		c-0.03-0.37-0.62-0.96-0.98-0.99C86.16,198.51,86.7,200.31,86.52,201.59c-0.57,0.25-1.14,0.49-1.7,0.74
		c0.13,0.21,0.27,0.42,0.4,0.64C85.65,202.51,86.09,202.05,86.52,201.59z"/>
	<path class="st5" d="M86.55,188.74c3.56-1.23,7.12-2.48,10.7-3.65c0.59-0.19,1.69-0.26,1.92,0.06c2.75,3.83,5.71,1.59,8.64,0.42
		c-0.02,1.44-0.04,2.89-0.06,4.33c-2.45-1.48-4.93,0.15-7.4-0.07C95.67,190.51,91.21,188.31,86.55,188.74z"/>
	<path class="st8" d="M100.35,189.83c2.46,0.22,4.95-1.41,7.4,0.07c0.03,1.75,0.06,3.49,0.09,5.24c-3.76-2.28-7.01,0.9-10.55,0.97
		C96.6,193.19,98.37,191.46,100.35,189.83z"/>
	<path class="st2" d="M127.1,78.68c0.02-0.36,0.04-0.72,0.06-1.07c1.57-1.41,0.99-3.29,1-4.99c0.06-6.89,0.02-13.77,0.02-20.66
		c-0.73-1.06-0.65-2.11,0-3.16c1.45-0.67,2.39-2.33,4.26-2.2c2.48,0.02,4.95,0.04,7.43,0.07c0.41,0.07,0.82,0.14,1.23,0.21
		c-0.4,0.99-0.8,1.98-1.2,2.97c-5.04,2.32-8.07,6.11-8.54,11.76c0,0,0.03,8.23,0.05,8.58c0.35,0.36,0.84,2.9,0.98,3.07
		c0.05,0.34,0.08,0.69,0.07,1.03c0.14,4.24,2.66,6.48,6.45,7.64l-0.05-0.04c0.44,0.94,1.29,1.06,2.18,1.1
		c0.38,0.02,0.76,0.04,1.14,0.05c-0.02,0.66-0.04,1.33-0.07,1.99c-5.95-0.2-10.85,1.27-13.37,7.45c-0.88,2.15,0.45,4.75-1.61,6.53
		c-0.01-1.77-0.02-3.55-0.03-5.32c0.01-3.22,0.02-6.43,0.03-9.65c0.45-0.17,0.91-0.35,1.36-0.52c-0.45-0.17-0.91-0.35-1.36-0.52
		C127.12,81.56,127.11,80.12,127.1,78.68z"/>
	<path class="st7" d="M93.86,47.76c0.01-2.12,1.56-3.56,2.36-5.34c3.18-0.06,6.35-0.13,9.53-0.19c2.18,1.48-0.12,3.04,0.07,4.55
		c-0.4,0.31-0.79,0.62-1.19,0.94c-1.05-0.2-2.13-2.2-3.15,0.04c-0.98,0.28-1.95,0.55-2.93,0.83C97.1,47.64,95.45,47.85,93.86,47.76z
		"/>
	<path class="st10" d="M79.87,205.87c0,0,0.42,0.05,0.42,0.05c0.12,1.89-2.65,3.65-0.26,5.65c4.51,3.76,5.94,3.73,7.54-0.16
		c0.73,0.03,1.46,0.05,2.18,0.08c-0.07,2.26,0.72,2.61,3.14,2.58c5.08-0.07,10.06-0.32,14.95-1.75c-0.05,2.56,1.65,4.89,1,7.53
		c-1.76-0.09-3.56,0.06-5.26-0.29c-7.87-1.63-15.7-1.77-23.52,0.22C78.08,219.93,79.26,205.53,79.87,205.87z"/>
	<path class="st8" d="M80.15,204.83c5.67,0,11.35,0,17.02,0c-1.09,3.22,2.09,4.07,4.18,6.34c-4.09,0-7.35,0-10.6,0
		c-2.51-1.59-5-1.87-7.45,0.15c-0.71,0.79-1.39,0.19-2.08-0.05c-0.22-1.8,0.63-3.79-0.94-5.35c0,0-0.42-0.05-0.42-0.05
		C79.96,205.52,80.05,205.17,80.15,204.83z"/>
	<path class="st6" d="M228.55,104.31c0.05,1.07,0.1,2.13,0.16,3.19c-2.46,3.14-5.2,5.2-9.43,2.97c-1.02-0.54-2.34-0.49-3.52-0.71
		c-0.37-0.64-0.74-1.28-1.11-1.92c0.71-0.66,1.42-1.32,2.14-1.97c2.92-0.42,6.04,0.37,8.73-1.46
		C226.51,103.73,227.52,103.74,228.55,104.31z"/>
	<path class="st1" d="M214.65,107.84c0.37,0.64,0.74,1.28,1.11,1.92c-1.52,4.14-5.46-0.28-7.47,2.12c-0.01-0.37-0.03-0.73-0.04-1.1
		c1.46-0.52,2.92-1.05,4.97-1.79c-1.69-0.46-3.07-0.17-3.77-1.37c0-0.53,0-1.06,0-1.59c0.63,0.13,1.27,0.25,1.9,0.38
		C212.06,107.78,213.53,107.41,214.65,107.84z"/>
	<path class="st9" d="M223.22,82.01c4.24,1.89,4.68,5.58,4.53,9.56c0.26,1.04,0.52,2.08,0.78,3.12c-2.07,0.04-4.14,0.08-6.2,0.12
		c0-2.08-0.68-4.33,0.87-6.09c0.71-0.8,2.69-0.8,1.43-2.57c-0.74-1.05-1.85-0.48-2.9-0.44c-4.16,0.14-8.33,0.06-12.5,0.06
		c3.23-1.88,6.56-1.64,9.88-1.66C220.79,84.09,222.87,84.69,223.22,82.01z"/>
	<path class="st8" d="M222.32,94.81c2.07-0.04,4.14-0.08,6.2-0.12c0.01,3.21,0.02,6.42,0.03,9.62c-1.03-0.56-2.05-0.58-3.04,0.1
		c-0.05-1.18-0.52-2.12-1.53-2.77c1.06-2.4-0.96-3.85-1.74-5.69C222.27,95.57,222.29,95.19,222.32,94.81z"/>
	<path class="st8" d="M188.57,45.23c1.43,1.34,4.09-0.45,5.09,1.99c-1.14,1.26-3.45,1.42-3.49,3.71c-0.62-0.73-1.23-1.47-1.85-2.2
		C188.4,47.57,188.48,46.4,188.57,45.23z"/>
	<path class="st4" d="M188.31,48.73c0.62,0.73,1.23,1.47,1.85,2.2c0.4,0.01,0.8,0.01,1.2,0.02c-0.01,0.99-0.03,1.99-0.04,2.98
		c-0.11,1.35-0.7,2.26-2.17,2.35c-0.36-1.42-0.73-2.85-1.09-4.27C188.14,50.92,188.23,49.83,188.31,48.73z"/>
	<path class="st8" d="M161.28,45.37c0.35,0.08,0.7,0.17,1.04,0.25c-1.46,1.86-3.56,0.67-5.31,1.14c-0.72,0.03-1.44,0.06-2.16,0.09
		c-4.59,0-9.17,0.01-13.76,0.01c-0.41-0.07-0.82-0.14-1.23-0.21c2.97-2.42,6.53-0.46,9.72-1.29
		C153.49,45.37,157.39,45.37,161.28,45.37z"/>
	<path class="st1" d="M107.93,231.7c-0.01,0.29-0.02,0.58-0.04,0.87c-1.55-0.01-3,0.14-3.21,2.14c-1.03,0.76-2.06,1.53-3.09,2.29
		c0.31-2.54,0.63-5.08,0.94-7.62c2.91-0.3,7.09,1.32,6.44-4.3c1.34-3.06,1.73-6.3,2.18-9.59c1.2-8.65-2.23-17.06-1.11-25.67
		c2.74-0.67,2.96,1.99,4.27,3.22c0.35,0.36,0.7,0.71,1.05,1.07c0.37,4.15,0.81,8.3,1.07,12.45c0.14,2.19,1.46,2.52,3.18,2.52
		c0,0.71,0.01,1.42,0.01,2.12c-3.61,0.49-1.65,4.01-3.17,5.86c-4.66,5.64-4.01,6.91,3.22,8.02c0.59,1.18,1.46,2.09,2.84,2.07
		c7.62-0.14,15.37,0.44,22.82-0.77c5.94-0.96,11.74,0.37,17.67-0.23c3.43-0.35,8.14,0.09,12.17,0.95c-0.79,1.94-4.31,0.4-4.3,3.36
		c-6.73,1.22-13.53,1.17-20.33,1c-4.05-1.8-8.05-3.81-12.71-3.14c-0.51,0.07-1.72-0.07-0.5,0.93c0.44,0.36,1.46-0.02,1.33,1.19
		c-3.49,0-6.99,0-10.48,0c-5.96,0-11.91-0.04-17.87,0.06C109.52,230.51,107.74,229.42,107.93,231.7z"/>
	<path class="st6" d="M190.17,246.41c-2.39-2.12-2.17-4.23-0.01-6.36c3.09-2.61,6.21-5.19,8.54-8.55c1.94,1.68,3.8,3.41,3.04,6.38
		c-1.53,0.01-2.97,0.16-3.01,2.21c-2.5,2.1-5.01,4.21-7.51,6.31c0,0-0.52,0.03-0.52,0.03L190.17,246.41z"/>
	<path class="st8" d="M104.68,234.71c0.21-2,1.65-2.15,3.21-2.14c3.06,2.82,6.05,5.73,9.22,8.41c1.38,1.17,1.79,2.04,0.41,3.36
		C111.81,244.19,105.8,239.69,104.68,234.71z"/>
	<path class="st1" d="M191.34,228.22c-1.91,0.43-4.11-0.68-6.17,1.22c3.68,2.42,8.11-0.61,11.39,2.05c-4.26-0.51-8.68,1.08-12.81-1
		c-1.34-2.63-6.84,0.96-6.42-4.3c1.06-0.02,2.11-0.04,3.17-0.06c3.59-4.22,7.17-0.14,10.76,0.01
		C191.29,226.83,191.31,227.53,191.34,228.22z"/>
	<path class="st6" d="M104.68,234.71c1.12,4.98,7.13,9.48,12.84,9.63c-0.36,1.09-0.72,2.18-1.07,3.27
		c-0.72,0.32-1.44,0.64-2.15,0.96c-0.65-2.13-4.07-0.46-4.32-3.15c-2.04-3.13-4.56-5.65-8.35-6.55c-0.01-0.62-0.02-1.24-0.04-1.86
		C102.63,236.24,103.66,235.48,104.68,234.71z"/>
	<path class="st2" d="M128.19,230.43c3.5,0,6.99,0,10.48,0c0.13-1.2-0.89-0.83-1.33-1.19c-1.22-1-0.01-0.86,0.5-0.93
		c4.66-0.67,8.66,1.34,12.71,3.14c-7.47-0.01-14.95-0.03-22.42-0.04C128.18,231.09,128.2,230.76,128.19,230.43z"/>
	<path class="st11" d="M177.34,226.2c-0.42,5.26,5.08,1.67,6.42,4.3c-4.29-0.01-8.58-0.02-12.87-0.03c-0.01-2.96,3.51-1.42,4.3-3.36
		c0.09-1.35,0.85-1.98,2.16-2.01C177.34,225.46,177.34,225.83,177.34,226.2z"/>
	<path class="st6" d="M128.19,230.43c0,0.33-0.02,0.66-0.06,0.99c-6.74,0.09-13.47,0.18-20.21,0.28c-0.18-2.29,1.59-1.19,2.4-1.21
		C116.28,230.39,122.24,230.44,128.19,230.43z"/>
	<path class="st5" d="M191.34,228.22c-0.03-0.69-0.06-1.39-0.09-2.08c0.01-0.33,0.01-0.67,0.01-1c1.94-0.4,3.74-0.87,4.27-3.25
		c0.72-3.21,3.45-3.64,5.82-2.99c3.85,1.05,7.71,1.08,11.53,0.77c5.1-0.42,6.76,1.8,6.12,6.49c-0.34,0.35-0.68,0.71-1.02,1.06
		c-4.3,0.02-8.6,0.03-12.9,0.05C200.51,227.5,196,228.9,191.34,228.22z"/>
	<path class="st10" d="M205.09,227.26c4.3-0.02,8.6-0.03,12.9-0.05c0.72,3.9,1.45,7.79,2.17,11.69c-0.39,0.03-0.77,0.06-1.16,0.08
		c-4.17-2.91-8.55-5.14-13.87-4.29C205.12,232.22,205.11,229.74,205.09,227.26z"/>
	<path class="st6" d="M220.16,238.91c-0.72-3.9-1.45-7.79-2.17-11.69c0.34-0.35,0.68-0.71,1.02-1.06c2.01-2.27,0.73-4.99,1.03-7.5
		c0.04-2.14,0.08-4.28,0.11-6.43c3.48,1.32,4.99-1.83,7.27-3.22c0.06,0.75,0.12,1.5,0.19,2.25c0.01,1.41,0.01,2.82,0.02,4.23
		c-1.94,1.3-6.24-4.33-6.4,2.19c0.03,2.46-0.66,5.01,0.95,7.26c-0.15,1.03-0.25,2.07-0.47,3.08c-1.57,7.08-1.16,7.83,5.53,9.95
		c0.95,0.3,1.22,1.14,1.5,1.97c0,0-0.3,0.33-0.31,0.33C225.68,239.81,222.92,239.36,220.16,238.91z"/>
	<path class="st1" d="M205.13,234.7c5.33-0.84,9.71,1.38,13.87,4.29c-3.28,1.77-6.82,1.11-10.24,0.9
		C205.71,239.69,204.77,237.53,205.13,234.7z"/>
	<path class="st10" d="M191.22,246.41c2.5-2.1,5.01-4.21,7.51-6.31c1.04-0.03,2.08-0.07,3.12-0.1c1.78,2.91,1.57,5.03-2.4,4.94
		C196.56,244.86,194.23,247.47,191.22,246.41z"/>
	<path class="st5" d="M201.85,239.99c-1.04,0.03-2.08,0.07-3.12,0.1c0.03-2.06,1.47-2.2,3.01-2.21
		C201.78,238.58,201.82,239.29,201.85,239.99z"/>
	<path class="st10" d="M213.69,245.36c-0.72,0-1.45,0.01-2.17,0.01c0.17-0.76,0.19-1.8,1.31-1.55
		C213.21,243.91,213.4,244.82,213.69,245.36z"/>
	<path class="st9" d="M228.74,239.93c-0.28-0.82-0.55-1.67-1.5-1.97c-6.68-2.11-7.1-2.87-5.53-9.95c0.22-1.01,0.32-2.05,0.47-3.08
		c1.21,0.03,2.42,0.07,3.62,0.1c0.14,0.68,0.19,1.9,0.45,1.95c4.57,0.84,5.84,5.25,8.79,7.74c3.23,2.73,4.17,5.65,4.04,9.43
		c-1.22,0.07-3.19,0.25-3.29-0.8C235.28,238.04,231.38,240.41,228.74,239.93z"/>
	<path class="st1" d="M225.81,225.03c-1.21-0.03-2.42-0.07-3.62-0.1c-1.61-2.25-0.92-4.8-0.95-7.26c2.84-0.68,4.54,2.76,7.39,2.07
		C228.55,221.96,229.14,224.54,225.81,225.03z"/>
	<path class="st2" d="M228.62,219.74c-2.85,0.69-4.54-2.75-7.39-2.07c0.15-6.52,4.46-0.89,6.4-2.19
		C229.13,216.63,228.45,218.28,228.62,219.74z"/>
	<path class="st9" d="M63.4,245.2c0.01-2.8,14.14-17.36,16.71-19.1c1.93,2.67,0.68,5.78,1.18,8.64c-0.08,1.34-0.16,2.69-0.24,4.03
		c-3.68,0.31-6.83,2.81-10.65,2.54c-0.89-0.06-1.93,0.03-1.76,1.28C69.49,248.74,65.98,246.01,63.4,245.2z"/>
	<path class="st10" d="M81.06,238.77c0.08-1.34,0.16-2.69,0.24-4.03c0.47-0.2,1.36-0.41,1.36-0.61c0.01-6.97,4.99-5.88,9.34-5.83
		c1.74,0.02,3.49,0.02,5.23,0.03c-0.02,2.48-0.04,4.96-0.05,7.43c-4.03-1.29-7.33,0.18-10.61,2.44
		C85.01,239.27,83.16,241.34,81.06,238.77z"/>
	<path class="st12" d="M97.18,235.76c0.02-2.48,0.04-4.96,0.05-7.43c1.87-0.17,3.68-0.01,5.3,1.06c-0.31,2.54-0.63,5.08-0.94,7.62
		c0.01,0.62,0.03,1.24,0.04,1.86c-0.06,0.75-0.12,1.5-0.19,2.25c-1.93,0.66-2.69,3.45-5.76,2.85
		C96.62,241.28,97.74,238.62,97.18,235.76z"/>
	<path class="st11" d="M101.45,241.11c0.06-0.75,0.12-1.5,0.19-2.25c3.79,0.9,6.31,3.43,8.35,6.55
		C106.22,245.8,104.65,241.83,101.45,241.11z"/>
	<path class="st7" d="M222.32,94.81c-0.03,0.38-0.05,0.76-0.08,1.14c-2.05,0.81-4.19,0.88-6.36,0.73c-2.1-3.71-6.27-2.56-8.15-1.52
		c-4.44,2.46-3.5-0.57-3.84-2.73c0.79-1.33,1.57-2.65,2.36-3.98c1.87-2.58,0.75-5.56,1.09-8.34c4.24-0.17,8.48-0.35,12.72-0.52
		c1.47,0.26,2.46,1.15,3.16,2.42c-0.36,2.68-2.43,2.09-4.11,2.09c-3.31,0.02-6.65-0.23-9.88,1.66c4.17,0,8.33,0.08,12.5-0.06
		c1.05-0.03,2.16-0.61,2.9,0.44c1.25,1.77-0.72,1.77-1.43,2.57C221.64,90.48,222.32,92.73,222.32,94.81z"/>
	<path class="st5" d="M207.34,80.1c-0.34,2.78,0.79,5.76-1.09,8.34c-1.19-1.86-3.33-0.74-4.84-1.55c-3.36-1.81-4.86-5.15-4.9-8.45
		c-0.02-1.43,3.29-2.09,5.41-0.79c0.38,0.39,0.59,1.36,1.36,0.39c-0.45-0.13-0.91-0.26-1.36-0.39c0.8-1.27,3.41-2.95,2.26-3.6
		c-3.81-2.17-0.97-3.89-0.37-5.97c1.37-4.79-2.08-10.46-5.85-9.35c-3.19,0.94-5.86-0.2-8.77-0.34l-0.13,0.05
		c0.03-0.72,0.07-1.43,0.1-2.15c1.47-0.09,2.07-0.99,2.17-2.34c0.68,0.06,1.37,0.11,2.05,0.16c1.1,1.44,2.17,1.43,3.19-0.09
		c1.05,0.04,2.1,0.08,3.15,0.12c1.43-0.01,2.87-0.01,4.3-0.02C205.44,62.74,207.28,71.31,207.34,80.1z"/>
	<path class="st11" d="M191.36,50.95c-0.4-0.01-0.8-0.01-1.2-0.02c0.04-2.29,2.35-2.45,3.49-3.71c1.32,0.09,2.64,0.19,3.96,0.28
		c0.04,0.41,0.07,0.82,0.11,1.23C195.66,49.66,193.81,51.16,191.36,50.95z"/>
	<path class="st13" d="M191.36,50.95c2.45,0.21,4.3-1.3,6.35-2.22c2.37,1.17,2.21,3.28,2,5.4c-1.05-0.04-2.1-0.08-3.15-0.12
		c-1.1-1.24-2.16-1.22-3.19,0.09c-0.68-0.05-1.37-0.11-2.05-0.16C191.33,52.94,191.35,51.95,191.36,50.95z"/>
	<path class="st5" d="M219.1,140.73c-0.01,4.96-0.03,9.91-0.04,14.87c-0.02,5.35-0.04,10.7-0.06,16.05
		c0.33,4.99,0.65,9.99,0.98,14.98c-0.7,0.71-1.39,1.41-2.09,2.12c-6.4-0.84-12.79-3.01-19.18,0.03c-0.37,0.67-0.74,1.34-1.1,2.01
		c-0.75,0.03-1.49,0.07-2.24,0.1c-1.27-2.61-3.31-1.36-5.16-1.03c-0.03-0.35-0.07-0.7-0.1-1.05c0.02-1.08,0.03-2.15,0.05-3.23
		c-2.16-4.18-6.76-1.12-9.61-3.23c-0.01-0.72-0.01-1.43-0.02-2.15c0.01-0.7,0.02-1.4,0.02-2.11c1.08-0.01,2.15-0.01,3.23-0.02
		c0.35,0,0.7,0,1.05,0.01c1.07,1.38,2.55,1.95,4.22,2.15c4.3-2.97,4.3-4.58,0-6.94c-1.18-0.65-2.56-0.71-3.18-2.45
		c-1.19-3.35-3.98-4.62-7.44-4.51c-0.01-0.37-0.03-0.74-0.04-1.1c0.15-0.09,0.29-0.18,0.44-0.27c-0.16-0.21-0.33-0.43-0.49-0.64
		c-0.71-0.38-1.41-0.76-2.12-1.14c-0.32-3.93-2.87-5.64-6.36-6.41l0.03-0.05c0.55-1.61,1.3-3.29-0.56-4.56
		c-2.56-1.75-0.37-2.76,0.56-3.99c1,0.01,2,0.01,3.01,0.02c-1.22,4.79,4.01,5.07,5.54,7.95c-0.32,1.94,1.79,3.37,1.12,5.38
		c0.12,0.88,0.4,1.32,1.15,0.4c2.21-0.77,1.66,3.57,4.17,2.25c1.22,5.11,6.37,5.33,9.72,7.79c3.63,2.83,6.74,2.28,9.36-1.45
		c0.03-1.38,0.07-2.77,0.1-4.15c0-0.72,0.01-1.45,0.01-2.17c-0.02-2.13-0.05-4.25-0.07-6.38c0-0.72,0-1.44,0-2.16
		c0.04-3.2,0.08-6.4,0.12-9.6c3.54,2.9,8.37,3.74,11.42,8.51c1.07-4.42-0.85-7.8,1.34-10.86c0.62-0.86-1.35-1.24-1.97-1.97
		c-0.81-0.95-3.21-2-0.13-3.17c0.14,0.08,0.29,0.16,0.43,0.24c-0.14-0.08-0.29-0.16-0.43-0.24c0.05-0.82,0.1-1.65,0.16-2.47
		c1.03,0.11,2.06,0.22,3.09,0.33c0,0-0.04-0.05-0.04-0.05c-0.12,0.95,0.15,1.72,1.06,2.17C219.03,139.26,219.07,140,219.1,140.73z"
		/>
	<path class="st6" d="M185.88,109.69c-1.12,5.28-5.36,6.44-9.72,6.74c-1.68,0.11-2.88,0.72-4.33,1.16
		c-4.77,1.46-7.09,3.87-6.47,9.35c0.34,3.02-1.3,5.53-5.76,4.37c-3.14-0.82-7.02-0.7-7.9,4.04c-3.41-0.18-4.27,4.1-7.48,4.27
		c-2.4,0.78-2.42,0.79-3.76-1.33c-0.93-1.47-2.73-0.23-4.1-1.54c1.7-0.51,3.18-0.95,4.66-1.39c3.82,2.31,3.99-1.44,5.34-3.22
		c2.37-4.45,0.43-9.15,1.19-14.35c-2.98,4.68-2.45-1.82-4.52-0.28c0.7,3-1.53,7.71,1.01,9.13c3.07,1.71,1.83,3.62,2.32,5.51
		c-1.98-1.27-4.21-1.11-6.41-1.07c-0.6-0.33-1.17-0.88-1.81-0.97c-6.59-0.9-6.6-0.88-5.32-8.1c0.77-4.33-2.13-6.13-8.34-5.15
		c-3.73,0.59-7.3,0.94-8-4.21c1.82,0.35,3.31,1.36,5.52,0.92c9.48-1.87,19.14,1.62,28.67-0.63c4.42,2.34,9.15,0.5,13.7,1.03
		c3.29,0.38,6.6-0.27,9.84-0.41c3.05-0.13,6.97-1.07,8.45-4.96c0.43,0.01,0.86,0.02,1.29,0.03
		C184.6,108.98,185.24,109.34,185.88,109.69z M141.02,118.7c-0.16-1.33,0.35-3.28-1.61-3.28c-1.96,0-1.63,1.95-1.55,3.24
		c0.08,1.36-0.71,3.65,1.79,3.44C141.54,121.94,140.79,119.93,141.02,118.7z M136.26,115.94c-0.89,1.59-0.77,3-0.12,4.63
		C137.04,118.97,136.91,117.57,136.26,115.94z M139.83,126.66c0.19-0.27,0.5-0.62,0.69-1.04c0.03-0.07-0.52-0.59-0.68-0.54
		c-0.44,0.16-1.05,0.42-1.17,0.79C138.44,126.54,139.06,126.63,139.83,126.66z"/>
	<path class="st1" d="M108.62,168.37c-0.27,0.3-0.54,0.6-0.81,0.9c-0.4,0.39-0.81,0.78-1.21,1.17c-1.12,0.1-2.32,0-3,1.2
		c-2.32,1.66-4.64,3.35-7.46,0.91c2.26-6.58,0.69-13.37,1.01-20.05c0.29-6.19,1.27-7.42,7.51-7.52c3.38-0.05,6.77,0.21,10.12-0.09
		c1.95-0.18,4.32,1.45,5.89-1.02c-6.75-1.66-13.5-1.68-20.24,0.01c-1.78,0.36-3.57,0.73-5.35,1.09c1.09-3.08,3.44-4.17,6.52-4.33
		c5.2-0.27,10.4-0.8,15.61-0.97c7.47-0.25,10.31,4.07,7.73,11.47c0,0,0.03,0.2,0.03,0.2c-0.36,0.36-0.71,0.72-1.07,1.07l-0.01,0.02
		c-0.52,0.35-1.05,0.71-1.57,1.06c-0.29,0.09-0.47,0.27-0.56,0.56c-0.35,0.52-0.7,1.05-1.06,1.57l-0.02,0.02
		c-0.35,0.35-0.7,0.7-1.05,1.05c0,0-0.02,0.01-0.02,0.01c-1.25,0.26-1.94,1.21-2.64,2.14c-0.25,0.11-0.43,0.29-0.53,0.53
		c-1.86,0.67-3.39,1.62-3.29,3.93c-0.02,0.2-0.02,0.4,0,0.59C110.75,164.5,110.16,166.91,108.62,168.37z"/>
	<path class="st13" d="M131.37,155.59c12.81,1.23,25.74-1.78,38.5,1.12c0,0-0.03,0.05-0.03,0.05c0.71,3.06,2.61,5.12,5.39,6.45
		c-0.37,2.26-1.84,2.38-3.34,1.38c-2.11-1.4-4.17-0.97-6.31-0.39c-13.5-0.04-27,0.07-40.46,1.73c3.28,0.39,6.56,0.28,9.84,0.44
		c1.75,0.09,4.08-1.05,4.95,1.73c-2.11,0.13-4.22,0.27-6.33,0.4c-5.22,1.54-11-1.03-16,2.16c1.9-5.64,7.53-8.21,10.57-12.92
		c0.83-0.45,1.09-1.21,1.16-2.08l-0.01,0.02C129.98,155.65,130.67,155.62,131.37,155.59z"/>
	<path class="st12" d="M178.41,156.13c-1.53-2.87-6.76-3.16-5.54-7.95c0.07-1.44,0.14-2.87,0.21-4.31c0.01-0.32,0.02-0.64,0.04-0.95
		c0.69-0.04,1.38-0.07,2.08-0.11c1.43,0,2.87,0,4.3,0c6.05,0,12.09,0,18.14,0c2.13,0.37,4.25,0.73,6.38,1.1
		c0.02,0.71,0.05,1.41,0.07,2.12c-0.04,3.2-0.08,6.4-0.12,9.6c-5.38-0.44-10.79-0.01-16.2-0.85c-2.27-0.35-5.83-2.08-7.24,2.02
		C179.82,156.58,179.11,156.35,178.41,156.13z"/>
	<path class="st5" d="M144.22,139.62c3.21-0.17,4.07-4.46,7.48-4.27c0.33,0.59,0.76,1.73,0.97,1.69c5.93-1.08,7.95,4.73,13.62,7.02
		c-6.31,0.33-9.07,3.53-11.39,7.31l0,0c-6.42,5.06-8.87,0.18-10.87-4.67c-3.07,0.78-0.78,3.37-2.76,4.95
		c-1.55-3.04-2.73-5.47,0.71-7.96C143.24,142.77,145.34,141.98,144.22,139.62z"/>
	<path class="st13" d="M182.67,108.59c-1.49,3.88-5.41,4.83-8.45,4.96c-3.24,0.14-6.55,0.79-9.84,0.41
		c-4.42-2.33-9.15-0.46-13.7-1.03c-9.53,2.25-19.18-1.24-28.67,0.63c-2.21,0.44-3.7-0.57-5.52-0.92c-0.31-0.27-0.63-0.54-0.94-0.81
		c-0.12-0.69-0.23-1.37-0.34-2.06c3.91-0.09,7.93,0.2,10.83-3.24c0.36-0.01,0.72-0.02,1.08-0.02c-0.65,3.63,0.57,4.81,4.44,4.38
		c4.53-0.5,9.16-0.12,13.75-0.13c2.49,2.62,4.98-0.55,7.47,0c3.73,0,7.48-0.26,11.17,0.08c4.3,0.39,7.55-0.6,9.17-4.92
		c3.58-0.04,7.17-0.09,10.75-0.13c-0.08,0.59-0.16,1.18-0.24,1.77C183.3,107.9,182.98,108.25,182.67,108.59z"/>
	<path class="st5" d="M92.95,164.19c-3.32-0.74,1.59-2.39-0.85-3.46c-1.51,1.84-5.25,1.37-5.49,5.56c-1.57-3.64-4.18-5.42-7.45-6.39
		c-0.03-5.39-0.09-10.78-0.08-16.16c0-1.51-0.39-3.2,1.29-4.22c0.62-0.44,1.24-0.89,1.87-1.33c0.29,1.09,1.12,1.36,2.1,1.41
		c1.74,1.22,2.89-0.4,4.31-0.83c1.17-0.35,2.5-0.54,3.55,0.29c1.74,1.38-0.61,2.34-0.49,3.63c0.21,2.28-1.65,1.13-2.45,1.13
		c-4.61,0.02-6.26,1.93-4.49,6.37c0.12,0.31,0.08,0.69,0.16,1.03c0.6,2.71-2.52,6.4,0.9,7.99c2.22,1.03,5.48-0.17,8.27-0.37
		c-0.01,1.78-0.02,3.56-0.03,5.34C93.68,164.18,93.31,164.19,92.95,164.19z"/>
	<path class="st12" d="M94.05,164.17c0.01-1.78,0.02-3.56,0.03-5.34c-0.01-0.69-0.01-1.38-0.02-2.08c0.02-1.08,0.03-2.16,0.05-3.24
		c1.37-1.27,0.87-2.86,0.76-4.38c0.07-1.39,0.14-2.78,0.21-4.17c1.78-0.36,3.57-0.73,5.35-1.09c6.75,0,13.5-0.01,20.24-0.01
		c-1.57,2.46-3.94,0.84-5.89,1.02c-3.35,0.3-6.75,0.04-10.12,0.09c-6.23,0.1-7.22,1.33-7.51,7.52c-0.31,6.68,1.26,13.47-1.01,20.05
		C93.48,170.25,96.26,166.59,94.05,164.17z"/>
	<path class="st1" d="M179.49,142.81c-1.43,0-2.87,0-4.3,0c0.03-1.93,1.62-2.51,2.91-2.45c6.67,0.34,13.15-2.46,19.94-0.86
		c2.87,0.67,4.98,1.57,5.97,4.41c-2.13-0.37-4.25-0.73-6.38-1.1C191.59,141.09,185.54,141.13,179.49,142.81z"/>
	<path class="st14" d="M106.85,76.59c0.7-0.01,1.06,13.42,3.08,17.11c0.02,2.15,0.04,4.29,0.06,6.44c0,0.28,0,0.57,0,0.85l0.03,0.12
		c-0.4,0.36-0.8,0.71-1.19,1.07c-0.29,0.02-0.58,0.02-0.87,0.01c-0.37-0.36-0.73-0.71-1.1-1.07
		C106.86,92.94,106.85,84.76,106.85,76.59z"/>
	<path class="st5" d="M129.29,155.66c-0.08,0.87-0.34,1.63-1.16,2.08c-3.49-1.16-5.96,3.76-9.61,1.61c0.7-0.75,1.26-1.55,1.07-2.66
		c0,0,0.02-0.01,0.02-0.01c0.35-0.35,0.7-0.7,1.05-1.05c0,0,0.02-0.02,0.02-0.02c0.76-0.25,1.02-0.84,1.06-1.57
		c0.09-0.28,0.28-0.47,0.56-0.56c0.52-0.35,1.05-0.71,1.57-1.06c0,0,0.01-0.02,0.01-0.02c0.36-0.36,0.71-0.71,1.07-1.07
		c0,0-0.03-0.19-0.03-0.2c3.24-0.1,5.49,1.23,6.43,4.45c-0.69,0.03-1.39,0.06-2.08,0.09c-0.39-0.37-0.58-1.4-1.38-0.41
		C128.37,155.4,128.83,155.53,129.29,155.66z"/>
	<path class="st8" d="M86.53,130.01c1.37-2.25,2.52-4.58,2.43-7.32c2.01-0.29,3.27,0.54,2.74,2.59c-0.84,3.21,1.1,7.76-4.07,9.02
		C87.32,132.85,88.13,131.12,86.53,130.01z"/>
	<path class="st1" d="M98.55,48.59c0.98-0.28,1.95-0.55,2.93-0.83c-0.02,0.36-0.03,0.73-0.05,1.09c-0.99,1.63,2.81,4.26-0.83,5.12
		c-2.27,0.53-5.14,0.74-5.47-2.97C96.26,50.19,97.4,49.39,98.55,48.59z"/>
	<path class="st9" d="M86.53,130.01c1.6,1.12,0.8,2.84,1.09,4.29c-0.75,0.68-1.5,1.35-2.26,2.03c-1.39,0.04-2.42,0.68-3.14,1.86
		c-0.62,0.44-1.24,0.89-1.87,1.33c-2.51-3.32,2.4-3.8,2.36-6.17c1.77-0.25,2.55-1.5,3.03-3.04
		C86.02,130.24,86.28,130.14,86.53,130.01z"/>
	<path class="st5" d="M137.54,141.5c-1.08,1.72-2.77,2.09-4.21,1.93c-1.64-0.19-2.91-1.57-2.76-3.37c0.14-1.69,1.71-1.48,2.94-1.46
		C135.55,138.62,136.65,139.88,137.54,141.5z"/>
	<path class="st5" d="M146.35,132.13c-1.35,1.78-1.52,5.53-5.34,3.22c-1.24-1.21-2.54-2.4-1.07-4.29
		C142.15,131.03,144.37,130.87,146.35,132.13L146.35,132.13z"/>
	<path class="st8" d="M115.19,109.77c0.11,0.69,0.23,1.37,0.34,2.06c-5.33,1.25-7.11-1.86-7.79-6.33c0.06-0.43,0.12-0.85,0.17-1.28
		c0.36,0.05,0.73,0.11,1.09,0.16c0.29,0.02,0.57,0.04,0.85,0.06C110.36,107.51,111.1,110.31,115.19,109.77z"/>
	<path class="st5" d="M171.17,141.36c-3.2,0.26-5.51,1.35-7.32-0.7c-0.77-0.88,0.21-2.8,0.59-2.77
		C166.69,138.07,168.89,138.69,171.17,141.36z"/>
	<path class="st8" d="M183.62,107.55c0.08-0.59,0.16-1.18,0.24-1.77c1.02-0.12,2.04-0.24,3.06-0.36c1.29,0.77,1.01,2.03,1.01,3.2
		c-0.68,0.36-1.37,0.72-2.05,1.07c-0.64-0.36-1.29-0.71-1.93-1.07C183.84,108.27,183.73,107.91,183.62,107.55z"/>
	<path class="st8" d="M98.55,48.59c-1.14,0.8-2.28,1.61-3.43,2.41c-0.75-0.03-1.5-0.06-2.25-0.09c0-1.15-0.15-2.36,0.99-3.15
		C95.45,47.85,97.1,47.64,98.55,48.59z"/>
	<path class="st6" d="M170.93,134.27c2.13-0.15,3.88,0.77,6.64,1.97C173.96,137.45,171.67,138.06,170.93,134.27L170.93,134.27z"/>
	<path class="st8" d="M101.43,48.85c0.02-0.36,0.03-0.73,0.05-1.09c1.02-2.23,2.1-0.23,3.15-0.04c0.42-0.05,0.84-0.1,1.26-0.15
		c-0.01,0.74-0.02,1.47-0.03,2.21c-0.04,0.74-0.08,1.47-0.12,2.21c0,0,0-0.01,0-0.01C104.43,50.76,103.32,49.26,101.43,48.85z"/>
	<path class="st6" d="M107.92,104.22c-0.06,0.43-0.12,0.85-0.17,1.28c-4.83-0.55-1.68-2.7-0.88-4.38c0.37,0.36,0.73,0.71,1.1,1.07
		C107.94,102.86,107.93,103.54,107.92,104.22z"/>
	<path class="st10" d="M94.87,149.13c0.11,1.52,0.61,3.11-0.76,4.38c-0.39-0.01-0.79-0.01-1.18-0.02
		C93.08,151.82,92.27,149.72,94.87,149.13z"/>
	<path class="st8" d="M82.22,138.19c0.72-1.18,1.75-1.82,3.14-1.86c-0.35,1.09-0.69,2.18-1.04,3.27
		C83.34,139.55,82.51,139.27,82.22,138.19z"/>
	<path class="st5" d="M166.65,147.1c1.38-0.58,2.94-1.69,3.2,1.07C168.68,148.13,167.43,148.33,166.65,147.1L166.65,147.1z"/>
	<path class="st5" d="M166.65,147.1c-1.01,0-2.01,0-3.02,0C164.66,146.59,165.83,143.84,166.65,147.1L166.65,147.1z"/>
	<path class="st5" d="M129.94,144.24c-0.44,0.19-0.88,0.53-1.32,0.52c-0.59,0-0.95-0.51-0.51-1.01c0.29-0.32,0.89-0.41,1.37-0.49
		C129.56,143.25,129.74,143.81,129.94,144.24z"/>
	<path class="st5" d="M92.93,153.5c0.39,0.01,0.79,0.01,1.18,0.02c-0.02,1.08-0.03,2.16-0.05,3.24
		C92.78,155.98,92.96,154.71,92.93,153.5z"/>
	<path class="st8" d="M91.83,51.98c0.36-0.37,0.72-0.73,1.08-1.1C92.65,51.35,93.49,52.89,91.83,51.98z"/>
	<path class="st6" d="M168.01,134.69c-0.04,0.13-0.09,0.35-0.13,0.36c-0.14,0-0.29-0.08-0.43-0.13c0.04-0.13,0.09-0.35,0.13-0.36
		C167.72,134.56,167.87,134.64,168.01,134.69z"/>
	<path class="st1" d="M173.11,142.92c-0.02,0.32-0.03,0.64-0.04,0.95c-0.14-0.24-0.28-0.48-0.41-0.73
		C172.81,143.08,172.96,143,173.11,142.92z"/>
	<path class="st6" d="M170.93,134.27c-0.15-0.08-0.29-0.16-0.44-0.24C170.64,134.11,170.78,134.19,170.93,134.27
		C170.93,134.27,170.93,134.27,170.93,134.27z"/>
	<path class="st5" d="M154.9,151.37c0.14,0.08,0.29,0.16,0.43,0.24C155.19,151.53,155.04,151.45,154.9,151.37
		C154.9,151.37,154.9,151.37,154.9,151.37z"/>
	<path class="st9" d="M189.81,96.25c-0.14-1.46-0.28-2.93-0.43-4.39c4.83,0.35,9.76-1.97,14.51,0.57c0.34,2.16-0.6,5.19,3.84,2.73
		c1.88-1.04,6.06-2.19,8.15,1.52c-2.07,1.98-4.9,0.77-7.22,1.71c-0.26,0.02-0.51,0.04-0.77,0.06c0.22,0.13,0.44,0.26,0.66,0.39
		c-0.01,0.46-0.02,0.91-0.04,1.37c-1.83,0.75-5.15-2.69-5.56,2c-0.03,0.66-0.06,1.32-0.09,1.99c-2.96-1.65-6.08-1.89-9.32-1.03
		C193.32,100.3,192.18,97.94,189.81,96.25z"/>
	<path class="st8" d="M170.93,101.16c4.13-2.06,8.57-0.45,12.82-1.06c1.76,0.43,5.17-1.03,3.67,3.18
		c-5.45,0.06-10.9,0.12-16.35,0.18C171.03,102.68,170.98,101.92,170.93,101.16z"/>
	<path class="st7" d="M171.08,103.45c5.45-0.06,10.9-0.12,16.35-0.18c-0.17,0.72-0.34,1.43-0.51,2.15
		c-1.02,0.12-2.04,0.24-3.06,0.36c-3.58,0.04-7.17,0.09-10.75,0.13C172.03,105.42,170.73,105.11,171.08,103.45z"/>
	<path class="st1" d="M196.59,117.13c-0.59,1.43-1.65,2.17-3.2,2.19c0.01-1.54-0.17-3.26,1.74-3.81
		C196.3,115.18,196.39,116.32,196.59,117.13z"/>
	<path class="st9" d="M219,138.53c-0.91-0.45-1.18-1.22-1.06-2.17C218.88,136.8,219.01,137.63,219,138.53z"/>
	<path class="st8" d="M202.96,102.2c0.4-4.69,3.73-1.26,5.56-2c1.03,0.37,2.07,0.74,3.1,1.11c0.07,1.94-4.42,1.78-2.17,4.71
		c0,0.53,0,1.06,0,1.59c-1.12,0.29-1.76,1.08-2.23,2.06c-0.69-0.36-1.38-0.72-2.07-1.08C204.42,106.47,206.78,103.28,202.96,102.2z"
		/>
	<path class="st2" d="M207.22,109.68c0.47-0.99,1.11-1.78,2.23-2.06c0.7,1.2,2.08,0.92,3.77,1.37c-2.05,0.74-3.51,1.26-4.97,1.79
		C207.91,110.41,207.56,110.04,207.22,109.68z"/>
	<path class="st2" d="M118.52,159.34c3.65,2.15,6.12-2.77,9.61-1.61c-3.04,4.71-8.67,7.28-10.57,12.92c0,0-0.01-0.03-0.01-0.03
		c-2.86,0.01-3.31,2.43-4.32,4.3c-1.45,1.78-2.9,3.57-4.35,5.35c-0.32-0.03-0.64-0.05-0.97-0.05c-3.24-1.52-2.57-2.68-0.05-4.6
		c2.11-1.61,5.54-3.26,3.25-7.14c0.71-0.72,1.41-1.44,2.12-2.15c0.92,0.22,1.95,1.45,2.76,0.27c1.2-1.77-0.81-2.24-1.63-3.18
		c1.39-0.99,2.53-2.12,2.06-4.06c0.11-0.25,0.29-0.42,0.53-0.53C117.48,159,118,159.17,118.52,159.34z"/>
	<path class="st12" d="M107.91,180.22c0.32,0.01,0.65,0.03,0.97,0.05c0.15,1.14-0.12,2.42,1.08,3.21c0.03,1.04,0.06,2.09,0.1,3.13
		c0,1.07-0.01,2.14-0.01,3.2c-1.11,8.61,2.31,17.02,1.11,25.67c-0.45,3.29-0.85,6.53-2.18,9.59c-0.05-1.75-0.1-3.5-0.15-5.25
		c0.65-2.64-1.05-4.97-0.99-7.53c-0.01-2.53-0.01-5.07-0.02-7.6c0.01-3.19,0.02-6.37,0.03-9.56c-0.03-1.75-0.06-3.49-0.09-5.24
		c0.02-1.44,0.04-2.89,0.06-4.33C107.85,183.79,107.88,182,107.91,180.22z"/>
	<path class="st6" d="M94.05,164.17c2.21,2.41-0.57,6.07,2.09,8.37c2.82,2.44,5.14,0.75,7.46-0.91c0.82,1.94,1.88,4.54-0.81,5.17
		c-2.67,0.62-6.07,2.8-8.45-1.25c-2.15-3.67-1.13-7.56-1.39-11.36C93.31,164.19,93.68,164.18,94.05,164.17z"/>
	<path class="st6" d="M113.23,166.33c-0.71,0.72-1.41,1.44-2.12,2.15c-0.83-0.04-1.65-0.08-2.48-0.11c1.53-1.46,2.13-3.87,4.51-4.48
		C113.28,164.7,112.12,165.56,113.23,166.33z"/>
	<path class="st6" d="M106.6,170.44c0.4-0.39,0.81-0.78,1.21-1.17C107.67,169.92,108.37,171.45,106.6,170.44z"/>
	<path class="st1" d="M107.82,204.7c0.01,2.53,0.01,5.07,0.02,7.6c-4.89,1.43-9.87,1.68-14.95,1.75c-2.42,0.04-3.21-0.32-3.14-2.58
		c0.35-0.07,0.68-0.17,1.01-0.31c3.25,0,6.5,0,10.6,0c-2.1-2.27-5.27-3.12-4.18-6.34c0.09-2.27,0.41-4.07,3.42-2.5
		C102.85,203.49,105.16,204.67,107.82,204.7z"/>
	<path class="st10" d="M86.52,201.59c0.18-1.28-0.36-3.08,1.92-2.89c0.37,0.03,0.95,0.62,0.98,0.99
		C89.61,201.98,87.78,201.38,86.52,201.59L86.52,201.59z"/>
	<path class="st10" d="M86.52,201.59c-0.43,0.46-0.87,0.92-1.3,1.38c-0.13-0.21-0.27-0.42-0.4-0.64
		C85.38,202.08,85.95,201.83,86.52,201.59L86.52,201.59z"/>
	<path class="st4" d="M125.98,61.63c1.07-3.15-2.07-7.25,2.2-9.67c0,6.89,0.04,13.77-0.02,20.66c-0.01,1.7,0.57,3.58-1,4.99
		C126.16,72.32,125.91,66.99,125.98,61.63z"/>
	<path class="st4" d="M105.89,47.57c-0.42,0.05-0.84,0.1-1.26,0.15c0.4-0.31,0.79-0.62,1.19-0.94
		C105.87,47.04,105.9,47.31,105.89,47.57z"/>
	<path class="st11" d="M127.08,100c0.01-0.33,0.03-0.66,0.04-0.98c2.06-1.78,0.73-4.38,1.61-6.53c2.53-6.17,7.42-7.65,13.37-7.45
		c1.41,0.07,2.82,0.13,4.23,0.2c0.27,2.59-0.55,5.34,1.25,9.13c0.85-3.91,1.42-6.51,1.99-9.11c1.38-0.12,2.76-0.24,4.15-0.35
		c1.23,0.2,2.44,0.35,3.31-0.86c0.53-0.02,1.08,0.03,1.59-0.08c7.76-1.74,7.88-1.45,8.32,6.83c0.15,2.82,0.4,6.05,2.94,8.23
		c0.03,0.87,0.22,1.66,1.06,2.13c0.05,0.76,0.1,1.53,0.15,2.29c-0.34,1.66,0.95,1.97,2.03,2.47c-1.63,4.32-4.87,5.31-9.17,4.92
		c-3.7-0.34-7.45-0.08-11.17-0.08c-1.89-4.78-4.72-9.18-5.49-14.53c1.13,5.24-2.21,9.67-1.98,14.53c-4.59,0-9.22-0.38-13.75,0.13
		c-3.87,0.43-5.09-0.75-4.44-4.38C131.62,104.31,128.71,102.16,127.08,100z"/>
	<path class="st13" d="M146.11,49.12c-2.07,0.64-4.1,0.77-6.21,0.72c0.4-0.99,0.8-1.98,1.19-2.97c4.59,0,9.17-0.01,13.76-0.01
		c0.12,1.45,0.82,2.47,2.21,2.97c1.98,0.15,3.05,1.23,3.25,3.2c-1.81,0-1.77,0.96-1.14,2.22C157.29,57.1,147.82,48.59,146.11,49.12z
		"/>
	<path class="st8" d="M142.17,83.04c3.53-0.03,7.07-0.07,10.6-0.1c0.33,0.09,0.66,0.2,0.99,0.33c-0.01,0.54-0.03,1.09-0.04,1.63
		c-1.38,0.12-2.76,0.24-4.14,0.35c-1.08-0.01-2.16-0.02-3.24-0.03c-1.41-0.07-2.82-0.13-4.23-0.2
		C142.13,84.37,142.15,83.71,142.17,83.04z"/>
	<path class="st8" d="M138.85,81.89c0.73,0.37,1.45,0.73,2.18,1.1C140.14,82.95,139.29,82.83,138.85,81.89z"/>
	<path class="st4" d="M127.13,84.05c0-0.35,0-0.7,0-1.05c0.45,0.17,0.91,0.35,1.36,0.52C128.04,83.7,127.58,83.87,127.13,84.05z"/>
	<path class="st4" d="M108.83,219.83c0.05,1.75,0.1,3.5,0.15,5.25c0.65,5.62-3.53,4.01-6.44,4.3c-1.63-1.07-3.43-1.23-5.3-1.06
		c-1.74-0.01-3.49-0.01-5.23-0.03c-4.35-0.05-9.33-1.14-9.34,5.83c0,0.2-0.89,0.41-1.36,0.61c-0.5-2.87,0.74-5.97-1.18-8.64
		c-0.02-2.11-0.04-4.22-0.07-6.34c7.82-1.99,15.65-1.85,23.52-0.22C105.27,219.89,107.08,219.75,108.83,219.83z"/>
	<path class="st1" d="M81.23,211.27c0.69,0.23,1.37,0.83,2.08,0.05c1.42,0.03,2.84,0.06,4.26,0.09c-1.6,3.89-3.03,3.92-7.54,0.17
		C80.43,211.47,80.83,211.37,81.23,211.27z"/>
	<path class="st9" d="M81.23,211.27c-0.4,0.1-0.8,0.2-1.2,0.3c-2.39-2,0.38-3.76,0.26-5.65C81.85,207.48,81,209.47,81.23,211.27z"/>
	<path class="st9" d="M87.57,211.4c-1.42-0.03-2.84-0.06-4.26-0.09c2.44-2.02,4.93-1.74,7.45-0.15c-0.33,0.14-0.66,0.24-1.01,0.31
		C89.02,211.45,88.29,211.43,87.57,211.4z"/>
	<path class="st9" d="M209.45,106.03c-2.25-2.94,2.24-2.78,2.17-4.71c4.11,0.59,8.22,0.7,12.36,0.33c1.01,0.65,1.49,1.59,1.53,2.77
		c-2.68,1.83-5.81,1.04-8.73,1.46c-2.03-2.04-3.87-2.12-5.43,0.54C210.72,106.28,210.09,106.15,209.45,106.03z"/>
	<path class="st8" d="M211.35,106.4c1.56-2.66,3.4-2.59,5.43-0.54c-0.71,0.66-1.43,1.32-2.14,1.98
		C213.53,107.41,212.06,107.78,211.35,106.4z"/>
	<path class="st10" d="M223.98,101.64c-4.13,0.38-8.25,0.26-12.36-0.33c-1.03-0.37-2.07-0.74-3.1-1.11
		c0.01-0.46,0.03-0.91,0.04-1.37c0,0,0.11-0.44,0.11-0.44c2.32-0.94,5.14,0.27,7.22-1.71c2.16,0.15,4.3,0.08,6.36-0.73
		C223.02,97.78,225.04,99.24,223.98,101.64z"/>
	<path class="st2" d="M160.32,53.01c-0.2-1.96-1.27-3.05-3.25-3.19c-0.02-1.02-0.04-2.04-0.05-3.06c1.75-0.46,3.86,0.72,5.31-1.14
		c0.73-0.01,1.46-0.02,2.19-0.03c1.76,2.86,4.67,5.01,5.35,8.55c0,5.34,0,10.68,0,16.02c0.01,4.64,0.02,9.28,0.02,13.92
		c-0.01,4.98-0.01,9.96-0.02,14.94c-2.54-2.17-2.79-5.41-2.94-8.22c-0.44-8.28-0.56-8.57-8.32-6.83c-0.51,0.11-1.06,0.06-1.59,0.08
		c3.16-3.49,8.05-5.87,7.49-11.73c0-1.08,0-2.15,0-3.23C166.94,62.61,165.58,57.43,160.32,53.01z"/>
	<path class="st10" d="M157.01,46.76c0.02,1.02,0.04,2.04,0.05,3.06c-1.39-0.5-2.09-1.52-2.21-2.97
		C155.58,46.82,156.3,46.79,157.01,46.76z"/>
	<path class="st4" d="M177.34,225.09c-1.31,0.03-2.07,0.66-2.16,2.01c-4.03-0.86-8.74-1.3-12.17-0.95
		c-5.93,0.6-11.72-0.73-17.67,0.23c-7.45,1.21-15.2,0.62-22.82,0.77c-1.38,0.03-2.25-0.88-2.84-2.07c2.9-4.64,0.17-9.25-0.05-13.88
		c0-0.71-0.01-1.42-0.01-2.12c1.68-2.68,0.93-5.66,1.07-8.54c3.08,0.38,5.8-0.12,6.07-3.83c0.21-2.84,0.82-4.56,4.19-3.84
		c0.96,0.21,1.36-0.9,1.59-1.77c1.4-0.08,2.79-0.16,4.19-0.23c0.15,7.15,0.84,7.95,5.42,6.35c2.67-0.27,2.05-2.33,2.07-3.96
		c0.05-3.99,0-7.97,0-11.96c1.04,0.03,2.09,0.07,3.13,0.1c0.07,1.72,0.13,3.44,0.2,5.16c-0.39,4.35,0.83,8.98-2.24,12.85
		c-1.06,1.19-0.66,2.04,0.77,2.05c4.59,0.03,8.99-1.11,13.28-2.66c0.1-0.04-0.12-0.96-0.19-1.47c0-0.72,0-1.43,0-2.15
		c1.52,0,3.08,0.05,3.2-2.09c3.47-3.52-0.27-7.11,0.11-10.66c1.36,0,2.71-0.01,4.07-0.01c0.06,1.38,0.12,2.76,0.18,4.13
		c0.34,1.01,0.68,2.02,1.02,3.04c0.22,1.22-0.5,3.55,1.78,2.86c3.76-1.14,3.56,1.77,4.36,3.66c0.6,1.4-0.26,3.26,1.31,4.4
		c-2.21,3.38-0.85,7.12-1.06,10.7c0,1.06,0,2.12,0,3.18c0,0.36-0.01,0.72-0.01,1.08c-1.02-1.23-2.76-1.95-2.36-4.12
		c0.45-2.42-1.44-2.23-2.98-2.3c-0.4-2.25-1.37-2.19-2.78-0.74c-0.57,0.59-1.98,2.29-1.94,0.57c0.07-2.9-0.62-1.35-2.2-1.57
		c-3.04-0.42-5.15,2.16-8.04,1.61c0.1-1.89,3.13-1.94,2.43-4.14c-7.7,1.61-7.72,1.6-8.77,4.17c-0.69,1.7-0.72,4.1-3.64,3.29
		c-2.52-0.7-6.1,0.09-6.03-4.27c0.73-0.35,0.73-0.71,0.02-1.07c-0.78-1.26-2.19-1.04-3.35-1.3c-0.95-0.22-0.55-2.46-1.81-1.4
		c-0.68,0.56-0.16,2.02,0.86,2.73c-0.11,2.15-1.65,2.14-3.2,2.13c-0.37,0-0.73,0-1.1,0c-1.06-0.36-2.11-0.71-3.17-1.07
		c-0.25-0.1-0.71-0.31-0.72-0.29c-0.37,0.75,0.15,1.08,0.7,1.4c-2.72,3.78-1.68,7.27,0.84,10.63c0.91,1.02,2.12,1.12,3.38,1.16
		c14.24,0.39,28.5-0.93,42.74,0.43c0.33,0.03,0.76-1.02,1.14-1.57C178.01,219.86,178.41,222.03,177.34,225.09z M141.19,207.13
		c0,0.18-0.01,0.35-0.01,0.53c1.32,0,2.65,0,3.97,0c0-0.18-0.01-0.35-0.01-0.53C143.82,207.13,142.5,207.13,141.19,207.13z"/>
	<path class="st10" d="M119.63,211.2c0.22,4.63,2.95,9.24,0.05,13.88c-7.23-1.1-7.88-2.37-3.22-8.02
		C117.98,215.21,116.02,211.69,119.63,211.2z"/>
	<path class="st10" d="M120.69,200.54c-0.14,2.87,0.61,5.86-1.07,8.54c-1.73,0.01-3.05-0.33-3.18-2.52
		c-0.26-4.16-0.7-8.3-1.07-12.45c1.87-0.16,2.81,1.6,4.35,2.12C120.04,197.66,120.36,199.1,120.69,200.54z"/>
	<path class="st10" d="M110.05,189.82c0-1.07,0.01-2.14,0.01-3.2c3.42,1.55,7.91-0.41,10.68,3.26c-0.36,0.36-0.71,0.71-1.07,1.07
		c-1.78,0.7-3.57,1.4-5.35,2.1C113.01,191.81,112.79,189.15,110.05,189.82z"/>
	<path class="st4" d="M114.32,193.04c1.78-0.7,3.57-1.4,5.35-2.1c-0.26,1.77,2.18,3.5,0.06,5.29c-1.54-0.52-2.48-2.28-4.35-2.12
		C115.02,193.75,114.67,193.39,114.32,193.04z"/>
	<path class="st5" d="M177.34,225.09c1.07-3.06,0.66-5.23-3.2-5.34c-1.26-1.36-2.81-2.17-4.66-2.07
		c-7.87,0.42-15.76-0.64-23.65,0.76c-3.26,0.58-6.94,1.11-10.21-0.77c0.09-1.1,2.33-2.79,1.3-2.57c-3.09,0.63-4.98-2.17-7.69-1.74
		c-1.34,0.21-2.65,0.44-1.06,2.12c0.03,0.89,0.24,1.69,1.1,2.16c-0.46,1.09-1.27,1.77-2.39,2.1c-2.52-3.37-3.56-6.85-0.84-10.64
		c0.01-0.37,0.02-0.74,0.02-1.11c1.06,0.36,2.11,0.71,3.17,1.07c0.36,0.71,0.73,0.73,1.1,0c1.55,0.01,3.09,0.02,3.2-2.13
		c0.72,0,1.43,0.01,2.15,0.01c0.47,0.85,1.26,1.03,2.13,1.05l0,0c-0.07,4.36,3.51,3.57,6.03,4.27c2.92,0.81,2.95-1.59,3.64-3.29
		c1.04-2.57,1.06-2.56,8.77-4.17c0.7,2.21-2.33,2.25-2.43,4.14c2.89,0.55,5-2.03,8.04-1.61c1.58,0.22,2.27-1.33,2.2,1.57
		c-0.04,1.72,1.37,0.02,1.94-0.57c1.41-1.45,2.39-1.51,2.78,0.74c-0.02,0.88-0.22,1.79-0.03,2.62c0.32,1.43-2.8,2.56-0.41,3.98
		c1.86,1.11,3.92,1.61,5.79-0.19c0-0.36,0.01-0.72,0.01-1.08c1.34-1.06,1.36-2.12,0-3.18c0.21-3.58-1.15-7.32,1.06-10.7
		c0.21-1.14-0.48-2.44,0.93-3.74c1.14,1.27,2.27,2.52,3.4,3.78c0,0.86,0.18,1.64,1,2.12c0,0.33,0,0.66-0.01,0.99
		c0.63,1.1,0.65,2.19-0.06,3.27c-1.01,0.72-0.98,1.42,0.03,2.11c0.02,0.36,0.04,0.72,0.07,1.08c-0.02,5.33-0.04,10.67-0.07,16
		c-1.06,0.02-2.11,0.04-3.17,0.06C177.34,225.83,177.34,225.46,177.34,225.09z M176.8,204.87c-0.26,0.16-0.51,0.32-0.75,0.48
		c0.26,0.14,0.52,0.4,0.78,0.39c0.26-0.01,0.51-0.27,0.76-0.42C177.32,205.17,177.07,205.02,176.8,204.87z"/>
	<path class="st11" d="M180.5,226.13c0.02-5.33,0.04-10.67,0.07-16c1.18,0.11,3.34,0.01,2.86,1.4c-1.62,4.68,2.02,4.86,4.57,6.09
		c0.21,1.67,0.76,3.17,2.14,4.25c0.37,1.09,0.74,2.18,1.12,3.27c0,0.34,0,0.67-0.01,1C187.67,225.99,184.09,221.91,180.5,226.13z"/>
	<path class="st2" d="M191.26,225.13c-0.37-1.09-0.74-2.18-1.12-3.27c0-1.42,0.01-2.83,0.01-4.25c1.27,0.64,2.38,1.05,3.83,0
		c3.84-2.79,7.95-3.14,12.16-0.71c1.73,1,2.53-0.15,3.25-1.45c0.71,0,1.41,0,2.12,0.01c3.27-0.07,5.53,2.53,8.53,3.2
		c-0.3,2.51,0.98,5.23-1.03,7.5c0.64-4.69-1.02-6.91-6.12-6.49c-3.82,0.31-7.68,0.28-11.53-0.77c-2.37-0.65-5.1-0.22-5.82,2.99
		C195.01,224.27,193.2,224.73,191.26,225.13z"/>
	<path class="st8" d="M227.43,209.01c-2.28,1.4-3.79,4.54-7.27,3.22c-0.08-0.62-0.15-1.25-0.23-1.87c1.12-1.15,3.46-0.62,3.99-2.82
		c-1.87-1.07-4.9-0.56-4.9-3.82c0-1.07,0-2.15,0-3.22c3.8,0.3,7.75,0.35,8.62,5.37c-0.04,0.35-0.04,0.7-0.01,1.05
		c-0.02,0.71-0.05,1.42-0.07,2.13L227.43,209.01z"/>
	<path class="st10" d="M219.93,210.36c0.08,0.62,0.15,1.25,0.23,1.87c-0.04,2.14-0.07,4.28-0.11,6.42c-2.99-0.67-5.26-3.27-8.53-3.2
		c0.01-1.97,2.78-2.78,2.12-5.04C215.73,210.4,217.83,210.38,219.93,210.36z"/>
	<path class="st4" d="M189.02,60.57c0.05-0.73,0.1-1.46,0.15-2.19c2.9,0.14,5.58,1.28,8.77,0.34c3.78-1.11,7.23,4.56,5.85,9.35
		c-0.6,2.08-3.44,3.81,0.37,5.97c1.15,0.65-1.46,2.33-2.26,3.6l0,0c-2.12-1.3-5.43-0.63-5.41,0.79c0.04,3.3,1.54,6.64,4.9,8.45
		c1.52,0.82,3.66-0.3,4.84,1.55c-0.79,1.33-1.57,2.65-2.36,3.98c-4.75-2.53-9.68-0.22-14.51-0.57
		C189.26,81.43,189.14,71,189.02,60.57z"/>
	<path class="st11" d="M193.37,54.1c1.03-1.31,2.09-1.33,3.19-0.09C195.54,55.53,194.47,55.55,193.37,54.1z"/>
	<path class="st4" d="M201.91,77.65c0.45,0.13,0.91,0.26,1.36,0.39C202.51,79,202.29,78.04,201.91,77.65L201.91,77.65z"/>
	<path class="st3" d="M166.74,186.55c-0.06-1.38-0.12-2.76-0.18-4.13c-1.57-2.91,1.55-9.17-4.94-8.45
		c-9.62,1.07-19.23,0.11-28.83,0.85c-3.81,0.29-4.46,2.27-2.8,4.82c2.04,3.14,1.73,5.93,0.33,8.98c-1.06,0.08-2.13,0.15-3.19,0.23
		c-0.04-0.77-0.09-1.53-0.13-2.3c0.05-4.05,0.24-8.11,0.12-12.15c-0.1-3.12,1.24-4.32,4.13-3.56c6.26,1.64,12.62,0.45,18.92,0.79
		c1.58,0.09,3.26,0.14,3.92-1.84c0.95,0.03,1.9,0.06,2.85,0.09c0.89,2.21,1.71,1.66,2.49-0.07c1.9-0.36,4.11,0.65,6.48-1.74
		c-8.06-1.94-15.42,1.12-22.69,0c0.74-2.49,2.83-1.65,4.44-1.68c4.6-0.1,9.19-0.02,13.79-0.07c1.68-0.02,3.73,0.53,4.11-2.1
		c2.14-0.58,4.2-1.01,6.31,0.39c1.5,1,2.97,0.88,3.34-1.38c0.32-0.03,0.65-0.04,0.97-0.03c0.71,0.38,1.41,0.76,2.12,1.14
		c0.03,0.3,0.05,0.61,0.06,0.92c0.01,0.37,0.03,0.74,0.04,1.1c-0.01,0.42-0.02,0.84-0.04,1.26c-1.31,1.79-7.33-4.68-5.29,3.01
		c0.03,2.5,0.05,5,0.08,7.49c0.06,1.04,0.11,2.08,0.16,3.13c-0.05,1.42-0.1,2.85-0.14,4.27c-0.04,0.38-0.08,0.76-0.13,1.13
		C170.95,186.59,168.84,186.57,166.74,186.55z"/>
	<path class="st1" d="M213.64,210.42c0.65,2.25-2.12,3.06-2.12,5.04c-0.71,0-1.41,0-2.12-0.01c-0.09-1.32-0.61-2.92-1.88-2.81
		c-6.08,0.53-13.45-3.14-17.36,4.97c0,1.42-0.01,2.83-0.01,4.25c-1.38-1.08-1.94-2.57-2.14-4.25c-0.39-2.07-0.17-4.58-1.28-6.15
		c-5.39-7.61,2.48-14.38,1.12-21.67c-0.04-0.19,1.46-0.66,2.25-1.01c0.04,0.35,0.07,0.7,0.1,1.05c0.01,1.76,0.02,3.51,0.03,5.27
		c-0.09,2.77-0.46,5.59,1.32,8.04c1.36,1.88,3.17,2.17,4.98,0.91c1.07-0.74,3.69-1.35,1.19-3.48c1.92-0.35,3.5-0.01,4.24,2.07
		c0.05,0.75,0.11,1.5,0.16,2.25c-0.1,0.31-0.14,0.62-0.12,0.95c-1.49,1.2-2.98,2.41-4.88,3.95c3.84,1.05,7.02,0.45,10.18,0.29
		C209.41,210.2,211.53,210.31,213.64,210.42z"/>
	<path class="st1" d="M204.03,164.17c0,0.72-0.01,1.45-0.01,2.17c-3.68,1.3-0.79,2.75-0.1,4.15c-2.62,3.73-5.73,4.28-9.36,1.45
		c-0.88-3.93-4.12-5.72-7.05-7.79c-1.61-1.77-3.21-3.54-4.82-5.31c6.75-0.53,13.48-1.36,20.27-1.06
		C203.33,159.91,202.14,162.3,204.03,164.17z"/>
	<path class="st10" d="M190.1,188.79c-0.78,0.34-2.28,0.82-2.25,1.01c1.36,7.29-6.51,14.06-1.12,21.67
		c1.11,1.57,0.89,4.07,1.28,6.15c-2.55-1.23-6.19-1.41-4.57-6.09c0.48-1.38-1.69-1.29-2.86-1.4c-0.02-0.36-0.04-0.72-0.07-1.08
		c1.11-0.72,1.12-1.42-0.03-2.11c0.7-1.08,0.69-2.17,0.06-3.27c0.46-0.16,0.91-0.33,1.37-0.49c-0.46-0.17-0.91-0.34-1.37-0.5
		c-0.82-0.48-1-1.26-1-2.12c0.79-0.52,0.99-1.31,0.99-2.18c0.79-2.43,5.77-4.28,1.02-7.46c-0.68-0.4-1.36-0.79-2.03-1.19
		c2.31-4.54,6.86-3.35,10.63-4.16C190.13,186.64,190.11,187.72,190.1,188.79z"/>
	<path class="st8" d="M173.33,181.21c-0.06-1.04-0.11-2.08-0.17-3.12c1.56-1.17,3.71-1.66,3.2-4.6c-0.38-2.21-1.23-2.99-3.28-2.89
		c-2.03-7.69,3.98-1.21,5.29-3.01c0.54,4.57,5.43,5.22,7.56,8.35c-0.87,0.45-1.09,1.24-1.12,2.14c-0.35-0.01-0.7-0.01-1.05-0.01
		c-1.08-1.63-2.17-3.34-3.23,0.02c-0.01,0.7-0.02,1.4-0.02,2.11C178.23,181.31,176.23,184.43,173.33,181.21z"/>
	<path class="st2" d="M217.89,188.74c0.87,0.47,1.11,1.27,1.13,2.18c-0.02,0.35-0.03,0.7-0.02,1.04c0,0,0.01-0.01,0.01-0.01
		c-6.12,0.56-12.07-1.75-18.2-1.05c-0.66-0.05-1.32-0.09-1.99-0.14c-0.04-0.67-0.07-1.34-0.11-2
		C205.09,185.73,211.49,187.9,217.89,188.74z"/>
	<path class="st11" d="M185.94,175.94c-2.13-3.13-7.02-3.78-7.56-8.35c0.01-0.42,0.02-0.84,0.04-1.26c3.46-0.11,6.24,1.16,7.44,4.51
		c0.62,1.73,2,1.8,3.18,2.45c4.3,2.36,4.31,3.97,0,6.94C189.05,178.03,187.6,176.91,185.94,175.94z"/>
	<path class="st3" d="M202.97,157.78c-6.79-0.3-13.52,0.53-20.27,1.06c-0.73-0.68-1.45-1.36-2.18-2.04c1.4-4.1,4.97-2.37,7.24-2.02
		c5.41,0.84,10.82,0.41,16.2,0.85c0,0.72,0,1.44,0,2.16C203.63,157.78,203.3,157.78,202.97,157.78z"/>
	<path class="st2" d="M190.14,185.57c-3.77,0.81-8.32-0.37-10.63,4.16c-2.16,0-4.31,0-6.47,0.01c0-1.04,0.01-2.08,0.01-3.13
		c0.04-0.38,0.08-0.76,0.12-1.13c2.74-0.37,6.53,1.71,7.35-3.14C183.39,184.45,187.98,181.39,190.14,185.57z"/>
	<path class="st8" d="M187.52,164.16c2.93,2.07,6.17,3.86,7.05,7.79c-3.35-2.45-8.49-2.67-9.72-7.78
		C185.73,164.16,186.63,164.16,187.52,164.16z"/>
	<path class="st6" d="M190.23,195.11c-0.01-1.76-0.02-3.51-0.03-5.27c1.86-0.32,3.9-1.58,5.16,1.03c0.05,1.44,0.09,2.87,0.14,4.31
		l-0.08,0.11C193.69,195.23,191.96,195.17,190.23,195.11z"/>
	<path class="st9" d="M187.52,164.16c-0.89,0-1.78,0-2.67,0c-2.51,1.33-1.96-3.02-4.17-2.25c-0.38-0.13-0.77-0.27-1.15-0.4
		c0.67-2.01-1.44-3.44-1.12-5.38c0.7,0.22,1.41,0.44,2.11,0.67c0.73,0.68,1.45,1.36,2.18,2.04
		C184.3,160.61,185.91,162.39,187.52,164.16z"/>
	<path class="st6" d="M180.53,182.34c-0.83,4.85-4.62,2.77-7.35,3.14c0.05-1.42,0.09-2.85,0.14-4.27c2.91,3.21,4.91,0.1,7.2-1.03
		C180.52,180.9,180.53,181.62,180.53,182.34z"/>
	<path class="st11" d="M176.19,163.17c-0.32,0-0.65,0.01-0.97,0.03c-2.78-1.33-4.68-3.39-5.39-6.45
		C173.33,157.53,175.88,159.24,176.19,163.17z"/>
	<path class="st8" d="M195.5,195.18c-0.04-1.44-0.09-2.87-0.14-4.31c0.74-0.03,1.49-0.07,2.24-0.1c0.41,0,0.81,0,1.22-0.01
		c0.66,0.05,1.32,0.09,1.99,0.14c0.04,0.69,0.08,1.38,0.12,2.07C199.56,194.81,197.65,195.28,195.5,195.18z"/>
	<path class="st6" d="M185.94,175.94c1.66,0.97,3.12,2.09,3.1,4.28c-1.67-0.2-3.15-0.76-4.22-2.15
		C184.84,177.18,185.06,176.39,185.94,175.94z"/>
	<path class="st12" d="M202.97,157.78c0.33,0,0.66,0,0.99,0.01c0.02,2.13,0.05,4.25,0.07,6.38
		C202.14,162.3,203.33,159.91,202.97,157.78z"/>
	<path class="st12" d="M203.92,170.5c-0.69-1.4-3.58-2.86,0.1-4.15C203.99,167.73,203.95,169.11,203.92,170.5z"/>
	<path class="st6" d="M180.54,178.08c1.06-3.36,2.14-1.65,3.23-0.02C182.69,178.07,181.62,178.07,180.54,178.08z"/>
	<path class="st6" d="M198.82,190.77c-0.41,0-0.81,0-1.22,0.01c0.37-0.67,0.74-1.34,1.1-2.01
		C198.74,189.44,198.78,190.1,198.82,190.77z"/>
	<path class="st11" d="M178.37,165.22c-0.01-0.31-0.02-0.61-0.06-0.92c0.16,0.22,0.33,0.43,0.49,0.64
		C178.66,165.04,178.51,165.13,178.37,165.22z"/>
	<path class="st4" d="M214.73,138.55c0.14,0.08,0.29,0.16,0.43,0.24C215.02,138.71,214.88,138.63,214.73,138.55L214.73,138.55z"/>
	<path class="st11" d="M179.53,161.51c0.38,0.13,0.76,0.27,1.15,0.4C179.93,162.83,179.65,162.4,179.53,161.51z"/>
	<path class="st4" d="M146.36,132.14c-0.5-1.89,0.75-3.79-2.32-5.51c-2.54-1.42-0.31-6.12-1.01-9.13c2.06-1.54,1.53,4.96,4.52,0.28
		C146.78,122.98,148.72,127.68,146.36,132.14C146.35,132.13,146.36,132.14,146.36,132.14z"/>
	<path class="st4" d="M141.02,118.7c-0.23,1.23,0.52,3.24-1.37,3.4c-2.5,0.21-1.71-2.08-1.79-3.44c-0.07-1.29-0.4-3.24,1.55-3.24
		C141.37,115.42,140.86,117.37,141.02,118.7z"/>
	<path class="st9" d="M150.67,112.93c4.55,0.58,9.29-1.3,13.7,1.03C159.82,113.43,155.09,115.27,150.67,112.93z"/>
	<path class="st4" d="M136.26,115.94c0.65,1.63,0.78,3.04-0.12,4.63C135.49,118.94,135.37,117.53,136.26,115.94z"/>
	<path class="st4" d="M139.83,126.66c-0.77-0.02-1.39-0.12-1.16-0.79c0.13-0.37,0.73-0.63,1.17-0.79c0.16-0.05,0.71,0.47,0.68,0.54
		C140.33,126.03,140.02,126.39,139.83,126.66z"/>
	<path class="st11" d="M183.62,107.55c0.11,0.36,0.22,0.72,0.34,1.08c-0.43-0.01-0.86-0.02-1.29-0.03
		C182.98,108.25,183.3,107.9,183.62,107.55z"/>
	<path class="st10" d="M120.67,143.86c-6.75,0-13.5,0.01-20.24,0.01C107.18,142.18,113.93,142.2,120.67,143.86z"/>
	<path class="st4" d="M113.23,166.33c-1.11-0.77,0.05-1.63-0.1-2.44c-0.02-0.2-0.02-0.4,0-0.6c0.41,0.04,0.82,0.08,1.23,0.13
		c0.82,0.94,2.82,1.41,1.63,3.18C115.18,167.78,114.15,166.55,113.23,166.33z"/>
	<path class="st8" d="M114.36,163.42c-0.41-0.04-0.82-0.09-1.23-0.13c-0.1-2.31,1.43-3.26,3.29-3.93
		C116.89,161.3,115.75,162.42,114.36,163.42z"/>
	<path class="st8" d="M118.52,159.34c-0.52-0.17-1.05-0.35-1.57-0.52c0.71-0.93,1.4-1.88,2.64-2.14
		C119.79,157.79,119.23,158.6,118.52,159.34z"/>
	<path class="st8" d="M123.88,152.42c-0.52,0.35-1.05,0.7-1.57,1.06C122.83,153.12,123.36,152.77,123.88,152.42z"/>
	<path class="st8" d="M124.96,151.33c-0.36,0.36-0.71,0.71-1.07,1.07C124.25,152.04,124.61,151.69,124.96,151.33z"/>
	<path class="st8" d="M121.75,154.03c-0.04,0.74-0.3,1.32-1.06,1.57C121.04,155.08,121.4,154.56,121.75,154.03z"/>
	<path class="st8" d="M120.67,155.62c-0.35,0.35-0.7,0.7-1.05,1.05C119.97,156.33,120.32,155.98,120.67,155.62z"/>
	<path class="st6" d="M154.08,169.77c-0.67,1.98-2.34,1.92-3.92,1.84c-6.3-0.34-12.65,0.85-18.92-0.79
		c-2.89-0.76-4.23,0.44-4.13,3.56c0.13,4.05-0.06,8.1-0.11,12.15c-5.63-1.27-10.92-4.49-17.04-3.05c-1.2-0.79-0.93-2.07-1.08-3.21
		c1.45-1.78,2.9-3.57,4.34-5.35c2.5-0.36,3.99-1.75,4.32-4.3c0,0,0.01,0.03,0.01,0.03c5-3.19,10.78-0.63,16-2.16
		c1.35,1.62,3.21,1,4.88,1.04C143.65,169.67,148.87,169.7,154.08,169.77z M123.94,181.66c0-2.13,0.05-3.86-0.01-5.59
		c-0.05-1.52,0.47-3.23-0.89-4.44c-0.86-0.77-1.6-0.09-2.22,0.54c-1.43,1.44-1.4,3.11-0.65,4.84
		C120.88,178.67,120.8,180.9,123.94,181.66z"/>
	<path class="st10" d="M165.56,164.2c-0.38,2.63-2.43,2.08-4.11,2.1c-4.6,0.05-9.2-0.04-13.79,0.07c-1.61,0.04-3.7-0.81-4.44,1.69
		c-1.11,0.01-2.22,0.03-3.33,0.04c-0.86-2.78-3.2-1.64-4.95-1.73c-3.27-0.16-6.56-0.05-9.84-0.44
		C138.56,164.27,152.06,164.16,165.56,164.2z"/>
	<path class="st8" d="M139.89,168.09c1.11-0.01,2.22-0.02,3.33-0.04c7.27,1.11,14.62-1.95,22.69-0.01
		c-2.37,2.39-4.58,1.38-6.48,1.74c-0.84-0.32-1.7-1.39-2.49,0.07c-0.95-0.03-1.9-0.06-2.85-0.09c-5.21-0.07-10.43-0.1-15.64-0.23
		c-1.67-0.04-3.53,0.58-4.88-1.04C135.67,168.36,137.78,168.23,139.89,168.09z"/>
	<path class="st11" d="M179.49,142.81c6.05-1.68,12.09-1.72,18.14,0C191.58,142.82,185.54,142.81,179.49,142.81z"/>
	<path class="st11" d="M117.56,99.9c-1.11,0.44-3.35-0.33-2.69,2.01c0.25,0.89,0.31,1.98,2.46,2.63c3.3,0.99,5.9-1.34,8.72-0.17
		c-0.01,0.72-0.02,1.44-0.03,2.16c-2.9,3.44-6.93,3.15-10.83,3.24c-4.09,0.55-4.84-2.26-5.33-5.32c0.05-1.11,0.11-2.22,0.16-3.34
		c0,0-0.03-0.12-0.03-0.12c0.4,0.08,0.8,0.15,1.2,0.23c0.1,0.07,0.2,0.13,0.3,0.2c-0.11-0.06-0.22-0.12-0.32-0.17
		c-0.39-0.37-0.78-0.74-1.17-1.11C109.97,97.99,115.94,96.69,117.56,99.9z"/>
	<path class="st2" d="M145.29,110.75c-0.23-4.86,3.11-9.29,1.98-14.53c0.77,5.36,3.61,9.75,5.49,14.53
		C150.27,110.21,147.78,113.38,145.29,110.75z"/>
	<path class="st2" d="M126.03,106.53c0.01-0.72,0.02-1.44,0.03-2.16c-0.02-1.41-0.04-2.83-0.06-4.24c0.36-0.04,0.72-0.08,1.08-0.13
		c1.63,2.16,4.54,4.31,0.03,6.5C126.75,106.51,126.39,106.52,126.03,106.53z"/>
	<path class="st6" d="M110.02,101.11c-0.05,1.11-0.1,2.22-0.16,3.34c-0.29-0.03-0.57-0.05-0.86-0.06c-0.06-0.74-0.12-1.47-0.18-2.21
		C109.22,101.82,109.62,101.47,110.02,101.11z"/>
	<path class="st13" d="M108.83,102.18c0.06,0.74,0.12,1.47,0.18,2.21c-0.36-0.05-0.73-0.11-1.09-0.16c0.01-0.68,0.03-1.36,0.04-2.04
		C108.25,102.2,108.54,102.19,108.83,102.18z"/>
	<path class="st13" d="M109.99,100.13c0.39,0.37,0.78,0.74,1.17,1.11c0,0,0.03-0.03,0.03-0.03c-0.4-0.08-0.8-0.15-1.2-0.23
		C109.99,100.7,109.99,100.42,109.99,100.13z"/>
	<path class="st2" d="M129.29,155.66c-0.46-0.13-0.93-0.26-1.39-0.39c0.79-0.99,0.99,0.04,1.38,0.41
		C129.28,155.68,129.29,155.66,129.29,155.66z"/>
	<path class="st8" d="M208.67,98.39c0,0-0.12,0.45-0.11,0.44c-0.22-0.13-0.44-0.26-0.66-0.39
		C208.15,98.43,208.41,98.41,208.67,98.39z"/>
	<path class="st13" d="M117.55,170.63c-0.33,2.55-1.82,3.93-4.32,4.3C114.23,173.06,114.69,170.64,117.55,170.63z"/>
	<path class="st2" d="M109.96,183.49c6.12-1.44,11.4,1.78,17.04,3.05c0.04,0.77,0.09,1.53,0.13,2.3c0.01,0.32-0.02,0.63-0.1,0.94
		c-2.1,0.03-4.2,0.06-6.29,0.09c-2.77-3.67-7.26-1.71-10.68-3.26C110.03,185.57,109.99,184.53,109.96,183.49z"/>
	<path class="st8" d="M126,100.13c0.02,1.41,0.04,2.83,0.06,4.24c-2.83-1.17-5.42,1.17-8.72,0.17c-2.15-0.65-2.21-1.74-2.46-2.63
		c-0.66-2.34,1.58-1.57,2.69-2.01C120.37,99.98,123.18,100.05,126,100.13z"/>
	<path class="st6" d="M164.52,72.32c0.56,5.86-4.33,8.25-7.49,11.73c-0.86,1.21-2.08,1.06-3.31,0.86c0.01-0.55,0.03-1.09,0.04-1.64
		c0.38-0.44,0.77-0.87,1.15-1.3C159,80.5,163.82,72.67,164.52,72.32z"/>
	<path class="st2" d="M146.34,85.23c1.08,0.01,2.16,0.02,3.24,0.03c-0.57,2.6-1.13,5.19-1.99,9.11
		C145.79,90.58,146.6,87.82,146.34,85.23z"/>
	<path class="st15" d="M164.52,69.09c1.31-5.81-3.21-9.38-5.34-13.86c-0.63-1.26-0.67-2.22,1.14-2.22
		C165.58,57.43,166.94,62.61,164.52,69.09z"/>
	<path class="st11" d="M130.32,188.61c1.4-3.05,1.72-5.84-0.33-8.98c-1.66-2.55-1.02-4.53,2.8-4.82c9.6-0.74,19.21,0.22,28.83-0.85
		c6.49-0.72,3.37,5.54,4.94,8.45c-1.36,0-2.71,0.01-4.07,0.01c-0.44-1.3,1.35-2.58,0.07-3.94c-2.56,0.27-2.17,2.29-2.39,3.94
		c-1.05-0.03-2.11-0.05-3.16-0.08c-0.77-4.5-2.04-5.04-7.44-3.19c-0.71-0.35-1.42-0.71-2.13-1.06c-1.48,0.14-3.16-0.48-4.28,1.08
		c-0.36-0.01-0.71-0.03-1.07-0.04c-1.14-1.52-2.8-0.91-4.29-1.04c-4.36-0.24-2.92,3-3.13,5.24c-1.56,1.11-1.1,2.79-1.29,4.32
		C133.07,190.1,131.94,190.22,130.32,188.61z"/>
	<path class="st9" d="M126.89,219.73c1.12-0.34,1.93-1.02,2.39-2.1c2.12,0.01,4.23,0.03,6.35,0.04c3.27,1.88,6.94,1.35,10.21,0.77
		c7.89-1.39,15.78-0.33,23.65-0.76c1.84-0.1,3.4,0.71,4.66,2.07c-0.38,0.55-0.81,1.6-1.14,1.57c-14.24-1.36-28.5-0.04-42.74-0.43
		C129.01,220.85,127.8,220.75,126.89,219.73z"/>
	<path class="st6" d="M120.74,189.87c2.1-0.03,4.2-0.06,6.3-0.09c1.48,1.93,3.68,0.84,5.51,1.31c-0.24,0.87-0.63,1.98-1.59,1.77
		c-3.36-0.72-3.98,1-4.19,3.84c-0.28,3.71-2.99,4.21-6.07,3.83c-0.32-1.44-0.64-2.88-0.96-4.32c2.13-1.79-0.32-3.52-0.06-5.29
		C120.02,190.58,120.38,190.23,120.74,189.87z"/>
	<path class="st6" d="M173.04,189.74c2.16,0,4.31,0,6.47-0.01c0.68,0.39,1.36,0.79,2.03,1.19c-1.93,2.27-3.08,4.65-1.02,7.46
		c-0.01,0.88-0.2,1.67-0.99,2.18c-1.13-1.26-2.26-2.51-3.4-3.78c-1.41,1.3-0.72,2.6-0.93,3.74c-1.57-1.14-0.71-3-1.31-4.4
		c-0.81-1.89-0.6-4.8-4.36-3.66c-2.28,0.69-1.56-1.64-1.78-2.86C169.52,189.64,171.28,189.69,173.04,189.74z"/>
	<path class="st5" d="M157,182.34c1.05,0.03,2.11,0.05,3.16,0.08c0.53,3.6-1.15,7.65,2.21,10.66c-0.13,2.14-1.68,2.09-3.2,2.09
		c-0.7-0.01-1.4-0.03-2.1-0.04C154.84,190.89,156.56,186.61,157,182.34z"/>
	<path class="st6" d="M142.15,197.2c-4.59,1.6-5.27,0.8-5.42-6.35c-0.02-0.28-0.03-0.55-0.04-0.83c1.88-1.38,2.03-3.37,1.95-5.45
		c0.57-0.82,1.38-1.15,2.36-1.14C140.75,188.08,141.38,192.65,142.15,197.2z"/>
	<path class="st3" d="M142.15,197.2c-0.77-4.56-1.4-9.12-1.15-13.77c0.19-1.48-0.46-3.16,1.07-4.31c0.36,0.01,0.71,0.03,1.07,0.04
		c0.03,0.87,0.23,1.66,1.07,2.12c0.01,3.99,0.05,7.97,0,11.96C144.2,194.87,144.82,196.93,142.15,197.2z"/>
	<path class="st13" d="M162.37,193.09c-3.36-3.01-1.69-7.07-2.21-10.66c0.22-1.65-0.17-3.66,2.39-3.94c1.28,1.36-0.5,2.63-0.07,3.94
		C162.1,185.98,165.84,189.57,162.37,193.09z"/>
	<path class="st10" d="M145.3,199.4c3.08-3.88,1.85-8.51,2.24-12.85c0.34,0.07,0.68,0.12,1.02,0.15c4.65,4.25,0.41,8.43-0.09,12.64
		C147.42,199.36,146.36,199.38,145.3,199.4z"/>
	<path class="st8" d="M145.3,199.4c1.06-0.02,2.11-0.04,3.17-0.06c1.05-0.29,2.1-0.57,3.15-0.86c0.41,0,0.81-0.01,1.22-0.01
		c0.7-0.05,1.4-0.1,2.1-0.15c0.68-0.4,1.37-0.79,2.05-1.19c0.73,0.06,1.46,0.13,2.19,0.19c0.07,0.51,0.29,1.43,0.19,1.47
		c-4.29,1.55-8.69,2.69-13.28,2.66C144.64,201.45,144.24,200.59,145.3,199.4z"/>
	<path class="st6" d="M174.13,215.48c-1.87,1.81-3.92,1.3-5.79,0.19c-2.39-1.42,0.74-2.56,0.41-3.98c-0.19-0.83,0.01-1.75,0.03-2.62
		c1.54,0.07,3.43-0.13,2.98,2.3C171.37,213.53,173.11,214.25,174.13,215.48z"/>
	<path class="st3" d="M148.57,186.7c-0.34-0.04-0.68-0.09-1.02-0.15c-0.06-1.72-0.13-3.44-0.19-5.16c0.02-1.1,0.05-2.2,0.07-3.3
		c0.71,0.35,1.42,0.71,2.13,1.06c0.02,0.86,0.19,1.64,1,2.13C150.62,183.35,150.89,185.51,148.57,186.7z"/>
	<path class="st8" d="M136.69,190.02c0.01,0.28,0.02,0.55,0.04,0.83c-1.4,0.08-2.79,0.15-4.19,0.23c-1.83-0.47-4.03,0.62-5.51-1.31
		c0.07-0.31,0.11-0.62,0.1-0.94c1.06-0.07,2.13-0.15,3.19-0.23c1.62,1.61,2.75,1.48,3.05-0.96c0.19-1.53-0.27-3.21,1.29-4.32
		C135.45,185.53,133.58,188.53,136.69,190.02z"/>
	<path class="st11" d="M173.04,189.74c-1.76-0.05-3.53-0.1-5.29-0.15c-0.34-1.01-0.68-2.03-1.02-3.04c2.11,0.02,4.21,0.04,6.32,0.06
		C173.05,187.66,173.05,188.7,173.04,189.74z"/>
	<path class="st1" d="M147.43,178.09c-0.02,1.1-0.05,2.2-0.07,3.3c-1.05-0.03-2.09-0.07-3.14-0.1c-0.85-0.46-1.05-1.24-1.07-2.12
		C144.27,177.61,145.94,178.22,147.43,178.09z"/>
	<path class="st6" d="M135.68,206.94c-0.72,0-1.43-0.01-2.15-0.01c-1.02-0.71-1.54-2.16-0.86-2.73c1.27-1.05,0.86,1.18,1.81,1.4
		c1.15,0.27,2.56,0.04,3.35,1.3l-0.04,0.04C137.09,206.95,136.38,206.94,135.68,206.94z"/>
	<path class="st6" d="M141.19,207.13c1.31,0,2.63,0,3.94,0c0,0.18,0.01,0.35,0.01,0.53c-1.32,0-2.65,0-3.97,0
		C141.18,207.48,141.18,207.31,141.19,207.13z"/>
	<path class="st11" d="M159.17,197.33c-0.73-0.06-1.46-0.13-2.19-0.19c0.03-0.66,0.06-1.33,0.09-1.99c0.7,0.01,1.4,0.03,2.1,0.04
		C159.17,195.89,159.17,196.61,159.17,197.33z"/>
	<path class="st6" d="M174.14,211.22c1.36,1.06,1.34,2.12,0,3.18C174.14,213.34,174.14,212.28,174.14,211.22z"/>
	<path class="st6" d="M126.07,207.99c-0.01,0.37-0.02,0.74-0.02,1.11c-0.55-0.32-1.07-0.65-0.7-1.4
		C125.36,207.68,125.82,207.88,126.07,207.99z"/>
	<path class="st6" d="M137.83,206.91c0.72,0.37,0.71,0.73-0.02,1.07c0,0,0,0,0,0c-0.01-0.35-0.02-0.7-0.03-1.04L137.83,206.91z"/>
	<path class="st6" d="M130.34,209.06c-0.37,0.73-0.73,0.7-1.1,0C129.6,209.06,129.97,209.06,130.34,209.06z"/>
	<path class="st6" d="M135.63,217.67c-2.12-0.01-4.23-0.03-6.35-0.04c-0.86-0.47-1.07-1.27-1.1-2.16c0.35-0.71,0.71-1.41,1.06-2.12
		c2.71-0.42,4.6,2.38,7.69,1.74C137.96,214.88,135.72,216.57,135.63,217.67z"/>
	<path class="st4" d="M180.47,206.95c1.15,0.68,1.14,1.39,0.03,2.11C179.49,208.37,179.46,207.67,180.47,206.95z"/>
	<path class="st4" d="M129.24,213.35c-0.35,0.71-0.71,1.41-1.06,2.12C126.6,213.79,127.9,213.56,129.24,213.35z"/>
	<path class="st4" d="M176.8,204.87c0.27,0.15,0.52,0.3,0.78,0.45c-0.25,0.15-0.5,0.42-0.76,0.42c-0.26,0.01-0.52-0.25-0.78-0.39
		C176.29,205.19,176.54,205.03,176.8,204.87z"/>
	<path class="st4" d="M137.79,206.95c0.01,0.35,0.02,0.7,0.03,1.04c-0.88-0.01-1.67-0.2-2.13-1.05
		C136.38,206.94,137.09,206.95,137.79,206.95z"/>
	<path class="st4" d="M180.53,202.69c0.46,0.17,0.91,0.34,1.37,0.5c-0.46,0.16-0.91,0.33-1.37,0.49
		C180.53,203.35,180.54,203.02,180.53,202.69z"/>
	<path class="st10" d="M190.16,217.61c3.91-8.11,11.28-4.44,17.36-4.97c1.27-0.11,1.79,1.49,1.88,2.81
		c-0.72,1.3-1.52,2.45-3.25,1.45c-4.21-2.44-8.32-2.09-12.16,0.71C192.55,218.66,191.44,218.25,190.16,217.61z"/>
	<path class="st4" d="M195.5,195.18c2.15,0.1,4.06-0.37,5.42-2.21c6.03,0.04,12.05,0.07,18.08,0.11c0,2.47,0,4.94,0,7.41
		c0,1.07,0,2.15,0,3.22c-0.71,0.06-1.42,0.12-2.13,0.18c-1.06-1.54-2.13-1.57-3.21-0.02c-3.21,0.05-6.41,0.11-9.62,0.16
		c-0.28-1.09-1.14-1.3-2.08-1.38c-0.73-2.08-2.31-2.42-4.24-2.07c-1.19-1.58-5.45-1.83-2.31-5.3L195.5,195.18z"/>
	<path class="st9" d="M204.05,204.04c3.21-0.05,6.41-0.11,9.62-0.16c1.06,1.22,2.13,1.2,3.21,0.02c0.71-0.06,1.42-0.12,2.13-0.18
		c0,3.26,3.04,2.75,4.9,3.82c-0.52,2.2-2.86,1.66-3.99,2.82c-2.1,0.02-4.19,0.04-6.29,0.06c-2.11-0.11-4.23-0.22-6.34-0.33
		c1.9-1.98,4.34-0.76,6.52-1.1c1.17-0.19,2.82,0.11,2.73-1.65c-0.09-1.66-1.7-1.49-2.9-1.5c-3.88-0.03-7.77,0-11.65,0.01
		c-0.02-0.32,0.02-0.64,0.12-0.95C202.76,204.62,203.4,204.33,204.05,204.04z"/>
	<path class="st1" d="M219,193.09c-6.03-0.04-12.05-0.07-18.08-0.11c-0.04-0.69-0.08-1.38-0.12-2.07c6.13-0.7,12.08,1.61,18.2,1.05
		C219,192.34,219,192.71,219,193.09z"/>
	<path class="st1" d="M219,191.97c-0.01-0.35,0-0.7,0.02-1.04c0.13,0.25,0.29,0.5,0.38,0.76C219.41,191.73,219.14,191.87,219,191.97
		z"/>
	<path class="st6" d="M173.08,170.59c2.04-0.1,2.89,0.69,3.28,2.89c0.51,2.94-1.65,3.43-3.2,4.6
		C173.13,175.59,173.11,173.09,173.08,170.59z"/>
	<path class="st6" d="M156.93,169.85c0.79-1.46,1.65-0.39,2.49-0.07C158.64,171.51,157.82,172.07,156.93,169.85z"/>
	<path class="st8" d="M202,205.85c3.88-0.01,7.77-0.03,11.65-0.01c1.2,0.01,2.81-0.16,2.9,1.5c0.09,1.76-1.56,1.46-2.73,1.65
		c-2.18,0.34-4.62-0.88-6.52,1.1c-3.17,0.15-6.35,0.75-10.18-0.29C199.02,208.26,200.51,207.06,202,205.85z"/>
	<path class="st2" d="M195.42,195.29c-3.15,3.47,1.12,3.71,2.31,5.3c2.5,2.12-0.12,2.74-1.19,3.48c-1.81,1.26-3.62,0.97-4.98-0.91
		c-1.78-2.46-1.41-5.27-1.32-8.04C191.96,195.17,193.69,195.23,195.42,195.29z"/>
	<path class="st8" d="M204.05,204.04c-0.64,0.29-1.29,0.58-1.93,0.87c-0.05-0.75-0.1-1.5-0.16-2.25
		C202.91,202.74,203.77,202.95,204.05,204.04z"/>
	<path class="st4" d="M180.52,198.38c-2.06-2.82-0.9-5.19,1.02-7.46C186.3,194.1,181.31,195.95,180.52,198.38z"/>
	<path class="st8" d="M123.94,181.66c-3.14-0.76-3.06-2.99-3.78-4.65c-0.75-1.73-0.78-3.4,0.65-4.84c0.62-0.63,1.36-1.3,2.22-0.54
		c1.36,1.21,0.84,2.92,0.89,4.44C123.99,177.8,123.94,179.53,123.94,181.66z"/>
	<path class="st8" d="M111.16,101.24c0.11,0.06,0.22,0.12,0.32,0.17c-0.1-0.07-0.2-0.13-0.3-0.2
		C111.19,101.22,111.16,101.24,111.16,101.24z"/>
	<path class="st13" d="M157.07,195.14c-0.03,0.66-0.06,1.33-0.09,1.99c-0.68,0.4-1.37,0.79-2.05,1.19c-0.34-4.7,0.5-9.44-0.87-14.14
		c-0.61-2.07-1.35-3.1-3.5-2.9c-0.81-0.48-0.99-1.27-1-2.13c5.4-1.85,6.67-1.3,7.44,3.19C156.56,186.61,154.84,190.89,157.07,195.14
		z"/>
	<path class="st15" d="M136.69,190.02c-3.11-1.49-1.23-4.5-2.03-6.69c0.21-2.24-1.23-5.48,3.13-5.24c-0.82,2.31-2.52,4.73,0.86,6.49
		C138.71,186.65,138.57,188.65,136.69,190.02z"/>
	<path class="st10" d="M138.64,184.57c-3.38-1.75-1.67-4.18-0.86-6.49c1.48,0.13,3.14-0.48,4.29,1.04
		c-1.53,1.14-0.88,2.83-1.07,4.31C140.02,183.42,139.22,183.75,138.64,184.57z"/>
	<path class="st2" d="M150.56,181.28c2.14-0.2,2.89,0.83,3.5,2.9c1.37,4.7,0.54,9.44,0.87,14.14c-0.7,0.05-1.4,0.1-2.1,0.15
		c-0.41-0.79-0.82-0.76-1.22,0.01c-1.05,0.29-2.1,0.57-3.15,0.86c0.51-4.21,4.74-8.4,0.09-12.64
		C150.89,185.51,150.62,183.35,150.56,181.28z"/>
	<path class="st10" d="M151.62,198.49c0.4-0.77,0.8-0.8,1.22-0.01C152.43,198.48,152.02,198.48,151.62,198.49z"/>
	<path class="st8" d="M216.87,203.9c-1.08,1.18-2.15,1.2-3.21-0.02C214.74,202.33,215.81,202.36,216.87,203.9z"/>
	<path class="st4" d="M85.81,99.37"/>
	<g id="Base_1_">
		<path class="st16" d="M0,0v300h300V0H0z M292.5,292.5H7.5V7.5h285V292.5z"/>
	</g>
</g>
</svg>
