<?xml version="1.0" encoding="utf-8"?>
<!-- Generator: Adobe Illustrator 23.0.1, SVG Export Plug-In . SVG Version: 6.00 Build 0)  -->
<svg version="1.1" xmlns="http://www.w3.org/2000/svg" xmlns:xlink="http://www.w3.org/1999/xlink" x="0px" y="0px"
	 viewBox="0 0 300 300" style="enable-background:new 0 0 300 300;" xml:space="preserve">
<style type="text/css">
	.st0{fill:#424242;}
	.st1{fill:#12120F;}
	.st2{fill:#141414;}
	.st3{fill:#514C42;}
	.st4{fill:#0A0A0A;}
	.st5{fill:#888276;}
	.st6{fill:#A19A8A;}
	.st7{fill:#676255;}
	.st8{fill:#978F7F;}
	.st9{fill:#454138;}
	.st10{fill:#252525;}
	.st11{fill:#1B1B1B;}
	.st12{fill:#060606;}
	.st13{fill:#0E0E0C;}
	.st14{fill:#9E9E9E;}
</style>
<g id="background">
	<rect x="4" y="4" class="st0" width="291" height="291"/>
</g>
<g id="Layer_1">
	<path class="st1" d="M248.32,158.37c-0.8-0.02-5.95,0.22-6.9,1.48c-1.12,0-20.56,4.48-21.21,4.48c-1.04-0.1-2.02,0.24-3.04,0.58
		c-1.96,0.65-20.24,3.81-22.35,3.98c-1.06,0.09-22.53,4.21-22.93,4.53c-0.46,0.37-54.3,10.93-54.7,10.93
		c-2.47,0.13-8.85,1.08-9.37,0.01c4.37-1,8.73-2,13.1-3c-0.05-0.42-0.1-0.85-0.15-1.27c-9.9,1.94-19.8,3.87-29.7,5.81
		c-0.67-1.14-1.34-1.16-2,0.02c-0.65,0.21-1.31,0.42-1.96,0.63c-0.85-1.07-1.68-1.14-2.48,0.13c-0.97,0.49-2.1,0.27-2.93,1.43
		c-4.67-0.13-9.17,1.94-13.82,2.39c-5.1,0.49-10.16,1.83-15.23,2.8c-0.58-0.07-1.16-0.17-1.56,0.69c-0.13,0-0.27,0-0.4,0
		c-0.61-0.16-1.21-0.33-1.8-0.49c-0.04-1.16,0.98-0.79,0.94-1.56c-0.29-5.32,2.28-4.96,4.55-5.37c0.94-0.17,2.24,0.96,2.7-1.38
		c4.08,1.95,7.94-1.11,11.95-1.24c4.2-0.13,8.38-1.85,12.59-2.49c9.58-1.46,19.12-3.36,28.66-5.22c0.84-0.16,1.63-0.26,1.61-2.17
		c-4.47,0.96-8.88,2-13.3,2.83c-7.52,1.42-15.05,2.7-22.58,4.04c-6.47,1.15-12.95,2.29-19.42,3.44c-0.4-0.01-0.82,0.05-1.21-0.06
		c-1.36-0.35-3.17,1.18-4.02-1.2c-0.84-2.36,1.64-2.63,1.77-4.61c1.51-0.41,3.39,0.89,4.44-2.07c-1.26-0.7-2.33,0.25-3.44,0.36
		c-1.7-2.46-0.43-4.43,0.46-6.47c4.53-0.78,9.07-1.56,13.6-2.33c5.67-0.97,11.34-1.93,17.01-2.88c0.78-0.13,1.6-0.14,1.81-2.02
		c-4.89,1.48-9.69,1.6-14.44,2.49c-5.99,1.12-11.99,2.07-17.98,3.09c0.1-5.58,2.1-8.31,5.92-7.93c0.71,0.07,1.72,0.91,1.69-0.77
		c-0.03-1.46-1.2-0.6-1.85-0.86c-1.14-0.44-2.73,1.22-3.37-1.6c0.18-0.76,0.36-1.51,0.54-2.27c1.05-0.02,2.1-0.2,3.14-0.34
		c4.81-0.64,9.56-1.92,14.49-1.4c2.57,0.27,5.75,0.81,8.05-2.62c0.85,1.17,1.9,1.24,2.95,1.09c7.5-1.08,14.99-2.21,22.48-3.29
		c0.73-0.11,1.53,0.13,1.7-1.42c0.48-0.23,0.95-0.45,1.43-0.68c1.19,1.72,6.42,1.65,7.91-0.11c0.98-0.01,1.96-0.03,2.94-0.04
		c0.96,1.03,1.76,0.51,2.49-0.6c0.65-0.03,1.31-0.06,1.96-0.09c0.51,0.98,1.01,0.95,1.48-0.07c3.67,0.44,7.37-0.38,10.9-1.19
		c5.25-1.2,10.56-1.06,15.78-2.48c4.18-1.13,8.45-1.14,12.65-1.92c5.26-0.97,10.55-1.23,15.8-2.45c4.34-1.01,8.8-0.84,13.16-1.77
		c8.08-1.71,16.25-2.01,24.34-3.53c4.69-0.88,9.4-1.52,14.1-2.17c4.84-0.67,9.65-2.32,14.56-1.53c1.78,2.94,3.66,6.26,6.4,6.31
		c4.12,0.07,8.3-0.01,12.32-1.84c0.45-0.03,0.9-0.06,1.34-0.09c1.33,0.22,1.09,1.75,1.13,3.05c-1.73,3.15-1.9,15.1-8.14,18.57
		c-0.07,0.04-1.89,0.5-2.71,0.75C259.99,155.65,250.14,158.38,248.32,158.37z M99.78,168.33c-7.11,2.55-14.22,2.79-21.23,4.22
		c-0.82,0.17-2.4-0.46-2.22,1.19c0.27,2.39,1.26-0.16,1.98-0.13c6.48,0.32,12.81-2,19.24-2.67
		C98.58,170.84,99.44,170.46,99.78,168.33z M209.39,142.79c-0.01-0.54-0.02-1.07-0.03-1.61c-5.35,1.86-10.86,1.33-16.16,3.93
		C198.6,144.34,203.99,143.57,209.39,142.79z M68.47,175.95c-2.28-1.99-7.51-1.08-8.58,1.6C62.79,177.02,65.59,176.49,68.47,175.95z
		 M207.67,153.19c1.71-0.64,2.84-1.06,3.96-1.5c0.47-0.19,1.03-0.45,0.85-1.38c-0.13-0.65-0.49-1.15-1.08-1.18
		C209.7,149.05,208.95,150.8,207.67,153.19z M156.03,166.21c-2.58-0.85-5.03,0.14-7.47,1.12
		C151.12,168.03,153.51,166.25,156.03,166.21z M220.71,140.7c2.68-0.44,4.82-0.8,7.39-1.23
		C226.24,138.33,223.14,138.87,220.71,140.7z M132.12,157c2.28-0.39,4.55-0.79,6.83-1.18C136.54,154.91,134.26,155.73,132.12,157z
		 M229,154.25c-2.12-0.66-4.08,0.23-6.03,1.21C225.05,155.87,227.02,154.95,229,154.25z M139.89,169.19
		c-2.74-1.05-4.79,0.59-6.93,0.63C135.17,170.88,137.23,169.59,139.89,169.19z M215.37,156.51c2.31,0.98,4.01-0.56,6.49-0.56
		C219.29,154.83,217.56,155.97,215.37,156.51z M146.56,167.54c-1.85-0.58-3.28-0.03-5.01,1.02
		C143.43,169.08,144.86,168.49,146.56,167.54z M158.12,165.5c1.36,0.21,2.77,0.87,4.12-0.89
		C160.64,163.85,159.4,164.84,158.12,165.5z M153.17,152.84c1.34,0,2.68,0,4.51,0C155.87,150.99,154.61,153.13,153.17,152.84z
		 M147.92,153.89c-1.27-1.12-2.38,0.46-3.61,0.36C145.52,154.71,146.73,154.9,147.92,153.89z M152.13,153.38
		c-1.14-0.09-1.79-0.65-2.41,0.33C150.44,154.01,151.06,154.08,152.13,153.38z M143.02,155.09c-0.15-0.07-0.24-0.11-0.34-0.15
		c0.02,0.09,0.04,0.19,0.05,0.28C142.81,155.18,142.88,155.15,143.02,155.09z"/>
	<path class="st2" d="M259.66,108.65c-1.63,0.62-2.77-2.09-4.41-1.46c-2.47,0.94-4.95,0.92-7.47,0.37c-1.37-0.3-1.84,0.73-0.93,2.59
		c-0.23,1.49-1.28,2.79-0.47,4.52c-0.16,1.1-0.31,2.2-0.47,3.3c-0.1,0.5-0.21,1-0.31,1.5c-1.89,0.1-3.77,0.2-5.66,0.31
		c-0.52-0.92-0.84-0.41-1.11,0.37c-1.11,0.09-2.22,0.18-3.33,0.27c-0.81-1.2-1.66-0.25-2.49-0.07c0.15-0.98-0.2-2.9,0.79-2.56
		c1.83,0.63,1.97-1.73,2.92-2.86c-1.55,0.04-3.65,1.67-3.18-2.87c0.5-0.49,1.31-0.03,1.61-1.16c1.1-1.94,2.71-3.46,2.43-6.56
		c0.81,0.04,1.68-0.54,2.37,0.59c-0.94,0.92-1.74,2.21-1.21,3.86c0.38,1.19,1.54,0.81,2.24,0.5c1.89-0.84,0.4-2.74,0.43-4.18
		c7.28-2.07,14.7-2.22,22.18-3.28C263.14,100.51,261.65,106.7,259.66,108.65z"/>
	<path class="st3" d="M25.51,182.87c-0.01-2.93,2.89-13.03,3.35-15.6c0.4-2.19,2.8-12.37,3.07-15.55c0.32-0.75,0.65-1.5,0.97-2.26
		c1.03-0.07,1.93,0.66,3.06-0.85c1.71-2.29,5.8,0.04,6.29,3.07c-0.17,0-0.33,0.01-0.5,0.01c-0.14-0.39-0.3-0.46-0.48-0.05
		c-1.1-0.09-1.96-1.13-2.93-1.76c-0.83-0.54-1.34-0.4-1.64,1.07c-1.01,4.89-3.81,19.44-4.65,22.25c-1.18,3.94-3.11,11.13-3.29,11.88
		C28.02,184.92,26.03,183.74,25.51,182.87z"/>
	<path class="st4" d="M27.98,182.12"/>
	<path class="st4" d="M27.45,185.1"/>
	<path class="st3" d="M42.25,151.68c-0.49-3.03-4.58-5.36-6.29-3.07c-1.13,1.52-2.03,0.78-3.06,0.85c-0.24-1.91,0.53-3.45,0.84-5.15
		c0.16-1.14,0.11-2.45,1.02-3.01c0.87,0.3,1.8,0.41,2.6,0.94c1.93,1.27,3.11,0.32,3.82-2.48c0.14-0.98,0.48-1.72,1.1-2.14
		c0.65-0.5,1.29-1.01,1.94-1.51c-0.45,1.84-0.9,3.68-1.35,5.52c-0.49,2.01,0.43,3.18,1.34,3.8c1.05,0.72,1.01-1.15,1.3-2.01
		c0.46-1.4,0.82-2.89,1.21-4.34c1.42,1.02,1.93,0.61,4.36,1.02c1.58,0.26,2.1-2.38,3.48-1.76c-0.62,1.54-1.3,3.05-0.98,5.01
		c-0.39,0.23-0.78,0.47-1.17,0.7c-1.64-0.19-3.03,0.6-4.18,2.4c-0.57,0.89-0.8,1.72,0.15,2.18c4.13,2,8.17,4.73,12.7,3.57
		c1.75-0.45,3.51-0.88,5.26-1.31c0.79,0.21,1.57,0.48,2.37,0.62c1.71,0.31,3.37,0.25,4.6-2.01l0,0c2.26,0.76,4.48,1.07,6.43-1.38
		c0.3,0.01,0.6,0.02,0.91,0.03c1.34,2.52,2.24,1.31,3.03-0.8c0.32-0.03,0.64-0.06,0.95-0.09c-0.14,0.67-0.32,1.85,0.42,1.32
		c1.28-0.92,2.36,0.27,3.53,0.17c-1.44,2.76-3.79,0.4-5.41,2.16c-2.3,3.43-5.48,2.89-8.05,2.62c-4.93-0.52-9.68,0.76-14.49,1.4
		c-1.05,0.14-2.09,0.31-3.14,0.34c-0.82-1-1.28-0.63-1.44,0.87c-0.32-0.01-0.65-0.03-0.97-0.04c0.61-2.75-0.92-2.5-1.61-2.02
		c-3.21,2.23-5.42,0.12-7.46-3.32c-0.57-0.96-1.22-1.55-2.09-0.44c-1.04,1.33-0.15,2.04,0.31,2.93
		C43.42,153.15,42.51,153.34,42.25,151.68z"/>
	<path class="st5" d="M44.62,131.64c0.34-0.91,0.91-1.3,1.53-1.59c1.42,2.91,3.5,2.31,5.46,2.35c0.17,0.49,0.34,0.98,0.5,1.47
		c0,0.73,0,1.46-0.01,2.18c-0.07,0.61-0.3,1.64-0.61,1.3c-1.27-1.39-2.84-0.15-4.09-1.3c0.04-2.42-0.35-3.84-2.11-2.07
		c-0.52-0.04-1.04-0.07-1.56-0.11C44.03,133.14,44.33,132.39,44.62,131.64z"/>
	<path class="st6" d="M35.85,138.36c0.94-1.49,2.17-1.91,3.45-2.19c0.98-0.08,1.97-0.16,2.95-0.24c0.01,0.56,0.02,1.12,0.03,1.68
		c-0.62,0.42-0.96,1.16-1.1,2.14C39.34,139.83,37.31,141.53,35.85,138.36z"/>
	<path class="st7" d="M42.27,137.61c-0.01-0.56-0.02-1.12-0.03-1.68c0.5-0.69,0.99-1.37,1.49-2.06c0.52,0.04,1.04,0.07,1.56,0.11
		c-0.36,0.7-0.72,1.41-1.08,2.11C43.57,136.61,42.92,137.11,42.27,137.61z"/>
	<path class="st6" d="M52.11,133.88c-0.17-0.49-0.34-0.98-0.5-1.47c-0.11-1.74-1.1-1.78-1.88-2.33c-0.73-0.53-1.86-0.2-2.05-2
		c1.48-0.64,7.35-0.36,7.99-0.38c2.11-0.06,4.22-0.32,6.33-0.57c6.23-0.75,12.46-1.53,18.69-2.29c0.7,0,1.39,0,2.04,0
		c0.44-1.27-1.15-0.95-0.63-2.2c3.1,0.53,6.09,1.64,8.88,3.81c0.05,0.5,0.1,1.01,0.15,1.51c-1.47-0.19-2.95-0.38-4.42-0.57
		c-0.83-0.13-1.77-0.72-2.11,1.17c-0.31,0.05-0.62,0.09-0.93,0.14c-0.17-0.01-0.33-0.01-0.5-0.02c-0.17-0.02-0.34-0.04-0.5-0.05
		c-0.77-1.08-1.27-0.82-1.52,0.7c-0.48,0.02-0.96,0.04-1.44,0.05c-0.84-1.1-1.67-2.21-2.46,0.08c-0.47,0.02-0.95,0.03-1.42,0.05
		c-0.18,0.22-0.37,0.44-0.55,0.67c-0.16-0.01-0.31-0.03-0.47-0.06c-1.49-2.18-4.99-1.73-5.95,0.77c-0.32,0-0.65,0-0.97-0.01
		c-1.48-0.94-2.97-0.91-4.44,0.03c-0.65-0.04-1.31-0.72-1.96,0c-0.07-0.05-0.14-0.11-0.21-0.16c0.07,0.06,0.14,0.12,0.2,0.17
		c0,0.25,0.01,0.5,0.01,0.76c-1.32,1.4-3.01,0.38-4.36,1.56c-0.93-0.28-1.74,0.28-2.47,1C53.7,135.18,52.9,134.94,52.11,133.88z"/>
	<path class="st8" d="M47.2,128.03c0.16-0.07,0.32-0.06,0.48,0.04c0.18,1.8,1.32,1.48,2.05,2c0.77,0.56,1.77,0.6,1.88,2.33
		c-1.96-0.04-4.04,0.56-5.46-2.35C46.5,129.38,46.85,128.71,47.2,128.03z"/>
	<path class="st7" d="M268.53,133.13c-4.02,1.83-8.2,1.92-12.32,1.84c-2.74-0.05-4.62-3.37-6.4-6.31c-0.61-2.03-1.75-2.21-3.07-2.26
		c-6.37-0.26-12.58,2.02-18.91,2.62c-7.77,0.73-15.49,2.59-23.26,3.22c-5.93,0.48-11.73,2.33-17.65,2.76
		c-1.21,0.09-2.34-0.5-3.6-0.13c-8.07,2.34-16.3,2.6-24.44,4.09c-7.69,1.41-15.49,1.65-23.16,3.22c-6.04,1.24-12.1,1.05-18.13,2.01
		c-1.08,0.17-2.21,1.24-3.34,0.16c-3.86-0.85-7.62,0.17-11.35,1.49c-0.82,0.01-1.63,0.01-2.45,0.01c-0.18-0.04-0.36-0.08-0.54-0.12
		c0.39-1.3,0.96-1.91,1.98-2.29c1.51-0.56,2.9,0.35,4.36,0.04c3.77-0.8,7.54-1.62,11.33-2.07c3.26-0.39,6.71,0.33,9.77-0.7
		c5.07-1.71,10.16-0.18,15.15-1.66c3.88-1.15,7.86-1.3,11.68-2.91c1.04-1.33,2.43,0.83,3.45-0.76c1.76,0.1,3.52,0.67,5.28,0.02
		c3.16-1.18,6.43-0.9,9.64-1.56c5.95-1.24,12.02-1.15,17.99-2.48c1.2-0.27,2.66,1.02,3.56-1.22c0.33,0.01,0.66,0.01,0.99,0.02
		c1.88-0.07,3.76-0.05,5.63-0.26c0.62-0.07,1.24-0.69,1.35-1.86c0.63,0.21,1.27,0.42,1.9,0.62c1.62,1.77,2.99-0.03,4.44-0.7
		c0.82-0.02,1.64-0.03,2.45-0.05c0.84-0.12,1.78,0.55,2.47-0.72c0.64-0.23,1.29-0.45,1.93-0.68c0.86,2.58,1.68,0.51,2.51-0.04
		c1.14,1.04,2.3-0.99,3.44,0.04c0.34,0.72,0.68,0.71,0.99-0.04c0.32-0.02,0.65-0.04,0.97-0.06c1.17,0.44,2.3,0.57,3.54,0.53
		c3.64-0.14,7.1-2.23,10.75-2.02c0.89,0.05,1.78-0.47,2.06-2.07c0.28-0.01,0.57-0.02,0.85-0.02c1.49,2.14,3.67,1.83,5.06-0.73
		c0.63-0.04,0.94-0.56,0.99-1.48c1.43-0.84,2.81-1.9,4.45-1.61c1.99,0.35,3.96,1.21,6.01,0.1c0.73-0.4,1.61,0.04,1.63,1.86
		c0.03,4.17,1.49,5.98,4.17,5.34c2.65-0.64,4.3,0.93,4.88,4.78C267.7,132.06,268.29,132.37,268.53,133.13z"/>
	<path class="st9" d="M114.25,144.35c1.13,1.08,2.26,0.01,3.34-0.16c6.03-0.96,12.09-0.78,18.13-2.01
		c7.68-1.57,15.47-1.81,23.16-3.22c8.14-1.49,16.37-1.75,24.44-4.09c1.26-0.37,2.38,0.22,3.6,0.13c5.92-0.42,11.73-2.27,17.65-2.76
		c7.77-0.63,15.5-2.49,23.26-3.22c6.33-0.6,12.54-2.87,18.91-2.62c1.32,0.05,2.46,0.23,3.07,2.26c-4.91-0.79-9.71,0.87-14.56,1.53
		c-4.71,0.65-9.41,1.28-14.1,2.17c-8.09,1.52-16.26,1.81-24.34,3.53c-4.35,0.92-8.81,0.76-13.16,1.77
		c-5.25,1.22-10.54,1.48-15.8,2.45c-4.2,0.78-8.47,0.78-12.65,1.92c-5.22,1.42-10.53,1.28-15.78,2.48
		c-3.53,0.81-7.23,1.63-10.9,1.19c-0.51-0.89-1-0.88-1.48,0.07c-0.65,0.03-1.31,0.06-1.96,0.09c-0.94-0.8-1.74-0.32-2.49,0.6
		c-0.98,0.01-1.96,0.03-2.94,0.04c-0.81-1.24-1.81-0.65-2.73-0.61c-0.9,0.04-1.79,1.36-2.69-0.04
		C114.23,145.34,114.24,144.85,114.25,144.35z"/>
	<path class="st10" d="M50.68,193.99c-0.01,1.62-0.31,2.56-1.59,1.85c-1.09-0.6-2.21-0.83-2.9,1.15c-0.82-0.23-1.77,0.46-2.46-0.74
		c1.82-4.43,3.32-9.09,3.91-14.24c0.2-1.73,1.59-2.04,1.51-4c-0.16-3.9,0.93-7.26,2.24-10.55c0.39-0.99,1.35-1.82,1.08-3.13
		c-0.84-4.05,1-6.04,2.61-8.26c0.32,0.01,0.65,0.03,0.97,0.04c0.01,0.88,0.24,1.45,0.9,1.4c0.65,2.81,2.23,1.15,3.37,1.6
		c0.65,0.25,1.83-0.6,1.85,0.86c0.03,1.68-0.98,0.84-1.69,0.77c-3.82-0.38-5.82,2.35-5.92,7.93c0,0.55,0,1.1,0,1.65
		c-0.89,2.04-2.16,4.02-0.46,6.47c-0.28,0.64-1.34,0.25-0.99,1.71c-0.13,1.98-2.62,2.25-1.77,4.61c0.85,2.39,2.66,0.85,4.02,1.2
		c0.39,0.1,0.81,0.04,1.21,0.06c0.16,0.27,0.33,0.53,0.49,0.8c-0.46,2.35-1.76,1.22-2.7,1.38c-2.27,0.41-4.84,0.04-4.55,5.37
		c0.04,0.77-0.97,0.41-0.94,1.56C49.46,193.66,50.07,193.83,50.68,193.99z"/>
	<path class="st5" d="M268.53,133.13c-0.24-0.76-0.83-1.06-0.97-2.04c-0.58-3.86-2.23-5.42-4.88-4.78
		c-2.68,0.64-4.14-1.17-4.17-5.34c-0.01-1.82-0.89-2.25-1.63-1.86c-2.05,1.11-4.02,0.25-6.01-0.1c-1.64-0.29-3.02,0.77-4.45,1.61
		c-0.27-0.38-0.55-0.76-0.82-1.15c0.1-0.5,0.21-1,0.31-1.5c2.68-0.88,5.5-0.24,8.11-1.82l0.09,0.16c1.73,1.42,3.36-0.36,5.05-0.32
		c1.83,0.38,3.79-1.26,5.52,0.78c-1.51,0.54-0.66,3.45-1.89,4.27c-0.48,0.32-1.23,0.35-1.01,1.59c0.2,1.12,0.91,0.71,1.42,0.9
		c0.96,0.36,1.9,0.96,1.99-1.49c0.04-1.1,0.76-1.46,1.43-1.59c1.52,2.31,2.46,5.18,3.42,8.04c0.54,1.59,0.46,3.09-0.18,4.55
		C269.43,133.07,268.98,133.1,268.53,133.13z"/>
	<path class="st9" d="M57.07,185.19c-0.16-0.27-0.33-0.53-0.49-0.8c6.47-1.15,12.95-2.29,19.42-3.44
		c7.53-1.34,15.06-2.62,22.58-4.04c4.42-0.83,8.83-1.87,13.3-2.83c0.02,1.91-0.77,2-1.61,2.17c-9.54,1.86-19.08,3.76-28.66,5.22
		c-4.21,0.64-8.38,2.36-12.59,2.49C65.01,184.08,61.14,187.14,57.07,185.19z"/>
	<path class="st9" d="M100.44,145.85c0.82-0.01,1.63-0.01,2.45-0.02c0.84,1.18,1.88,0.52,2.83,0.66c1.53,0.22,3.13-0.53,4.58,0.78
		c-0.17,1.56-0.97,1.32-1.7,1.42c-7.5,1.08-14.99,2.21-22.48,3.29c-1.05,0.15-2.1,0.08-2.95-1.09c1.62-1.76,3.97,0.6,5.41-2.16
		c0.49,0,0.98-0.01,1.48-0.01c0.17,0.42,0.33,0.41,0.48-0.02c0.66-0.24,1.32-0.48,1.98-0.71c1.51,0.88,2.86,0.63,3.96-1.3
		c0.32-0.03,0.63-0.07,0.95-0.1C98.76,149.28,99.63,147.87,100.44,145.85z"/>
	<path class="st9" d="M107.82,184.36c-5.73,1.1-11.47,2.2-17.21,3.3c-2.98,0.57-5.97,1.13-8.95,1.7c0.01-0.41,0.02-0.82,0.04-1.24
		c0.83-1.16,1.96-0.94,2.93-1.43c0.85,0.9,1.68,1,2.48-0.13c0.65-0.21,1.31-0.42,1.96-0.63c0.67,0.89,1.34,0.88,2-0.02
		c9.9-1.94,19.8-3.87,29.7-5.81c0.05,0.42,0.1,0.85,0.15,1.27C116.55,182.36,112.18,183.36,107.82,184.36z"/>
	<path class="st3" d="M54.57,170.33c0-0.55,0-1.1,0-1.65c5.99-1.02,12-1.97,17.98-3.09c4.75-0.89,9.55-1.01,14.44-2.49
		c-0.22,1.88-1.03,1.89-1.81,2.02c-5.67,0.95-11.34,1.92-17.01,2.88C63.64,168.77,59.1,169.55,54.57,170.33z"/>
	<path class="st3" d="M81.69,188.12c-0.01,0.41-0.02,0.83-0.04,1.24c-1.81,0.47-3.62,0.95-5.43,1.43c-0.16,0.05-0.33,0.1-0.49,0.15
		c-6.75,0.75-13.44,2.3-20.14,3.72c-0.96,0.21-1.96,0.03-2.95,0.03c0-0.46-0.01-0.92-0.01-1.38c5.08-0.97,10.14-2.31,15.23-2.8
		C72.52,190.06,77.02,187.99,81.69,188.12z"/>
	<path class="st3" d="M99.78,168.33c-0.34,2.13-1.2,2.51-2.23,2.61c-6.43,0.66-12.76,2.98-19.24,2.67
		c-0.72-0.04-1.71,2.52-1.98,0.13c-0.19-1.65,1.4-1.02,2.22-1.19C85.56,171.12,92.67,170.88,99.78,168.33z"/>
	<path class="st3" d="M110.31,147.27c-1.45-1.31-3.05-0.56-4.58-0.78c-0.95-0.14-1.99,0.53-2.83-0.66
		c3.74-1.31,7.49-2.33,11.35-1.49c-0.01,0.5-0.02,0.99-0.02,1.49c-0.78,0.66-1.64,0.7-2.49,0.75
		C111.26,146.82,110.78,147.05,110.31,147.27z"/>
	<path class="st10" d="M209.39,142.79c-5.4,0.77-10.79,1.55-16.19,2.32c5.3-2.6,10.81-2.08,16.16-3.93
		C209.37,141.72,209.38,142.26,209.39,142.79z"/>
	<path class="st3" d="M68.47,175.95c-2.89,0.54-5.68,1.06-8.58,1.6C60.97,174.88,66.19,173.97,68.47,175.95z"/>
	<path class="st10" d="M111.73,146.6c0.86-0.06,1.72-0.1,2.49-0.75c0.89,1.4,1.79,0.08,2.69,0.04c0.92-0.04,1.93-0.63,2.73,0.61
		C118.16,148.24,112.93,148.31,111.73,146.6z"/>
	<path class="st11" d="M207.67,153.19c1.28-2.38,2.03-4.14,3.72-4.05c0.59,0.03,0.95,0.53,1.08,1.18c0.19,0.93-0.37,1.19-0.85,1.38
		C210.5,152.13,209.38,152.54,207.67,153.19z"/>
	<path class="st10" d="M156.03,166.21c-2.52,0.04-4.91,1.82-7.47,1.12C151,166.34,153.45,165.36,156.03,166.21z"/>
	<path class="st3" d="M53.12,178.51c-0.35-1.47,0.71-1.07,0.99-1.71c1.11-0.11,2.18-1.05,3.44-0.36
		C56.5,179.41,54.62,178.1,53.12,178.51z"/>
	<path class="st10" d="M220.71,140.7c2.43-1.83,5.53-2.37,7.39-1.23C225.53,139.9,223.39,140.25,220.71,140.7z"/>
	<path class="st10" d="M132.12,157c2.14-1.28,4.42-2.1,6.83-1.18C136.68,156.22,134.4,156.61,132.12,157z"/>
	<path class="st10" d="M229,154.25c-1.98,0.7-3.95,1.62-6.03,1.21C224.92,154.49,226.88,153.59,229,154.25z"/>
	<path class="st10" d="M139.89,169.19c-2.66,0.4-4.73,1.69-6.93,0.63C135.1,169.78,137.15,168.14,139.89,169.19z"/>
	<path class="st10" d="M215.37,156.51c2.2-0.54,3.93-1.68,6.49-0.56C219.37,155.95,217.67,157.48,215.37,156.51z"/>
	<path class="st10" d="M146.56,167.54c-1.7,0.95-3.13,1.54-5.01,1.02C143.28,167.51,144.71,166.96,146.56,167.54z"/>
	<path class="st10" d="M158.12,165.5c1.28-0.66,2.52-1.65,4.12-0.89C160.89,166.37,159.48,165.71,158.12,165.5z"/>
	<path class="st10" d="M153.17,152.84c1.44,0.29,2.69-1.85,4.51,0C155.85,152.84,154.51,152.84,153.17,152.84z"/>
	<path class="st10" d="M147.92,153.89c-1.18,1.02-2.39,0.82-3.61,0.36C145.54,154.34,146.64,152.77,147.92,153.89z"/>
	<path class="st11" d="M87.11,186.56c-0.8,1.13-1.63,1.03-2.48,0.13C85.42,185.42,86.25,185.49,87.11,186.56z"/>
	<path class="st9" d="M56.95,157.52c-0.66,0.06-0.88-0.51-0.9-1.4c0.16-1.5,0.62-1.87,1.44-0.87
		C57.31,156.01,57.13,156.77,56.95,157.52z"/>
	<path class="st11" d="M91.07,185.9c-0.66,0.9-1.33,0.91-2,0.02C89.73,184.74,90.39,184.77,91.07,185.9z"/>
	<path class="st10" d="M122.59,146.45c0.75-0.92,1.55-1.4,2.49-0.6C124.35,146.96,123.55,147.48,122.59,146.45z"/>
	<path class="st10" d="M52.64,193.31c0,0.46,0,0.92,0.01,1.38c-0.58,0.06-1.17,0.18-1.56-0.7
		C51.48,193.14,52.06,193.24,52.64,193.31z"/>
	<path class="st10" d="M152.13,153.38c-1.06,0.71-1.69,0.63-2.41,0.33C150.34,152.73,150.99,153.29,152.13,153.38z"/>
	<path class="st10" d="M127.04,145.76c0.48-0.95,0.97-0.96,1.48-0.07C128.05,146.71,127.56,146.73,127.04,145.76z"/>
	<path class="st10" d="M143.02,155.09c-0.14,0.06-0.21,0.09-0.28,0.12c-0.02-0.09-0.04-0.19-0.05-0.28
		C142.77,154.98,142.87,155.02,143.02,155.09z"/>
	<path class="st12" d="M260.15,155.41"/>
	<path class="st13" d="M91.14,127.96c-0.05-0.5-0.1-1.01-0.15-1.51c0.68-0.26,1.36-0.52,2.04-0.77c0.26,2.36,1.53,1.24,2.38,1.58
		c0.19,0.01,0.38,0.03,0.57,0.04c3.55,0,7.09,0,10.64,0c0.03-0.39,0.07-0.79,0.1-1.18c-1.95-0.19-3.05-2.01-3.9-4.29
		c-1.82-2.35-4.39-1.63-6.34-3.46c-0.08-2.53,4.44-2.89,4.43-2.44c-0.44,0.44-0.88,0.87-1.45,1.43c2.29,0.9,4.37,1.85,6.5,2.49
		c1.44,0.44,2.56,1.3,3.24,3.28c0.26,2.55,1.18,3.34,2.87,2.82c1.14-0.35,2.37-0.65,3.54,0.05c1.25,1.47,2.51,0.1,3.82-0.28
		c-1.24-0.45-2.48-0.9-3.71-1.35c-1.52-0.71-1.29-4.06-2.99-4.5c-1.65-0.73-3.3-1.46-4.95-2.19c0.25-1.42,4.59-3.57,4.46-2.52
		c-0.78,0.1-1.56,0.21-2.43,0.33c0.64,1.33,1.56,1.09,2.28,1.57c2.43,1.59,5.39,0.91,7.49,3.91c0.23,2.01,0.55,3.86,2.3,3.85
		c1.77-0.01,3.57-0.88,5.3,0.78c0.52,0.49,1.63,0.52,2.23-1.32c-2.38-0.44-4.45-1.61-5.53-5.11c-0.17-0.56-0.75-0.93-1.3-0.7
		c-1.46-0.6-2.93-1.19-4.39-1.79c0-0.44,0-0.88,0-1.32c0.4-0.06,0.79-0.12,1.19-0.18c2.43,0.83,4.86,1.76,7.31,2.47
		c1.69,0.49,2.97,1.64,3.73,4c0.02,0.96,0.28,1.83,0.94,1.87c1.89,0.1,3.78,0.03,5.68,0.03c0.04-0.35,0.09-0.71,0.13-1.06
		c-1.84-0.25-2.12-2.84-3.16-4.29c-1.79-1.93-4.18-0.96-5.98-2.82c0.47-2.81,1.75,0.11,2.49-0.79c1.96,0.66,3.91,1.53,5.9,1.93
		c1.74,0.35,3.04,1.38,3.89,3.69c1.28,5.15,3.56,0.74,5.48,2c-0.42-2.3-1-3.57-1.75-4.68c-2.12-2.38-4.87-1.75-7.15-3.35
		c0.72-0.4,1.45-0.8,2.17-1.2c2.27,0.83,4.52,1.78,6.8,2.44c1.8,0.52,3.4,1.29,4.29,3.94c0.09,0.45,0.09,1.13,0.29,1.32
		c1.64,1.59,3.64-0.39,5.31,1.13c0.09-0.3,0.28-0.84,0.27-0.86c-1.59-1.35-1.46-5.42-3.84-5.51c-1.68-0.63-3.35-1.26-5.03-1.88
		c0.03-0.39,0.06-0.77,0.1-1.16c0.27-0.09,0.54-0.18,0.81-0.27c2.45,0.82,4.89,1.66,7.34,2.44c1.35,0.43,2.71,0.74,3.6,2.57
		c1.21,6.28,4.63,1.01,6.72,3.09c-1.75-1.08-1.94-4.05-3.23-5.51c-1.82-0.67-3.64-1.34-5.46-2.01c0.22-0.38,0.44-0.76,0.67-1.13
		c3.44,1,6.98,1.36,10.18,3.84c0.47,1.48,0.72,3.79,1.99,3.6c2.06-0.3,3.96,0.94,5.96,0.76c0.85-0.06,1.89,0.42,2.04-1.63
		c1.68,0,3.37,0,5.05,0c-0.76-1.37-1.28-2.52-1.72-3.78c-0.51-1.43-1.25-2.26-2.39-1.91c-1.8-0.61-3.59-1.22-5.39-1.83
		c0.15-1.42,0.9-1.17,1.53-1.27c2.83,0.97,5.64,2.06,8.5,2.83c0.97,0.26,1.62,0.89,2.21,1.89c0.47,2.43,1.37,3.64,3.18,2.98
		c0.91-0.33,1.91-0.51,2.77,0.49c0.47-0.25,1.25,1.03,1.38-0.28c0.15-1.45-0.79-1.1-1.39-1.16c-1.75-0.45-1.65-4.22-3.52-4.44
		c2.6-1.8,4.81-0.6,7,3.8c1.22,1.59,2.67,0.08,3.96,0.66c0.35,2.15,1.46,1.71,2.23,1.07c0.95-0.8,0.77-1.67-0.38-1.8
		c-1.16,0.23-1.94-0.41-2.53-2.02c-0.38-1.03-0.55-2.73-1.8-2.41c-2.14-0.72-4.28-1.43-6.42-2.15c0.21-1.4,1.18-0.03,1.52-0.96
		c3.27,1.01,6.55,2.02,9.82,3.03c0.87,1.41,1.09,4.24,2.49,4.23c1.97-0.02,3.82,0.99,5.76,0.84c0.86,0.18,1.59,0.06,1.68-1.6
		c1.24,0.03,2.51,0.29,3.7-0.76c-0.41-1.39-0.79-2.71-1.65-3.51c-0.04-0.23-0.08-0.46-0.12-0.69c0.02-0.41,0.05-0.82,0.07-1.22
		c1.75,0.38,3.64,0.25,4.85,2.77c0.74,4.01,2.95,1.73,4.47,2.37c2,2.12,3.25,1.86,3.91-0.84c2.31-0.14,4.62-0.28,6.93-0.42
		c-0.47,4.54,1.63,2.92,3.18,2.87c-0.96,1.13-1.09,3.48-2.92,2.86c-0.98-0.34-0.64,1.58-0.79,2.56c-0.05,0.19-0.08,0.38-0.11,0.58
		c-0.89-0.1-1.79-0.2-2.68-0.3c-0.91-0.83-1.78-1.16-2.54,0.36c-0.46,0-0.92,0-1.39,0c-0.98-0.55-1.96-0.93-2.78,0.5
		c-1.1,0.14-2.19,0.29-3.29,0.43c-0.57-2.4-1.67,0.09-2.43-0.6c-0.69,0.27-1.83-1.96-2.06,0.84c-0.43,0.47-0.91,0.53-1.42,0.35
		c-0.32-1.54-0.83-1.59-1.5-0.45c-0.49,0.02-0.91,0.22-1.12,0.98c-0.94,0.1-1.88,0.19-2.82,0.29c-0.39-0.78-0.95-0.54-1.47-0.58
		c-0.65-0.41-1.39-1.23-1.48,0.78c-0.99,0.24-1.97,0.47-2.96,0.71c-0.69-0.97-1.35-1.07-1.97,0.15c-0.77,0.11-1.54,0.22-2.31,0.33
		c-0.59-0.57-1.16-0.67-1.64,0.27c-1.27,0.11-2.54,0.23-3.8,0.34c-1.07-0.4-2.15-0.85-3.1,0.51c-0.77,0.1-1.54,0.2-2.31,0.3
		c-1.76-0.22-3.59-1.25-5.18,0.85c-0.46,0.02-0.92,0.03-1.39,0.05c-1.01-0.81-2.01-0.98-2.95,0.23c-1.15,0.18-2.3,0.36-3.46,0.53
		c-1.03-0.84-2.04-1.15-2.94,0.37c-0.29,0.02-0.58,0.03-0.88,0.05c-3.39-0.62-6.71-0.07-9.97,1.41c-0.61,0.04-1.22,0.09-1.83,0.13
		c-5.72-1.37-11.28,1.25-16.94,1.66c-1.25,0.09-2.8-0.73-3.91,1.08c-0.65,0.12-1.31,0.25-1.96,0.37c0.03-0.22,0.04-0.43,0.02-0.65
		c-0.19-0.98-0.43-1.7-1.05-0.45c-1.36,0.18-2.78,0.01-3.92,1.51c-0.45,0.06-0.9,0.11-1.35,0.17c-1.4-0.33-2.83-1.08-4.06,0.73
		c-0.45,0.01-0.9,0.01-1.35,0.02c-1.24-0.44-2.48-0.86-3.6,0.52c-0.6,0.1-1.2,0.21-1.8,0.31c-1.24-0.42-2.49-1.01-3.62,0.45
		c-0.61,0.07-1.22,0.14-1.82,0.2c-1.23-0.36-2.48-0.89-3.6,0.5c-0.33,0.02-0.66,0.05-0.99,0.07c-1.53-0.64-3.01-0.37-4.43,0.66
		c-0.62,0.11-1.23,0.22-1.85,0.32c-0.43-0.32-0.92-1.01-1.28-0.89c-2.59,0.84-5.21,0.33-7.81,0.62c-0.74,0.08-1.43,0.5-1.87,1.51
		c-1.44,0.11-2.87,0.21-4.31,0.32c-3.06-0.69-6.12-1.42-9,1.15c-1.15,0.19-2.31,0.37-3.46,0.56c-0.09-0.33-0.2-0.96-0.27-0.95
		c-3.22,0.46-6.49,0.29-9.6,1.94c-0.96,0.09-1.93,0.17-2.89,0.26c-0.74-1.47-0.92-0.64-1.02,0.55c-0.83,0.02-1.67,0.04-2.5,0.06
		c-0.46-1.47-0.78-0.84-1.07,0.17c-0.62,0.06-1.25,0.12-1.87,0.18c-0.11-2.08-0.39-4.28,1.63-4.75c0.14-0.03,0.21-0.8,0.32-1.23
		c0.26-0.04,0.51-0.09,0.77-0.13c1.26-0.52,3.35,2.76,3.71-1.85c0.81-0.07,1.62-0.15,2.43-0.22c0.41,0.97,0.75,0.78,1.04-0.15
		c0.48,0.47,0.91,0.34,1.32-0.2c0.21,0.29,0.46,0.86,0.62,0.81c0.6-0.17,0.44-1.04,0.51-1.68c0.31,0.01,0.63,0.01,0.94,0.02
		c0.06,0.46,0.13,0.97,0.51,0.98c0.38,0.01,0.46-0.5,0.52-0.96c0.48,0.01,0.96,0.03,1.44,0.04c0.52,1.67,1.02,1.71,1.48-0.06
		c0.32-0.1,0.65-0.2,0.97-0.3c0.37,0.86,0.96,0.88,1.54,0.81c4.14-0.49,8.29-0.93,12.43-1.58c0.87-0.14,2.06-0.1,2.34-2.04
		C91.49,129.89,91.87,129.24,91.14,127.96z"/>
	<path class="st6" d="M249.31,99.04c1.97-0.05,3.95-0.11,5.92-0.16c2.3,0.59,4.55,1.66,6.9,1.69c0.42,0.3,1.01-0.06,1.46,1.26
		c-7.48,1.06-14.91,1.2-22.18,3.28c-0.48-0.06-0.97-0.12-1.45-0.18c-0.69-1.13-1.56-0.55-2.37-0.59c-1.61-0.11-3.22-0.22-4.97-0.34
		c0.56-0.72,1.27-0.04,1.74-1.36c-1.2,0.52-2.03-1.02-3.16-0.47c-0.97,0.47-1.05-0.57-1.08-1.62c0.65-0.08,1.3-0.16,1.95-0.23
		c1.47,0.63,2.94,0.59,4.41,0.02c2.51,0.67,4.94-0.59,7.41-0.75C245.73,100.04,247.49,98.92,249.31,99.04z"/>
	<path class="st8" d="M214.32,122.51c0.51,0.17,0.99,0.12,1.42-0.35c0.33,0.12,0.66,0.24,0.99,0.35c1.2,0.25,2.41,0.67,3.5-0.6
		c1.1-0.14,2.19-0.29,3.29-0.43c0.98,0.51,1.96,0.92,2.78-0.5c0.46,0,0.92,0,1.38,0c0.88,0.49,1.74,0.59,2.54-0.36
		c0.89,0.1,1.79,0.2,2.68,0.3c0.9,0.2,1.82,0.74,2.59-0.51c1.11-0.09,2.22-0.18,3.33-0.27c0.43,0.3,0.81,0.23,1.11-0.37
		c1.89-0.1,3.77-0.2,5.66-0.31c0.27,0.38,0.54,0.76,0.82,1.14c-0.05,0.91-0.36,1.44-0.99,1.48c-1.69,0.24-3.37,0.49-5.06,0.73
		c-0.28,0.01-0.57,0.02-0.85,0.02c-5.21,0.74-10.43,1.47-15.64,2.23c-0.46,0.07-0.63,0.7-0.72,1.33c-0.32,0.02-0.65,0.04-0.97,0.06
		c-0.35-0.79-0.68-0.75-0.99,0.04c-1.14-1.03-2.3,1.01-3.44-0.04c-0.85-1.61-1.67,0.17-2.51,0.04c-0.64,0.23-1.29,0.45-1.93,0.68
		c-0.98-1.01-1.91-1.53-2.47,0.72c-0.82,0.02-1.64,0.03-2.45,0.05c-1.59-1.31-3.07-1.18-4.44,0.7c-0.63-0.21-1.27-0.42-1.9-0.63
		c-1.71,0.55-3.43,0.86-5.18,0.66c-0.79-0.09-1.44,0.29-1.79,1.46c-0.33-0.01-0.66-0.01-0.99-0.02c-0.48-0.95-1.18-0.76-1.81-0.68
		c-5.61,0.72-11.23,1.32-16.82,2.3c-1.67,0.29-3.32-0.14-5.01,0.54c-3.05,1.21-6.24,1.42-9.4,1.53c0.06-2.03,1.5-0.9,2.03-1.94
		c-1.31-0.79-2.81,0.61-3.98-0.99c0.05-0.38,0.11-0.75,0.16-1.13c0.61-0.04,1.22-0.09,1.82-0.13c3.4,0.81,6.73,0.31,9.97-1.41
		c0.29-0.02,0.58-0.03,0.88-0.05c1.03,0.82,2.03,0.9,2.94-0.37c1.15-0.18,2.3-0.36,3.46-0.53c1.02,0.95,2.01,1.06,2.95-0.23
		c0.46-0.02,0.92-0.03,1.39-0.05c1.75,0.08,3.57,0.98,5.18-0.85c0.77-0.1,1.54-0.2,2.31-0.3c1.11,0.83,2.17,1.11,3.1-0.51
		c1.27-0.11,2.54-0.23,3.8-0.34c0.63,1.05,1.15,0.64,1.64-0.27c0.77-0.11,1.54-0.22,2.31-0.33c0.69,0.85,1.34,0.81,1.97-0.15
		c0.99-0.24,1.97-0.47,2.96-0.71c0.49,0.03,0.98,0.07,1.47,0.1c0.57,0.74,1.07,0.72,1.48-0.3c0.94-0.1,1.88-0.19,2.82-0.29
		c0.41,0.48,0.78,0.42,1.12-0.16C213.32,122.76,213.82,122.63,214.32,122.51z"/>
	<path class="st7" d="M230.11,100.55c0.03,1.04,0.11,2.09,1.08,1.62c1.13-0.55,1.96,0.99,3.16,0.47c-0.46,1.32-1.17,0.64-1.74,1.36
		c1.75,0.12,3.36,0.23,4.97,0.34c0.28,3.1-1.33,4.62-2.43,6.56c-2.58,0.93-4.12-3-6.48-3.11c-2.17-2.1-4.84-0.84-7.08-2.42
		c0.25-0.82,0.5-1.65,0.75-2.47c0.93-2.22,2.42-1.61,3.78-1.73C227.4,100.21,228.77,100.53,230.11,100.55z"/>
	<path class="st4" d="M259.16,115.99c-1.69-0.04-3.32,1.74-5.05,0.32c0.23-1.28,0.69-2.72-0.91-2.51c-0.47,0.06-1.12,0.14-1.3-0.61
		c-0.94-3.95-3.12-2.97-5.05-3.03c-0.9-1.86-0.44-2.89,0.93-2.59c2.52,0.55,5,0.57,7.47-0.37c1.64-0.62,2.78,2.08,4.41,1.46
		c0,0,0,0,0,0c-0.39,0.83-0.99,0.67-1.54,0.76c-0.59,0.1-1.45-0.5-1.67,0.8c-0.15,0.88,0.56,1.38,0.91,2.03
		C258,113.43,259.09,114.16,259.16,115.99z"/>
	<path class="st8" d="M228.67,107.79c2.36,0.11,3.91,4.03,6.48,3.11c-0.3,1.13-1.11,0.67-1.61,1.16c-2.31,0.14-4.62,0.28-6.93,0.42
		c-0.22-1.07-1.04-1.67-1.03-2.93C226.31,107.75,227.94,109.53,228.67,107.79z"/>
	<path class="st11" d="M246.84,110.15c1.93,0.07,4.12-0.91,5.05,3.03c0.18,0.75,0.83,0.68,1.3,0.61c1.61-0.21,1.15,1.23,0.91,2.51
		c0,0-0.09-0.16-0.09-0.16c-2.34-2.87-5.09-1.07-7.64-1.48C245.57,112.93,246.61,111.64,246.84,110.15z"/>
	<path class="st4" d="M246.38,114.67c2.55,0.41,5.3-1.39,7.64,1.48c-2.61,1.58-5.43,0.94-8.11,1.82
		C246.06,116.87,246.22,115.77,246.38,114.67z"/>
	<path class="st12" d="M239.95,104.93c0.48,0.06,0.97,0.12,1.45,0.18c-0.03,1.44,1.46,3.34-0.43,4.18c-0.7,0.31-1.86,0.69-2.24-0.5
		C238.22,107.14,239.01,105.85,239.95,104.93z"/>
	<path class="st3" d="M235.5,120.42c-0.77,1.25-1.7,0.7-2.59,0.51c0.02-0.2,0.06-0.39,0.11-0.58
		C233.84,120.17,234.68,119.22,235.5,120.42z"/>
	<path class="st3" d="M239.94,119.78c-0.3,0.6-0.68,0.67-1.11,0.37C239.1,119.36,239.42,118.86,239.94,119.78z"/>
	<path class="st2" d="M259.16,115.99c-0.07-1.83-1.16-2.56-1.8-3.76c-0.35-0.65-1.05-1.15-0.91-2.03c0.22-1.3,1.07-0.7,1.67-0.8
		c0.56-0.09,1.15,0.07,1.54-0.76c3.67-0.11,4.54,4.46,5.97,8.08c0,0-0.08,0.12-0.08,0.12c-0.29-0.03-0.58-0.05-0.87-0.08
		C262.95,114.73,260.99,116.37,259.16,115.99z"/>
	<path class="st7" d="M264.68,116.77c0.29,0.03,0.58,0.05,0.87,0.08c0.36,1.2,0.72,2.4,1.08,3.6c-0.68,0.14-1.39,0.49-1.43,1.59
		c-0.09,2.46-1.04,1.86-1.99,1.49c-0.51-0.19-1.22,0.21-1.42-0.9c-0.22-1.24,0.54-1.27,1.01-1.59
		C264.02,120.22,263.17,117.31,264.68,116.77z"/>
	<path class="st3" d="M41.75,151.69l-0.24,0.02c0,0-0.24-0.06-0.24-0.06C41.45,151.23,41.61,151.3,41.75,151.69z"/>
	<path class="st6" d="M56.06,142.72c0.62-0.06,1.25-0.12,1.87-0.18c0.38,0.33,0.74,0.37,1.07-0.17c0.83-0.02,1.67-0.04,2.5-0.07
		c0.31,0.12,0.63,0.24,0.94,0.36c1.07,1.05,2.12,1.83,2.96-0.46c1.48-0.1,2.95-0.2,4.43-0.29c1.11,1.21,2.16,1.78,3-0.52
		c0.81-0.05,1.62-0.11,2.43-0.16c1.55,0.92,3.11,1.91,4.47-0.57c0.65-0.07,1.31-0.13,1.96-0.2c0.36,0.86,0.94,0.82,1.51,0.84
		c3.73,0.13,7.41-1.24,11.15-0.77c0.67,0.08,1.07-0.45,1.14-1.48c0.33-0.01,0.66-0.02,0.99-0.03c0.53,1.09,1.32,0.75,2.02,0.78
		c4.31,0.17,8.52-1.39,12.81-1.52c0.58-0.02,0.86-0.56,0.95-1.38c0.49-0.04,0.98-0.07,1.46-0.11c1.52,1.12,3.03,1.47,4.47-0.27
		c0.24,0.02,0.48,0.03,0.72,0.04c1.59-0.15,3.39,1.7,4.68-1.16c0.32-0.03,0.65-0.05,0.97-0.08c3.4,1.97,6.72-0.42,10.08-0.45
		c0.1,0,0.19-0.62,0.28-0.95c0.49-0.04,0.98-0.07,1.46-0.11c1.71,0.9,3.45,2.09,4.94-0.67c0.49-0.02,0.98-0.05,1.46-0.07
		c1.56,0.85,3.13,1.99,4.45-0.67c0.33-0.02,0.65-0.05,0.98-0.07c0.42,0.99,0.5,1.99,0,2.98c-0.65-0.22-1.3-0.45-1.94-0.67
		c-0.79,0.08-1.78-0.52-2.01,1.39c-1.03,0.32-1.95-0.45-2.92-0.66c-0.84,0.14-1.78-0.51-2.48,0.73c-5.53,0.21-11,1.42-16.5,2.21
		c-4.83,0.7-9.68,1.13-14.51,1.87c-4.77,0.73-9.51,2.08-14.33,1.88c-1.84-0.04-3.6,1.13-5.46,0.75c-2.83,0.45-5.65,1.21-8.49,1.29
		c-4.55,0.13-8.98,1.9-13.56,1.88c-2.16-0.01-4.74-0.14-6.41,3.41c-0.67,1.44-2.12,1.96-3.31,0.64c-1.51-1.68-3.01-3.4-3.9-6.01
		c0.39-0.23,0.78-0.47,1.17-0.7C54.45,143.51,55.26,143.2,56.06,142.72z"/>
	<path class="st3" d="M55.08,156.08c-1.61,2.21-3.45,4.21-2.61,8.26c0.27,1.3-0.69,2.14-1.08,3.13c-1.31,3.29-2.4,6.65-2.24,10.55
		c0.08,1.96-1.31,2.28-1.51,4c-0.59,5.15-2.09,9.82-3.91,14.24c-1.7-0.49-2.29-1.52-1.6-4.37c0.79-3.29,1.52-6.88,1.47-10.32
		c-0.11-7.17,1.12-13.77,2.68-20.37c1.26-5.33,1.19-5.36-2.05-7.97c-0.46-0.89-1.35-1.6-0.31-2.93c0.87-1.11,1.52-0.52,2.09,0.44
		c2.04,3.44,4.25,5.55,7.46,3.32C54.15,153.58,55.69,153.34,55.08,156.08z"/>
	<path class="st5" d="M52.42,144.04c0.88,2.62,2.39,4.34,3.9,6.01c1.19,1.32,2.63,0.8,3.31-0.64c1.66-3.56,4.25-3.42,6.41-3.41
		c4.58,0.02,9.01-1.75,13.56-1.88c2.83-0.08,5.66-0.84,8.49-1.29c0.17,0.97,0.34,1.95,0.51,2.92c-1.18,1.33-2.71,0.52-3.95,1.5
		c-0.32,0.03-0.64,0.06-0.95,0.09c-1.23-1.65-2,0.7-3.03,0.8c-0.3-0.01-0.6-0.02-0.91-0.03c-2.33-1.46-4.32,0.62-6.43,1.38
		c0,0,0,0,0,0c-1.58-1.46-3.35,0.28-4.97-0.64c-0.23,1.65-2.26-0.71-1.99,2.03c-1.75,0.44-3.51,0.86-5.26,1.31
		c-4.52,1.16-8.57-1.57-12.7-3.57c-0.95-0.46-0.72-1.28-0.15-2.18C49.39,144.64,50.77,143.85,52.42,144.04z"/>
	<path class="st7" d="M71.81,133.41c-0.48-0.01-0.96-0.03-1.44-0.05c-0.34-0.01-0.69-0.02-1.03-0.03c-0.31-0.01-0.63-0.01-0.94-0.02
		c-0.55-0.23-0.92,0.1-1.13,0.87c-0.41,0.54-0.84,0.68-1.32,0.2c-0.4-0.72-0.74-0.57-1.04,0.15c-0.81,0.07-1.62,0.15-2.43,0.22
		c-1.46-0.4-2.75-0.02-3.71,1.85c-0.26,0.04-0.51,0.09-0.77,0.13c-1.25,0.01-2.51,0-3.44,1.59c-1.39-0.62-1.91,2.03-3.48,1.76
		c-2.44-0.41-2.94,0-4.36-1.02c0.23-1,0.46-2.01,0.69-3.01c1.25,1.16,2.82-0.08,4.09,1.3c0.31,0.34,0.54-0.69,0.61-1.3
		c2.16,1,3.54-1.09,5.01-2.83c1.35-1.17,3.05-0.16,4.36-1.56c0.81,0.22,1.63,0.44,2.44,0.65c1.36-0.24,2.74-0.38,3.96-1.45
		c0.32,0,0.65,0,0.97,0.01c2.01,0.2,4,0.06,5.95-0.77c0.16,0.02,0.31,0.04,0.47,0.06c0.7,0.75,0.41-0.37,0.55-0.67
		c0.47-0.02,0.95-0.03,1.42-0.05c0.83,1,1.66,1.09,2.46-0.08c0.48-0.02,0.96-0.04,1.44-0.05c0.58,0.12,1.16,0.29,1.52-0.7
		c0.17,0.02,0.34,0.04,0.5,0.05c0.15,0.57,0.32,0.56,0.5,0.02c0.31-0.05,0.62-0.09,0.93-0.14c0.85,0.19,1.73,0.54,2.11-1.17
		c1.47,0.19,2.95,0.38,4.42,0.57c0.73,1.28,0.35,1.93-0.57,2.29c-4.49-0.27-8.84,1.6-13.3,1.92c-0.94,0.07-2.2-0.78-3,0.89
		c-0.32,0.1-0.65,0.2-0.97,0.3C72.77,131.85,72.29,132.83,71.81,133.41z"/>
	<path class="st7" d="M84.64,147.25c1.24-0.97,2.77-0.17,3.95-1.5c0,0,0.24,0,0.24,0l0.24,0.02c0.06,0.34-0.07,0.92,0.35,0.84
		c0.08-0.02,0.12-0.55,0.17-0.84c0.51-1.12,1.3-0.57,1.96-0.75c2.07,0.09,4.14,0.01,6.15-0.74c1.03-0.38,1.33,0.08,1.21,1.52
		c-0.49,0.26-0.98,0.52-1.47,0.78c-0.32,0.03-0.63,0.07-0.95,0.1c-1.48-0.66-2.7,0.49-3.96,1.3c-0.66,0.24-1.32,0.48-1.98,0.71
		c-0.16,0-0.32,0.01-0.48,0.02c-0.49,0-0.98,0.01-1.48,0.01c-1.17,0.1-2.25-1.09-3.53-0.17C84.32,149.1,84.5,147.92,84.64,147.25z"
		/>
	<path class="st1" d="M47.41,136.06c-0.23,1-0.46,2.01-0.69,3.01c-0.4,1.45-0.75,2.94-1.21,4.34c-0.29,0.86-0.25,2.73-1.3,2.01
		c-0.91-0.62-1.83-1.8-1.34-3.8c0.45-1.84,0.9-3.68,1.35-5.52c0.36-0.71,0.72-1.41,1.08-2.11
		C47.06,132.23,47.45,133.64,47.41,136.06z"/>
	<path class="st11" d="M54.57,138.33c0.93-1.59,2.18-1.58,3.44-1.59c-0.1,0.42-0.17,1.19-0.32,1.23c-2.02,0.47-1.73,2.67-1.63,4.75
		c-0.79,0.48-1.61,0.8-2.47,0.62C53.27,141.39,53.95,139.87,54.57,138.33z"/>
	<path class="st7" d="M66.35,150.88c-0.26-2.74,1.77-0.38,1.99-2.03c1.61,0.92,3.38-0.81,4.97,0.64c-1.22,2.26-2.88,2.32-4.6,2.01
		C67.92,151.35,67.14,151.09,66.35,150.88z"/>
	<path class="st5" d="M35.85,138.36c1.47,3.16,3.49,1.47,5.33,1.4c-0.71,2.8-1.89,3.75-3.82,2.48c-0.8-0.53-1.73-0.64-2.6-0.94
		c0.2-0.96,0.4-1.92,0.6-2.88C35.52,138.4,35.68,138.38,35.85,138.36z"/>
	<path class="st7" d="M73.31,149.49c2.12-0.76,4.11-2.84,6.43-1.38C77.79,150.55,75.57,150.25,73.31,149.49z"/>
	<path class="st7" d="M80.66,148.14c1.03-0.1,1.8-2.46,3.03-0.8C82.89,149.45,81.99,150.66,80.66,148.14z"/>
	<path class="st13" d="M76.23,190.78"/>
	<path class="st8" d="M57.12,133.23c-1.47,1.74-2.86,3.83-5.01,2.83c0-0.73,0-1.46,0.01-2.18c0.79,1.06,1.59,1.3,2.54,0.35
		C55.38,133.51,56.19,132.95,57.12,133.23z"/>
	<path class="st7" d="M82.1,122.63c-0.12-2.35,0.54-3.9,2.07-4.53c0.45,0.03,0.9,0.05,1.35,0.08c1.18,1.72,2.83,1.57,4.22,2.46
		c1.59,1.02,3.82,0.73,4.28,4.32c-0.39,0.06-0.79,0.09-1,0.72c-0.68,0.26-1.36,0.52-2.04,0.77C88.2,124.27,85.2,123.16,82.1,122.63z
		"/>
	<path class="st5" d="M74.81,130.11c-1.95,0.83-3.94,0.97-5.95,0.77C69.82,128.38,73.32,127.93,74.81,130.11z"/>
	<path class="st5" d="M67.88,130.88c-1.22,1.07-2.6,1.21-3.96,1.45c0.01-0.6-0.09-1.12-0.48-1.42
		C64.92,129.97,66.4,129.94,67.88,130.88z"/>
	<path class="st5" d="M79.71,129.37c-0.81,1.17-1.63,1.08-2.46,0.08C78.04,127.17,78.88,128.28,79.71,129.37z"/>
	<path class="st8" d="M63.44,130.91c0.39,0.3,0.49,0.82,0.48,1.42c-0.81-0.22-1.63-0.44-2.44-0.66c0-0.25-0.01-0.5-0.01-0.76
		l0.01-0.01C62.13,130.19,62.78,130.87,63.44,130.91z"/>
	<path class="st5" d="M86.72,127.39c-0.38,1.71-1.27,1.36-2.11,1.17C84.94,126.67,85.88,127.26,86.72,127.39z"/>
	<path class="st5" d="M82.67,128.62c-0.35,0.98-0.94,0.82-1.52,0.7C81.4,127.81,81.9,127.55,82.67,128.62z"/>
	<path class="st5" d="M75.83,129.5c-0.14,0.3,0.15,1.42-0.55,0.67C75.46,129.95,75.64,129.72,75.83,129.5z"/>
	<path class="st8" d="M61.47,130.92c-0.07-0.06-0.14-0.12-0.2-0.17C61.34,130.8,61.41,130.85,61.47,130.92
		C61.48,130.91,61.47,130.92,61.47,130.92z"/>
	<path class="st5" d="M83.67,128.7c-0.18,0.54-0.34,0.55-0.5-0.02C83.34,128.69,83.5,128.69,83.67,128.7z"/>
	<path class="st5" d="M98.91,145.8c0.12-1.45-0.18-1.91-1.21-1.52c-2.01,0.75-4.08,0.83-6.15,0.74c0.04-0.99,0.36-1.64,1.04-1.36
		c1.11,0.46,0.88-0.73,0.95-1.59c4.83,0.2,9.56-1.15,14.33-1.88c4.83-0.73,9.68-1.17,14.51-1.87c5.5-0.79,10.97-2.01,16.5-2.21
		c0.99,1.01,1.91,1.52,2.48-0.73c0.98,0.2,1.89,0.98,2.92,0.66c0.79-0.06,1.79,0.55,2.01-1.39c0.65,0.22,1.3,0.45,1.94,0.67
		c0.69-0.06,1.46,0.37,1.98-0.72c0.82-0.23,1.63-0.47,2.45-0.7c-0.05,1.59,1.18,1.2,1.5,2.22c-3.82,1.6-7.81,1.76-11.68,2.91
		c-4.98,1.48-10.08-0.05-15.15,1.66c-3.06,1.03-6.51,0.31-9.77,0.7c-3.79,0.45-7.56,1.28-11.33,2.07c-1.46,0.31-2.85-0.6-4.36-0.04
		c-1.02,0.38-1.59,0.99-1.98,2.29C99.57,145.75,99.24,145.78,98.91,145.8z"/>
	<path class="st5" d="M161.04,133.83c3.16-0.11,6.35-0.32,9.4-1.53c1.7-0.68,3.35-0.25,5.01-0.54c5.59-0.98,11.21-1.59,16.82-2.3
		c0.63-0.08,1.33-0.26,1.81,0.68c-0.91,2.24-2.36,0.95-3.56,1.22c-5.97,1.33-12.04,1.25-17.99,2.48c-3.21,0.67-6.48,0.39-9.64,1.56
		c-1.75,0.65-3.52,0.08-5.28-0.02c0.01-0.73,0.02-1.45,0.02-2.18C158.81,132.9,159.91,133.48,161.04,133.83z"/>
	<path class="st5" d="M223.16,126.4c0.09-0.63,0.25-1.26,0.72-1.33c5.21-0.76,10.43-1.49,15.64-2.23c-0.28,1.6-1.16,2.12-2.06,2.07
		c-3.66-0.22-7.11,1.88-10.75,2.02C225.46,126.97,224.33,126.84,223.16,126.4z"/>
	<path class="st8" d="M157.63,133.2c-0.01,0.73-0.02,1.45-0.02,2.18c-1.02,1.59-2.4-0.57-3.45,0.76c-0.32-1.01-1.56-0.62-1.5-2.22
		C154.32,133.68,155.98,133.44,157.63,133.2z"/>
	<path class="st5" d="M195.08,130.16c0.35-1.17,1-1.56,1.79-1.46c1.75,0.2,3.47-0.11,5.18-0.66c-0.11,1.17-0.72,1.79-1.35,1.86
		C198.83,130.11,196.95,130.09,195.08,130.16z"/>
	<path class="st5" d="M240.37,122.82c1.69-0.24,3.37-0.49,5.06-0.73C244.04,124.65,241.86,124.96,240.37,122.82z"/>
	<path class="st5" d="M203.95,128.66c1.36-1.88,2.85-2.01,4.44-0.7C206.94,128.63,205.57,130.43,203.95,128.66z"/>
	<path class="st3" d="M98.91,145.8c0.33-0.03,0.66-0.05,0.99-0.08c0.18,0.04,0.36,0.08,0.54,0.12c-0.81,2.02-1.69,3.43-3,0.73
		C97.93,146.32,98.42,146.06,98.91,145.8z"/>
	<path class="st5" d="M215.24,126.51c0.84,0.12,1.66-1.65,2.51-0.04C216.92,127.02,216.1,129.1,215.24,126.51z"/>
	<path class="st5" d="M210.84,127.91c0.56-2.25,1.49-1.73,2.47-0.72C212.62,128.46,211.68,127.79,210.84,127.91z"/>
	<path class="st5" d="M221.2,126.5c0.32-0.79,0.65-0.83,0.99-0.04C221.87,127.21,221.54,127.22,221.2,126.5z"/>
	<path class="st3" d="M92.53,147.98c1.27-0.81,2.48-1.96,3.96-1.3C95.39,148.61,94.04,148.87,92.53,147.98z"/>
	<path class="st3" d="M90.07,148.72c0.16-0.02,0.32-0.03,0.48-0.02C90.4,149.13,90.24,149.14,90.07,148.72z"/>
	<path class="st2" d="M166.73,110.39c2.88,0.96,5.17,1.87,7.5,2.46c1.31,0.33,2.31,1.07,3.05,2.69c0.19,0.86,0.39,1.73,0.58,2.59
		c-0.15,2.05-1.19,1.57-2.04,1.63c-1.56-1.82-3.25-3.39-4.43-5.87c-0.15-0.11-0.31-0.13-0.48-0.05c-0.28-0.1-0.56-0.21-0.84-0.31
		c-1.86-1.6-4.14-0.82-6-2.38C165.7,109.65,168.35,110.18,166.73,110.39z"/>
	<path class="st6" d="M89.56,117.43c2.39-1.2,4.6,0.64,6.91,0.93c1.95,1.83,4.51,1.11,6.34,3.46c-2.72-0.36-5.29,1.4-8.21,1.15
		c0.51,1.65,1.74,2.48,1.37,4.32c-0.19-0.01-0.38-0.03-0.57-0.04c-0.46-0.77-0.92-1.53-1.38-2.3c-0.46-3.59-2.69-3.3-4.28-4.32
		c-1.38-0.89-3.04-0.73-4.22-2.46C86.78,116.77,88.24,117.95,89.56,117.43z"/>
	<path class="st8" d="M95.97,127.29c0.36-1.84-0.86-2.67-1.37-4.32c2.92,0.26,5.48-1.5,8.21-1.15c0.85,2.28,1.95,4.1,3.9,4.29
		c-0.03,0.39-0.07,0.79-0.1,1.18C103.06,127.29,99.52,127.29,95.97,127.29z"/>
	<path class="st5" d="M122.58,118.46c0.55-0.23,1.13,0.13,1.3,0.7c1.08,3.5,3.15,4.68,5.53,5.11c-0.6,1.84-1.71,1.81-2.23,1.32
		c-1.74-1.66-3.53-0.79-5.3-0.78c-1.75,0.01-2.07-1.84-2.3-3.85C120.03,118.64,122.25,121.13,122.58,118.46z"/>
	<path class="st6" d="M191.64,107.86c0.27-1.14,0.97-0.52,1.45-0.81c1.49,0.26,2.98,0.51,4.47,0.77c1.14,0.44,2.27,0.94,3.43,1.3
		c1.07,0.34,1.51-0.28,1.04-1.92c0.31-0.05,0.62-0.1,0.94-0.15c2.92-0.21,5.62,1.48,8.44,2.22c-0.37,0.63-0.74,1.26-1.11,1.89
		c-2.34-2.63-5.12-2.22-7.78-2.7c0.84,1.55,2.29,0.96,3.13,2.37c-1.39,0.02-2.79,0.04-4.18,0.06
		C198.18,109.88,194.91,108.87,191.64,107.86z"/>
	<path class="st6" d="M123.61,113.93c1.43,0.76,2.83,1.72,4.42,1.43c1.8,1.86,4.2,0.89,5.98,2.82c-0.49,1.07-1.26,0.92-1.94,0.84
		c-1.32-0.16-1.63,0.99-1.65,2.61c-0.76-2.36-2.04-3.51-3.73-4c-2.45-0.71-4.87-1.63-7.31-2.47c-0.01-0.14-0.06-0.24-0.15-0.27
		C120.65,114.19,122.12,113.99,123.61,113.93z"/>
	<path class="st3" d="M142.81,133.09c-0.49,0.02-0.98,0.05-1.46,0.07c-0.96-0.41-2.06,0.58-2.95-0.65c1.11-1.81,2.66-0.99,3.91-1.08
		c5.65-0.41,11.21-3.03,16.94-1.66c-0.05,0.38-0.11,0.75-0.16,1.13c-0.32,0.02-0.65,0.04-0.97,0.06c-1.33,0.08-2.72-0.6-3.97,0.63
		c-0.32,0.02-0.64,0.05-0.97,0.07c-1.65,0.1-3.36-0.55-4.94,0.7c-0.33,0.02-0.65,0.05-0.98,0.07
		C145.77,132.52,144.22,131.84,142.81,133.09z"/>
	<path class="st11" d="M225.59,109.55c-0.01,1.26,0.8,1.86,1.03,2.93c-0.65,2.69-1.9,2.96-3.91,0.84c-0.25-1.6-0.83-2.9-1.57-4.07
		c-1.16-2.13-3.1-0.55-4.39-2.07c0.17-0.24,0.34-0.48,0.51-0.72C220.1,107.07,223.07,106.96,225.59,109.55z"/>
	<path class="st6" d="M101.89,115.93c1.96,0.59,3.92,1.17,5.88,1.76c1.65,0.73,3.3,1.46,4.95,2.19c-1.01,1.48-3.17,0.16-3.53,3.26
		c-0.69-1.98-1.8-2.84-3.24-3.28c-2.13-0.64-4.21-1.6-6.5-2.49c0.57-0.56,1.01-1,1.45-1.43
		C101.23,115.93,101.56,115.93,101.89,115.93z"/>
	<path class="st8" d="M109.19,123.13c0.36-3.1,2.51-1.77,3.53-3.26c1.7,0.44,1.47,3.79,2.99,4.5c-0.04,0.54-0.07,1.09-0.11,1.63
		c-1.17-0.7-2.4-0.41-3.54-0.05C110.37,126.47,109.45,125.68,109.19,123.13z"/>
	<path class="st6" d="M139.05,112.96c0.86-0.81,1.86-0.49,2.79-0.77c1.77,0.45,3.54,0.89,5.31,1.34c1.68,0.63,3.35,1.26,5.03,1.88
		c0.06,0.48,1.25,1.34-0.11,1.34c-1.26,0-2.01,0.48-1.93,2.57c-0.89-2.64-2.49-3.42-4.29-3.94
		C143.57,114.74,141.32,113.79,139.05,112.96z"/>
	<path class="st6" d="M130.51,114.57c0-0.49-0.01-0.97-0.01-1.46c1.87-0.55,3.62,0.67,5.44,0.83c0.32,0.07,0.63,0.15,0.94,0.22
		c2.28,1.6,5.03,0.96,7.15,3.35c-1.3,0.71-3.61-1.73-3.73,2.69c-0.85-2.3-2.15-3.34-3.89-3.69
		C134.42,116.1,132.47,115.24,130.51,114.57z"/>
	<path class="st6" d="M122.58,118.46c-0.33,2.67-2.55,0.18-3.01,2.5c-2.11-2.99-5.06-2.31-7.49-3.9c-0.72-0.47-1.64-0.24-2.28-1.57
		c0.87-0.12,1.65-0.22,2.43-0.33c2.06-0.2,3.93,1.38,5.95,1.51C119.65,117.27,121.12,117.87,122.58,118.46z"/>
	<path class="st11" d="M74.26,133.06c0.8-1.66,2.06-0.82,3-0.89c4.46-0.33,8.82-2.19,13.3-1.92c-0.29,1.95-1.48,1.91-2.34,2.05
		c-4.13,0.65-8.28,1.09-12.43,1.58C75.23,133.94,74.64,133.92,74.26,133.06z"/>
	<path class="st1" d="M205.64,110.84c-0.84-1.41-2.29-0.81-3.13-2.37c2.66,0.48,5.44,0.06,7.78,2.7c0.37,1.06,0.74,2.13,1.1,3.2
		c-0.08,1.66-0.82,1.78-1.68,1.61C208.37,114.23,206.35,113.7,205.64,110.84z"/>
	<path class="st6" d="M153.19,111.45c1.18,1.15,2.57,0.75,3.84,1.24c1.82,0.67,3.64,1.34,5.46,2.01c-0.95,1.5-2.94-0.42-3.49,2.42
		c-0.89-1.83-2.26-2.14-3.6-2.57c-2.45-0.78-4.9-1.62-7.34-2.44C149.73,111.19,151.44,110.93,153.19,111.45z"/>
	<path class="st8" d="M187.69,107.86c0.71,0.91,1.61,0.65,2.43,0.95c2.14,0.72,4.28,1.43,6.42,2.15c-1.11,1.04-1.68,2.47-1.47,4.5
		c-2.19-4.41-4.4-5.61-6.99-3.81c0,0-0.11,0.03-0.11,0.03l-0.12,0c0.16-0.98-0.01-1.34-0.66-0.78c0,0,0,0.01,0,0.01
		c-0.23-1.8-1.2-1.24-1.95-1.4c-0.56-0.19-1.07-0.43-0.97-1.55C185.4,107.93,186.54,107.89,187.69,107.86z"/>
	<path class="st8" d="M112.26,136.91c-0.09,0.82-0.37,1.36-0.95,1.38c-4.29,0.13-8.51,1.69-12.81,1.52
		c-0.71-0.03-1.49,0.31-2.02-0.78c0.9-1.15,1.99-0.42,2.98-0.71c1.19-0.35,2.58,0.82,3.56-1.07c0.62-0.11,1.23-0.22,1.85-0.33
		c1.56,1.1,3.05,0.94,4.43-0.66c0.33-0.02,0.66-0.05,0.99-0.07C110.82,137.18,111.61,136.62,112.26,136.91z"/>
	<path class="st5" d="M159.01,117.12c0.54-2.83,2.54-0.92,3.49-2.42c1.29,1.46,1.48,4.42,3.23,5.51
		C163.64,118.12,160.22,123.4,159.01,117.12z"/>
	<path class="st6" d="M157.7,111.56c0.07-0.83,0.57-0.59,0.88-0.81c1.86-0.59,3.67,0.23,5.5,0.41c1.87,1.56,4.14,0.78,6,2.38
		c-0.4,1.52-1.25,1.84-2.21,1.86C164.68,112.92,161.13,112.56,157.7,111.56z"/>
	<path class="st5" d="M130.41,121.63c0.02-1.62,0.33-2.77,1.65-2.61c0.69,0.08,1.45,0.23,1.94-0.84c1.04,1.45,1.32,4.04,3.16,4.29
		c-0.04,0.35-0.09,0.71-0.13,1.06c-1.89,0-3.79,0.06-5.68-0.03C130.69,123.47,130.43,122.59,130.41,121.63z"/>
	<path class="st8" d="M95.49,139.05c-0.08,1.03-0.47,1.56-1.14,1.48c-3.74-0.47-7.42,0.9-11.15,0.77c-0.57-0.02-1.15,0.02-1.51-0.84
		c0.78-0.97,1.73-0.39,2.59-0.63c1.16-0.33,2.48,0.61,3.46-1.03c1.44-0.11,2.87-0.21,4.31-0.32
		C93.13,139.57,94.35,138.68,95.49,139.05z"/>
	<path class="st5" d="M167.87,115.4c0.96-0.02,1.81-0.35,2.21-1.86c0.28,0.1,0.56,0.21,0.84,0.31c0.14,0.41,0.3,0.47,0.48,0.05
		c1.17,2.48,2.87,4.05,4.43,5.87c-2,0.18-3.9-1.07-5.96-0.76C168.59,119.19,168.34,116.88,167.87,115.4z"/>
	<path class="st5" d="M150.15,119.34c-0.08-2.1,0.66-2.57,1.93-2.57c1.36-0.01,0.17-0.86,0.11-1.34c2.37,0.09,2.25,4.16,3.84,5.51
		c0.01,0.01-0.18,0.56-0.27,0.86c-1.67-1.52-3.67,0.46-5.31-1.13C150.24,120.46,150.24,119.79,150.15,119.34z"/>
	<path class="st6" d="M187.83,111.68c0,0,0.12,0,0.12,0c-0.56,1.25-1.9,0.78-2.3,2.38c-0.6-1-1.24-1.63-2.21-1.89
		c-2.85-0.77-5.67-1.86-8.5-2.83c0.31-0.29,0.62-0.58,0.92-0.86c3.19,0.12,6.22,1.69,9.36,2.25c0.65,0.18,1.28,0.59,1.95,0.17
		c0,0,0-0.01,0-0.01C187.11,111.69,187.55,111.53,187.83,111.68z"/>
	<path class="st5" d="M177.86,118.14c-0.19-0.86-0.39-1.73-0.58-2.59c0.13-1.45,1.51-1.51,1.51-3.1c1.15-0.35,1.89,0.47,2.39,1.91
		c0.44,1.26,0.96,2.42,1.72,3.78C181.23,118.14,179.54,118.14,177.86,118.14z"/>
	<path class="st5" d="M140.3,120.2c0.13-4.42,2.43-1.97,3.73-2.69c0.75,1.11,1.33,2.38,1.75,4.68
		C143.86,120.94,141.58,125.34,140.3,120.2z"/>
	<path class="st5" d="M205.64,110.84c0.72,2.86,2.73,3.39,4.07,5.13c-1.94,0.15-3.8-0.85-5.76-0.84c-1.39,0.01-1.62-2.82-2.49-4.23
		C202.85,110.88,204.25,110.86,205.64,110.84z"/>
	<path class="st6" d="M178.79,112.45c0,1.59-1.38,1.65-1.51,3.1c-0.74-1.62-1.75-2.36-3.05-2.69c-2.33-0.59-4.62-1.5-7.5-2.46
		c1.61-0.21,2.65-0.34,3.68-0.48c1,0.23,2,0.46,3,0.7C175.2,111.22,177,111.83,178.79,112.45z"/>
	<path class="st5" d="M185.65,114.07c0.4-1.6,1.74-1.13,2.3-2.38c0,0,0.11-0.03,0.11-0.03c1.87,0.22,1.77,3.99,3.52,4.44
		c0,0.48,0.01,0.96,0.01,1.44c-0.85-1-1.86-0.82-2.77-0.49C187.02,117.7,186.12,116.49,185.65,114.07z"/>
	<path class="st3" d="M95.49,139.05c-1.13-0.37-2.36,0.51-3.44-0.57c0.44-1.01,1.13-1.42,1.87-1.51c2.6-0.29,5.22,0.22,7.81-0.62
		c0.37-0.12,0.85,0.57,1.28,0.89c-0.98,1.89-2.37,0.71-3.56,1.07c-0.98,0.29-2.08-0.44-2.98,0.71
		C96.15,139.04,95.82,139.05,95.49,139.05z"/>
	<path class="st2" d="M211.4,109.27c-2.81-0.74-5.51-2.43-8.44-2.22c0.07-1-0.22-2.14,0.52-2.87c1.29,0.67,2.46,2.06,3.96,1.52
		c1.82,1.72,3.96,1.69,5.94,2.48c-0.02,0.41-0.05,0.82-0.07,1.22c-0.33,0-0.65,0-0.98,0C212.02,109.36,211.71,109.31,211.4,109.27z"
		/>
	<path class="st6" d="M213.39,108.17c-1.99-0.79-4.13-0.76-5.94-2.48c0.98-0.06,1.96-0.12,2.94-0.18c2.07,0.98,4.22,1.31,6.36,1.67
		c1.29,1.52,3.23-0.07,4.39,2.07c-0.95,0.62-2.46-0.92-2.9,1.7C217.02,108.42,215.14,108.55,213.39,108.17z"/>
	<path class="st5" d="M211.4,109.27c0.31,0.04,0.63,0.09,0.94,0.13c0.24,0.67,0.67,0.7,1.1,0.69c0.86,0.8,1.24,2.12,1.65,3.51
		c-1.18,1.04-2.45,0.78-3.7,0.76c-0.37-1.07-0.74-2.13-1.1-3.2C210.65,110.53,211.03,109.9,211.4,109.27z"/>
	<path class="st8" d="M134.94,133.94c-0.09,0.33-0.19,0.95-0.28,0.95c-3.36,0.03-6.69,2.41-10.08,0.45c0.05-0.37,0.1-0.75,0.16-1.12
		c0.45-0.01,0.9-0.01,1.35-0.02c1.41,0.48,2.84,1.23,4.06-0.73c0.45-0.06,0.9-0.11,1.35-0.17
		C132.55,134.54,133.81,133.48,134.94,133.94z"/>
	<path class="st5" d="M195.06,115.46c-0.21-2.02,0.36-3.46,1.47-4.5c1.25-0.32,1.43,1.38,1.8,2.41c0.59,1.61,1.37,2.25,2.53,2.02
		c-0.43,1.29-1.24,0.42-1.85,0.73C197.73,115.54,196.28,117.05,195.06,115.46z"/>
	<path class="st3" d="M75.25,141.23c-0.81,0.05-1.62,0.11-2.43,0.16c-1.01,0.06-2.06-0.41-3,0.52c-1.48,0.1-2.95,0.2-4.43,0.29
		c-0.02-0.24-0.02-0.47,0.01-0.71c3.11-1.65,6.38-1.48,9.6-1.94c0.07-0.01,0.18,0.62,0.27,0.95
		C75.29,140.75,75.28,140.99,75.25,141.23z"/>
	<path class="st3" d="M87.74,138.8c-0.98,1.63-2.31,0.7-3.46,1.03c-0.86,0.25-1.81-0.33-2.59,0.63c-0.65,0.07-1.31,0.13-1.96,0.2
		c-0.33-0.24-0.66-0.47-0.98-0.71C81.62,137.37,84.68,138.11,87.74,138.8z"/>
	<path class="st3" d="M171.04,128.22c-3.25,1.72-6.57,2.22-9.97,1.41C164.33,128.15,167.65,127.59,171.04,128.22z"/>
	<path class="st5" d="M218.23,110.95c0.44-2.62,1.95-1.08,2.9-1.7c0.74,1.17,1.32,2.47,1.57,4.07
		C221.18,112.67,218.97,114.95,218.23,110.95z"/>
	<path class="st8" d="M138.39,132.51c0.88,1.23,1.98,0.24,2.95,0.65c-1.5,2.76-3.23,1.57-4.94,0.67c0.01-0.32,0.02-0.63,0.03-0.95
		C137.09,132.75,137.74,132.63,138.39,132.51z"/>
	<path class="st3" d="M136.43,132.88c-0.01,0.32-0.02,0.64-0.03,0.95c-0.49,0.04-0.98,0.07-1.46,0.11c-1.13-0.46-2.39,0.6-3.45-0.65
		c1.14-1.5,2.56-1.33,3.92-1.51c0.28,0.54,0.63,0.66,1.05,0.45C136.47,132.44,136.46,132.66,136.43,132.88z"/>
	<path class="st8" d="M118.2,136.52c-1.45,1.74-2.95,1.39-4.47,0.28c0.05-0.37,0.11-0.74,0.16-1.11c0.61-0.07,1.22-0.14,1.82-0.2
		C116.38,136.68,117.49,135.51,118.2,136.52z"/>
	<path class="st8" d="M123.6,135.41c-1.29,2.86-3.1,1.01-4.68,1.16c0.14-0.51,0.27-1.02,0.41-1.53c0.6-0.1,1.2-0.21,1.8-0.31
		C121.84,135.85,122.79,135.05,123.6,135.41z"/>
	<path class="st8" d="M78.74,139.95c0.33,0.24,0.66,0.47,0.98,0.71c-1.36,2.49-2.92,1.5-4.47,0.57c0.02-0.24,0.03-0.48,0.03-0.72
		C76.43,140.32,77.59,140.13,78.74,139.95z"/>
	<path class="st11" d="M58.77,136.61c0.96-1.87,2.25-2.25,3.71-1.85C62.12,139.37,60.03,136.09,58.77,136.61z"/>
	<path class="st3" d="M187.84,126.13c-1.62,1.83-3.43,0.93-5.18,0.85C184.25,124.89,186.07,125.92,187.84,126.13z"/>
	<path class="st8" d="M65.41,141.5c-0.03,0.23-0.04,0.47-0.01,0.71c-0.84,2.29-1.89,1.51-2.96,0.46c0.03-0.3,0.05-0.61,0.08-0.91
		C63.48,141.67,64.44,141.58,65.41,141.5z"/>
	<path class="st6" d="M115.6,126c0.04-0.54,0.07-1.09,0.11-1.63c1.24,0.45,2.48,0.9,3.71,1.35C118.11,126.1,116.85,127.47,115.6,126
		z"/>
	<path class="st3" d="M109.29,136.26c-1.39,1.59-2.87,1.75-4.43,0.66C106.28,135.9,107.76,135.63,109.29,136.26z"/>
	<path class="st3" d="M130.14,133.46c-1.22,1.96-2.65,1.21-4.06,0.73C127.31,132.38,128.74,133.13,130.14,133.46z"/>
	<path class="st3" d="M119.33,135.04c-0.14,0.51-0.27,1.02-0.41,1.53c-0.24-0.02-0.48-0.03-0.72-0.04
		c-0.71-1.02-1.82,0.15-2.49-1.04C116.84,134.03,118.09,134.62,119.33,135.04z"/>
	<path class="st3" d="M220.23,121.92c-1.09,1.27-2.3,0.84-3.5,0.6c0.36-0.4,0.71-0.8,1.07-1.2
		C218.55,122.01,219.66,119.51,220.23,121.92z"/>
	<path class="st3" d="M123.6,135.41c-0.81-0.36-1.76,0.44-2.47-0.68c1.12-1.38,2.36-0.95,3.6-0.52c-0.05,0.38-0.1,0.75-0.16,1.12
		C124.25,135.36,123.92,135.38,123.6,135.41z"/>
	<path class="st3" d="M113.88,135.69c-0.05,0.37-0.11,0.74-0.16,1.11c-0.49,0.04-0.98,0.07-1.46,0.11
		c-0.65-0.29-1.44,0.27-1.98-0.71C111.41,134.8,112.65,135.34,113.88,135.69z"/>
	<path class="st2" d="M199.02,116.12c0.6-0.31,1.41,0.57,1.85-0.73c1.15,0.13,1.33,1,0.38,1.8
		C200.48,117.83,199.37,118.27,199.02,116.12z"/>
	<path class="st3" d="M174.86,127.8c-0.92,1.27-1.91,1.19-2.94,0.37C172.82,126.65,173.82,126.96,174.86,127.8z"/>
	<path class="st11" d="M94.02,124.95c0.46,0.77,0.92,1.53,1.38,2.3c-0.85-0.34-2.13,0.78-2.38-1.58
		C93.23,125.04,93.63,125.01,94.02,124.95z"/>
	<path class="st3" d="M193.24,125.32c-0.93,1.62-1.99,1.34-3.1,0.51C191.09,124.48,192.17,124.92,193.24,125.32z"/>
	<path class="st3" d="M181.27,127.03c-0.94,1.3-1.93,1.19-2.95,0.23C179.26,126.05,180.25,126.22,181.27,127.03z"/>
	<path class="st3" d="M226.3,120.99c-0.83,1.42-1.8,1.01-2.78,0.5C224.34,120.06,225.31,120.44,226.3,120.99z"/>
	<path class="st3" d="M230.22,120.63c-0.8,0.95-1.66,0.85-2.54,0.36C228.44,119.47,229.31,119.8,230.22,120.63z"/>
	<path class="st11" d="M71.81,133.41c0.48-0.58,0.96-1.56,1.48-0.06C72.83,135.12,72.34,135.09,71.81,133.41z"/>
	<path class="st11" d="M217.8,121.32c-0.36,0.4-0.71,0.8-1.07,1.2c-0.33-0.12-0.66-0.23-0.99-0.35
		C215.97,119.35,217.11,121.58,217.8,121.32z"/>
	<path class="st3" d="M202.96,124.24c-0.63,0.96-1.28,1-1.97,0.15C201.61,123.17,202.27,123.27,202.96,124.24z"/>
	<path class="st2" d="M191.6,117.53c0-0.48-0.01-0.96-0.01-1.44c0.6,0.06,1.54-0.28,1.39,1.16
		C192.85,118.56,192.06,117.29,191.6,117.53z"/>
	<path class="st3" d="M62.51,141.76c-0.03,0.3-0.05,0.61-0.08,0.91c-0.31-0.12-0.63-0.24-0.94-0.36
		C61.6,141.12,61.78,140.29,62.51,141.76z"/>
	<path class="st11" d="M67.27,134.19c0.21-0.77,0.58-1.1,1.13-0.87c-0.07,0.64,0.09,1.51-0.51,1.68
		C67.73,135.05,67.48,134.48,67.27,134.19z"/>
	<path class="st11" d="M214.32,122.51c-0.5,0.12-1,0.24-1.5,0.37c0-0.27,0-0.54,0-0.82C213.49,120.92,214,120.97,214.32,122.51z"/>
	<path class="st3" d="M198.69,124.71c-0.49,0.91-1.01,1.32-1.64,0.27C197.53,124.04,198.09,124.14,198.69,124.71z"/>
	<path class="st3" d="M208.87,123.33c-0.41,1.03-0.91,1.04-1.48,0.3c0-0.29,0.01-0.59,0.01-0.88
		C207.92,122.79,208.48,122.55,208.87,123.33z"/>
	<path class="st11" d="M207.4,122.75c0,0.29-0.01,0.59-0.01,0.88c-0.49-0.03-0.98-0.07-1.47-0.1
		C206.01,121.52,206.76,122.35,207.4,122.75z"/>
	<path class="st3" d="M59,142.37c-0.32,0.54-0.68,0.5-1.07,0.17C58.22,141.53,58.54,140.9,59,142.37z"/>
	<path class="st11" d="M64.91,134.55c0.31-0.72,0.65-0.87,1.04-0.15C65.66,135.33,65.32,135.52,64.91,134.55z"/>
	<path class="st11" d="M69.34,133.34c0.34,0.01,0.69,0.02,1.03,0.03c-0.07,0.46-0.14,0.97-0.52,0.96
		C69.47,134.31,69.4,133.8,69.34,133.34z"/>
	<path class="st11" d="M136.45,132.22c-0.42,0.21-0.77,0.09-1.05-0.45C136.02,130.53,136.26,131.24,136.45,132.22z"/>
	<path class="st3" d="M212.82,122.06c0,0.27,0,0.54,0,0.82c-0.34,0.58-0.71,0.64-1.12,0.16
		C211.9,122.28,212.32,122.08,212.82,122.06z"/>
	<path class="st6" d="M213.43,110.09c-0.43,0.01-0.85-0.01-1.1-0.69c0.33,0,0.65,0,0.98,0
		C213.35,109.63,213.39,109.86,213.43,110.09z"/>
	<path class="st6" d="M158.11,130.96c0.32-0.02,0.65-0.04,0.97-0.06c1.17,1.59,2.68,0.2,3.98,0.99c-0.53,1.05-1.96-0.08-2.03,1.94
		c-1.12-0.34-2.23-0.92-3.41-0.63c-1.66,0.24-3.32,0.48-4.97,0.72c-0.82,0.23-1.63,0.47-2.45,0.7c-0.45-1.55,0.23-1.44,0.91-1.5
		c0.79-0.07,1.85,0.56,2.05-1.46c0.32-0.02,0.64-0.05,0.97-0.07C155.54,132.55,156.95,133.57,158.11,130.96z"/>
	<path class="st6" d="M217.26,106.46c-0.61-0.25-1.23-0.48-1.83-0.76c-0.16-0.07-0.59-0.03-0.3-0.57c0.12-0.22,0.42-0.23,0.65-0.33
		c1.94,0.19,3.88,0.38,5.82,0.57c2.24,1.57,4.91,0.32,7.08,2.42c-0.74,1.74-2.36-0.04-3.08,1.76
		C223.07,106.96,220.1,107.07,217.26,106.46z"/>
	<path class="st8" d="M93.54,142.08c-0.07,0.86,0.17,2.05-0.95,1.59c-0.68-0.28-1,0.36-1.04,1.36c-0.66,0.18-1.45-0.37-1.96,0.75
		c-0.17,0-0.35,0-0.52,0.01c0,0-0.24-0.02-0.24-0.02s-0.24,0-0.24,0c-0.17-0.97-0.34-1.95-0.51-2.92
		C89.93,143.21,91.7,142.04,93.54,142.08z"/>
	<path class="st8" d="M153.17,131.66c-0.2,2.02-1.25,1.39-2.05,1.46c-0.68,0.06-1.36-0.05-0.91,1.5c-0.53,1.08-1.29,0.65-1.98,0.72
		c0.5-0.99,0.43-1.99,0-2.98C149.82,131.1,151.52,131.75,153.17,131.66z"/>
	<path class="st8" d="M142.81,133.09c1.42-1.26,2.96-0.57,4.45-0.67C145.93,135.08,144.36,133.95,142.81,133.09z"/>
	<path class="st8" d="M69.82,141.91c0.94-0.93,1.99-0.46,3-0.52C71.98,143.69,70.93,143.13,69.82,141.91z"/>
	<path class="st8" d="M141.35,135.39c-0.57,2.25-1.49,1.74-2.48,0.73C139.57,134.88,140.51,135.54,141.35,135.39z"/>
	<path class="st8" d="M146.29,134.66c-0.22,1.94-1.22,1.33-2.01,1.39C144.51,134.14,145.5,134.75,146.29,134.66z"/>
	<path class="st5" d="M89.06,145.77c0.17,0,0.35-0.01,0.52-0.01c-0.06,0.29-0.09,0.83-0.17,0.84
		C88.99,146.69,89.12,146.12,89.06,145.77z"/>
	<path class="st6" d="M171.4,113.9c-0.18,0.42-0.34,0.37-0.48-0.05C171.08,113.77,171.24,113.79,171.4,113.9z"/>
	<path class="st11" d="M202.03,107.2c0.46,1.64,0.03,2.26-1.04,1.92c-1.15-0.36-2.29-0.86-3.43-1.3"/>
	<path class="st8" d="M158.11,130.96c-1.15,2.62-2.56,1.6-3.97,0.63C155.39,130.36,156.77,131.04,158.11,130.96z"/>
	<path class="st13" d="M185.22,110.73c0-0.41,0-0.82,0-1.23c0.75,0.15,1.72-0.4,1.95,1.4C186.51,111.32,185.87,110.91,185.22,110.73
		z"/>
	<path class="st13" d="M187.83,111.68c-0.28-0.15-0.72,0.01-0.66-0.78C187.82,110.34,187.99,110.7,187.83,111.68z"/>
	<g id="Base_1_">
		<path class="st14" d="M0,0v300h300V0H0z M292.5,292.5H7.5V7.5h285V292.5z"/>
	</g>
</g>
</svg>
