<?xml version="1.0" encoding="utf-8"?>
<!-- Generator: Adobe Illustrator 23.0.1, SVG Export Plug-In . SVG Version: 6.00 Build 0)  -->
<svg version="1.1" xmlns="http://www.w3.org/2000/svg" xmlns:xlink="http://www.w3.org/1999/xlink" x="0px" y="0px"
	 viewBox="0 0 300 300" style="enable-background:new 0 0 300 300;" xml:space="preserve">
<style type="text/css">
	.st0{fill:#424242;}
	.st1{fill:#0B0C0C;}
	.st2{fill:#0F1111;}
	.st3{fill:#0E0F0F;}
	.st4{fill:#151515;}
	.st5{fill:#1E2020;}
	.st6{fill:#2D3232;}
	.st7{fill:#393C3C;}
	.st8{fill:#4A4C4C;}
	.st9{fill:#272929;}
	.st10{fill:#070809;}
	.st11{fill:#060606;}
	.st12{fill:#191B1C;}
	.st13{fill:#9E9E9E;}
</style>
<g id="background">
	<rect x="4" y="5" class="st0" width="291" height="291"/>
</g>
<g id="Layer_1">
	<path class="st1" d="M260.13,179.5c-5.71-0.82-7.25,23.22-7.3,19.82c-0.03-2.3-0.2-4.73-1.41-6.86c-1.62-3.22-5.7-4.39-10.05-2.88
		c-4.08,0.03-8.17-0.2-12.19,0.81c-4.14,0.38-8.17,1.62-12.37,1.48c-6.51,0.37-13.02,0.72-19.43,2.07c-2.75-0.08-5.37,0.54-7.95,1.4
		c-9.19-0.09-18.28,1.03-27.36,2.25c-2.77-0.18-5.4,0.5-7.98,1.39c-8.99-0.53-17.79,1.17-26.65,2.21c-1.2-0.01-2.4-0.02-3.6-0.03
		c-0.93-0.05-1.44-0.5-1.47-1.46c0.48-0.01,0.96,0.02,1.44-0.02c9.61-0.89,19.17-2.24,28.8-2.99c5.7-0.45,11.42-0.88,17.1-1.47
		c12.08-1.25,24.11-3.27,36.21-4.03c11.32-0.71,22.49-2.91,33.84-3.12c2.6-0.05,5.18-0.71,8.1-1.14c-3.02-2.78-5.91-0.8-8.65-0.92
		c-4.21-0.86-8.47-1.92-12.75-1.27c-2.39,0.37-4.73,0.39-7.1,0.54c-3.79,0.24-7.59,0.53-11.37,0.9c-8.5,0.83-16.98,2.24-25.49,2.33
		c-3.65,0.04-4.33,1.14-4.61,3.95c-2.16,0.21-4.26,1.07-6.48,0.71c-0.19-0.36-0.33-0.99-0.58-1.04c-0.77-0.15-0.76,0.55-0.86,1.07
		c-5.07,0.59-10.18,0.88-15.15,2.15c-0.42-3.57-2.7-6.22-5.22-5.66c-3.64,0.81-7.32,0.23-10.95,0.64
		c-6.86,0.77-13.81,0.77-20.61,2.16c0.09-0.62,0.25-1.27,0.95-1.36c6.27-0.85,11.97-4.99,18.7-3.27c0.67,0.17,1.44,0.27,2.11,0.13
		c6.62-1.42,13.22-2.96,19.97-0.62c0.6,0.21,1.41-0.11,2.11-0.23c8.25-1.51,16.66-1.28,24.96-1.6c4.42-0.17,8.64-0.11,12.88-1.56
		c2.87-0.98,5.75-1.73,9.04-0.99c4.38,0.99,8.84-0.2,13.03-1.54c1.98-0.63,3.39-2.52,5.1,0.34c0.62,1.03,1.79,0.19,2.48-0.44
		c0.62-0.58,0.51-1.63-0.14-1.86c-3.04-1.05-2.2-3.51-2.27-5.67c0.26-0.27,0.52-0.53,0.78-0.8c0.7,0.04,1.56-0.12,1.91,0.67
		c1.89,4.31,4.98,7.21,9.85,6.56c3.37-0.45,7.66,1.86,9.99-2.77c0.74-1.48,2.01-0.82,3.06-0.13c1,0.66,2.38,1.15,2.39-0.48
		c0.02-4.9,2.9-9.68,0.76-14.63c-0.66-1.52,0.32-1.97,1.05-2.92c1.15-1.51,3.97-0.96,4.12-3.51c6.77,0.08,13.5-0.49,20.19-1.5
		C281.05,154.76,264.77,176.5,260.13,179.5z M175.52,189.6c0.23-0.28,0.58-0.52,0.56-0.72c-0.03-0.22-0.38-0.54-0.62-0.57
		c-0.47-0.06-0.93,0.16-0.78,0.74C174.74,189.26,175.17,189.37,175.52,189.6z"/>
	<path class="st2" d="M34.31,193.62c6.69,2.42,9.52,0.79,16.42,1.66c8.62,1.09,17.34,1.46,25.98,2.37
		c11.86,1.25,23.66,3.15,35.64,2.77c0.93,0,1.86,0,2.8,0c1.04,0.07,1.99-0.23,2.9-0.72c1.44,0,2.89,0,4.33,0.01
		c0.03,0.95,0.54,1.41,1.47,1.46c-1.07,1.14-2.46,0.65-3.72,0.69c-2.03,0.07-4.04,0.06-5.72,1.46c-0.45-0.01-0.9-0.02-1.35-0.02
		c-6.16,2.43-12.62-0.31-18.87,1.02c5.16,0.98,10.73,0.52,15.39,2.34c5.66,2.21,10.48-0.1,15.66-0.48
		c9.38-0.95,18.76-1.91,28.14-2.86c-1.35,3.07-1.79,6.31-2.31,9.61c-0.5,3.21,0.31,6.69-1.05,9.53c-1.16,2.44-0.48,3.2,1.29,4.58
		c1.91,1.49,4.44,3.1,3.98,5.97c-0.3,1.85,0.21,3.05,1.32,4.16c1.5,1.49,1.09,2.66-0.25,3.96c-0.8,0.78-2.15,1.61-1.06,2.96
		c0.78,0.97,2.01,1.21,3.29,0.92c5.15-1.15,9.15-4.9,12.11-8.37c2.28-2.67,3.64-3.31,6.65-3.08c6.42,0.5,8.57,3.95,5.6,9.43
		c-2.62,0.56-5.25,0.92-7.93,0.72c-0.76-1.14-2.28-0.48-3.2-1.38c-0.86-0.84-2.06-1.19-2.76,0c-0.97,1.65,1.42,1.11,1.63,2.1
		c-0.28,0.21-0.62,0.65-0.84,0.6c-4.82-1.16-8.74,1.69-13.04,2.81c-1.95,0.51-3.78,0.5-5.28-1.72c-1.67-2.48-4.73-2.45-6.66-0.7
		c-4.36,3.94-8.45,0.14-12.64,0.22c-1.04,0.02-1.53-0.42-1.94-1.21c0.79-1.05,1.97-0.6,2.99-0.75c0.87-0.13,1.3-0.52,0.84-1.44
		c-1.52-3.08-4.31-7.39-8.88-6.46c0-0.96,0-1.93-0.01-2.89c-0.12-0.31-0.24-0.62-0.36-0.94c-0.12,0.31-0.24,0.62-0.36,0.94
		c-0.95,0.45-6.29,8.84-6.24,9.79c0.03,0.55,0.32,0.82,0.8,1.03c3.58,1.52,2.42,6.56,5.99,8.17c0.09,0.04-0.35,1.27-0.55,1.94
		c-3.13-0.43-6.26,1.55-9.39,0c-0.93-1.94-1.51-3.96-1.52-6.14c0-0.73-0.4-1.44-1.26-1.41c-0.8,0.03-0.86,0.81-0.76,1.35
		c0.52,2.73-0.97,4.76-2.26,6.87c-1.5,0-3,0.2-4.48-0.37c-1.75-0.66-1.95,0.54-1.95,1.84c-4.05,0.18-7.71-2.05-12.29-1.36
		c3-5.48,8.01-9.45,6.51-15.94c0.24-0.53,0.66-1.04,0.68-1.58c0.32-7.89-0.49-15.8,0.42-23.68c0.02-0.19-0.71-0.47-1.09-0.7
		c-1.71-2.68-5.28-4.34-4.4-8.42c0.24-1.12-0.58-1.88-1.62-1.99c-1.59-0.17-1.11,1.18-1.17,2c-0.34,4.58,1.73,7.7,6.45,9.84
		c0,5.16-0.25,10.33,0.09,15.46c0.24,3.63-0.1,5.7-4.39,4.05c-0.52-0.2-1.2,0.04-1.79-0.05c-4.09-0.62-8.18-1.27-12.27-1.92
		c1.43-1.03,2.81-1.07,4.21-0.75c0.97,0.22,2.31,1.13,2.42-0.73c0.07-1.22-0.68-2.19-2.19-2.36c-3.66-0.42-7.32-1.37-10.96-1.28
		c-2.54,0.06-5.06-2.08-7.58-0.14c-6.48-1.36-12.63,0.24-18.73,2.16c-1.97-0.99-1.22,0.72-1.44,1.46c-0.24,0.23-0.48,0.47-0.72,0.7
		c-1.49,0.07-1.46,1.13-1.44,2.2c0,0.46,0.01,0.93,0.01,1.39c-0.61-0.07-1.3-1-1.81-0.06c-0.34,0.63,0.31,1.21,0.84,1.27
		c1.51,0.18,3.03,0.18,4.55,0.25c0.7,3.3,4.07,6.76,7.32,7.16c1.53,0.19,2.17,0.72,2.06,2.2c-1.2,0-2.4,0.01-3.6,0.01
		c-2.2-1.36-3.8-0.58-5.05,1.43c-5.34-0.68-10.64-1.57-15.87-2.84c-1.38-1.99-2.11-4.26-2.88-6.52c0,0-0.04,0-0.04,0
		c0.01-2.89,0.02-5.77,0.02-8.66c0.01-2.67,1.18-5.23,0.72-7.93c0-1.2,0-2.4,0-3.6c0-2.41,0-4.81,0.01-7.22c0-2.76,0-5.51,0-8.27
		C27.88,200.44,25.77,184.17,34.31,193.62z M146.17,234.32c-0.16-1.05-0.23-2.13-0.48-3.16c-0.94-3.86-2.86-5.47-5.42-4.62
		c-3.07,1.02-5.34,5.88-4.1,8.8c1.33-0.82,0.69-4.5,2.45-3.23c1.79,1.29,3.91,0.83,5.38,2.2c-0.86,3.78-1.11,8.15-7.29,6.72
		c2.81,3.28,5.49,3.29,7.61,0.39C145.87,239.33,146.46,236.93,146.17,234.32z M141.69,223.4c0.96-0.22,2.24,1.48,2.79-0.02
		c0.55-1.51-0.9-1.9-2.18-2.09c-2.35-0.35-3.04-1.59-1.95-3.78c0.48-0.96,0.89-1.96,1.23-2.98c1.03-3.06-1.61-4.34-3.37-5.1
		c-1.9-0.82-2.74,1.17-2.87,3.05c-0.14,2.02-1.83,3.31-2.46,5.11c-1.03,2.97-3.45,3.58-6.22,3.32c-0.82-0.08-1.78-0.66-2.34,0.11
		c-0.69,0.94,0.19,1.83,0.74,2.53c0.92,1.18,0.85,2.29,0.55,3.68c-0.56,2.65-0.89,5.39,3.09,5.76c0.48,0.05,1.09,0.58,1.33,1.04
		c0.53,1.02,0.69,2.71,2.26,2.16c1.63-0.58,0.66-2.28,0.78-3.49C133.57,228.23,137.82,223.62,141.69,223.4z M112.95,230.3
		c-0.91,0.11-1.23,0.72-1.31,1.45c-0.09,0.83-0.13,1.84,0.88,2.03c0.88,0.17,1.11-0.72,1.13-1.42
		C113.68,231.62,114.01,230.68,112.95,230.3z"/>
	<path class="st3" d="M182.95,242.97c2.97-5.48,0.82-8.93-5.6-9.43c-3.01-0.23-4.36,0.41-6.65,3.08c-2.96,3.47-6.95,7.22-12.11,8.37
		c-1.28,0.29-2.51,0.05-3.29-0.92c-1.09-1.36,0.26-2.19,1.06-2.96c1.34-1.29,1.75-2.47,0.25-3.96c-1.11-1.11-1.62-2.31-1.32-4.16
		c0.46-2.87-2.07-4.48-3.98-5.97c-1.77-1.38-2.45-2.13-1.29-4.58c1.36-2.85,0.54-6.32,1.05-9.53c0.52-3.3,0.96-6.54,2.31-9.61
		c0.72-0.01,1.44-0.01,2.17-0.02c0.2,1.83-0.34,3.53-0.86,5.26c-1.28,4.33,2.1,8.02,6.42,7.04c2.12-0.48,4.18-0.69,6.03,0.79
		c-0.43,1.75-4.63,2.81-1.53,5.04c3.11,2.24,3.07,5,3.03,8.12c-0.02,1.21-0.54,2.62,0.85,3.94c4.71-4.69,9.7-8.96,17.07-7.64
		c1.31,1.67,2.58,3.45,5.09,1.9c0.48,0.23,0.97,0.46,1.45,0.69c0,1.44,0.74,2.18,2.16,2.27c2.59,0.16,5.45,0.69,7.7,0.2
		c2.2-0.48,6.11,0.02,6.6-3.98c1.07-1.14,2.09-2.34,3.62-2.9c1.37,1.21,1.48,2.78,1.58,4.49c0.12,1.97,0.97,4.05,3.15,4.18
		c1.84,0.11,4.16,0.1,5.14-2.25c1.05-2.52-0.55-3.26-2.55-3.99c-4.43-1.61-4.59-2.22-2.01-5.84c0.93-1.31,0.52-2.62-0.29-3.64
		c-0.86-1.07-1.23-3.39-3.55-2.01c-1.76-2.12-0.29-4.6-0.74-6.87c-0.14-0.69-0.03-1.53-0.88-1.75c-0.68-0.18-0.98,0.5-1.37,0.94
		c-0.71,0.81-1.42,1.61-2.2,2.35c-4.15,3.97-7.93,4.75-12.25,2.57c2.52-1.33,2.08-2.61,0.17-4.28c-1.2-1.05-2.66-0.89-3.91-1.51
		c-2.99-1.48-3.29-2.63-1.07-5.1c0.63-0.7,0.63-1.5,0.64-2.33c0.95-0.05,1.91-0.05,2.86-0.16c9.54-1.14,19.12-2.06,28.61-3.54
		c8.23-1.28,16.76-0.6,24.71-3.75c1-0.4,1.42,0.71,2.19,0.92c1.21,2.13,1.38,4.56,1.41,6.86c0.05,3.4-2.11,15.4-2.05,16.26
		c0.24,3.03,0.54,9.95-0.03,10.08c-0.49,0.24-0.49,0.48,0,0.73c0.11,1.04-0.22,1.98-0.71,2.87c-3-0.3-4.82,3.02-7.88,2.56
		c-0.02,0.35-0.05,0.71-0.07,1.06c-0.47,0-0.95,0.01-1.42,0.01c-5.24,0.01-21.53,2.44-24.6,4.61c-0.71,0-2.81,0.43-3.52,0.43
		c-1.56,0.21-2.58-2.37-4.22-1.01c-1.92,1.6-4.43,1.61-6.53,2.23C195.69,240.97,189.26,241.77,182.95,242.97z M243.57,209.09
		c-0.59-0.02-1.19,0.03-1.77-0.07c-1.1-0.18-2.68-1.01-2.81,0.77c-0.14,1.89-2.99,3.99,0.17,5.78c1.57,2.31,3.06,1.28,4.18-0.31
		C244.67,213.35,246.41,211.25,243.57,209.09z M236.31,206.89c-0.18-2.24,1.31-3.76,2.44-5.37c1.33-1.91,3.44-1.53,5.64-1.03
		c-0.99-2.97-3.53-2.07-5.16-2.93c-3.43-1.71-5.58-0.19-7.62,2.62c-2.81,3.85-2.13,5.97,2.54,6.74c0.01,0.24,0.01,0.48,0.01,0.72
		c0.13,0.73-0.26,1.98,0.96,1.81C236.43,209.26,236.31,207.94,236.31,206.89z M234.16,217.73c-2.46,0.36-2.12,1.47-1.07,3.17
		c0.74,1.2,1.25,2.59,2.8,1.41c1.27-0.96,1.57-2.34,0.04-3.58c-0.23-0.18-0.23-0.65-0.34-0.99c0.66-1.61,0.56-3.33-0.12-4.78
		c-1.01-2.14-2.92-3.78-5.33-2.93c-1.96,0.69-1.09,2.87-0.72,4.36c0.3,1.19,1.39,1.87,2.73,1.87
		C233.18,216.27,234.07,216.45,234.16,217.73z M239.02,220.89c-0.09,0.2-0.28,0.44-0.23,0.58c0.06,0.14,0.4,0.29,0.55,0.24
		c0.14-0.05,0.3-0.41,0.24-0.54C239.52,221.02,239.22,220.98,239.02,220.89z"/>
	<path class="st1" d="M63.94,226.4c2.53-1.94,5.04,0.2,7.58,0.14c3.64-0.09,7.3,0.87,10.96,1.28c1.51,0.17,2.26,1.14,2.19,2.36
		c-0.11,1.86-1.45,0.95-2.42,0.73c-1.4-0.32-2.78-0.28-4.21,0.75c4.09,0.64,8.18,1.3,12.27,1.92c0.59,0.09,1.26-0.15,1.79,0.05
		c4.29,1.65,4.63-0.42,4.39-4.05c-0.34-5.13-0.09-10.31-0.09-15.46c0.57-0.31,0.73-0.84,0.74-1.44c0.38,0.24,1.11,0.51,1.09,0.7
		c-0.91,7.88-0.1,15.79-0.42,23.68c-0.02,0.53-0.44,1.05-0.68,1.58c-6.95,1-13.95,1.72-20.81,3.12c-2.92,0.6-4.65,0-6.63-1.96
		c-2.93-2.91-4.93-2.43-5.74,1.01c-2.75-0.16-5.46-1.24-6.97-3.21c-3.54-4.62-7.6-3-11.78-1.83c-1.52-0.07-3.05-0.07-4.55-0.25
		c-0.53-0.06-1.19-0.64-0.84-1.27c0.51-0.94,1.2-0.02,1.81,0.06c1.43-0.24,2.86-0.47,4.3-0.71c10.02-0.26,19.67-4.07,29.87-2.92
		c-4.14-1.24-8.19-2.59-12.53-2.12C63.47,227.83,63.71,227.11,63.94,226.4z"/>
	<path class="st4" d="M130.3,244.41c0.4,0.79,0.89,1.23,1.94,1.21c4.19-0.08,8.28,3.71,12.64-0.22c1.93-1.75,4.99-1.77,6.66,0.7
		c1.5,2.22,3.33,2.23,5.28,1.72c4.31-1.12,8.23-3.97,13.04-2.81c0.22,0.05,0.55-0.39,0.84-0.6c0.93,0.03,1.42,0.51,1.44,1.44
		c-10.61,1.77-20.97,4.85-31.74,5.77c1.16-2.1,3.98-0.66,5.27-2.63c-5.82,0.54-11.63,1.02-17.92,3.41
		c4.12,0.76,7.25-1.76,10.48-0.07c-4.55,0.83-9,2.3-13.7,2.17c0-0.24,0-0.48,0-0.72c0.19-0.67,0.64-1.9,0.55-1.94
		c-3.57-1.6-2.41-6.65-5.99-8.17c-0.49-0.21-0.78-0.48-0.8-1.03c-0.05-0.95,5.29-9.34,6.24-9.79c0.24,0,0.48,0,0.72,0
		c0,0.96,0,1.93,0.01,2.89c-0.61,2.03-0.01,3.9,0.72,5.76c-0.16,1.6,0.56,2.33,2.17,2.16C128.86,243.93,129.58,244.17,130.3,244.41z
		 M150.3,248.46c0.1,0.04,0.2,0.1,0.3,0.09c0.03,0,0.06-0.16,0.09-0.25c-0.1-0.04-0.2-0.1-0.3-0.09
		C150.36,248.21,150.33,248.37,150.3,248.46z"/>
	<path class="st3" d="M45.19,235.76c4.19-1.17,8.24-2.79,11.78,1.83c1.51,1.97,4.22,3.05,6.97,3.21c1.09,1.49,1.16,2.56-1.06,2.89
		c-2.78,0.42-5.55,0.94-8.32,1.42c0.11-1.48-0.53-2.01-2.06-2.2C49.26,242.52,45.89,239.06,45.19,235.76z"/>
	<path class="st4" d="M182.95,242.97c6.31-1.2,23.89-4.92,25.81-6.52c1.63-1.36,5.76,1.26,7.31,1.04
		c-6.17,2.71-16.43,3.25-22.88,4.69c-6.49,1.44-13.07,2.46-19.61,3.67c-0.12-1.12,1-1.42,1.44-2.16
		C177.71,243.89,180.34,243.53,182.95,242.97z"/>
	<path class="st5" d="M124.53,253.8c0,0.24,0,0.48,0,0.72c-7.07,2.56-14.26,3.33-21.63,1.43c0-1.31,0.2-2.51,1.95-1.84
		c1.49,0.56,2.98,0.36,4.48,0.37c0.17,1.23,0.83,1.71,1.99,1.19c1.29-0.57,2.54-1.23,3.81-1.86
		C118.28,255.34,121.4,253.37,124.53,253.8z"/>
	<path class="st2" d="M138.23,252.34c-3.23-1.68-6.36,0.83-10.48,0.07c6.29-2.39,12.1-2.87,17.92-3.41
		C144.38,250.97,138.96,252.1,138.23,252.34z"/>
	<path class="st4" d="M240.68,232.89"/>
	<path class="st4" d="M242.1,232.87c0.02-0.35,0.05-0.71,0.07-1.06c3.05,0.47,4.88-2.86,7.88-2.56
		C250.35,230.62,243.3,232.87,242.1,232.87z"/>
	<path class="st3" d="M175.02,243.69c-0.45,0.74-1.56,1.04-1.44,2.16c-0.48,0-0.96,0-1.44,0c-0.02-0.94-0.51-1.41-1.44-1.44
		c-0.21-0.98-2.6-0.44-1.63-2.1c0.7-1.2,1.9-0.84,2.76,0C172.74,243.21,174.26,242.55,175.02,243.69z"/>
	<path class="st4" d="M214.68,237.93"/>
	<path class="st5" d="M27.17,237.2c0.77,2.26,1.5,4.53,2.88,6.52c-1.95,0.17-3.15-0.42-2.92-2.69
		C27.26,239.77,27.16,238.48,27.17,237.2z"/>
	<path class="st3" d="M45.92,246.57c1.25-2.02,2.85-2.79,5.05-1.43C49.48,246.3,47.52,245.81,45.92,246.57z"/>
	<path class="st4" d="M120.93,39.59c1.7-1.12,3.39-1.2,5.06,0.06c0.01,1.29-1.9,2.86,0.56,3.78c0.01,0.14,0.05,0.28,0.1,0.42
		c0.03,0.49,0.06,0.98,0.09,1.47c2.09,2.84,2.44,6.46,4.26,9.41c0.01,0.48,0.03,0.95,0.04,1.43c0.01,0.79-0.11,1.63,0.7,2.16
		c0.17,2.93,1.66,5.64,1.47,8.64c0.34,3.61-0.83,7.32,0.68,10.86c-0.21,1.22-0.43,2.43-0.64,3.65c0,2.02,0,4.04,0,6.06
		c0.4-0.02,0.8-0.03,1.19-0.05c0.06-2.08,2.79-4.14-0.49-6.23c0.5-0.61,0.63-1.94,1.55-1.71c2.64,0.65,1.89-1.21,2.03-2.45
		c2.45-0.72,4.46-1.22,7.25,0.4c2.1,1.22,4.76,3.32,7.86,2.48c4.09-1.1,8.19-0.51,12.29,0c0.17,1.48,2.77,8.95,1.43,10.09
		c-0.94-0.51-0.64-2.57-2.47-1.97c-6.27,2.06-12.36,0.51-18.5-0.77c-6.64-1.39-13.23,4.1-12.2,9.95c-1.29,1.71-0.27,4.28-2.17,5.77
		c-3.24-0.95-2.08,3.35-4.31,3.61c-0.24,0-0.47,0-0.71,0.01c3.83-11.98,4.86-24.28,4.28-36.77c1.06-2.32,1.67-4.59-0.72-6.53
		c-0.52-0.88-0.81-1.81-0.73-2.84c1.2-1.19,0.86-1.89-0.7-2.19c0-0.46,0-0.92-0.01-1.38c-0.23-0.26-0.47-0.52-0.7-0.78
		c-0.01-0.47-0.02-0.94-0.03-1.41c1.13-1.14,0.25-1.32-0.7-1.47c-0.95-1-1.12-2.32-1.47-3.57c0.93-2.75-1-3.9-2.85-5.09
		c-0.52-0.84-1.37-0.69-2.16-0.72c-1.45-1.32-3.2-0.72-4.8-0.61c-8.66,0.63-17.32,1.29-25.96,2.08c-4.45,0.41-9,0.35-13.24,2.13
		c-1.94,1.47-4.16,0.46-6.24,0.71c-3.86,0.46-8.71,0.45-11.63,4.37c-0.39,0.52-3.74-3.38-5.22,0c-6.86,10.29-13.81,24.7-15.83,36.74
		c-0.25,0.72-0.49,1.44-0.74,2.16c-1.05,3.29-1.41,6.69-1.46,10.12c-1.17-0.04,15.55-53.78,19.07-53.2
		c1.28,0.21,5.53-3.11,6.84-3.09c0.4,0.22,0.83,0.68,1.2,0.64c8.97-1.06,18-1.43,26.97-2.37c2.61-0.27,5.51,0.5,7.96-1.15
		c0,0-0.03,0.02-0.03,0.02c0.23-0.23,0.7-0.1,0.92-0.32c0.27-0.01,0.78,0.01,1.04,0c0.52,0.24,0.57,0.32,1.07,0.29
		c6.98-0.43,13.97-0.84,20.93-1.49C122.58,40.8,120.76,40.09,120.93,39.59z M164.66,82.67c-0.2-0.08-0.44-0.28-0.59-0.22
		c-0.14,0.06-0.18,0.37-0.27,0.56c0.2,0.08,0.44,0.28,0.58,0.22C164.53,83.18,164.57,82.87,164.66,82.67z"/>
	<path class="st6" d="M133.21,66.98c0.18-2.99-1.3-5.7-1.47-8.64c0.73-0.11,1.47-0.32,1.29-1.25c-0.22-1.12-1.21-0.83-1.98-0.91
		c-0.01-0.48-0.03-0.95-0.04-1.43c1.52-0.19,1.7-1.26,1.27-2.36c-0.6-1.51-0.2-3.12-0.63-4.57c-0.89-2.98,1.18-3.08,2.54-2.14
		c2.56,1.78,5.16,1.06,7.79,1.11c4.88,0.1,9.35,1.16,12.66,5.16c0.81,0.98,1.65,2.12,3.2,2.03c0.21-0.01,1.62,3.38,2.11,5.06
		c-2.38,0.07-3.28-2.21-5.01-3.15c-5.76-3.13-12.27-2.13-18.42-3.16c-1.79-0.3-2.83,1.55-2.43,3.58c0.37,1.87,0.88,3.71,1.12,5.6
		C135.44,63.89,135.87,66.08,133.21,66.98z"/>
	<path class="st7" d="M157.82,53.98c-1.55,0.09-2.39-1.05-3.2-2.03c-3.32-4-7.79-5.06-12.66-5.16c-2.63-0.05-5.23,0.66-7.79-1.11
		c-1.36-0.94-3.43-0.85-2.54,2.14c0.43,1.45,0.03,3.06,0.63,4.57c0.44,1.1,0.26,2.16-1.27,2.36c-1.82-2.96-2.17-6.58-4.26-9.41
		c0.51-0.11,1.01-0.22,1.52-0.34c-0.54-0.38-1.07-0.76-1.61-1.14c-0.05-0.13-0.09-0.27-0.1-0.42c1.2-1.66,2.65-1.71,4.63-1.38
		c7.08,1.18,14.18,2.38,21.38,2.58C154.81,47.47,156.32,50.72,157.82,53.98z"/>
	<path class="st8" d="M152.56,44.64c-7.2-0.21-14.3-1.41-21.38-2.58c-1.98-0.33-3.44-0.29-4.63,1.38c-2.45-0.93-0.54-2.5-0.56-3.78
		c5.98,0.75,11.98,1.38,17.94,2.32c1.77,0.28,3.52,0.52,5.29,0.49C150.86,42.44,151.86,43.29,152.56,44.64z"/>
	<path class="st6" d="M97.14,42.45c-2.45,1.65-5.35,0.88-7.96,1.15c-8.97,0.94-18,1.3-26.97,2.37c-0.37,0.04-0.8-0.42-1.2-0.64
		c3.08-1.59,6.51-0.73,9.76-1.26C79.46,42.62,88.29,42.03,97.14,42.45z"/>
	<path class="st6" d="M120.93,39.59c-0.17,0.5,1.65,1.21,0.15,1.35c-6.96,0.65-13.95,1.06-20.93,1.49c-0.5,0.03-0.55-0.05-1.07-0.29
		C106.5,41.26,113.41,39.53,120.93,39.59z"/>
	<path class="st6" d="M97.11,42.47"/>
	<path class="st9" d="M133.21,66.98c2.66-0.9,2.23-3.09,1.98-5.06c-0.23-1.88-0.75-3.73-1.12-5.6c-0.4-2.03,0.65-3.88,2.43-3.58
		c6.14,1.02,12.66,0.03,18.42,3.16c1.73,0.94,2.63,3.22,5.01,3.15c0.22,0,3.47,9.28,3.54,12.27c-3-0.42-4.8-3.53-8.32-3.32
		c-1.58,0.1-2.92,2.04-4.22,0.85c-2.86-2.61-6.58-1.56-9.71-2.73c-2.4-0.9-3.23,0.07-3.78,2.15c-0.57,2.18-1.27,4.33-1.94,6.49
		c-0.35,1.12,0.4,2.83-1.62,3.09C132.38,74.29,133.55,70.59,133.21,66.98z"/>
	<path class="st3" d="M226.96,173.81c0.07,2.15-0.77,4.62,2.27,5.67c0.65,0.22,0.77,1.28,0.14,1.86c-0.69,0.64-1.86,1.48-2.48,0.44
		c-1.71-2.86-3.13-0.97-5.1-0.34c-4.18,1.34-8.65,2.53-13.03,1.54c-3.29-0.74-6.18,0.01-9.04,0.99c-4.24,1.45-8.46,1.39-12.88,1.56
		c-8.31,0.32-16.71,0.09-24.96,1.6c-0.7,0.13-1.5,0.44-2.11,0.23c-6.75-2.34-13.35-0.8-19.97,0.62c-0.66,0.14-1.43,0.04-2.11-0.13
		c-6.73-1.73-12.43,2.41-18.7,3.27c-0.7,0.09-0.86,0.75-0.95,1.36c-1.45,0.24-2.89,0.48-4.34,0.71c1.3-9.78,2.34-19.58,2.92-29.44
		c1.29-0.86,2.59-1.67,4.22-1.66c6.78,0.57,13.52-0.33,20.28-0.62c0.19,0.37,0.31,1.01,0.57,1.07c0.77,0.17,0.77-0.54,0.88-1.07
		c4.54-0.78,9.12-0.75,13.7-0.73c0.24,0.96,0.48,1.93,0.73,2.89c0.89,2.49,3.03,2.87,5.21,2.83c2.36-0.05,4.7-0.61,7.06-0.63
		c6.05-0.06,12.05-0.7,18.04-1.5c5.02,0.26,9.98-0.32,14.97-0.76c5.62-0.5,11.26-0.72,16.88-1.13c0.4-0.03,1.43,0.16,1.23-0.73
		c-0.08-0.38-0.95-0.57-1.47-0.85c1.23-0.53,1.64-1.52,1.54-2.79c1.06-0.93,2.38-0.78,3.64-0.87c0.95,0,1.9,0.01,2.86,0.01
		c1.43,0.94,2.76,1.27,3.74-0.59c4.53,0.56,9.06,0.79,13.57-0.14c0.73,0.86,1.73,0.79,2.62,0.57c4.6-1.13,9.38-0.24,13.98-1.25
		c-0.15,2.55-2.97,2-4.12,3.51c-0.73,0.95-1.7,1.4-1.05,2.92c2.14,4.95-0.75,9.73-0.76,14.63c-0.01,1.63-1.39,1.14-2.39,0.48
		c-1.05-0.69-2.31-1.35-3.06,0.13c-2.33,4.63-6.62,2.32-9.99,2.77c-4.86,0.65-7.95-2.25-9.85-6.56c-0.34-0.78-1.2-0.63-1.91-0.67
		c-0.86-1.01-0.8-1.97,0.12-2.9c1.04,0.06,1.93-0.11,1.98-1.43c1.78-0.05,3.16-1.78,5.28-0.93c1.19,0.48,1.13-1.05,1.21-1.94
		c0.55-0.45,1.13-0.87,1.63-1.37c0.82-0.83,1.96-1.79,1.32-2.99c-0.54-1.02-1.91-1.24-3.11-1.46c-3.1-0.57-3.81,2.33-5.57,3.72
		c-3.42-2.37-3.88-2.25-4.61,1.33c-0.21,1.01-0.87,1.34-1.74,1.44c-1.14,0.13-2.73-0.14-2.76,1.48c-0.02,1.43,0.74,2.76,2.54,2.87
		C223.74,173.07,224.72,174.06,226.96,173.81z M242.81,173.72l0.02,0.02c-0.67-0.37,1.42-3.15-1.36-1.6
		c-1.21,0.68-6.6-1.5-2.41,3.26c0.12,0.14-0.11,0.67-0.28,0.96c-1.12,1.86,0.58,1.84,1.34,1.61
		C242.1,177.37,243.83,176.34,242.81,173.72z"/>
	<path class="st9" d="M251.43,192.46c-0.77-0.21-1.19-1.32-2.19-0.92c-7.94,3.15-16.48,2.46-24.71,3.75
		c-9.49,1.48-19.07,2.4-28.61,3.54c-0.95,0.11-1.91,0.11-2.86,0.16c-7.53,0.35-14.91,1.95-22.38,2.83c-1.2,0.01-2.39,0.02-3.59,0.03
		c-3.89,0.14-7.72,0.69-11.54,1.43c-0.72,0.01-1.44,0.01-2.17,0.02c-9.38,0.95-18.76,1.91-28.14,2.86c0-0.71,0-1.42,0-2.13
		c8.17-0.97,16.35-1.94,24.52-2.9c1.54-0.06,3.1,0,4.62-0.21c8.53-1.2,17.09-2.2,25.7-2.67c0.23-0.01,0.46-0.01,0.68-0.01
		c1.72,0.8,2.41-1.01,3.65-1.44l0.33,0l0.33,0.01c0.25-0.24,0.51-0.48,0.76-0.72c0.48,0,0.96,0.01,1.44,0.01
		c0.48,0.74,0.96,0.72,1.43,0c0.24-0.25,0.48-0.5,0.72-0.75c2.58-0.87,5.2-1.48,7.95-1.4c0.58,0.78,1.44,0.78,2.26,0.7
		c5.38-0.48,10.76-0.99,16.14-1.52c0.69-0.07,0.93-0.64,1.03-1.26c4.2,0.14,8.23-1.1,12.37-1.48c4.18,1.48,8.19,0.43,12.19-0.81
		C245.72,188.07,249.8,189.24,251.43,192.46z"/>
	<path class="st10" d="M113.7,193.19c1.45-0.24,2.89-0.48,4.34-0.71c6.8-1.39,13.74-1.39,20.61-2.16c3.64-0.41,7.31,0.17,10.95-0.64
		c2.52-0.56,4.8,2.09,5.22,5.66c-8.95,0.06-17.79,1.42-26.64,2.49c-3.37,0.41-6.94-0.63-10.15,1.1c-1.11,0.21-2.69-0.49-2.89,1.48
		c-0.93,0-1.86,0-2.8,0c-0.7-0.43-1.41-1.27-2.09-1.24c-6.45,0.26-12.63-1.51-18.94-2.34c2.2-1.39,4.51-0.88,6.76-0.28
		c3.05,0.82,4.56-0.01,4.09-3.36c1.2,0,2.41,0,3.61,0c0.3,1.53,0.98,1.91,2.16,0.7c0.48,0,0.95,0.01,1.43,0.01
		c1.1-0.76,2.88,1.95,3.62-0.7C113.23,193.2,113.47,193.2,113.7,193.19z"/>
	<path class="st5" d="M118.03,198.93c3.21-1.73,6.78-0.69,10.15-1.1c8.84-1.06,17.69-2.43,26.64-2.49
		c4.97-1.27,10.08-1.55,15.15-2.15c0.48-0.01,0.96-0.02,1.45-0.03c2.23,0.36,4.32-0.5,6.48-0.71c3.9-0.46,7.79-1.03,11.69-1.38
		c14-1.26,28.02-2.34,42-3.77c2.52-0.26,5.24-0.01,7.62-1.3c2.75,0.12,5.63-1.86,8.65,0.92c-2.92,0.43-5.5,1.09-8.1,1.14
		c-11.36,0.22-22.52,2.42-33.84,3.12c-12.11,0.76-24.13,2.78-36.21,4.03c-5.69,0.59-11.4,1.02-17.1,1.47
		c-9.63,0.75-19.19,2.1-28.8,2.99c-0.48,0.04-0.96,0.02-1.44,0.02c-1.44,0-2.89,0-4.33-0.01
		C118.04,199.44,118.04,199.19,118.03,198.93z"/>
	<path class="st3" d="M239.22,186.01c-2.39,1.29-5.11,1.05-7.62,1.3c-13.98,1.43-28,2.51-42,3.77c-3.91,0.35-7.8,0.91-11.69,1.38
		c0.27-2.81,0.96-3.91,4.61-3.95c8.5-0.1,16.99-1.51,25.49-2.33c3.78-0.37,7.58-0.65,11.37-0.9c2.37-0.15,4.72-0.18,7.1-0.54
		C230.75,184.09,235.01,185.14,239.22,186.01z"/>
	<path class="st9" d="M260.86,155.79c-4.6,1.01-9.38,0.12-13.98,1.25c-0.89,0.22-1.9,0.29-2.62-0.57c0-0.24-0.01-0.48-0.03-0.72
		c1.39-0.94,2.96-0.77,4.51-0.78c4.27-0.03,8.57,0.21,12.8-0.19c6.26-0.61,12.47-1.73,18.77-2c0.6,0.33,0.73,0.89,0.73,1.51
		C274.36,155.3,267.63,155.87,260.86,155.79z"/>
	<path class="st5" d="M180.09,198.25c-8.61,0.47-17.16,1.47-25.7,2.67c-1.52,0.21-3.08,0.15-4.62,0.22c0-0.25,0-0.49,0-0.74
		c1.12-1.47,3.23,0.11,4.33-1.41c2.59-0.89,5.21-1.57,7.98-1.39c0.08,0.81,0.46,1.44,1.34,1.24c4.48-1.01,9.14-0.6,13.59-1.82
		C178.19,196.69,179.71,196.26,180.09,198.25z"/>
	<path class="st6" d="M180.09,198.25c-0.38-1.99-1.89-1.56-3.06-1.24c-4.46,1.22-9.12,0.81-13.59,1.82
		c-0.88,0.2-1.26-0.43-1.34-1.24c9.08-1.22,18.17-2.34,27.36-2.25c-0.24,0.25-0.48,0.5-0.72,0.75c-0.48,0-0.96,0-1.43,0
		c-0.48,0-0.96-0.01-1.44-0.01c-0.25,0.24-0.51,0.48-0.76,0.72l-0.33-0.01c0,0-0.33,0-0.33,0c-1.4,0.01-2.9-0.24-3.65,1.44
		C180.54,198.24,180.31,198.25,180.09,198.25z"/>
	<path class="st6" d="M154.1,198.98c-1.1,1.52-3.21-0.05-4.33,1.42c-7.21,0.49-14.43,0.98-21.64,1.46
		c-0.23-0.22-0.46-0.44-0.68-0.67C136.31,200.14,145.11,198.45,154.1,198.98z"/>
	<path class="st6" d="M216.82,191.86c-0.1,0.62-0.35,1.19-1.03,1.26c-5.38,0.53-10.76,1.03-16.14,1.52
		c-0.82,0.07-1.68,0.07-2.26-0.7C203.79,192.58,210.31,192.23,216.82,191.86z"/>
	<path class="st9" d="M127.45,201.19c0.23,0.22,0.46,0.44,0.68,0.67c-4.51,1.09-9.14,1.03-13.73,1.45c1.67-1.4,3.69-1.39,5.72-1.46
		c1.26-0.04,2.65,0.45,3.72-0.69C125.05,201.17,126.25,201.18,127.45,201.19z"/>
	<path class="st7" d="M241.38,189.57c-4,1.24-8.01,2.29-12.19,0.81C233.2,189.38,237.3,189.6,241.38,189.57z"/>
	<path class="st7" d="M227.86,170.11c-0.93,0.93-0.98,1.9-0.13,2.9c-0.26,0.27-0.52,0.53-0.78,0.8c-2.24,0.25-3.22-0.74-2.93-2.98
		c0.26,0,0.51,0,0.77,0c0.07,0.31,0.13,0.61,0.2,0.92c0.13-0.08,0.25-0.15,0.38-0.23c-0.2-0.23-0.4-0.45-0.6-0.68
		C225.42,168.99,226.79,170.16,227.86,170.11z"/>
	<path class="st3" d="M175.52,189.6c-0.35-0.22-0.79-0.34-0.84-0.56c-0.15-0.57,0.31-0.8,0.78-0.74c0.24,0.03,0.59,0.35,0.62,0.57
		C176.1,189.07,175.75,189.32,175.52,189.6z"/>
	<path class="st3" d="M171.42,193.17c-0.48,0.01-0.96,0.02-1.45,0.03c0.11-0.52,0.1-1.23,0.86-1.07
		C171.09,192.18,171.23,192.81,171.42,193.17z"/>
	<path class="st4" d="M250.75,226.39c-0.49-0.24-0.49-0.48,0-0.73C250.75,225.9,250.75,226.14,250.75,226.39z"/>
	<path class="st11" d="M30.04,192.43c-8.54-9.45,6.6-7.5,6.36-6.12c-0.15,0.88-7.48,1.22-5.66,0.7c3.7-1.06,7.22,0.73,10.85,0.43
		c-0.23,1.78-1.62,1.46-2.73,1.42c-1.65-0.07-2.47,0.55-2.32,2.25C34.15,190.47,32.22,192.05,30.04,192.43z"/>
	<path class="st7" d="M281.04,136.23c-5.27,1.51-10.7,2.4-15.91,4.2c-5.1,1.76-10.35,2.89-15.83,2.3
		c-1.65-3.48-3.84-6.65-5.56-10.11c-1.51-3.05-2.11-5.03,2-5.8c0.45,0,0.9,0,1.34,0c6.02,1.31,12.05,1.19,18.08,0.08
		C265.17,126.88,276.71,131.44,281.04,136.23z"/>
	<path class="st1" d="M280.32,152.77c-6.3,0.27-12.51,1.39-18.77,2c-4.23,0.41-8.53,0.16-12.8,0.19c-1.55,0.01-3.13-0.16-4.51,0.78
		c-0.71-0.02-1.42-0.03-2.13-0.05c-0.21-1.92,3.37-1.16,2.51-4.01c-0.91-3,1.37-6.22,4.39-5.89c6.56,0.71,11.77-3.19,17.77-4.23
		c4.73-0.81,9.18-3.82,14.26-1.73c0.73,1.67-0.35,3.35,0.03,5.02C280.81,147.5,280.56,150.14,280.32,152.77z"/>
	<path class="st4" d="M281.03,139.84c-5.08-2.09-9.54,0.92-14.26,1.73c-5.99,1.03-11.21,4.93-17.77,4.23
		c-3.02-0.33-5.3,2.89-4.39,5.89c0.87,2.86-2.72,2.09-2.51,4.01c-1.2,0-2.41,0-3.61-0.01c-0.32-0.59-0.88-0.7-1.47-0.73
		c2.68-3.25,5.35-6.5,8.03-9.76c1.69-0.37,2.15-2.85,4.27-2.48c5.47,0.6,10.72-0.54,15.83-2.3c5.21-1.79,10.63-2.69,15.91-4.2
		C281.85,137.43,281.86,138.64,281.03,139.84z"/>
	<path class="st12" d="M133.08,232.71c-0.12,1.22,0.84,2.92-0.78,3.5c-1.57,0.56-1.73-1.13-2.26-2.16c-0.24-0.47-0.85-1-1.33-1.04
		c-3.98-0.37-3.64-3.11-3.09-5.76c0.29-1.4,0.37-2.51-0.55-3.68c-0.55-0.7-1.43-1.59-0.74-2.53c0.56-0.77,1.52-0.18,2.34-0.11
		c2.77,0.26,5.19-0.34,6.22-3.32c0.63-1.81,2.32-3.1,2.46-5.11c0.13-1.88,0.97-3.87,2.87-3.05c1.76,0.76,4.39,2.03,3.37,5.1
		c-0.34,1.02-0.75,2.02-1.23,2.98c-1.08,2.18-0.4,3.42,1.95,3.78c1.28,0.19,2.73,0.58,2.18,2.09c-0.55,1.5-1.83-0.2-2.79,0.02
		c-0.77-2.42-2.77-0.79-4.13-1.26c-0.34-1.79-1.65-2.45-3.15-2.01c-1.43,0.42-3.14,0.87-3.85,2.39c-0.88,1.89,1.46,2.15,1.99,3.36
		c-0.43,1.11-1.03,2.19-1.26,3.35C130.98,230.75,130.7,232.47,133.08,232.71z"/>
	<path class="st9" d="M30.04,192.43c2.18-0.38,4.11-1.96,6.5-1.33c2.96,0.43,5.93,0.93,8.89,1.28c8.11,0.96,16.26,1.78,24.37,2.72
		c7.18,0.83,14.28,1.97,21.53,1.75c6.3,0.83,12.49,2.6,18.94,2.34c0.68-0.03,1.39,0.8,2.09,1.24c-11.98,0.39-23.78-1.52-35.64-2.77
		c-8.65-0.91-17.36-1.29-25.98-2.37C43.82,194.41,36.73,194.85,30.04,192.43z"/>
	<path class="st5" d="M45.91,233.59c-1.43,0.24-2.86,0.48-4.3,0.71c0-0.46-0.01-0.93-0.01-1.39c0.92-0.44,1.42-1.16,1.44-2.2
		c0.24-0.23,0.48-0.47,0.72-0.7c0.48-0.49,0.96-0.97,1.44-1.46c6.11-1.91,12.25-3.52,18.73-2.16c-0.23,0.72-0.46,1.43-0.69,2.15
		c-0.49,1.08-1.47,1.89-2.5,1.7c-2.19-0.4-4.23,0.38-6.29,0.61C51.51,231.17,48.3,231.3,45.91,233.59z"/>
	<path class="st6" d="M125.25,204.03c0,0.71,0,1.42,0,2.13c-5.18,0.38-10,2.69-15.66,0.48c-4.67-1.82-10.23-1.36-15.39-2.34
		c6.25-1.33,12.71,1.41,18.87-1.02c0.07,2.18,1.96,1.27,2.65,1.14C118.89,203.82,122.07,204.13,125.25,204.03z"/>
	<path class="st1" d="M144.01,234.32c-1.47-1.37-3.59-0.91-5.38-2.2c-1.77-1.27-1.12,2.41-2.45,3.23c-1.24-2.92,1.04-7.79,4.1-8.8
		c2.56-0.85,4.48,0.76,5.42,4.62c0.25,1.03,0.32,2.11,0.48,3.16C145.45,234.32,144.73,234.32,144.01,234.32z"/>
	<path class="st10" d="M125.98,241.52c-0.73-1.86-1.33-3.74-0.72-5.76c4.56-0.94,7.36,3.37,8.88,6.46c0.45,0.92,0.02,1.31-0.84,1.44
		c-1.02,0.15-2.19-0.3-2.99,0.75c-0.72-0.24-1.44-0.48-2.16-0.73C128.07,242.31,127.35,241.6,125.98,241.52z"/>
	<path class="st4" d="M125.25,204.03c-3.18,0.1-6.36-0.22-9.54,0.38c-0.69,0.13-2.58,1.05-2.65-1.14c0.45,0.01,0.9,0.02,1.35,0.02
		c4.58-0.42,9.22-0.36,13.73-1.45c7.21-0.49,14.43-0.97,21.64-1.46c0,0.25,0,0.49,0,0.74C141.6,202.1,133.42,203.07,125.25,204.03z"
		/>
	<path class="st8" d="M137.56,222.14c1.36,0.47,3.36-1.17,4.13,1.26c-3.86,0.22-8.12,4.83-8.6,9.31c-2.39-0.24-2.1-1.96-1.79-3.49
		c0.23-1.15,0.83-2.23,1.26-3.35C133.39,223.51,135.49,222.85,137.56,222.14z"/>
	<path class="st5" d="M97.14,212.68c-0.02,0.6-0.17,1.12-0.74,1.44c-4.72-2.14-6.79-5.26-6.45-9.84c0.06-0.82-0.42-2.17,1.17-2
		c1.04,0.11,1.86,0.87,1.62,1.99C91.86,208.33,95.44,210,97.14,212.68z"/>
	<path class="st5" d="M144.01,234.32c0.72,0,1.44,0,2.16,0c0.29,2.61-0.3,5.01-1.84,7.11c-2.12,2.9-4.8,2.88-7.61-0.39
		C142.9,242.47,143.15,238.11,144.01,234.32z"/>
	<path class="st9" d="M115.15,253.8c-1.27,0.62-2.52,1.28-3.81,1.86c-1.16,0.52-1.83,0.04-1.99-1.19c1.3-2.11,2.78-4.14,2.26-6.87
		c-0.1-0.53-0.04-1.31,0.76-1.35c0.86-0.03,1.26,0.68,1.26,1.41C113.64,249.84,114.22,251.86,115.15,253.8z"/>
	<path class="st9" d="M112.95,230.3c1.05,0.38,0.72,1.32,0.7,2.07c-0.02,0.7-0.26,1.59-1.13,1.42c-1.01-0.2-0.98-1.21-0.88-2.03
		C111.72,231.02,112.04,230.41,112.95,230.3z"/>
	<path class="st9" d="M118.03,198.93c0,0.25,0.01,0.51,0.01,0.76c-0.9,0.49-1.85,0.79-2.9,0.72
		C115.35,198.44,116.93,199.15,118.03,198.93z"/>
	<path class="st1" d="M43.04,230.71c-0.02,1.04-0.52,1.75-1.44,2.2C41.58,231.84,41.55,230.78,43.04,230.71z"/>
	<path class="st1" d="M45.2,228.55c-0.48,0.49-0.96,0.97-1.44,1.46C43.98,229.27,43.23,227.56,45.2,228.55z"/>
	<path class="st12" d="M125.25,232.87c-0.24,0-0.48,0-0.72,0c0.12-0.31,0.24-0.62,0.36-0.94
		C125.01,232.25,125.13,232.56,125.25,232.87z"/>
	<path class="st2" d="M214.66,214.96c2.32-1.38,2.7,0.94,3.55,2.01c0.81,1.02,1.22,2.33,0.29,3.64c-2.58,3.63-2.42,4.24,2.01,5.84
		c2,0.72,3.59,1.46,2.55,3.99c-0.98,2.35-3.3,2.36-5.14,2.25c-2.18-0.14-3.03-2.22-3.15-4.18c-0.1-1.71-0.22-3.28-1.58-4.49
		c0.21-0.83,1.68-1.17,0.97-2.42c-1.09-0.16-1.84,0.5-2.52,1.1c-6.11,5.4-12.85,5.91-20.07,2.63c-6.8-3.09-13.05-2.21-18.85,2.43
		c-0.69,0.55-1.28,1.83-2.34,1.07c-0.68-0.49-0.32-1.56-0.07-2.38c0.67-2.24,0.82-4.21-2-5.22c-1.24-0.44-1.31-1.35-0.43-2.55
		c4.84-6.59,16.66-9.98,24.11-6.03c7.59,4.03,13.93,3.41,19.72-2.9c0.1-0.11,0.43-0.01,0.57-0.01c1.35,2.37-2.48,6.24,2.21,7.51
		c1.26,0.34,0.45,3.57,2.35,1.89c1.6-1.41-0.85-2.25-1.51-3.34C215.14,215.5,214.88,215.24,214.66,214.96z M184.35,218.47
		c0.05-1.96,0.34-4.99-1.45-5.2c-2.07-0.24-1.33,2.92-2.05,4.5c0,1.13-1.17,2.13,0,3.97c0.66-3.78,2.01-1.99,3.49-0.28
		C184.35,220.08,184.35,219.27,184.35,218.47z M177.85,213.98c-0.96,2.13-1.79,3.95-2.6,5.73c-1.56-0.47-0.56-2.65-2.62-2.72
		c0.69,2.19,1.34,4.27,2.06,6.54C179.24,218.23,179.27,218.16,177.85,213.98z M205.76,223.43c1.23-2.09,1.23-2.09,3.55-1.07
		c-0.1-1.51-1.76-2.62-0.7-4.35c0.67-1.09-0.16-2.2-1.43-2.22c-1.36-0.02-2.68,0.55-2.44,2.32
		C204.97,219.82,205.38,221.51,205.76,223.43z M197.84,224.94c0-2.95,1.49-5.37,0.77-8.11c-1.74,0.29-0.61,2.36-1.97,2.69
		c-1.43-0.62,0.46-2.21-1.07-3.11c-0.38,1.71-0.74,3.17-0.99,4.64c-0.07,0.39,0.21,0.84,0.33,1.27
		C198.38,220.33,196.11,224.19,197.84,224.94z M203.83,217.41c-2.05-0.68-3.44-0.29-3.44,1.58c0,2.16-0.96,4.51,0.7,6.47
		c0.2,0.23,0.96,0.18,1.34,0.01c0.8-0.37,0.1-0.83,0.05-1.32C202.25,221.94,201.29,219.54,203.83,217.41z M187.44,212.78
		c-2.5,6.26-2.14,9,1.33,8.86C185.67,219.13,188.54,215.88,187.44,212.78z"/>
	<path class="st8" d="M214.66,214.96c0.23,0.28,0.49,0.54,0.67,0.84c0.66,1.09,3.11,1.92,1.51,3.34c-1.9,1.68-1.09-1.55-2.35-1.89
		c-4.69-1.27-0.86-5.14-2.21-7.51c-0.14,0-0.47-0.1-0.57,0.01c-5.8,6.31-12.14,6.92-19.72,2.9c-7.45-3.95-19.27-0.56-24.11,6.03
		c-0.88,1.21-0.82,2.11,0.43,2.55c2.82,1.01,2.67,2.97,2,5.22c-0.24,0.82-0.61,1.89,0.07,2.38c1.06,0.76,1.65-0.52,2.34-1.07
		c5.8-4.64,12.04-5.52,18.85-2.43c7.22,3.28,13.96,2.77,20.07-2.63c0.68-0.6,1.44-1.26,2.52-1.1c0.72,1.25-0.76,1.58-0.97,2.42
		c-1.53,0.56-2.55,1.76-3.62,2.9c-5.27,2.86-10.79,3.07-16.46,1.51c-0.48-0.23-0.97-0.46-1.45-0.69c-1.62-0.85-3.2-1.78-5.09-1.9
		c-7.37-1.32-12.36,2.95-17.07,7.64c-1.39-1.32-0.87-2.73-0.85-3.94c0.04-3.13,0.08-5.88-3.03-8.12c-3.1-2.23,1.1-3.29,1.53-5.04
		c0.24-0.22,0.48-0.44,0.72-0.65c3.14-2.5,6.27-4.94,10.3-5.96c6.13-1.55,11.96-0.6,17.67,1.78c0.46,0.22,0.92,0.45,1.39,0.67
		c4.32,2.18,8.1,1.4,12.25-2.57c0.77-0.74,1.49-1.54,2.2-2.35c0.39-0.44,0.69-1.11,1.37-0.94c0.85,0.22,0.75,1.06,0.88,1.75
		C214.37,210.37,212.9,212.84,214.66,214.96z"/>
	<path class="st2" d="M197.23,212.2c-0.46-0.22-0.92-0.45-1.39-0.67c0.34-3.37-3.5-1.81-4.42-3.77c-0.74-1.57-1.96-1.67-3.6-1.2
		c-3.41,0.98-7.03,0.61-10.55,1.19c-2.48,0.41-4.71-3.47-6.59-5.93c7.47-0.89,14.84-2.48,22.38-2.83c-0.02,0.83-0.02,1.63-0.64,2.33
		c-2.21,2.46-1.92,3.62,1.07,5.1c1.26,0.62,2.71,0.46,3.91,1.51C199.31,209.59,199.75,210.86,197.23,212.2z"/>
	<path class="st2" d="M167.87,215.71c-0.24,0.22-0.48,0.44-0.72,0.65c-1.85-1.48-3.91-1.28-6.03-0.79
		c-4.32,0.99-7.71-2.71-6.42-7.04c0.51-1.72,1.06-3.42,0.86-5.26c3.81-0.74,7.65-1.29,11.54-1.43c-1.89,2.97-1.4,5.98-0.22,9.04
		C167.45,212.43,167.99,214.01,167.87,215.71z"/>
	<path class="st4" d="M234.15,206.91c-4.67-0.77-5.35-2.89-2.54-6.74c2.04-2.81,4.19-4.33,7.62-2.62
		C236.02,199.84,233.84,202.7,234.15,206.91z"/>
	<path class="st11" d="M234.16,217.73c-0.09-1.28-0.98-1.46-2-1.46c-1.34,0-2.43-0.69-2.73-1.87c-0.37-1.49-1.24-3.67,0.72-4.36
		c2.41-0.85,4.32,0.79,5.33,2.93c0.69,1.45,0.79,3.17,0.12,4.78C235.12,217.74,234.64,217.74,234.16,217.73z"/>
	<path class="st9" d="M234.15,206.91c-0.32-4.21,1.86-7.07,5.08-9.36c1.63,0.86,4.17-0.04,5.16,2.93c-2.2-0.49-4.31-0.88-5.64,1.03
		c-1.13,1.62-2.62,3.14-2.44,5.37c-0.72,0.25-1.43,0.5-2.15,0.74C234.16,207.39,234.16,207.15,234.15,206.91z"/>
	<path class="st2" d="M193.1,228.42c5.68,1.56,11.19,1.35,16.46-1.51c-0.5,4-4.4,3.49-6.6,3.97c-2.25,0.5-5.11-0.03-7.7-0.2
		C193.84,230.6,193.1,229.87,193.1,228.42z"/>
	<path class="st4" d="M239.15,215.57c-3.16-1.79-0.31-3.89-0.17-5.78c0.13-1.78,1.72-0.95,2.81-0.77c0.58,0.09,1.18,0.05,1.77,0.07
		C242.99,211.86,242.16,214.46,239.15,215.57z"/>
	<path class="st7" d="M239.15,215.57c3.01-1.11,3.84-3.71,4.42-6.48c2.84,2.16,1.11,4.27-0.24,6.18
		C242.21,216.85,240.72,217.88,239.15,215.57z"/>
	<path class="st5" d="M234.16,217.73c0.48,0.01,0.96,0.02,1.44,0.02c0.11,0.34,0.11,0.8,0.34,0.99c1.53,1.24,1.23,2.62-0.04,3.58
		c-1.56,1.17-2.06-0.21-2.8-1.41C232.04,219.2,231.71,218.09,234.16,217.73z"/>
	<path class="st2" d="M186.56,225.83c1.89,0.12,3.47,1.05,5.09,1.9C189.14,229.29,187.87,227.51,186.56,225.83z"/>
	<path class="st4" d="M234.16,207.63c0.72-0.25,1.43-0.5,2.15-0.74c0,1.05,0.12,2.37-1.19,2.55
		C233.9,209.61,234.29,208.36,234.16,207.63z"/>
	<path class="st5" d="M239.02,220.89c0.2,0.09,0.5,0.13,0.56,0.27c0.06,0.14-0.1,0.49-0.24,0.54c-0.14,0.05-0.49-0.1-0.55-0.24
		C238.74,221.33,238.93,221.09,239.02,220.89z"/>
	<path class="st2" d="M45.91,233.59c2.39-2.29,5.6-2.42,8.54-2.74c2.06-0.23,4.1-1.01,6.29-0.61c1.03,0.19,2.01-0.62,2.5-1.7
		c4.34-0.46,8.39,0.88,12.53,2.12C65.58,229.51,55.93,233.33,45.91,233.59z"/>
	<path class="st2" d="M125.98,241.52c1.37,0.07,2.09,0.79,2.17,2.16C126.54,243.85,125.82,243.13,125.98,241.52z"/>
	<path class="st2" d="M150.3,248.46c0.03-0.09,0.06-0.25,0.09-0.25c0.1,0,0.2,0.06,0.3,0.09c-0.03,0.09-0.06,0.25-0.09,0.25
		C150.5,248.56,150.4,248.5,150.3,248.46z"/>
	<path class="st10" d="M220.45,158.05c0.1,1.27-0.31,2.26-1.54,2.79c-9.77-0.47-19.57,0.49-29.33-0.68c0,0-0.13-0.14-0.13-0.14
		c0.04-4.52-0.26-9.07,0.82-13.53c-0.6-1.48-1.59-2.33-3.29-2.06c-9.22,1.47-18.52,1.08-27.8,1.24c-2.12-0.02-4.24,0.01-6.35-0.09
		c-1.61-0.08-2.48,0.46-2.35,2.18c-5.53-0.53-11.06,1.53-16.46,0.55c-4.55-0.82-8.79-0.05-13.12,0.6c-3.47,0.52-6.76-1.85-7.18-5.48
		c0-0.95,0-1.9-0.01-2.85c0-1.21,0.01-2.42,0.01-3.64c0.01-0.24,0.02-0.47,0.03-0.7c2.72-1.22,3.09-2.14,1.46-3.63l-0.18,0.01
		c0.28-0.48,0.55-0.95,0.83-1.43c0.49-0.24,0.99-0.48,1.48-0.73c1.08-0.33,2.69-0.29,1.45-2.17c-0.25-0.48-0.5-0.96-0.75-1.44
		c0,0,0.03-0.03,0.03-0.03c1.15-0.08,2.63,0.49,2.87-1.42c4.02-2.49,4.74-6.96,6.5-10.81c0.85-0.52,0.7-1.38,0.72-2.17
		c0.24-0.72,0.48-1.43,0.72-2.15c1.05-0.76,0.62-1.9,0.74-2.9c1.98-0.95,1.3-2.77,1.42-4.33c1.89-1.48,0.88-4.06,2.17-5.77
		c1.53,0,2.27-1.23,3.19-2.13c0.89-0.87,1.79-1.47,3.13-1.5c3.85-0.08,7.74-0.2,11.38,1.08c2.3,0.81,4.42,0.65,6.65,0.29
		c2.7-0.44,5.4-0.9,8.1-1.35c0.16,3.64-0.09,7.24-0.72,10.83c-1.01,2.55-1.67,5.15-1.38,7.92c-0.76,2.62-1.52,5.24-2.28,7.87
		c-1.83,3.42-3.61,6.85-3.57,10.88c-3.05-0.01-2.59,2.51-3.11,4.32c-2.16,0.69-1.78,2.93-2.63,4.41c-1.23,2.14-0.05,2.79,1.98,2.73
		c8.43-0.22,16.86-0.45,25.29-0.64c5.67-0.13,5.9-0.33,5.88-5.83c0.71-0.04,1.41-0.09,2.12-0.14c0.25,0.51,0.59,1,0.74,1.55
		c0.24,0.88-0.42,2.21,0.54,2.61c1.23,0.51,2.14-0.71,3.03-1.44c1.55-1.26,3.19-2.43,4.73-3.65c3.78-3,8.4-4.95,11.36-8.98
		c0.74,0.04,1.55-0.09,2.01,0.72c0.14,1.94,1.47,2.29,3.04,2.16c5.37-0.45,10.64,1.09,16.01,0.75c0.93-0.06,1.94-0.16,2.62,0.75
		c-0.24,0.67-0.34,1.43-0.73,1.99c-2.04,2.95-2.96,6.43-5.53,9.31c-1.45,1.62-2.34,5.13-3.22,7.88c-0.73,2.28-2.19,3.3-4.8,3.22
		c-5.36-0.16-10.73,0.05-16.09,0.11c-2.14-0.02-4.27-0.04-6.41-0.06c-1.47,0.39-4.13,0.1-3.93,1.76c0.23,1.97,2.76,0.7,4.27,0.97
		c0.11,0.02,0.23-0.02,0.35-0.03c2.4,0.02,4.79,0.04,7.19,0.06c5.4,1.76,11.01,1.24,16.55,1.51
		C219.46,157.5,219.96,157.78,220.45,158.05z"/>
	<path class="st11" d="M76.21,60.49c-0.09,2.71-1.69,4.93-2.38,7.47c-1.37,5.06-3.22,10-4.47,15.08c-1.03,4.22,0.98,8.5,0.35,12.79
		c-2.98-0.04-5.94,0.06-8.9-0.67c-3.75-0.92-8.19-6.86-7.73-10.72c0.41-3.5,0.77-7,1.15-10.5c-0.31-0.07-0.61-0.15-0.92-0.22
		c-1.06,5.65-1.3,11.63-5.88,15.86c-0.13,0.12-0.08,0.46-0.08,0.7c-0.03,2.05-1.04,2.05-2.59,1.37c-2.4-1.04-4.82-2.09-7.48-2.33
		c2.01-12.04,5.38-23.6,12.24-33.89c2.49,0.41,2.74,2.34,2.87,4.29c0.14,2.19-0.76,4.19-1.22,6.27c-0.23,1.07-1.39,2.18-0.23,3.32
		c1.22,1.2,1.99-1.11,3.14-0.5c0.79,0.85-1.02,2.1,0.67,2.91c1.19-1.36,2.85-1.62,4.65-1.97c4.89-0.95,9.85-1.93,12.71-6.88
		C72.91,61.52,74.21,60.21,76.21,60.49z"/>
	<path class="st1" d="M76.21,60.49c-2-0.28-3.3,1.02-4.1,2.4c-2.86,4.95-7.82,5.93-12.71,6.88c-1.8,0.35-3.46,0.61-4.65,1.97
		c-1.69-0.81,0.12-2.06-0.67-2.91c-1.16-0.61-1.93,1.7-3.14,0.5c-1.16-1.14,0-2.25,0.23-3.32c0.45-2.08,1.36-4.08,1.22-6.27
		c-0.13-1.95-0.38-3.89-2.87-4.29c1.48-3.38,3.23-6.24,7.66-4.08c0.56,0.27,1.28,0.48,1.67-0.04c2.92-3.92,7.25-2.63,11.11-3.1
		c2.08-0.25,4.31,0.76,6.24-0.71c5.23-0.27,10.51-0.13,15.67-0.9c9.41-1.4,18.95-1.16,28.33-2.71c0.79,0.03,1.64-0.12,2.16,0.72
		c-2.93,1.54-6.09,0.35-9.12,0.8c-10.37,1.53-20.85,1.87-31.27,2.82c-5.66,0.57-11.31,1.14-16.97,1.71c0,0.33,0,0.65,0,0.98
		c4.82,1.48,10.12,0.94,14.79,3.07C78.96,56.36,77.68,58.48,76.21,60.49z"/>
	<path class="st1" d="M37.29,89.33c2.66,0.24,5.08,1.29,7.48,2.33c1.56,0.68,2.57,0.68,2.59-1.37c0-0.24-0.05-0.58,0.08-0.7
		c4.59-4.23,4.82-10.21,5.88-15.86c0.31,0.07,0.61,0.15,0.92,0.22c-0.38,3.5-0.74,7-1.15,10.5c-0.46,3.85,3.97,9.8,7.73,10.72
		c2.96,0.73,5.92,0.63,8.9,0.67c0.24,3.85,0.48,7.69,0.72,11.54c-2.04,0.1-1.87,3.07-4.45,2.98c-6.57-0.24-13.48-6.98-13.62-13.59
		c-0.05-2.32,0.73-4.81-0.75-7.35c-2.12,7.29-4.75,8.84-11.84,7.38c-1.04-0.21-2.13-0.17-3.2-0.25c-0.01-1.69-0.01-3.37-0.02-5.06
		C36.79,90.77,37.04,90.05,37.29,89.33z"/>
	<path class="st5" d="M164.19,74.19c0.24,0.96,0.48,1.93,0.72,2.89c-8.08-0.02-15.61-3.31-23.59-3.93
		c-2.67-0.21-3.87,0.83-3.79,3.94c-0.15,1.24,0.61,3.11-2.03,2.45c-0.92-0.23-1.04,1.1-1.55,1.71c-0.23,0.08-0.47,0.15-0.7,0.22
		c0.21-1.22,0.43-2.43,0.64-3.65c2.01-0.25,1.27-1.96,1.62-3.09c0.67-2.16,1.37-4.3,1.94-6.49c0.54-2.08,1.38-3.05,3.78-2.15
		c3.13,1.17,6.85,0.11,9.71,2.73c1.3,1.19,2.65-0.75,4.22-0.85c3.52-0.21,5.32,2.9,8.32,3.32c0.01,0.46,0.01,0.92,0.02,1.39
		C163.48,73.31,163.59,73.86,164.19,74.19z"/>
	<path class="st3" d="M165.65,93.67c-2.7,0.45-5.4,0.91-8.1,1.35c-2.23,0.36-4.35,0.52-6.65-0.29c-3.64-1.28-7.54-1.16-11.38-1.08
		c-1.34,0.03-2.24,0.63-3.13,1.5c-0.92,0.9-1.66,2.13-3.19,2.13c-1.03-5.85,5.57-11.34,12.2-9.95c6.15,1.29,12.24,2.84,18.5,0.77
		c1.83-0.6,1.53,1.46,2.47,1.97C166.36,91.27,165.89,93.67,165.65,93.67z"/>
	<path class="st12" d="M81.98,48.24c10.42-0.94,20.9-1.28,31.27-2.82c3.03-0.45,6.19,0.74,9.12-0.8c1.85,1.19,3.78,2.34,2.85,5.09
		c-1.21-1.84-3.04-1.58-4.82-1.38c-12.53,1.39-25.07,2.69-37.69,2.78C82.46,50.15,82.22,49.2,81.98,48.24z"/>
	<path class="st12" d="M137.53,77.09c-0.08-3.12,1.12-4.15,3.79-3.94c7.99,0.62,15.52,3.92,23.59,3.93c0.01,0.97,0.01,1.93,0.02,2.9
		c-4.1-0.51-8.19-1.1-12.29,0c-3.11,0.83-5.77-1.26-7.86-2.48C141.99,75.86,139.98,76.36,137.53,77.09z"/>
	<path class="st3" d="M127.42,114.59c-1.76,3.85-2.48,8.32-6.5,10.81c-0.57-0.31-0.69-0.85-0.71-1.43c0.68-1.71,1.93-3.17,2.16-5.07
		c-0.01-0.26-0.02-0.51-0.03-0.77c0-0.21,0-0.43,0.01-0.64c1.93-0.24,1.31-1.79,1.5-2.92c0.22-0.71,0.45-1.42,0.67-2.14
		c2.03-0.96,1.33-2.81,1.44-4.4c0-0.22,0-0.43,0-0.65c0.25-0.24,0.49-0.49,0.74-0.73c2.23-0.26,1.07-4.56,4.31-3.61
		c-0.13,1.56,0.56,3.38-1.42,4.33c-1.08,0.75-0.64,1.89-0.74,2.9c-0.24,0.72-0.48,1.43-0.72,2.15
		C127.29,112.94,127.44,113.8,127.42,114.59z"/>
	<path class="st5" d="M120.21,43.9c-9.38,1.55-18.92,1.31-28.33,2.71c-5.15,0.77-10.44,0.63-15.67,0.9
		c4.24-1.77,8.79-1.72,13.24-2.13c8.64-0.8,17.3-1.45,25.96-2.08C117.01,43.18,118.75,42.59,120.21,43.9z"/>
	<path class="st12" d="M35.05,103.79c0.01-0.72,0.03-1.45,0.04-2.17c0.06-3.44,0.42-6.83,1.46-10.12c0.01,1.69,0.01,3.37,0.02,5.06
		c-0.2,1.93-0.99,3.85-0.02,5.78c-0.93,1.92,0.15,3.85,0,5.77c-0.25,0-0.5,0.01-0.75,0.01c-0.82-0.54-0.66-1.4-0.72-2.18
		C35.06,105.21,35.06,104.5,35.05,103.79z"/>
	<path class="st7" d="M133.24,81.48c0.23-0.07,0.47-0.15,0.7-0.22c3.28,2.09,0.55,4.16,0.49,6.23c-0.4,0.02-0.8,0.03-1.19,0.05
		C133.24,85.52,133.24,83.5,133.24,81.48z"/>
	<path class="st12" d="M130.28,69.89c-1.39-2.05-0.4-4.36-0.72-6.53C131.95,65.3,131.34,67.57,130.28,69.89z"/>
	<path class="st7" d="M131.04,56.17c0.77,0.08,1.77-0.2,1.98,0.91c0.18,0.93-0.56,1.14-1.29,1.25
		C130.93,57.8,131.05,56.97,131.04,56.17z"/>
	<path class="st12" d="M128.83,60.52c-0.82-0.54-0.67-1.4-0.7-2.19C129.7,58.63,130.03,59.33,128.83,60.52z"/>
	<path class="st12" d="M127.39,54.75c-0.56-0.34-0.68-0.88-0.7-1.47C127.63,53.43,128.51,53.61,127.39,54.75z"/>
	<path class="st8" d="M126.65,43.85c0.54,0.38,1.07,0.76,1.61,1.14c-0.51,0.11-1.01,0.22-1.52,0.34
		C126.71,44.84,126.68,44.35,126.65,43.85z"/>
	<path class="st12" d="M164.66,82.67c-0.09,0.2-0.13,0.51-0.27,0.56c-0.14,0.06-0.39-0.14-0.58-0.22c0.09-0.2,0.13-0.51,0.27-0.56
		C164.22,82.39,164.46,82.58,164.66,82.67z"/>
	<path class="st12" d="M128.12,56.95c-0.24-0.26-0.47-0.52-0.71-0.78C127.65,56.43,127.89,56.69,128.12,56.95z"/>
	<path class="st12" d="M126.71,106.66c-0.25,0.24-0.49,0.49-0.74,0.73c0.01-0.24,0.02-0.48,0.03-0.72
		C126.24,106.66,126.47,106.66,126.71,106.66z"/>
	<path class="st9" d="M164.19,74.19c-0.61-0.32-0.71-0.88-0.7-1.49C164.08,73.03,164.21,73.57,164.19,74.19z"/>
	<path class="st12" d="M113.7,140.57c0,0.95,0,1.9,0.01,2.85c-3.02,1.91-0.67,4.87-1.42,7.22c-0.24,0.48-0.49,0.97-0.73,1.45
		c-0.53,0.23-1.35,0.3-1.56,0.7c-2.28,4.3,1.01,10.03,5.78,10.16c0.29,0.27,0.57,0.53,0.86,0.8c-0.58,9.85-1.62,19.66-2.92,29.44
		c-0.24,0-0.47,0.01-0.71,0.02c-1.33-0.41-2.86-1.86-3.62,0.7c-0.48,0-0.95-0.01-1.43-0.01c-0.53-0.82-1.37-0.68-2.16-0.7
		c-1.2,0-2.41,0-3.61,0c-2.96-1.64-6.53-1.91-9.47-1.75c-7.34,0.37-14.45-1.21-21.69-1.47c-9.82-0.36-19.55-2.29-29.42-2.54
		c-3.63,0.3-7.15-1.48-10.85-0.43c-1.82,0.52-1.48-1.16-1.33-2.04c0.24-1.37,0.96-2.69-0.09-4.02c1.8-2.61,0.88-5.89,2.1-8.64
		c2.19-3.28,0.77-7.19,1.84-10.67c0.05-0.17,5.96-18.86,6.16-20.35c0.89-2.32,1.6-4.67,1.41-7.2c0.25-0.25,0.5-0.49,0.75-0.74
		c1.77,2.85,4.4,2.4,7.24,2.23c9.54-0.55,19,1.56,28.63,0.9c3.78-0.26,7.84,0.4,11.78,0.45c5.83,0.07,11.68-0.26,17.48,0.15
		c2.67,0.19,4.29-2.9,6.99-1.58c0.01,0.25,0.02,0.49,0.03,0.74c-0.01,0.23-0.02,0.47-0.03,0.7c-1.55,0.24-2.85,1.02-2.67,2.66
		C111.21,141.03,112.74,140.38,113.7,140.57z"/>
	<path class="st7" d="M218.97,157.22c-5.54-0.27-11.15,0.25-16.55-1.51c0.85-1.29,2.58-0.17,3.64-1.15
		c-1.67-1.04-4.01,0.85-5.12-1.54c5.37-0.06,10.74-0.28,16.09-0.11c2.61,0.08,4.07-0.94,4.8-3.22c0.88-2.75,1.77-6.26,3.22-7.88
		c2.57-2.88,3.48-6.36,5.53-9.31c0.39-0.56,0.49-1.32,0.73-1.99c0.44-0.5,0.88-0.99,1.32-1.49c0.27-0.25,0.53-0.51,0.8-0.76l-0.06,0
		c1.85,0.44,4.14-2.08,5.58,0.46c2.93,5.14,5.82,10.35,6.08,16.49c-2.68,3.25-5.35,6.5-8.03,9.76c-0.25,0.16-0.5,0.32-0.75,0.47
		c0.74,0.09,1.48,0.17,2.22,0.26c1.2,0,2.41,0,3.61,0.01c0.71,0.02,1.42,0.03,2.13,0.05c0.02,0.24,0.03,0.48,0.03,0.72
		c-4.52,0.92-9.04,0.7-13.57,0.13c-1.29-0.06-2.66-0.65-3.74,0.6c-0.95,0-1.9-0.01-2.86-0.01
		C222.2,155.09,220.84,155.1,218.97,157.22z"/>
	<path class="st10" d="M156.99,163.63c-0.24-0.96-0.48-1.93-0.73-2.89c0,0,0,0,0,0c2.06,0.79,3.63-1.64,5.71-0.85
		c5.79,2.2,11.85-1.2,17.67,0.81c0.79,0.27,1.81-0.05,2.25-0.81c0.84-1.47,2.36-1.67,4.39-2.13c-2.85-1.66-4.86-3.1-1.19-5.13
		c0.73-0.4,0.3-0.97-0.13-1.45c-0.93-1.02-0.43-2.28-0.57-3.44c0.71-0.03,1.42-0.07,2.12-0.1c2.65,2.45,1,5.66,1.5,8.49
		c0.24,1.36-0.94,3.29,1.42,3.88c0,0,0.13,0.14,0.13,0.14c-0.21,1.3-1.42,1.48-2.29,2.05C177.2,162.98,167.13,164.04,156.99,163.63z
		"/>
	<path class="st9" d="M141.12,161.47c-6.76,0.29-13.5,1.2-20.28,0.63c0.01-0.66,0.01-1.33,0.02-2c0,0,0.08-0.08,0.08-0.08
		c9.4,0.56,18.69-3.01,28.13-0.73c1.8,0.17,3.12-0.18,2.89-2.44c-0.11-1.07-0.05-2.15-0.11-3.23c-0.04-0.72-1.04-1.74,0.36-2
		c1.23-0.23,1.25,0.95,1.15,1.74c-0.41,3.03,0.24,5.59,2.9,7.39c0,0,0,0,0,0c-4.58-0.02-9.16-0.05-13.7,0.73
		C142.08,161.47,141.6,161.47,141.12,161.47z"/>
	<path class="st6" d="M187.29,162.22c0.87-0.57,2.07-0.76,2.29-2.05c9.76,1.17,19.56,0.21,29.33,0.68c0.51,0.28,1.38,0.48,1.47,0.85
		c0.2,0.89-0.83,0.7-1.23,0.73c-5.62,0.41-11.27,0.63-16.88,1.13c-4.99,0.45-9.95,1.02-14.97,0.76
		C187.29,163.62,187.29,162.92,187.29,162.22z"/>
	<path class="st9" d="M187.29,162.22c0,0.7,0,1.4,0,2.11c-5.99,0.8-11.98,1.44-18.04,1.5c-2.35,0.02-4.7,0.58-7.06,0.63
		c-2.18,0.05-4.32-0.34-5.21-2.83C167.13,164.04,177.2,162.98,187.29,162.22z"/>
	<path class="st1" d="M224.8,170.83c-0.26,0-0.51,0-0.77,0c-1.8-0.11-2.56-1.44-2.54-2.87c0.02-1.62,1.62-1.35,2.76-1.48
		c0.88-0.1,1.54-0.44,1.74-1.44c0.73-3.58,1.19-3.7,4.61-1.33c-0.01,0.69-0.02,1.39-0.04,2.08c-1.06,0.75-0.63,1.89-0.73,2.88
		c-0.05,1.32-0.93,1.49-1.98,1.43c-1.07,0.05-2.44-1.12-3.09,0.74L224.8,170.83z"/>
	<path class="st6" d="M230.57,165.79c0.01-0.7,0.02-1.39,0.04-2.08c1.75-1.38,2.46-4.28,5.57-3.72c1.21,0.22,2.57,0.43,3.11,1.46
		c0.64,1.2-0.5,2.16-1.32,2.99c-0.5,0.5-1.08,0.92-1.63,1.37C234.41,165.81,232.49,165.8,230.57,165.79z"/>
	<path class="st9" d="M242.81,173.72c1.02,2.62-0.72,3.65-2.69,4.24c-0.76,0.23-2.46,0.24-1.34-1.61c0.17-0.29,0.4-0.82,0.28-0.96
		c-4.18-4.75,1.2-2.58,2.41-3.26c2.78-1.56,0.69,1.23,1.36,1.6c-0.24,0.24-0.48,0.48-0.73,0.72c-0.6,0.3-0.72,0.84-0.72,1.44
		c-0.06,0.09-0.12,0.19-0.18,0.28c0.05-0.1,0.11-0.2,0.16-0.3c0.58-0.31,0.71-0.84,0.72-1.44
		C242.33,174.21,242.57,173.96,242.81,173.72z"/>
	<path class="st8" d="M120.86,160.1c-0.01,0.67-0.01,1.33-0.02,2c-1.63-0.01-2.93,0.81-4.22,1.66c-0.29-0.27-0.57-0.53-0.86-0.8
		c-0.76-1.66-0.44-2.75,1.57-2.86C118.51,160.04,119.68,160.1,120.86,160.1z"/>
	<path class="st12" d="M230.57,165.79c1.92,0.01,3.85,0.01,5.77,0.02c-0.09,0.88-0.02,2.42-1.21,1.94c-2.12-0.86-3.5,0.87-5.28,0.93
		C229.94,167.68,229.51,166.55,230.57,165.79z"/>
	<path class="st8" d="M218.97,157.22c1.87-2.12,3.23-2.13,5.12-0.04c-1.26,0.09-2.58-0.06-3.64,0.87
		C219.96,157.78,219.46,157.5,218.97,157.22z"/>
	<path class="st9" d="M226.95,157.19c1.08-1.25,2.45-0.66,3.74-0.6C229.7,158.46,228.37,158.14,226.95,157.19z"/>
	<path class="st12" d="M141.12,161.47c0.48,0,0.96,0,1.45,0c-0.11,0.52-0.1,1.24-0.88,1.07
		C141.43,162.48,141.31,161.84,141.12,161.47z"/>
	<path class="st3" d="M167.87,215.71c0.12-1.7-0.41-3.28-1-4.82c-1.18-3.07-1.67-6.07,0.22-9.04c1.2-0.01,2.39-0.02,3.59-0.03
		c1.88,2.46,4.11,6.34,6.59,5.93c3.52-0.58,7.14-0.21,10.55-1.19c1.64-0.47,2.86-0.37,3.6,1.2c0.92,1.96,4.77,0.4,4.42,3.77
		c-5.71-2.37-11.54-3.33-17.67-1.78C174.13,210.77,171,213.22,167.87,215.71z"/>
	<path class="st5" d="M180.77,198.24c0.74-1.68,2.25-1.43,3.65-1.44C183.18,197.23,182.49,199.04,180.77,198.24z"/>
	<path class="st5" d="M187.29,196.09c0.48,0,0.96,0,1.43,0C188.25,196.82,187.77,196.83,187.29,196.09z"/>
	<path class="st5" d="M185.09,196.81c0.25-0.24,0.51-0.48,0.76-0.72C185.59,196.33,185.34,196.57,185.09,196.81z"/>
	<path class="st3" d="M41.59,187.44c9.86,0.24,19.6,2.18,29.42,2.54c7.24,0.26,14.35,1.84,21.69,1.47c2.95-0.15,6.52,0.12,9.47,1.75
		c0.47,3.35-1.05,4.18-4.09,3.36c-2.25-0.6-4.56-1.11-6.76,0.28c-7.25,0.22-14.35-0.91-21.53-1.75c-8.11-0.94-16.25-1.76-24.37-2.72
		c-2.95-0.35-5.92-0.84-8.89-1.28c-0.15-1.7,0.67-2.32,2.32-2.25C39.97,188.9,41.36,189.21,41.59,187.44z"/>
	<path class="st2" d="M109.38,193.91c0.76-2.56,2.29-1.12,3.62-0.7C112.26,195.86,110.48,193.15,109.38,193.91z"/>
	<path class="st2" d="M105.78,193.2c0.79,0.02,1.63-0.12,2.16,0.7C106.76,195.11,106.08,194.74,105.78,193.2z"/>
	<path class="st3" d="M224.78,170.85c0.2,0.22,0.4,0.45,0.6,0.68c-0.13,0.08-0.25,0.15-0.38,0.23c-0.07-0.31-0.13-0.61-0.2-0.92
		C224.8,170.83,224.78,170.85,224.78,170.85z"/>
	<path class="st8" d="M245.04,145.2c-0.26-6.15-3.15-11.35-6.08-16.49c-1.45-2.54-3.73-0.01-5.58-0.46
		c0.04-0.46,0.08-0.93,0.12-1.39c1.43-0.26,9.72-1.58,12.25-0.06c-4.11,0.77-3.51,2.75-2,5.8c1.71,3.46,3.91,6.64,5.56,10.11
		C247.19,142.35,246.72,144.83,245.04,145.2z"/>
	<path class="st8" d="M247.09,126.8c0.07-0.19,15.21,0.03,18.08,0.08C259.14,127.99,253.11,128.11,247.09,126.8z"/>
	<path class="st1" d="M238.48,155.69c-0.74-0.09-1.48-0.17-2.22-0.26c0.25-0.16,0.5-0.32,0.75-0.47
		C237.6,154.99,238.17,155.1,238.48,155.69z"/>
	<path class="st3" d="M137.56,222.14c-2.07,0.71-4.17,1.37-5,3.73c-0.53-1.21-2.87-1.47-1.99-3.36c0.71-1.52,2.42-1.97,3.85-2.39
		C135.91,219.69,137.22,220.35,137.56,222.14z"/>
	<path class="st8" d="M177.85,213.98c1.41,4.17,1.39,4.24-3.16,9.55c-0.71-2.28-1.37-4.36-2.06-6.54c2.06,0.08,1.06,2.26,2.62,2.72
		C176.06,217.93,176.89,216.11,177.85,213.98z"/>
	<path class="st8" d="M205.76,223.43c-0.38-1.92-0.8-3.61-1.03-5.32c-0.24-1.77,1.08-2.33,2.44-2.32c1.27,0.01,2.1,1.13,1.43,2.22
		c-1.05,1.72,0.61,2.84,0.7,4.35C206.99,221.34,206.99,221.34,205.76,223.43z"/>
	<path class="st7" d="M197.84,224.94c-1.73-0.75,0.54-4.61-2.92-2.62c-0.12-0.42-0.4-0.88-0.33-1.27c0.25-1.48,0.61-2.93,0.99-4.64
		c1.53,0.9-0.36,2.49,1.07,3.11c1.36-0.33,0.23-2.4,1.97-2.69C199.33,219.57,197.84,221.99,197.84,224.94z"/>
	<path class="st7" d="M203.83,217.41c-2.54,2.13-1.58,4.53-1.35,6.74c0.05,0.49,0.76,0.95-0.05,1.32c-0.38,0.18-1.15,0.22-1.34-0.01
		c-1.67-1.96-0.7-4.31-0.7-6.47C200.39,217.12,201.79,216.73,203.83,217.41z"/>
	<path class="st7" d="M180.86,217.77c0.72-1.58-0.02-4.74,2.05-4.5c1.79,0.21,1.49,3.24,1.45,5.2
		C183.14,218.49,181.94,218.43,180.86,217.77z"/>
	<path class="st7" d="M187.44,212.78c1.1,3.1-1.77,6.35,1.33,8.86C185.3,221.78,184.94,219.04,187.44,212.78z"/>
	<path class="st8" d="M180.86,217.77c1.08,0.66,2.28,0.72,3.49,0.7c0,0.8,0,1.61,0,3c-1.48-1.71-2.83-3.5-3.49,0.28
		C179.68,219.91,180.86,218.9,180.86,217.77z"/>
	<path class="st4" d="M36.54,108.09c0.15-1.92-0.93-3.85,0-5.77c3.25,2.39,7.81,1.13,11.11,4.05c0.86-1.23-0.19-3.87,2.16-3.88
		c2.38-0.01,2.81,2.74,2.91,3.93c0.42,5.15,3.22,8.64,6.6,12.12c2.82,2.9,8.63,3.59,11.57,0.77c0.53-0.5,0.91-1.09,1.7-1.12
		c1.81,3.44,3.17,7.07,4.35,10.77c-0.9,2.61-2.54,3.61-5.25,2.53c-0.5-0.2-1.19-0.2-1.72-0.04c-3.99,1.22-6.64-0.7-8.8-3.72
		c-0.62-0.87-1.33-2.44-2.21-1.98c-1.91,0.99-1.83-0.52-2.36-1.36c-1.35-2.14-2.01-4.56-2.67-6.96c-0.36-1.32-0.98-2.87-2.48-2.51
		c-1.84,0.45-1,2.04-0.6,3.27c0.07,0.22,0.07,0.47,0.11,0.71c-2.59-3.14-6.37-4.51-9.73-6.5c-0.2-0.12-0.34-0.33-0.51-0.49
		c-1.18-1.07-2.53-1.75-4.17-1.68C36.55,109.53,36.55,108.81,36.54,108.09z"/>
	<path class="st2" d="M72.6,118.2c-0.8,0.04-1.18,0.62-1.7,1.12c-2.94,2.82-8.75,2.13-11.57-0.77c-3.38-3.48-6.18-6.97-6.6-12.12
		c-0.1-1.19-0.54-3.95-2.91-3.93c-2.36,0.01-1.3,2.66-2.16,3.88c-3.3-2.92-7.86-1.66-11.11-4.05c-0.97-1.93-0.18-3.85,0.02-5.78
		c1.07,0.08,2.16,0.03,3.2,0.25c7.09,1.46,9.72-0.09,11.84-7.38c1.48,2.55,0.71,5.03,0.75,7.35c0.14,6.61,7.05,13.35,13.62,13.59
		c2.58,0.09,2.41-2.88,4.45-2.98C71.71,110.87,72,114.57,72.6,118.2z"/>
	<path class="st5" d="M36.54,108.09c0,0.72,0.01,1.44,0.01,2.16c0.24,3.05,0.89,6.21,3.45,7.96c4.43,3.03,8.53,6.4,12.43,10.05
		c0.49,0.46,0.98,0.83,1.54,0.48c0.76-0.49,0.58-1.25,0.14-1.88c-1.68-2.4-2.08-5.3-3.15-7.94c-0.03-0.24-0.03-0.48-0.11-0.71
		c-0.4-1.23-1.24-2.82,0.6-3.27c1.49-0.36,2.11,1.18,2.48,2.51c0.66,2.41,1.32,4.82,2.67,6.96c0.53,0.84,0.45,2.35,2.36,1.36
		c0.88-0.45,1.58,1.12,2.21,1.98c2.17,3.02,4.81,4.94,8.8,3.72c0.53-0.16,1.22-0.16,1.72,0.04c2.71,1.08,4.35,0.08,5.25-2.53
		c1.5,1.38,2.1,3.29,2.9,5.07c-5.95,0.3-11.9,0.13-17.87,0.53c-6.29,0.41-12.91,0.05-17.76-5.37c-1.08-1.2-2.64-1.88-4.65-2.18
		c0.75,2.33,1.39,4.33,2.02,6.32c-0.25,0.25-0.5,0.49-0.75,0.74c-2.14-2.88-3.06-6.21-3.58-9.68c-0.17-1.12,0.38-2.4-0.74-3.31
		c0.01-0.96,0.01-1.93,0.02-2.89c-0.01-0.8,0.14-1.65-0.71-2.17c0-0.72-0.01-1.44-0.01-2.16c0-0.73-0.01-1.45-0.01-2.18
		c0-1.2,0-2.39,0-3.59C36.04,108.1,36.29,108.1,36.54,108.09z M60.22,129.8c-0.13-0.63-0.47-1.14-1.12-1.21
		c-0.68-0.08-0.77,0.44-0.59,0.94c0.2,0.54,0.37,1.22,1.06,1.28C60.23,130.86,60.23,130.29,60.22,129.8z"/>
	<path class="st9" d="M41.59,133.34c-0.64-2-1.28-3.99-2.02-6.32c2.02,0.29,3.58,0.98,4.65,2.18c4.85,5.41,11.48,5.78,17.76,5.37
		c5.97-0.39,11.92-0.23,17.87-0.53c3.04,0.48,6.07,1.01,9.11,1.4c0.79,0.1,1.89,0.47,1.91-1.24c0.02-1.65,1.53-1.49,2.73-1.5
		c3.21,1.75,6.81,2.87,10.24,2.06c3.71-0.87,7.71-0.17,11.18-2.14c0,0,0.18-0.01,0.18-0.01c-0.5,0.96-0.99,1.93-1.49,2.89
		c-2.7-1.32-4.32,1.76-6.99,1.58c-5.8-0.41-11.65-0.08-17.48-0.15c-3.94-0.05-8-0.71-11.78-0.45c-9.63,0.67-19.08-1.45-28.63-0.9
		C45.99,135.74,43.36,136.2,41.59,133.34z"/>
	<path class="st7" d="M115.02,132.62c-3.46,1.98-7.46,1.28-11.18,2.14c-3.43,0.8-7.04-0.32-10.24-2.06
		c6.85-1.62,13.74-2.83,20.83-2.23c0.31,0.56,0.82,0.74,1.42,0.72C115.57,131.66,115.3,132.14,115.02,132.62z"/>
	<path class="st4" d="M81.98,48.24c0.24,0.96,0.48,1.92,0.72,2.88c-1.21,0.72-2.87,0.97-2.9,2.88c-4.67-2.14-9.97-1.59-14.79-3.07
		c0-0.33,0-0.65,0-0.98C70.67,49.37,76.33,48.8,81.98,48.24z"/>
	<path class="st4" d="M115.85,131.19c-0.61,0.02-1.11-0.15-1.42-0.72c1.45-0.95,1.21-3.59,3.6-3.61c0.25,0.48,0.5,0.96,0.75,1.44
		c-0.96,0.4-1.45,1.12-1.45,2.17C116.84,130.7,116.34,130.94,115.85,131.19z"/>
	<path class="st4" d="M120.21,123.97c0.01,0.59,0.13,1.12,0.71,1.43c-0.25,1.91-1.72,1.34-2.87,1.42c-0.12-1.24,0.16-2.29,1.4-2.87
		C119.7,123.96,119.96,123.97,120.21,123.97z"/>
	<path class="st12" d="M120.21,123.97c-0.26-0.01-0.51-0.01-0.77-0.02c0.06-1.97,0.92-3.6,2.18-5.06c0.25,0,0.5,0.01,0.76,0.01
		C122.15,120.8,120.9,122.27,120.21,123.97z"/>
	<path class="st12" d="M125.97,108.03c-0.11,1.59,0.59,3.44-1.44,4.4C125.02,110.97,124.93,109.32,125.97,108.03z"/>
	<path class="st12" d="M123.86,114.57c-0.19,1.13,0.44,2.68-1.5,2.92C122.49,116.33,122.85,115.29,123.86,114.57z"/>
	<path class="st4" d="M122.38,118.9c-0.25,0-0.5-0.01-0.76-0.01c0.24-0.25,0.48-0.5,0.73-0.76
		C122.36,118.39,122.37,118.65,122.38,118.9z"/>
	<path class="st3" d="M156.26,160.74c-2.66-1.8-3.31-4.36-2.9-7.39c0.1-0.78,0.08-1.96-1.15-1.74c-1.4,0.26-0.4,1.28-0.36,2
		c0.06,1.07,0.01,2.16,0.11,3.23c0.23,2.27-1.1,2.62-2.89,2.44c0-0.72,0-1.43-0.01-2.15c1.2-2,1.25-4.07-1.44-4.2
		c-4.77-0.23-9.58-0.08-14.38,0.11c-7.05,0.27-14.49,2.79-20.96-2.41c0.74-2.35-1.6-5.31,1.42-7.22c0.43,3.64,3.71,6.01,7.18,5.48
		c4.33-0.65,8.57-1.42,13.12-0.6c5.41,0.98,10.93-1.08,16.46-0.55c3.05,1.65,5.81-0.15,8.68-0.71c8.38,1.6,16.83,0.49,25.24,0.7
		c0.13,1.16-0.36,2.42,0.57,3.44c0.43,0.47,0.86,1.04,0.13,1.45c-3.67,2.03-1.65,3.47,1.19,5.13c-2.03,0.45-3.56,0.66-4.39,2.13
		c-0.43,0.76-1.46,1.08-2.25,0.81c-5.83-2.01-11.88,1.39-17.67-0.81C159.89,159.11,158.32,161.53,156.26,160.74z"/>
	<path class="st3" d="M185.11,136.17c0.02,5.5-0.22,5.7-5.88,5.83c-8.43,0.19-16.86,0.42-25.29,0.64c-2.03,0.05-3.2-0.6-1.98-2.73
		c0.85-1.48,0.47-3.72,2.63-4.41c2.79,0.85,5.68,0.59,8.52,0.64c1.56,0.03,3.31,0.7,4.7-0.68c1.17,0.77,2.49,0.66,3.79,0.67
		C176.1,136.14,180.61,136.15,185.11,136.17z"/>
	<path class="st7" d="M207.64,126.12c-2.95,4.03-7.58,5.98-11.36,8.98c-1.55,1.23-3.18,2.39-4.73,3.65
		c-0.89,0.73-1.8,1.94-3.03,1.44c-0.96-0.4-0.3-1.73-0.54-2.61c-0.15-0.54-0.49-1.03-0.74-1.55c0.04-0.75,0.11-1.51-0.67-1.98
		C186.97,132.01,206.14,126.11,207.64,126.12z"/>
	<path class="st1" d="M233.49,126.86c-0.04,0.46-0.08,0.93-0.12,1.39c0,0,0.06,0,0.06,0c-0.27,0.25-0.53,0.51-0.8,0.76
		c-0.44,0.5-0.88,0.99-1.32,1.49c-0.68-0.91-1.69-0.81-2.62-0.75c-5.36,0.34-10.64-1.2-16.01-0.75c-1.56,0.13-2.89-0.22-3.04-2.16
		C210.24,126.83,231.8,126.36,233.49,126.86z"/>
	<path class="st7" d="M184.4,147.76c-8.42-0.21-16.87,0.89-25.24-0.7c0.01-0.46,0.02-0.92,0.02-1.38c9.28-0.16,18.58,0.23,27.8-1.24
		c1.7-0.27,2.69,0.58,3.29,2.06c-1.47-0.32-2.67,0.2-3.74,1.16C185.81,147.69,185.1,147.72,184.4,147.76z"/>
	<path class="st8" d="M167.12,131.93c1.68-0.02,3.35-0.04,5.03-0.06c3.47-0.28,6.8,0.37,10.07,1.45c1.34,0.86,2.85,0.73,4.34,0.73
		c0.78,0.47,0.71,1.23,0.67,1.98c-0.71,0.04-1.41,0.09-2.12,0.13c-4.5-0.02-9.01-0.03-13.51-0.05c-1.3-0.01-2.62,0.1-3.79-0.67
		C167.58,134.28,167.35,133.11,167.12,131.93z"/>
	<path class="st7" d="M167.12,131.93c0.23,1.17,0.46,2.35,0.69,3.52c-1.39,1.38-3.14,0.71-4.7,0.68c-2.84-0.05-5.73,0.21-8.52-0.64
		c0.52-1.81,0.06-4.33,3.11-4.32C160.89,130.77,163.96,131.93,167.12,131.93z"/>
	<path class="st3" d="M186.52,147.66c1.07-0.96,2.28-1.48,3.74-1.16c-1.08,4.46-0.78,9-0.82,13.53c-2.37-0.59-1.18-2.52-1.42-3.88
		C187.52,153.32,189.17,150.11,186.52,147.66z"/>
	<path class="st8" d="M200.95,153.01c1.11,2.39,3.45,0.5,5.12,1.54c-1.06,0.99-2.79-0.14-3.64,1.15c-2.4-0.02-4.79-0.04-7.19-0.06
		c-0.23-0.9-0.46-1.8-0.69-2.7C196.68,152.97,198.81,152.99,200.95,153.01z"/>
	<path class="st6" d="M159.17,145.67c-0.01,0.46-0.02,0.92-0.02,1.38c-2.87,0.56-5.63,2.35-8.68,0.71
		c-0.14-1.72,0.74-2.26,2.35-2.18C154.93,145.69,157.06,145.65,159.17,145.67z"/>
	<path class="st7" d="M194.54,152.95c0.23,0.9,0.46,1.8,0.69,2.7c-0.12,0.01-0.24,0.05-0.35,0.03c-1.51-0.27-4.04,0.99-4.27-0.97
		C190.41,153.05,193.07,153.34,194.54,152.95z"/>
	<path class="st3" d="M113.7,140.57c-0.96-0.19-2.49,0.46-2.65-0.97c-0.19-1.64,1.11-2.43,2.67-2.66
		C113.7,138.15,113.7,139.36,113.7,140.57z"/>
	<path class="st3" d="M113.71,135.5c0.5-0.96,0.99-1.93,1.49-2.89c1.63,1.49,1.26,2.41-1.46,3.63
		C113.73,135.99,113.72,135.74,113.71,135.5z"/>
	<path class="st3" d="M117.33,130.46c0-1.05,0.48-1.77,1.45-2.17C120.02,130.17,118.41,130.13,117.33,130.46z"/>
	<path class="st4" d="M128.86,110.27c0.1-1-0.34-2.14,0.74-2.9C129.48,108.37,129.92,109.51,128.86,110.27z"/>
	<path class="st4" d="M127.42,114.59c0.02-0.8-0.12-1.65,0.72-2.17C128.12,113.22,128.27,114.07,127.42,114.59z"/>
	<path class="st4" d="M112.28,150.64c6.46,5.19,13.9,2.67,20.96,2.41c4.8-0.18,9.6-0.33,14.38-0.11c2.69,0.13,2.64,2.2,1.44,4.2
		c-1.9-1.94-4.21-2.47-6.85-2.18c-3.19,0.35-6.39,0.61-9.59,0.83c-7.16,0.51-14.33,1.08-21.07-2.26c0-0.48,0-0.96,0-1.44
		C111.79,151.61,112.04,151.13,112.28,150.64z"/>
	<path class="st9" d="M111.55,152.09c0,0.48,0,0.96,0,1.44c-0.08,2.25,1,3.17,3.17,3.96c2.07,0.75,4.86,0,6.22,2.52
		c0,0-0.08,0.08-0.08,0.08c-1.18,0-2.35-0.06-3.52,0c-2.01,0.1-2.33,1.2-1.57,2.86c-4.77-0.13-8.06-5.86-5.78-10.16
		C110.2,152.4,111.02,152.32,111.55,152.09z"/>
	<path class="st8" d="M232.63,129.01c0.27-0.25,0.53-0.51,0.8-0.76C233.17,128.5,232.9,128.75,232.63,129.01z"/>
	<path class="st12" d="M120.94,160.01c-1.36-2.51-4.15-1.77-6.22-2.52c-2.17-0.79-3.25-1.72-3.17-3.96
		c6.75,3.33,13.92,2.76,21.07,2.26c3.2-0.23,6.4-0.49,9.59-0.83c2.64-0.29,4.95,0.24,6.85,2.18c0,0.72,0,1.43,0.01,2.15
		C139.63,157.01,130.34,160.57,120.94,160.01z"/>
	<path class="st3" d="M242.09,174.45c-0.01,0.6-0.14,1.13-0.72,1.44l0.01,0.01C241.38,175.3,241.51,174.76,242.09,174.45
		L242.09,174.45z"/>
	<path class="st3" d="M241.37,175.89c-0.05,0.1-0.11,0.2-0.16,0.3c0.06-0.09,0.12-0.19,0.18-0.28
		C241.38,175.9,241.37,175.89,241.37,175.89z"/>
	<path class="st3" d="M242.1,174.46c0.24-0.24,0.48-0.48,0.73-0.72c0,0-0.02-0.01-0.02-0.02
		C242.57,173.96,242.33,174.21,242.1,174.46C242.09,174.45,242.1,174.46,242.1,174.46z"/>
	<path class="st12" d="M50.97,118.91c1.06,2.64,1.47,5.54,3.15,7.94c0.44,0.63,0.62,1.4-0.14,1.88c-0.56,0.36-1.05-0.02-1.54-0.48
		c-3.9-3.65-8-7.02-12.43-10.05c-2.55-1.75-3.2-4.9-3.45-7.96c1.64-0.07,2.99,0.61,4.17,1.68c0.18,0.16,0.32,0.37,0.51,0.49
		C44.6,114.4,48.37,115.77,50.97,118.91z"/>
	<path class="st4" d="M60.22,129.8c0.01,0.48,0.01,1.06-0.65,1c-0.69-0.06-0.86-0.74-1.06-1.28c-0.18-0.49-0.1-1.01,0.59-0.94
		C59.75,128.67,60.09,129.17,60.22,129.8z"/>
	<g id="Base_1_">
		<path class="st13" d="M0,0v300h300V0H0z M292.5,292.5H7.5V7.5h285V292.5z"/>
	</g>
</g>
</svg>
