<?xml version="1.0" encoding="utf-8"?>
<!-- Generator: Adobe Illustrator 23.0.1, SVG Export Plug-In . SVG Version: 6.00 Build 0)  -->
<svg version="1.1" xmlns="http://www.w3.org/2000/svg" xmlns:xlink="http://www.w3.org/1999/xlink" x="0px" y="0px"
	 viewBox="0 0 300 300" style="enable-background:new 0 0 300 300;" xml:space="preserve">
<style type="text/css">
	.st0{fill:#424242;}
	.st1{fill:#9E9E9E;}
	.st2{fill:#0F0F0E;}
	.st3{fill:#222322;}
	.st4{fill:#6E6962;}
	.st5{fill:#ACA79F;}
	.st6{fill:#98938B;}
	.st7{fill:#817B73;}
	.st8{fill:#3B3834;}
	.st9{fill:#2D2D2D;}
	.st10{fill:#141311;}
	.st11{fill:#161616;}
	.st12{fill:#070707;}
	.st13{fill:#1E1C19;}
	.st14{fill:#050505;}
	.st15{fill:#0B0B0B;}
</style>
<g id="background">
	<rect x="4" y="4" class="st0" width="291" height="291"/>
</g>
<g id="Layer_1">
	<g id="Base_1_">
		<path class="st1" d="M0,0v300h300V0H0z M292.5,292.5H7.5V7.5h285V292.5z"/>
	</g>
	<path class="st2" d="M45.94,237.1c3.42,0,3.42,5.13,6.85,5.13c0.21,0.21-1.71,3.64-1.5,3.85c0.19,0.33,0.38,0.94,0.58,0.95
		c0.8,0.03,1.18-0.88,1.06-1.27c-0.36-1.23-0.43-2.66-1.63-3.52c-0.22-0.21-0.44-0.43-0.66-0.64c0.14-1.57-0.14-2.73-2.16-2.58
		C45.69,239.22,48.62,237.66,45.94,237.1c-0.51-0.28-0.84-2.9-0.86-3.42c-0.43-3.42-1.28-4.28-1.71-7.7
		c0.52-4.61-3.06-16.12-2.57-17.97c0.71-0.52-4.89-31.89-6.84-36.79c-0.12-0.29-14.75-74.44-15.4-79.57
		c-0.17-1.31,7.53-1.88,11.12-2.57c2.18,0.26,12.84,53.96,11.12,56.47c0.47,0.2,0.39,0.23,0.86,0.43c0,0.64,0,1.28,0,1.93
		c-2.67,1.57,0.19,1.77,0.64,2.57c0.02,0.71-0.11,1.46,0.64,1.93c0.1,1.51-1.26,3.24,0.65,4.49c-0.1,0.3-0.11,0.78-0.3,0.87
		c-2.6,1.18-2.55,2.12,0.05,3.33c0.87,0.4,2.1,1.72,0.71,2.72c-1.75,1.26-0.96,1.6,0.31,2.32c0.59,0.33,1.11,1.99,0.54,1.79
		c-1.76-0.62-1.88-0.18-2,1.39c-0.17,2.1,1.61,1.02,2.38,1.58c-2.4,2.22-2.35,2.93,0.25,4.78c0.32,0.23,1.8,7.05,1.55,7.37
		c-0.19,0.23-0.5,0.36-0.73,0.56c-0.47,0.42-1.07-1.21-1.37,0.05c-0.16,0.68,0.54,1.03,1.09,1.41c2.19,1.5,2.3,1.69,0.69,2.83
		c-2.28,1.61,3.4,2.13,0.39,3.65c-0.1,0.05-0.2,0.07-0.29,0.13c-1.07,0.66-0.71,1.9-0.13,2.13c3.73,1.51,0.31,5.42,2.58,7.35
		c0.06,0.05-0.12,0.58-0.32,0.72c-1.66,1.21-1.68,1.21-0.21,2.66c0.53,0.53,1.25,1.09,0.92,1.84c-0.8,1.82-0.9,1.8,0.37,3.65
		c0.32,0.47,0.73,1.09,0.37,1.43c-2.12,2,0.27,3.06,0.84,4.49c-0.18,1.76-1.05,2.14-2.55,1.3c-0.54,0.07-1.35,0.3-1.13,0.82
		c1,2.37,0.05,4.78,0.32,7.17c0.23,2.03,0.85,2.64,2.71,2.26c-0.73,2.52-1.74,5.07,1.31,6.91c0.57,0.34,0.84,1.15,0.32,1.64
		c-3.08,2.95,0.9,2.09,1.58,3c1.62,2.38,4.47,0.66,6.43,1.93c0,0.42,0,0.84,0,1.27c0,0.53,0.11,1.01,0.62,1.3
		c0.46,6.44,0.46,6.44,6.83,6.42c0.53,0,1.07-0.02,1.6,0c5.32,0.23,9.77-1.71,11.72-6.7c2.04-5.22,5.24-9.13,9.71-12.25
		c0.85-0.59,1.49-1.48,2.23-2.23c1.38,0.05,1.45-1.63,2.57-1.93c1.53-0.17,2.37-1.04,2.59-2.55c6.59-3.55,12.47-8.11,18.37-12.68
		c7.06-5.46,14.35-10.62,21.53-15.92c6.4-4.73,12.79-9.46,19.17-14.22c5.27-3.93,10.54-7.86,15.76-11.86
		c4.42-3.39,8.49-7.26,13.68-9.54c0,0.46-0.01,0.91-0.01,1.37c-0.2,0.2-0.4,0.4-0.61,0.6l0.01-0.01C170.81,172.79,131,204,131,204
		c-0.22,0.22-33.04,23.66-34.15,24.76c-1.67,1.34-14.6,15.58-15.09,16.82c-1.45,3.64-3.99,5.61-7.95,5.66
		c-0.75-0.87-1.77-0.82-2.65-0.51c-2.4,0.83-4.85,0.33-7.27,0.49c-1.8,0.12-2.9-0.56-3.69-2.31c-1.55-3.46-2.83-3.77-5.75-1.39
		c-1.46,1.18-2.63,1.46-4.25,0.45c-1.01-0.62-2.22-1.61-3.46-0.64c-1.25,0.98,0.13,2.15,0.07,3.25"/>
	<path class="st3" d="M46.8,250.58c0.07-1.1-1.32-2.27-0.07-3.25c1.24-0.97,2.45,0.02,3.46,0.64c1.63,1.01,2.8,0.73,4.25-0.45
		c2.92-2.38,4.2-2.07,5.75,1.39c0.78,1.75,1.89,2.43,3.69,2.31c2.42-0.16,4.88,0.34,7.27-0.49c0.89-0.31,1.9-0.35,2.65,0.51
		c-7.04,1.51-14.08,2.33-21.15,0.11C50.76,250.75,48.61,251.91,46.8,250.58z"/>
	<path class="st4" d="M282.87,69.65c1.14,3.18,0.66,6.55,1.13,9.81c-1.43,0.32-2.86,0.64-4.29,0.96c-0.89-0.04-1.38,0.44-1.61,1.26
		c-2.89,0.57-5.49,2.17-8.48,2.36c-1.19-0.46-2.26-0.11-3.38,0.37c-4.65,1.96-9.63,2.76-14.55,2.48c-6.3-0.36-12.6-0.42-18.87-0.23
		c-2.43,0.07-5.31-0.62-7.58,1.22c-0.46-0.01-0.92-0.02-1.38-0.02c-0.75-1.46-1.03-0.51-1.34,0.26c-2.75,0-5.49,0.01-8.24,0.01
		c-3.54-1.28-7.31-0.22-10.91-1.12c-1.52-0.38-3.19-0.74-4.69-0.47c-5.76,1.02-11.58,0.44-17.36,0.95
		c-8.58,0.75-17.2-0.46-25.83-0.03c-8.55,0.43-17.15,0.13-25.72,0.14c-7.23,0.02-14.46,0.02-21.68,0.07c-1.09,0.01-2.44-0.51-3,1.07
		c-0.36,0-0.72,0-1.08,0c-0.92-1.61-1.85-1.62-2.77,0c-1.43,0.01-2.87,0.01-4.3,0.02c-1.77-1.86-3.54-1.88-5.32,0
		c-5.1-0.01-10.21-0.03-15.31-0.04c-0.27-0.15-0.55-0.43-0.82-0.43c-7.12-0.03-14.24-0.04-21.36-0.06c-0.84,0-1.44,0.29-1.67,1.14
		c-1.21-0.06-2.43-0.12-3.64-0.18c-2.17-2.06-4.82-0.72-7.24-0.92c-1.71-0.14-2.5-0.52-2.46-2.39c0.13-5.87,0.13-11.73,0.18-17.6
		c1.82,0.8,3.72,0.86,5.64,0.57c3.02-0.47,6.06-0.32,9,0.22c3.25,0.59,6.52,0.5,9.67,0.21c1.64-0.16,2.61,1.79,3.59,0.89
		c2.21-2.02,4.6-1.04,6.94-0.95c3.26,0.13,6.52,0.36,9.78,0.66c4.6,0.42,9.07-1.84,13.84-1.16c1.63,0.23,3.08-0.08,3.82,1.82
		c0.31,0.79,1.06,1.18,1.78,0.45c2.54-2.57,5.22-2.13,8-0.51c0.23,0.13,0.64,0.41,0.67,0.38c1.8-2.25,3.79-1.23,6.13-0.92
		c4.28,0.58,8.56-1.42,13.04-0.58c1.91,0.36,4.13,0.46,6.11-0.41c0.62,0.22,1.24,0.43,1.86,0.65c3.69,1.64,7.67,0.8,11.43,0.81
		c3.54,0.01,7.22,0.45,10.8-0.56c3.16-0.89,6.64,1.88,9.74-0.72c0.13-0.11,0.64,0.09,0.88,0.27c1.43,1.08,3.31,0.59,4.64,1.08
		c2.57,0.95,4.33-1.35,6.43-0.84c5.19,1.27,10.51,0.3,15.71,1.16c0.97,0.16,1.89-0.13,2.83-0.23c4.55-0.49,9.07-1.53,13.57,0.72
		c3.48,1.74,7.52,1.91,11.12,0.94c4.22-1.13,8.08-1.22,11.88,0.83c0.91,0.49,1.8,0.83,2.12-0.05c1.18-3.21,3.27-1.96,5.52-1.64
		c2.7,0.39,5.5,0.47,8.23,0.62c1.83,0.1,3.79-1.79,4.81-0.53c1.72,2.13,3.54,1.13,4.85,0.5c3.13-1.5,5.95-1.08,8.94,0.1
		c0.95,0.37,2.33,1.33,3,0.57C277.65,70.37,280.67,71.08,282.87,69.65z"/>
	<path class="st5" d="M39.74,56.2c29.29-0.03,58.58-0.08,87.87-0.09c48.64-0.02,97.28-0.01,145.92-0.01c5.83,0,7.67,1.78,8,7.72
		c-1.97-0.14-3.84-0.26-5.86,0.47c-1.65,0.6-3.62,0.58-5.56-0.27c-2.33-1.01-5.13-0.53-7.01,0.8c-1.39,0.99-2.43,0.96-3.65,0.66
		c-1.06-0.26-2.09-0.3-3.16-0.37c-5.16-0.35-10.4,0.33-15.48-0.91c-4.53-1.1-8.99,0.57-13.59-0.27c-3.85-0.71-8.02,1.51-11.97-0.6
		c-0.36-0.19-1.28-0.03-1.47,0.26c-1.27,2.04-3.05,0.92-4.57,0.73c-1.25-0.15-2.3-0.16-3.59,0.08c-1.43,0.27-3.39,1.68-4.73,0.02
		c-1.28-1.59-3.07-1.65-4.34-1.11c-3.39,1.42-6.72,1-10.09,0.45c-3.96-0.65-8.16,1.55-11.98-1c-0.23-0.16-0.79,0.23-1.21,0.28
		c-6.51,0.78-13.09,0.48-19.58,0.2c-2.86-0.12-5.57-0.86-8.35,0.34c-0.7,0.3-1.35,0.26-2.09-0.2c-1.77-1.1-3.78-0.54-5.08,0.52
		c-0.96,0.78-1.24,0.53-2.22,0.41c-3.14-0.39-6.18-1.26-9.46-1.3c-2.12-0.03-2.91,2.94-5.63,1.27c-1.64-1.01-4.63-0.87-7.03-1.07
		c-2.5-0.21-5.35,0.52-7.44-0.47c-2.59-1.22-3.89,0.87-5.82,0.99c-0.21,0.01-0.51,0.13-0.63,0.03c-2.67-2.24-5.48,0.67-8.41-0.23
		c-1.47-0.45-2.96,0.26-2.75-2.73c-0.71,1.09-1.03,1.9-1.26,1.88c-2.5-0.25-5.08,2.49-7.52-0.24c-0.72-0.81-2.37-0.5-2.61-0.18
		c-1.6,2.13-4.27-0.76-5.81,1.39c-0.24,0.34-0.98-0.29-1.01-0.88c-0.06-1.04-0.84-0.75-1.43-1.05c-3.34-1.7-7.43,1.62-10.48-1.62
		c-0.1-0.11-0.68,0.03-0.87,0.22c-2.06,2.04-5.02-0.32-7.15,1.45c-0.14,0.11-1-0.27-1.03-0.48c-0.32-2.37-2.31-1.5-3.6-2.1
		c-2.44-1.14-4.15,1.48-6.35,0.78c-0.05-0.39-0.1-0.78-0.15-1.18C39.6,57.96,39.67,57.08,39.74,56.2z"/>
	<path class="st6" d="M39.68,60.02c2.2,0.7,3.91-1.92,6.35-0.78c1.29,0.6,3.28-0.28,3.6,2.1c0.03,0.22,0.9,0.6,1.03,0.48
		c2.13-1.76,5.09,0.6,7.15-1.45c0.19-0.19,0.76-0.33,0.87-0.22c3.06,3.24,7.14-0.08,10.48,1.62c0.59,0.3,1.37,0.01,1.43,1.05
		c0.03,0.59,0.77,1.22,1.01,0.88c1.54-2.15,4.22,0.74,5.81-1.39c0.24-0.32,1.89-0.63,2.61,0.18c2.44,2.73,5.02-0.01,7.52,0.24
		c0.23,0.02,0.55-0.79,1.26-1.88c-0.21,2.99,1.27,2.28,2.75,2.73c2.94,0.9,5.74-2.01,8.41,0.23c0.12,0.1,0.41-0.01,0.63-0.03
		c1.93-0.12,3.23-2.21,5.82-0.99c2.08,0.98,4.94,0.26,7.44,0.47c2.4,0.2,5.39,0.06,7.03,1.07c2.72,1.67,3.51-1.3,5.63-1.27
		c3.28,0.04,6.32,0.91,9.46,1.3c0.98,0.12,1.26,0.38,2.22-0.41c1.3-1.06,3.31-1.62,5.08-0.52c0.74,0.46,1.4,0.5,2.09,0.2
		c2.78-1.19,5.49-0.46,8.35-0.34c6.49,0.27,13.06,0.57,19.58-0.2c0.42-0.05,0.98-0.44,1.21-0.28c3.82,2.55,8.01,0.35,11.98,1
		c3.37,0.55,6.7,0.96,10.09-0.45c1.27-0.53,3.06-0.48,4.34,1.11c1.34,1.66,3.3,0.25,4.73-0.02c1.29-0.24,2.34-0.23,3.59-0.08
		c1.52,0.18,3.3,1.3,4.57-0.73c0.18-0.29,1.11-0.45,1.47-0.26c3.95,2.11,8.12-0.11,11.97,0.6c4.6,0.84,9.06-0.83,13.59,0.27
		c5.07,1.24,10.32,0.56,15.48,0.91c1.06,0.07,2.1,0.11,3.16,0.37c1.22,0.3,2.26,0.33,3.65-0.66c1.88-1.33,4.68-1.82,7.01-0.8
		c1.94,0.85,3.91,0.87,5.56,0.27c2.02-0.73,3.89-0.61,5.86-0.47c0.32,1.07,0.64,2.14,0.96,3.21c-6.57-0.34-13.08,1.14-19.66,0.65
		c-1.36-0.1-2.89-0.66-4.05-0.23c-3.38,1.26-6.74,0.24-10.06,0.16c-2.75-0.07-5.45-0.23-8.12,0.42c-1.17,0.28-2.3,0.35-3.47,0.12
		c-3.08-0.61-6.38-1.02-9.33-0.79c-7.64,0.58-15.31-0.18-22.94,0.87c-2.58,0.36-4.98-1.47-7.77-1.28c-2.28,0.15-4.66,1.92-6.33,1.29
		c-3.82-1.45-7.49-0.23-11.2-0.53c-4.28-0.35-8.58,0-12.87-0.11c-4.13-0.11-8.34-0.18-12.5-0.17c-4.61,0.02-9.19,0.55-13.78,0.48
		c-1.45-0.02-1.13,0.91-1.26,1.69c-0.62-0.22-1.24-0.43-1.86-0.65c-0.01-1.24-0.24-2.05-1.87-1.66c-1.31,0.31-2.74,0.35-4.09,0.24
		c-4.59-0.37-9.16-0.76-13.8-0.75c-2.44,0.01-4.92,1.18-7.1,0.51c-4.66-1.44-9.34-0.4-13.96-0.9c-3.2-0.35-6.15,1.63-9.43,0.66
		c-1.65-0.49-3.24-1.23-5.23-0.77c-3.66,0.85-7.59-0.22-11.23,1.29c-0.83,0.34-1.68,0.04-2.38-0.56c-0.72-0.61-1.63-0.8-2.4-0.38
		c-1.94,1.04-4.19,0.6-6.05,0.59c-6.79-0.02-13.59-0.17-20.39-0.18C38.9,64.66,39.84,62.36,39.68,60.02z"/>
	<path class="st7" d="M139.17,69.59c0.13-0.77-0.19-1.71,1.26-1.69c4.6,0.07,9.17-0.46,13.78-0.48c4.15-0.01,8.36,0.06,12.5,0.17
		c4.29,0.11,8.59-0.24,12.87,0.11c3.7,0.3,7.37-0.92,11.2,0.53c1.67,0.63,4.05-1.13,6.33-1.29c2.79-0.19,5.19,1.64,7.77,1.28
		c7.62-1.05,15.29-0.29,22.94-0.87c2.95-0.23,6.24,0.18,9.33,0.79c1.17,0.23,2.3,0.17,3.47-0.12c2.67-0.65,5.37-0.49,8.12-0.42
		c3.32,0.08,6.68,1.1,10.06-0.16c1.16-0.43,2.69,0.13,4.05,0.23c6.58,0.49,13.09-0.99,19.66-0.65c0.67,0.79,0.3,1.73,0.37,2.61
		c-2.2,1.43-5.22,0.73-7.19,2.98c-0.67,0.76-2.05-0.19-3-0.57c-2.99-1.18-5.82-1.6-8.94-0.1c-1.32,0.63-3.14,1.63-4.85-0.5
		c-1.02-1.26-2.98,0.63-4.81,0.53c-2.73-0.14-5.53-0.23-8.23-0.62c-2.25-0.32-4.34-1.57-5.52,1.64c-0.32,0.88-1.21,0.54-2.12,0.05
		c-3.79-2.05-7.66-1.96-11.88-0.83c-3.61,0.97-7.64,0.8-11.12-0.94c-4.5-2.24-9.03-1.21-13.57-0.72c-0.94,0.1-1.86,0.39-2.83,0.23
		c-5.2-0.86-10.52,0.11-15.71-1.16c-2.11-0.52-3.86,1.79-6.43,0.84c-1.33-0.49-3.21,0-4.64-1.08c-0.24-0.18-0.75-0.38-0.88-0.27
		c-3.1,2.6-6.58-0.17-9.74,0.72c-3.58,1.01-7.26,0.57-10.8,0.56C146.84,70.4,142.86,71.23,139.17,69.59z"/>
	<path class="st8" d="M16.08,68.32c-0.17-2.65,0-5.24,1.18-7.68c0.74-0.06,1.49-0.02,2.2-0.18c4.76-1.06,4.87-1.07,4.83,3.69
		c-0.02,2.42,0.83,3.59,3.25,3.56c0,1.5,0.01,3,0.01,4.5c-0.03,1.27-0.05,2.54-0.08,3.81c-2.61,0.35-4.13-0.43-3.82-3.42
		c0.12-1.17-0.22-2.8-1.51-2.78C19.92,69.86,18.15,68.57,16.08,68.32z"/>
	<path class="st3" d="M17.26,89.53c-0.91-2.49-1.16-5.1-1.3-7.72c0.02-2.78,0.05-5.57,0.07-8.35c7.48,2.56,7.83,3.03,7.01,11.32
		c-0.17,1.73,1.05,2.06,1.93,2.83C22.52,88.7,20.07,89.84,17.26,89.53z"/>
	<path class="st9" d="M24.98,87.61c-0.88-0.78-2.1-1.1-1.93-2.83c0.82-8.29,0.48-8.76-7.01-11.32c0.01-1.71,0.03-3.43,0.04-5.14
		c2.07,0.26,3.84,1.54,6.07,1.51c1.29-0.02,1.64,1.6,1.51,2.78c-0.31,3,1.21,3.77,3.82,3.42c0.01,4.07,0.02,8.13,0.02,12.19
		c-0.41,0.01-0.83,0.01-1.24,0.02C25.98,87.73,25.5,87.61,24.98,87.61z"/>
	<path class="st4" d="M27.55,67.71c-2.42,0.03-3.27-1.15-3.25-3.56c0.04-4.76-0.07-4.74-4.83-3.69c-0.71,0.16-1.47,0.13-2.2,0.18
		c0.12-0.83-0.02-1.71,0.55-2.44c1.6-2.07,10.19-3.1,12.27-1.47c-0.19,0.65-0.38,1.29-0.58,1.94c-0.9,0.08-1.24,0.61-1.3,1.48
		C28.01,62.67,27.77,65.19,27.55,67.71z"/>
	<path class="st6" d="M29.5,58.67c0.19-0.65,0.38-1.29,0.58-1.94c0.02-0.92,0.3-1.66,1.31-1.9c0.49,1.22-1.1,3.16,1.3,3.71
		c-0.4,4.06,2.72,2.33,4.54,2.75c-0.07,1.67-0.14,3.34-0.21,5.01c-3.58,0.11-6.8-0.24-6.45-5.12c0.01-0.18-0.44-0.4-0.67-0.6
		C29.76,59.95,29.63,59.31,29.5,58.67z"/>
	<path class="st5" d="M37.22,61.3c-1.82-0.42-4.93,1.31-4.54-2.75c-2.4-0.55-0.81-2.5-1.3-3.71c2.4-1,4.79-1.05,7.19,0.01
		c-1.03,1.41-1.94,2.84-1.03,4.68C37.43,60.11,37.32,60.7,37.22,61.3z"/>
	<path class="st4" d="M37.55,59.51c-0.91-1.83-0.01-3.27,1.02-4.68c1.05-0.11,1.32,0.44,1.17,1.36c-0.07,0.88-0.14,1.76-0.21,2.64
		C38.87,59.06,38.21,59.29,37.55,59.51z"/>
	<path class="st10" d="M260.49,88.28c-2.42,3.04-3.86,6.68-6.05,9.89c-1.2,1.76-3.24,1.91-4.23,3.53c-2.57,0-5.13,0-7.7,0
		c-0.64-0.82-1.29-0.82-1.93,0c-2.2,0.08-5.15-0.9-4.49,3.2c-3.9,0.18-7.82-0.29-11.73,0.55c-1.78,0.38-3.82,0.49-5.6-0.54
		c-1.35-1.25-1.01-4.06-3.97-3.88c-7.57,0.46-15.09-0.8-22.67-0.67c-12.07,0.22-24.14,0.1-36.21,0.01c-2.06-0.02-4.04,0.93-6,0.59
		c-6.3-1.1-12.62,0.08-18.95-0.28c-4.88-0.27-9.97,0.22-14.96,0.37c-1.02,0.03-2.25-0.3-2.48,1.28c-0.42,0-0.85,0-1.27,0
		c-0.37-0.35-0.81-1.07-1.09-1.01c-4.9,1.05-9.84-0.49-14.74,0.35c-0.85,0.15-1.4,0.4-1.5,1.3c-1.92,0-3.85,0-5.77,0
		c-0.16-0.33-0.28-0.9-0.5-0.95c-0.69-0.15-0.69,0.49-0.78,0.95c-0.85,0-1.71,0-2.56,0c-0.16-0.33-0.28-0.9-0.5-0.95
		c-0.69-0.15-0.69,0.49-0.78,0.95c-0.49,0.11-1.24,0.05-1.44,0.36c-0.54,0.83,0.45,0.92,0.86,1.27c2.01,1.74,4.78,1.11,7,2.22
		c-2.56,2.63-5.1,0.55-7.69,0.02c-10.55-2.13-21.2-3.1-31.97-2.61c-1.17,0.05-2.47,0.38-3.55-1.32c6.37,0,12.74,0,19.11,0
		c-0.02-0.39-0.04-0.78-0.06-1.17c-8.42-0.17-16.84-0.5-25.25,0.6c-1.42-0.14-2.07,0.49-1.92,1.92c-2.35,2.49-1.16,5.82-0.91,8.29
		c0.53,5.35,1.97,10.62,1.55,16.1c-2.99-0.65-1.06-3.75-2.57-5.13c0.07-1.13-0.03-2.22-0.64-3.21c0-0.43,0-0.86,0-1.28
		c0.13-1.16-0.34-2.06-1.2-2.81c-0.93-0.82-1.61-1.56-0.57-2.94c0.93-1.24-0.32-1.89-1.26-2.36c-0.55-0.28-1.83,0.52-1.66-0.69
		c0.1-0.74-0.55-2.39,1.34-2.31c0.49,0.02,0.73-0.4,0.67-0.87c-0.06-0.52-0.45-0.61-0.92-0.62c-2.65-0.02-1.83-1.82-0.89-2.55
		c2.33-1.79,1.34-2.24-0.65-3.06c-0.97-0.4-1.76-1.52-0.62-2.85c1.9-2.23,0.32-6.91-2.57-7.82c0.02-0.46,0.04-0.91,0.07-1.37
		c1.54,0.38,3.2,1.32,4.61,1.03c5.09-1.03,10.16,0.07,15.22-0.29c-0.21,1.23-0.62,2.46-0.58,3.68c0.03,1.18-0.86,2.87,1.22,3.37
		c0.09,0.88-0.29,1.89,0.65,2.56c0.19,0.36,0.3,0.91,0.59,1.04c2.84,1.26,4.8-0.92,6.88-2.07c1.84-1.01,0.15-2.64-0.06-3.97
		c-0.25-1.55-0.66-3.08-1-4.62c3.42,0.01,6.85,0.01,10.27,0.02c0.46,1.2-2.02,1.81-0.64,3.2c0.72,2.46,0.6,5.43,3.82,6.4
		c0.49,0.74,1.27,0.7,2,0.7c11.94-0.01,23.87-0.03,35.81-0.04c1.11,0,2.15-0.09,2.66-1.3c2.35,0.22,2.29-1.97,3.19-3.2
		c1.28,0.08,1.94-0.4,1.94-1.8c0-1.4-0.41-2.49-1.69-3.12c-0.78-0.39-2.02,0.01-2.18-1.36c4.43,0.55,8.84,0.07,13.26-0.05
		c9.64-0.24,19.29-0.08,28.94-0.09c19.17-0.01,38.34-0.02,57.51-0.06c1.21,0,2.59,0.52,3.61-0.68c2.75,0,5.49-0.01,8.24-0.01
		c0.49,0.14,0.96,0.14,1.34-0.27c0.46,0.01,0.92,0.02,1.38,0.02c1.86,0.87,3.88,0.07,5.78,0.52c0.33,1.58,1.6,1.08,2.56,1.09
		c2.95,0.06,5.92-0.12,8.86,0.07c2.17,0.15,4.45,0.51,5.2,3.17c-1.94-0.52-3.43,0.79-5.12,1.29c-0.2-1.95-1.24-2.79-3.22-2.6
		c-1.05,0.1-2.13,0.02-3.19,0.02c-9.79,0-19.57-0.01-29.35,0.02c-1.17,0-3.02-0.43-2.61,1.65c0.44,2.23,1.04,4.6,3.72,5.4
		c0.93,1.06,2.19,0.63,3.3,0.63c11.28,0.02,22.55-0.01,33.83-0.03c1.54-0.49,3.25-0.73,3.93-2.54c0.89-2.79,1.87-5.59-1.83-7.24
		c-0.15-0.07-0.1-0.6-0.14-0.92C251.47,88.36,255.98,88.32,260.49,88.28z M120.63,97.81c-0.11-0.08-0.22-0.16-0.33-0.24
		c0.08,0.11,0.16,0.22,0.24,0.33c0.94,1.05,2.19,0.64,3.32,0.64c22.95,0,45.9-0.02,68.85-0.06c0.94,0,1.96,0.35,3.07-0.44
		C170.58,96.05,145.6,98.01,120.63,97.81z M139.87,94.01c-0.01,0.25-0.01,0.51-0.02,0.76c1.71,0,3.42-0.03,5.13,0.07
		c0.09,0.01-0.26,1.56,0.94,0.76c0.28-0.19,0.52-0.76,0.46-1.1c-0.12-0.72-0.81-0.48-1.29-0.49C143.36,94,141.61,94.01,139.87,94.01
		z M80.46,102.23c-0.21-0.44-0.61-0.53-1.03-0.47c-0.39,0.05-0.97,0.1-0.77,0.67c0.09,0.25,0.63,0.44,0.99,0.47
		C80.03,102.93,80.51,102.84,80.46,102.23z M72.44,101.76c-0.42,0.03-0.91,0.04-0.91,0.59c0,0.56,0.49,0.58,0.91,0.58
		c0.41,0,0.91-0.02,0.91-0.58C73.35,101.79,72.85,101.8,72.44,101.76z"/>
	<path class="st10" d="M41.66,145.98c-0.47-0.2-0.94-0.4-1.41-0.6c1.72-2.51-1-4.6-0.64-6.99c0.23-1.54,0.38-3.07-1.79-3.32
		c0.22-1.5,2.17-2.99,0.01-4.49c0.45-0.76,1.21-0.61,1.91-0.64c0.93,0.54,2.1,1.23,1.78,2.34c-1.09,3.74,0.57,7.22,0.7,10.82
		C42.24,143.98,43.59,145.4,41.66,145.98z"/>
	<path class="st2" d="M39.74,129.94c-0.7,0.03-1.46-0.13-1.91,0.64c0,0-0.03,0.02-0.03,0.02c-0.21,0.21-0.42,0.42-0.63,0.63
		c-0.29,0.12-0.63,0.4-0.86,0.33c-1.6-0.52-2.41-6.74-1.07-8.03c0.17,0.74-0.37,1.7,0.65,2.23c1.02-0.53,0.49-1.49,0.65-2.23
		c0.21,0,0.42,0,0.64,0c1.5,1.39-0.42,4.49,2.57,5.13C39.74,129.09,39.74,129.51,39.74,129.94z"/>
	<path class="st11" d="M24.98,87.61c0.53,0,1,0.11,1.28,0.62c0.22,0.64,0.43,1.28,0.65,1.92c-3.09-0.69-5.65,0.89-8.34,1.93
		c-1.16-0.48-1.34-1.46-1.3-2.55C20.07,89.84,22.52,88.7,24.98,87.61z"/>
	<path class="st12" d="M28.26,88.78c-0.02,0.46-0.04,0.91-0.07,1.37c-0.11,0.28-0.22,0.55-0.33,0.83c-0.11-0.28-0.21-0.56-0.32-0.84
		c-0.01-0.64-0.02-1.28-0.03-1.92c-0.01-4.06-0.01-8.13-0.02-12.19c0.03-1.27,0.05-2.54,0.08-3.81c0.38,0.03,0.76,0.06,1.15,0.09
		C27.99,77.77,28.24,83.28,28.26,88.78z"/>
	<path class="st10" d="M36.53,123.52c-0.16,0.74,0.37,1.69-0.65,2.23c-1.02-0.53-0.48-1.49-0.65-2.23
		C35.67,123.52,36.1,123.52,36.53,123.52z"/>
	<path class="st3" d="M27.5,88.22c0.01,0.64,0.02,1.28,0.03,1.92c-0.21,0.01-0.42,0.02-0.63,0.02c-0.22-0.64-0.43-1.28-0.65-1.92
		C26.67,88.23,27.09,88.22,27.5,88.22z"/>
	<path class="st2" d="M36.53,119.03c0,0.43,0,0.86,0,1.28c-0.42,0.22-0.85,0.44-1.27,0.66l-0.03-0.03
		C35.24,120.02,35.24,119.09,36.53,119.03z"/>
	<path class="st2" d="M35.26,120.98c-0.05,0.09-0.11,0.17-0.16,0.26c0.04-0.1,0.09-0.19,0.13-0.29
		C35.23,120.94,35.26,120.98,35.26,120.98z"/>
	<path class="st10" d="M37.17,131.23c0.21-0.21,0.42-0.42,0.63-0.63C37.59,130.81,37.38,131.02,37.17,131.23z"/>
	<path class="st3" d="M95.56,226.83c-1.12,0.3-1.19,1.98-2.57,1.93c-1.62-0.1-2.92,0.73-4.38,1.24c-3.75,1.33-4.44,6.23-8.68,6.82
		c-0.94,0.13-1.25,2.51-2.53,1.74c-1.25-0.76,0.65-1.72,0.61-2.71c-0.01-0.29-0.14-0.7-0.35-0.83c-1.89-1.19-0.65-2.86-0.71-4.32
		c0.94-0.11,1.77,0.2,2.57,0.64c0.16,0.33,0.28,0.9,0.5,0.95c0.69,0.15,0.68-0.49,0.78-0.96c0.01-0.2,0.01-0.4,0.02-0.59
		c2.08-0.13,4.12-0.36,5.11-2.61c1.38,0.05,2.47-0.28,2.57-1.93c1.03,0.1,1.79-0.35,2.6-0.97c5.99-4.56,12.06-9.03,18.04-13.6
		c13.93-10.64,27.81-21.33,41.73-31.98c11.91-9.11,23.85-18.18,35.77-27.27c0.02,1.93,0.04,3.87,0.06,5.8
		c-0.02,0.63-0.04,1.26-0.05,1.89c-5.19,2.27-9.26,6.15-13.68,9.54c-5.22,4-10.49,7.93-15.76,11.86
		c-6.38,4.76-12.77,9.49-19.17,14.22c-7.18,5.3-14.47,10.46-21.53,15.92c-5.9,4.56-11.78,9.13-18.37,12.68
		C96.6,224.44,95.76,225.31,95.56,226.83z"/>
	<path class="st13" d="M51.29,215.93c-0.57-1.43-2.97-2.49-0.84-4.49c0.36-0.34-0.05-0.96-0.37-1.43c-1.26-1.85-1.17-1.83-0.37-3.65
		c0.33-0.75-0.38-1.31-0.92-1.84c-1.47-1.45-1.45-1.45,0.21-2.66c0.19-0.14,0.38-0.67,0.32-0.72c-2.27-1.93,1.14-5.85-2.58-7.35
		c-0.58-0.24-0.95-1.47,0.13-2.13c0.09-0.06,0.2-0.08,0.29-0.13c3.01-1.52-2.67-2.03-0.39-3.65c1.61-1.14,1.51-1.33-0.69-2.83
		c-0.55-0.37-1.25-0.73-1.09-1.41c0.29-1.26,0.9,0.37,1.37-0.05c0.23-0.21,0.55-0.33,0.73-0.56c0.25-0.32-1.23-7.14-1.55-7.37
		c-2.6-1.85-2.65-2.56-0.25-4.78c-0.76-0.56-2.54,0.53-2.38-1.58c0.12-1.56,0.24-2,2-1.39c0.57,0.2,0.05-1.45-0.54-1.79
		c-1.27-0.72-2.07-1.05-0.31-2.32c1.39-1,0.15-2.32-0.71-2.72c-2.6-1.21-2.65-2.16-0.05-3.33c0.19-0.09,0.21-0.57,0.3-0.87
		c0.26-1.71,2.5-3.43,0-5.14c0-0.43,0-0.85,0-1.28c1.12-0.11,1.67-1.05,1.14-1.74c-2.37-3.14,0.41-4.32,2.06-5.96
		c0.22,0.46,0.56,0.9,0.64,1.39c1.3,8.02,2.91,16,3.73,24.07c0.56,5.48,1.95,10.8,2.37,16.32c0.27,3.57,0.36,7.34,1.6,10.84
		c0.01,0.85,0.01,1.7,0.02,2.56c-0.01,0.43-0.01,0.86-0.02,1.29c-2.25-0.84-4.31-1.17-3.39,2.33c0.69,2.61-0.28,5.13,0.05,7.73
		C52.07,211.46,51.49,213.71,51.29,215.93z"/>
	<path class="st13" d="M76.95,230.69c0.07,1.46-1.18,3.13,0.71,4.32c0.21,0.13,0.34,0.54,0.35,0.83c0.04,0.99-1.87,1.95-0.61,2.71
		c1.28,0.77,1.6-1.61,2.53-1.74c4.23-0.58,4.93-5.49,8.68-6.82c1.45-0.52,2.75-1.34,4.38-1.24c-0.74,0.75-1.38,1.64-2.23,2.23
		c-4.47,3.12-7.67,7.03-9.71,12.25c-1.94,4.98-6.39,6.93-11.72,6.7c-0.53-0.02-1.07,0-1.6,0c-6.37,0.02-6.37,0.02-6.83-6.42
		c0.98-1.01,0.17-1.15-0.62-1.3c0-0.42,0-0.84,0-1.27c0.42,0.04,1.01-0.09,1.23,0.13c3.49,3.56,7.05,1.11,10.46,0.01
		c2.31-0.75,2.71-3.06,1.18-4.65c-0.22-1.41-1.04-2.47-2.43-2.46c-3.3,0.01-6.74-0.85-9.8,1.2c-0.89-0.96-1.11-2.18-1.27-3.41
		c-0.13-0.98,0.25-2.2-1.31-2.38c0-0.85,0-1.69,0-2.54c1.35-2.48,0.33-5.16,0.64-7.73c0.22,0,0.44,0,0.66,0
		c1.75,0.84,1.43,2.69,1.79,4.09c0.5,1.93,1.37,3.19,3.34,3.6c0.42,0.01,0.85,0.02,1.27,0.03l-0.01-0.01
		c0.26,0.54,0.74,0.65,1.29,0.65l0,0c2.62,2.13,5.41,3.76,8.99,3.17C76.52,230.68,76.74,230.68,76.95,230.69z"/>
	<path class="st3" d="M58.34,226.86c0,0.85,0,1.69,0,2.54c0.14,0.94,0.24,1.89,0.42,2.83c0.35,1.8,0.66,3.76-0.04,5.37
		c-0.71,1.64-2.74,0.41-4.09,0.9c-0.29,0.1-0.52,0.35-0.78,0.53c-0.68-0.91-4.67-0.05-1.58-3c0.52-0.5,0.25-1.3-0.32-1.64
		c-3.05-1.83-2.03-4.39-1.31-6.91c1.55-1.39,2.44-2.77-0.23-3.86c-1.03-0.42-0.57-1.22-0.19-1.42c2.87-1.51,0.89-2.18-0.48-2.88
		c-0.92-0.47-1.05-1.21-1-2.09c1.5,0.84,2.37,0.45,2.55-1.3c0.2-2.21,0.78-4.47,0.51-6.63c-0.33-2.6,0.64-5.12-0.05-7.73
		c-0.92-3.49,1.14-3.17,3.39-2.33c0.01,1.07,0.01,2.14,0.02,3.21c-2.15,2.52-1.7,4.84,1.24,6.43c-0.09,2.59,0.08,5.16,0.66,7.69
		c0.08,0.89-0.29,1.89,0.63,2.57C57.76,221.72,57.45,224.34,58.34,226.86z"/>
	<path class="st11" d="M46.79,142.78c-1.65,1.64-4.43,2.82-2.06,5.96c0.52,0.69-0.02,1.63-1.14,1.74c-0.43,0-0.86,0-1.29,0
		c-0.09-0.89,0.29-1.89-0.64-2.57c0-0.64,0-1.28,0-1.93c1.93-0.58,0.58-2,0.55-2.87c-0.12-3.6-1.78-7.08-0.7-10.82
		c0.32-1.11-0.85-1.81-1.78-2.34c0-0.43,0-0.86,0-1.28c0.42-5.47-1.02-10.75-1.55-16.1c-0.24-2.47-1.44-5.8,0.91-8.29
		c3.54,9.31,4.06,19.3,6.42,28.87c-0.18,2.47,1.22,4.65,1.26,7.07c-0.33,0.16-0.9,0.27-0.94,0.5c-0.15,0.69,0.48,0.68,0.95,0.77
		C46.79,141.92,46.79,142.35,46.79,142.78z"/>
	<path class="st10" d="M53.85,239.02c0.26-0.18,0.49-0.43,0.78-0.53c1.35-0.49,3.38,0.74,4.09-0.9c0.7-1.61,0.39-3.56,0.04-5.37
		c-0.18-0.93-0.28-1.88-0.42-2.83c1.55,0.18,1.18,1.4,1.31,2.38c0.16,1.23,0.38,2.45,1.27,3.41c-0.06,0.55-0.9,1.86,0.25,1.39
		c1.24-0.51,1.67,0.18,2.48,0.44c3.23,1.04,6.44,1.39,9.5-0.58c1.53,1.59,1.13,3.91-1.18,4.65c-3.41,1.11-6.97,3.55-10.46-0.01
		c-0.22-0.23-0.81-0.1-1.23-0.13C58.33,239.69,55.47,241.41,53.85,239.02z"/>
	<path class="st11" d="M48.74,217.23c-0.05,0.88,0.08,1.62,1,2.09c1.37,0.7,3.35,1.37,0.48,2.88c-0.38,0.2-0.84,0.99,0.19,1.42
		c2.67,1.1,1.78,2.47,0.23,3.86c-1.86,0.38-2.48-0.23-2.71-2.26c-0.27-2.39,0.68-4.81-0.32-7.17
		C47.39,217.53,48.2,217.3,48.74,217.23z"/>
	<path class="st12" d="M42.78,239.71"/>
	<path class="st12" d="M48.48,239.01c2.02-0.15,2.3,1.01,2.16,2.58"/>
	<path class="st12" d="M40.38,237.75"/>
	<path class="st11" d="M43.59,151.76c2.51,1.71,0.26,3.42,0,5.14c-1.91-1.25-0.55-2.98-0.65-4.49
		C43.16,152.19,43.38,151.97,43.59,151.76z"/>
	<path class="st3" d="M51.27,245.45c0-0.64,0-1.29,0-1.93c0.01-0.43,0.02-0.85,0.03-1.28c1.2,0.86,1.27,2.29,1.63,3.52
		c0.12,0.4-0.27,1.3-1.06,1.27c-0.21-0.01-0.39-0.62-0.58-0.95C51.3,245.87,51.29,245.66,51.27,245.45z"/>
	<path class="st13" d="M95.56,226.83c0.2-1.52,1.04-2.39,2.59-2.55C97.93,225.79,97.09,226.66,95.56,226.83z"/>
	<path class="st10" d="M41.67,147.91c0.93,0.68,0.55,1.68,0.64,2.57C41.86,149.68,39,149.48,41.67,147.91z"/>
	<path class="st10" d="M43.59,151.76c-0.22,0.22-0.43,0.43-0.65,0.65c-0.75-0.46-0.62-1.22-0.64-1.93c0.43,0,0.86,0,1.29,0
		C43.59,150.9,43.59,151.33,43.59,151.76z"/>
	<path class="st10" d="M60.29,242.22c0.8,0.15,1.61,0.29,0.62,1.3C60.39,243.24,60.28,242.76,60.29,242.22z"/>
	<path class="st3" d="M186.64,161.44c-0.2,0.2-0.4,0.4-0.61,0.6C186.24,161.84,186.44,161.64,186.64,161.44z"/>
	<path class="st14" d="M51.27,245.45c0.02,0.21,0.02,0.43,0.01,0.64c-0.21-0.21-0.43-0.43-0.64-0.64
		C50.86,245.45,51.06,245.45,51.27,245.45z"/>
	<path class="st7" d="M39.37,67.02c6.8,0.02,13.6,0.17,20.39,0.18c1.86,0,4.11,0.45,6.05-0.59c0.77-0.41,1.68-0.23,2.4,0.38
		c0.7,0.6,1.56,0.9,2.38,0.56c3.64-1.51,7.57-0.44,11.23-1.29c1.98-0.46,3.58,0.29,5.23,0.77c3.28,0.97,6.23-1.01,9.43-0.66
		c4.63,0.51,9.31-0.53,13.96,0.9c2.17,0.67,4.65-0.51,7.1-0.51c4.63-0.01,9.2,0.38,13.8,0.75c1.35,0.11,2.78,0.07,4.09-0.24
		c1.64-0.38,1.86,0.42,1.87,1.66c-1.99,0.87-4.2,0.77-6.11,0.41c-4.48-0.85-8.76,1.16-13.04,0.58c-2.34-0.32-4.33-1.34-6.13,0.92
		c-0.02,0.03-0.44-0.25-0.67-0.38c-2.78-1.62-5.47-2.06-8,0.51c-0.72,0.73-1.47,0.35-1.78-0.45c-0.74-1.89-2.19-1.58-3.82-1.82
		c-4.77-0.68-9.24,1.58-13.84,1.16c-3.26-0.29-6.51-0.52-9.78-0.66c-2.34-0.1-4.73-1.08-6.94,0.95c-0.98,0.9-1.96-1.04-3.59-0.89
		c-3.15,0.3-6.42,0.38-9.67-0.21c-2.94-0.53-5.98-0.68-9-0.22c-1.92,0.3-3.82,0.24-5.65-0.57C39.32,67.87,39.35,67.44,39.37,67.02z"
		/>
	<path class="st8" d="M214.28,88.13c-1.02,1.2-2.4,0.67-3.61,0.68c-19.17,0.05-38.34,0.05-57.51,0.06
		c-9.65,0.01-19.3-0.15-28.94,0.09c-4.43,0.11-8.84,0.6-13.26,0.04c-1.28,0-2.56,0-3.84,0c-0.68-0.09-1.35-0.17-2.03-0.26
		c0.56-1.58,1.92-1.06,3.01-1.07c7.23-0.05,14.46-0.05,21.68-0.07c8.58-0.02,17.17,0.29,25.72-0.14c8.63-0.44,17.25,0.77,25.83,0.03
		c5.78-0.5,11.6,0.07,17.36-0.95c1.49-0.26,3.17,0.09,4.69,0.47C206.97,87.91,210.74,86.85,214.28,88.13z"/>
	<path class="st2" d="M107.12,89c1.28,0,2.56,0,3.84,0c0.16,1.37,1.41,0.98,2.18,1.36c1.28,0.64,1.69,1.72,1.69,3.12
		c0,1.41-0.66,1.88-1.94,1.8c1.07-3.34,0.67-3.84-2.55-3.35c-1.04,0.16-2.12,0.13-3.18,0.13c-12.57,0.01-25.14,0.01-37.71,0
		c-1.38,0-2.78-0.14-4.04,0.64c-1.37-1.39,1.1-2,0.64-3.2c3.4-0.49,6.95,0.8,10.26-0.8c5.1,0.01,10.21,0.03,15.31,0.04
		c1.77,0,3.54,0,5.32,0c1.43-0.01,2.87-0.01,4.3-0.02c0.46,0.09,0.91,0.17,1.37,0.26C104.11,90.85,105.62,90.85,107.12,89z"/>
	<path class="st8" d="M39.37,67.02c-0.03,0.43-0.05,0.85-0.08,1.28c-0.05,5.87-0.05,11.73-0.17,17.6c-0.04,1.87,0.75,2.25,2.46,2.39
		c2.41,0.19,5.06-1.15,7.24,0.92c-0.25,0.11-0.49,0.22-0.74,0.32c-5.06,0.36-10.13-0.74-15.22,0.29c-1.41,0.29-3.07-0.65-4.61-1.03
		c-0.01-5.5-0.27-11.01,0.45-16.49c0.09-1.37,0.18-2.73,0.26-4.09c1.57,0.53,1.13,1.88,1.14,2.98c0.04,4.49,0.16,8.98-0.02,13.46
		c-0.11,2.56,0.99,3.01,3.22,2.99c2.17-0.01,3.35-0.31,3.26-2.93c-0.22-6.13,0.95-12.25,0.45-18.4c0.07-1.67,0.14-3.34,0.21-5.01
		c0.11-0.59,0.22-1.19,0.33-1.78c0.66-0.22,1.32-0.45,1.98-0.67c0.05,0.39,0.1,0.79,0.15,1.18C39.84,62.36,38.9,64.66,39.37,67.02z"
		/>
	<path class="st8" d="M231.02,88.4c-1.9-0.45-3.92,0.35-5.78-0.52c2.27-1.84,5.15-1.15,7.58-1.22c6.27-0.19,12.57-0.13,18.87,0.23
		c4.92,0.28,9.9-0.52,14.55-2.48c1.12-0.47,2.19-0.82,3.38-0.37c-1.03,2.29-3.44,2.15-5.29,3.01c-0.82-0.07-1.24,0.37-1.41,1.12
		c-0.82,0.04-1.63,0.08-2.45,0.12c-4.51,0.04-9.02,0.08-13.53,0.11C241.65,88.4,236.33,88.4,231.02,88.4z"/>
	<path class="st2" d="M48.08,89.52c0.25-0.11,0.49-0.21,0.74-0.32c1.21,0.06,2.43,0.12,3.64,0.18c1.11,0.04,2.21,0.09,3.32,0.13
		c0.34,1.54,0.75,3.07,1,4.62c0.21,1.33,1.91,2.96,0.06,3.97c-2.09,1.15-4.04,3.34-6.88,2.07c-0.29-0.13-0.4-0.68-0.59-1.04
		c0.21,0,0.43,0.01,0.64,0c3.34-0.15,6-3.93,4.42-6.72c-0.5-0.87-2.07-1.75-3.62-1.62c-1.37,0.11-1.36,1.01-1.46,2.02
		c-0.13,1.26-0.41,2.5-0.62,3.75c-2.08-0.49-1.19-2.18-1.22-3.37C47.46,91.99,47.87,90.75,48.08,89.52z"/>
	<path class="st8" d="M55.78,89.51c-1.11-0.04-2.21-0.09-3.32-0.13c0.23-0.85,0.83-1.15,1.67-1.14c7.12,0.02,14.24,0.02,21.36,0.06
		c0.27,0,0.55,0.28,0.82,0.43c-3.32,1.6-6.86,0.31-10.26,0.8C62.63,89.52,59.2,89.52,55.78,89.51z"/>
	<path class="st8" d="M96.94,88.77c-1.77,0-3.54,0-5.32,0C93.39,86.89,95.17,86.91,96.94,88.77z"/>
	<path class="st10" d="M107.12,89c-1.5,1.85-3,1.84-4.51,0c0.47-0.09,0.94-0.17,1.4-0.26c0.36,0,0.72,0,1.08,0
		C105.77,88.83,106.44,88.92,107.12,89z"/>
	<path class="st8" d="M104.01,88.75c-0.47,0.09-0.93,0.17-1.4,0.26c-0.46-0.08-0.91-0.17-1.37-0.26
		C102.16,87.13,103.09,87.14,104.01,88.75z"/>
	<path class="st8" d="M223.86,87.85c-0.38,0.41-0.85,0.41-1.34,0.27C222.83,87.35,223.1,86.39,223.86,87.85z"/>
	<path class="st11" d="M274.6,106.84c0.43,0.22,0.85,0.43,1.28,0.65c0,2.51-0.05,5.02,0.01,7.52c0.04,1.41-0.4,2.22-1.94,2.1
		c-1.08-1.38-2.14,0.16-3.22,0.01c-3.41-0.42-6.8-0.57-10.25-0.18c-6.24,0.69-12.87-1.35-18.61,2.75c-0.09-1.19-0.7-2.06-1.83-2.33
		c-0.7-0.17-1.13,0.48-1.3,1.14c-0.81,3.12-1.85,1.86-2.84,0.13c-1.15-2.03-2.48-2.77-4.59-1.12c-1.34,1.05-2.87,0.96-4.55,0.52
		c-1.37-0.36-3.66-1.38-3.13,1.89c0.06,0.39-0.4,1.08-0.8,1.28c-0.67,0.33-0.68-0.53-1.02-0.84c-2.06-1.82-4.73-1.81-7.23-2.12
		c-3.29-0.41-6.33,0.78-9.3,2.08c-0.43,0-0.86,0-1.29,0c0.16-1.48-0.73-2.61-1.29-3.85c2.07-1.31,3.46-3.5,5.77-4.49
		c0.34,1.8,1.68,1.27,2.77,1.12c3.25-0.46,6.28-1.54,9.79-1.3c6.12,0.41,12.35,0.04,18.47-0.55c4.56-0.44,9.08-0.64,13.65-0.64
		c1.96,0,4.05-0.24,5.97-0.65c2.62-0.56,5.78,0.23,7.74-2.46C269.47,107.39,272.09,107.76,274.6,106.84z"/>
	<path class="st11" d="M236.09,104.91c-0.67-4.1,2.29-3.12,4.49-3.2c0.64,0,1.29,0,1.93,0c2.57,0,5.13,0,7.7,0
		c7.88-0.27,15.65,1.33,23.51,1.33c1.16,0,3.06,0.08,3,1.52c-0.06,1.38-1.87,0.89-2.98,1c-3.55,0.34-7.19-0.73-10.68,0.63
		c-2.78,0-5.57,0.01-8.35,0.01c-5.52,0.24-10.83-2.19-16.4-1.3C237.58,105.01,236.83,104.91,236.09,104.91z"/>
	<path class="st13" d="M254.71,106.2c2.78,0,5.57-0.01,8.35-0.01c3.84,0.33,7.76-0.71,11.55,0.64c-2.51,0.92-5.13,0.56-7.71,0.65
		c-13.54,0-27.08,0.01-40.63-0.03c-1.22,0-2.58,0.48-3.64-0.61c9.59,0,19.18,0.01,28.76-0.03
		C252.51,106.81,253.76,107.24,254.71,106.2z"/>
	<path class="st3" d="M28.97,68.2c-0.09,1.36-0.17,2.73-0.26,4.09c-0.38-0.03-0.76-0.06-1.15-0.09c0-1.5-0.01-3-0.01-4.5
		c0.22-2.52,0.46-5.04,0.64-7.56c0.06-0.87,0.4-1.4,1.3-1.48c0.13,0.64,0.26,1.28,0.39,1.92C27.79,62.91,29.49,65.69,28.97,68.2z"/>
	<path class="st4" d="M28.97,68.2c0.52-2.51-1.18-5.29,0.92-7.61c0.23,0.2,0.69,0.42,0.67,0.6c-0.35,4.88,2.87,5.22,6.45,5.12
		c0.5,6.15-0.67,12.26-0.45,18.4c0.09,2.63-1.09,2.92-3.26,2.93c-2.23,0.01-3.32-0.44-3.22-2.99c0.18-4.48,0.07-8.97,0.02-13.46
		C30.1,70.08,30.54,68.73,28.97,68.2z"/>
	<path class="st12" d="M45.52,133.14c-2.36-9.58-2.88-19.56-6.42-28.87c-0.15-1.43,0.5-2.06,1.92-1.92c0.1,2.27,0.81,3.8,3.53,3.94
		c7.9,0.41,15.65,2.22,23.64,2.16c8.87-0.07,17.74,0.64,26.62,0.93c1.31,0.04,2.8,0.55,3.96-0.61c1.92,0-38.71,4.5-39.14,4.5
		c-0.36-0.2-0.71-0.57-1.07-0.58c-4.85-0.09-9.64,0.51-14.41,1.26c-0.75,0.12-1.2,0.53-1.02,1.29c0.2,0.83,0.6,1.97,1.53,1.76
		c3.62-0.82,6.75,1.61,10.53,1.16c3.19-0.38,6.37,4.48,4.45,4.31c-1.09,0.13-7.44-1.27-8.34-0.22c-1.5,0-2.99,0.01-4.49,0.01
		c-0.84,0.02-1.26,0.44-1.27,1.28c0,1.28,15.82,1.07,15.82,2.35c0.18,1.74,0.46,7.57,0.85,9.2c-2.76-0.97-5.62-0.58-8.45-0.63
		C50.94,134.38,48.07,134.83,45.52,133.14z"/>
	<path class="st11" d="M112.25,102.35c0.42,0,0.85,0,1.27,0c30.22,0.18,60.44-0.37,90.67-0.71c0,0.45,0.01,0.9,0.01,1.35
		c-2.42,0-4.84,0-7.26,0c-14.43,0.03-28.9-0.47-43.2,2c-3.8,0.66-7.81,0.55-11.35,2.48c-0.64,0-1.27,0-1.91,0
		c-1.5,0.01-3,0.01-4.49,0.02c-1.4-1.18-3.08-1.24-4.8-1.32c-3.08-0.14-6.17-0.17-9.24-0.33c-4.84-0.25-9.65-1.03-14.52-0.97
		c-5.33,0.07-10.46,1.46-15.72,1.96c-0.43,0-0.86,0-1.28,0c-2.21-1.11-4.98-0.47-7-2.22c-0.41-0.36-1.39-0.44-0.86-1.27
		c0.19-0.3,0.94-0.25,1.44-0.36c0.43,0,0.86,0,1.29,0c0.85,0,1.71,0,2.56,0c0.43,0,0.86,0,1.28,0c1.92,0,3.85,0,5.77,0
		c3.51,0,7.02,0.12,10.51-0.04C107.71,102.84,110.09,103.71,112.25,102.35z"/>
	<path class="st2" d="M196.95,102.99c2.42,0,4.84,0,7.26,0c0-0.45-0.01-0.9-0.01-1.35c-30.22,0.34-60.45,0.88-90.67,0.71
		c0.23-1.58,1.47-1.25,2.48-1.28c5-0.16,10.08-0.64,14.96-0.37c6.33,0.35,12.65-0.83,18.95,0.28c1.96,0.34,3.94-0.61,6-0.59
		c12.07,0.09,24.14,0.2,36.21-0.01c7.58-0.14,15.1,1.13,22.67,0.67c2.95-0.18,2.61,2.63,3.97,3.88c-0.21,0.64-0.43,1.28-0.64,1.93
		c-0.86,0-1.71,0-2.57,0c-0.15-0.14-0.31-0.42-0.46-0.41c-4.64,0.2-9.21-0.63-13.82-0.91C199.5,105.41,197.66,105.09,196.95,102.99z
		"/>
	<path class="st2" d="M90.43,106.84c0.43,0,0.86,0,1.28,0c0.22,1.58,1.46,1.16,2.47,1.3c1.53,0.2,3.2-0.6,4.59,0.62
		c-1.17,1.17-2.65,0.65-3.96,0.61c-8.87-0.29-17.75-0.99-26.62-0.93c-7.99,0.06-15.74-1.75-23.64-2.16
		c-2.72-0.14-3.43-1.66-3.53-3.94c8.41-1.1,16.83-0.77,25.25-0.6c0.02,0.39,0.04,0.78,0.06,1.17c-6.37,0-12.74,0-19.11,0
		c1.08,1.7,2.38,1.37,3.55,1.32c10.77-0.49,21.42,0.48,31.97,2.61C85.33,107.39,87.87,109.47,90.43,106.84z"/>
	<path class="st8" d="M120.63,97.81c24.97,0.2,49.95-1.75,75.15,0.23c-1.11,0.79-2.13,0.44-3.07,0.44
		c-22.95,0.04-45.9,0.06-68.85,0.06c-1.12,0-2.38,0.41-3.32-0.64L120.63,97.81z"/>
	<path class="st12" d="M218.13,106.84c0.21-0.64,0.43-1.28,0.64-1.93c1.78,1.04,3.82,0.92,5.6,0.54c3.91-0.84,7.82-0.36,11.73-0.55
		c0.74,0,1.49,0.1,2.21-0.01c5.58-0.89,10.88,1.54,16.4,1.3c-0.95,1.04-2.2,0.61-3.32,0.62c-9.59,0.04-19.18,0.03-28.76,0.03
		C221.13,106.84,219.63,106.84,218.13,106.84z"/>
	<path class="st12" d="M231.02,88.4c5.31,0,10.63,0,15.94,0c0.04,0.32-0.01,0.85,0.14,0.92c3.7,1.65,2.72,4.45,1.83,7.24
		c-1.18-0.09-1.47-0.76-1.01-1.73c0.38-0.81,0.03-1.43-0.28-2.09c-0.75-2.65-3.03-3.02-5.2-3.17c-2.94-0.2-5.91-0.02-8.86-0.07
		C232.62,89.47,231.35,89.97,231.02,88.4z"/>
	<path class="st8" d="M108.42,98.41c0.43,0.03,0.85,0.06,1.28,0.09c-0.51,1.21-1.55,1.3-2.66,1.3c-11.94,0.01-23.87,0.03-35.81,0.04
		c-0.74,0-1.52,0.04-2-0.7c0,0,0.02-0.02,0.02-0.01c2.8-0.04,5.6-0.08,8.39-0.12c2.33,0.02,4.66,0.03,6.99,0.05
		c2.8,0,5.61-0.01,8.41-0.01c2.36,0.13,4.73,0.32,7-0.61C102.83,98.42,105.63,98.41,108.42,98.41z"/>
	<path class="st13" d="M247.64,92.73c0.31,0.67,0.66,1.29,0.28,2.09c-0.46,0.97-0.17,1.65,1.01,1.73c-0.68,1.82-2.38,2.06-3.93,2.54
		c-0.44-0.73-1.19-0.53-1.85-0.6c0.19-1.55-0.27-3.01-0.63-4.48C244.21,93.52,245.69,92.21,247.64,92.73z"/>
	<path class="st2" d="M112.25,102.35c-2.16,1.35-4.55,0.49-6.82,0.6c-3.5,0.16-7.01,0.04-10.51,0.04c0.1-0.89,0.65-1.15,1.5-1.3
		c4.89-0.84,9.84,0.7,14.74-0.35C111.44,101.29,111.89,102,112.25,102.35z"/>
	<path class="st8" d="M243.15,98.5c0.66,0.07,1.4-0.12,1.85,0.6c-11.28,0.02-22.55,0.05-33.83,0.03c-1.11,0-2.37,0.43-3.3-0.63
		c0.84-0.03,1.69-0.05,2.53-0.08c3.01,0,6.02,0,9.03,0c2.34,0,4.68,0.01,7.02,0.01c2.79,0.01,5.58,0.01,8.36,0.02
		C237.6,98.47,240.37,98.48,243.15,98.5z"/>
	<path class="st9" d="M139.87,94.01c1.74,0,3.48-0.02,5.22,0.01c0.47,0.01,1.17-0.23,1.29,0.49c0.06,0.34-0.18,0.91-0.46,1.1
		c-1.2,0.8-0.85-0.76-0.94-0.76c-1.71-0.1-3.42-0.07-5.13-0.07C139.86,94.52,139.87,94.27,139.87,94.01z"/>
	<path class="st2" d="M80.46,102.24c0.05,0.6-0.43,0.7-0.81,0.67c-0.35-0.03-0.9-0.22-0.99-0.47c-0.2-0.57,0.38-0.62,0.77-0.67
		C79.85,101.71,80.25,101.79,80.46,102.24z"/>
	<path class="st2" d="M72.44,101.76c0.41,0.04,0.91,0.03,0.91,0.59c0,0.56-0.5,0.58-0.91,0.58c-0.41,0-0.91-0.02-0.91-0.58
		C71.54,101.8,72.03,101.79,72.44,101.76z"/>
	<path class="st2" d="M89.15,102.99c-0.43,0-0.86,0-1.28,0c0.09-0.47,0.09-1.1,0.78-0.95C88.87,102.09,88.98,102.66,89.15,102.99z"
		/>
	<path class="st2" d="M85.3,102.99c-0.43,0-0.86,0-1.29,0c0.09-0.47,0.09-1.1,0.78-0.95C85.02,102.09,85.13,102.66,85.3,102.99z"/>
	<path class="st15" d="M242.51,101.71c-0.64,0-1.29,0-1.93,0C241.23,100.88,241.87,100.88,242.51,101.71z"/>
	<path class="st8" d="M120.55,97.89c-0.08-0.11-0.16-0.22-0.24-0.33c0.11,0.08,0.22,0.16,0.33,0.24
		C120.63,97.81,120.55,97.89,120.55,97.89z"/>
	<path class="st15" d="M241.87,119.68c5.74-4.1,12.37-2.06,18.61-2.75c3.46-0.38,6.84-0.24,10.25,0.18
		c-3.1,2.68-6.36,4.6-10.79,3.94c-1.87-0.28-7.16,0.55-7.81,0.55c-3.25-0.43-6.61-2.42-9.63,0.64c-0.94,0.54-2.1,0.77-2.57,1.93
		c-3.93,2.15-7.54,4.75-10.91,7.7c-1.45,0.37-2.74,0.96-3.21,2.56l0,0c-1.69-0.23-2.79,0.97-3.96,1.81
		c-10.68,7.71-21.32,15.47-31.97,23.22c0.41-4.09-1.97-1.23-3.18-1.27c-0.02-1.93-0.04-3.87-0.06-5.8c-0.02-0.4,0.11-0.96-0.1-1.18
		c-0.53-0.56-0.59,0.24-0.79,0.45c-0.47,0.47-0.99,0.72-1.64,0.76c-0.12-0.66-0.26-1.4-1.17-0.92c-1.13,0.59-2.24,1.24-3.28,1.98
		c-0.94,0.67-1.83,2.83-2.82,1.53c-0.97-1.28,0.91-2.7,2.05-3.75c0.14-0.13,0.41-0.11,0.61-0.18c1.65-0.63,2.51-1.91,1.89-3.52
		c-0.71-1.86-2.49-1.81-4.09-1.29c-1.82,0.58-3.2,2-4.92,2.87c-2.1,1.06-4.82,1.24-6.31,2.9c-3.61,4.01-8.98,5.71-12.36,9.87
		c-2.11,2.59-5.7,3.54-7.32,6.49c-1.14,2.07-2.55,3.58-4.62,4.57c-0.7,0.02-1.46-0.11-1.92,0.63c-2.29,0.66-3.75,2.51-5.46,3.95
		c-1.64,1.38-0.5,1.81,0.97,1.83c-0.22,0.65-0.43,1.29-0.65,1.94c-0.85,0.22-1.71,0.44-2.56,0.65c-0.2-0.79,0.9-1.53,0.02-2.45
		c-1.61,0.56-2.66,2.04-3.81,3.07c-1.48,1.31,0.52,1.07,1.25,1.27c-0.22,0.65-0.44,1.29-0.66,1.94c-1.92,0.31-3.19,1.4-3.85,3.22
		c-2.54,0.36-4.57,1.48-5.77,3.84c-1.99,0.23-1.96,2.88-3.87,3.22c-1.78-0.35-2.57,1.27-3.84,1.93c-0.27-1.02-1.44-1.14-1.93-1.94
		c6.98-5.8,13.95-11.62,20.94-17.41c13.12-10.88,26.26-21.76,39.39-32.64c3.49-2.76,7.09-5.4,10.43-8.32
		c1.66-1.45,9.59-11.66,11.81-10.93c0.7,0.23-1.47-2.5-0.86,1.71c-0.87,1.88-1.39,3.97-1.48,5.86c-0.34,6.61,0.33,13.2,0.6,19.8
		c0.07,1.84,0.32,2.16,2.19,1.24c1.94-0.96,3.23-2.46,4.79-3.79c4.13-3.53,8.85-6.28,13.11-9.69c5.12-4.09,10.94-7.28,16.21-11.19
		C231.8,126.96,237.49,124.21,241.87,119.68z M124.83,186.8c0.16-0.18,0.54-0.43,0.64-0.77c0.14-0.49-0.26-0.79-0.69-0.6
		c-0.31,0.14-0.58,0.54-0.7,0.88C123.98,186.61,124.25,186.85,124.83,186.8z"/>
	<path class="st8" d="M184.12,152.41c0.64-0.04,1.17-0.29,1.64-0.76c0.21-0.21,0.26-1.01,0.79-0.45c0.21,0.23,0.08,0.78,0.1,1.18
		c-11.92,9.09-23.86,18.16-35.77,27.27c-13.92,10.65-27.8,21.34-41.73,31.98c-5.99,4.57-12.05,9.04-18.04,13.6
		c-0.81,0.62-1.57,1.07-2.6,0.97c0,0-0.02-0.02-0.02-0.02c2.17-3.15,5.83-4.56,8.43-7.16c2-2,5.07-3.06,5.81-6.24
		c0.2-0.2,0.4-0.4,0.6-0.61c1.45-0.43,2.53-0.96,0.7-2.38c-0.63-0.49-0.94-1.21-0.64-1.94c0.43-1.03,1.26-0.07,1.89-0.23
		c0.64-0.17,1.72,0.88,1.83-0.7c0.43-0.03,0.85-0.05,1.28-0.08c-0.1,2.62,1.32,1.92,2.5,1.02c3.99-3.08,7.94-6.21,11.84-9.4
		c1.94-1.58,0.45-1.71-0.89-1.81c0.23-0.42,0.45-0.84,0.68-1.26c2.19-0.09,2.95-2.2,4.49-3.2c1.74-0.74,3.07-2.04,4.51-3.19
		c1.28-1.98,4.16-2.11,5.13-4.45c1.77-0.4,2.92-1.86,4.46-2.65c0.09,0.87,0.47,1.34,1.44,1.16c2.61-0.48,3.67-2.18,3.05-4.99
		c1.37,0,2.64,0.07,3.91-0.93c4.59-3.62,9.49-6.85,13.93-10.63C169.86,161.08,177.85,158.01,184.12,152.41z"/>
	<path class="st9" d="M64.77,226.83c-1.97-0.42-2.83-1.68-3.34-3.6c-0.36-1.4-0.04-3.25-1.79-4.09c0-0.43,0-0.85,0-1.28
		c0.64-0.22,1.27-0.43,1.91-0.65c1.8-0.08,3.49-0.8,5.35-0.66c2.94,0.21,3.83,1.33,3.68,4.28c-0.13,2.44-2.48,2.23-3.67,3.37
		c3.56,3.76,8.66,4.27,14.67,3.72c1.03-0.09,1.02,0.29,1.15,0.91c-0.27,1-2.47,0.08-1.9,1.92c-0.01,0.2-0.02,0.4-0.02,0.59
		c-0.43,0-0.85,0-1.28,0c-0.8-0.44-1.63-0.75-2.57-0.64c-0.22-0.01-0.43-0.01-0.65-0.02c-2.65-2.03-5.8-2.65-8.99-3.17c0,0,0,0,0,0
		c-0.26-0.55-0.75-0.64-1.29-0.65c0,0,0.01,0.01,0.01,0.01C65.63,226.19,65.21,226.17,64.77,226.83z"/>
	<path class="st8" d="M80.83,230.73c-0.57-1.83,1.63-0.92,1.9-1.92c1.06-0.24,2.13-0.48,3.19-0.73l0.02,0.03
		C84.94,230.38,82.91,230.61,80.83,230.73z"/>
	<path class="st8" d="M88.51,226.19c-0.1,1.65-1.19,1.98-2.57,1.93c0,0-0.02-0.03-0.02-0.03c0.58-1.01,1.31-1.82,2.57-1.92
		L88.51,226.19z"/>
	<path class="st13" d="M79.52,231.33c0.43,0,0.85,0,1.28,0c-0.09,0.47-0.09,1.1-0.78,0.96C79.8,232.23,79.69,231.66,79.52,231.33z"
		/>
	<path class="st2" d="M45.52,133.14c2.54,1.69,5.42,1.24,8.22,1.3c2.83,0.06,5.69-0.34,8.45,0.63c0,0.22-0.21,0.86,0,1.07
		c0.22,3.06,0.78,5.75,1.35,8.74c0.93,4.84,0.74,9.88,2.5,14.57c0.97,8.57,1.97,17.14,2.89,25.71c0.23,2.11,1.11,4.2,0.35,6.37
		c-5.51-3.67-11.01-2.17-14.14,3.85c-1.24-3.5-1.34-7.27-1.6-10.84c-0.42-5.52-1.81-10.84-2.37-16.32
		c-0.82-8.07-2.43-16.05-3.73-24.07c-0.08-0.48-0.42-0.93-0.64-1.39c0-0.43,0-0.86-0.01-1.29c0-0.42,0-0.85,0-1.27
		C46.74,137.79,45.34,135.61,45.52,133.14z M53.72,144.56c-1.46,5.35,2.98,14.64,8.54,17.74C62.75,154.81,60.16,148.71,53.72,144.56
		z M56.37,168.48c1.53,2.16-0.33,5.43,1.62,7.88c1.51,1.91,3.28,3.62,4.97,5.38c0.45,0.47,0.61,1.61,1.64,1.08
		c0.95-0.5,0.52-1.38,0.52-2.24c0.01-5.8-3.24-9.87-6.96-13.75c-0.37-0.38-0.7-0.94-1.3-0.56
		C56.21,166.67,56.49,167.41,56.37,168.48z M57.89,185.17c0.19,2.5,1.62,3.24,3.34,3.59c1.35,0.27,2.46-0.06,3.01-2.08
		C61.68,187.84,60.22,185.77,57.89,185.17z"/>
	<path class="st2" d="M55.15,202.45c-0.01-1.07-0.01-2.14-0.02-3.21c0.01-0.43,0.01-0.86,0.02-1.29c2.25-0.38,0.97-2.67,2.11-3.86
		c2.83-2.95,6.48-3.52,12.01-1.25c1.51,2.34,1.57,5.07,1.84,7.67c0.55,5.19,2.95,8.82,7.59,11.34c2.59,1.41,5.3,0.8,7.88,1.51
		c-0.84,2.59-3.01,1.88-4.82,1.86c-6.36-0.06-9.98-5.65-15.38-7.71c-1.08-0.41-1.01-1.77-1-2.86c0-0.99-0.23-1.83-1.34-1.93
		c-0.85,4.75-1.67,9.3-2.49,13.85c-0.64,0-1.28-0.01-1.92-0.01c-0.87-2.6-1.71,0.8-2.57,0.01c-0.59-2.53-0.75-5.1-0.66-7.69
		C55.76,206.78,56.18,204.48,55.15,202.45z"/>
	<path class="st12" d="M69.28,192.84c-5.53-2.27-9.18-1.7-12.01,1.25c-1.15,1.2,0.14,3.48-2.11,3.86c-0.01-0.85-0.01-1.7-0.02-2.56
		c3.13-6.02,8.63-7.52,14.14-3.85C69.28,191.97,69.28,192.41,69.28,192.84z"/>
	<path class="st12" d="M73.15,236.44c-3.06,1.96-6.27,1.62-9.5,0.58c-0.81-0.26-1.24-0.95-2.48-0.44c-1.15,0.47-0.32-0.84-0.25-1.39
		c3.06-2.06,6.5-1.19,9.8-1.2C72.11,233.98,72.93,235.03,73.15,236.44z"/>
	<path class="st8" d="M67.32,227.5c3.19,0.52,6.33,1.14,8.99,3.17C72.73,231.26,69.94,229.63,67.32,227.5z"/>
	<path class="st2" d="M58.34,226.86c-0.89-2.52-0.58-5.14-0.65-7.72c0.43,0,0.86,0,1.29,0C58.66,221.7,59.69,224.38,58.34,226.86z"
		/>
	<path class="st10" d="M58.98,219.14c-0.43,0-0.86,0-1.29,0c-0.92-0.68-0.54-1.68-0.63-2.57c0.86,0.79,1.7-2.61,2.57-0.01
		c-0.66,0.44-0.65,0.87,0.01,1.3c0,0.43,0,0.85,0,1.28C59.42,219.13,59.2,219.14,58.98,219.14z"/>
	<path class="st8" d="M64.77,226.83c0.44-0.66,0.86-0.64,1.27,0.03C65.62,226.85,65.19,226.84,64.77,226.83z"/>
	<path class="st8" d="M66.03,226.85c0.54,0,1.02,0.1,1.29,0.65C66.78,227.5,66.3,227.39,66.03,226.85z"/>
	<path class="st13" d="M55.15,202.45c1.02,2.03,0.61,4.33,1.24,6.43C53.45,207.29,53,204.97,55.15,202.45z"/>
	<path class="st13" d="M46.79,140.22c0,0.42,0,0.85,0,1.27c-0.47-0.09-1.09-0.09-0.95-0.77C45.89,140.49,46.46,140.38,46.79,140.22z
		"/>
	<path class="st13" d="M241.87,119.68c-4.38,4.53-10.08,7.28-15.06,10.98c-5.27,3.92-11.09,7.11-16.21,11.19
		c-4.27,3.4-8.98,6.16-13.11,9.69c-1.56,1.33-2.85,2.82-4.79,3.79c-1.87,0.93-2.12,0.6-2.19-1.24c-0.27-6.6-0.94-13.18-0.6-19.8
		c0.1-1.89-0.88-3.76-0.02-5.64c1.28-2.43,3.04-4.42,5.37-5.89c1.14-0.72,3.4-3.09,3.61-3.1c1.29-1.07,2.57-2.13,3.86-3.2
		c0.55,1.24,1.45,2.37,1.29,3.85c-2.31,3.18-6.39,4.73-7.85,8.72c3-2.97,7.05-4.8,9.14-8.72c2.97-1.3,6-2.49,9.3-2.08
		c2.5,0.31,5.17,0.31,7.23,2.12c0.34,0.3,0.35,1.17,1.02,0.84c0.4-0.2,0.86-0.89,0.8-1.28c-0.53-3.27,1.76-2.25,3.13-1.89
		c1.67,0.44,3.21,0.54,4.55-0.52c2.1-1.66,3.43-0.91,4.59,1.12c0.99,1.73,2.03,2.99,2.84-0.13c0.17-0.66,0.59-1.31,1.3-1.14
		C241.17,117.62,241.79,118.49,241.87,119.68z M221.93,125.96c0.74,0.09,1.22-0.21,1.21-0.82c-0.03-1.35-1.15-1.71-2.17-1.98
		c-0.64-0.17-0.88,0.43-0.86,1.02C220.15,125.42,221.13,125.66,221.93,125.96z M215.84,126.16c1.1,0.36,1.92,1.72,3.23,0.74
		c0.15-0.11-0.07-1.07-0.37-1.37C217.57,124.46,216.78,125.58,215.84,126.16z M227.98,120.95c-0.22,0.24-0.54,0.44-0.53,0.63
		c0.01,0.19,0.32,0.49,0.53,0.52c0.4,0.06,0.85-0.09,0.71-0.63C228.64,121.27,228.27,121.16,227.98,120.95z M213.69,126.86
		c-0.25,0.32-0.53,0.51-0.54,0.72c-0.02,0.25,0.13,0.68,0.3,0.74c0.48,0.15,0.73-0.21,0.71-0.64
		C214.14,127.45,213.9,127.23,213.69,126.86z"/>
	<path class="st10" d="M218.13,106.84c1.5,0,3,0,4.5,0.01c1.06,1.1,2.42,0.61,3.64,0.61c13.54,0.04,27.08,0.02,40.63,0.03
		c-1.96,2.69-5.12,1.9-7.74,2.46c-1.92,0.41-4.01,0.65-5.97,0.65c-4.57,0-9.09,0.2-13.65,0.64c-6.13,0.59-12.35,0.97-18.47,0.55
		c-3.51-0.24-6.54,0.85-9.79,1.3c-1.1,0.15-2.43,0.69-2.77-1.12c0.32-1.5,1.91-1.98,2.57-3.21c1.5-0.64,3-1.28,4.49-1.92
		C216.42,106.84,217.27,106.84,218.13,106.84z"/>
	<path class="st15" d="M205.3,120.32c-2.09,3.92-6.14,5.75-9.14,8.72c1.45-3.99,5.53-5.54,7.85-8.72
		C204.44,120.32,204.87,120.32,205.3,120.32z"/>
	<path class="st11" d="M60.27,121.61c2.13,5.08,0.72,6.8-5.02,7.14c-3.42,0.2-6.39-1.63-9.72-1.38c0-1.28,0-2.56,0-3.84
		c0.82-0.03,1.25-0.46,1.27-1.28c1.5,0,2.99-0.01,4.49-0.01c1.29,0.89,2.49,1.35,3.21-0.63C56.42,121.77,58.35,122.66,60.27,121.61z
		"/>
	<path class="st2" d="M59.63,113.26c-0.26,1.21,3.19,7.96,0,8.34c-3.79,0.45-11.36-5.44-14.98-4.62c-0.93,0.21-1.33-0.93-1.53-1.76
		c-0.18-0.76,0.27-1.17,1.02-1.29c4.78-0.74,9.57-1.34,14.41-1.26C58.92,112.69,59.27,113.06,59.63,113.26z"/>
	<path class="st10" d="M54.5,121.61c-0.73,1.97-1.93,1.52-3.21,0.63C52.19,121.18,53.41,121.75,54.5,121.61z"/>
	<path class="st10" d="M46.8,122.25c-0.03,0.82-0.45,1.25-1.27,1.28C45.53,122.69,45.96,122.26,46.8,122.25z"/>
	<path class="st10" d="M184.12,152.41c-6.27,5.6-14.25,8.67-20.66,14.11c-4.45,3.78-9.34,7.02-13.93,10.63
		c-1.27,1-2.53,0.93-3.91,0.93c-0.6-2.23-3.09-3.04-3.85-5.14c2.07-0.99,3.48-2.5,4.62-4.57c1.62-2.95,5.21-3.89,7.32-6.49
		c3.38-4.16,8.75-5.86,12.36-9.87c1.49-1.66,4.22-1.83,6.31-2.9c1.72-0.87,3.1-2.28,4.92-2.87c1.6-0.51,3.38-0.56,4.09,1.29
		c0.62,1.61-0.25,2.89-1.89,3.52c-0.2,0.08-0.47,0.06-0.61,0.18c-1.15,1.05-3.02,2.47-2.05,3.75c0.99,1.3,1.88-0.86,2.82-1.53
		c1.04-0.74,2.15-1.39,3.28-1.98C183.85,151.02,184,151.75,184.12,152.41z"/>
	<path class="st2" d="M87.85,213.34c3.09-2.34,6.24-4.63,9.27-7.05c4.23-3.37,8.38-6.84,12.56-10.26c0.49,0.8,1.66,0.92,1.93,1.94
		c-0.27,0.51-0.74,0.62-1.26,0.63c-0.22,0.22-0.44,0.43-0.66,0.65c0,0,0.01,0,0.01,0c-2.32,0.32-4.03,1.37-4.51,3.85
		c-0.46,0.21-0.89,0.52-1.37,0.61c-3.81,0.76-4.41,2.37-1.95,5.37c0.75,0.91,1.28,1.91,1.46,3.09c-0.2,0.2-0.4,0.4-0.6,0.61
		c-3.84-1.97-7.46-2.5-10.96,0.94C91.37,214.1,88.92,215.73,87.85,213.34z"/>
	<path class="st3" d="M141.76,172.94c0.76,2.1,3.25,2.92,3.85,5.14c0.62,2.81-0.44,4.51-3.05,4.99c-0.98,0.18-1.35-0.29-1.44-1.16
		c-0.6-1.27-1.17-2.57-2.57-3.2c0.01-0.84,0.45-1.27,1.28-1.3c1.97,0.61,2.58,2.25,2.8,4.41c1.05-1.07,1.94-1.81,1.17-2.98
		c-0.9-1.38-2.08-2.44-3.95-2.1c-0.01-1.06-0.02-2.11-0.02-3.17C140.31,172.83,141.06,172.96,141.76,172.94z"/>
	<path class="st3" d="M136.66,184.56c-0.97,2.34-3.86,2.46-5.13,4.45c-0.18-1.63-1.38-2.44-2.59-3.23c0.22-0.65,0.44-1.29,0.66-1.94
		c0.85-0.63,1.69-1.26,2.54-1.89c0.85-0.22,1.71-0.44,2.56-0.65C134.7,182.77,135.81,183.58,136.66,184.56z"/>
	<path class="st13" d="M127.01,192.19c-1.54,1-2.3,3.11-4.49,3.2c-1.41-0.43-2.56-1.18-3.2-2.57c1.2-2.36,3.23-3.48,5.77-3.84
		C125.72,190.05,126.37,191.12,127.01,192.19z"/>
	<path class="st13" d="M110.34,198.61c0.52-0.01,0.99-0.13,1.26-0.63c1.27-0.66,2.06-2.28,3.84-1.93c0.24,1.48,2.07,2.17,1.94,3.84
		c-1.11,1.54-2.89,1.91-4.51,2.57c-1.58-0.55-2.36-1.89-3.18-3.2c0,0-0.01,0-0.01,0C109.91,199.04,110.12,198.82,110.34,198.61z"/>
	<path class="st10" d="M127.01,192.19c-0.64-1.07-1.29-2.14-1.93-3.21c0.66-1.82,1.93-2.91,3.85-3.22c1.21,0.8,2.41,1.61,2.59,3.23
		C130.08,190.16,128.75,191.46,127.01,192.19z"/>
	<path class="st11" d="M136.66,184.56c-0.84-0.97-1.95-1.79-1.95-3.27c0.22-0.65,0.43-1.29,0.65-1.94c0,0,0,0,0,0
		c1.07-0.21,2.14-0.43,3.2-0.64c1.4,0.63,1.97,1.93,2.57,3.2C139.58,182.7,138.43,184.15,136.66,184.56z"/>
	<path class="st2" d="M117.38,199.88c0.14-1.67-1.69-2.36-1.94-3.84c1.9-0.34,1.88-2.98,3.87-3.22c0.64,1.38,1.8,2.14,3.2,2.57
		c-0.23,0.42-0.45,0.84-0.68,1.26c0,0,0.02,0,0.02,0c-0.22,0.22-0.44,0.44-0.66,0.66l0.02-0.02c-0.22,0.22-0.44,0.43-0.66,0.65
		l0.01-0.01c-0.53,0-1.01,0.1-1.24,0.66C118.96,199.44,118.33,199.89,117.38,199.88z"/>
	<path class="st10" d="M139.84,173.58c0.01,1.06,0.02,2.11,0.02,3.17l-0.02,0.04c-2.03-0.07-3.72,0.44-4.49,2.57c0,0,0,0,0,0
		c-1.47-0.01-2.61-0.45-0.97-1.83C136.09,176.09,137.55,174.23,139.84,173.58z"/>
	<path class="st2" d="M252.14,121.6c-1.56,1.27-3.45,0.76-5.07,0.52c-1.59-0.23-3.04,0.06-4.56,0.12
		C245.53,119.18,248.88,121.17,252.14,121.6z"/>
	<path class="st10" d="M132.14,181.95c-0.85,0.63-1.69,1.26-2.54,1.89c-0.73-0.2-2.73,0.05-1.25-1.27c1.15-1.02,2.2-2.5,3.81-3.07
		C133.04,180.42,131.94,181.16,132.14,181.95z"/>
	<path class="st11" d="M229.04,131.87c-0.2,1.94-1.73,2.23-3.21,2.56C226.3,132.83,227.58,132.24,229.04,131.87z"/>
	<path class="st10" d="M124.83,186.8c-0.57,0.06-0.85-0.18-0.75-0.49c0.11-0.34,0.39-0.74,0.7-0.88c0.43-0.19,0.83,0.12,0.69,0.6
		C125.37,186.36,124.99,186.62,124.83,186.8z"/>
	<path class="st10" d="M87.85,213.34c1.08,2.39,3.52,0.75,3.92,0.37c3.5-3.43,7.12-2.9,10.96-0.94c-0.74,3.18-3.81,4.24-5.81,6.24
		c-2.6,2.6-6.25,4.01-8.43,7.16c-1.26,0.1-1.99,0.91-2.57,1.92c-1.06,0.24-2.13,0.48-3.19,0.73c-0.13-0.62-0.12-1.01-1.15-0.91
		c-6.01,0.55-11.11,0.05-14.67-3.72c1.19-1.14,3.55-0.93,3.67-3.37c0.15-2.95-0.73-4.07-3.68-4.28c-1.86-0.13-3.55,0.59-5.35,0.66
		c0-0.21,0-0.43,0-0.64c0.82-4.55,1.64-9.11,2.49-13.85c1.11,0.11,1.35,0.94,1.34,1.93c0,1.09-0.08,2.44,1,2.86
		c5.39,2.06,9.02,7.65,15.38,7.71c1.81,0.02,3.98,0.73,4.82-1.86C87.01,213.35,87.43,213.35,87.85,213.34z"/>
	<path class="st9" d="M117.38,199.88c0.94,0.01,1.58-0.44,1.95-1.29c0.53,0,1-0.12,1.24-0.66c0,0-0.01,0.01-0.01,0.01
		c0.22-0.22,0.44-0.43,0.66-0.65c0,0-0.02,0.02-0.02,0.02c0.22-0.22,0.44-0.44,0.66-0.66c0,0-0.02,0-0.02,0
		c1.33,0.1,2.82,0.22,0.88,1.81c-3.9,3.19-7.85,6.33-11.84,9.4c-1.18,0.91-2.6,1.6-2.5-1.01c1.17-1.8,3.83-2.07,4.48-4.39
		C114.49,201.79,116.27,201.42,117.38,199.88z"/>
	<path class="st15" d="M112.87,202.45c-0.66,2.32-3.32,2.6-4.48,4.39c-0.43,0.03-0.85,0.05-1.28,0.08
		c-0.64-1.27-1.28-2.55-1.92-3.82c0.48-2.48,2.18-3.53,4.51-3.85C110.51,200.56,111.3,201.9,112.87,202.45z"/>
	<path class="st11" d="M105.19,203.1c0.64,1.27,1.28,2.55,1.92,3.82c-0.11,1.58-1.19,0.53-1.83,0.7c-0.64,0.16-1.47-0.8-1.89,0.23
		c-0.3,0.73,0.01,1.45,0.64,1.94c1.82,1.42,0.74,1.94-0.7,2.38c-0.17-1.18-0.71-2.17-1.46-3.09c-2.46-3-1.86-4.61,1.95-5.37
		C104.3,203.62,104.73,203.31,105.19,203.1z"/>
	<path class="st13" d="M61.55,216.57c0,0.21,0,0.43,0,0.64c-0.64,0.22-1.27,0.43-1.91,0.65c-0.66-0.43-0.67-0.86-0.01-1.3
		C60.27,216.56,60.91,216.56,61.55,216.57z"/>
	<path class="st3" d="M53.72,144.56c6.44,4.15,9.03,10.24,8.54,17.74C56.7,159.2,52.25,149.91,53.72,144.56z"/>
	<path class="st13" d="M56.37,168.48c0.13-1.06-0.16-1.81,0.48-2.21c0.6-0.38,0.93,0.18,1.3,0.56c3.72,3.87,6.98,7.95,6.96,13.75
		c0,0.86,0.43,1.74-0.52,2.24c-1.02,0.54-1.18-0.6-1.64-1.08c-1.69-1.76-3.46-3.47-4.97-5.38C56.04,173.91,57.9,170.63,56.37,168.48
		z"/>
	<path class="st3" d="M57.89,185.17c2.33,0.6,3.79,2.66,6.35,1.51c-0.55,2.02-1.66,2.35-3.01,2.08
		C59.51,188.41,58.08,187.67,57.89,185.17z"/>
	<path class="st11" d="M221.93,125.96c-0.81-0.29-1.78-0.53-1.82-1.77c-0.02-0.59,0.22-1.19,0.86-1.02
		c1.02,0.26,2.14,0.63,2.17,1.98C223.15,125.75,222.67,126.05,221.93,125.96z"/>
	<path class="st11" d="M215.84,126.16c0.94-0.58,1.73-1.71,2.86-0.63c0.31,0.29,0.52,1.26,0.37,1.37
		C217.76,127.88,216.94,126.52,215.84,126.16z"/>
	<path class="st11" d="M227.98,120.95c0.3,0.2,0.67,0.32,0.72,0.52c0.14,0.54-0.31,0.69-0.71,0.63c-0.21-0.03-0.53-0.33-0.53-0.52
		C227.44,121.4,227.76,121.2,227.98,120.95z"/>
	<path class="st11" d="M213.69,126.86c0.22,0.36,0.45,0.58,0.47,0.82c0.02,0.43-0.23,0.8-0.71,0.64c-0.17-0.06-0.32-0.49-0.3-0.74
		C213.16,127.37,213.43,127.18,213.69,126.86z"/>
	<path class="st15" d="M110.34,198.61c-0.22,0.22-0.44,0.43-0.66,0.65C109.91,199.04,110.12,198.82,110.34,198.61z"/>
	<path class="st2" d="M139.86,176.75c1.87-0.34,3.04,0.71,3.95,2.1c0.76,1.17-0.12,1.9-1.17,2.98c-0.22-2.16-0.83-3.8-2.8-4.41
		c0-0.21,0-0.42,0-0.63L139.86,176.75z"/>
	<path class="st15" d="M139.84,176.78c0,0.21,0,0.42,0,0.63c-0.83,0.03-1.27,0.45-1.28,1.3c-1.07,0.21-2.14,0.43-3.2,0.64
		C136.12,177.22,137.81,176.71,139.84,176.78z"/>
	<path class="st8" d="M120.57,197.93c-0.24,0.54-0.71,0.66-1.24,0.66C119.57,198.03,120.04,197.93,120.57,197.93z"/>
	<path class="st8" d="M121.22,197.29c-0.22,0.22-0.44,0.43-0.66,0.65C120.79,197.72,121,197.51,121.22,197.29z"/>
	<path class="st8" d="M121.86,196.65c-0.22,0.22-0.44,0.44-0.66,0.66C121.43,197.09,121.64,196.87,121.86,196.65z"/>
	<path class="st2" d="M121.23,226.84"/>
	<path class="st2" d="M140.05,198.6"/>
	<path class="st2" d="M38.24,135.29"/>
	<path class="st15" d="M189.84,116.02"/>
</g>
</svg>
