<?xml version="1.0" encoding="utf-8"?>
<!-- Generator: Adobe Illustrator 23.0.1, SVG Export Plug-In . SVG Version: 6.00 Build 0)  -->
<svg version="1.1" xmlns="http://www.w3.org/2000/svg" xmlns:xlink="http://www.w3.org/1999/xlink" x="0px" y="0px"
	 viewBox="0 0 300 300" style="enable-background:new 0 0 300 300;" xml:space="preserve">
<style type="text/css">
	.st0{fill:#424242;}
	.st1{fill:#1C1B18;}
	.st2{fill:#B3A99C;}
	.st3{fill:#AEA498;}
	.st4{fill:#BEB2A7;}
	.st5{fill:#282828;}
	.st6{fill:#141414;}
	.st7{fill:#202020;}
	.st8{fill:#4B453E;}
	.st9{fill:#0F0F0F;}
	.st10{fill:#666362;}
	.st11{fill:#0B0B0B;}
	.st12{fill:#948A7E;}
	.st13{fill:#7A726A;}
	.st14{fill:#060606;}
	.st15{fill:#9E9E9E;}
</style>
<g id="background">
	<rect x="4" y="4" class="st0" width="291" height="291"/>
</g>
<g id="Layer_1">
	<path class="st1" d="M269.69,104.78c0.13,0.08-1.63,1.41-1.5,1.49c0.01,1.37-35.2,28.67-38.71,32.27
		c-3.86,3.95-15.82,21.18-18.47,17.28c-0.62-0.91-0.75-4.11-1.27-5.08c1.85-3.48,0.8-7.21-1.75-8.4c-2.31-1.08-5.16-1.98-6.24,1.81
		c-0.33,1.18-1.23,1.38-2.07,1.56c-3.34,0.71-4.09,3.04-3.93,5.99c-1.67,1.28-0.47,2.53,0.03,3.78c-4.63-0.03-1.38,2.99-1.79,4.6
		c2.59,0.55,0.57,3.08,2.02,4.64c1.55-1.99,2.62-4.58,5.59-4.37c-0.17,1.67,1.27,2.45,2.01,3.62c-2.89,0.09-5.3,1.33-7.56,3.04
		c4.6,3.81,9.6,3.66,12.75-0.22c1.22-1.5,1.37-2.46-0.86-2.8c0.39-0.93,0.79-1.86,1.18-2.79l-0.05,0.05c1.1-0.08,1.78-0.62,1.9-1.76
		c0.02-1.32,0.03-2.64,0.05-3.97c4.93,0.42,5.57,1.36,3.82,5.69c-0.88,2.17-4.96,8.4-4.77,10.52c0,0,0,0.31-0.32,0.63l-0.63,0.32
		c-0.33,0-0.65,0-0.98,0c-1.29-0.7-2.51-0.93-4.06-0.45c-2.7,0.83-5.54,1.2-8.29,1.88c-2.13,0.52-3.19-1.04-4.37-2.19
		c-0.62-0.6-0.14-1.43,0.61-1.95c3.85-2.7,1.59-6.59-0.47-7.24c-5.07-1.6-6.38-6.02-9.18-9.33c2-1.49,3.65-3.29,4.83-5.49
		l-0.02,0.02c0.88-0.37,1.25-0.99,0.98-1.94l-0.03,0.04c0.67,0.01,1-0.31,0.99-0.99l-0.04,0.04c0.67,0,0.95-0.37,0.99-0.99
		l-0.04,0.04c0.63-0.03,0.96-0.36,0.99-0.99l-0.03,0.04c1.34,0.04,1.81-0.79,1.94-1.94l-0.04,0.04c0.33-0.33,0.66-0.66,1-1
		l-0.03,0.04c1.06-0.51,1.16-1.4,0.99-2.41c0.19-0.11,0.34-0.26,0.44-0.45c1.04,0.25,1.91,0.06,2.42-0.99l-0.04,0.03
		c1.15-0.14,1.98-0.6,1.94-1.94l-0.04,0.03c2.32,0.05,3.94-0.69,3.85-3.38c0.2-0.09,0.34-0.23,0.43-0.43
		c0.77,0.08,1.32-0.16,1.48-0.99l-0.04,0.04c1.77,0.52,2.76-0.58,3.71-1.78c0.93-1.27,2,0.1,2.98-0.15
		c1.77,1.15,2.95,5.67,5.72,0.98c0.62-0.01,1.24-0.03,1.86-0.04c0,0,0.01,0,0.01,0c0.11,0.77,0.13,1.73,1.21,1.62
		c1.03-0.1,1.57-0.89,1.72-1.91c0.16-0.25,0.38-0.46,0.64-0.61c0.42-0.34,0.83-0.67,1.25-1.01c0,0-0.03,0.03-0.03,0.03
		c0.33-0.33,0.66-0.66,0.99-0.99c0,0-0.03,0.03-0.03,0.03c0.33-0.33,0.66-0.66,0.99-0.99l-0.03,0.03c0.33-0.33,0.65-0.65,0.98-0.98
		l-0.02,0.02c0.33-0.33,0.65-0.65,0.98-0.98l-0.02,0.02c0.33-0.32,0.65-0.65,0.98-0.97l-0.02,0.02c0.85,0.08,1.52-0.19,1.93-0.97
		c0,0-0.03,0.02-0.03,0.02c0.42-0.33,0.84-0.66,1.26-0.99c0.29-0.14,0.5-0.36,0.64-0.65c0.33-0.42,0.66-0.84,0.99-1.25
		c0,0-0.03,0.03-0.03,0.03c0.33-0.33,0.65-0.65,0.98-0.98l-0.03,0.03c0.42-0.33,0.83-0.66,1.25-0.99c0.29-0.14,0.5-0.36,0.64-0.65
		c0.34-0.47,0.68-0.93,1.02-1.4c0.61-0.53,1.23-1.05,1.84-1.58c0.33-0.37,0.67-0.75,1-1.12l-0.02,0.03
		c3.94-1.34,5.98-4.83,8.61-7.65l-0.04,0.04c0.65-0.65,1.3-1.3,1.95-1.95l-0.04,0.04c1.23-0.58,1.99-1.47,1.94-2.91l-0.03,0.04
		c1.08-0.63,0.85-1.28,0.01-1.92c-0.02-0.36-0.05-0.73-0.07-1.09c-0.01-0.21-0.02-0.41-0.02-0.62c0.03-1.65,0.06-3.31,0.08-4.96
		c3.08-2.9,6.12-6.08,10.49-1.93c0.02,0.93,0.03,1.85,0.05,2.77c-0.17,2.09,0.5,3.85,2.1,6.02c0.79-3.25,1.87-5.62,4.46-6.88
		C273.42,92.8,269.83,104.85,269.69,104.78z M266.5,98.71c-0.09,1.8-0.82,3.21,0.97,4.01C268.55,101.22,267.78,100.26,266.5,98.71z"
		/>
	<path class="st2" d="M187.17,45.92c0.64,0.05,1.28,0.09,1.92,0.14c1.07,1.53,2.34,2.96,3.17,4.62c1.98,3.96,5.08,5.07,9.36,4.87
		c4.07-0.19,8.24-0.73,12.28,0.66c1.32,0.45,2.56,0.16,2.81-1.59c0.96-0.01,1.92-0.02,2.88-0.03c-0.12,4.64-4.47,9.71-9,10.35
		c-1.39,0.2-3.16-0.26-3.83,1.26c-1.35,3.07-4.09,4.78-6.36,6.89c-2.19,2.03-3.12,4.26-2.74,7.14c-0.32,0.32-0.64,0.63-0.96,0.95
		c-2.88-0.58-4.31,2.21-6.66,2.86c-0.3-1.45,0.81-4.03-2.18-3.46c-1.92,0.37-4.12,1.76-3.69,3.96c0.56,2.85,2.58,0.55,3.97,0.46
		c-0.12,1.22,0.35,2.6-0.79,3.55c-3.82,3.19-7.01,7.41-12.53,7.9c-0.32-1.59-0.63-3.17-0.95-4.76c5.27-1.34,5.78-6.35,7.45-10.21
		c1.15-2.67-0.55-5.22-3.2-6.6c-3.91-2.03-10.95-1.25-13.81,1.38c-5.69,1.62-11.44,3.18-16.44,6.46c-3.45,2.26-8.02,3.66-8.44,8.88
		l0.1-0.03c-0.56-0.76-1.07-0.25-1.41,0.17c-0.12,0.15,0.24,0.68,0.38,1.03c-0.64,0.92-2.07,1.24-2.04,2.68
		c-3.17-0.64-3.4,2.9-5.46,3.84c-0.3-1.31,0.46-2.79-1.06-4.55c-0.68,2.11-2.01,3.68,1.03,4.59c0.31,0.6,0.62,1.19,0.93,1.79
		c-0.74,0.45-0.94,1.16-0.91,1.97c-2.64-0.2-5.21-0.51-5.77-3.84c0.49-0.97,1.12-1.9,1.45-2.92c0.91-2.79,2.06-5.8-3.15-4.23
		c-1.01,0.31-2.98,1.12-3.08-1.36c1.45,0.1,2.77-0.31,3.98-1.06c1.04-0.64,2.21-1.26,2.29-2.67c0.02-0.28-0.5-0.78-0.84-0.85
		c-1.25-0.26-2,0.66-2.73,1.44c-0.95,1.01-1.81,2.1-2.7,3.16c-2.38-0.88-3.04,3.5-5.67,1.86c-1.57,0.03-3.15,0.07-4.72,0.1
		c-1.65-0.17-2.85,0.63-3.86,1.82c0,0-0.01,0-0.01,0c-0.32,0.28-0.64,0.57-0.96,0.85c-1.61,1.37-2.16,2.94-0.9,4.85
		c-1.47,1.27-3.41-5.02-4.64,0.29c-0.29,1.22-2.91,1.92-0.8,3.66c0.01,0.3-0.07,0.58-0.24,0.83c-3.21,0.6-3.17,3.41-3.04,5.5
		c0.13,2.29,2.48,0.99,3.8,1.11c1.73,0.16,2.7,1.48,4.12,2.05c-3.38,3.08-6.79,6.13-10.11,9.26c-1.33,1.26-2.88,1.07-4.45,1.08
		c-2.32,0.54-4.01-3.3-6.59-0.94c-1.16-2.56,0.47-3.73,2.38-4.73c4.69-2.44,5.45-6.71,5.37-11.39c0.07-2.32,1.65-3.92,2.71-5.77
		c1.59-1.58,3.18-3.17,4.78-4.75c2.55-2.19,5.1-4.39,7.65-6.58c2.34-1.78,4.93-3.28,6.67-5.75c2.18-2.61,7.09-2.78,6.81-7.59
		c3.19,0.56,4.69-1.96,6.64-3.65c2.23-1.27,3.5-4.07,6.52-4.06c0.71,3,1.48,5.97,5.51,5.84c5.83,2.61,11.61,2.03,17.35-0.32
		c2.77-0.48,5.38-2.8,7.48-3.03c9.92-1.1,13.23-9.94,19.49-15.23c1.63-1.38-0.03-1.63-1.19-1.68c0.49-0.83,2.14-1.13,1.16-2.62
		c-0.63-0.96-1.5-0.95-2.48-0.74c-2.25,0.47-4.35,1.61-6.83,0.97c-6.51-1.69-6.52-1.63-6.16,4.41c-2.03-0.24-5-4.93-5.69,1.2
		c-0.99-0.02-1.98-0.05-2.96-0.07c0.25-3.38,3.95-7.89-2.93-8.92c1.44-2,4.18-1.17,5.84-2.68c3.07-1.25,6.28-1.75,9.57-1.82
		c0.94,0.02,1.88,0.04,2.82,0.05c0.72,3.03,2.43,1.21,3.85,0.78c0.32-0.04,0.63,0.01,0.91,0.15
		C180.9,48.54,184.39,48.84,187.17,45.92z M165.49,73.05c-0.26-0.14-0.5-0.36-0.73-0.35c-0.23,0.01-0.45,0.24-0.68,0.38
		c0.23,0.13,0.46,0.35,0.69,0.35C165.01,73.43,165.23,73.2,165.49,73.05z M131.33,92.36c-0.05,0.13-0.12,0.26-0.12,0.39
		c0,0.04,0.21,0.08,0.32,0.12c0.05-0.13,0.12-0.26,0.12-0.39C131.64,92.44,131.44,92.4,131.33,92.36z"/>
	<path class="st3" d="M229.21,57.38c2.19-1.96,4.39-3.91,6.58-5.87c2.22-0.33,4.44-0.65,6.66-0.98c1.28,0.15,2.55,0.31,3.83,0.46
		c3.79,1.69,7.66,3.24,10.83,6.04c-1.14,1.5-2.69,2.82-2.32,5.02c0,0,0.02-0.01,0.02-0.01c-0.94,0.02-1.88,0.04-2.83,0.06
		c-0.97-0.35-1.93-0.69-2.9-1.04c0.33-1.14,2.11-1.69,1.42-3.21c-0.67-1.46-10.82-2.51-11.83-1.29c-0.72,0.88-0.41,1.76-0.03,2.65
		c0,0.33,0.01,0.66,0.01,0.99c-2.53-0.7-4.76-2.61-7.64-1.9C230.63,57.56,229.96,57.4,229.21,57.38z"/>
	<path class="st4" d="M197.66,80.22c-0.38-2.88,0.55-5.11,2.74-7.14c2.27-2.11,5.01-3.82,6.36-6.89c0.67-1.52,2.44-1.06,3.83-1.26
		c4.53-0.65,8.88-5.71,9-10.35c0.94,0.19,1.88,0.38,2.81,0.57c0.26,1.11,1,1.79,2.02,2.21c-1.5,3.17-5.57,3.98-6.82,7.38
		c-0.63,0.39-1.25,0.77-1.88,1.16C210.63,71.84,203.73,75.52,197.66,80.22z"/>
	<path class="st4" d="M193.99,46.68c3.37,0.6,6.26,1.62,8.54,4.69c2.88,3.88,7.46,1.74,11.34,1.99c0.95,0.41,1.89,0.83,2.84,1.24
		c-0.25,1.74-1.49,2.04-2.81,1.59c-4.04-1.39-8.21-0.85-12.28-0.66c-4.28,0.2-7.38-0.91-9.36-4.87c-0.83-1.65-2.1-3.08-3.17-4.62
		C190.85,45.29,192.3,46.97,193.99,46.68z"/>
	<path class="st4" d="M177.66,45.09c1.9,0,3.8,0,5.7,0c1.2,0.62,2.72-0.25,3.82,0.84C184.39,48.84,180.9,48.54,177.66,45.09z"/>
	<path class="st2" d="M224.42,57.36c-1.03-0.41-1.76-1.1-2.02-2.21c0.92-0.08,1.84-0.16,2.76-0.25c0.62,0.62,1.24,1.24,1.85,1.87
		C226.14,56.97,225.28,57.16,224.42,57.36z"/>
	<path class="st5" d="M100.36,249c0,0,0.11-0.11,0.11-0.11c1.9,0.01,3.8-0.07,5.69,0.04c3.09,0.17,4.53-1.82,4.6-4.31
		c0.13-4.96-3-8.55-5.83-12.19c0.36,2.24,1.3,4.19,2.26,6.13c1.04,2.1,1.57,4.25-0.27,6.15c-1.94,2.01-4.3,1.57-6.61,0.74
		c-1.89-0.67-3.24-2.67-5.57-2.29c-0.13-1.89-1.48-1.92-2.87-1.89c-0.64-1.58-1.28-3.16-1.92-4.75c0.07-0.13,0.14-0.26,0.21-0.39
		c-0.07,0.13-0.15,0.26-0.22,0.38c-1.63-0.91-2.91-2.17-3.79-3.83c0.63,0.01,1.26,0.03,1.9,0.04c0.76,1.02,1.51,0.65,2.32,0.03
		c2.15-1.64,2.97-0.39,3.41,1.62c-0.1,0.89-2.01,1.58-1.03,2.22c3.33,2.17,5.51,6.63,10.53,5.6c0.34,0.53,0.83,1,1.39,0.46
		c0.56-0.54,0.1-1.04-0.43-1.39c-0.03-0.61-0.06-1.21-0.09-1.82c1.94-3.1-1.14-3.12-2.46-4.46c-0.82-0.83-4.33-0.39-2.19-3.26
		c0.77-0.42,0.92-1.11,0.87-1.91c5.48,0.65,9.75-1.48,13.25-5.58c0.47-0.55,1.38-0.73,2.08-1.08c1.92,1.6,4.01,2.58,6.59,1.79
		c-1.06,2.84-0.34,7.98-6.21,4.41c-1.37-0.83-2.94,1.02-2.95,2.29c-0.01,2.77-2.1,2.01-4.55,2.67c3.59,0.86,3.89,2.76,3.29,5.05
		c1.82,2.24,1.38,5.33,2.93,7.67c-0.98,1.26-1.95,2.52-2.93,3.78C110.3,251.18,102.11,251.16,100.36,249z"/>
	<path class="st6" d="M111.89,239.38c0.6-2.28,0.3-4.19-3.29-5.05c2.45-0.67,4.54,0.09,4.55-2.67c0.01-1.26,1.57-3.12,2.95-2.29
		c5.87,3.57,5.14-1.57,6.21-4.41c0.92-1.56,1.84-3.13,2.76-4.69c2.9-5.21,7.68-8.38,12.52-11.49c1.55-0.33,3.11-0.67,4.66-1
		c1.01,0.15,2.03,0.3,3.04,0.45c1.59,0.83,2.75,2.46,4.73,2.55c0.13,0.07,0.26,0.14,0.39,0.21c-0.13-0.07-0.26-0.14-0.38-0.22
		c-0.04-2.11-2.47-3.41-1.91-5.72c0.56,0.25,1.26,0.37,1.66,0.78c4.31,4.37,5.91,4.28,9.56-0.44c1.24-1.61,2.57-3.23,4.14-4.51
		c5.27-4.32,9.65-9.5,14.19-14.52c1-1.1,1.65-2.6,0.13-3.72c-3.49-2.56-3.57-3.35-0.08-5.73c3.87-2.65,5.48-6.66,6.58-10.97
		c0.34-3.12-0.46-5.8-2.74-8.09c-1.07-1.08-2.02-2.45-2.56-3.87c-0.99-2.54,0.43-4.52,2.19-6.18c1.17-1.1,1.94-0.59,2.16,0.91
		c-1.22,1.37-4.87,2.23-0.95,4.65c2.8,3.31,4.11,7.74,9.18,9.33c2.05,0.65,4.31,4.54,0.47,7.24c-0.75,0.53-1.23,1.35-0.61,1.95
		c1.18,1.15,2.24,2.71,4.37,2.19c2.75-0.68,5.59-1.05,8.29-1.88c1.55-0.48,4.37-0.56,5.66,0.13c0.32,0.64-8.96,3.44-12.12,4.31
		c-1.78,0.49-3.71,1.21-3.76,3.65l0.01-0.01c-2.13-0.21-3.08,0.77-2.87,2.88c-0.62,0.63-3.37,2.05-3.82,2.8
		c-1.9,1.29-21.19,17.04-23.8,22.92c0,0-12.83,42.91-26.06,40.97c-1.4-0.21-10.36-2.15-13.02-3.81c-1.79-1.49-2.47-3.53-2.85-5.73
		c0.98-4.37-3.15-4.26-5.21-5.1c-2.79-1.14-1.53,2.09-2.3,3.26C113.58,238.99,112.58,239.09,111.89,239.38z M135.73,223.18
		c-0.32,0.34-0.65,0.69-0.97,1.03c-0.3,0.29-0.6,0.58-0.9,0.87c-0.34,0.32-0.68,0.64-1.01,0.96c-0.27,2.86-1.6,5.72,0,8.58
		c0.8,1.5,1.84,1.78,3.49,1.11c3.47-1.41,5.24-3.79,5.03-7.58c0.01-1.02,0.03-2.04,0.04-3.06c0.93-0.19,2.08-0.41,1.37-1.69
		c-0.74-1.34-1.78-2.73-3.41-2.87c-1.78-0.15-3.36,0.5-3.65,2.66C135.73,223.2,135.73,223.18,135.73,223.18z M184.07,176.25
		c-1.07,2.82-4.01,1.1-4.27,3.79c-0.07,0.74,0.67,1.15,1.3,1.01C182.92,180.64,184.18,179.65,184.07,176.25z"/>
	<path class="st7" d="M111.89,239.38c0.7-0.29,1.69-0.39,2.03-0.91c0.77-1.17-0.49-4.4,2.3-3.26c2.06,0.85,6.19,0.73,5.21,5.1
		c-1.59,1.46-3.51,0.37-5.22,0.43c0.16,4.31,2.51,6.44,6.25,7.36c-2.88,2.01-5.19-0.02-7.64-1.07
		C113.27,244.71,113.7,241.61,111.89,239.38z"/>
	<path class="st5" d="M122.45,248.12c-3.73-0.92-6.09-3.06-6.25-7.36c1.71-0.06,3.63,1.03,5.22-0.43c0.38,2.19,1.06,4.24,2.85,5.73
		c0,0.67-0.01,1.35-0.01,2.02C123.66,248.08,123.06,248.1,122.45,248.12z"/>
	<path class="st7" d="M124.27,248.07c0-0.67,0.01-1.35,0.01-2.02c2.66,1.67,5.71,2.14,8.68,2.88
		C129.82,251.11,127.12,248.78,124.27,248.07z"/>
	<path class="st7" d="M232.9,119.58c-0.14,0.29-0.35,0.5-0.64,0.65c-0.42,0.33-0.84,0.66-1.26,0.99c0,0,0.03-0.02,0.03-0.02
		c-0.83-0.05-1.55,0.14-1.93,0.97c0,0,0.02-0.02,0.02-0.02c-0.33,0.32-0.65,0.65-0.98,0.97c0,0,0.02-0.02,0.02-0.02
		c-0.33,0.33-0.65,0.65-0.98,0.98c0,0,0.02-0.02,0.02-0.02c-0.33,0.33-0.65,0.65-0.98,0.98c0,0,0.03-0.03,0.03-0.03
		c-0.33,0.33-0.66,0.66-0.99,0.99c0,0,0.03-0.03,0.03-0.03c-0.33,0.33-0.66,0.66-0.99,0.99c0,0,0.03-0.03,0.03-0.03
		c-0.42,0.34-0.83,0.67-1.25,1c-0.26,0.15-0.48,0.35-0.64,0.61c-0.98,0.1-1.95,0.19-2.93,0.29c0,0-0.01,0-0.01,0
		c0.52-3.19-1.7-4.85-3.69-6.65c-0.69-1.29-1.37-2.58-2.06-3.88c-0.46-1.01-1.16-1.73-2.3-1.92c-0.23-0.85-0.45-1.7-0.68-2.54
		c1.62-1.17,3.09-2.71,4.89-3.45c4.9-2.01,4.56-5.51,3.17-9.49c7.57-7.14,15.13-14.29,22.7-21.43c0.57-0.02,1.13-0.05,1.7-0.07
		c0.66,0.62,1.33,1.23,1.99,1.85c0.34,0.58,0.68,1.16,1.02,1.73c-0.07,4.84,3.89,7.77,5.58,11.78c-1.03,1.39-0.06,1.5,0.99,1.56
		c0.02,0.36,0.05,0.73,0.07,1.09c0,0.64-0.01,1.28-0.01,1.92c0,0,0.03-0.04,0.03-0.04c-1.25,0.56-1.98,1.48-1.94,2.91
		c0,0,0.04-0.04,0.04-0.04c-1.32-0.02-1.98,0.62-1.95,1.95c0,0,0.04-0.04,0.04-0.04c-0.95,0.02-1.9,0.04-2.85,0.06
		c-0.21-2.36-2.45-4.8,0.57-6.75c-0.84-0.87-1.48-0.21-2-0.35c-3.39-0.89-5.15,1.79-5.24,3.86c-0.13,2.84,1.92,4.77,5.31,3.03
		c0.33-0.17,0.91,0.12,1.37,0.2c-1.31,3-5.57,3.76-5.77,7.6c0,0,0.02-0.03,0.02-0.03c-0.33,0.37-0.67,0.75-1,1.12
		c-0.61,0.53-1.23,1.05-1.84,1.58c-0.34,0.47-0.68,0.93-1.02,1.4c-0.14,0.29-0.35,0.51-0.64,0.65c-0.42,0.33-0.83,0.66-1.25,0.99
		c0,0,0.03-0.03,0.03-0.03c-0.33,0.33-0.65,0.65-0.98,0.98c0,0,0.03-0.03,0.03-0.03C233.56,118.75,233.23,119.16,232.9,119.58z
		 M224.34,119.28c-0.91,0.17-1.94,0.13-2.69,0.57c-1.02,0.61-2.2,1.45-1.64,2.98c0.31,0.85,0.66,1.99,1.75,1.97
		c2.24-0.04,3.24-1.53,3.55-3.6c0.07-0.13,0.14-0.26,0.21-0.39c-0.07,0.13-0.15,0.26-0.22,0.38c-1.67,0.04-1.43-0.86-0.94-1.89
		c0.07-0.13,0.14-0.27,0.2-0.4C224.48,119.03,224.41,119.15,224.34,119.28z M232.91,105.94c-1.57-0.02-1.91,1.43-2.78,2.27
		c-1.32,1.26-0.99,3.19-0.27,3.86c1.47,1.36,2.14-0.82,3.25-1.41c3.54-1.87,0.02-3.17-0.18-4.7c0.07-0.14,0.14-0.27,0.21-0.41
		C233.06,105.68,232.99,105.81,232.91,105.94z M236.36,90.96c-0.1-0.26-0.14-0.67-0.33-0.75c-0.18-0.08-0.51,0.16-0.77,0.27
		c0.1,0.26,0.14,0.67,0.32,0.75C235.77,91.31,236.1,91.06,236.36,90.96z"/>
	<path class="st5" d="M215.85,122.16c1.99,1.8,4.21,3.46,3.69,6.65c-0.62,0.01-1.24,0.03-1.86,0.04c-1.35-3.59-3.15-4.53-5.72-0.98
		c-0.98,0.26-2.05-1.12-2.98,0.15c-1.65-0.27-3,0.09-3.71,1.78c0,0,0.04-0.04,0.04-0.04c-0.49,0.33-0.98,0.66-1.48,0.99
		c-0.09,0.2-0.23,0.34-0.43,0.43c-1.47,0.91-3.07,1.68-3.85,3.38c0,0,0.04-0.03,0.04-0.03c-1.26,0.03-1.96,0.62-1.94,1.94
		c0,0,0.04-0.03,0.04-0.03c-0.99-0.13-1.73,0.38-2.42,0.99c-0.1,0.19-0.25,0.34-0.44,0.45c-0.57,0.71-1.13,1.41-0.99,2.41
		c0,0,0.03-0.04,0.03-0.04c-0.33,0.33-0.66,0.66-1,1c0,0,0.04-0.04,0.04-0.04c-1.26,0.04-1.84,0.75-1.94,1.94
		c0,0,0.03-0.04,0.03-0.04c-0.33,0.33-0.66,0.66-0.99,0.99c0,0,0.04-0.04,0.04-0.04c-0.33,0.33-0.66,0.66-0.99,0.99
		c0,0,0.04-0.04,0.04-0.04c-0.33,0.33-0.66,0.66-0.99,0.99c0,0,0.03-0.04,0.03-0.04c-0.91,0.35-1.21,1.02-0.98,1.94
		c0,0,0.02-0.02,0.02-0.02c-1.48-0.6-2.57,0.62-3.88,0.84c-0.22-1.5-0.99-2.01-2.16-0.91c-1.75,1.66-3.17,3.63-2.19,6.18
		c0.55,1.41,1.49,2.78,2.56,3.87c2.28,2.3,3.08,4.97,2.74,8.09c-6.33,1.64-8.62,7.94-13.31,11.48c-2.05-0.09-3.67,0.39-3.81,2.86
		c-1.23,0.68-2.81,1-2.86,2.86c-4.01-0.54-6.39,2.02-8.48,4.76c-1.32,1.73-2.58,3.11-4.92,2.88c-3.14-2.26-3.15-4.31,0.72-5.43
		c2.29-0.66,3.66-2.39,5.49-3.58c5.02-3.26,7.7-9,13.09-12.09c1.95-1.12,4.53-4.61,0.76-7.51c-0.08-0.22-0.09-0.44-0.04-0.66
		c0.02-2.44-2.21-3.82-2.83-5.96c4.44-2.18,8.11-4.9,7.68-10.63c-0.13-1.69,0.51-3.21,2.41-1.94c3.87,2.59,6.29-0.22,8.7-2.2
		c4.15-3.41,7.74-7.54,12.06-10.69C203.99,126.41,208.91,122,215.85,122.16z"/>
	<path class="st8" d="M246.29,82.97c-0.34-0.58-0.68-1.16-1.02-1.74c4.33-1.14,7.92-4.76,12.86-3.88c2.28,0.79,2.57,3,3.46,4.79
		c0.19,2.33,2.54,4.08,1.82,6.66l0.02-0.02c-4.38-4.15-7.41-0.97-10.49,1.93C250.13,88.64,249.29,84.87,246.29,82.97z"/>
	<path class="st9" d="M210.99,151.73c0,1.26,0.01,2.52,0.01,3.78c-0.02,1.32-0.03,2.64-0.05,3.96c-0.63,0.59-1.26,1.18-1.9,1.76
		c0,0,0.05-0.05,0.05-0.05c-2.8,2.39-5.04-0.23-7.51-0.84c-2.97-0.21-4.04,2.39-5.59,4.37c-1.45-1.56,0.57-4.09-2.02-4.64
		c0.4-1.61-2.84-4.63,1.79-4.6c0.31,0.02,0.62,0.03,0.93,0.03c1.53,3.42,3.8,2.18,5.48,0.48c0.97-0.98,3.91-2.9,0.04-4.34
		c0.38-0.63,0.76-1.25,1.15-1.88c2.22,0.32,4.43,0.63,6.65,0.95c0,0,0.05,0.05,0.05,0.05C210.38,151.1,210.68,151.42,210.99,151.73z
		"/>
	<path class="st8" d="M203.37,149.78c-0.38,0.63-0.76,1.25-1.14,1.88c-0.27,0.3-0.55,0.6-0.82,0.91c-2,0.47-3.78-0.6-5.67-0.87
		c-0.16-2.96,0.59-5.28,3.93-5.99c0.84-0.18,1.74-0.38,2.07-1.56c1.07-3.8,3.93-2.89,6.24-1.81c2.55,1.19,4.87,3,3.02,6.48
		c-0.3-0.1-0.6-0.16-0.91-0.19C207.23,145.42,205.31,147.62,203.37,149.78z"/>
	<path class="st7" d="M207.93,163.99c2.23,0.34,2.08,1.3,0.86,2.8c-3.14,3.89-8.14,4.03-12.75,0.22c2.27-1.7,4.68-2.95,7.56-3.04
		C205.05,163.98,206.49,163.98,207.93,163.99z"/>
	<path class="st5" d="M271.03,87.84c-0.33,0.96-0.66,1.92-1,2.87c-2.59,1.25-3.66,3.62-4.46,6.88c-1.61-2.17-2.28-3.94-2.1-6.02
		c0.29-0.28,0.59-0.57,0.88-0.86c1.95,0.2,3.24-0.62,4.14-2.37C269.02,87.31,269.9,86.51,271.03,87.84z"/>
	<path class="st6" d="M246.29,82.97c3,1.91,3.84,5.67,6.64,7.75c-0.03,1.65-0.06,3.31-0.08,4.96c-0.33-0.31-0.65-0.62-0.98-0.93
		C250.18,90.74,246.21,87.81,246.29,82.97z"/>
	<path class="st7" d="M211.95,127.87c2.57-3.55,4.37-2.62,5.72,0.98C214.91,133.54,213.72,129.02,211.95,127.87z"/>
	<path class="st8" d="M240.54,111.69c0.2-3.84,4.46-4.6,5.77-7.6l0,0c0.95-0.02,1.9-0.04,2.85-0.06
		C246.53,106.86,244.48,110.34,240.54,111.69z"/>
	<path class="st5" d="M195.74,151.7c1.89,0.27,3.66,1.33,5.67,0.87c-0.13,3.29-2.57,2.87-4.71,2.95c-0.31-0.01-0.62-0.02-0.93-0.03
		C195.27,154.23,194.07,152.98,195.74,151.7z"/>
	<path class="st10" d="M183.33,148.73c1.31-0.22,2.4-1.43,3.88-0.84c-1.18,2.21-2.83,4-4.83,5.49
		C178.45,150.96,182.11,150.09,183.33,148.73z"/>
	<path class="st8" d="M207.93,163.99c-1.44,0-2.88-0.01-4.32-0.01c-0.74-1.17-2.18-1.95-2.01-3.62c2.47,0.61,4.71,3.23,7.51,0.84
		C208.71,162.13,208.32,163.06,207.93,163.99z"/>
	<path class="st10" d="M199.56,134.57c0.78-1.7,2.38-2.47,3.85-3.38C203.5,133.88,201.88,134.62,199.56,134.57z"/>
	<path class="st5" d="M266.5,98.71c1.28,1.55,2.05,2.51,0.97,4.01C265.68,101.93,266.41,100.52,266.5,98.71z"/>
	<path class="st10" d="M205.27,129.8c0.71-1.69,2.06-2.05,3.71-1.78C208.03,129.22,207.04,130.32,205.27,129.8z"/>
	<path class="st8" d="M219.55,128.81c0.98-0.09,1.95-0.19,2.93-0.29c-0.15,1.02-0.69,1.81-1.72,1.91
		C219.68,130.54,219.66,129.58,219.55,128.81z"/>
	<path class="st10" d="M197.65,136.48c-0.02-1.32,0.68-1.91,1.94-1.94C199.63,135.87,198.81,136.34,197.65,136.48z"/>
	<path class="st10" d="M190.98,143.15c0.1-1.2,0.69-1.91,1.94-1.94C192.79,142.36,192.32,143.19,190.98,143.15z"/>
	<path class="st8" d="M251.02,102.17c-0.04-1.42,0.68-2.34,1.94-2.91C253.01,100.7,252.25,101.59,251.02,102.17z"/>
	<path class="st8" d="M209.06,161.24c0.63-0.59,1.26-1.18,1.9-1.76C210.85,160.62,210.16,161.16,209.06,161.24z"/>
	<path class="st8" d="M264.36,90.71c-0.29,0.29-0.59,0.57-0.88,0.86c-0.02-0.93-0.03-1.85-0.05-2.78c0,0-0.02,0.02-0.02,0.02
		C264.17,89.21,264.31,89.94,264.36,90.71z"/>
	<path class="st8" d="M249.11,104.08c-0.03-1.33,0.62-1.97,1.95-1.95C250.41,102.78,249.76,103.43,249.11,104.08z"/>
	<path class="st8" d="M251.87,94.74c0.33,0.31,0.65,0.62,0.98,0.93c-0.01,0.21,0,0.42,0.01,0.62
		C251.81,96.24,250.84,96.13,251.87,94.74z"/>
	<path class="st10" d="M195.27,137.43c0.69-0.61,1.43-1.12,2.42-0.99C197.18,137.49,196.31,137.68,195.27,137.43z"/>
	<path class="st10" d="M193.84,140.29c-0.14-1,0.42-1.7,0.99-2.41C195,138.89,194.9,139.79,193.84,140.29z"/>
	<path class="st10" d="M187.18,147.91c-0.23-0.93,0.06-1.59,0.98-1.94C188.43,146.92,188.06,147.55,187.18,147.91z"/>
	<path class="st8" d="M252.93,99.31c0-0.64,0.01-1.28,0.01-1.92C253.78,98.03,254.01,98.67,252.93,99.31z"/>
	<path class="st8" d="M229.1,122.17c0.39-0.84,1.1-1.02,1.93-0.97C230.62,121.98,229.95,122.25,229.1,122.17z"/>
	<path class="st10" d="M192.88,141.24c0.33-0.33,0.66-0.66,1-1C193.54,140.58,193.21,140.91,192.88,141.24z"/>
	<path class="st8" d="M223.12,127.91c0.42-0.33,0.83-0.67,1.25-1C223.95,127.24,223.53,127.58,223.12,127.91z"/>
	<path class="st8" d="M233.86,118.36c0.33-0.33,0.65-0.65,0.98-0.98C234.52,117.71,234.19,118.03,233.86,118.36z"/>
	<path class="st8" d="M227.2,124.07c0.33-0.33,0.65-0.65,0.98-0.98C227.85,123.42,227.52,123.75,227.2,124.07z"/>
	<path class="st8" d="M225.29,125.99c0.33-0.33,0.66-0.66,0.99-0.99C225.94,125.33,225.61,125.66,225.29,125.99z"/>
	<path class="st8" d="M232.9,119.58c0.33-0.42,0.66-0.84,0.99-1.25C233.56,118.75,233.23,119.16,232.9,119.58z"/>
	<path class="st8" d="M239.57,112.78c0.33-0.37,0.67-0.75,1-1.12C240.23,112.03,239.9,112.41,239.57,112.78z"/>
	<path class="st8" d="M228.15,123.12c0.33-0.32,0.65-0.65,0.98-0.97C228.8,122.47,228.47,122.8,228.15,123.12z"/>
	<path class="st8" d="M224.33,126.94c0.33-0.33,0.66-0.66,0.99-0.99C224.99,126.28,224.66,126.61,224.33,126.94z"/>
	<path class="st10" d="M203.83,130.76c0.49-0.33,0.98-0.66,1.48-0.99C205.16,130.6,204.6,130.83,203.83,130.76z"/>
	<path class="st10" d="M188.13,146.01c0.33-0.33,0.66-0.66,0.99-0.99C189.13,145.69,188.8,146.02,188.13,146.01z"/>
	<path class="st10" d="M189.07,145.05c0.33-0.33,0.66-0.66,0.99-0.99C190.03,144.68,189.74,145.06,189.07,145.05z"/>
	<path class="st8" d="M234.82,117.41c0.42-0.33,0.83-0.66,1.25-0.99C235.65,116.74,235.24,117.07,234.82,117.41z"/>
	<path class="st10" d="M190.02,144.1c0.33-0.33,0.66-0.66,0.99-0.99C190.98,143.74,190.65,144.07,190.02,144.1z"/>
	<path class="st8" d="M226.24,125.03c0.33-0.33,0.65-0.65,0.98-0.98C226.89,124.38,226.57,124.71,226.24,125.03z"/>
	<path class="st8" d="M231,121.22c0.42-0.33,0.84-0.66,1.26-0.99C231.84,120.56,231.42,120.89,231,121.22z"/>
	<path class="st8" d="M236.71,115.76c0.34-0.47,0.68-0.93,1.02-1.4C237.39,114.83,237.05,115.3,236.71,115.76z"/>
	<path class="st5" d="M55.7,193.63c-0.33-0.32-0.66-0.64-0.99-0.97c0,0,0.01,0.01,0.01,0.01c-2.46-2.71-4.93-5.42-7.39-8.13
		c-1.78,1.73-0.03,2.99-0.23,4.31c-3.46-1.39-3.67-4.82-4.81-7.66c0.02-0.3,0.03-0.6,0.03-0.9c0-0.63,0.01-1.26,0.01-1.9
		c1.31-1.69,1.82-3.64,1.87-5.74c0.06-0.94,0.12-1.88,0.17-2.82c0.8-0.15,1.62-0.44,1.82-1.27c1.09-4.39,3.56-6.34,8.18-4.94
		c0.46,0.14,1.13-0.45,1.71-0.69l0.27-0.01l0.25,0.11c1.02,4,4.43,5.28,7.66,6.78c0.17,2.69,2.56,3.75,4.05,5.46
		c2.03,2.34,4.31,4.49,4.66,7.81c0.2,3.68-2.39,6.82-2.08,10.52c-2.52,1.55-2.9,4.01-2.85,6.66
		C66.14,200.94,57.4,193.85,55.7,193.63z M54.82,188c0.35,0.69,0.68,1.39,1.06,2.06c0.78,1.39,1.95,1.95,3.5,1.43
		c0.66-0.22,0.93-0.81,0.82-1.47c-0.31-1.76-1.62-2.06-3.12-2.07c-0.46,0-0.93-0.01-1.39-0.01c1.01-2,1.68-3.91-1.26-4.92
		c-1.01-0.35-2.17-1.11-2.47,0.67C51.57,185.94,52.13,187.72,54.82,188z M58.68,178.39c1.64,0.32,3.2,3.08,4.83,0.82
		c1.43-1.99-1-2.78-2.2-3.82c-0.48-2.34-1.86-3.88-4.18-4.44c-0.64-0.16-1.14,0.35-1.34,1.02c-0.67,2.27,0.64,3.88,1.85,5.51
		C57.91,177.84,58.33,178.09,58.68,178.39z"/>
	<path class="st11" d="M44.37,169.84c-0.06,0.94-0.12,1.88-0.17,2.82c-2.59,0.15-4.76-2.98-7.58-0.98
		c-2.18,0.25-5.38-6.03-6.66-7.61c0.1-1.37-0.33-2.61-0.99-3.78c0.01-1.26,0.02-2.53,0.02-3.79c1.43-1.42,0.86-3.2,0.89-4.87
		c0.45-1.45,0.9-2.91,1.35-4.36c0.15-0.45,0.29-0.89,0.44-1.34c2.93-1.33,4.11-4.86,7.34-5.81c3.02-0.28,6.05-0.55,9.07-0.83
		c1.9,0,3.8,0.01,5.69,0.01c0.05,0.34,0.09,0.68,0.14,1.02c-1.75,0.8-2.88,2.29-4.07,3.7c-1.57,1.26-3.15,2.52-4.72,3.78
		c-1.51,1.03-2.83,2.24-3.69,3.89c-1.82,1.57-0.74,3.17-0.06,4.77c0,0.32,0,0.63,0.02,0.95C41.57,161.74,43.6,165.64,44.37,169.84z"
		/>
	<path class="st6" d="M47.1,188.86c0.2-1.33-1.55-2.59,0.23-4.31c2.46,2.71,4.93,5.42,7.39,8.13c-2.62,0.8-4.33-1.53-6.61-1.91
		C48.03,189.98,47.85,189.26,47.1,188.86L47.1,188.86z"/>
	<path class="st6" d="M28.99,156.5c-0.01,1.26-0.02,2.53-0.02,3.79c-1.62,0.53-4.83-2.12-5.74-4.75c0,0,0.08-0.08,0.08-0.08
		C25.2,155.8,27.1,156.15,28.99,156.5z"/>
	<path class="st5" d="M47.09,188.85c0.76,0.41,0.94,1.13,1.02,1.91C47.29,190.38,47.1,189.66,47.09,188.85z"/>
	<path class="st9" d="M42.31,180.29c0,0.3-0.01,0.6-0.03,0.9c-0.12-0.22-0.25-0.43-0.33-0.66C41.94,180.5,42.19,180.38,42.31,180.29
		z"/>
	<path class="st6" d="M54.71,192.66c0.33,0.32,0.66,0.64,0.99,0.97C55.37,193.31,55.04,192.99,54.71,192.66z"/>
	<path class="st12" d="M39.01,140.12c-3.23,0.95-4.41,4.49-7.34,5.8c-0.27-0.31-0.54-0.61-0.8-0.91c-0.33-0.55-0.64-0.51-0.95,0.02
		l0.02-0.01c-1,1.23-2.26,1.47-3.72,0.97c0.93-2.96,2.52-5.42,5.29-7c2.2-1.34,4.26-3.27,7.15-1.66c0.28,0.34,0.55,0.67,0.83,1.01
		C39.32,138.94,39.17,139.53,39.01,140.12z"/>
	<path class="st11" d="M39.48,138.34c-0.28-0.34-0.55-0.67-0.83-1.01c0.28-0.59,0.56-1.17,0.84-1.75c2.67-1.84,5.68-0.78,8.54-1.03
		c0,0.31,0,0.62,0,0.93c-0.06,0.63-0.12,1.26-0.17,1.89C45.09,137.93,42.18,137.24,39.48,138.34z"/>
	<path class="st13" d="M26.22,145.99c1.45,0.5,2.71,0.26,3.72-0.97c0.05,0.97,0.44,1.74,1.29,2.25c-0.45,1.45-0.9,2.91-1.35,4.36
		c-1.86-0.35-3.71-0.7-5.57-1.05c0.39-1.5,0.79-3,1.19-4.5C25.74,146.06,25.98,146.03,26.22,145.99z"/>
	<path class="st7" d="M264.36,90.71c-0.05-0.77-0.19-1.49-0.95-1.9c0.72-2.58-1.63-4.33-1.82-6.66c3.81,1.22,5.92-3.1,9.42-2.88
		c0.32,0.31,0.65,0.63,0.97,0.94c-0.4,2.53,0.96,5.28-0.94,7.63c-1.13-1.32-2.01-0.52-2.54,0.5
		C267.6,90.09,266.31,90.91,264.36,90.71z"/>
	<path class="st5" d="M271,79.27c-3.5-0.22-5.61,4.1-9.42,2.88c-0.88-1.79-1.18-4-3.46-4.79c-0.02-0.6-0.04-1.19-0.06-1.79
		c4.15-0.79,5.91-4.81,9.19-6.79C270.09,71.71,272.05,74.95,271,79.27z"/>
	<path class="st8" d="M267.26,68.78c-3.28,1.97-5.04,5.99-9.19,6.79c0.43-1.36-2.01-3.24-0.48-3.66c4.29-1.19,4.61-5.31,6.87-7.94
		c0.95,0.97,1.9,1.93,2.85,2.9C267.29,67.5,267.27,68.14,267.26,68.78z"/>
	<path class="st5" d="M24.31,150.58c1.86,0.35,3.71,0.7,5.57,1.05c-0.03,1.67,0.54,3.45-0.89,4.87c-1.89-0.35-3.79-0.69-5.68-1.04
		C23.65,153.83,23.98,152.2,24.31,150.58z"/>
	<path class="st10" d="M88.94,124.01c1.57,0,3.12,0.18,4.45-1.08c3.32-3.14,6.73-6.18,10.11-9.26c2.76-2.21,5.71-3.81,9.44-3
		c-0.27,1.02-1.76,2.45,0.49,2.76c2.09,0.29,4.81,2.72,6.11-1.23c1.27,0.07,2.55,0.13,3.82,0.2c0.51,1.08,1.13,1.19,1.88,0.21
		c6.75,1.3,13.49,2.61,20.24,3.9c1.11,0.21,1.69,0.74,1.34,1.95c-0.78,2.68-0.93,5.78-4.55,6.47c-3.31-0.03-5.27,2.38-7.43,4.3
		c-0.95,0.85-2.49,2.03-2,3.27c0.53,1.31,2.43,1.05,3.81,1.21c0.76,0.9,1.86,0.73,2.85,0.91c0.66,0.87,1.66,0.89,2.6,1.03
		c1.07,0.58,2.13,1.15,3.2,1.73c-0.58,1.49-1.86,0.91-2.91,0.98c-1.04-1.09-2.41-1.5-3.82-1.82c-0.43-0.85-1.16-1.01-2.01-0.86
		c-0.6-0.06-1.2-0.12-1.8-0.18c-1.69-0.87-3.92-2.8-5.2-1.62c-2.29,2.12-6.31,2.94-6.4,7.07c-1.3,0.11-2.15,0.92-2.87,1.9
		c-1.51,0.28-2.5,1.36-3.42,2.42c-3.43,3.94-7.51,5.54-12.62,3.72c-1.04-0.35-2.06-0.75-3.12-1.04c-8.49-2.3-17.22-3.65-25.55-6.56
		c0.12-1.38-0.1-3.23,1.52-3.6c3.34-0.76,3.56-3.49,4.37-5.93c3.78-0.44,5.3-4.22,8.44-5.72C91.07,125.57,89.11,124.83,88.94,124.01
		z M116.68,121.17c-0.14-0.06-0.29-0.13-0.43-0.19c0.13,0.08,0.25,0.16,0.38,0.25c-0.01,0.76-0.18,1.45-0.91,1.86
		c-0.45-0.67-1.05-1-1.86-0.73c-0.11,0.04-0.16,0.23-0.24,0.36c0.68,0.14,1.37,0.29,2.05,0.43c5.91,2.41,5.91,2.41,10.33-1.97
		C122.56,121.17,119.62,121.17,116.68,121.17z M112.52,135.08c-5.53-1.13-10.45-2.53-15.46-3c-2.39-0.22-6.32-3.57-7.7,2.42
		c4.33-0.96,7.61,1.86,11.63,2.16C104.91,136.96,108.69,138.37,112.52,135.08z M108.23,145.13c-4.06-2.29-8.03-5.21-13.84-1.69
		C99.49,144.15,103.36,147.17,108.23,145.13z M126.33,130.72c1.83,0.04,3.43-0.56,4.74-1.83c0.48-0.47,0.64-1.24-0.07-1.58
		c-1.5-0.72-3.08-0.47-4.62,0.01c-0.15,0.05-0.31,0.09-0.44,0.18c-0.96,0.67-3.08-0.2-3,1.56
		C123.03,130.93,124.94,130.64,126.33,130.72z M121.97,136.63c-1.7-0.58-2.9-0.9-4.02-1.4c-1.32-0.59-2.14-0.15-2.57,1.07
		c-0.24,0.69-0.54,1.68-0.23,2.19c0.65,1.1,1.65,0.09,2.5-0.01C119.06,138.32,120.44,138.08,121.97,136.63z M87.7,140.62
		c3.27,2.45,3.27,2.45,5.85,1.07C91.38,141.3,89.54,140.96,87.7,140.62z"/>
	<path class="st3" d="M123.35,112.39c-1.27-0.07-2.55-0.13-3.82-0.19c-1.66-2.81-4.4-1-6.6-1.53c-3.72-0.81-6.68,0.79-9.44,3
		c-1.41-0.58-2.39-1.89-4.12-2.05c-1.32-0.12-3.67,1.17-3.8-1.11c-0.12-2.1-0.16-4.91,3.04-5.5c3.22,3.06,6.86,1.93,10.47,1.05
		c6.16-0.1,10.18-4.09,14.29-7.89c-0.18,1.69,0.65,1.68,1.83,1.08c0.56,3.33,3.13,3.64,5.77,3.84c1.4,0.4,2.56,1.91,4.89,1.05
		c-1.64-1.24-2.81-2.13-3.99-3.02c-0.31-0.6-0.62-1.19-0.93-1.79l0.03-0.04c2.06-0.94,2.29-4.47,5.46-3.84
		c1.28,3.93,4.17,5.63,8.12,5.8c3.75,0.16,7.47-0.05,11.12-1.04c6.7-1.47,12.42-5.02,18.15-8.55l0.03,0.03
		c0.32,1.59,0.63,3.17,0.95,4.76c-0.01,0.31-0.02,0.62-0.02,0.93c-0.75,0.79-1.75,2.38-2.21,2.24c-5.5-1.73-9.19,3.43-14.15,3.53
		c-1.17,0.02-1.62,0.81-1.75,1.85c-5.92-1.98-11.55,0.98-17.35,1.04c-1.16,0.01-1.57,0.89-1.75,1.89
		c-3.19,0.24-6.85-2.31-10.01,2.24c4.35-1.25,8.5,4.27,11.97-1.38l-0.03,0.02c0.31-0.01,0.62-0.02,0.93-0.02
		c2.23,0.49,3.73,3.16,6.23,2.46c2.5-0.7,3.35,0.79,4.33,2.42c-0.05,0.98-0.39,1.81-1.14,2.51c-0.76,0.71-2.04,1.57-0.45,2.55
		c1.38,0.85,1.94-0.36,2.36-1.43c0.41-1.04-0.2-2.59,1.52-3.01c-0.19,1.62,0.1,2.83,1,4.33c0.3,3.15,2.68,3.41,5.06,3.59
		c3.29,0.25,6.44-0.74,9.64-1.25c0.03,1,0.07,2,0.1,3c-4.27,0.96-8.55,1.86-12.79,2.9c-2.6,0.64-6.86,1.1-6.58,3.62
		c0.28,2.49,4.6,3.5,7.43,3.55c2.75,0.05,4.4,0.76,5.4,3.2c-1.32,0.05-2.63,0.11-3.95,0.16c-2.45-2.2-5.42-2.82-8.58-2.85
		c-1.58-0.33-3.17-0.65-4.75-0.98c0-0.31-0.01-0.63-0.01-0.94c-0.32-0.31-0.63-0.62-0.95-0.94c-3.01-1.56-0.78-4.69-2.03-6.78
		c3.61-0.68,3.77-3.79,4.55-6.47c0.35-1.21-0.23-1.74-1.34-1.95c-6.75-1.29-13.49-2.6-20.24-3.9
		C124.7,111.66,124.08,111.6,123.35,112.39z M143.88,103.79c-0.26-0.11-0.52-0.22-0.77-0.33c-0.11,0.26-0.37,0.57-0.29,0.76
		c0.07,0.18,0.47,0.24,0.73,0.35C143.65,104.3,143.77,104.05,143.88,103.79z"/>
	<path class="st9" d="M180.55,54.38c1.16,0.05,2.82,0.3,1.19,1.68c-6.26,5.28-9.57,14.13-19.49,15.23c-2.1,0.23-4.71,2.55-7.48,3.03
		c-6.19,0.21-8.66-4.05-10.37-9.12c-3.24,1.66-4.39,4.45-5.59,7.21c-0.3,0.06-0.61,0.09-0.92,0.1c-0.34-0.94-0.67-1.89-1.01-2.83
		c0.27-0.57,0.54-1.14,0.81-1.7c3.65-3.69,5.95-9.2,12.87-8.17c2.26,0.34,4.93-0.74,7.03-2.28c0.99,0.02,1.98,0.05,2.96,0.07
		c1.71,1.09,3.43,2.18,5.14,3.28c1.22,0.79,2.37,1.44,3.86,0.38c2-1.43-2.11-1.82-0.45-3.09c1.52,0.36,2.27-0.06,1.8-1.75
		C174.06,55.43,177.55,56.1,180.55,54.38z"/>
	<path class="st3" d="M241.58,79.45c-7.57,7.14-15.13,14.29-22.7,21.43c-3.22,2.78-6.44,5.57-9.66,8.35
		c-0.2-0.71-0.42-2.18-1.06-1.72c-2.7,1.99-4.45,0.07-6.76-0.84c-2.88-1.13-4.92-3.32-7.48-4.69c-4.11-2.19-5.48-4.91-3.51-9.17
		c0.71-1.54,0.74-2.79-1.36-3.11c1.72-3.58,6.2-4.7,7.63-8.54c0.32-0.32,0.64-0.63,0.96-0.95c6.07-4.71,12.97-8.38,18.07-14.32
		c2.26,4.41-2.59,5.7-3.78,8.6c-0.32,0.31-0.64,0.63-0.97,0.94c-3.95,1.74-6.86,4.54-8.62,8.5c0,0-0.04,0.02-0.03,0.03
		c-4.39,0.36-6.65,3.54-9,6.68c-0.96,1.29-2.24,2.4-0.41,3.92c1.83,5.5,7.9,9.08,12.54,7.41c4.79,2.95,8.4,2.25,10.7-3.24
		c0.38-0.91,1.62-1.45,2.44-2.19c4.2-3.81,8.4-7.63,12.6-11.44c1.8-1.67,3.28-3.73,5.54-4.88c3.12-0.34,4.01-3.82,6.69-4.78
		c0.02,0.64,0.04,1.29,0.06,1.93C242.47,77.72,241.77,78.35,241.58,79.45z"/>
	<path class="st4" d="M196.7,81.17c-1.44,3.84-5.91,4.95-7.63,8.54c-6.09,5.39-7.87,10.6-4.23,15.87c2.69,3.9,1.13,6.55-0.71,9.62
		c-0.47,0.79-0.99,1.56-1.48,2.33c-1.58,0.62-2.48,1.69-2.32,3.47c-1.36-0.11-2.64,0.02-3.59,1.19c-0.96,0.01-1.93,0.01-2.89,0.02
		c0.32-1.52,0.64-3.04,0.97-4.56c0.62-0.41,1.24-0.82,1.86-1.23c3.06,0.18,4.17-1.32,3.65-4.23c0.11-1.44,0.22-2.89,0.32-4.33
		c1.05-0.18,2.26-1.22,1.52-1.76c-3.19-2.35-3.41-7.13-7.37-8.73c0.01-0.31,0.02-0.62,0.02-0.93c5.52-0.5,8.71-4.71,12.53-7.9
		c1.14-0.95,0.68-2.34,0.79-3.56c0.41-0.75,1.12-0.93,1.9-0.96C192.39,83.38,193.82,80.6,196.7,81.17z"/>
	<path class="st12" d="M157.59,57.52c-2.1,1.54-4.78,2.62-7.03,2.28c-6.92-1.03-9.22,4.48-12.87,8.17
		c-1.91-0.09-3.81-0.17-5.72-0.25c0.07-0.21,0.07-0.41,0.01-0.62c2.99-1.01,4.81-3.41,6.74-5.67c3.77-1.41,5.26-4.97,7.42-7.89
		c1.61-1.25,3.23-2.51,4.84-3.76c1.23-0.39,2.45-0.78,3.68-1.17C161.54,49.63,157.84,54.14,157.59,57.52z"/>
	<path class="st12" d="M125.21,99.24c-1.18,0.6-2.01,0.61-1.83-1.08c1.17-1.64,1.56-3.47-0.67-4.21c-1.56-0.52-2.99,0.5-3.17,2.5
		c-0.18,1.96-1.68,2.85-3.1,3.89c-2.23,1.64-5.17,1.17-7.41,2.67c-0.91,0.1-1.81,0.21-2.72,0.31c-2.49-0.29-5.19-0.06-6.63-2.82
		c1.22-5.3,3.16,0.98,4.64-0.29c0,0-0.05-0.03-0.05-0.03c0.9,1.25,1.85,1.26,2.84,0.11c2.8-2.32,7.98-2.28,7.67-7.7
		c2.63,1.64,3.29-2.74,5.67-1.86l0-0.01c0.11,2.49,2.07,1.67,3.08,1.36c5.22-1.57,4.06,1.44,3.15,4.23
		C126.33,97.34,125.7,98.27,125.21,99.24z"/>
	<path class="st3" d="M88.32,108.87c0.6-0.64,1.19-1.28,1.79-1.92c0.08,4.68-0.69,8.95-5.37,11.39c-1.91,0.99-3.54,2.17-2.38,4.73
		c-0.54,0.39-0.95,1-0.56,1.55c2.51,3.58,0.66,3.41-2.14,2.62c-0.29-0.08-0.74,0.4-1.11,0.62c-0.86-0.03-1.71-0.05-2.57-0.08
		c-0.1-0.28-0.21-0.56-0.35-0.82c0.04-0.36,0.07-0.71,0.11-1.07c0.04-0.17,0.06-0.35,0.06-0.52c0.62-0.11,1.23-0.21,1.85-0.32
		c1.25-0.13,2.15-0.74,1.56-2.04c-0.48-1.06-1.18-0.41-1.66,0.24c-1.28-0.17-2.44,1.16-3.78,0.32l0.08-0.09
		c0.33-0.43,0.66-0.86,0.99-1.29c2.19-2.25,5.45-3.42,6.65-6.65C84.14,113.71,87.75,112.86,88.32,108.87z"/>
	<path class="st10" d="M138.79,72.4c1.2-2.75,2.36-5.54,5.6-7.2c1.71,5.07,4.18,9.33,10.37,9.12c-5.74,2.35-11.52,2.93-17.35,0.32
		c0.17-0.11,0.34-0.22,0.51-0.33C139.17,74.11,139.49,73.49,138.79,72.4z"/>
	<path class="st9" d="M139.42,91.6c0.43-5.22,4.99-6.61,8.44-8.88c5-3.27,10.75-4.83,16.44-6.46c1.69,0.02,3.39-0.04,5.08,0.08
		c3.2,0.24,6.55,0.25,8.21,3.82c-7.77-2.69-15.39-1.77-22.83,1.22c-2.24,0.9-4.92,1.43-6,4.13c-0.47,0.27-0.95,0.54-1.42,0.81
		C143.28,85.95,142.8,90.96,139.42,91.6z"/>
	<path class="st10" d="M139.42,91.6c3.38-0.63,3.86-5.65,7.93-5.26c-0.35,1.92-2.34,2.69-3.07,4.34c-2.14,1.11-2.33,3.09-1.61,4.92
		c0.95,2.43,3.23,3.28,5.71,3.65c2.43,0.36,5.08-0.89,7.31,0.96c-3.65,0.99-7.37,1.21-11.12,1.04c-3.95-0.17-6.84-1.87-8.12-5.8
		c-0.04-1.44,1.39-1.76,2.04-2.68c0.34-0.4,0.68-0.8,1.03-1.21L139.42,91.6z"/>
	<path class="st3" d="M177.59,80.17c-1.66-3.57-5.01-3.58-8.21-3.82c-1.69-0.13-3.39-0.06-5.08-0.08c2.86-2.64,9.9-3.41,13.81-1.38
		c2.65,1.37,4.35,3.93,3.2,6.6c-1.66,3.85-2.18,8.87-7.45,10.21c0,0-0.03-0.03-0.03-0.03c0.64-1.19,1.28-2.39,1.91-3.58
		C177.25,85.64,179.69,83.44,177.59,80.17z"/>
	<path class="st8" d="M180.55,54.38c-3,1.72-6.49,1.05-9.65,2.02c-0.76-0.05-1.5-0.81-2.29-0.09l-0.01,0.02
		c-0.54-0.44-1.1-0.48-1.7-0.13c-0.24-0.03-0.46,0.03-0.65,0.18c-0.37-6.04-0.35-6.1,6.16-4.41c2.48,0.65,4.58-0.5,6.83-0.97
		c0.98-0.21,1.85-0.22,2.48,0.74C182.69,53.25,181.04,53.55,180.55,54.38z"/>
	<path class="st12" d="M78.53,127.86c0.38-0.22,0.82-0.7,1.11-0.62c2.8,0.79,4.66,0.96,2.14-2.62c-0.39-0.55,0.03-1.15,0.56-1.55
		c2.58-2.36,4.27,1.48,6.59,0.94c0.17,0.82,2.14,1.56,0.96,2.12c-3.14,1.5-4.67,5.28-8.44,5.72
		C79.77,131.04,79.28,129.35,78.53,127.86z"/>
	<path class="st13" d="M114.76,92.6c0.31,5.42-4.86,5.38-7.67,7.7c-0.95-0.04-1.89-0.07-2.84-0.11c0,0,0.05,0.03,0.05,0.03
		c-1.26-1.91-0.71-3.48,0.9-4.85c1.43,0.96,0.71-0.49,0.96-0.86c0,0,0.01,0,0.01,0c1.48-0.19,3.4,0.54,3.86-1.82
		C111.61,92.66,113.18,92.63,114.76,92.6z"/>
	<path class="st12" d="M168.6,56.34c0,0,0.01-0.02,0.01-0.02c0.17,0.61,0.33,1.22,0.5,1.83c-1.66,1.28,2.45,1.67,0.45,3.09
		c-1.49,1.06-2.64,0.41-3.86-0.38c-1.71-1.1-3.43-2.18-5.14-3.28c0.7-6.13,3.66-1.43,5.69-1.2c0.19-0.15,0.41-0.21,0.66-0.18
		C167.42,56.92,167.99,56.85,168.6,56.34z"/>
	<path class="st3" d="M190.04,84.03c-0.78,0.03-1.48,0.2-1.9,0.96c-1.39,0.09-3.41,2.39-3.97-0.46c-0.43-2.2,1.77-3.59,3.69-3.96
		C190.84,80,189.73,82.59,190.04,84.03z"/>
	<path class="st6" d="M106.3,103.32c0.91-0.1,1.81-0.21,2.72-0.31c0.02,1.01,0.04,2.03,0.07,3.04c-3.61,0.87-7.25,2-10.47-1.05
		c0.17-0.25,0.25-0.53,0.24-0.83C101.37,104.12,104.2,106.96,106.3,103.32z"/>
	<path class="st13" d="M136.87,69.67c0.34,0.94,0.67,1.89,1.01,2.83c0.02,0.6,0.03,1.2,0.05,1.8c-0.17,0.11-0.34,0.21-0.51,0.33
		c-4.03,0.12-4.79-2.84-5.51-5.84c-0.16-0.17-0.2-0.36-0.11-0.57C133.32,69.29,135.07,69.58,136.87,69.67z"/>
	<path class="st8" d="M106.3,103.32c-2.1,3.64-4.93,0.8-7.44,0.85c-2.11-1.74,0.51-2.45,0.8-3.66
		C101.11,103.26,103.82,103.03,106.3,103.32z"/>
	<path class="st3" d="M120.43,90.74c0.9-1.06,1.76-2.15,2.7-3.16c0.73-0.78,1.48-1.7,2.73-1.44c0.34,0.07,0.86,0.57,0.84,0.85
		c-0.08,1.42-1.25,2.03-2.29,2.67C123.2,90.41,121.87,90.83,120.43,90.74C120.43,90.73,120.43,90.74,120.43,90.74z"/>
	<path class="st12" d="M131.89,101.11c1.18,0.89,2.35,1.78,3.99,3.02c-2.34,0.86-3.5-0.65-4.89-1.05
		C130.95,102.28,131.15,101.57,131.89,101.11z"/>
	<path class="st12" d="M130.96,99.33c-3.04-0.9-1.71-2.48-1.03-4.59c1.52,1.76,0.76,3.24,1.06,4.55
		C130.99,99.29,130.96,99.33,130.96,99.33z"/>
	<path class="st4" d="M172.89,44.15c1.36-0.11,2.79-0.59,3.85,0.78C175.32,45.36,173.61,47.18,172.89,44.15z"/>
	<path class="st12" d="M110.03,92.7c-0.47,2.35-2.38,1.62-3.86,1.82C107.19,93.33,108.38,92.53,110.03,92.7z"/>
	<path class="st3" d="M165.49,73.05c-0.26,0.15-0.48,0.38-0.71,0.38c-0.23,0-0.46-0.22-0.69-0.35c0.23-0.14,0.45-0.37,0.68-0.38
		C164.99,72.7,165.23,72.92,165.49,73.05z"/>
	<path class="st12" d="M131.33,92.36c0.11,0.04,0.32,0.08,0.32,0.12c0,0.13-0.07,0.26-0.12,0.39c-0.11-0.04-0.32-0.08-0.32-0.12
		C131.2,92.62,131.28,92.49,131.33,92.36z"/>
	<path class="st12" d="M106.16,94.51c-0.25,0.36,0.47,1.82-0.96,0.86C105.52,95.08,105.84,94.8,106.16,94.51z"/>
	<path class="st9" d="M139.51,91.57c-0.34,0.4-0.68,0.8-1.03,1.21c-0.14-0.36-0.5-0.89-0.38-1.03
		C138.44,91.31,138.95,90.81,139.51,91.57z"/>
	<path class="st13" d="M243.48,77.36c-0.02-0.64-0.04-1.29-0.06-1.93c0,0-0.03,0.03-0.03,0.03c0.65,0,1.29,0,1.94,0
		c6.87-0.83,8.79-2.34,8.5-6.63c3.36-1.29,5.85-3.43,6.83-7.03c1.7-0.05,2.89,0.8,3.8,2.15c-2.26,2.63-2.58,6.75-6.87,7.94
		c-1.54,0.43,0.91,2.3,0.48,3.66c0.02,0.6,0.04,1.19,0.06,1.79c-4.94-0.88-8.52,2.74-12.86,3.88c-0.66-0.62-1.33-1.23-1.99-1.85
		C244.17,78.79,244.5,78.14,243.48,77.36z"/>
	<path class="st10" d="M260.66,61.81c-0.98,3.6-3.47,5.74-6.83,7.03c-0.7,0.14-1.4,0.28-2.1,0.42c-1.16-0.45-2.05-1.19-2.52-2.37
		c0.61-0.33,1.22-0.65,1.83-0.98c0.06,0.59,0.09,1.42,0.86,1.3c3.08-0.47,3.28-2.68,2.92-5.16c0,0-0.02,0.01-0.02,0.01
		c2.02,0.44,3.81-0.56,5.71-0.91C260.64,61.34,260.7,61.56,260.66,61.81z"/>
	<path class="st13" d="M260.49,61.15c-1.89,0.36-3.69,1.35-5.71,0.91c-0.37-2.2,1.18-3.52,2.32-5.02
		C258.76,57.97,260.52,58.82,260.49,61.15z"/>
	<path class="st3" d="M224.42,57.36c0.86-0.2,1.72-0.39,2.58-0.59c0.39,0.23,0.77,0.47,1.16,0.71c0.07,1.21,0.76,1.75,1.92,1.77
		c1.15,1.84,0.98,3.87,0.86,5.89c-0.91-0.03-1.83-0.06-2.74-0.1c-0.96,0.26-1.92,0.52-2.88,0.78c-1.39-3.5-2.71-1.49-4.03,0.05
		c-1.4,0.18-2.58-0.37-3.69-1.13C218.85,61.34,222.92,60.53,224.42,57.36z"/>
	<path class="st2" d="M230.08,59.24c-1.16-0.02-1.85-0.56-1.92-1.77c0.35-0.03,0.7-0.06,1.05-0.1c0.75,0.02,1.42,0.19,1.8,0.92
		C230.7,58.62,230.39,58.93,230.08,59.24z"/>
	<path class="st4" d="M230.08,59.24c0.31-0.31,0.62-0.63,0.93-0.94c2.88-0.71,5.11,1.2,7.64,1.9c2.65,2.51,7.16,2.58,8.67,6.59
		c-1.11,2.37-4.43,3.45-3.91,6.76c-0.32,0-0.64,0-0.96-0.01c-2.99-3.96-8.42-4.58-11.5-8.41C231.07,63.11,231.23,61.08,230.08,59.24
		z"/>
	<path class="st4" d="M238.64,59.21c-0.38-0.89-0.7-1.77,0.03-2.65c1.01-1.22,11.16-0.17,11.83,1.29c0.7,1.52-1.09,2.07-1.42,3.21
		c-1.66,1.91-3.4,0.91-4.92-0.06C242.44,59.9,240.73,59.03,238.64,59.21z"/>
	<path class="st12" d="M238.64,59.21c2.1-0.18,3.8,0.69,5.52,1.79c1.52,0.97,3.26,1.97,4.92,0.06c0.97,0.35,1.93,0.69,2.9,1.04
		c0.13,1.38-0.31,2.61-0.95,3.8c-0.61,0.33-1.22,0.65-1.83,0.98c-0.63-0.03-1.26-0.06-1.88-0.09c-1.51-4.01-6.02-4.08-8.67-6.59
		C238.65,59.87,238.64,59.54,238.64,59.21z"/>
	<path class="st13" d="M251.03,65.91c0.63-1.19,1.08-2.42,0.95-3.8c0.94-0.02,1.88-0.04,2.83-0.06c0.36,2.48,0.16,4.68-2.92,5.15
		C251.12,67.32,251.09,66.5,251.03,65.91z"/>
	<path class="st12" d="M217.6,64.74c1.11,0.77,2.29,1.31,3.69,1.13c0.44,1.74-1.58,2.36-1.74,3.83c-2.73,1.28-3.82,5.18-7.6,4.79
		c1.19-2.9,6.03-4.19,3.78-8.6C216.35,65.51,216.97,65.13,217.6,64.74z"/>
	<path class="st7" d="M99.51,231.74c-2.14,2.87,1.37,2.43,2.19,3.26c1.31,1.34,4.4,1.36,2.46,4.45c-4.09-0.39-6.38-4.46-10.37-5.07
		c-0.44-2.01-1.26-3.25-3.41-1.62c-0.81,0.62-1.56,0.99-2.32-0.03c2.01-3.49,2.79-6.98,0.04-10.5c-0.16-0.21-0.05-0.62-0.07-0.94
		c0.98,0.32,1.95,0.65,2.93,0.97c-0.11,2.62,0.24,6.35,2.68,6.34C96.69,228.61,97.86,230.16,99.51,231.74z"/>
	<path class="st1" d="M100.47,248.88c-0.18-1.97-3.55-1.86-3.81-1.87c-0.33-0.32-0.66-0.63-1-0.95c0,0,0,0,0,0
		c-0.32-0.32-0.64-0.64-0.96-0.96c0,0,0,0.02,0,0.02c0-0.64,0-1.28,0-1.92l0.03-0.03c2.33-0.38,3.67,1.62,5.57,2.29
		c2.32,0.82,4.67,1.27,6.61-0.74c1.84-1.9,1.3-4.05,0.27-6.15c-0.96-1.94-1.9-3.89-2.26-6.13c2.83,3.64,5.96,7.23,5.83,12.19
		c-0.07,2.49-1.51,4.48-4.6,4.31C104.27,248.82,102.37,248.89,100.47,248.88z"/>
	<path class="st1" d="M115.71,223.17c-0.71,0.35-1.61,0.53-2.08,1.08c-3.5,4.09-7.77,6.23-13.25,5.58c-2.88-2.33-5.97-4.5-6.59-8.56
		c2.94-0.7,4.03,2.82,6.62,2.91c0.16,1.83,1.48,1.9,2.86,1.88c2.35,2.3,4.25,1.56,6.13-0.74c1.73-2.11,3.27-4.57,6.36-4.98
		C115.74,221.28,115.73,222.23,115.71,223.17z"/>
	<path class="st10" d="M115.71,223.17c0.02-0.94,0.04-1.89,0.05-2.83c0,0-0.05,0-0.05,0c0.78-0.11,0.96-0.68,1.03-1.34
		c0.99-0.84,1.99-1.68,2.98-2.52c1.12,1.11,0.63,2.52,0.73,3.82c-0.07,0.13-0.14,0.25-0.21,0.38c0.07-0.12,0.14-0.25,0.21-0.37
		c1.53-0.02,3.06-0.03,4.59-0.05c-0.92,1.56-1.84,3.13-2.76,4.69C119.72,225.75,117.63,224.77,115.71,223.17z"/>
	<path class="st6" d="M88.03,221.3c0.02,0.32-0.09,0.73,0.07,0.94c2.75,3.52,1.97,7.01-0.04,10.5c-0.63-0.01-1.26-0.03-1.9-0.04
		c0,0,0,0,0,0c-0.51-2.3-0.95-4.61-1.54-6.89C83.84,222.79,84.73,221.16,88.03,221.3z"/>
	<path class="st8" d="M93.79,234.38c3.98,0.61,6.28,4.68,10.37,5.07c0.03,0.61,0.06,1.21,0.09,1.82c-0.32,0.31-0.64,0.62-0.96,0.94
		c-5.02,1.03-7.2-3.43-10.53-5.6C91.78,235.97,93.69,235.28,93.79,234.38z"/>
	<path class="st6" d="M93.78,221.27c0.62,4.07,3.72,6.23,6.59,8.56c0.06,0.79-0.1,1.49-0.87,1.91c-1.65-1.58-2.82-3.13-5.87-3.13
		c-2.44,0-2.79-3.72-2.68-6.34c0.34-0.32,0.68-0.65,1.01-0.97C92.57,221.29,93.18,221.27,93.78,221.27L93.78,221.27z"/>
	<path class="st1" d="M90.87,241.29c-2.91-0.82-4.74-2.75-5.69-5.57c0.09-1.09-0.17-2.29,0.99-3.03c0,0,0,0,0,0
		c0.88,1.66,2.16,2.92,3.79,3.83l0.01,0.01c0.64,1.58,1.28,3.16,1.92,4.75l-0.01,0.01C91.54,241.28,91.2,241.29,90.87,241.29z"/>
	<path class="st1" d="M91.88,241.28c1.39-0.02,2.74,0.01,2.87,1.89c0,0-0.03,0.03-0.03,0.03c-0.64,0-1.28,0.01-1.92,0.01
		c0,0,0.01,0,0.01,0c-0.32-0.32-0.64-0.64-0.96-0.96c0,0,0,0.01,0,0.01C91.86,241.93,91.87,241.61,91.88,241.28L91.88,241.28z"/>
	<path class="st7" d="M103.29,242.2c0.32-0.31,0.64-0.62,0.96-0.94c0.53,0.35,0.98,0.85,0.43,1.39
		C104.11,243.2,103.63,242.74,103.29,242.2z"/>
	<path class="st7" d="M89.95,236.52c0.07-0.13,0.15-0.26,0.22-0.38C90.1,236.27,90.03,236.4,89.95,236.52
		C89.96,236.53,89.95,236.52,89.95,236.52z"/>
	<path class="st1" d="M164.31,183.15c0.05-1.86,1.64-2.18,2.86-2.86c2.05,0.09,3.66-0.41,3.81-2.86c4.69-3.53,6.99-9.84,13.31-11.48
		c-1.1,4.31-2.71,8.32-6.58,10.97c-3.49,2.39-3.42,3.17,0.08,5.73c1.52,1.11,0.87,2.62-0.13,3.72c-4.55,5.02-8.92,10.19-14.19,14.52
		c-1.56,1.28-2.89,2.9-4.14,4.51c-3.64,4.72-5.24,4.81-9.56,0.44c-0.4-0.41-1.1-0.53-1.66-0.77c-0.02-0.47,0.01-0.94-0.09-1.38
		c-0.17-0.82-0.73-1.66-1.35-0.6c-0.57,0.98,0.66,1.49,1.43,1.98c-0.57,2.29,1.86,3.6,1.9,5.7l0,0c-1.98-0.1-3.14-1.72-4.73-2.56
		c-0.36-1.61-1.65-2.36-2.89-3.17c-0.64-3.35-1.65-6.5-4.64-8.58c-2.08-2.4-3.94-5.03-6.69-6.77c-5.68-6.16-12.32-10.15-21.07-9.4
		c-0.23-1.89-1.76-3.14-2.33-4.98c-0.62-2.02-2.21-4.45-5.3-2.66c-0.16-0.27-0.37-0.52-0.48-0.8c-0.59-1.43-3.86-0.73-2.94-2.87
		c1.03-2.39,3.13-0.37,4.45,0.11c3.98,1.43,4.81-0.45,4.66-3.79c4.12,0.76,7.22,4.1,11.46,4.51c1.95,0.34,3.32,1.72,4.89,2.73
		c1.5,2.43,3.72,3.68,6.53,3.95c0.04,1.92,1.71,2.97,2.42,4.53c2.35,5.19,6.97,8.93,9.12,14.26c0.22,3.85,0.42,4.13,2.77,4.06
		c1.06,0.59,2.27,0.7,3.07-0.15c4.53-4.84,10.86-7.61,14.88-13C163.81,185.37,163.95,184.18,164.31,183.15z M127.74,182.39
		c-0.26-2.65-1.79-4.05-4.06-4.59c-0.93-0.22-1.4,0.68-1.1,1.53C123.42,181.71,125.3,182.43,127.74,182.39z"/>
	<path class="st13" d="M125.05,220.27c-1.53,0.02-3.06,0.03-4.59,0.05l-0.01-0.01c-0.1-1.3,0.38-2.71-0.74-3.82
		c-0.03-2.56,1.61-2.9,3.63-2.74c1.36,1.3,2.33,1.04,2.91-0.74c1.27-1.7,4.06-2.3,3.73-5.17c-0.65-0.3-1.29-0.6-1.94-0.9
		c0.01-0.26,0-0.52-0.03-0.77c1.61-0.37,3.22-0.74,4.84-1.1c1.57,1.24,3.14,2.48,4.71,3.72
		C132.74,211.89,127.96,215.06,125.05,220.27z"/>
	<path class="st14" d="M132.86,234.61c-1.6-2.86-0.27-5.72,0-8.58c0.34-0.32,0.68-0.64,1.01-0.96c0.3-0.29,0.6-0.58,0.9-0.87
		c0.32-0.34,0.65-0.68,0.97-1.03c0,0-0.01,0.02-0.01,0.02c2.56-1.35,4.35-0.4,5.69,1.9c-0.01,1.02-0.03,2.04-0.04,3.05
		c-2.15,0.05-2.32,2.35-3.71,3.28C136.06,232.51,135.52,235.15,132.86,234.61z"/>
	<path class="st8" d="M132.86,234.61c2.67,0.54,3.21-2.11,4.8-3.18c1.39-0.94,1.56-3.24,3.71-3.28c0.21,3.78-1.55,6.17-5.03,7.58
		C134.7,236.4,133.66,236.12,132.86,234.61z"/>
	<path class="st10" d="M137.57,208.78c-1.57-1.24-3.14-2.48-4.71-3.72c1.01-1.38,2.53-0.74,3.83-0.96c0.89,0.07,1.79,0.15,2.68,0.22
		c-0.37,2.25,1.73,2.46,2.86,3.46C140.68,208.12,139.13,208.45,137.57,208.78z"/>
	<path class="st7" d="M141.41,225.1c-1.34-2.29-3.13-3.25-5.69-1.9c0.29-2.16,1.87-2.8,3.65-2.66c1.63,0.13,2.68,1.53,3.41,2.87
		C143.49,224.69,142.34,224.9,141.41,225.1z"/>
	<path class="st1" d="M184.07,176.25c0.11,3.4-1.15,4.39-2.96,4.8c-0.63,0.14-1.37-0.27-1.3-1.01
		C180.06,177.35,183.01,179.07,184.07,176.25z"/>
	<path class="st8" d="M142.24,207.78c-1.14-1.01-3.23-1.21-2.86-3.47c1,0.25,2.01,0.49,3.01,0.74c1.24,0.81,2.53,1.56,2.89,3.17
		C144.26,208.08,143.25,207.93,142.24,207.78z"/>
	<path class="st7" d="M193.86,180.29c-0.64,1.28-1.6,2.23-2.87,2.88C190.78,181.05,191.73,180.08,193.86,180.29z"/>
	<path class="st1" d="M150.01,210.78c0.13,0.07,0.26,0.14,0.38,0.22C150.27,210.93,150.14,210.86,150.01,210.78
		C150.01,210.79,150.01,210.78,150.01,210.78z"/>
	<path class="st7" d="M135.73,223.18c-0.32,0.34-0.65,0.68-0.97,1.03C135.09,223.87,135.41,223.52,135.73,223.18z"/>
	<path class="st7" d="M133.87,225.08c-0.34,0.32-0.68,0.64-1.01,0.96C133.19,225.72,133.53,225.4,133.87,225.08z"/>
	<path class="st5" d="M86.16,232.69c-1.16,0.73-0.9,1.94-0.99,3.03c-3.49-2.34-5.37-5.81-6.7-9.66c-0.93-2.55-1.86-5.1-2.79-7.64
		c-0.44-3.35,0.67-5.96,3.66-7.67c4.13,1.37,8.26,2.74,12.4,4.11c0.41,0.02,0.83,0.04,1.24,0.06c-0.23,0.67-0.13,1.25,0.52,1.65
		c0.72,1.1,1.79,1.69,3,2.08c0.82,2.2,3.89,2.6,4.17,5.23l-0.26,0.3c-2.59-0.09-3.68-3.61-6.62-2.91c0,0,0,0,0,0
		c-1.92-3.64-7.72-7.15-11.14-6.51c-2.05,0.39-4.17,1.21-4.05,3.87c0.2,4.42,1.08,8.64,4.89,12.5c0.12-2.48-0.66-3.97-1.32-5.51
		c-0.97-2.25-1.79-4.97,0.45-6.53c2.07-1.43,4.84-1.26,7.11,0.47c0.75,0.57,1.49,1.15,2.24,1.73c-0.34,0.32-0.68,0.65-1.01,0.97
		c-0.98-0.32-1.95-0.65-2.93-0.97c-3.3-0.13-4.19,1.49-3.41,4.5C85.21,228.08,85.66,230.39,86.16,232.69z"/>
	<path class="st5" d="M92.8,243.21c0.64,0,1.28-0.01,1.92-0.01c0,0.64,0,1.28,0,1.92C93.51,245.05,92.82,244.47,92.8,243.21z"/>
	<path class="st5" d="M91.87,241.28c-0.01,0.32-0.01,0.65-0.02,0.97c-0.33-0.32-0.66-0.65-0.99-0.97
		C91.2,241.29,91.54,241.28,91.87,241.28z"/>
	<path class="st5" d="M91.85,242.24c0.32,0.32,0.64,0.64,0.96,0.96C92.49,242.89,92.17,242.57,91.85,242.24z"/>
	<path class="st5" d="M94.71,245.1c0.32,0.32,0.64,0.64,0.96,0.96C95.35,245.74,95.03,245.42,94.71,245.1z"/>
	<path class="st5" d="M95.67,246.06c0.33,0.32,0.66,0.63,1,0.95C96.33,246.7,96,246.38,95.67,246.06z"/>
	<path class="st8" d="M215.85,122.16c-6.94-0.16-11.86,4.25-16.91,7.93c-4.32,3.15-7.91,7.28-12.06,10.69
		c-2.41,1.98-4.83,4.8-8.7,2.2c-1.89-1.27-2.54,0.25-2.41,1.94c0.44,5.73-3.24,8.45-7.68,10.63c-2.25-2.84-4.51-5.68-6.76-8.52
		c6.31-3.23,10.22-10.17,18.05-11.3c1.83-0.26,3.88-3.03-0.44-4.27c-2.28-0.65-4.35-2.02-6.57-3.09c0.95-1.37,1.67-2.39,2.38-3.41
		c0.63-0.32,1.25-0.65,1.88-0.97c1.79-0.3,3.77-0.37,3.69-2.98c2.79,0.12,5.28-0.24,5.86-3.65l0.01-0.01
		c3.15-1.48,5.46-2.4,6.98,2.52c1.41,4.54,9.45,5.48,12.83,1.95c2.21-2.3,4.42-4.04,7.79-3.53
		C214.48,119.58,215.17,120.87,215.85,122.16z"/>
	<path class="st10" d="M213.79,118.29c-3.36-0.5-5.58,1.23-7.79,3.53c-3.38,3.53-11.43,2.6-12.83-1.95
		c-1.52-4.92-3.83-4.01-6.98-2.52c0.11-2.58,3.96-3.52,2.92-6.62c1.34-0.03,2.28-0.66,2.83-1.88c0.93,0.67,1.86,1.35,2.79,2.02
		c0.02,0.47-0.02,0.95,0.06,1.41c1.52,8.06,6.23,10.02,12.75,5.22c1.25-0.92,2.54-1.1,3.95-1.13
		C212.63,116.56,213.34,117.28,213.79,118.29z"/>
	<path class="st13" d="M211.49,116.36c-1.41,0.04-2.71,0.21-3.95,1.13c-6.52,4.8-11.22,2.84-12.75-5.22
		c-0.09-0.46-0.05-0.94-0.06-1.41c2.38-1.61,4.33-2.41,7.3-0.24c1.68,1.22,4.33,3.52,7.29,1.78c0.5,0.47,1,0.94,1.49,1.41
		C211.04,114.67,211.27,115.51,211.49,116.36z"/>
	<path class="st5" d="M210.82,113.82c-0.5-0.47-1-0.94-1.49-1.41c-0.03-1.06-0.07-2.12-0.1-3.18c3.22-2.78,6.44-5.57,9.66-8.35
		c1.39,3.97,1.72,7.47-3.17,9.48C213.91,111.11,212.44,112.65,210.82,113.82z M215.74,107.61c0.12-0.07,0.25-0.13,0.37-0.2
		c-0.11-0.09-0.21-0.24-0.32-0.25c-0.12-0.01-0.24,0.12-0.37,0.18C215.53,107.44,215.63,107.53,215.74,107.61z"/>
	<path class="st5" d="M246.31,104.09c-0.46-0.08-1.03-0.37-1.37-0.2c-3.39,1.73-5.43-0.2-5.31-3.03c0.09-2.07,1.85-4.74,5.24-3.86
		c0.52,0.13,1.16-0.52,2,0.35C243.86,99.29,246.09,101.74,246.31,104.09C246.31,104.09,246.31,104.09,246.31,104.09z"/>
	<path class="st5" d="M232.93,105.96c0.2,1.53,3.72,2.83,0.18,4.7c-1.1,0.58-1.78,2.77-3.25,1.41c-0.72-0.67-1.04-2.6,0.27-3.86
		c0.87-0.83,1.21-2.29,2.78-2.27L232.93,105.96z"/>
	<path class="st5" d="M225.3,121.2c-0.31,2.06-1.3,3.55-3.55,3.6c-1.09,0.02-1.44-1.11-1.75-1.97c-0.56-1.54,0.62-2.37,1.64-2.98
		c0.74-0.45,1.78-0.4,2.69-0.57l0.02,0.02c-0.49,1.03-0.73,1.93,0.94,1.89L225.3,121.2z"/>
	<path class="st12" d="M243.48,77.36c1.03,0.78,0.69,1.42-0.2,2.02c-0.57,0.02-1.13,0.05-1.7,0.07
		C241.77,78.35,242.47,77.72,243.48,77.36z"/>
	<path class="st5" d="M236.36,90.96c-0.26,0.1-0.59,0.34-0.77,0.26c-0.18-0.08-0.22-0.48-0.32-0.75c0.26-0.1,0.59-0.35,0.77-0.27
		C236.22,90.29,236.26,90.7,236.36,90.96z"/>
	<path class="st5" d="M224.34,119.28c0.07-0.13,0.15-0.26,0.22-0.38c-0.07,0.13-0.14,0.27-0.2,0.4
		C224.36,119.3,224.34,119.28,224.34,119.28z"/>
	<path class="st5" d="M225.29,121.19c0.07-0.13,0.15-0.26,0.22-0.38c-0.07,0.13-0.14,0.26-0.21,0.39
		C225.3,121.2,225.29,121.19,225.29,121.19z"/>
	<path class="st5" d="M232.91,105.94c0.08-0.13,0.15-0.26,0.23-0.38c-0.07,0.14-0.14,0.27-0.21,0.41
		C232.93,105.96,232.91,105.94,232.91,105.94z"/>
	<path class="st1" d="M203.37,149.78c1.94-2.16,3.87-4.37,6.72-1.15c-0.03,0.7-0.05,1.4-0.08,2.1
		C207.8,150.42,205.58,150.1,203.37,149.78z"/>
	<path class="st1" d="M210.99,151.73c-0.31-0.32-0.62-0.64-0.92-0.96C210.38,151.1,210.68,151.42,210.99,151.73z"/>
	<path class="st8" d="M142.47,195.29c-2.15-5.32-6.77-9.07-9.12-14.26c-0.71-1.57-2.38-2.61-2.42-4.53
		c6.01-5.11,12.32-9.93,17.9-15.47c2.62-2.61,4.37-2.59,6.91-0.76c0.07,1.2,0.7,1.84,1.9,1.91c0.06,0.94-0.18,2.05,0.25,2.78
		c1.48,2.55,4.24,5.59,6.49,4.66c2.78-1.15,5.75-3.76,6.59-7.43c3.77,2.91,1.19,6.4-0.76,7.51c-5.4,3.09-8.07,8.83-13.09,12.09
		c-1.83,1.18-3.2,2.91-5.49,3.58c-3.88,1.12-3.86,3.17-0.72,5.43c-0.22,5.26-4.12,4.61-7.56,4.7
		C143.05,195.44,142.75,195.37,142.47,195.29z"/>
	<path class="st7" d="M143.34,195.49c3.44-0.09,7.33,0.56,7.56-4.7c2.34,0.23,3.6-1.15,4.92-2.88c2.09-2.73,4.47-5.3,8.48-4.76
		c-0.36,1.03-0.49,2.22-1.11,3.05c-4.02,5.38-10.35,8.16-14.88,13c-0.8,0.85-2.01,0.74-3.07,0.15
		C145.62,197.57,144.27,196.63,143.34,195.49z"/>
	<path class="st10" d="M170.97,162.18c-0.84,3.67-3.81,6.28-6.59,7.43c-2.25,0.93-5.01-2.11-6.49-4.66
		c-0.42-0.73-0.18-1.84-0.25-2.78l-0.01,0.01c4.27,4.49,4.26,4.48,9.12,0.03c0.46-0.42,0.99-0.76,1.49-1.13
		c0.89,0.15,1.79,0.29,2.68,0.44C170.88,161.74,170.89,161.96,170.97,162.18z"/>
	<path class="st6" d="M170.92,161.51c-0.89-0.15-1.79-0.29-2.68-0.43c-2.24-5-6.63-8.85-7.74-14.46c0.26,0.17,0.54,0.31,0.84,0.41
		c2.25,2.84,4.51,5.68,6.76,8.52C168.71,157.7,170.95,159.07,170.92,161.51z"/>
	<path class="st7" d="M170.98,177.43c-0.15,2.44-1.76,2.94-3.81,2.86C167.31,177.83,168.93,177.34,170.98,177.43z"/>
	<path class="st1" d="M196.7,155.52c2.14-0.08,4.58,0.34,4.71-2.95c0.27-0.3,0.55-0.61,0.82-0.91c3.87,1.43,0.93,3.36-0.04,4.34
		C200.49,157.7,198.23,158.94,196.7,155.52z"/>
	<path class="st7" d="M71.76,199.37c-1.24,0.3-2.49,0.6-3.73,0.9c-0.05-2.65,0.32-5.11,2.85-6.66c0.18,0.75,0.11,1.8,0.59,2.18
		c0.89,0.7,1.31-0.33,1.67-0.98c0.92-1.67,1.44-4.41,2.75-4.85c4.19-1.4,3.41-5.66,5.48-8.24c2.17-2.7-0.34-8.36-3.75-10.05
		c-0.35-2.52-2.54-3.82-3.82-5.73c-0.85-4.53-3.41-7.2-8.16-7.49c-2.93-1.77-5.11-4.76-8.96-5.04c-4.3-0.32-7.03,2.66-7.92,5.61
		c-0.94,3.12,3.32,1.24,4.86,2.49c0.73,0.59,1.63,0.95,2.46,1.42c-0.57,0.25-1.25,0.83-1.71,0.69c-4.61-1.4-7.08,0.54-8.18,4.94
		c-0.21,0.83-1.02,1.13-1.82,1.27c-0.76-4.2-2.8-8.09-2.99-12.43c0.12-0.09,0.36-0.23,0.34-0.27c-0.09-0.24-0.23-0.46-0.36-0.68
		c-0.68-1.6-1.76-3.21,0.06-4.77c3.65-0.16,6.81-2.49,10.52-2.34c1.56,0.43,3.13,0.86,4.69,1.29c0.49,0.74,1.17,0.91,1.98,0.62
		c0.61,0.13,1.21,0.27,1.82,0.4c0.52,0.71,1.19,0.85,1.99,0.57c4.11,1.04,8.22,2.09,12.33,3.13c0.51,0.73,1.17,0.9,1.98,0.57
		c0.61,0.14,1.22,0.28,1.82,0.42c1.73,1.24,3.72,1.56,5.79,1.58c0.61,0.13,1.22,0.26,1.82,0.39c0.51,0.71,1.19,0.85,1.99,0.58
		c0.61,0.13,1.21,0.26,1.82,0.39c2.66,1.65,5.61,2.21,8.68,2.34c0.61,0.14,1.22,0.28,1.83,0.42c2.24,1.74,5.45,1.24,7.55,3.28
		c0.15,3.35-0.68,5.23-4.66,3.8c-1.32-0.47-3.42-2.49-4.45-0.11c-0.92,2.14,2.35,1.44,2.94,2.87c0.12,0.29,0.32,0.54,0.48,0.8
		c-3.57,4.87-1.61,10.09-0.94,15.22c-2.17,1.03-5.07,1.41-4.51,4.93c-0.37,0.58-0.75,1.15-1.12,1.73c-2.77-0.24-4.3-2.68-6.62-3.79
		c-1.6-0.76-1.83-0.37-2.06,0.96C83.4,197.1,78.48,200.04,71.76,199.37z"/>
	<path class="st13" d="M56.07,162.93c-0.83-0.47-1.73-0.83-2.46-1.42c-1.54-1.25-5.8,0.63-4.86-2.49c0.89-2.95,3.62-5.92,7.92-5.61
		c3.85,0.28,6.03,3.27,8.97,5.04c0.12,0.3,0.23,0.6,0.35,0.9c-0.09,2.58,0.3,5.35-2.72,6.74c-2.23-1.02-4.45-2.04-6.68-3.06
		c0,0-0.25-0.11-0.25-0.11L56.07,162.93z"/>
	<path class="st11" d="M73.8,165.94c1.27,1.91,3.46,3.21,3.82,5.73c0.33,1.02,0.61,2.06,1,3.05c2.21,5.61,0.31,8.43-5.65,8.37
		c-0.35-3.32-2.63-5.48-4.66-7.81c-1.48-1.71-3.87-2.78-4.05-5.46c0,0-0.01,0.01-0.01,0.01c1.58,0.62,3.17,1.24,4.75,1.86
		c2.46,1.94,3.31,0.37,3.76-1.79C73.03,168.55,72.43,166.99,73.8,165.94z"/>
	<path class="st6" d="M72.96,183.09c5.97,0.06,7.87-2.76,5.65-8.37c-0.39-0.99-0.67-2.03-1-3.05c3.41,1.68,5.92,7.34,3.75,10.05
		c-2.07,2.58-1.29,6.84-5.48,8.24c-1.31,0.44-1.83,3.18-2.75,4.85c-0.36,0.65-0.78,1.68-1.67,0.98c-0.47-0.37-0.41-1.43-0.59-2.18
		C70.57,189.91,73.16,186.78,72.96,183.09z"/>
	<path class="st9" d="M58.68,178.39c-0.35-0.3-0.77-0.56-1.04-0.92c-1.21-1.63-2.52-3.24-1.85-5.51c0.2-0.68,0.7-1.18,1.34-1.02
		c2.32,0.57,3.7,2.1,4.18,4.45C60.21,176.2,58.48,176.45,58.68,178.39z"/>
	<path class="st9" d="M54.82,188c-2.69-0.29-3.25-2.06-2.86-4.32c0.31-1.78,1.46-1.02,2.47-0.67c2.94,1.01,2.27,2.91,1.26,4.92
		C55.39,187.94,55.1,187.96,54.82,188z"/>
	<path class="st7" d="M56.59,163.04c2.23,1.02,4.45,2.04,6.68,3.06c0.32,1.24,0.65,2.49,0.97,3.73c0,0,0.01-0.01,0.01-0.01
		C61.02,168.32,57.61,167.03,56.59,163.04z"/>
	<path class="st8" d="M58.68,178.39c-0.2-1.94,1.53-2.2,2.63-3.01c1.19,1.04,3.63,1.83,2.2,3.82
		C61.87,181.47,60.31,178.72,58.68,178.39z"/>
	<path class="st8" d="M54.82,188c0.29-0.04,0.58-0.06,0.87-0.07c0.46,0,0.93,0.01,1.39,0.01c1.49,0.01,2.81,0.32,3.12,2.07
		c0.12,0.66-0.16,1.25-0.82,1.47c-1.55,0.52-2.71-0.03-3.5-1.43C55.5,189.39,55.17,188.69,54.82,188z"/>
	<path class="st2" d="M78.56,156.33c-0.61-0.14-1.22-0.28-1.82-0.41c-0.4-1.08-0.94-1.72-1.98-0.57c-4.11-1.04-8.22-2.09-12.33-3.13
		c-0.39-1.13-0.91-1.84-1.99-0.57c-0.61-0.13-1.21-0.27-1.82-0.4c-0.39-1.08-0.88-1.83-1.98-0.62c-1.56-0.43-3.13-0.86-4.69-1.29
		c-0.7-1.83-2.12-1.58-3.5-1.12c-1.22,0.4-2.38,0.95-3.33-0.43c1.57-1.26,3.15-2.52,4.72-3.78c2.59-0.32,5.18-0.63,7.77-0.95
		c4.65,2.16,9.12,2.07,13.41-0.96c1.38-0.97,2.94-1.08,4.56-0.73c8.33,2.91,17.06,4.26,25.55,6.56c1.06,0.29,2.08,0.69,3.12,1.04
		c-0.24,2.98-2.73,3.39-5.9,4.46c4.37,0.9,7.74,1.92,11.15,2.1c1.17,0.06,2.91-1.25,3.79-3.02c0.69-1.39,2.21,0.39,3.4,0.16
		c-1.76,4.19-6.02,6.12-8.63,9.54c-2.54,0.8-5-1.79-7.56-0.2c-0.61-0.14-1.22-0.28-1.83-0.42c-2.55-2.04-5.28-3.42-8.68-2.34
		c-0.61-0.13-1.21-0.26-1.82-0.39c-0.38-1.16-0.91-1.81-1.99-0.58c-0.61-0.13-1.22-0.26-1.82-0.39
		C82.76,156.15,81.02,154.92,78.56,156.33z"/>
	<path class="st13" d="M75.58,141.38c-1.61-0.35-3.18-0.24-4.56,0.73c-4.29,3.03-8.76,3.11-13.41,0.96c-0.2-2.3-1.67-2.9-3.7-2.75
		c-0.05-0.34-0.09-0.68-0.14-1.02c0.1-0.24,0.12-0.48,0.04-0.73c2.89,0.38,2.57-0.99,1.51-2.77c0.67-0.1,1.34-0.21,2-0.31
		c2.58,2.95,5.75,1.36,8.74,1.13c-1.7,3.79-5.51,0.5-7.89,2.4c0.23,0.36,0.39,0.86,0.72,1.09c5.14,3.51,17.07-0.85,18.68-6.84
		c0.45-1.68,0.39-3.22-1.86-3.55c0.08-0.65,0.17-1.3,0.25-1.96c0.86,0.03,1.71,0.05,2.57,0.08c0.75,1.5,1.24,3.18,2.93,3.99
		c-0.81,2.44-1.03,5.17-4.37,5.93C75.47,138.15,75.69,140,75.58,141.38z"/>
	<path class="st5" d="M53.82,138.57c0.07,0.25,0.06,0.49-0.05,0.72c-1.9,0-3.8-0.01-5.7-0.01c-0.07-0.64-0.15-1.27-0.22-1.91
		c0.06-0.63,0.12-1.26,0.17-1.89C50.62,135.28,53.02,135.42,53.82,138.57z"/>
	<path class="st12" d="M45.11,147.79c0.95,1.38,2.11,0.83,3.33,0.43c1.39-0.46,2.8-0.71,3.5,1.12c-3.71-0.15-6.88,2.18-10.52,2.34
		C42.28,150.03,43.6,148.82,45.11,147.79z"/>
	<path class="st12" d="M53.91,140.31c2.03-0.16,3.5,0.44,3.7,2.75c-2.59,0.32-5.18,0.63-7.77,0.95
		C51.03,142.6,52.16,141.12,53.91,140.31z"/>
	<path class="st9" d="M47.86,137.38c0.07,0.64,0.14,1.27,0.22,1.91c-3.02,0.28-6.04,0.55-9.07,0.83c0.16-0.59,0.32-1.18,0.47-1.77
		C42.18,137.24,45.09,137.93,47.86,137.38z"/>
	<path class="st12" d="M31.23,147.27c-0.86-0.5-1.25-1.28-1.29-2.25c0,0-0.02,0.01-0.02,0.01c0.32,0,0.63,0,0.95-0.02
		c0.27,0.3,0.53,0.6,0.8,0.91C31.52,146.37,31.37,146.82,31.23,147.27z"/>
	<path class="st5" d="M41.36,156.46c0.13,0.22,0.27,0.44,0.36,0.68c0.02,0.04-0.22,0.18-0.34,0.27
		C41.36,157.09,41.36,156.77,41.36,156.46z"/>
	<path class="st12" d="M58.45,128c1.93-1.29,3.86-2.58,5.79-3.87c3.15-0.93,6.36-0.82,9.59-0.66c0,0-0.08,0.09-0.08,0.09
		c0.01,1.12,0.02,2.25,0.04,3.37c-4.31,5.96-10.08,7.71-17.07,5.88C56.38,130.88,57.87,129.6,58.45,128z M67.63,127.01
		c-0.48-1.29-1.54-1.14-2.36-0.85c-1.39,0.48-3.35,0.68-3.36,2.63c0,1.22,1.42,1.06,2.24,0.8
		C65.56,129.13,67.22,128.83,67.63,127.01z"/>
	<path class="st3" d="M58.45,128c-0.58,1.6-2.08,2.88-1.74,4.81c0.2,0.9,0.41,1.79,0.61,2.69c-0.67,0.1-1.34,0.21-2,0.31
		c-0.23-0.41-0.47-0.82-0.7-1.23C52.82,131.16,57.51,128.22,58.45,128z"/>
	<path class="st9" d="M54.63,134.57c0.23,0.41,0.47,0.82,0.7,1.23c1.06,1.78,1.38,3.15-1.51,2.77c-0.79-3.16-3.2-3.29-5.78-3.08
		c0-0.31,0-0.62,0-0.93C50.23,134.56,52.43,134.57,54.63,134.57z"/>
	<path class="st13" d="M30.86,145.01c-0.32,0.01-0.63,0.02-0.95,0.02C30.22,144.5,30.54,144.46,30.86,145.01z"/>
	<path class="st2" d="M134.76,135.48c0.6,0.06,1.2,0.12,1.8,0.18c0.35,1.04,0.67,2.15,2.01,0.86c1.41,0.32,2.77,0.73,3.82,1.82
		c0.97,3.31,2.08,3.81,4.78,2.17c0.63,0.23,1.26,0.46,1.89,0.69c0.58,3.81,2.95,2.71,5.21,1.9c0.45-0.01,0.9-0.01,1.36-0.02
		c1.52,2,0.77,3.44-0.68,5.28c-2.11,2.68-4.41,2.25-7,1.41c-0.26,0.02-0.53,0.03-0.79,0.02c-0.36-1.88-1.19-2.45-2.75-0.99
		c-1.73,0.18-2.64-1.31-3.99-1.93c-1.33-3.24-3.62-5.26-7.19-5.63c-1.11-0.11-2.4-0.15-2.71-1.38c-0.44-1.75,1.21-1.39,2.12-1.66
		C134.05,137.8,134.67,136.87,134.76,135.48z"/>
	<path class="st3" d="M116.68,152.68c-1.19,0.23-2.71-1.55-3.4-0.16c-0.88,1.77-2.62,3.08-3.79,3.02c-3.41-0.18-6.78-1.21-11.15-2.1
		c3.17-1.06,5.66-1.48,5.9-4.46c5.11,1.82,9.19,0.23,12.62-3.72c0.92-1.06,1.91-2.14,3.42-2.42c1.21,1.66,0.9,3.25-0.24,4.78
		c-1.14,1.53-2.29,3.04-2.44,5.03C117.3,152.67,116.99,152.67,116.68,152.68z"/>
	<path class="st4" d="M155.63,143.08c-0.45,0.01-0.9,0.01-1.36,0.02c0,0,0-0.05,0-0.05c-1.42-3.72-5.3-3.45-8.07-4.98
		c-0.3-0.24-0.59-0.47-0.89-0.71c-1.07-0.58-2.13-1.15-3.2-1.73c1.05-0.69,2.1-1.37,3.14-2.06c1.58,0.33,3.17,0.65,4.75,0.98
		c2.23,2.85,5.01,4.04,8.58,2.85c1.32-0.05,2.63-0.11,3.95-0.16c2.2-0.13,2.98,1.01,2.77,3.06c0,0-0.01,0.01-0.01,0.01
		C161.78,140.22,159.65,144.94,155.63,143.08z"/>
	<path class="st12" d="M134.76,135.48c-0.09,1.39-0.72,2.32-2.11,2.73c-0.91,0.27-2.57-0.1-2.12,1.66c0.31,1.23,1.6,1.26,2.71,1.38
		c3.56,0.36,5.86,2.39,7.19,5.63c-5.25-2.17-10.29-4.97-16.1-5.52c-0.39-0.14-0.77-0.27-1.16-0.41c0.09-4.14,4.11-4.95,6.4-7.07
		C130.84,132.68,133.07,134.61,134.76,135.48z"/>
	<path class="st12" d="M112.52,135.08c-3.83,3.29-7.6,1.88-11.53,1.58c-4.02-0.3-7.3-3.12-11.63-2.16c1.37-5.99,5.31-2.64,7.7-2.42
		C102.07,132.55,106.99,133.95,112.52,135.08z"/>
	<path class="st2" d="M145.25,133.57c-1.05,0.69-2.09,1.37-3.14,2.06c-0.95-0.14-1.95-0.16-2.61-1.03
		c-0.12-1.36-0.37-3.07-1.74-3.29c-1.49-0.23-0.89,1.48-1.11,2.38c-1.38-0.16-3.28,0.1-3.81-1.21c-0.5-1.24,1.04-2.42,2-3.27
		c2.16-1.92,4.12-4.33,7.43-4.3c1.26,2.08-0.98,5.22,2.03,6.77c0.32,0.31,0.63,0.62,0.95,0.94
		C145.24,132.94,145.25,133.25,145.25,133.57z"/>
	<path class="st2" d="M123.16,140.94c0.39,0.14,0.77,0.27,1.16,0.41c1.11,7.25-1.01,10.83-6.71,11.31c0.15-2,1.31-3.51,2.44-5.03
		c1.14-1.53,1.45-3.12,0.24-4.78C121.01,141.85,121.86,141.05,123.16,140.94z"/>
	<path class="st13" d="M108.23,145.13c-4.87,2.04-8.74-0.98-13.84-1.69C100.2,139.92,104.18,142.84,108.23,145.13z"/>
	<path class="st13" d="M116.68,121.17c2.94,0,5.88,0,9.32,0c-4.42,4.37-4.42,4.37-10.33,1.97l0.05-0.06c0.73-0.41,0.9-1.1,0.91-1.86
		L116.68,121.17z"/>
	<path class="st13" d="M126.33,130.73c-1.39-0.09-3.29,0.2-3.38-1.67c-0.08-1.76,2.04-0.89,3-1.56c0.13-0.09,0.29-0.13,0.44-0.18
		c1.54-0.48,3.12-0.73,4.62-0.01c0.71,0.34,0.55,1.12,0.07,1.58C129.76,130.16,128.16,130.76,126.33,130.73z"/>
	<path class="st12" d="M112.93,110.67c2.2,0.53,4.94-1.28,6.6,1.53c-1.29,3.95-4.02,1.52-6.11,1.23
		C111.17,113.12,112.66,111.68,112.93,110.67z"/>
	<path class="st3" d="M121.97,136.63c-1.53,1.45-2.92,1.69-4.32,1.85c-0.85,0.1-1.85,1.11-2.5,0.01c-0.3-0.51-0.01-1.5,0.23-2.19
		c0.43-1.22,1.25-1.67,2.57-1.07C119.07,135.74,120.27,136.05,121.97,136.63z"/>
	<path class="st12" d="M145.3,137.36c0.3,0.24,0.59,0.47,0.89,0.71c-0.36,1.09,0.51,1.69,0.97,2.45c-2.7,1.64-3.81,1.14-4.78-2.17
		C143.45,138.27,144.72,138.85,145.3,137.36z"/>
	<path class="st13" d="M87.7,140.62c1.84,0.34,3.68,0.67,5.85,1.07C90.97,143.08,90.97,143.08,87.7,140.62z"/>
	<path class="st3" d="M136.65,133.7c0.22-0.9-0.38-2.61,1.11-2.38c1.37,0.21,1.62,1.92,1.74,3.29
		C138.51,134.43,137.41,134.6,136.65,133.7z"/>
	<path class="st12" d="M138.57,136.52c-1.35,1.29-1.66,0.18-2.01-0.86C137.42,135.51,138.14,135.67,138.57,136.52z"/>
	<path class="st12" d="M123.35,112.39c0.72-0.79,1.35-0.73,1.88,0.21C124.49,113.58,123.86,113.47,123.35,112.39z"/>
	<path class="st13" d="M115.67,123.13c-0.68-0.14-1.37-0.29-2.05-0.43c0.08-0.12,0.14-0.32,0.24-0.36c0.81-0.27,1.41,0.06,1.86,0.73
		C115.72,123.08,115.67,123.13,115.67,123.13z"/>
	<path class="st13" d="M116.62,121.22c-0.13-0.08-0.25-0.16-0.38-0.25c0.14,0.06,0.29,0.13,0.43,0.19
		C116.68,121.17,116.62,121.22,116.62,121.22z"/>
	<path class="st12" d="M165.31,140.3c0.21-2.05-0.58-3.19-2.77-3.06c-0.99-2.45-2.64-3.15-5.4-3.2c-2.82-0.05-7.15-1.06-7.43-3.55
		c-0.28-2.52,3.98-2.98,6.58-3.62c4.25-1.04,8.53-1.94,12.79-2.9c0.99,0.08,1.98,0.16,2.97,0.24c-1.87,2.56-5.13,1.22-7.42,2.65
		c-0.78,0.49-2.49-0.58-2.41,1.3c0.07,1.55,0.77,2.53,2.64,2.63c2.81,0.15,5.6,0.63,8.39,0.99c0.98,0.13,1.92,0.51,2.04,1.6
		c0.05,0.5-0.36,1.44-0.73,1.54C170.94,135.82,168.83,139.28,165.31,140.3z"/>
	<path class="st12" d="M175.75,88.08c-0.64,1.19-1.28,2.39-1.91,3.58c-5.73,3.53-11.45,7.08-18.15,8.55
		c-2.23-1.85-4.88-0.6-7.31-0.96c-2.49-0.37-4.76-1.22-5.71-3.65c-0.71-1.82-0.52-3.81,1.61-4.92c0.63,3.16,3.23,4.49,5.79,4.66
		c8.01,0.55,15.07-1.9,20.82-7.77c1.58-1.62,2.18-3.38,2.05-5.52C176.76,82.72,175.37,85.81,175.75,88.08z"/>
	<path class="st2" d="M174.79,97.37c3.96,1.6,4.18,6.38,7.37,8.73c0.74,0.54-0.47,1.58-1.52,1.76c-0.85-0.77-1.6-1.69-2.9-1.67
		c-0.53-0.8-1.78-1.69-2.01-0.7c-0.34,1.49-0.81,3.82,1.94,4.24c-0.02,1.38-0.86,2.25-1.9,2.99c-3.08-0.19-5.44,2.98-8.71,1.85
		c0.05-0.59,0.11-1.18,0.16-1.76c0.94-0.7,1.87-1.39,2.81-2.09c3.53-1.6,3.73-3.69,0.52-5.72c-4.11-2.6-7.55-0.03-11.01,1.88
		c-0.11-1.9-1.48-1.91-2.86-1.89l0,0c0.13-1.04,0.58-1.83,1.75-1.85c4.96-0.1,8.65-5.26,14.15-3.53
		C173.04,99.76,174.04,98.16,174.79,97.37z"/>
	<path class="st8" d="M177.74,106.2c1.3-0.02,2.05,0.9,2.9,1.67c-0.11,1.44-0.22,2.89-0.32,4.33c-1.22,1.41-2.43,2.82-3.65,4.23
		c-0.62,0.41-1.24,0.82-1.86,1.23c-2.63-0.1-4.36,1.37-5.83,3.31c-3.2,0.51-6.35,1.49-9.64,1.25c-2.38-0.18-4.76-0.43-5.06-3.59
		c0.6-2.05,1.45-1.94,3.36-1.09c5.52,2.47,14.52-0.12,18.12-4.8c1.04-0.74,1.88-1.61,1.9-2.99
		C177.7,108.56,177.72,107.38,177.74,106.2z"/>
	<path class="st2" d="M151,113.68c-0.97-1.63-1.83-3.12-4.33-2.42c-2.5,0.7-4.01-1.97-6.23-2.46c-0.32-0.57-0.63-0.52-0.93,0.02
		c0,0,0.03-0.02,0.03-0.02c-0.65-0.29-1.3-0.58-1.95-0.86c0.18-1.01,0.59-1.88,1.75-1.89c5.8-0.06,11.43-3.02,17.35-1.04
		c0,0,0,0,0,0c-0.12,1.82-2.58,2.76-1.84,4.9c-0.33,0.3-0.66,0.61-0.99,0.91c-0.22-0.65-0.2-1.89-1.21-1.35
		c-1.3,0.69-0.54,2.17-0.64,3.32C151.66,113.08,151.33,113.38,151,113.68z"/>
	<path class="st13" d="M153.85,110.81c0.33-0.3,0.66-0.61,0.99-0.91c2.17,0.02,1.83,1.65,1.88,2.98c0.05,1.38,0.43,2.53,2.03,2.52
		c2.55-0.02,5.23,0.98,7.58-0.85c0.25,0.02,0.5,0.03,0.74,0.02c3.28,1.13,5.64-2.04,8.71-1.85c-3.6,4.68-12.61,7.27-18.12,4.8
		c-1.92-0.86-2.77-0.96-3.36,1.09c-0.91-1.5-1.19-2.71-1-4.33c-1.72,0.42-1.11,1.97-1.52,3.01c-0.42,1.07-0.98,2.28-2.36,1.43
		c-1.6-0.98-0.32-1.84,0.45-2.55c0.75-0.7,1.09-1.53,1.14-2.51c0.33-0.3,0.67-0.6,1-0.9C152.61,112.12,153.23,111.47,153.85,110.81z
		"/>
	<path class="st8" d="M109.09,106.05c-0.02-1.01-0.04-2.03-0.07-3.04c2.25-1.5,5.18-1.03,7.41-2.67c1.42-1.04,2.92-1.94,3.1-3.89
		c0.18-2,1.61-3.03,3.17-2.5c2.23,0.74,1.84,2.57,0.67,4.21C119.26,101.96,115.25,105.95,109.09,106.05z"/>
	<path class="st12" d="M137.58,107.93c0.65,0.29,1.3,0.58,1.95,0.86c-3.47,5.65-7.62,0.13-11.97,1.38
		C130.74,105.62,134.39,108.16,137.58,107.93z"/>
	<path class="st2" d="M168.98,120.96c1.47-1.94,3.2-3.41,5.83-3.31c-0.32,1.52-0.64,3.04-0.97,4.56c-0.01,0.57-0.02,1.14-0.03,1.71
		c-0.59,0.1-1.17,0.19-1.76,0.29c-0.99-0.08-1.98-0.16-2.97-0.25C169.05,122.96,169.02,121.96,168.98,120.96z"/>
	<path class="st2" d="M158.58,137.4c-3.57,1.19-6.35,0-8.58-2.85C153.17,134.58,156.14,135.19,158.58,137.4z"/>
	<path class="st2" d="M143.88,103.79c-0.11,0.26-0.22,0.52-0.33,0.77c-0.26-0.11-0.66-0.17-0.73-0.35c-0.07-0.19,0.18-0.5,0.29-0.76
		C143.36,103.56,143.62,103.68,143.88,103.79z"/>
	<path class="st4" d="M145.24,132.63c-0.32-0.31-0.63-0.62-0.95-0.94C144.61,132.01,144.92,132.32,145.24,132.63z"/>
	<path class="st12" d="M139.5,108.82c0.3-0.54,0.61-0.59,0.93-0.02C140.12,108.8,139.81,108.81,139.5,108.82z"/>
	<path class="st5" d="M136.87,69.67c-1.8-0.09-3.55-0.39-5.07-1.45c0.05-0.17,0.1-0.34,0.16-0.51c1.91,0.08,3.81,0.17,5.72,0.25
		C137.41,68.54,137.14,69.11,136.87,69.67z"/>
	<path class="st2" d="M169.11,58.15c-0.17-0.61-0.33-1.22-0.5-1.83c0.79-0.72,1.53,0.04,2.29,0.09
		C171.37,58.08,170.62,58.51,169.11,58.15z"/>
	<path class="st5" d="M137.92,74.31c-0.02-0.6-0.03-1.2-0.05-1.8c0.31-0.01,0.62-0.05,0.92-0.1
		C139.49,73.49,139.17,74.11,137.92,74.31z"/>
	<path class="st13" d="M231.19,85.1c-4.2,3.82-8.39,7.63-12.6,11.44c-0.82,0.74-2.06,1.28-2.44,2.19c-2.3,5.49-5.91,6.2-10.7,3.24
		c-2.34-4.3-7.46-4.51-10.79-7.33c1.29-3.41,2.82-6.58,6.63-7.9c1.38-0.48,1.06-1.71,1.04-2.78c0,0,0.04-0.02,0.04-0.02
		c3.32-0.84,4.86-4.11,7.68-5.63c0.11,1.88,1.44,1.92,2.82,1.89c-0.49,1.49-2.59,2.34-1.78,4.6c2.3-1.91,4.48-3.72,6.65-5.53
		c2.66,1.27,3.92-1,5.59-2.21c0.67-0.49,1.41-0.77,2.15-0.32c0.67,0.4,0.32,1.02,0.16,1.63C224.39,83.21,225.68,84.77,231.19,85.1z
		 M216.73,90.71c-2.48,0.85-5.09,4.71-7.35-0.44c-0.24-0.55-1.11,0.6-1.24,1.39l0.01-0.01c-2.13-0.17-2.56,2.15-4.11,2.8
		c-0.97,0.4-1.8,0.95-1.25,2.05c0.53,1.05,1.55,0.78,2.47,0.4c1.76-0.71,2.75-0.86,1.76,1.66c-0.31,0.78,1.52,1.61,2,0.94
		c2.28-3.21,7.66-3.7,7.7-8.81c0.07-0.12,0.14-0.24,0.21-0.37C216.85,90.46,216.79,90.58,216.73,90.71z M220.17,82.06
		c-4.19,0.85-6.57,3.05-7.56,6.64C216.07,87.36,217.93,84.52,220.17,82.06z"/>
	<path class="st12" d="M209.22,109.23c0.03,1.06,0.07,2.12,0.1,3.18c-2.95,1.74-5.61-0.56-7.29-1.78c-2.98-2.17-4.93-1.37-7.3,0.24
		c-0.93-0.67-1.86-1.35-2.79-2.02c-0.45-0.83-0.98-1.93-2.03-1.46c-1.47,0.65-0.65,2.19-0.81,3.35c1.04,3.09-2.81,4.03-2.92,6.62
		c0,0-0.01,0-0.01,0.01c-1.18,0.06-2.37,0.12-3.55,0.19c0.49-0.78,1.01-1.54,1.48-2.33c1.84-3.07,3.4-5.72,0.71-9.62
		c-3.64-5.28-1.85-10.48,4.23-15.87c2.1,0.32,2.07,1.57,1.36,3.11c-1.97,4.27-0.6,6.98,3.51,9.17c2.56,1.36,4.59,3.55,7.48,4.69
		c2.3,0.91,4.06,2.82,6.76,0.84C208.8,107.05,209.02,108.52,209.22,109.23z"/>
	<path class="st10" d="M212.87,80.19c-1.39,0.03-2.72-0.01-2.82-1.89c0.31-0.96,0.63-1.91,0.94-2.87c0.32-0.31,0.64-0.63,0.97-0.94
		c3.79,0.39,4.87-3.51,7.6-4.79c4.54,2.59,4.38-1.8,5.77-3.88c0.96-0.26,1.92-0.52,2.88-0.78c-0.02,0.62-0.04,1.24-0.05,1.86
		c-0.66,3.28,2.86,10.18,5.81,9.99c3.45-0.22,2.66,1.58,2.77,3.33c-2.26,1.16-3.73,3.21-5.54,4.88c-5.51-0.33-6.81-1.88-5.55-6.74
		c0.16-0.61,0.51-1.23-0.16-1.63c-0.74-0.44-1.48-0.16-2.15,0.32c-1.67,1.22-2.93,3.48-5.59,2.21
		C215.97,77.57,215.3,77.7,212.87,80.19z"/>
	<path class="st13" d="M236.73,80.21c-0.11-1.76,0.68-3.55-2.77-3.33c-2.95,0.19-6.46-6.7-5.81-9.99c5.07,1.56,8.9,5.79,14.29,6.65
		c0.32,0,0.64,0,0.96,0.01c0,0.64-0.01,1.28-0.01,1.91c0,0,0.03-0.03,0.03-0.03C240.74,76.4,239.85,79.87,236.73,80.21z"/>
	<path class="st4" d="M194.66,94.64c3.34,2.83,8.46,3.03,10.79,7.33c-4.63,1.67-10.71-1.91-12.54-7.41
		C193.5,94.59,194.08,94.62,194.66,94.64z"/>
	<path class="st12" d="M194.66,94.64c-0.58-0.03-1.16-0.05-1.74-0.08c-1.83-1.52-0.55-2.63,0.41-3.92c2.34-3.14,4.61-6.32,9-6.68
		c0.02,1.07,0.35,2.3-1.04,2.78C197.48,88.06,195.94,91.24,194.66,94.64z"/>
	<path class="st12" d="M210.98,75.43c-0.31,0.96-0.63,1.91-0.94,2.87c-2.82,1.53-4.36,4.8-7.68,5.63
		C204.12,79.97,207.03,77.17,210.98,75.43z"/>
	<path class="st10" d="M182.64,117.54c1.18-0.06,2.37-0.12,3.55-0.19c-0.59,3.42-3.08,3.78-5.87,3.66
		C180.15,119.23,181.06,118.16,182.64,117.54z"/>
	<path class="st10" d="M180.32,121c0.08,2.62-1.9,2.68-3.69,2.99c0.03-0.6,0.07-1.2,0.1-1.8C177.68,121.03,178.96,120.9,180.32,121z
		"/>
	<path class="st12" d="M176.73,122.19c-0.03,0.6-0.07,1.2-0.1,1.8c-0.63,0.32-1.25,0.65-1.88,0.97c-0.31-0.35-0.63-0.69-0.94-1.04
		c0.01-0.57,0.02-1.14,0.03-1.71C174.81,122.21,175.77,122.2,176.73,122.19z"/>
	<path class="st2" d="M176.67,116.42c1.22-1.41,2.43-2.82,3.65-4.23C180.84,115.1,179.73,116.6,176.67,116.42z"/>
	<path class="st2" d="M104.25,100.19c0.95,0.04,1.89,0.07,2.84,0.11C106.1,101.45,105.15,101.44,104.25,100.19z"/>
	<path class="st6" d="M57.33,135.5c-0.2-0.9-0.41-1.79-0.61-2.69c7,1.83,12.76,0.07,17.07-5.88c0.61,0.01,1.21,0.02,1.82,0.03
		c0.13,0.27,0.25,0.54,0.35,0.82c-0.08,0.65-0.17,1.3-0.25,1.96c-1.35,4.91-6.41,4.62-9.64,6.89
		C63.08,136.85,59.91,138.45,57.33,135.5z"/>
	<path class="st8" d="M75.61,126.95c-0.61-0.01-1.21-0.02-1.82-0.03c-0.01-1.12-0.02-2.24-0.04-3.37c1.34,0.84,2.5-0.49,3.78-0.32
		c0.03,0.6,0.07,1.2,0.1,1.81c-0.62,0.11-1.23,0.21-1.85,0.32c-0.14,0-0.29,0.01-0.43,0.01c0.12,0.17,0.25,0.34,0.37,0.51
		C75.69,126.24,75.65,126.6,75.61,126.95z"/>
	<path class="st12" d="M77.63,125.04c-0.03-0.6-0.07-1.2-0.1-1.81c0.49-0.64,1.19-1.29,1.66-0.24
		C79.78,124.3,78.88,124.91,77.63,125.04z"/>
	<path class="st12" d="M75.72,125.89c-0.12-0.17-0.25-0.34-0.37-0.51c0.14,0,0.29-0.01,0.43-0.01
		C75.78,125.54,75.76,125.71,75.72,125.89z"/>
	<path class="st3" d="M172.94,82.05c0.12,2.14-0.47,3.91-2.05,5.52c-5.75,5.87-12.81,8.32-20.82,7.77c-2.57-0.18-5.16-1.5-5.79-4.66
		c0.73-1.66,2.72-2.42,3.07-4.34c0.47-0.27,0.95-0.54,1.42-0.81c3.44,0.01,5.72-2.94,8.95-3.49
		C162.79,81.17,167.87,78.3,172.94,82.05z"/>
	<path class="st10" d="M172.94,82.05c-5.08-3.75-10.15-0.87-15.23-0.01c-3.23,0.55-5.51,3.5-8.95,3.49c1.08-2.7,3.76-3.24,6-4.14
		c7.44-2.99,15.05-3.91,22.83-1.22c2.1,3.26-0.34,5.47-1.84,7.9C175.37,85.81,176.76,82.72,172.94,82.05z"/>
	<path class="st2" d="M168.6,56.34c-0.61,0.51-1.18,0.58-1.7-0.13C167.5,55.85,168.06,55.89,168.6,56.34z"/>
	<path class="st3" d="M243.39,75.47c0-0.64,0.01-1.28,0.01-1.91c-0.52-3.31,2.81-4.39,3.91-6.76c0.63,0.03,1.26,0.06,1.88,0.09
		c0.47,1.18,1.36,1.92,2.52,2.37c-1.9,2.31-6.29,2.06-6.4,6.22C244.68,75.47,244.04,75.47,243.39,75.47z"/>
	<path class="st12" d="M245.33,75.47c0.11-4.15,4.5-3.9,6.4-6.22c0.7-0.13,1.4-0.27,2.1-0.41
		C254.12,73.13,252.19,74.63,245.33,75.47z"/>
	<path class="st5" d="M242.44,73.55c-5.39-0.86-9.22-5.09-14.29-6.65c0.02-0.62,0.04-1.24,0.05-1.86c0.91,0.03,1.83,0.06,2.74,0.1
		C234.03,68.96,239.45,69.59,242.44,73.55z"/>
	<path class="st13" d="M225.32,65.82c-1.39,2.08-1.24,6.47-5.77,3.88c0.16-1.47,2.18-2.09,1.74-3.83
		C222.61,64.33,223.93,62.32,225.32,65.82z"/>
	<path class="st8" d="M123.35,213.75c-2.02-0.15-3.66,0.19-3.63,2.74c-0.99,0.84-1.99,1.68-2.98,2.52
		c-0.34,0.45-0.68,0.89-1.03,1.33c0,0,0.05,0,0.05,0c-3.1,0.41-4.63,2.87-6.36,4.98c-1.88,2.3-3.78,3.03-6.13,0.74
		c-0.01-0.26-0.02-0.53-0.04-0.79c1.05-0.21,2.07-0.45,2.39-1.7c0.31-0.32,0.63-0.63,0.94-0.95c1.09-0.16,1.7-0.84,1.99-1.86
		c1.29-0.34,2.09-1.24,2.73-2.33c3.23-1.09,4.89-3.7,6.3-6.54c1.73-1.3,3.75-1.13,5.74-1.17c3.63,2.3,3.81-3.41,6.67-2.87
		c0.34,2.86-2.46,3.46-3.73,5.16C125.17,212.75,124.09,212.58,123.35,213.75z"/>
	<path class="st5" d="M103.23,225.27c0.02,0.26,0.03,0.53,0.04,0.79c-1.38,0.02-2.7-0.05-2.86-1.88c0,0,0.26-0.3,0.26-0.3
		c0,0,0.4,0.02,0.4,0.02s0.4-0.03,0.4-0.03c0.61,0.41,1.22,0.82,1.84,1.22C103.3,225.08,103.23,225.27,103.23,225.27z"/>
	<path class="st1" d="M115.72,220.34c0.34-0.44,0.68-0.89,1.03-1.33C116.67,219.66,116.5,220.24,115.72,220.34z"/>
	<path class="st13" d="M120.47,220.32c-0.07,0.12-0.14,0.25-0.21,0.37C120.32,220.56,120.39,220.44,120.47,220.32
		C120.46,220.31,120.47,220.32,120.47,220.32z"/>
	<path class="st1" d="M91.97,221.3c-0.75-0.58-1.49-1.16-2.24-1.73c-2.27-1.73-5.05-1.9-7.11-0.47c-2.25,1.55-1.42,4.27-0.45,6.53
		c0.66,1.54,1.44,3.02,1.32,5.51c-3.82-3.86-4.69-8.08-4.89-12.5c-0.12-2.66,2-3.48,4.05-3.87c3.42-0.65,9.22,2.87,11.14,6.51
		C93.18,221.27,92.57,221.29,91.97,221.3z"/>
	<path class="st4" d="M117.61,152.66c5.7-0.48,7.82-4.06,6.71-11.31c5.81,0.55,10.85,3.36,16.1,5.53c1.34,0.62,2.26,2.11,3.98,1.93
		c0.66,1.05,1.76,0.87,2.75,0.99c0.27,0.01,0.53,0.01,0.8-0.02c1.51,2.44,0.86,4.3-1.31,6.06c-3.06,2.48-6.03,5.09-8.87,7.82
		c-1.79,1.72-3.43,3.3-6.74,1.11c1.36,2.85-0.57,5,0.94,6.99c-2.24,2.95-5.01,0.94-7.57,0.79c-1.57-1.02-2.94-2.39-4.89-2.73
		c-0.12-2.03-1.92-2.27-3.23-3.04c-2.71-1.58-5.83-2.41-8.23-4.55c2.61-3.42,6.87-5.35,8.63-9.54
		C116.99,152.67,117.3,152.67,117.61,152.66z"/>
	<path class="st10" d="M109.98,180.31c8.76-0.75,15.4,3.24,21.07,9.4c-0.48,1.92,0.89,3.18,1.6,4.7c1.14,2.45,1.28,4.88-1.28,6.6
		c-2.67,1.79-4.66,0.76-6.14-1.79c0.3-0.29,0.6-0.57,0.9-0.86c3.69-1.16,4.08-3.71,1.02-6.65c-2.31-1.11-2.14-5.17-5.7-4.8
		c-0.29-0.03-0.57-0.06-0.86-0.1c-1.34-4.46-5.07-2.1-7.76-2.72c-3.39,0.09-6.53,0.52-6.76,4.94c-1.34-0.07-2.68-0.13-4.02-0.2
		c0.08-0.31,0.17-0.62,0.25-0.93C104.87,185.37,107.42,182.84,109.98,180.31z"/>
	<path class="st10" d="M124.39,172.55c2.57,0.14,5.33,2.15,7.57-0.79c5.52-3.54,9.63-8.73,14.83-12.64
		c4.49-3.39,7.18-8.73,12.27-11.48c0.57,1.47-0.18,2.62-1.27,3.26c-4.14,2.43-4.18,5.65-2.09,9.4l0.02-0.02
		c-2.54-1.83-4.29-1.85-6.91,0.76c-5.58,5.55-11.89,10.36-17.9,15.47C128.12,176.23,125.9,174.98,124.39,172.55z"/>
	<path class="st8" d="M125.24,199.21c1.48,2.54,3.47,3.57,6.14,1.79c2.56-1.72,2.42-4.15,1.28-6.6c-0.71-1.52-2.08-2.78-1.6-4.7
		c2.75,1.75,4.61,4.37,6.69,6.77c0.57,2.67,0.33,5.23-1.06,7.63c-1.3,0.23-2.82-0.42-3.83,0.96c-1.61,0.37-3.22,0.74-4.84,1.1
		c-0.94-0.38-1.88-0.76-2.82-1.14c-0.27-2.76-2.18-3.64-4.57-3.98c-0.32-2.54-3.15-3.3-3.93-5.51c0.28-0.35,0.56-0.7,0.83-1.04
		c0.08-0.27,0.11-0.54,0.08-0.82c0.52,0.11,1.03,0.22,1.55,0.33C120.45,196.6,122.34,198.49,125.24,199.21z"/>
	<path class="st6" d="M109.98,180.31c-2.56,2.53-5.12,5.06-7.67,7.6c-0.3,0.01-0.59,0-0.89,0l0-0.01
		c-0.67-5.14-2.63-10.35,0.94-15.22c3.09-1.79,4.67,0.64,5.3,2.66C108.23,177.16,109.75,178.42,109.98,180.31z"/>
	<path class="st12" d="M108.05,162.22c2.4,2.14,5.52,2.97,8.23,4.55c1.31,0.76,3.11,1.01,3.23,3.04c-4.25-0.41-7.35-3.75-11.46-4.51
		c-2.1-2.05-5.32-1.55-7.55-3.29C103.05,160.43,105.51,163.02,108.05,162.22z"/>
	<path class="st5" d="M136.69,204.1c1.39-2.4,1.63-4.96,1.06-7.63c2.99,2.08,4,5.24,4.64,8.58c-1-0.25-2.01-0.49-3.01-0.74
		C138.48,204.25,137.58,204.17,136.69,204.1z"/>
	<path class="st9" d="M127.74,182.39c-2.44,0.04-4.32-0.68-5.16-3.06c-0.3-0.85,0.17-1.75,1.1-1.53
		C125.96,178.35,127.48,179.75,127.74,182.39z"/>
	<path class="st6" d="M143.34,195.49c0.93,1.14,2.28,2.08,1.89,3.86c-2.36,0.07-2.55-0.21-2.77-4.06
		C142.75,195.37,143.05,195.44,143.34,195.49z"/>
	<path class="st6" d="M148.12,205.09c-0.78-0.5-2.01-1-1.44-1.99c0.61-1.06,1.17-0.22,1.35,0.6
		C148.12,204.14,148.09,204.61,148.12,205.09z"/>
	<path class="st12" d="M125.2,205.03c0.94,0.38,1.88,0.76,2.82,1.14c0.03,0.26,0.04,0.52,0.03,0.78c-2.84-0.32-3.83,1.67-4.74,3.77
		c-1.98,0.04-4.01-0.13-5.74,1.17c-0.08-1.01-0.4-2.01-1.57-1.95c-4.4,0.22-8.63-1.67-13.05-1.04c-6.92-1.91-10.66,0.07-11.23,5.97
		c-4.13-1.37-8.26-2.74-12.4-4.12c0.21-0.1,0.33-0.27,0.35-0.51c1.84-1.41,3.67-2.82,5.51-4.23c3.09-0.15,5.69-1.36,7.78-3.65
		c1.91-0.15,5.64,1.96,3.71-2.98c0.47-2.94,2.9-4.93,3.73-7.69c2.83-2.04,7.56-0.76,10.31,2.8c-0.88-0.05-1.65,0.09-1.97,1.07
		c-0.53,1.51-4.44,0.97-2.42,4.01c1.65,3.64,5.37,3.43,8.39,4.52c2.49,1.86,5.27,0.75,7.93,0.78
		C123.51,204.93,124.36,204.98,125.2,205.03z"/>
	<path class="st10" d="M123.32,210.72c0.9-2.11,1.9-4.09,4.74-3.77c0.65,0.3,1.29,0.6,1.94,0.9
		C127.13,207.31,126.95,213.01,123.32,210.72z"/>
	<path class="st10" d="M123.35,213.75c0.74-1.16,1.81-1,2.91-0.74C125.68,214.79,124.72,215.05,123.35,213.75z"/>
	<path class="st10" d="M102.97,208.9c4.42-0.64,8.65,1.25,13.05,1.04c1.16-0.06,1.49,0.94,1.57,1.95c-1.42,2.84-3.08,5.45-6.31,6.54
		c-0.75-0.02-1.5-0.04-2.25-0.07c-4.07-0.89-6.42,0.82-7.56,5.5l-0.4,0.03c0,0-0.4-0.01-0.4-0.02c-0.28-2.63-3.35-3.03-4.17-5.23
		c3.19,0.97,5.38-0.46,7.08-2.99C105.18,213.25,104.52,211.03,102.97,208.9z"/>
	<path class="st3" d="M102.97,208.9c1.55,2.13,2.22,4.35,0.61,6.75c-1.7,2.53-3.89,3.96-7.08,2.99c-1.21-0.39-2.28-0.98-3-2.08
		c2.28,0.2,4.02-0.62,4.85-2.81c0.16-0.43-0.14-1.46-0.48-1.6c-2.32-0.98-2.37,2.08-4.03,2.39c-0.3,0.06-0.57,0.25-0.86,0.37
		c-0.41-0.02-0.82-0.04-1.24-0.06C92.31,208.97,96.05,206.98,102.97,208.9z"/>
	<path class="st4" d="M92.98,214.92c0.29-0.13,0.56-0.32,0.86-0.37c1.66-0.31,1.71-3.37,4.03-2.39c0.34,0.15,0.65,1.17,0.48,1.6
		c-0.83,2.2-2.57,3.01-4.85,2.81C92.85,216.16,92.75,215.59,92.98,214.92z"/>
	<path class="st10" d="M173.82,123.92c0.31,0.35,0.63,0.69,0.94,1.04c-0.71,1.02-1.43,2.05-2.38,3.41c2.21,1.07,4.29,2.44,6.57,3.09
		c4.32,1.24,2.27,4,0.44,4.27c-7.83,1.13-11.74,8.06-18.05,11.3c-0.3-0.1-0.58-0.23-0.84-0.4c0.03-0.27,0.03-0.55,0.01-0.83
		c1.23-2.15,4.67-2.38,4.79-5.49c0,0,0.01-0.01,0.01-0.01c3.52-1.03,5.64-4.48,9.26-5.39c0.37-0.09,0.78-1.04,0.73-1.54
		c-0.12-1.09-1.06-1.47-2.04-1.6c-2.8-0.36-5.59-0.84-8.39-0.99c-1.87-0.1-2.57-1.08-2.64-2.63c-0.08-1.88,1.63-0.81,2.41-1.3
		c2.29-1.43,5.55-0.09,7.42-2.65C172.64,124.11,173.23,124.02,173.82,123.92z"/>
	<path class="st13" d="M189.11,110.73c0.16-1.16-0.67-2.7,0.81-3.35c1.05-0.46,1.58,0.64,2.03,1.46
		C191.39,110.07,190.45,110.71,189.11,110.73z"/>
	<path class="st7" d="M215.74,107.61c-0.11-0.09-0.21-0.18-0.32-0.26c0.12-0.07,0.25-0.19,0.37-0.18c0.11,0.01,0.21,0.16,0.32,0.25
		C215.98,107.48,215.86,107.55,215.74,107.61z"/>
	<path class="st10" d="M157.64,162.17c-1.2-0.07-1.83-0.71-1.9-1.91c0,0-0.02,0.02-0.02,0.02c1.2,0.07,1.8,0.73,1.91,1.9
		L157.64,162.17z"/>
	<path class="st8" d="M157.63,162.18c-0.11-1.17-0.71-1.83-1.91-1.9c-2.09-3.75-2.05-6.97,2.09-9.4c1.09-0.64,1.84-1.79,1.28-3.26
		c0.19-0.83,0.36-1.68,1.43-1.83c0.02,0.28,0.02,0.55-0.01,0.83c1.12,5.6,5.5,9.45,7.74,14.45c-0.5,0.37-1.03,0.71-1.49,1.13
		C161.89,166.67,161.89,166.67,157.63,162.18z"/>
	<path class="st10" d="M85.2,206.01c0.69-0.92,1.37-1.84,2.06-2.75c1.65-1.61,3.29-3.22,4.94-4.82c0.57-0.53,1.15-1.05,1.72-1.58
		c0.62-0.77,1.25-1.54,1.87-2.31c0.37-0.58,0.75-1.15,1.12-1.73c1.17-0.38,2.34-0.75,3.51-1.13c-0.83,2.76-3.26,4.75-3.73,7.69
		c-1.94,0.11-3.1,1.2-3.71,2.98C90.88,204.65,88.29,205.86,85.2,206.01z"/>
	<path class="st6" d="M73.8,165.94c-1.37,1.05-0.76,2.6-1.04,3.94c-0.45,2.16-1.3,3.73-3.76,1.79c2.12-6.41,1.48-9.06-3.01-12.33
		c-0.12-0.3-0.23-0.6-0.35-0.9C70.38,158.75,72.94,161.42,73.8,165.94z"/>
	<path class="st5" d="M100.42,191.69c-1.17,0.38-2.34,0.75-3.51,1.13c-0.55-3.53,2.34-3.9,4.52-4.93c0,0,0,0.01,0,0.01
		c0.21,0.31,0.43,0.62,0.64,0.93c1.34,0.07,2.68,0.13,4.02,0.2c1.06,0.97,2.45,0.82,3.71,1.09c0.93,0.88,2.54,0.72,3.19,2.04
		c-0.35,1.16-0.94,2.1-2.25,2.34C107.98,190.93,103.25,189.65,100.42,191.69z"/>
	<path class="st12" d="M89.98,159.26c3.4-1.08,6.12,0.3,8.68,2.34C95.59,161.47,92.64,160.91,89.98,159.26z"/>
	<path class="st12" d="M78.56,156.33c2.46-1.41,4.19-0.18,5.79,1.58C82.28,157.89,80.3,157.57,78.56,156.33z"/>
	<path class="st12" d="M56.64,150.63c1.1-1.22,1.59-0.46,1.98,0.62C57.8,151.54,57.13,151.37,56.64,150.63z"/>
	<path class="st12" d="M74.76,155.35c1.05-1.16,1.58-0.52,1.98,0.57C75.93,156.25,75.26,156.07,74.76,155.35z"/>
	<path class="st12" d="M86.17,158.29c1.08-1.23,1.61-0.59,1.99,0.58C87.37,159.14,86.69,159,86.17,158.29z"/>
	<path class="st12" d="M60.44,151.64c1.08-1.27,1.6-0.56,1.99,0.57C61.63,152.49,60.95,152.35,60.44,151.64z"/>
	<path class="st5" d="M65.99,159.35c4.48,3.27,5.13,5.91,3.01,12.33c-1.58-0.62-3.17-1.24-4.75-1.86c-0.32-1.24-0.65-2.49-0.97-3.73
		C66.29,164.7,65.9,161.93,65.99,159.35z"/>
	<path class="st5" d="M66.07,136.62c3.23-2.28,8.29-1.98,9.64-6.89c2.25,0.32,2.31,1.87,1.86,3.55
		c-1.61,5.99-13.53,10.35-18.68,6.84c-0.34-0.23-0.49-0.73-0.72-1.09C60.56,137.12,64.37,140.41,66.07,136.62z"/>
	<path class="st13" d="M67.63,127.01c-0.41,1.82-2.07,2.12-3.48,2.57c-0.81,0.26-2.24,0.42-2.24-0.8c0.01-1.95,1.96-2.15,3.36-2.63
		C66.09,125.87,67.15,125.72,67.63,127.01z"/>
	<path class="st12" d="M160.51,145.8c-1.07,0.15-1.24,0.99-1.43,1.83c-5.1,2.76-7.78,8.1-12.28,11.48
		c-5.2,3.92-9.31,9.11-14.83,12.64c-1.51-1.99,0.42-4.14-0.94-6.99c3.31,2.18,4.95,0.61,6.74-1.11c2.84-2.73,5.81-5.34,8.87-7.82
		c2.17-1.76,2.82-3.61,1.31-6.06c2.59,0.83,4.88,1.26,6.99-1.41c1.45-1.84,2.2-3.28,0.68-5.28c4.02,1.85,6.15-2.86,9.67-2.78
		C165.18,143.43,161.74,143.65,160.51,145.8z"/>
	<path class="st8" d="M147.17,140.51c-0.47-0.76-1.33-1.36-0.97-2.45c2.77,1.53,6.65,1.26,8.07,4.98c-1.74-0.62-3.47-1.23-5.2-1.84
		C148.43,140.97,147.8,140.74,147.17,140.51z"/>
	<path class="st12" d="M149.06,141.2c1.73,0.61,3.47,1.23,5.2,1.84c0,0,0,0.06,0,0.06C152.01,143.91,149.64,145.01,149.06,141.2z"/>
	<path class="st12" d="M147.16,149.79c-0.99-0.12-2.09,0.05-2.75-0.99C145.97,147.34,146.8,147.91,147.16,149.79z"/>
	<path class="st13" d="M170.03,110.73c-0.94,0.7-1.87,1.39-2.81,2.09c-1.54-1.73-2.45-1.29-2.86,0.83
		c-2.62-0.05-6.24,1.15-4.89-3.89c1.92-0.98,3.49-2.56,5.75-2.97C168.49,106.18,170.41,106.99,170.03,110.73z"/>
	<path class="st12" d="M170.03,110.73c0.37-3.74-1.54-4.55-4.82-3.94c-2.26,0.42-3.83,1.99-5.75,2.97
		c-2.01-1.01-1.72-1.96,0.07-2.87c3.46-1.91,6.9-4.48,11.01-1.88C173.77,107.04,173.56,109.13,170.03,110.73z"/>
	<path class="st3" d="M159.54,106.89c-1.8,0.91-2.09,1.86-0.07,2.87c-1.35,5.04,2.27,3.84,4.89,3.89c0.65,0.3,1.31,0.61,1.96,0.91
		c-2.35,1.82-5.03,0.83-7.58,0.85c-1.6,0.01-1.98-1.14-2.03-2.52c-0.05-1.33,0.29-2.96-1.88-2.98c-0.74-2.14,1.72-3.08,1.84-4.9
		C158.06,104.98,159.43,104.99,159.54,106.89z"/>
	<path class="st12" d="M177.74,106.2c-0.02,1.18-0.04,2.36-0.06,3.54c-2.76-0.41-2.28-2.74-1.94-4.24
		C175.96,104.51,177.2,105.39,177.74,106.2z"/>
	<path class="st12" d="M166.32,114.56c-0.65-0.3-1.31-0.61-1.96-0.91c0.41-2.13,1.32-2.56,2.86-0.83c-0.05,0.59-0.1,1.18-0.16,1.76
		C166.82,114.59,166.57,114.58,166.32,114.56z"/>
	<path class="st3" d="M153.85,110.81c-0.62,0.65-1.23,1.31-1.85,1.96c0.1-1.15-0.66-2.63,0.64-3.32
		C153.65,108.92,153.63,110.17,153.85,110.81z"/>
	<path class="st12" d="M208.14,91.66c0.12-0.79,1-1.94,1.24-1.39c2.27,5.15,4.87,1.29,7.35,0.44l-0.01-0.01
		c-0.04,5.1-5.42,5.6-7.7,8.81c-0.47,0.66-2.3-0.17-2-0.94c0.99-2.52,0-2.37-1.76-1.66c-0.93,0.38-1.95,0.65-2.47-0.4
		c-0.56-1.1,0.28-1.65,1.25-2.05c1.55-0.65,1.98-2.97,4.11-2.8c0.12,0.07,0.25,0.15,0.37,0.22
		C208.39,91.8,208.26,91.73,208.14,91.66z"/>
	<path class="st12" d="M220.17,82.06c-2.24,2.46-4.09,5.31-7.56,6.64C213.59,85.1,215.98,82.91,220.17,82.06z"/>
	<path class="st12" d="M212.87,80.19c2.43-2.49,3.1-2.62,4.87-0.93c-2.18,1.81-4.35,3.62-6.65,5.53
		C210.28,82.53,212.38,81.69,212.87,80.19z"/>
	<path class="st12" d="M216.73,90.71c0.06-0.13,0.13-0.25,0.19-0.38c-0.07,0.12-0.14,0.24-0.21,0.37
		C216.71,90.7,216.73,90.71,216.73,90.71z"/>
	<path class="st12" d="M109.02,218.36c0.75,0.02,1.5,0.04,2.25,0.07c-0.64,1.1-1.44,2-2.73,2.33c-0.19-0.2-0.38-0.39-0.57-0.57
		C108.32,219.58,108.67,218.97,109.02,218.36z"/>
	<path class="st12" d="M108.55,220.76c-0.29,1.02-0.89,1.7-1.99,1.86c-0.15-0.16-0.31-0.32-0.48-0.47c0.12-1.14,0.76-1.79,1.89-1.97
		C108.17,220.37,108.36,220.56,108.55,220.76z"/>
	<path class="st12" d="M105.62,223.57c-0.32,1.24-1.34,1.49-2.39,1.7c0,0,0.07-0.18,0.07-0.18c-0.01-1.23,0.62-1.88,1.82-2.03
		C105.28,223.24,105.45,223.41,105.62,223.57z"/>
	<path class="st12" d="M106.56,222.62c-0.31,0.32-0.63,0.63-0.94,0.95c-0.17-0.16-0.34-0.33-0.5-0.51c0.32-0.3,0.64-0.6,0.96-0.91
		C106.25,222.3,106.41,222.46,106.56,222.62z"/>
	<path class="st13" d="M106.08,222.15c-0.32,0.3-0.64,0.6-0.96,0.91c-1.2,0.14-1.83,0.8-1.82,2.03c-0.61-0.41-1.22-0.81-1.84-1.22
		c1.14-4.68,3.49-6.39,7.56-5.5c-0.35,0.61-0.7,1.22-1.05,1.83C106.85,220.36,106.2,221.01,106.08,222.15z"/>
	<path class="st12" d="M112.98,192.16c-0.65-1.32-2.26-1.16-3.19-2.04c-0.3-2.68,1.93-4.08,3.05-6.03c2.69,0.62,6.42-1.74,7.76,2.72
		c-5.67,1.83-5.67,1.83-2.98,6.86c0.02,0.28-0.01,0.55-0.08,0.82c-1.09-0.93-2.28-1.66-3.72-1.89
		C113.57,192.39,113.29,192.24,112.98,192.16z"/>
	<path class="st12" d="M125.24,199.21c-2.9-0.72-4.79-2.62-6.07-5.22c3.46-0.21,6.61-0.55,2.57-4.83c-0.42-0.45-0.21-1.49-0.29-2.26
		c3.56-0.38,3.39,3.69,5.7,4.8c0.21,2.3-0.36,4.48-1.02,6.65C125.84,198.64,125.54,198.93,125.24,199.21z"/>
	<path class="st3" d="M121.46,186.91c0.08,0.77-0.13,1.81,0.29,2.26c4.04,4.28,0.9,4.61-2.57,4.83c-0.52-0.11-1.04-0.22-1.55-0.32
		c-2.69-5.04-2.69-5.04,2.98-6.86C120.88,186.85,121.17,186.88,121.46,186.91z"/>
	<path class="st13" d="M112.84,184.09c-1.13,1.95-3.35,3.35-3.05,6.03c-1.26-0.27-2.65-0.12-3.71-1.09
		C106.31,184.61,109.45,184.18,112.84,184.09z"/>
	<path class="st13" d="M126.14,198.36c0.66-2.17,1.23-4.35,1.02-6.65C130.22,194.65,129.83,197.2,126.14,198.36z"/>
	<path class="st7" d="M102.06,188.83c-0.21-0.31-0.43-0.62-0.64-0.93c0.3,0.01,0.59,0.01,0.89,0
		C102.23,188.21,102.14,188.52,102.06,188.83z"/>
	<path class="st1" d="M116.7,195.54c0.78,2.21,3.61,2.97,3.93,5.52c-0.15,0.19-0.31,0.37-0.46,0.55c-2.47-1.63-4.94-3.25-6.65-5.75
		C114.58,195.75,115.64,195.64,116.7,195.54z"/>
	<path class="st1" d="M125.2,205.03c-0.84-0.05-1.69-0.1-2.53-0.15c-0.83-1.09-1.66-2.19-2.49-3.28c0.15-0.18,0.31-0.36,0.46-0.55
		C123.02,201.38,124.93,202.26,125.2,205.03z"/>
	<path class="st5" d="M116.7,195.54c-1.06,0.11-2.12,0.21-3.18,0.32c0,0,0.15-0.17,0.15-0.17c0.05-1.03,0.09-2.05,0.14-3.08
		c1.45,0.23,2.63,0.96,3.72,1.89C117.26,194.84,116.98,195.19,116.7,195.54z"/>
	<path class="st13" d="M120.17,201.6c0.83,1.09,1.66,2.19,2.49,3.28c-2.67-0.03-5.44,1.08-7.93-0.78c2.56-0.53,2.06-1.94,0.85-3.33
		c-2.69-3.08-5.86-3.12-9.24-1.19c-2.02-3.04,1.89-2.51,2.42-4.01c1.64,0.04,3.28,0.07,4.91,0.11c0,0-0.15,0.17-0.15,0.17
		C115.24,198.35,117.71,199.97,120.17,201.6z"/>
	<path class="st3" d="M106.34,199.58c3.38-1.92,6.55-1.89,9.24,1.19c1.21,1.38,1.71,2.8-0.85,3.33
		C111.71,203.01,107.99,203.22,106.34,199.58z"/>
	<path class="st13" d="M92.97,202.36c0.61-1.78,1.77-2.87,3.71-2.98C98.61,204.32,94.89,202.21,92.97,202.36z"/>
	<path class="st1" d="M113.68,195.68c-1.64-0.04-3.28-0.07-4.91-0.11c0.32-0.98,1.09-1.12,1.97-1.07c1.31-0.24,1.9-1.17,2.25-2.34
		c0.31,0.08,0.59,0.23,0.83,0.44C113.77,193.63,113.72,194.65,113.68,195.68z"/>
	<path class="st13" d="M208.14,91.66c0.13,0.07,0.26,0.14,0.39,0.21c-0.13-0.07-0.25-0.15-0.37-0.22
		C208.15,91.65,208.14,91.66,208.14,91.66z"/>
	<g id="Base_1_">
		<path class="st15" d="M0,0v300h300V0H0z M292.5,292.5H7.5V7.5h285V292.5z"/>
	</g>
</g>
</svg>
